<svg id="Layer_1" xmlns="http://www.w3.org/2000/svg" viewBox="0 0 248.62 248.62" width="248.62" height="248.62"><defs><style>.cls-1,.cls-2{stroke-width:0px;}.cls-2{fill:#fff;}</style></defs><circle class="cls-1" cx="124.31" cy="124.31" r="124.31"/><path class="cls-2" d="m34.06,162.16c20.56-13.21,34.26-23.49,43.07-31.97,13.7-12.89,16.31-21.37,16.31-29.53,0-11.09-7.01-17.62-18.43-17.62s-18.76,7.18-22.68,16.8l-20.39-9.95c7.99-16.15,23.17-26.75,43.39-26.75,27.24,0,41.44,15.17,41.44,34.26,0,15.33-8.65,26.59-33.12,40.62-12.07,7.01-28.06,14.68-48.78,23.98h81.24v21.86H34.06v-21.7Z"/><path class="cls-2" d="m121.26,126.43v-5.55c0-41.27,20.88-57.75,46.98-57.75s46.98,16.97,46.98,57.75v5.55c0,43.72-19.74,59.05-46.98,59.05s-46.98-15.82-46.98-59.05Zm70.31-.33v-4.89c0-28.87-9.3-36.22-23.17-36.22s-23.49,8.16-23.49,36.22v4.89c0,29.36,8.81,37.36,23.33,37.36s23.33-8.32,23.33-37.36Z"/><path class="cls-2" d="m163.53,120.04h2.27l-3.77,7.3v4.23h-1.98v-4.23l-3.76-7.3h2.27l2.27,4.73.07.92h.28l.05-.92,2.29-4.73Z"/><path class="cls-2" d="m176.69,131.57h-7.02v-11.53h7.02v1.84h-5.04v3h4.88v1.83h-4.88v3h5.04v1.86Z"/><path class="cls-2" d="m189.75,131.57h-2.12l-.96-3.81h-3.28l-.97,3.81h-2.12l3.16-11.53h3.15l3.15,11.53Zm-4.94-9.41l-.97,3.81h2.37l-.96-3.81-.08-1.09h-.28l-.08,1.09Z"/><path class="cls-1" d="m199.13,131.57l-2.92-4.93h-.66v4.93h-1.98v-11.53h4.12c1.2,0,2.13.27,2.79.82.66.55,1,1.36,1,2.44,0,.93-.3,1.66-.89,2.17s-1.41.8-2.44.88v.21l.49.23,2.87,4.78h-2.39Zm-3.58-9.7v3.08h2.16c.55,0,.98-.13,1.29-.4s.46-.66.46-1.16-.15-.87-.46-1.13c-.31-.26-.74-.39-1.29-.39h-2.16Z"/><path class="cls-1" d="m206.02,130.81c-.71-.68-1.06-1.69-1.06-3.03h2.06c0,.76.17,1.32.53,1.7.35.37.9.56,1.65.56.64,0,1.13-.15,1.49-.44.36-.29.54-.69.54-1.21,0-.42-.14-.76-.43-1.02-.29-.26-.75-.46-1.38-.58l-1.33-.25c-.98-.18-1.72-.54-2.24-1.1-.52-.55-.77-1.25-.77-2.1,0-.71.17-1.34.52-1.88.35-.54.83-.96,1.47-1.25.63-.3,1.36-.44,2.2-.44,1.33,0,2.35.34,3.06,1.03.71.69,1.07,1.68,1.07,2.99h-2.04c0-.75-.17-1.31-.52-1.68s-.89-.56-1.62-.56c-.67,0-1.19.15-1.55.45-.36.3-.54.7-.54,1.19,0,.42.15.76.44,1.01.29.26.76.45,1.41.58l1.32.25c.98.2,1.72.57,2.23,1.12.51.55.77,1.26.77,2.14,0,1.08-.37,1.93-1.1,2.57-.74.64-1.75.96-3.03.96-1.36,0-2.4-.34-3.11-1.02Z"/></svg>