<?xml version="1.0" encoding="utf-8"?>
<!-- Generator: Adobe Illustrator 28.0.0, SVG Export Plug-In . SVG Version: 6.00 Build 0)  -->
<svg version="1.1" id="Layer_1" xmlns="http://www.w3.org/2000/svg" xmlns:xlink="http://www.w3.org/1999/xlink" x="0px" y="0px"
	 viewBox="0 0 134 392" style="enable-background:new 0 0 134 392;" xml:space="preserve" width="134" height="392">
<g>
	<g>
		<path d="M2.8,344.3v-15.7L32,321c3.4-1,5.7-2,7.1-3c1.4-1,2.1-2.3,2.1-3.9c0-1.2-0.4-2.1-1.1-2.9c-1.7-1.6-4.9-2.4-9.6-2.4
			c-7.7,0-11.8,2.7-12.3,8.1H0c0.2-5.5,2.8-9.7,8-12.6s12.6-4.3,22.3-4.3c6.6,0,12.1,0.6,16.5,1.8c4.4,1.2,7.7,2.9,9.9,5.1
			c2,2,3.1,4.4,3.1,7.2c0,3.6-1.4,6.5-4.1,8.7c-2.7,2.2-7.2,4-13.4,5.2l-22.5,5.3v1.3h40v9.6L2.8,344.3L2.8,344.3z"/>
		<path d="M122.7,369.8H137v9.2h-14.3v13H105v-13H70.1v-14.4l29.4-15h23.2V369.8z M83.2,368.5v1.3h21.7V358h-1.2L83.2,368.5z"/>
	</g>
</g>
<g>
	<g>
		<path d="M4.8,44.4V28.6l29.4-7.5c3.4-1,5.8-2,7.2-3s2.1-2.3,2.1-3.9c0-1.2-0.4-2.1-1.2-2.9c-1.7-1.6-4.9-2.4-9.6-2.4
			c-7.8,0-11.9,2.7-12.4,8.1H2c0.2-5.5,2.9-9.7,8.1-12.6C15.3,1.4,22.8,0,32.5,0c6.7,0,12.2,0.6,16.7,1.8C53.6,3,57,4.7,59.1,6.9
			c2.1,2,3.1,4.4,3.1,7.2c0,3.6-1.4,6.5-4.1,8.7c-2.7,2.2-7.2,4-13.5,5.3l-22.7,5.3v1.3h40.3v9.6L4.8,44.4L4.8,44.4z"/>
		<path d="M84.1,90c-5.5-2.6-9.2-6.5-11-11.5c-0.8-2.3-1.3-4.8-1.3-7.6c0-2.8,0.4-5.3,1.3-7.7c1.8-5,5.4-8.9,11-11.5
			c5.5-2.6,12.6-4,21.3-4s15.8,1.3,21.3,4c5.5,2.6,9.2,6.5,11,11.5c0.8,2.3,1.3,4.9,1.3,7.7s-0.4,5.3-1.3,7.6
			c-1.8,5.1-5.4,8.9-11,11.5c-5.5,2.6-12.6,4-21.3,4S89.6,92.7,84.1,90z M119.4,76.9c0.6-1.5,0.9-3.5,0.9-6s-0.3-4.5-0.9-6.1
			c-0.9-2.5-2.6-4.4-4.9-5.6c-2.4-1.2-5.4-1.9-9-1.9s-6.6,0.6-9,1.9c-2.4,1.2-4,3.1-4.9,5.6c-0.6,1.6-0.9,3.6-0.9,6.1
			c0,2.4,0.3,4.5,0.9,6c1.9,5,6.5,7.5,13.9,7.5C112.8,84.5,117.5,81.9,119.4,76.9z"/>
	</g>
</g>
</svg>
