<?xml version="1.0" encoding="utf-8"?>
<!-- Generator: Adobe Illustrator 28.0.0, SVG Export Plug-In . SVG Version: 6.00 Build 0)  -->
<svg version="1.1" id="Layer_1" xmlns="http://www.w3.org/2000/svg" xmlns:xlink="http://www.w3.org/1999/xlink" x="0px" y="0px"
	 viewBox="0 0 360 240" style="enable-background:new 0 0 360 240;" xml:space="preserve">
<style type="text/css">
	.st0{fill:none;}
</style>
<rect class="st0" width="360" height="240"/>
<g>
	<path d="M74.3,214.6c-27.4-13-45.5-32-54.3-57c-4.2-11.2-6.3-23.7-6.3-37.5c0-13.8,2.1-26.4,6.3-37.8c8.8-24.8,26.9-43.7,54.3-56.7
		C101.7,12.4,137,5.9,180,5.9c43,0,78.3,6.5,105.7,19.5c27.4,13,45.5,31.9,54.3,56.7c4.2,11.4,6.3,24,6.3,37.8
		c0,13.8-2.1,26.3-6.3,37.5c-8.8,25-26.9,44-54.3,57c-27.4,13-62.7,19.5-105.7,19.5C137,234.1,101.7,227.6,74.3,214.6z M249.1,149.7
		c3-7.6,4.5-17.5,4.5-29.7c0-12-1.5-22-4.5-30c-4.6-12.4-12.8-21.7-24.5-27.8C212.9,56.1,198,53,180,53s-32.9,3.1-44.6,9.2
		c-11.7,6.1-19.9,15.4-24.5,27.8c-3,8-4.5,18-4.5,30c0,12.2,1.5,22.1,4.5,29.7c9.4,24.8,32.4,37.2,69.1,37.2
		S239.6,174.5,249.1,149.7z"/>
</g>
</svg>
