<?xml version="1.0" encoding="utf-8"?>
<!-- Generator: Adobe Illustrator 28.0.0, SVG Export Plug-In . SVG Version: 6.00 Build 0)  -->
<svg version="1.1" id="Layer_1" xmlns="http://www.w3.org/2000/svg" xmlns:xlink="http://www.w3.org/1999/xlink" x="0px" y="0px"
	 viewBox="0 0 360 240" style="enable-background:new 0 0 360 240;" xml:space="preserve">
<style type="text/css">
	.st0{fill:none;}
</style>
<rect class="st0" width="360" height="240"/>
<g>
	<path d="M37.3,229v-77.8L183.2,114c16.8-4.8,28.7-9.8,35.6-14.9c6.9-5.1,10.4-11.5,10.4-19.1c0-5.8-1.9-10.6-5.7-14.4
		c-8.4-8-24.3-12-47.7-12c-38.6,0-59.1,13.3-61.3,39.9h-91c0.8-27.2,14.2-48,40.1-62.3C89.5,17,126.5,9.8,174.8,9.8
		c33,0,60.5,3,82.6,8.9c22,5.9,38.4,14.4,49.2,25.4c10.2,10,15.3,21.9,15.3,35.7c0,17.8-6.8,32.2-20.3,43.1
		c-13.5,10.9-35.9,19.6-67.1,26l-112.3,26.4v6.3h199.7V229H37.3z"/>
</g>
</svg>
