<svg version="1.1" id="Layer_1" xmlns="http://www.w3.org/2000/svg" xmlns:xlink="http://www.w3.org/1999/xlink" x="0px" y="0px"
	 viewBox="0 0 360 240" style="enable-background:new 0 0 360 240;" xml:space="preserve">
<style type="text/css">
	.st0{fill:#FFFFFF;}
	.st1{fill:#EAFF00;}
	
		 @keyframes rotate {
		100% {
			transform: rotate(-360deg);
		}
	 }


	 #XMLID_00000122702033855923458100000015202186965887237280_ {
	animation: rotate 50s linear infinite;
		transform-origin:50% 50%;
	 }
</style>
<rect class="main-rect" width="360" height="240"/>
<g class="dots">
	<path class="st0" d="M354,6.7c-1,2.4,0.1,5.1,2.5,6.1c1.1,0.5,2.4,0.4,3.4,0.1V4.1C357.6,3.2,355,4.3,354,6.7z"/>
	<path class="st0" d="M335.3,3.8c-2.6,0.4-4.3,2.8-3.9,5.4s2.8,4.3,5.4,3.9s4.3-2.8,3.9-5.4S337.9,3.4,335.3,3.8z"/>
	<path class="st0" d="M357.3,48.5c-2.5,0.6-4.1,3.1-3.5,5.7c0.6,2.5,3.1,4.1,5.7,3.5c0.2,0,0.4-0.1,0.5-0.2v-8.8
		C359.2,48.4,358.2,48.3,357.3,48.5z"/>
	<path class="st0" d="M339.4,56.4c1.8-1.8,1.8-4.8,0-6.6c-1.8-1.8-4.8-1.8-6.6,0s-1.8,4.8,0,6.6S337.6,58.2,339.4,56.4z"/>
	<path class="st0" d="M348.3,35.4c2.5-0.6,4.1-3.1,3.5-5.7c-0.6-2.5-3.1-4.1-5.7-3.5c-2.5,0.6-4.1,3.1-3.5,5.7S345.7,36,348.3,35.4z
		"/>
	<circle class="st0" cx="324.9" cy="30.8" r="4.7"/>
	<path class="st0" d="M357.3,93.1c-2.5,0.6-4.1,3.1-3.5,5.7c0.6,2.5,3.1,4.1,5.7,3.5c0.2,0,0.4-0.1,0.5-0.2v-8.8
		C359.2,93,358.2,92.9,357.3,93.1z"/>
	<circle class="st0" cx="336.1" cy="97.7" r="4.7"/>
	<ellipse transform="matrix(0.2188 -0.9758 0.9758 0.2188 197.68 397.6696)" class="st0" cx="347.2" cy="75.4" rx="4.7" ry="4.7"/>
	<circle class="st0" cx="324.9" cy="75.4" r="4.7"/>
	<path class="st0" d="M355.1,139c-1.8,1.8-1.8,4.8,0,6.6c1.3,1.3,3.3,1.7,4.9,1.1v-8.8C358.3,137.3,356.4,137.6,355.1,139z"/>
	<path class="st0" d="M337.2,146.8c2.5-0.6,4.1-3.1,3.5-5.7s-3.1-4.1-5.7-3.5s-4.1,3.1-3.5,5.7C332.1,145.9,334.6,147.4,337.2,146.8
		z"/>
	<path class="st0" d="M346.5,115.4c-2.6,0.4-4.3,2.8-3.9,5.4s2.8,4.3,5.4,3.9s4.3-2.8,3.9-5.4S349,114.9,346.5,115.4z"/>
	<circle class="st0" cx="324.9" cy="120" r="4.7"/>
	<path class="st0" d="M355.1,183.5c-1.8,1.8-1.8,4.8,0,6.6c1.3,1.3,3.3,1.7,4.9,1.1v-8.8C358.3,181.9,356.4,182.2,355.1,183.5z"/>
	
		<ellipse transform="matrix(0.999 -4.499141e-02 4.499141e-02 0.999 -8.0671 15.3106)" class="st0" cx="336.1" cy="186.9" rx="4.7" ry="4.7"/>
	<path class="st0" d="M350.5,167.9c1.8-1.8,1.8-4.8,0-6.6s-4.8-1.8-6.6,0s-1.8,4.8,0,6.6S348.7,169.8,350.5,167.9z"/>
	<circle class="st0" cx="324.9" cy="164.6" r="4.7"/>
	<path class="st0" d="M357.3,226.9c-2.5,0.6-4.1,3.1-3.5,5.7c0.6,2.5,3.1,4.1,5.7,3.5c0.2,0,0.4-0.1,0.5-0.2v-8.8
		C359.2,226.7,358.2,226.7,357.3,226.9z"/>
	<path class="st0" d="M332.8,228.2c-1.8,1.8-1.8,4.8,0,6.6c1.8,1.8,4.8,1.8,6.6,0s1.8-4.8,0-6.6
		C337.6,226.3,334.6,226.3,332.8,228.2z"/>
	
		<ellipse transform="matrix(0.7882 -0.6154 0.6154 0.7882 -55.2123 257.9864)" class="st0" cx="347.2" cy="209.2" rx="4.7" ry="4.7"/>
	<circle class="st0" cx="324.9" cy="209.2" r="4.7"/>
	<circle class="st0" cx="313.8" cy="8.5" r="4.7"/>
	<path class="st0" d="M289.7,12.8c2.4,1,5.1-0.1,6.1-2.5s-0.1-5.1-2.5-6.1s-5.1,0.1-6.1,2.5C286.1,9.1,287.3,11.8,289.7,12.8z"/>
	<circle class="st0" cx="313.8" cy="53.1" r="4.7"/>
	<path class="st0" d="M292.6,57.7c2.5-0.6,4.1-3.1,3.5-5.7s-3.1-4.1-5.7-3.5s-4.1,3.1-3.5,5.7C287.5,56.7,290,58.2,292.6,57.7z"/>
	<path class="st0" d="M305.9,34.1c1.8-1.8,1.8-4.8,0-6.6s-4.8-1.8-6.6,0s-1.8,4.8,0,6.6S304.1,36,305.9,34.1z"/>
	<ellipse transform="matrix(0.5257 -0.8507 0.8507 0.5257 106.7493 253.038)" class="st0" cx="280.3" cy="30.8" rx="4.7" ry="4.7"/>
	<circle class="st0" cx="313.8" cy="97.7" r="4.7"/>
	
		<ellipse transform="matrix(0.9261 -0.3773 0.3773 0.9261 -15.3108 117.1822)" class="st0" cx="291.5" cy="97.7" rx="4.7" ry="4.7"/>
	<ellipse transform="matrix(0.8507 -0.5257 0.5257 0.8507 5.542 170.3506)" class="st0" cx="302.6" cy="75.4" rx="4.7" ry="4.7"/>
	<path class="st0" d="M281.4,80c2.5-0.6,4.1-3.1,3.5-5.7c-0.6-2.5-3.1-4.1-5.7-3.5c-2.5,0.6-4.1,3.1-3.5,5.7S278.8,80.6,281.4,80z"
		/>
	<circle class="st0" cx="313.8" cy="142.3" r="4.7"/>
	
		<ellipse transform="matrix(0.8507 -0.5257 0.5257 0.8507 -31.2689 174.4968)" class="st0" cx="291.5" cy="142.3" rx="4.7" ry="4.7"/>
	<path class="st0" d="M304.4,115.7c-2.4-1-5.1,0.1-6.1,2.5s0.1,5.1,2.5,6.1c2.4,1,5.1-0.1,6.1-2.5
		C308,119.4,306.8,116.7,304.4,115.7z"/>
	<path class="st0" d="M281.1,124.6c2.6-0.4,4.3-2.8,3.9-5.4c-0.4-2.6-2.8-4.3-5.4-3.9s-4.3,2.8-3.9,5.4S278.5,125.1,281.1,124.6z"/>
	<circle class="st0" cx="313.8" cy="186.9" r="4.7"/>
	<path class="st0" d="M294.8,190.2c1.8-1.8,1.8-4.8,0-6.6s-4.8-1.8-6.6,0s-1.8,4.8,0,6.6C290,192,293,192,294.8,190.2z"/>
	<path class="st0" d="M303.7,169.2c2.5-0.6,4.1-3.1,3.5-5.7s-3.1-4.1-5.7-3.5c-2.5,0.6-4.1,3.1-3.5,5.7
		C298.6,168.2,301.1,169.8,303.7,169.2z"/>
	<path class="st0" d="M283.6,167.9c1.8-1.8,1.8-4.8,0-6.6c-1.8-1.8-4.8-1.8-6.6,0c-1.8,1.8-1.8,4.8,0,6.6S281.8,169.8,283.6,167.9z"
		/>
	<circle class="st0" cx="313.8" cy="231.5" r="4.7"/>
	<path class="st0" d="M290.4,226.9c-2.5,0.6-4.1,3.1-3.5,5.7c0.6,2.5,3.1,4.1,5.7,3.5c2.5-0.6,4.1-3.1,3.5-5.7
		S292.9,226.3,290.4,226.9z"/>
	<path class="st0" d="M301.5,204.6c-2.5,0.6-4.1,3.1-3.5,5.7c0.6,2.5,3.1,4.1,5.7,3.5s4.1-3.1,3.5-5.7S304,204,301.5,204.6z"/>
	<path class="st0" d="M277,205.9c-1.8,1.8-1.8,4.8,0,6.6s4.8,1.8,6.6,0c1.8-1.8,1.8-4.8,0-6.6C281.8,204.1,278.8,204.1,277,205.9z"
		/>
	<path class="st0" d="M270,13.1c2.6-0.4,4.3-2.8,3.9-5.4c-0.4-2.6-2.8-4.3-5.4-3.9s-4.3,2.8-3.9,5.4S267.4,13.5,270,13.1z"/>
	<ellipse transform="matrix(0.3827 -0.9239 0.9239 0.3827 144.5627 233.3531)" class="st0" cx="246.9" cy="8.5" rx="4.7" ry="4.7"/>
	<path class="st0" d="M272.5,56.4c1.8-1.8,1.8-4.8,0-6.6s-4.8-1.8-6.6,0c-1.8,1.8-1.8,4.8,0,6.6C267.7,58.3,270.7,58.3,272.5,56.4z"
		/>
	<ellipse transform="matrix(0.7071 -0.7071 0.7071 0.7071 34.768 190.1373)" class="st0" cx="246.9" cy="53.1" rx="4.7" ry="4.7"/>
	<path class="st0" d="M259.1,35.4c2.5-0.6,4.1-3.1,3.5-5.7s-3.1-4.1-5.7-3.5c-2.5,0.6-4.1,3.1-3.5,5.7S256.5,36,259.1,35.4z"/>
	<circle class="st0" cx="235.7" cy="30.8" r="4.7"/>
	<circle class="st0" cx="269.2" cy="97.7" r="4.7"/>
	<ellipse transform="matrix(0.9732 -0.2298 0.2298 0.9732 -15.842 59.3392)" class="st0" cx="246.9" cy="97.7" rx="4.7" ry="4.7"/>
	<path class="st0" d="M259.1,80c2.5-0.6,4.1-3.1,3.5-5.7s-3.1-4.1-5.7-3.5s-4.1,3.1-3.5,5.7C254,79,256.5,80.6,259.1,80z"/>
	<circle class="st0" cx="235.7" cy="75.4" r="4.7"/>
	
		<ellipse transform="matrix(0.9261 -0.3773 0.3773 0.9261 -33.7833 112.0667)" class="st0" cx="269.2" cy="142.3" rx="4.7" ry="4.7"/>
	
		<ellipse transform="matrix(0.3827 -0.9239 0.9239 0.3827 20.9476 315.9502)" class="st0" cx="246.9" cy="142.3" rx="4.7" ry="4.7"/>
	<path class="st0" d="M258.8,124.6c2.6-0.4,4.3-2.8,3.9-5.4s-2.8-4.3-5.4-3.9s-4.3,2.8-3.9,5.4S256.2,125.1,258.8,124.6z"/>
	<circle class="st0" cx="235.7" cy="120" r="4.7"/>
	<path class="st0" d="M270.3,191.4c2.5-0.6,4.1-3.1,3.5-5.7c-0.6-2.5-3.1-4.1-5.7-3.5c-2.5,0.6-4.1,3.1-3.5,5.7
		S267.8,192,270.3,191.4z"/>
	
		<ellipse transform="matrix(0.7071 -0.7071 0.7071 0.7071 -59.8429 229.3264)" class="st0" cx="246.9" cy="186.9" rx="4.7" ry="4.7"/>
	<circle class="st0" cx="258" cy="164.6" r="4.7"/>
	<circle class="st0" cx="235.7" cy="164.6" r="4.7"/>
	<path class="st0" d="M265.9,228.2c-1.8,1.8-1.8,4.8,0,6.6c1.8,1.8,4.8,1.8,6.6,0s1.8-4.8,0-6.6S267.7,226.3,265.9,228.2z"/>
	
		<ellipse transform="matrix(0.3827 -0.9239 0.9239 0.3827 -61.4625 371.0149)" class="st0" cx="246.9" cy="231.5" rx="4.7" ry="4.7"/>
	<path class="st0" d="M254.7,205.9c-1.8,1.8-1.8,4.8,0,6.6s4.8,1.8,6.6,0s1.8-4.8,0-6.6C259.5,204.1,256.5,204.1,254.7,205.9z"/>
	<circle class="st0" cx="235.7" cy="209.2" r="4.7"/>
	<path class="st0" d="M222.8,12.8c2.4,1,5.1-0.1,6.1-2.5c1-2.4-0.1-5.1-2.5-6.1s-5.1,0.1-6.1,2.5C219.2,9.1,220.4,11.8,222.8,12.8z"
		/>
	<path class="st0" d="M203.1,13.1c2.6-0.4,4.3-2.8,3.9-5.4c-0.4-2.6-2.8-4.3-5.4-3.9c-2.6,0.4-4.3,2.8-3.9,5.4
		S200.5,13.6,203.1,13.1z"/>
	<path class="st0" d="M225.7,57.7c2.5-0.6,4.1-3.1,3.5-5.7s-3.1-4.1-5.7-3.5c-2.5,0.6-4.1,3.1-3.5,5.7S223.1,58.3,225.7,57.7z"/>
	<circle class="st0" cx="202.3" cy="53.1" r="4.7"/>
	<circle class="st0" cx="213.4" cy="30.8" r="4.7"/>
	<path class="st0" d="M192.2,35.4c2.5-0.6,4.1-3.1,3.5-5.7s-3.1-4.1-5.7-3.5s-4.1,3.1-3.5,5.7C187.1,34.4,189.6,36,192.2,35.4z"/>
	<path class="st0" d="M225.7,102.3c2.5-0.6,4.1-3.1,3.5-5.7s-3.1-4.1-5.7-3.5c-2.5,0.6-4.1,3.1-3.5,5.7S223.1,102.9,225.7,102.3z"/>
	<path class="st0" d="M205.6,101c1.8-1.8,1.8-4.8,0-6.6s-4.8-1.8-6.6,0s-1.8,4.8,0,6.6S203.8,102.9,205.6,101z"/>
	<path class="st0" d="M210.1,72.1c-1.8,1.8-1.8,4.8,0,6.6c1.8,1.8,4.8,1.8,6.6,0c1.8-1.8,1.8-4.8,0-6.6S211.9,70.3,210.1,72.1z"/>
	<path class="st0" d="M192.2,80c2.5-0.6,4.1-3.1,3.5-5.7c-0.6-2.5-3.1-4.1-5.7-3.5c-2.5,0.6-4.1,3.1-3.5,5.7S189.6,80.6,192.2,80z"
		/>
	<circle class="st0" cx="224.6" cy="142.3" r="4.7"/>
	<path class="st0" d="M203.4,146.9c2.5-0.6,4.1-3.1,3.5-5.7c-0.6-2.5-3.1-4.1-5.7-3.5s-4.1,3.1-3.5,5.7S200.9,147.5,203.4,146.9z"/>
	<path class="st0" d="M215.2,115.7c-2.4-1-5.1,0.1-6.1,2.5c-1,2.4,0.1,5.1,2.5,6.1c2.4,1,5.1-0.1,6.1-2.5S217.6,116.7,215.2,115.7z"
		/>
	<path class="st0" d="M191.9,124.6c2.6-0.4,4.3-2.8,3.9-5.4s-2.8-4.3-5.4-3.9s-4.3,2.8-3.9,5.4S189.3,125.1,191.9,124.6z"/>
	<path class="st0" d="M227.9,190.2c1.8-1.8,1.8-4.8,0-6.6c-1.8-1.8-4.8-1.8-6.6,0c-1.8,1.8-1.8,4.8,0,6.6
		C223.1,192,226.1,192,227.9,190.2z"/>
	<path class="st0" d="M203.4,191.5c2.5-0.6,4.1-3.1,3.5-5.7s-3.1-4.1-5.7-3.5c-2.5,0.6-4.1,3.1-3.5,5.7
		C198.3,190.5,200.9,192.1,203.4,191.5z"/>
	<path class="st0" d="M214.5,169.2c2.5-0.6,4.1-3.1,3.5-5.7s-3.1-4.1-5.7-3.5c-2.5,0.6-4.1,3.1-3.5,5.7S212,169.8,214.5,169.2z"/>
	<circle class="st0" cx="191.1" cy="164.6" r="4.7"/>
	<path class="st0" d="M223.5,226.9c-2.5,0.6-4.1,3.1-3.5,5.7c0.6,2.5,3.1,4.1,5.7,3.5c2.5-0.6,4.1-3.1,3.5-5.7
		S226,226.3,223.5,226.9z"/>
	<circle class="st0" cx="202.3" cy="231.5" r="4.7"/>
	<path class="st0" d="M212.3,204.6c-2.5,0.6-4.1,3.1-3.5,5.7c0.6,2.5,3.1,4.1,5.7,3.5s4.1-3.1,3.5-5.7S214.8,204,212.3,204.6z"/>
	<path class="st0" d="M187.8,205.9c-1.8,1.8-1.8,4.8,0,6.6c1.8,1.8,4.8,1.8,6.6,0c1.8-1.8,1.8-4.8,0-6.6
		C192.6,204.1,189.6,204.1,187.8,205.9z"/>
	<path class="st0" d="M180.8,13.1c2.6-0.4,4.3-2.8,3.9-5.4c-0.4-2.6-2.8-4.3-5.4-3.9s-4.3,2.8-3.9,5.4S178.2,13.6,180.8,13.1z"/>
	<path class="st0" d="M155.9,12.9c2.4,1,5.1-0.1,6.1-2.5c1-2.4-0.1-5.1-2.5-6.1c-2.4-1-5.1,0.1-6.1,2.5S153.5,11.9,155.9,12.9z"/>
	<circle class="st0" cx="180" cy="53.1" r="4.7"/>
	<ellipse transform="matrix(0.9299 -0.3677 0.3677 0.9299 -8.4741 61.7095)" class="st0" cx="157.7" cy="53.1" rx="4.7" ry="4.7"/>
	<ellipse transform="matrix(0.3827 -0.9239 0.9239 0.3827 75.8094 175.0567)" class="st0" cx="168.9" cy="30.8" rx="4.7" ry="4.7"/>
	<path class="st0" d="M149.9,34.1c1.8-1.8,1.8-4.8,0-6.6s-4.8-1.8-6.6,0s-1.8,4.8,0,6.6C145.1,35.9,148.1,35.9,149.9,34.1z"/>
	<path class="st0" d="M183.3,101c1.8-1.8,1.8-4.8,0-6.6s-4.8-1.8-6.6,0c-1.8,1.8-1.8,4.8,0,6.6S181.5,102.9,183.3,101z"/>
	<path class="st0" d="M158.8,102.3c2.5-0.6,4.1-3.1,3.5-5.7s-3.1-4.1-5.7-3.5c-2.5,0.6-4.1,3.1-3.5,5.7S156.2,102.9,158.8,102.3z"/>
	<ellipse transform="matrix(0.9732 -0.2298 0.2298 0.9732 -12.8051 40.8221)" class="st0" cx="168.9" cy="75.4" rx="4.7" ry="4.7"/>
	<path class="st0" d="M143.3,72c-1.8,1.8-1.8,4.8,0,6.6s4.8,1.8,6.6,0c1.8-1.8,1.8-4.8,0-6.6S145.1,70.2,143.3,72z"/>
	<ellipse transform="matrix(0.2188 -0.9758 0.9758 0.2188 1.7853 286.7982)" class="st0" cx="180" cy="142.3" rx="4.7" ry="4.7"/>
	<path class="st0" d="M161,145.6c1.8-1.8,1.8-4.8,0-6.6c-1.8-1.8-4.8-1.8-6.6,0s-1.8,4.8,0,6.6S159.2,147.5,161,145.6z"/>
	<ellipse transform="matrix(0.3827 -0.9239 0.9239 0.3827 -6.6007 230.1214)" class="st0" cx="168.9" cy="120" rx="4.7" ry="4.7"/>
	<path class="st0" d="M144.8,124.3c2.4,1,5.1-0.1,6.1-2.5c1-2.4-0.1-5.1-2.5-6.1c-2.4-1-5.1,0.1-6.1,2.5
		C141.2,120.6,142.4,123.3,144.8,124.3z"/>
	<path class="st0" d="M181.1,191.5c2.5-0.6,4.1-3.1,3.5-5.7s-3.1-4.1-5.7-3.5c-2.5,0.6-4.1,3.1-3.5,5.7
		C176,190.5,178.6,192.1,181.1,191.5z"/>
	<path class="st0" d="M161,190.2c1.8-1.8,1.8-4.8,0-6.6s-4.8-1.8-6.6,0s-1.8,4.8,0,6.6C156.2,192.1,159.2,192.1,161,190.2z"/>
	
		<ellipse transform="matrix(0.7071 -0.7071 0.7071 0.7071 -66.9201 167.6406)" class="st0" cx="168.9" cy="164.6" rx="4.7" ry="4.7"/>
	<path class="st0" d="M147.7,169.1c2.5-0.6,4.1-3.1,3.5-5.7s-3.1-4.1-5.7-3.5c-2.5,0.6-4.1,3.1-3.5,5.7
		C142.6,168.2,145.2,169.7,147.7,169.1z"/>
	<path class="st0" d="M176.7,228.2c-1.8,1.8-1.8,4.8,0,6.6c1.8,1.8,4.8,1.8,6.6,0c1.8-1.8,1.8-4.8,0-6.6
		C181.5,226.3,178.5,226.3,176.7,228.2z"/>
	<path class="st0" d="M156.6,226.9c-2.5,0.6-4.1,3.1-3.5,5.7s3.1,4.1,5.7,3.5c2.5-0.6,4.1-3.1,3.5-5.7S159.2,226.3,156.6,226.9z"/>
	
		<ellipse transform="matrix(0.9732 -0.2298 0.2298 0.9732 -43.5458 44.4013)" class="st0" cx="168.9" cy="209.2" rx="4.7" ry="4.7"/>
	<path class="st0" d="M145.5,204.6c-2.5,0.6-4.1,3.1-3.5,5.7s3.1,4.1,5.7,3.5s4.1-3.1,3.5-5.7C150.6,205.6,148.1,204,145.5,204.6z"
		/>
	<path class="st0" d="M133.6,12.9c2.4,1,5.1-0.1,6.1-2.5s-0.1-5.1-2.5-6.1s-5.1,0.1-6.1,2.5C130.1,9.1,131.2,11.9,133.6,12.9z"/>
	<path class="st0" d="M113.9,13.1c2.6-0.4,4.3-2.8,3.9-5.4s-2.8-4.3-5.4-3.9s-4.3,2.8-3.9,5.4S111.3,13.6,113.9,13.1z"/>
	<path class="st0" d="M136.5,57.7c2.5-0.6,4.1-3.1,3.5-5.7s-3.1-4.1-5.7-3.5c-2.5,0.6-4.1,3.1-3.5,5.7S133.9,58.3,136.5,57.7z"/>
	<path class="st0" d="M116.4,56.4c1.8-1.8,1.8-4.8,0-6.6s-4.8-1.8-6.6,0s-1.8,4.8,0,6.6C111.6,58.3,114.6,58.3,116.4,56.4z"/>
	<path class="st0" d="M125.4,35.4c2.5-0.6,4.1-3.1,3.5-5.7c-0.6-2.5-3.1-4.1-5.7-3.5s-4.1,3.1-3.5,5.7S122.8,36,125.4,35.4z"/>
	<path class="st0" d="M103.1,35.4c2.5-0.6,4.1-3.1,3.5-5.7c-0.6-2.5-3.1-4.1-5.7-3.5s-4.1,3.1-3.5,5.7C98,34.4,100.5,36,103.1,35.4z
		"/>
	<path class="st0" d="M136.5,102.3c2.5-0.6,4.1-3.1,3.5-5.7s-3.1-4.1-5.7-3.5c-2.5,0.6-4.1,3.1-3.5,5.7
		C131.4,101.3,134,102.9,136.5,102.3z"/>
	<circle class="st0" cx="113.1" cy="97.7" r="4.7"/>
	<path class="st0" d="M123.2,70.8c-2.5,0.6-4.1,3.1-3.5,5.7c0.6,2.5,3.1,4.1,5.7,3.5s4.1-3.1,3.5-5.7S125.7,70.2,123.2,70.8z"/>
	<path class="st0" d="M100.9,70.8c-2.5,0.6-4.1,3.1-3.5,5.7c0.6,2.5,3.1,4.1,5.7,3.5s4.1-3.1,3.5-5.7S103.4,70.2,100.9,70.8z"/>
	<path class="st0" d="M138.7,145.6c1.8-1.8,1.8-4.8,0-6.6c-1.8-1.8-4.8-1.8-6.6,0c-1.8,1.8-1.8,4.8,0,6.6
		C133.9,147.5,136.9,147.5,138.7,145.6z"/>
	<path class="st0" d="M114.2,146.9c2.5-0.6,4.1-3.1,3.5-5.7c-0.6-2.5-3.1-4.1-5.7-3.5s-4.1,3.1-3.5,5.7
		C109.1,145.9,111.7,147.5,114.2,146.9z"/>
	<path class="st0" d="M123.6,115.4c-2.6,0.4-4.3,2.8-3.9,5.4s2.8,4.3,5.4,3.9s4.3-2.8,3.9-5.4S126.1,114.9,123.6,115.4z"/>
	<path class="st0" d="M101.3,115.4c-2.6,0.4-4.3,2.8-3.9,5.4s2.8,4.3,5.4,3.9s4.3-2.8,3.9-5.4C106.2,116.7,103.8,114.9,101.3,115.4z
		"/>
	<path class="st0" d="M132.1,183.6c-1.8,1.8-1.8,4.8,0,6.6c1.8,1.8,4.8,1.8,6.6,0s1.8-4.8,0-6.6S133.9,181.7,132.1,183.6z"/>
	<path class="st0" d="M114.2,191.5c2.5-0.6,4.1-3.1,3.5-5.7s-3.1-4.1-5.7-3.5c-2.5,0.6-4.1,3.1-3.5,5.7
		C109.1,190.5,111.7,192.1,114.2,191.5z"/>
	<path class="st0" d="M127.6,167.9c1.8-1.8,1.8-4.8,0-6.6c-1.8-1.8-4.8-1.8-6.6,0s-1.8,4.8,0,6.6S125.8,169.7,127.6,167.9z"/>
	<circle class="st0" cx="102" cy="164.6" r="4.7"/>
	<path class="st0" d="M134.3,226.9c-2.5,0.6-4.1,3.1-3.5,5.7s3.1,4.1,5.7,3.5c2.5-0.6,4.1-3.1,3.5-5.7S136.9,226.3,134.3,226.9z"/>
	<path class="st0" d="M109.8,228.2c-1.8,1.8-1.8,4.8,0,6.6c1.8,1.8,4.8,1.8,6.6,0c1.8-1.8,1.8-4.8,0-6.6S111.6,226.3,109.8,228.2z"
		/>
	<path class="st0" d="M121,205.8c-1.8,1.8-1.8,4.8,0,6.6s4.8,1.8,6.6,0s1.8-4.8,0-6.6C125.8,204,122.8,204,121,205.8z"/>
	<circle class="st0" cx="102" cy="209.2" r="4.7"/>
	<ellipse transform="matrix(0.9871 -0.1602 0.1602 0.9871 -0.1891 14.6543)" class="st0" cx="90.8" cy="8.5" rx="4.7" ry="4.7"/>
	<path class="st0" d="M66.7,12.9c2.4,1,5.1-0.1,6.1-2.5s-0.1-5.1-2.5-6.1c-2.4-1-5.1,0.1-6.1,2.5C63.2,9.1,64.3,11.9,66.7,12.9z"/>
	<ellipse transform="matrix(0.9732 -0.2298 0.2298 0.9732 -9.7709 22.2822)" class="st0" cx="90.8" cy="53.1" rx="4.7" ry="4.7"/>
	<path class="st0" d="M69.6,57.7c2.5-0.6,4.1-3.1,3.5-5.7s-3.1-4.1-5.7-3.5s-4.1,3.1-3.5,5.7S67.1,58.3,69.6,57.7z"/>
	<path class="st0" d="M83,34.1c1.8-1.8,1.8-4.8,0-6.6s-4.8-1.8-6.6,0s-1.8,4.8,0,6.6C78.2,35.9,81.2,35.9,83,34.1z"/>
	<circle class="st0" cx="57.4" cy="30.8" r="4.7"/>
	<ellipse transform="matrix(0.7071 -0.7071 0.7071 0.7071 -42.4896 92.821)" class="st0" cx="90.8" cy="97.7" rx="4.7" ry="4.7"/>
	<path class="st0" d="M69.6,102.3c2.5-0.6,4.1-3.1,3.5-5.7s-3.1-4.1-5.7-3.5s-4.1,3.1-3.5,5.7C64.5,101.3,67.1,102.9,69.6,102.3z"/>
	<circle class="st0" cx="79.7" cy="75.4" r="4.7"/>
	<path class="st0" d="M54.1,72.1c-1.8,1.8-1.8,4.8,0,6.6s4.8,1.8,6.6,0s1.8-4.8,0-6.6S55.9,70.2,54.1,72.1z"/>
	<ellipse transform="matrix(0.9871 -0.1602 0.1602 0.9871 -21.6215 16.3821)" class="st0" cx="90.8" cy="142.3" rx="4.7" ry="4.7"/>
	<path class="st0" d="M71.8,145.6c1.8-1.8,1.8-4.8,0-6.6c-1.8-1.8-4.8-1.8-6.6,0s-1.8,4.8,0,6.6C67,147.5,70,147.5,71.8,145.6z"/>
	<path class="st0" d="M77.9,124.3c2.4,1,5.1-0.1,6.1-2.5c1-2.4-0.1-5.1-2.5-6.1c-2.4-1-5.1,0.1-6.1,2.5
		C74.3,120.6,75.5,123.3,77.9,124.3z"/>
	<path class="st0" d="M55.6,124.3c2.4,1,5.1-0.1,6.1-2.5c1-2.4-0.1-5.1-2.5-6.1s-5.1,0.1-6.1,2.5C52.1,120.6,53.2,123.3,55.6,124.3z
		"/>
	<ellipse transform="matrix(0.9732 -0.2298 0.2298 0.9732 -40.512 25.8615)" class="st0" cx="90.8" cy="186.9" rx="4.7" ry="4.7"/>
	<circle class="st0" cx="68.5" cy="186.9" r="4.7"/>
	<path class="st0" d="M80.8,169.2c2.5-0.6,4.1-3.1,3.5-5.7s-3.1-4.1-5.7-3.5s-4.1,3.1-3.5,5.7C75.7,168.2,78.3,169.8,80.8,169.2z"/>
	
		<ellipse transform="matrix(0.999 -4.499141e-02 4.499141e-02 0.999 -7.3467 2.7494)" class="st0" cx="57.4" cy="164.6" rx="4.7" ry="4.7"/>
	<ellipse transform="matrix(0.9871 -0.1602 0.1602 0.9871 -35.9098 17.5339)" class="st0" cx="90.8" cy="231.5" rx="4.7" ry="4.7"/>
	<path class="st0" d="M67.4,226.9c-2.5,0.6-4.1,3.1-3.5,5.7s3.1,4.1,5.7,3.5c2.5-0.6,4.1-3.1,3.5-5.7
		C72.5,227.9,70,226.3,67.4,226.9z"/>
	<path class="st0" d="M78.6,204.6c-2.5,0.6-4.1,3.1-3.5,5.7s3.1,4.1,5.7,3.5c2.5-0.6,4.1-3.1,3.5-5.7
		C83.7,205.6,81.2,204,78.6,204.6z"/>
	<ellipse transform="matrix(0.9761 -0.2173 0.2173 0.9761 -44.0837 17.4735)" class="st0" cx="57.4" cy="209.2" rx="4.7" ry="4.7"/>
	<path class="st0" d="M47,13.1c2.6-0.4,4.3-2.8,3.9-5.4S48,3.4,45.4,3.9s-4.3,2.8-3.9,5.4S44.4,13.6,47,13.1z"/>
	<ellipse transform="matrix(0.3827 -0.9239 0.9239 0.3827 6.9009 27.3279)" class="st0" cx="23.9" cy="8.5" rx="4.7" ry="4.7"/>
	<path class="st0" d="M49.5,56.4c1.8-1.8,1.8-4.8,0-6.6c-1.8-1.8-4.8-1.8-6.6,0s-1.8,4.8,0,6.6S47.7,58.3,49.5,56.4z"/>
	<ellipse transform="matrix(0.7071 -0.7071 0.7071 0.7071 -30.5472 32.4525)" class="st0" cx="23.9" cy="53.1" rx="4.7" ry="4.7"/>
	<path class="st0" d="M36.2,35.4c2.5-0.6,4.1-3.1,3.5-5.7s-3.1-4.1-5.7-3.5c-2.5,0.6-4.1,3.1-3.5,5.7C31.1,34.4,33.7,36,36.2,35.4z"
		/>
	<circle class="st0" cx="12.8" cy="30.8" r="4.7"/>
	<path class="st0" d="M49.5,101c1.8-1.8,1.8-4.8,0-6.6s-4.8-1.8-6.6,0c-1.8,1.8-1.8,4.8,0,6.6S47.7,102.9,49.5,101z"/>
	<ellipse transform="matrix(0.9732 -0.2298 0.2298 0.9732 -21.8074 8.1046)" class="st0" cx="23.9" cy="97.7" rx="4.7" ry="4.7"/>
	<path class="st0" d="M34,70.8c-2.5,0.6-4.1,3.1-3.5,5.7s3.1,4.1,5.7,3.5c2.5-0.6,4.1-3.1,3.5-5.7C39.1,71.8,36.5,70.2,34,70.8z"/>
	<circle class="st0" cx="12.8" cy="75.4" r="4.7"/>
	<path class="st0" d="M47.3,146.9c2.5-0.6,4.1-3.1,3.5-5.7c-0.6-2.5-3.1-4.1-5.7-3.5s-4.1,3.1-3.5,5.7S44.8,147.5,47.3,146.9z"/>
	
		<ellipse transform="matrix(0.3827 -0.9239 0.9239 0.3827 -116.7142 109.925)" class="st0" cx="23.9" cy="142.3" rx="4.7" ry="4.7"/>
	<ellipse transform="matrix(0.242 -0.9703 0.9703 0.242 -89.8236 125.0121)" class="st0" cx="35.1" cy="120" rx="4.7" ry="4.7"/>
	<circle class="st0" cx="12.8" cy="120" r="4.7"/>
	<path class="st0" d="M47.3,191.5c2.5-0.6,4.1-3.1,3.5-5.7c-0.6-2.5-3.1-4.1-5.7-3.5s-4.1,3.1-3.5,5.7S44.8,192.1,47.3,191.5z"/>
	
		<ellipse transform="matrix(0.7071 -0.7071 0.7071 0.7071 -125.1581 71.6416)" class="st0" cx="23.9" cy="186.9" rx="4.7" ry="4.7"/>
	<circle class="st0" cx="35.1" cy="164.6" r="4.7"/>
	<circle class="st0" cx="12.8" cy="164.6" r="4.7"/>
	<path class="st0" d="M42.9,228.2c-1.8,1.8-1.8,4.8,0,6.6s4.8,1.8,6.6,0c1.8-1.8,1.8-4.8,0-6.6C47.7,226.4,44.7,226.4,42.9,228.2z"
		/>
	
		<ellipse transform="matrix(0.3827 -0.9239 0.9239 0.3827 -199.1243 164.9897)" class="st0" cx="23.9" cy="231.5" rx="4.7" ry="4.7"/>
	<path class="st0" d="M31.8,205.9c-1.8,1.8-1.8,4.8,0,6.6s4.8,1.8,6.6,0c1.8-1.8,1.8-4.8,0-6.6C36.6,204,33.6,204,31.8,205.9z"/>
	<circle class="st0" cx="12.8" cy="209.2" r="4.7"/>
	<path class="st0" d="M6,10.3c1-2.4-0.1-5.1-2.5-6.1C2.3,3.7,1.1,3.8,0,4.1v8.8C2.4,13.8,5,12.7,6,10.3z"/>
	<path class="st0" d="M2.7,57.7c2.5-0.6,4.1-3.1,3.5-5.7c-0.6-2.5-3.1-4.1-5.7-3.5c-0.2,0-0.3,0.1-0.5,0.2v8.8
		C0.8,57.8,1.8,57.9,2.7,57.7z"/>
	<path class="st0" d="M2.7,102.3c2.5-0.6,4.1-3.1,3.5-5.7c-0.6-2.5-3.1-4.1-5.7-3.5c-0.2,0-0.4,0.1-0.5,0.2v8.8
		C0.8,102.4,1.8,102.5,2.7,102.3z"/>
	<path class="st0" d="M4.9,145.6c1.8-1.8,1.8-4.8,0-6.6c-1.3-1.3-3.3-1.7-4.9-1.1v8.8C1.7,147.3,3.6,147,4.9,145.6z"/>
	<path class="st0" d="M4.9,190.2c1.8-1.8,1.8-4.8,0-6.6c-1.3-1.3-3.3-1.7-4.9-1.1v8.8C1.7,191.9,3.6,191.6,4.9,190.2z"/>
	<path class="st0" d="M2.7,236.1c2.5-0.6,4.1-3.1,3.5-5.7c-0.6-2.5-3.1-4.1-5.7-3.5c-0.2,0-0.4,0.1-0.5,0.2v8.8
		C0.8,236.2,1.8,236.3,2.7,236.1z"/>
</g>
<g id="XMLID_00000040574258034648347720000001519141102560308633_">
	<g id="XMLID_00000013185826108821625100000004338975994121938817_">
		<polygon id="XMLID_00000122702033855923458100000015202186965887237280_" class="st1" points="282.2,120 258.8,135.7 274.4,159.1 
			246.8,164.6 252.3,192.3 224.6,186.8 219.1,214.4 195.7,198.8 180,222.2 164.3,198.8 140.9,214.4 135.4,186.8 107.7,192.3 
			113.2,164.6 85.6,159.1 101.2,135.7 77.8,120 101.2,104.3 85.6,80.9 113.2,75.4 107.7,47.7 135.4,53.2 140.9,25.6 164.3,41.2 
			180,17.8 195.7,41.2 219.1,25.6 224.6,53.2 252.3,47.7 246.8,75.4 274.4,80.9 258.8,104.3 		"/>
	</g>
</g>
<g id="Waltz-Logo-CircleW-Black-withWhite-FINAL_00000129196188016862424950000000883316478693153156_">
	<g>
		<g>
			<path d="M230.3,120c0-28.1-22.8-50.9-50.9-50.9s-50.9,22.8-50.9,50.9s22.8,50.9,50.9,50.9S230.3,148.1,230.3,120"/>
			<polygon class="st0" points="208.4,94.7 196.9,94.7 186.8,146.3 180.3,117.1 185.3,94.7 183.4,94.7 179.3,112.9 175.2,94.7 
				173.3,94.7 178.4,117.1 171.9,146.3 161.7,94.7 150.2,94.7 161,148.5 173.2,148.5 179.3,121.2 185.5,148.5 197.6,148.5 			"/>
		</g>
	</g>
</g>
</svg>
