<svg version="1.1" id="Layer_1" xmlns="http://www.w3.org/2000/svg" xmlns:xlink="http://www.w3.org/1999/xlink" x="0px" y="0px"
	 viewBox="0 0 360 240" style="enable-background:new 0 0 360 240;" xml:space="preserve">
<style type="text/css">
	.st0{fill:#FFFFFF;}
</style>
<rect width="360" height="240"/>
<g>
	<rect x="322.3" class="st0" width="2.8" height="11.5"/>
	<polygon class="st0" points="322.3,37.8 322.3,39 322.3,51.5 325.1,51.5 325.1,39 325.1,37.8 325.1,25.2 322.3,25.2 	"/>
	
		<rect x="307.1" y="26.7" transform="matrix(0.7071 -0.7071 0.7071 0.7071 72.0776 230.2591)" class="st0" width="13.7" height="2.8"/>
	<polygon class="st0" points="289.4,16.9 289.4,19.8 303.1,19.8 316.8,19.8 316.8,16.9 303.1,16.9 	"/>
	<rect x="312.6" y="1.8" transform="matrix(0.7072 -0.707 0.707 0.7072 85.8199 224.534)" class="st0" width="2.8" height="13.7"/>
	
		<rect x="326.5" y="7.3" transform="matrix(0.7071 -0.7071 0.7071 0.7071 91.5068 238.2382)" class="st0" width="13.7" height="2.8"/>
	
		<rect x="332" y="21.2" transform="matrix(0.7071 -0.7071 0.7071 0.7071 77.8021 243.9642)" class="st0" width="2.8" height="13.7"/>
	<polygon class="st0" points="349.4,32 351.4,33.9 360,25.4 360,23.1 359.1,22.3 	"/>
	<polygon class="st0" points="330.6,16.9 330.6,19.8 344.3,19.8 358.1,19.8 358.1,16.9 338.2,16.9 	"/>
	<polygon class="st0" points="349.5,4.8 359.2,14.4 360,13.6 360,11.3 351.5,2.8 	"/>
	<polygon class="st0" points="322.3,78.8 322.3,79 322.3,92.5 325.1,92.5 325.1,79 325.1,78.8 325.1,65.3 322.3,65.3 	"/>
	
		<rect x="307.1" y="66.7" transform="matrix(0.7071 -0.7071 0.7071 0.7071 43.7711 241.9521)" class="st0" width="13.7" height="2.8"/>
	<polygon class="st0" points="289.4,57 289.4,59.8 303.1,59.8 316.8,59.8 316.8,57 303.1,57 	"/>
	
		<rect x="312.6" y="41.8" transform="matrix(0.7071 -0.7071 0.7071 0.7071 57.5447 236.256)" class="st0" width="2.8" height="13.7"/>
	
		<rect x="326.5" y="47.3" transform="matrix(0.7071 -0.7071 0.7071 0.7071 63.1713 250.0025)" class="st0" width="13.7" height="2.8"/>
	
		<rect x="332" y="61.3" transform="matrix(0.7071 -0.7071 0.7071 0.7071 49.4695 255.7315)" class="st0" width="2.8" height="13.7"/>
	<polygon class="st0" points="349.4,72 351.4,74 360,65.3 360,63.2 359.1,62.3 	"/>
	<polygon class="st0" points="338.2,57 330.6,57 330.6,59.8 338.2,59.8 344.3,59.8 358.1,59.8 358.1,57 344.3,57 	"/>
	<polygon class="st0" points="349.4,44.8 359.1,54.5 360,53.6 360,51.4 351.4,42.8 	"/>
	<polygon class="st0" points="322.3,120 322.3,133.7 325.1,133.7 325.1,120 325.1,106.3 322.3,106.3 	"/>
	
		<rect x="307.1" y="107.7" transform="matrix(0.7071 -0.7071 0.7071 0.7071 14.782 253.9626)" class="st0" width="13.7" height="2.8"/>
	<polygon class="st0" points="316.8,100.8 316.8,98 303.1,98 289.4,98 289.4,100.8 303.1,100.8 	"/>
	
		<rect x="312.6" y="82.8" transform="matrix(0.7071 -0.7071 0.7071 0.7071 28.5564 248.2666)" class="st0" width="2.8" height="13.7"/>
	
		<rect x="326.5" y="88.3" transform="matrix(0.7071 -0.7071 0.7071 0.7071 34.1842 262.0167)" class="st0" width="13.7" height="2.8"/>
	<polygon class="st0" points="330.6,98 330.6,100.8 338.2,100.8 358.1,100.8 358.1,98 344.3,98 	"/>
	
		<rect x="332" y="102.2" transform="matrix(0.7071 -0.7071 0.7071 0.7071 20.5062 267.6675)" class="st0" width="2.8" height="13.7"/>
	<polygon class="st0" points="349.4,113 351.4,115 360,106.3 360,104.2 359.1,103.3 	"/>
	<polygon class="st0" points="349.4,85.8 359.1,95.5 360,94.6 360,92.4 351.4,83.8 	"/>
	<polygon class="st0" points="322.3,161.3 322.3,164.8 322.3,175 325.1,175 325.1,164.8 325.1,161.3 325.1,147.5 322.3,147.5 	"/>
	
		<rect x="307.1" y="148.9" transform="matrix(0.7071 -0.7071 0.7071 0.7071 -14.3461 266.0341)" class="st0" width="13.7" height="2.8"/>
	<polygon class="st0" points="316.8,142 316.8,139.2 303.1,139.2 289.4,139.2 289.4,142 303.1,142 	"/>
	
		<rect x="312.6" y="124" transform="matrix(0.7071 -0.7071 0.7071 0.7071 -0.5696 260.343)" class="st0" width="2.8" height="13.7"/>
	
		<rect x="326.5" y="129.5" transform="matrix(0.7071 -0.7071 0.7071 0.7071 5.0534 274.0836)" class="st0" width="13.7" height="2.8"/>
	
		<rect x="332" y="143.4" transform="matrix(0.7071 -0.7071 0.7071 0.7071 -8.621 279.7395)" class="st0" width="2.8" height="13.7"/>
	<polygon class="st0" points="349.4,154.2 351.4,156.1 360,147.5 360,145.4 359.1,144.5 	"/>
	<polygon class="st0" points="330.6,139.2 330.6,142 344.3,142 358.1,142 358.1,139.2 338.2,139.2 	"/>
	<polygon class="st0" points="349.5,127 359.1,136.7 360,135.8 360,133.6 351.4,125 	"/>
	<polygon class="st0" points="322.3,202.1 322.3,202.5 322.3,215.8 325.1,215.8 325.1,202.5 325.1,202.1 325.1,188.7 322.3,188.7 	
		"/>
	
		<rect x="307.1" y="190.2" transform="matrix(0.7071 -0.7071 0.7071 0.7071 -43.5381 278.1418)" class="st0" width="13.7" height="2.8"/>
	<polygon class="st0" points="289.4,183.3 303.1,183.3 316.8,183.3 316.8,180.5 303.1,180.5 289.4,180.5 	"/>
	
		<rect x="312.6" y="165.3" transform="matrix(0.7071 -0.7071 0.7071 0.7071 -29.7635 272.4458)" class="st0" width="2.8" height="13.7"/>
	
		<rect x="326.5" y="170.8" transform="matrix(0.7071 -0.7071 0.7071 0.7071 -24.111 286.1151)" class="st0" width="13.7" height="2.8"/>
	<polygon class="st0" points="330.6,180.5 330.6,183.3 338.2,183.3 358.1,183.3 358.1,180.5 344.3,180.5 	"/>
	
		<rect x="332" y="184.7" transform="matrix(0.7071 -0.7071 0.7071 0.7071 -37.8143 291.8454)" class="st0" width="2.8" height="13.7"/>
	<polygon class="st0" points="349.4,195.5 351.4,197.4 360,188.9 360,186.6 359.1,185.8 	"/>
	<polygon class="st0" points="349.5,168.3 359.2,178 360,177.1 360,174.8 351.5,166.3 	"/>
	<rect x="322.3" y="229.6" class="st0" width="2.8" height="10.4"/>
	
		<rect x="307.1" y="231" transform="matrix(0.7071 -0.7071 0.7071 0.7071 -72.4017 290.0714)" class="st0" width="13.7" height="2.8"/>
	
		<rect x="312.6" y="206.1" transform="matrix(0.7071 -0.7071 0.7071 0.7071 -58.6318 284.3783)" class="st0" width="2.8" height="13.7"/>
	
		<rect x="326.5" y="211.6" transform="matrix(0.7071 -0.7071 0.7071 0.7071 -53.0069 298.1179)" class="st0" width="13.7" height="2.8"/>
	
		<rect x="332" y="225.6" transform="matrix(0.7071 -0.7071 0.7071 0.7071 -66.7101 303.8488)" class="st0" width="2.8" height="13.7"/>
	<polygon class="st0" points="349.4,236.3 351.4,238.3 360,229.6 360,227.5 359.1,226.6 	"/>
	<polygon class="st0" points="358.1,221.3 344.3,221.3 338.2,221.3 330.6,221.3 330.6,224.1 344.3,224.1 358.1,224.1 	"/>
	<polygon class="st0" points="349.4,209.1 359.1,218.8 360,217.9 360,215.7 351.4,207.1 	"/>
	<rect x="76.1" class="st0" width="2.8" height="11.5"/>
	<rect x="117.3" class="st0" width="2.9" height="11.5"/>
	<rect x="158.3" class="st0" width="2.8" height="11.5"/>
	<rect x="199.2" class="st0" width="2.8" height="11.5"/>
	<rect x="239.8" class="st0" width="2.9" height="11.5"/>
	<rect x="281.1" class="st0" width="2.8" height="11.5"/>
	<polygon class="st0" points="76.1,37.8 76.1,39 76.1,51.5 78.9,51.5 78.9,39 78.9,37.8 78.9,25.2 76.1,25.2 	"/>
	
		<rect x="60.9" y="26.7" transform="matrix(0.7071 -0.7071 0.7071 0.7071 -2.326102e-02 56.161)" class="st0" width="13.7" height="2.8"/>
	<rect x="66.4" y="1.8" transform="matrix(0.7072 -0.707 0.707 0.7072 13.745 50.459)" class="st0" width="2.8" height="13.7"/>
	<rect x="80.3" y="7.2" transform="matrix(0.7071 -0.7071 0.7071 0.7071 19.4064 64.1411)" class="st0" width="13.7" height="2.8"/>
	<rect x="85.8" y="21.2" transform="matrix(0.7071 -0.7071 0.7071 0.7071 5.7014 69.8651)" class="st0" width="2.8" height="13.7"/>
	<polygon class="st0" points="117.3,37.8 117.3,39 117.3,51.5 120.2,51.5 120.2,39 120.2,37.8 120.2,25.2 117.3,25.2 	"/>
	
		<rect x="102.2" y="26.7" transform="matrix(0.7071 -0.7071 0.7071 0.7071 12.0845 85.3528)" class="st0" width="13.7" height="2.8"/>
	<polygon class="st0" points="84.3,16.9 84.3,19.8 92.7,19.8 98.1,19.8 111.9,19.8 111.9,16.9 98.1,16.9 92.7,16.9 	"/>
	<rect x="107.6" y="1.8" transform="matrix(0.7072 -0.707 0.707 0.7072 25.7776 79.618)" class="st0" width="2.8" height="13.7"/>
	<rect x="121.6" y="7.2" transform="matrix(0.7071 -0.7071 0.7071 0.7071 31.514 93.333)" class="st0" width="13.7" height="2.8"/>
	
		<rect x="127.1" y="21.2" transform="matrix(0.7071 -0.7071 0.7071 0.7071 17.8091 99.0573)" class="st0" width="2.8" height="13.7"/>
	<polygon class="st0" points="158.3,37.8 158.3,39 158.3,51.5 161.1,51.5 161.1,39 161.1,37.8 161.1,25.2 158.3,25.2 	"/>
	
		<rect x="143.1" y="26.7" transform="matrix(0.7071 -0.7071 0.7071 0.7071 24.047 114.2899)" class="st0" width="13.7" height="2.8"/>
	<polygon class="st0" points="125.6,19.8 139.1,19.8 139.4,19.8 152.8,19.8 152.8,16.9 139.4,16.9 139.1,16.9 125.6,16.9 	"/>
	
		<rect x="148.6" y="1.8" transform="matrix(0.7072 -0.7071 0.7071 0.7072 37.8216 108.5906)" class="st0" width="2.8" height="13.7"/>
	<rect x="162.5" y="7.3" transform="matrix(0.7071 -0.7071 0.7071 0.7071 43.4765 122.27)" class="st0" width="13.7" height="2.8"/>
	
		<rect x="168" y="21.2" transform="matrix(0.7071 -0.7071 0.7071 0.7071 29.7721 127.9947)" class="st0" width="2.8" height="13.7"/>
	<polygon class="st0" points="199.2,37.8 199.2,51.5 202,51.5 202,39 202,25.2 199.2,25.2 	"/>
	
		<rect x="184.1" y="26.7" transform="matrix(0.7071 -0.7071 0.7071 0.7071 36.0803 143.2563)" class="st0" width="13.7" height="2.8"/>
	<polygon class="st0" points="166.6,19.8 180,19.8 180.3,19.8 193.8,19.8 193.8,16.9 180.3,16.9 180,16.9 166.6,16.9 	"/>
	<rect x="189.5" y="1.8" transform="matrix(0.7072 -0.707 0.707 0.7072 49.766 137.5136)" class="st0" width="2.8" height="13.7"/>
	
		<rect x="203.5" y="7.2" transform="matrix(0.7071 -0.7071 0.7071 0.7071 55.5123 151.2384)" class="st0" width="13.7" height="2.8"/>
	
		<rect x="208.9" y="21.2" transform="matrix(0.7071 -0.7071 0.7071 0.7071 41.7341 156.9318)" class="st0" width="2.8" height="13.7"/>
	<polygon class="st0" points="239.8,37.8 239.8,39 239.8,51.5 242.7,51.5 242.7,39 242.7,37.8 242.7,25.2 239.8,25.2 	"/>
	
		<rect x="224.7" y="26.7" transform="matrix(0.7071 -0.7071 0.7071 0.7071 47.9687 171.9674)" class="st0" width="13.7" height="2.8"/>
	<polygon class="st0" points="207.5,19.8 220.6,19.8 221.2,19.8 234.4,19.8 234.4,16.9 221.2,16.9 220.6,16.9 207.5,16.9 	"/>
	<rect x="230.1" y="1.8" transform="matrix(0.7072 -0.707 0.707 0.7072 61.6494 166.2214)" class="st0" width="2.8" height="13.7"/>
	<rect x="244.1" y="7.2" transform="matrix(0.7071 -0.7071 0.7071 0.7071 67.4013 179.95)" class="st0" width="13.7" height="2.8"/>
	
		<rect x="249.5" y="21.2" transform="matrix(0.7071 -0.7072 0.7072 0.7071 53.6464 185.6614)" class="st0" width="2.8" height="13.7"/>
	<polygon class="st0" points="281.1,37.8 281.1,39 281.1,51.5 283.9,51.5 283.9,39 283.9,37.8 283.9,25.2 281.1,25.2 	"/>
	
		<rect x="265.9" y="26.7" transform="matrix(0.7071 -0.7071 0.7071 0.7071 60.0063 201.1307)" class="st0" width="13.7" height="2.8"/>
	<polygon class="st0" points="248.1,19.8 258.6,19.8 261.8,19.8 275.7,19.8 275.7,16.9 261.8,16.9 258.6,16.9 248.1,16.9 	"/>
	<rect x="271.4" y="1.8" transform="matrix(0.7072 -0.707 0.707 0.7072 73.7527 195.4096)" class="st0" width="2.8" height="13.7"/>
	
		<rect x="285.4" y="7.2" transform="matrix(0.7071 -0.7071 0.7071 0.7071 79.5094 209.1424)" class="st0" width="13.7" height="2.8"/>
	
		<rect x="290.8" y="21.2" transform="matrix(0.7071 -0.7071 0.7071 0.7071 65.7236 214.8455)" class="st0" width="2.8" height="13.7"/>
	<polygon class="st0" points="76.1,78.8 76.1,79 76.1,92.5 78.9,92.5 78.9,79 78.9,78.8 78.9,65.3 76.1,65.3 	"/>
	
		<rect x="60.9" y="66.7" transform="matrix(0.7071 -0.7071 0.7071 0.7071 -28.3294 67.8533)" class="st0" width="13.7" height="2.8"/>
	
		<rect x="66.4" y="41.8" transform="matrix(0.7071 -0.7071 0.7071 0.7071 -14.5551 62.1593)" class="st0" width="2.8" height="13.7"/>
	
		<rect x="80.3" y="47.3" transform="matrix(0.7071 -0.7071 0.7071 0.7071 -8.9299 75.9042)" class="st0" width="13.7" height="2.8"/>
	
		<rect x="85.8" y="61.3" transform="matrix(0.7071 -0.7071 0.7071 0.7071 -22.6336 81.6298)" class="st0" width="2.8" height="13.7"/>
	<polygon class="st0" points="117.3,78.8 117.3,79 117.3,92.5 120.2,92.5 120.2,79 120.2,78.8 120.2,65.3 117.3,65.3 	"/>
	
		<rect x="102.2" y="66.7" transform="matrix(0.7071 -0.7071 0.7071 0.7071 -16.2215 97.0467)" class="st0" width="13.7" height="2.8"/>
	<polygon class="st0" points="111.9,57 98.1,57 92.7,57 84.3,57 84.3,59.8 92.7,59.8 98.1,59.8 111.9,59.8 	"/>
	
		<rect x="107.6" y="41.9" transform="matrix(0.7071 -0.7071 0.7071 0.7071 -2.5185 91.3218)" class="st0" width="2.8" height="13.7"/>
	
		<rect x="121.6" y="47.3" transform="matrix(0.7071 -0.7071 0.7071 0.7071 3.1776 105.0961)" class="st0" width="13.7" height="2.8"/>
	
		<rect x="127.1" y="61.3" transform="matrix(0.7071 -0.7071 0.7071 0.7071 -10.5258 110.8222)" class="st0" width="2.8" height="13.7"/>
	<polygon class="st0" points="158.3,78.8 158.3,79 158.3,92.5 161.1,92.5 161.1,79 161.1,78.8 161.1,65.3 158.3,65.3 	"/>
	
		<rect x="143.1" y="66.7" transform="matrix(0.7071 -0.7071 0.7071 0.7071 -4.2583 125.9864)" class="st0" width="13.7" height="2.8"/>
	<polygon class="st0" points="139.1,57 125.6,57 125.6,59.8 139.1,59.8 139.4,59.8 152.8,59.8 152.8,57 139.4,57 	"/>
	
		<rect x="148.6" y="41.8" transform="matrix(0.7071 -0.7072 0.7072 0.7071 9.528 120.3036)" class="st0" width="2.8" height="13.7"/>
	
		<rect x="162.5" y="47.3" transform="matrix(0.7071 -0.7071 0.7071 0.7071 15.1404 134.0335)" class="st0" width="13.7" height="2.8"/>
	<rect x="168" y="61.3" transform="matrix(0.7071 -0.7071 0.7071 0.7071 1.4366 139.7588)" class="st0" width="2.8" height="13.7"/>
	<polygon class="st0" points="199.2,78.8 199.2,92.5 202,92.5 202,79 202,65.3 199.2,65.3 	"/>
	
		<rect x="184.1" y="66.7" transform="matrix(0.7071 -0.7071 0.7071 0.7071 7.7758 154.9529)" class="st0" width="13.7" height="2.8"/>
	<polygon class="st0" points="193.8,57 180.3,57 180,57 166.6,57 166.6,59.8 180,59.8 180.3,59.8 193.8,59.8 	"/>
	
		<rect x="189.5" y="41.8" transform="matrix(0.7071 -0.7071 0.7071 0.7071 21.4786 149.2253)" class="st0" width="2.8" height="13.7"/>
	
		<rect x="203.5" y="47.3" transform="matrix(0.7071 -0.7071 0.7071 0.7071 27.174 162.9995)" class="st0" width="13.7" height="2.8"/>
	
		<rect x="208.9" y="61.3" transform="matrix(0.7071 -0.7071 0.7071 0.7071 13.3992 168.6958)" class="st0" width="2.8" height="13.7"/>
	<polygon class="st0" points="239.8,78.8 239.8,79 239.8,92.5 242.7,92.5 242.7,79 242.7,78.8 242.7,65.3 239.8,65.3 	"/>
	
		<rect x="224.7" y="66.7" transform="matrix(0.7071 -0.7071 0.7071 0.7071 19.6629 183.6612)" class="st0" width="13.7" height="2.8"/>
	<polygon class="st0" points="220.6,59.8 221.2,59.8 234.4,59.8 234.4,57 221.2,57 220.6,57 207.5,57 207.5,59.8 	"/>
	
		<rect x="230.1" y="41.8" transform="matrix(0.7071 -0.7071 0.7071 0.7071 33.3662 177.9366)" class="st0" width="2.8" height="13.7"/>
	
		<rect x="244.1" y="47.3" transform="matrix(0.7071 -0.7071 0.7071 0.7071 39.0625 191.7107)" class="st0" width="13.7" height="2.8"/>
	
		<rect x="249.5" y="61.3" transform="matrix(0.7071 -0.7072 0.7072 0.7071 25.3092 197.4306)" class="st0" width="2.8" height="13.7"/>
	<polygon class="st0" points="281.1,78.8 281.1,79 281.1,92.5 283.9,92.5 283.9,79 283.9,78.8 283.9,65.3 281.1,65.3 	"/>
	
		<rect x="265.9" y="66.7" transform="matrix(0.7071 -0.7071 0.7071 0.7071 31.6994 212.8231)" class="st0" width="13.7" height="2.8"/>
	<polygon class="st0" points="258.6,57 248.1,57 248.1,59.8 258.6,59.8 261.8,59.8 275.7,59.8 275.7,57 261.8,57 	"/>
	
		<rect x="271.4" y="41.8" transform="matrix(0.7071 -0.7071 0.7071 0.7071 45.4743 207.1294)" class="st0" width="2.8" height="13.7"/>
	
		<rect x="285.4" y="47.3" transform="matrix(0.7071 -0.7071 0.7071 0.7071 51.1728 220.9064)" class="st0" width="13.7" height="2.8"/>
	
		<rect x="290.8" y="61.3" transform="matrix(0.7071 -0.7071 0.7071 0.7071 37.3874 226.61)" class="st0" width="2.8" height="13.7"/>
	<polygon class="st0" points="76.1,120 76.1,133.7 78.9,133.7 78.9,120 78.9,106.3 76.1,106.3 	"/>
	
		<rect x="60.9" y="107.7" transform="matrix(0.7071 -0.7071 0.7071 0.7071 -57.3183 79.8652)" class="st0" width="13.7" height="2.8"/>
	
		<rect x="66.4" y="82.8" transform="matrix(0.7071 -0.7071 0.7071 0.7071 -43.544 74.1697)" class="st0" width="2.8" height="13.7"/>
	<rect x="80.3" y="88.3" transform="matrix(0.7071 -0.7071 0.7071 0.7071 -37.919 87.915)" class="st0" width="13.7" height="2.8"/>
	<polygon class="st0" points="111.9,98 98.1,98 84.3,98 84.3,100.8 92.7,100.8 111.9,100.8 	"/>
	
		<rect x="85.8" y="102.2" transform="matrix(0.7071 -0.7071 0.7071 0.7071 -51.5936 93.5675)" class="st0" width="2.8" height="13.7"/>
	<polygon class="st0" points="117.3,120 117.3,133.7 120.2,133.7 120.2,120 120.2,106.3 117.3,106.3 	"/>
	
		<rect x="102.2" y="107.7" transform="matrix(0.7071 -0.7071 0.7071 0.7071 -45.2103 109.0593)" class="st0" width="13.7" height="2.8"/>
	
		<rect x="107.6" y="82.8" transform="matrix(0.7071 -0.7071 0.7071 0.7071 -31.5073 103.3328)" class="st0" width="2.8" height="13.7"/>
	
		<rect x="121.6" y="88.3" transform="matrix(0.7071 -0.7071 0.7071 0.7071 -25.8113 117.1069)" class="st0" width="13.7" height="2.8"/>
	<polygon class="st0" points="152.8,100.8 152.8,98 139.4,98 125.6,98 125.6,100.8 139.1,100.8 	"/>
	
		<rect x="127" y="102.2" transform="matrix(0.7071 -0.7071 0.7071 0.7071 -39.4862 122.7616)" class="st0" width="2.8" height="13.7"/>
	<polygon class="st0" points="158.3,120 158.3,133.7 161.1,133.7 161.1,120 161.1,106.3 158.3,106.3 	"/>
	
		<rect x="143.1" y="107.7" transform="matrix(0.7071 -0.7071 0.7071 0.7071 -33.2481 137.9942)" class="st0" width="13.7" height="2.8"/>
	
		<rect x="148.6" y="82.8" transform="matrix(0.7071 -0.7071 0.7071 0.7071 -19.4809 132.3006)" class="st0" width="2.8" height="13.7"/>
	
		<rect x="162.5" y="88.3" transform="matrix(0.7071 -0.7071 0.7071 0.7071 -13.8488 146.0439)" class="st0" width="13.7" height="2.8"/>
	
		<rect x="168" y="102.2" transform="matrix(0.7071 -0.7071 0.7071 0.7071 -27.5237 151.6988)" class="st0" width="2.8" height="13.7"/>
	<polygon class="st0" points="199.2,120 199.2,133.7 202,133.7 202,120 202,106.3 199.2,106.3 	"/>
	
		<rect x="184.1" y="107.7" transform="matrix(0.7071 -0.7071 0.7071 0.7071 -21.2138 166.9637)" class="st0" width="13.7" height="2.8"/>
	<polygon class="st0" points="193.8,98 180.3,98 166.6,98 166.6,100.8 180,100.8 193.8,100.8 	"/>
	
		<rect x="189.5" y="82.8" transform="matrix(0.7071 -0.7071 0.7071 0.7071 -7.5105 161.2348)" class="st0" width="2.8" height="13.7"/>
	
		<rect x="203.5" y="88.3" transform="matrix(0.7071 -0.7071 0.7071 0.7071 -1.8152 175.01)" class="st0" width="13.7" height="2.8"/>
	
		<rect x="208.9" y="102.3" transform="matrix(0.7071 -0.7071 0.7071 0.7071 -15.5612 180.6358)" class="st0" width="2.8" height="13.7"/>
	<polygon class="st0" points="239.8,120 239.8,133.7 242.7,133.7 242.7,120 242.7,106.3 239.8,106.3 	"/>
	
		<rect x="224.7" y="107.7" transform="matrix(0.7071 -0.7071 0.7071 0.7071 -9.3263 195.6716)" class="st0" width="13.7" height="2.8"/>
	<polygon class="st0" points="234.4,100.8 234.4,98 221.2,98 207.5,98 207.5,100.8 220.6,100.8 	"/>
	
		<rect x="230.1" y="82.8" transform="matrix(0.7071 -0.7071 0.7071 0.7071 4.3773 189.9466)" class="st0" width="2.8" height="13.7"/>
	
		<rect x="244.1" y="88.3" transform="matrix(0.7071 -0.7071 0.7071 0.7071 10.0715 203.7174)" class="st0" width="13.7" height="2.8"/>
	
		<rect x="249.5" y="102.2" transform="matrix(0.7071 -0.7072 0.7072 0.7071 -3.6543 209.3742)" class="st0" width="2.8" height="13.7"/>
	<polygon class="st0" points="281.1,120 281.1,133.7 283.9,133.7 283.9,120 283.9,106.3 281.1,106.3 	"/>
	
		<rect x="265.9" y="107.7" transform="matrix(0.7071 -0.7071 0.7071 0.7071 2.7106 224.8342)" class="st0" width="13.7" height="2.8"/>
	<polygon class="st0" points="275.7,100.8 275.7,98 261.8,98 248.1,98 248.1,100.8 258.6,100.8 	"/>
	
		<rect x="271.4" y="82.8" transform="matrix(0.7071 -0.7071 0.7071 0.7071 16.4849 219.1385)" class="st0" width="2.8" height="13.7"/>
	
		<rect x="285.4" y="88.3" transform="matrix(0.7071 -0.7071 0.7071 0.7071 22.181 232.913)" class="st0" width="13.7" height="2.8"/>
	
		<rect x="290.8" y="102.2" transform="matrix(0.7071 -0.7072 0.7072 0.7071 8.4584 238.5692)" class="st0" width="2.8" height="13.7"/>
	<polygon class="st0" points="76.1,161.3 76.1,164.8 76.1,175 78.9,175 78.9,164.8 78.9,161.3 78.9,147.5 76.1,147.5 	"/>
	
		<rect x="60.9" y="148.9" transform="matrix(0.7071 -0.7071 0.7071 0.7071 -86.4477 91.9391)" class="st0" width="13.7" height="2.8"/>
	<rect x="66.4" y="124" transform="matrix(0.7071 -0.7071 0.7071 0.7071 -72.672 86.2412)" class="st0" width="2.8" height="13.7"/>
	
		<rect x="80.3" y="129.5" transform="matrix(0.7071 -0.7071 0.7071 0.7071 -67.0471 99.9865)" class="st0" width="13.7" height="2.8"/>
	
		<rect x="85.8" y="143.4" transform="matrix(0.7071 -0.7071 0.7071 0.7071 -80.7216 105.641)" class="st0" width="2.8" height="13.7"/>
	<polygon class="st0" points="117.3,161.3 117.3,164.8 117.3,175 120.2,175 120.2,164.8 120.2,161.3 120.2,147.5 117.3,147.5 	"/>
	
		<rect x="102.2" y="148.9" transform="matrix(0.7071 -0.7071 0.7071 0.7071 -74.3387 121.1287)" class="st0" width="13.7" height="2.8"/>
	<polygon class="st0" points="98.1,142 111.9,142 111.9,139.2 98.1,139.2 92.7,139.2 84.3,139.2 84.3,142 92.7,142 	"/>
	
		<rect x="107.6" y="124" transform="matrix(0.7071 -0.7071 0.7071 0.7071 -60.6354 115.4039)" class="st0" width="2.8" height="13.7"/>
	
		<rect x="121.6" y="129.5" transform="matrix(0.7071 -0.7071 0.7071 0.7071 -54.9395 129.1778)" class="st0" width="13.7" height="2.8"/>
	
		<rect x="127.1" y="143.4" transform="matrix(0.7071 -0.7071 0.7071 0.7071 -68.6139 134.8323)" class="st0" width="2.8" height="13.7"/>
	<polygon class="st0" points="158.3,161.3 158.3,164.8 158.3,175 161.1,175 161.1,164.8 161.1,161.3 161.1,147.5 158.3,147.5 	"/>
	
		<rect x="143.1" y="148.9" transform="matrix(0.7071 -0.7071 0.7071 0.7071 -62.3766 150.0659)" class="st0" width="13.7" height="2.8"/>
	<polygon class="st0" points="139.4,142 152.8,142 152.8,139.2 139.4,139.2 139.1,139.2 125.6,139.2 125.6,142 139.1,142 	"/>
	<rect x="148.6" y="124" transform="matrix(0.7071 -0.7071 0.7071 0.7071 -48.61 144.374)" class="st0" width="2.8" height="13.7"/>
	
		<rect x="162.5" y="129.5" transform="matrix(0.7071 -0.7071 0.7071 0.7071 -42.9768 158.1154)" class="st0" width="13.7" height="2.8"/>
	
		<rect x="168" y="143.4" transform="matrix(0.7071 -0.7071 0.7071 0.7071 -56.6513 163.7707)" class="st0" width="2.8" height="13.7"/>
	<polygon class="st0" points="199.2,161.3 199.2,175 202,175 202,164.8 202,147.5 199.2,147.5 	"/>
	
		<rect x="184.1" y="148.9" transform="matrix(0.7071 -0.7071 0.7071 0.7071 -50.3428 179.032)" class="st0" width="13.7" height="2.8"/>
	<polygon class="st0" points="180.3,142 193.8,142 193.8,139.2 180.3,139.2 180,139.2 166.6,139.2 166.6,142 180,142 	"/>
	
		<rect x="189.5" y="124" transform="matrix(0.7071 -0.7071 0.7071 0.7071 -36.6384 173.3071)" class="st0" width="2.8" height="13.7"/>
	
		<rect x="203.5" y="129.5" transform="matrix(0.7071 -0.7071 0.7071 0.7071 -30.9433 187.0815)" class="st0" width="13.7" height="2.8"/>
	
		<rect x="208.9" y="143.4" transform="matrix(0.7071 -0.7071 0.7071 0.7071 -44.6889 192.7062)" class="st0" width="2.8" height="13.7"/>
	<polygon class="st0" points="239.8,161.3 239.8,164.8 239.8,175 242.7,175 242.7,164.8 242.7,161.3 242.7,147.5 239.8,147.5 	"/>
	
		<rect x="224.7" y="148.9" transform="matrix(0.7071 -0.7071 0.7071 0.7071 -38.4541 207.7439)" class="st0" width="13.7" height="2.8"/>
	<polygon class="st0" points="221.2,142 234.4,142 234.4,139.2 221.2,139.2 220.6,139.2 207.5,139.2 207.5,142 220.6,142 	"/>
	
		<rect x="230.1" y="124" transform="matrix(0.7071 -0.7071 0.7071 0.7071 -24.7508 202.0181)" class="st0" width="2.8" height="13.7"/>
	
		<rect x="244.1" y="129.5" transform="matrix(0.7071 -0.7071 0.7071 0.7071 -19.0545 215.7935)" class="st0" width="13.7" height="2.8"/>
	
		<rect x="249.5" y="143.4" transform="matrix(0.7071 -0.7072 0.7072 0.7071 -32.7845 221.4495)" class="st0" width="2.8" height="13.7"/>
	<polygon class="st0" points="281.1,161.3 281.1,164.8 281.1,175 283.9,175 283.9,164.8 283.9,161.3 283.9,147.5 281.1,147.5 	"/>
	
		<rect x="265.9" y="148.9" transform="matrix(0.7071 -0.7071 0.7071 0.7071 -26.4174 236.9058)" class="st0" width="13.7" height="2.8"/>
	<polygon class="st0" points="261.8,142 275.7,142 275.7,139.2 261.8,139.2 258.6,139.2 248.1,139.2 248.1,142 258.6,142 	"/>
	
		<rect x="271.4" y="124" transform="matrix(0.7071 -0.7071 0.7071 0.7071 -12.6432 231.21)" class="st0" width="2.8" height="13.7"/>
	
		<rect x="285.4" y="129.5" transform="matrix(0.7071 -0.7071 0.7071 0.7071 -6.9468 244.9855)" class="st0" width="13.7" height="2.8"/>
	
		<rect x="290.8" y="143.5" transform="matrix(0.7071 -0.7071 0.7071 0.7071 -20.7041 250.6198)" class="st0" width="2.8" height="13.7"/>
	<polygon class="st0" points="76.1,202.1 76.1,202.5 76.1,215.8 78.9,215.8 78.9,202.5 78.9,202.1 78.9,188.7 76.1,188.7 	"/>
	
		<rect x="60.9" y="190.2" transform="matrix(0.7071 -0.7071 0.7071 0.7071 -115.6397 104.0472)" class="st0" width="13.7" height="2.8"/>
	
		<rect x="66.4" y="165.3" transform="matrix(0.7071 -0.7071 0.7071 0.7071 -101.8641 98.3495)" class="st0" width="2.8" height="13.7"/>
	
		<rect x="80.3" y="170.7" transform="matrix(0.7071 -0.7071 0.7071 0.7071 -96.2097 112.0234)" class="st0" width="13.7" height="2.8"/>
	<polygon class="st0" points="111.9,180.5 98.1,180.5 84.3,180.5 84.3,183.3 92.7,183.3 111.9,183.3 	"/>
	
		<rect x="85.8" y="184.7" transform="matrix(0.7071 -0.7071 0.7071 0.7071 -109.9141 117.7487)" class="st0" width="2.8" height="13.7"/>
	<polygon class="st0" points="117.3,202.1 117.3,202.5 117.3,215.8 120.2,215.8 120.2,202.5 120.2,202.1 120.2,188.7 117.3,188.7 	
		"/>
	
		<rect x="102.2" y="190.2" transform="matrix(0.7071 -0.7071 0.7071 0.7071 -103.5302 133.2363)" class="st0" width="13.7" height="2.8"/>
	
		<rect x="107.6" y="165.3" transform="matrix(0.7071 -0.7071 0.7071 0.7071 -89.8274 127.5115)" class="st0" width="2.8" height="13.7"/>
	
		<rect x="121.6" y="170.7" transform="matrix(0.7071 -0.7071 0.7071 0.7071 -84.1016 141.2121)" class="st0" width="13.7" height="2.8"/>
	<polygon class="st0" points="125.6,180.5 125.6,183.3 139.1,183.3 152.8,183.3 152.8,180.5 139.4,180.5 	"/>
	
		<rect x="127.1" y="184.7" transform="matrix(0.7071 -0.7071 0.7071 0.7071 -97.8064 146.9407)" class="st0" width="2.8" height="13.7"/>
	<polygon class="st0" points="158.3,202.1 158.3,202.5 158.3,215.8 161.1,215.8 161.1,202.5 161.1,202.1 161.1,188.7 158.3,188.7 	
		"/>
	
		<rect x="143.1" y="190.2" transform="matrix(0.7071 -0.7071 0.7071 0.7071 -91.5681 162.1733)" class="st0" width="13.7" height="2.8"/>
	
		<rect x="148.6" y="165.3" transform="matrix(0.7071 -0.7071 0.7071 0.7071 -77.8037 156.481)" class="st0" width="2.8" height="13.7"/>
	
		<rect x="162.5" y="170.8" transform="matrix(0.7071 -0.7071 0.7071 0.7071 -72.1394 170.1487)" class="st0" width="13.7" height="2.8"/>
	
		<rect x="168" y="184.7" transform="matrix(0.7071 -0.7071 0.7071 0.7071 -85.8438 175.8771)" class="st0" width="2.8" height="13.7"/>
	<polygon class="st0" points="199.2,202.1 199.2,215.8 202,215.8 202,202.5 202,188.7 199.2,188.7 	"/>
	
		<rect x="184.1" y="190.2" transform="matrix(0.7071 -0.7071 0.7071 0.7071 -79.5348 191.1397)" class="st0" width="13.7" height="2.8"/>
	<polygon class="st0" points="193.8,183.3 193.8,180.5 180.3,180.5 166.6,180.5 166.6,183.3 180,183.3 	"/>
	
		<rect x="189.5" y="165.3" transform="matrix(0.7071 -0.7071 0.7071 0.7071 -65.8304 185.4141)" class="st0" width="2.8" height="13.7"/>
	
		<rect x="203.5" y="170.7" transform="matrix(0.7071 -0.7071 0.7071 0.7071 -60.1059 199.1185)" class="st0" width="13.7" height="2.8"/>
	
		<rect x="208.9" y="184.7" transform="matrix(0.7071 -0.7071 0.7071 0.7071 -73.8813 204.815)" class="st0" width="2.8" height="13.7"/>
	<polygon class="st0" points="239.8,202.1 239.8,202.5 239.8,215.8 242.7,215.8 242.7,202.5 242.7,202.1 242.7,188.7 239.8,188.7 	
		"/>
	
		<rect x="224.7" y="190.2" transform="matrix(0.7071 -0.7071 0.7071 0.7071 -67.6459 219.8553)" class="st0" width="13.7" height="2.8"/>
	<polygon class="st0" points="234.4,183.3 234.4,180.5 221.2,180.5 207.5,180.5 207.5,183.3 220.6,183.3 	"/>
	
		<rect x="230.1" y="165.3" transform="matrix(0.7071 -0.7071 0.7071 0.7071 -53.9427 214.1258)" class="st0" width="2.8" height="13.7"/>
	
		<rect x="244.1" y="170.7" transform="matrix(0.7071 -0.7071 0.7071 0.7071 -48.2166 227.8341)" class="st0" width="13.7" height="2.8"/>
	
		<rect x="249.5" y="184.7" transform="matrix(0.7071 -0.7072 0.7072 0.7071 -61.9799 233.5607)" class="st0" width="2.8" height="13.7"/>
	<polygon class="st0" points="281.1,202.1 281.1,202.5 281.1,215.8 283.9,215.8 283.9,202.5 283.9,202.1 283.9,188.7 281.1,188.7 	
		"/>
	
		<rect x="265.9" y="190.2" transform="matrix(0.7071 -0.7071 0.7071 0.7071 -55.6102 249.0083)" class="st0" width="13.7" height="2.8"/>
	<polygon class="st0" points="248.1,183.3 258.6,183.3 275.7,183.3 275.7,180.5 261.8,180.5 248.1,180.5 	"/>
	
		<rect x="271.4" y="165.3" transform="matrix(0.7071 -0.7071 0.7071 0.7071 -41.835 243.3177)" class="st0" width="2.8" height="13.7"/>
	
		<rect x="285.3" y="170.7" transform="matrix(0.7071 -0.7071 0.7071 0.7071 -36.1085 257.0265)" class="st0" width="13.7" height="2.8"/>
	
		<rect x="290.8" y="184.7" transform="matrix(0.7071 -0.7072 0.7072 0.7071 -49.8673 262.7559)" class="st0" width="2.8" height="13.7"/>
	<rect x="76.1" y="229.6" class="st0" width="2.8" height="10.4"/>
	
		<rect x="60.9" y="231" transform="matrix(0.7071 -0.7071 0.7071 0.7071 -144.5065 115.9763)" class="st0" width="13.7" height="2.8"/>
	
		<rect x="66.4" y="206.1" transform="matrix(0.7071 -0.7071 0.7071 0.7071 -130.7322 110.2815)" class="st0" width="2.8" height="13.7"/>
	
		<rect x="80.3" y="211.6" transform="matrix(0.7071 -0.7071 0.7071 0.7071 -125.1061 124.0267)" class="st0" width="13.7" height="2.8"/>
	
		<rect x="85.8" y="225.6" transform="matrix(0.7071 -0.7071 0.7071 0.7071 -138.8111 129.7514)" class="st0" width="2.8" height="13.7"/>
	<rect x="117.3" y="229.6" class="st0" width="2.9" height="10.4"/>
	
		<rect x="102.2" y="231" transform="matrix(0.7071 -0.7071 0.7071 0.7071 -132.3996 145.1721)" class="st0" width="13.7" height="2.8"/>
	<polygon class="st0" points="111.9,221.3 98.1,221.3 92.7,221.3 84.3,221.3 84.3,224.1 92.7,224.1 98.1,224.1 111.9,224.1 	"/>
	
		<rect x="107.6" y="206.2" transform="matrix(0.7071 -0.7071 0.7071 0.7071 -118.6955 139.4436)" class="st0" width="2.8" height="13.7"/>
	
		<rect x="121.6" y="211.6" transform="matrix(0.7071 -0.7071 0.7071 0.7071 -112.9984 153.2187)" class="st0" width="13.7" height="2.8"/>
	
		<rect x="127.1" y="225.6" transform="matrix(0.7071 -0.7071 0.7071 0.7071 -126.7034 158.9435)" class="st0" width="2.8" height="13.7"/>
	<rect x="158.3" y="229.6" class="st0" width="2.8" height="10.4"/>
	
		<rect x="143.1" y="231" transform="matrix(0.7071 -0.7071 0.7071 0.7071 -120.4372 174.1097)" class="st0" width="13.7" height="2.8"/>
	<polygon class="st0" points="152.8,221.3 139.4,221.3 139.1,221.3 125.6,221.3 125.6,224.1 139.1,224.1 139.4,224.1 152.8,224.1 	
		"/>
	
		<rect x="148.6" y="206.1" transform="matrix(0.7071 -0.7072 0.7072 0.7071 -106.66 168.4417)" class="st0" width="2.8" height="13.7"/>
	
		<rect x="162.5" y="211.6" transform="matrix(0.7071 -0.7071 0.7071 0.7071 -101.0354 182.1515)" class="st0" width="13.7" height="2.8"/>
	<polygon class="st0" points="193.8,221.3 180.3,221.3 180,221.3 166.6,221.3 166.6,224.1 180,224.1 180.3,224.1 193.8,224.1 	"/>
	
		<rect x="168" y="225.6" transform="matrix(0.7071 -0.7071 0.7071 0.7071 -114.7409 187.8806)" class="st0" width="2.8" height="13.7"/>
	<rect x="199.2" y="229.6" class="st0" width="2.8" height="10.4"/>
	
		<rect x="184.1" y="231" transform="matrix(0.7071 -0.7071 0.7071 0.7071 -108.3985 203.066)" class="st0" width="13.7" height="2.8"/>
	
		<rect x="189.5" y="206.1" transform="matrix(0.7071 -0.7071 0.7071 0.7071 -94.6985 197.3464)" class="st0" width="2.8" height="13.7"/>
	
		<rect x="203.5" y="211.6" transform="matrix(0.7071 -0.7071 0.7071 0.7071 -89.0023 211.1171)" class="st0" width="13.7" height="2.8"/>
	
		<rect x="208.9" y="225.6" transform="matrix(0.7071 -0.7071 0.7071 0.7071 -102.7776 216.8174)" class="st0" width="2.8" height="13.7"/>
	<rect x="239.8" y="229.6" class="st0" width="2.9" height="10.4"/>
	
		<rect x="224.7" y="231" transform="matrix(0.7071 -0.7071 0.7071 0.7071 -96.5103 231.7813)" class="st0" width="13.7" height="2.8"/>
	<polygon class="st0" points="234.4,221.3 221.2,221.3 220.6,221.3 207.5,221.3 207.5,224.1 220.6,224.1 221.2,224.1 234.4,224.1 	
		"/>
	
		<rect x="230.1" y="206.1" transform="matrix(0.7071 -0.7071 0.7071 0.7071 -82.811 226.0581)" class="st0" width="2.8" height="13.7"/>
	
		<rect x="244.1" y="211.6" transform="matrix(0.7071 -0.7071 0.7071 0.7071 -77.1142 239.8278)" class="st0" width="13.7" height="2.8"/>
	<polygon class="st0" points="275.7,221.3 261.8,221.3 258.6,221.3 248.1,221.3 248.1,224.1 258.6,224.1 261.8,224.1 275.7,224.1 	
		"/>
	
		<rect x="249.6" y="225.6" transform="matrix(0.7071 -0.7072 0.7072 0.7071 -90.8794 245.5685)" class="st0" width="2.8" height="13.7"/>
	<rect x="281.1" y="229.6" class="st0" width="2.8" height="10.4"/>
	
		<rect x="265.9" y="231" transform="matrix(0.7071 -0.7071 0.7071 0.7071 -84.4727 260.9491)" class="st0" width="13.7" height="2.8"/>
	
		<rect x="271.4" y="206.1" transform="matrix(0.7071 -0.7071 0.7071 0.7071 -70.7035 255.2491)" class="st0" width="2.8" height="13.7"/>
	
		<rect x="285.4" y="211.6" transform="matrix(0.7071 -0.7071 0.7071 0.7071 -65.007 269.0193)" class="st0" width="13.7" height="2.8"/>
	<polygon class="st0" points="316.8,221.3 303.1,221.3 289.4,221.3 289.4,224.1 303.1,224.1 316.8,224.1 	"/>
	
		<rect x="290.9" y="225.6" transform="matrix(0.7071 -0.7072 0.7072 0.7071 -78.7669 274.7616)" class="st0" width="2.8" height="13.7"/>
	<rect x="34.9" class="st0" width="2.8" height="11.5"/>
	<polygon class="st0" points="10.5,4.7 8.6,2.8 0,11.3 0,13.6 0.9,14.4 	"/>
	<polygon class="st0" points="10.5,31.9 0.8,22.2 0,23.1 0,25.4 8.6,33.9 	"/>
	<polygon class="st0" points="34.9,37.8 34.9,51.5 37.7,51.5 37.7,39 37.7,25.2 34.9,25.2 	"/>
	
		<rect x="19.7" y="26.7" transform="matrix(0.7071 -0.7071 0.7071 0.7071 -12.0948 27.0328)" class="st0" width="13.7" height="2.8"/>
	<polygon class="st0" points="15.6,19.8 29.4,19.8 29.4,16.9 15.6,16.9 12.5,16.9 1.9,16.9 1.9,19.8 12.5,19.8 	"/>
	<rect x="25.2" y="1.8" transform="matrix(0.7072 -0.707 0.707 0.7072 1.6783 21.3342)" class="st0" width="2.8" height="13.7"/>
	<rect x="39.1" y="7.3" transform="matrix(0.7071 -0.7071 0.7071 0.7071 7.3351 35.0128)" class="st0" width="13.7" height="2.8"/>
	<polygon class="st0" points="43.2,16.9 43.2,19.8 56.9,19.8 70.6,19.8 70.6,16.9 56.9,16.9 	"/>
	
		<rect x="44.6" y="21.2" transform="matrix(0.7071 -0.7071 0.7071 0.7071 -6.3701 40.7373)" class="st0" width="2.8" height="13.7"/>
	<polygon class="st0" points="10.6,44.8 8.6,42.9 0,51.4 0,53.6 0.9,54.5 	"/>
	<polygon class="st0" points="10.6,72 0.9,62.3 0,63.2 0,65.4 8.6,74 	"/>
	<polygon class="st0" points="34.9,78.8 34.9,92.5 37.7,92.5 37.7,79 37.7,65.3 34.9,65.3 	"/>
	
		<rect x="19.7" y="66.7" transform="matrix(0.7071 -0.7071 0.7071 0.7071 -40.4008 38.7269)" class="st0" width="13.7" height="2.8"/>
	<polygon class="st0" points="15.6,59.8 29.4,59.8 29.4,57 15.6,57 13.2,57 1.9,57 1.9,59.8 13.2,59.8 	"/>
	
		<rect x="25.2" y="41.8" transform="matrix(0.7071 -0.7071 0.7071 0.7071 -26.6265 33.0315)" class="st0" width="2.8" height="13.7"/>
	
		<rect x="39.1" y="47.3" transform="matrix(0.7071 -0.7071 0.7071 0.7071 -21.0011 46.7762)" class="st0" width="13.7" height="2.8"/>
	<polygon class="st0" points="43.2,57 43.2,59.8 56.9,59.8 70.6,59.8 70.6,57 56.9,57 	"/>
	
		<rect x="44.6" y="61.3" transform="matrix(0.7071 -0.7071 0.7071 0.7071 -34.7052 52.5017)" class="st0" width="2.8" height="13.7"/>
	<polygon class="st0" points="10.6,85.8 8.6,83.9 0,92.5 0,94.6 0.9,95.5 	"/>
	<polygon class="st0" points="10.5,112.9 0.8,103.3 0,104.1 0,106.4 8.5,114.9 	"/>
	<polygon class="st0" points="34.9,120 34.9,133.7 37.7,133.7 37.7,120 37.7,106.3 34.9,106.3 	"/>
	
		<rect x="19.7" y="107.7" transform="matrix(0.7071 -0.7071 0.7071 0.7071 -69.3898 50.7371)" class="st0" width="13.7" height="2.8"/>
	<polygon class="st0" points="29.4,100.8 29.4,98 15.6,98 1.9,98 1.9,100.8 12.7,100.8 	"/>
	
		<rect x="25.2" y="82.8" transform="matrix(0.7071 -0.7071 0.7071 0.7071 -55.6152 45.0408)" class="st0" width="2.8" height="13.7"/>
	
		<rect x="39.1" y="88.3" transform="matrix(0.7071 -0.7071 0.7071 0.7071 -49.9903 58.7866)" class="st0" width="13.7" height="2.8"/>
	<polygon class="st0" points="70.6,100.8 70.6,98 56.9,98 43.2,98 43.2,100.8 56.9,100.8 	"/>
	
		<rect x="44.6" y="102.2" transform="matrix(0.7071 -0.7071 0.7071 0.7071 -63.6653 64.4414)" class="st0" width="2.8" height="13.7"/>
	<polygon class="st0" points="10.6,127 8.6,125 0,133.7 0,135.8 0.9,136.7 	"/>
	<polygon class="st0" points="10.5,154.1 0.8,144.5 0,145.3 0,147.6 8.5,156.1 	"/>
	<polygon class="st0" points="34.9,161.3 34.9,175 37.7,175 37.7,164.8 37.7,147.5 34.9,147.5 	"/>
	
		<rect x="19.7" y="148.9" transform="matrix(0.7071 -0.7071 0.7071 0.7071 -98.5192 62.8106)" class="st0" width="13.7" height="2.8"/>
	<polygon class="st0" points="15.6,142 29.4,142 29.4,139.2 15.6,139.2 13.3,139.2 1.9,139.2 1.9,142 13.3,142 	"/>
	
		<rect x="25.2" y="124" transform="matrix(0.7071 -0.7071 0.7071 0.7071 -84.7445 57.1144)" class="st0" width="2.8" height="13.7"/>
	
		<rect x="39.1" y="129.5" transform="matrix(0.7071 -0.7071 0.7071 0.7071 -79.1184 70.8581)" class="st0" width="13.7" height="2.8"/>
	<polygon class="st0" points="70.6,142 70.6,139.2 56.9,139.2 43.2,139.2 43.2,142 56.9,142 	"/>
	
		<rect x="44.6" y="143.4" transform="matrix(0.7071 -0.7071 0.7071 0.7071 -92.7931 76.513)" class="st0" width="2.8" height="13.7"/>
	<polygon class="st0" points="10.5,168.2 8.6,166.3 0,174.8 0,177.1 0.8,177.9 	"/>
	<polygon class="st0" points="10.5,195.4 0.8,185.7 0,186.6 0,188.9 8.5,197.4 	"/>
	<polygon class="st0" points="34.9,202.1 34.9,215.8 37.7,215.8 37.7,202.5 37.7,188.7 34.9,188.7 	"/>
	
		<rect x="19.7" y="190.2" transform="matrix(0.7071 -0.7071 0.7071 0.7071 -127.7116 74.9187)" class="st0" width="13.7" height="2.8"/>
	<polygon class="st0" points="29.4,183.3 29.4,180.5 15.6,180.5 1.9,180.5 1.9,183.3 12.9,183.3 	"/>
	
		<rect x="25.2" y="165.3" transform="matrix(0.7071 -0.7071 0.7071 0.7071 -113.9354 69.2203)" class="st0" width="2.8" height="13.7"/>
	
		<rect x="39.1" y="170.8" transform="matrix(0.7071 -0.7071 0.7071 0.7071 -108.2824 82.8975)" class="st0" width="13.7" height="2.8"/>
	<polygon class="st0" points="70.6,183.3 70.6,180.5 56.9,180.5 43.2,180.5 43.2,183.3 56.9,183.3 	"/>
	
		<rect x="44.6" y="184.7" transform="matrix(0.7071 -0.7071 0.7071 0.7071 -121.9856 88.6206)" class="st0" width="2.8" height="13.7"/>
	<polygon class="st0" points="10.6,209.1 8.6,207.2 0,215.7 0,217.9 0.9,218.8 	"/>
	<polygon class="st0" points="10.6,236.3 0.9,226.6 0,227.5 0,229.7 8.6,238.3 	"/>
	<rect x="34.9" y="229.6" class="st0" width="2.8" height="10.4"/>
	
		<rect x="19.7" y="231" transform="matrix(0.7071 -0.7071 0.7071 0.7071 -156.5748 86.8491)" class="st0" width="13.7" height="2.8"/>
	<polygon class="st0" points="29.4,221.3 15.6,221.3 13.4,221.3 1.9,221.3 1.9,224.1 13.4,224.1 15.6,224.1 29.4,224.1 	"/>
	
		<rect x="25.2" y="206.1" transform="matrix(0.7071 -0.7071 0.7071 0.7071 -142.8034 81.1522)" class="st0" width="2.8" height="13.7"/>
	
		<rect x="39.1" y="211.6" transform="matrix(0.7071 -0.7071 0.7071 0.7071 -137.1773 94.8983)" class="st0" width="13.7" height="2.8"/>
	<polygon class="st0" points="70.6,221.3 56.9,221.3 43.2,221.3 43.2,224.1 56.9,224.1 70.6,224.1 	"/>
	
		<rect x="44.6" y="225.6" transform="matrix(0.7071 -0.7071 0.7071 0.7071 -150.8823 100.624)" class="st0" width="2.8" height="13.7"/>
</g>
<g id="XMLID_00000105389981666290172330000016412462337784572290_">
	<path id="XMLID_00000173161633384523857970000009552214896985810336_" class="st0" d="M180.5,22.5c-13.4,32-65.9,83.9-97.9,97
		c32,13.4,83.9,65.9,97,97.9c13.4-32,65.9-83.9,97.9-97C245.5,107,193.6,54.6,180.5,22.5z"/>
</g>
</svg>
