<svg version="1.1" id="Layer_1" xmlns="http://www.w3.org/2000/svg" xmlns:xlink="http://www.w3.org/1999/xlink" x="0px" y="0px"
	 viewBox="0 0 360 240" style="enable-background:new 0 0 360 240;" xml:space="preserve">
<path d="M360,240V0H0v240H360z M72.7,110.8h35.6l-34.4-9.2l4.9-18.2l34.4,9.2L82.4,74.8l9.4-16.3l30.8,17.8L97.5,51.1l13.3-13.3
	l25.1,25.1l-17.8-30.8l16.3-9.4l17.8,30.8L143,19.1l18.2-4.9l9.2,34.4V13h18.9v35.6l9.2-34.4l18.2,4.9l-9.2,34.4l17.8-30.8l16.3,9.4
	l-17.8,30.8l25.1-25.1l13.3,13.3l-25.1,25.1L268,58.5l9.4,16.3l-30.8,17.8l34.3-9.2l4.9,18.2l-34.4,9.2H287v18.9h-35.6l34.3,9.2
	l-4.9,18.2l-34.4-9.2l30.8,17.8L268,182l-30.8-17.8l25.1,25.1L249,202.6l-25.1-25.1l17.8,30.8l-16.3,9.4L207.6,187l9.2,34.4
	l-18.2,4.9l-9.2-34.4v35.6h-18.9v-35.6l-9.2,34.3l-18.2-4.9l9.2-34.4l-17.8,30.8l-16.3-9.4l17.8-30.8l-25.1,25.1l-13.3-13.3
	l25.2-25.2l-31,17.9l-9.4-16.3l30.8-17.8l-34.3,9.2L74,138.9l34.4-9.2H72.7V110.8z"/>
<g>
	<polygon points="319.1,12.8 331.9,0 326.4,0 316.4,10 	"/>
	<rect x="314.5" y="21" transform="matrix(0.7071 -0.7071 0.7071 0.7071 79.1458 236.9523)" width="22.2" height="3.9"/>
	<rect x="314.5" y="40.4" transform="matrix(0.7071 -0.7071 0.7071 0.7071 65.4231 242.6293)" width="22.2" height="3.9"/>
	<rect x="314.5" y="59.8" transform="matrix(0.7071 -0.7071 0.7071 0.7071 51.7002 248.3064)" width="22.2" height="3.9"/>
	<rect x="314.5" y="79.3" transform="matrix(0.7071 -0.7071 0.7071 0.7071 37.9481 254.054)" width="22.2" height="3.9"/>
	<rect x="314.5" y="98.7" transform="matrix(0.7071 -0.7071 0.7071 0.7071 24.2253 259.731)" width="22.2" height="3.9"/>
	<rect x="314.5" y="118.1" transform="matrix(0.7071 -0.7071 0.7071 0.7071 10.5025 265.4081)" width="22.2" height="3.9"/>
	<rect x="314.5" y="137.5" transform="matrix(0.7071 -0.7071 0.7071 0.7071 -3.2198 271.0856)" width="22.2" height="3.9"/>
	<rect x="314.5" y="156.9" transform="matrix(0.7071 -0.7071 0.7071 0.7071 -16.9426 276.7625)" width="22.2" height="3.9"/>
	<rect x="314.5" y="176.3" transform="matrix(0.7071 -0.7071 0.7071 0.7071 -30.6654 282.4396)" width="22.2" height="3.9"/>
	<rect x="314.5" y="195.7" transform="matrix(0.7071 -0.7071 0.7071 0.7071 -44.3882 288.1166)" width="22.2" height="3.9"/>
	<rect x="314.5" y="215.1" transform="matrix(0.7071 -0.7071 0.7071 0.7071 -58.1105 293.7941)" width="22.2" height="3.9"/>
	<polygon points="332,227.2 319.3,240 324.8,240 334.8,230 	"/>
	<polygon points="299.7,12.8 312.5,0 307,0 297,10 	"/>
	<rect x="295.1" y="21" transform="matrix(0.7071 -0.7071 0.7071 0.7071 73.4686 223.2298)" width="22.2" height="3.9"/>
	<rect x="295.1" y="40.4" transform="matrix(0.7071 -0.7071 0.7071 0.7071 59.7458 228.9068)" width="22.2" height="3.9"/>
	<rect x="295.1" y="59.8" transform="matrix(0.7071 -0.7071 0.7071 0.7071 46.023 234.5837)" width="22.2" height="3.9"/>
	<rect x="295.1" y="79.3" transform="matrix(0.7071 -0.7071 0.7071 0.7071 32.2709 240.3315)" width="22.2" height="3.9"/>
	<rect x="295.1" y="98.7" transform="matrix(0.7071 -0.7071 0.7071 0.7071 18.548 246.0085)" width="22.2" height="3.9"/>
	<rect x="295.1" y="118.1" transform="matrix(0.7071 -0.7071 0.7071 0.7071 4.8253 251.6855)" width="22.2" height="3.9"/>
	<rect x="295.1" y="137.5" transform="matrix(0.7071 -0.7071 0.7071 0.7071 -8.8957 257.3665)" width="22.2" height="3.9"/>
	<rect x="295.1" y="156.9" transform="matrix(0.7071 -0.7071 0.7071 0.7071 -22.6199 263.04)" width="22.2" height="3.9"/>
	<rect x="295.1" y="176.3" transform="matrix(0.7071 -0.7071 0.7071 0.7071 -36.3426 268.717)" width="22.2" height="3.9"/>
	<rect x="295.1" y="195.7" transform="matrix(0.7071 -0.7071 0.7071 0.7071 -50.0655 274.394)" width="22.2" height="3.9"/>
	<rect x="295.1" y="215.1" transform="matrix(0.7071 -0.7071 0.7071 0.7071 -63.7878 280.0715)" width="22.2" height="3.9"/>
	<polygon points="312.6,227.2 299.9,240 305.4,240 315.4,230 	"/>
	<polygon points="280.3,12.7 293.1,0 287.6,0 277.6,10 	"/>
	<rect x="275.7" y="21" transform="matrix(0.7071 -0.7071 0.7071 0.7071 67.7916 209.5069)" width="22.2" height="3.9"/>
	<rect x="275.7" y="40.4" transform="matrix(0.7071 -0.7071 0.7071 0.7071 54.0688 215.1839)" width="22.2" height="3.9"/>
	<rect x="275.7" y="59.8" transform="matrix(0.7071 -0.7071 0.7071 0.7071 40.3459 220.8609)" width="22.2" height="3.9"/>
	<rect x="275.7" y="79.3" transform="matrix(0.7071 -0.7071 0.7071 0.7071 26.5939 226.6087)" width="22.2" height="3.9"/>
	<rect x="275.7" y="98.7" transform="matrix(0.7071 -0.7071 0.7071 0.7071 12.871 232.2857)" width="22.2" height="3.9"/>
	<rect x="275.7" y="118.1" transform="matrix(0.7071 -0.7071 0.7071 0.7071 -0.8517 237.9626)" width="22.2" height="3.9"/>
	<rect x="275.7" y="137.5" transform="matrix(0.7071 -0.7071 0.7071 0.7071 -14.574 243.6402)" width="22.2" height="3.9"/>
	<rect x="275.7" y="156.9" transform="matrix(0.7071 -0.7071 0.7071 0.7071 -28.2969 249.3172)" width="22.2" height="3.9"/>
	<rect x="275.7" y="176.3" transform="matrix(0.7071 -0.7071 0.7071 0.7071 -42.0197 254.9942)" width="22.2" height="3.9"/>
	<rect x="275.7" y="195.7" transform="matrix(0.7071 -0.7071 0.7071 0.7071 -55.7425 260.6713)" width="22.2" height="3.9"/>
	<rect x="275.7" y="215.1" transform="matrix(0.7071 -0.7071 0.7071 0.7071 -69.4647 266.3488)" width="22.2" height="3.9"/>
	<polygon points="293.2,227.2 280.4,240 286,240 296,230 	"/>
	<polygon points="260.9,12.7 273.7,0 268.2,0 258.2,10 	"/>
	<rect x="256.3" y="21" transform="matrix(0.7071 -0.7071 0.7071 0.7071 62.1146 195.7841)" width="22.2" height="3.9"/>
	<rect x="256.3" y="40.4" transform="matrix(0.7071 -0.7071 0.7071 0.7071 48.3918 201.4612)" width="22.2" height="3.9"/>
	<rect x="256.3" y="59.8" transform="matrix(0.7071 -0.7071 0.7071 0.7071 34.6689 207.1382)" width="22.2" height="3.9"/>
	<rect x="256.3" y="79.2" transform="matrix(0.7071 -0.7071 0.7071 0.7071 20.9169 212.8858)" width="22.2" height="3.9"/>
	<rect x="256.3" y="98.6" transform="matrix(0.7071 -0.7071 0.7071 0.7071 7.194 218.5629)" width="22.2" height="3.9"/>
	<rect x="256.3" y="118.1" transform="matrix(0.7071 -0.7071 0.7071 0.7071 -6.5288 224.2398)" width="22.2" height="3.9"/>
	<rect x="256.3" y="137.5" transform="matrix(0.7071 -0.7071 0.7071 0.7071 -20.2511 229.9174)" width="22.2" height="3.9"/>
	<rect x="256.3" y="156.9" transform="matrix(0.7071 -0.7071 0.7071 0.7071 -33.9739 235.5944)" width="22.2" height="3.9"/>
	<rect x="256.3" y="176.3" transform="matrix(0.7071 -0.7071 0.7071 0.7071 -47.6973 241.2679)" width="22.2" height="3.9"/>
	<rect x="256.3" y="195.7" transform="matrix(0.7071 -0.7071 0.7071 0.7071 -61.4195 246.9484)" width="22.2" height="3.9"/>
	<rect x="256.3" y="215.1" transform="matrix(0.7071 -0.7071 0.7071 0.7071 -75.1418 252.6259)" width="22.2" height="3.9"/>
	<polygon points="273.8,227.2 261,240 266.5,240 276.6,230 	"/>
	<polygon points="241.5,12.8 254.3,0 248.7,0 238.7,10 	"/>
	<rect x="236.8" y="21" transform="matrix(0.7071 -0.7071 0.7071 0.7071 56.3668 182.0321)" width="22.2" height="3.9"/>
	<rect x="236.8" y="40.4" transform="matrix(0.7071 -0.7071 0.7071 0.7071 42.644 187.709)" width="22.2" height="3.9"/>
	<rect x="236.8" y="59.8" transform="matrix(0.7071 -0.7071 0.7071 0.7071 28.9212 193.386)" width="22.2" height="3.9"/>
	<rect x="236.9" y="79.3" transform="matrix(0.7071 -0.7071 0.7071 0.7071 15.1691 199.1337)" width="22.2" height="3.9"/>
	<rect x="236.9" y="98.7" transform="matrix(0.7071 -0.7071 0.7071 0.7071 1.4463 204.8108)" width="22.2" height="3.9"/>
	<rect x="236.8" y="118.1" transform="matrix(0.7071 -0.7071 0.7071 0.7071 -12.2775 210.4849)" width="22.2" height="3.9"/>
	<rect x="236.8" y="137.5" transform="matrix(0.7071 -0.7071 0.7071 0.7071 -25.9987 216.1653)" width="22.2" height="3.9"/>
	<rect x="236.8" y="156.9" transform="matrix(0.7071 -0.7071 0.7071 0.7071 -39.7216 221.8423)" width="22.2" height="3.9"/>
	<rect x="236.8" y="176.3" transform="matrix(0.7071 -0.7071 0.7071 0.7071 -53.4444 227.5193)" width="22.2" height="3.9"/>
	<rect x="236.8" y="195.7" transform="matrix(0.7071 -0.7071 0.7071 0.7071 -67.1668 233.1998)" width="22.2" height="3.9"/>
	<rect x="236.8" y="215.1" transform="matrix(0.7071 -0.7071 0.7071 0.7071 -80.8895 238.8738)" width="22.2" height="3.9"/>
	<polygon points="254.4,227.3 241.6,240 247.1,240 257.1,230 	"/>
	<polygon points="222.1,12.8 234.8,0 229.3,0 219.3,10 	"/>
	<rect x="217.4" y="21" transform="matrix(0.7071 -0.7071 0.7071 0.7071 50.6898 168.3092)" width="22.2" height="3.9"/>
	<rect x="217.4" y="40.4" transform="matrix(0.7071 -0.7071 0.7071 0.7071 36.967 173.9862)" width="22.2" height="3.9"/>
	<rect x="217.4" y="59.8" transform="matrix(0.7071 -0.7071 0.7071 0.7071 23.2442 179.6632)" width="22.2" height="3.9"/>
	<rect x="217.5" y="79.3" transform="matrix(0.7071 -0.7071 0.7071 0.7071 9.4922 185.411)" width="22.2" height="3.9"/>
	<rect x="217.4" y="98.7" transform="matrix(0.7071 -0.7071 0.7071 0.7071 -4.2307 191.088)" width="22.2" height="3.9"/>
	<rect x="217.4" y="118.1" transform="matrix(0.7071 -0.7071 0.7071 0.7071 -17.9535 196.765)" width="22.2" height="3.9"/>
	<rect x="217.4" y="137.5" transform="matrix(0.7071 -0.7071 0.7071 0.7071 -31.6751 202.4454)" width="22.2" height="3.9"/>
	<rect x="217.4" y="156.9" transform="matrix(0.7071 -0.7071 0.7071 0.7071 -45.3986 208.1195)" width="22.2" height="3.9"/>
	<rect x="217.4" y="176.3" transform="matrix(0.7071 -0.7071 0.7071 0.7071 -59.1214 213.7965)" width="22.2" height="3.9"/>
	<rect x="217.4" y="195.7" transform="matrix(0.7071 -0.7071 0.7071 0.7071 -72.8442 219.4735)" width="22.2" height="3.9"/>
	<rect x="217.4" y="215.1" transform="matrix(0.7071 -0.7071 0.7071 0.7071 -86.5665 225.151)" width="22.2" height="3.9"/>
	<polygon points="235,227.2 222.2,240 227.7,240 237.7,230 	"/>
	<polygon points="202.6,12.8 215.4,0 209.9,0 199.9,10 	"/>
	<rect x="198" y="21" transform="matrix(0.7071 -0.7071 0.7071 0.7071 45.0126 154.5867)" width="22.2" height="3.9"/>
	<rect x="198" y="40.4" transform="matrix(0.7071 -0.7071 0.7071 0.7071 31.2897 160.2637)" width="22.2" height="3.9"/>
	<rect x="198" y="59.8" transform="matrix(0.7071 -0.7071 0.7071 0.7071 17.567 165.9407)" width="22.2" height="3.9"/>
	<rect x="198.1" y="79.3" transform="matrix(0.7071 -0.7071 0.7071 0.7071 3.8149 171.6884)" width="22.2" height="3.9"/>
	<rect x="198" y="98.7" transform="matrix(0.7071 -0.7071 0.7071 0.7071 -9.908 177.3654)" width="22.2" height="3.9"/>
	<rect x="198" y="118.1" transform="matrix(0.7071 -0.7071 0.7071 0.7071 -23.6308 183.0424)" width="22.2" height="3.9"/>
	<rect x="198" y="137.5" transform="matrix(0.7071 -0.7071 0.7071 0.7071 -37.3531 188.7199)" width="22.2" height="3.9"/>
	<rect x="198" y="156.9" transform="matrix(0.7071 -0.7071 0.7071 0.7071 -51.0758 194.3969)" width="22.2" height="3.9"/>
	<rect x="198" y="176.3" transform="matrix(0.7071 -0.7071 0.7071 0.7071 -64.7987 200.0739)" width="22.2" height="3.9"/>
	<rect x="198" y="195.7" transform="matrix(0.7071 -0.7071 0.7071 0.7071 -78.5215 205.7509)" width="22.2" height="3.9"/>
	<rect x="198" y="215.1" transform="matrix(0.7071 -0.7071 0.7071 0.7071 -92.2438 211.4285)" width="22.2" height="3.9"/>
	<polygon points="215.6,227.2 202.8,240 208.3,240 218.3,230 	"/>
	<polygon points="183.2,12.8 196,0 190.5,0 180.5,10 	"/>
	<rect x="178.6" y="21" transform="matrix(0.7071 -0.7071 0.7071 0.7071 39.3356 140.8639)" width="22.2" height="3.9"/>
	<rect x="178.6" y="40.4" transform="matrix(0.7071 -0.7071 0.7071 0.7071 25.6127 146.5409)" width="22.2" height="3.9"/>
	<rect x="178.6" y="59.8" transform="matrix(0.7071 -0.7071 0.7071 0.7071 11.89 152.2178)" width="22.2" height="3.9"/>
	<rect x="178.7" y="79.3" transform="matrix(0.7071 -0.7071 0.7071 0.7071 -1.8621 157.9656)" width="22.2" height="3.9"/>
	<rect x="178.6" y="98.7" transform="matrix(0.7071 -0.7071 0.7071 0.7071 -15.585 163.6426)" width="22.2" height="3.9"/>
	<rect x="178.6" y="118.1" transform="matrix(0.7071 -0.7071 0.7071 0.7071 -29.3078 169.3196)" width="22.2" height="3.9"/>
	<rect x="178.6" y="137.5" transform="matrix(0.7071 -0.7071 0.7071 0.7071 -43.0301 174.9971)" width="22.2" height="3.9"/>
	<rect x="178.6" y="156.9" transform="matrix(0.7071 -0.7071 0.7071 0.7071 -56.7529 180.6741)" width="22.2" height="3.9"/>
	<rect x="178.6" y="176.3" transform="matrix(0.7071 -0.7071 0.7071 0.7071 -70.4757 186.3511)" width="22.2" height="3.9"/>
	<rect x="178.6" y="195.7" transform="matrix(0.7071 -0.7071 0.7071 0.7071 -84.1985 192.0281)" width="22.2" height="3.9"/>
	<rect x="178.6" y="215.1" transform="matrix(0.7071 -0.7071 0.7071 0.7071 -97.9208 197.7056)" width="22.2" height="3.9"/>
	<polygon points="196.2,227.2 183.4,240 188.9,240 198.9,230 	"/>
	<polygon points="163.8,12.8 176.6,0 171.1,0 161.1,10 	"/>
	<rect x="159.2" y="21" transform="matrix(0.7071 -0.7071 0.7071 0.7071 33.6586 127.141)" width="22.2" height="3.9"/>
	<rect x="159.2" y="40.4" transform="matrix(0.7071 -0.7071 0.7071 0.7071 19.9357 132.818)" width="22.2" height="3.9"/>
	<rect x="159.2" y="59.8" transform="matrix(0.7071 -0.7071 0.7071 0.7071 6.213 138.4951)" width="22.2" height="3.9"/>
	<rect x="159.2" y="79.3" transform="matrix(0.7071 -0.7071 0.7071 0.7071 -7.5391 144.2428)" width="22.2" height="3.9"/>
	<rect x="159.2" y="98.7" transform="matrix(0.7071 -0.7071 0.7071 0.7071 -21.262 149.9198)" width="22.2" height="3.9"/>
	<rect x="159.2" y="118.1" transform="matrix(0.7071 -0.7071 0.7071 0.7071 -34.9848 155.5968)" width="22.2" height="3.9"/>
	<rect x="159.2" y="137.5" transform="matrix(0.7071 -0.7071 0.7071 0.7071 -48.707 161.2743)" width="22.2" height="3.9"/>
	<rect x="159.2" y="156.9" transform="matrix(0.7071 -0.7071 0.7071 0.7071 -62.4299 166.9513)" width="22.2" height="3.9"/>
	<rect x="159.2" y="176.3" transform="matrix(0.7071 -0.7071 0.7071 0.7071 -76.1526 172.6283)" width="22.2" height="3.9"/>
	<rect x="159.2" y="195.7" transform="matrix(0.7071 -0.7071 0.7071 0.7071 -89.8755 178.3053)" width="22.2" height="3.9"/>
	<rect x="159.2" y="215.1" transform="matrix(0.7071 -0.7071 0.7071 0.7071 -103.5978 183.9829)" width="22.2" height="3.9"/>
	<polygon points="176.7,227.2 164,240 169.5,240 179.5,230 	"/>
	<polygon points="144.4,12.8 157.2,0 151.7,0 141.7,10 	"/>
	<rect x="139.8" y="21" transform="matrix(0.7071 -0.7071 0.7071 0.7071 27.9816 113.4183)" width="22.2" height="3.9"/>
	<rect x="139.8" y="40.4" transform="matrix(0.7071 -0.7071 0.7071 0.7071 14.2587 119.0953)" width="22.2" height="3.9"/>
	<rect x="139.8" y="59.8" transform="matrix(0.7071 -0.7071 0.7071 0.7071 0.5359 124.7723)" width="22.2" height="3.9"/>
	<rect x="139.8" y="79.3" transform="matrix(0.7071 -0.7071 0.7071 0.7071 -13.2161 130.52)" width="22.2" height="3.9"/>
	<rect x="139.8" y="98.7" transform="matrix(0.7071 -0.7071 0.7071 0.7071 -26.939 136.197)" width="22.2" height="3.9"/>
	<rect x="139.8" y="118.1" transform="matrix(0.7071 -0.7071 0.7071 0.7071 -40.6618 141.874)" width="22.2" height="3.9"/>
	<rect x="139.8" y="137.5" transform="matrix(0.7071 -0.7071 0.7071 0.7071 -54.384 147.5515)" width="22.2" height="3.9"/>
	<rect x="139.8" y="156.9" transform="matrix(0.7071 -0.7071 0.7071 0.7071 -68.1069 153.2285)" width="22.2" height="3.9"/>
	<rect x="139.8" y="176.3" transform="matrix(0.7071 -0.7071 0.7071 0.7071 -81.8297 158.9055)" width="22.2" height="3.9"/>
	<rect x="139.8" y="195.7" transform="matrix(0.7071 -0.7071 0.7071 0.7071 -95.5525 164.5825)" width="22.2" height="3.9"/>
	<rect x="139.8" y="215.1" transform="matrix(0.7071 -0.7071 0.7071 0.7071 -109.2748 170.26)" width="22.2" height="3.9"/>
	<polygon points="157.3,227.2 144.6,240 150.1,240 160.1,230 	"/>
	<polygon points="125,12.7 137.8,0 132.3,0 122.3,10 	"/>
	<rect x="120.4" y="21" transform="matrix(0.7071 -0.7071 0.7071 0.7071 22.3043 99.6957)" width="22.2" height="3.9"/>
	<rect x="120.4" y="40.4" transform="matrix(0.7071 -0.7071 0.7071 0.7071 8.5815 105.3727)" width="22.2" height="3.9"/>
	<rect x="120.4" y="59.8" transform="matrix(0.7071 -0.7071 0.7071 0.7071 -5.1413 111.0497)" width="22.2" height="3.9"/>
	<rect x="120.4" y="79.3" transform="matrix(0.7071 -0.7071 0.7071 0.7071 -18.8935 116.7974)" width="22.2" height="3.9"/>
	<rect x="120.4" y="98.7" transform="matrix(0.7071 -0.7071 0.7071 0.7071 -32.6162 122.4744)" width="22.2" height="3.9"/>
	<rect x="120.4" y="118.1" transform="matrix(0.7071 -0.7071 0.7071 0.7071 -46.3391 128.1514)" width="22.2" height="3.9"/>
	<rect x="120.4" y="137.5" transform="matrix(0.7071 -0.7071 0.7071 0.7071 -60.0614 133.8289)" width="22.2" height="3.9"/>
	<rect x="120.4" y="156.9" transform="matrix(0.7071 -0.7071 0.7071 0.7071 -73.7843 139.5082)" width="22.2" height="3.9"/>
	<rect x="120.4" y="176.3" transform="matrix(0.7071 -0.7071 0.7071 0.7071 -87.5073 145.1854)" width="22.2" height="3.9"/>
	<rect x="120.4" y="195.7" transform="matrix(0.7071 -0.7071 0.7071 0.7071 -101.2297 150.86)" width="22.2" height="3.9"/>
	<rect x="120.4" y="215.1" transform="matrix(0.7071 -0.7071 0.7071 0.7071 -114.952 156.5375)" width="22.2" height="3.9"/>
	<polygon points="137.9,227.2 125.1,240 130.7,240 140.7,230 	"/>
	<polygon points="105.6,12.7 118.4,0 112.9,0 102.9,10 	"/>
	<rect x="101" y="21" transform="matrix(0.7071 -0.7071 0.7071 0.7071 16.6273 85.9729)" width="22.2" height="3.9"/>
	<rect x="101" y="40.4" transform="matrix(0.7071 -0.7071 0.7071 0.7071 2.9045 91.6499)" width="22.2" height="3.9"/>
	<rect x="101" y="59.8" transform="matrix(0.7071 -0.7071 0.7071 0.7071 -10.8183 97.3269)" width="22.2" height="3.9"/>
	<rect x="101" y="79.2" transform="matrix(0.7071 -0.7071 0.7071 0.7071 -24.5704 103.0747)" width="22.2" height="3.9"/>
	<rect x="101" y="98.6" transform="matrix(0.7071 -0.7071 0.7071 0.7071 -38.2932 108.7516)" width="22.2" height="3.9"/>
	<rect x="101" y="118.1" transform="matrix(0.7071 -0.7071 0.7071 0.7071 -52.016 114.4286)" width="22.2" height="3.9"/>
	<rect x="101" y="137.5" transform="matrix(0.7071 -0.7071 0.7071 0.7071 -65.7383 120.1062)" width="22.2" height="3.9"/>
	<rect x="101" y="156.9" transform="matrix(0.7071 -0.7071 0.7071 0.7071 -79.4611 125.7831)" width="22.2" height="3.9"/>
	<rect x="101" y="176.3" transform="matrix(0.7071 -0.7071 0.7071 0.7071 -93.184 131.4602)" width="22.2" height="3.9"/>
	<rect x="101" y="195.7" transform="matrix(0.7071 -0.7071 0.7071 0.7071 -106.9068 137.1372)" width="22.2" height="3.9"/>
	<rect x="101" y="215.1" transform="matrix(0.7071 -0.7071 0.7071 0.7071 -120.629 142.8147)" width="22.2" height="3.9"/>
	<polygon points="118.5,227.2 105.7,240 111.2,240 121.3,230 	"/>
	<polygon points="86.2,12.7 99,0 93.4,0 83.5,10 	"/>
	<rect x="81.6" y="21" transform="matrix(0.7071 -0.7071 0.7071 0.7071 10.9503 72.2501)" width="22.2" height="3.9"/>
	<rect x="81.6" y="40.4" transform="matrix(0.7071 -0.7071 0.7071 0.7071 -2.7725 77.9271)" width="22.2" height="3.9"/>
	<rect x="81.6" y="59.8" transform="matrix(0.7071 -0.7071 0.7071 0.7071 -16.4953 83.6041)" width="22.2" height="3.9"/>
	<rect x="81.6" y="79.2" transform="matrix(0.7071 -0.7071 0.7071 0.7071 -30.2474 89.3518)" width="22.2" height="3.9"/>
	<rect x="81.6" y="98.6" transform="matrix(0.7071 -0.7071 0.7071 0.7071 -43.9702 95.0288)" width="22.2" height="3.9"/>
	<rect x="81.6" y="118" transform="matrix(0.7071 -0.7071 0.7071 0.7071 -57.693 100.7058)" width="22.2" height="3.9"/>
	<rect x="81.6" y="137.4" transform="matrix(0.7071 -0.7071 0.7071 0.7071 -71.4157 106.3852)" width="22.2" height="3.9"/>
	<rect x="81.6" y="156.9" transform="matrix(0.7071 -0.7071 0.7071 0.7071 -85.1381 112.0603)" width="22.2" height="3.9"/>
	<rect x="81.6" y="176.3" transform="matrix(0.7071 -0.7071 0.7071 0.7071 -98.861 117.7373)" width="22.2" height="3.9"/>
	<rect x="81.6" y="195.7" transform="matrix(0.7071 -0.7071 0.7071 0.7071 -112.5838 123.4143)" width="22.2" height="3.9"/>
	<rect x="81.6" y="215.1" transform="matrix(0.7071 -0.7071 0.7071 0.7071 -126.306 129.0918)" width="22.2" height="3.9"/>
	<polygon points="99.1,227.2 86.3,240 91.8,240 101.9,229.9 	"/>
	<polygon points="66.8,12.8 79.5,0 74,0 64,10 	"/>
	<rect x="62.1" y="21" transform="matrix(0.7071 -0.7071 0.7071 0.7071 5.2026 58.4979)" width="22.2" height="3.9"/>
	<rect x="62.1" y="40.4" transform="matrix(0.7071 -0.7071 0.7071 0.7071 -8.5203 64.175)" width="22.2" height="3.9"/>
	<rect x="62.1" y="59.8" transform="matrix(0.7071 -0.7071 0.7071 0.7071 -22.243 69.852)" width="22.2" height="3.9"/>
	<rect x="62.2" y="79.3" transform="matrix(0.7071 -0.7071 0.7071 0.7071 -35.9952 75.5998)" width="22.2" height="3.9"/>
	<rect x="62.2" y="98.7" transform="matrix(0.7071 -0.7071 0.7071 0.7071 -49.7179 81.2767)" width="22.2" height="3.9"/>
	<rect x="62.1" y="118.1" transform="matrix(0.7071 -0.7071 0.7071 0.7071 -63.4408 86.9537)" width="22.2" height="3.9"/>
	<rect x="62.1" y="137.5" transform="matrix(0.7071 -0.7071 0.7071 0.7071 -77.163 92.6313)" width="22.2" height="3.9"/>
	<rect x="62.1" y="156.9" transform="matrix(0.7071 -0.7071 0.7071 0.7071 -90.8858 98.3082)" width="22.2" height="3.9"/>
	<rect x="62.1" y="176.3" transform="matrix(0.7071 -0.7071 0.7071 0.7071 -104.6095 103.9872)" width="22.2" height="3.9"/>
	<rect x="62.1" y="195.7" transform="matrix(0.7071 -0.7071 0.7071 0.7071 -118.3315 109.6623)" width="22.2" height="3.9"/>
	<rect x="62.1" y="215.1" transform="matrix(0.7071 -0.7071 0.7071 0.7071 -132.0538 115.3398)" width="22.2" height="3.9"/>
	<polygon points="79.7,227.2 66.9,240 72.4,240 82.4,230 	"/>
	<polygon points="47.4,12.8 60.1,0 54.6,0 44.6,10 	"/>
	<rect x="42.7" y="21" transform="matrix(0.7071 -0.7071 0.7071 0.7071 -0.4747 44.7755)" width="22.2" height="3.9"/>
	<rect x="42.7" y="40.4" transform="matrix(0.7071 -0.7071 0.7071 0.7071 -14.1975 50.4525)" width="22.2" height="3.9"/>
	<rect x="42.7" y="59.8" transform="matrix(0.7071 -0.7071 0.7071 0.7071 -27.9203 56.1295)" width="22.2" height="3.9"/>
	<rect x="42.8" y="79.3" transform="matrix(0.7071 -0.7071 0.7071 0.7071 -41.6724 61.8771)" width="22.2" height="3.9"/>
	<rect x="42.7" y="98.7" transform="matrix(0.7071 -0.7071 0.7071 0.7071 -55.3952 67.5542)" width="22.2" height="3.9"/>
	<rect x="42.7" y="118.1" transform="matrix(0.7071 -0.7071 0.7071 0.7071 -69.1185 73.2325)" width="22.2" height="3.9"/>
	<rect x="42.7" y="137.5" transform="matrix(0.7071 -0.7071 0.7071 0.7071 -82.8403 78.9087)" width="22.2" height="3.9"/>
	<rect x="42.7" y="156.9" transform="matrix(0.7071 -0.7071 0.7071 0.7071 -96.5631 84.5857)" width="22.2" height="3.9"/>
	<rect x="42.7" y="176.3" transform="matrix(0.7071 -0.7071 0.7071 0.7071 -110.286 90.2627)" width="22.2" height="3.9"/>
	<rect x="42.7" y="195.7" transform="matrix(0.7071 -0.7071 0.7071 0.7071 -124.0087 95.9397)" width="22.2" height="3.9"/>
	<rect x="42.7" y="215.1" transform="matrix(0.7071 -0.7071 0.7071 0.7071 -137.731 101.6172)" width="22.2" height="3.9"/>
	<polygon points="60.3,227.2 47.5,240 53,240 63,230 	"/>
	<polygon points="27.9,12.8 40.7,0 35.2,0 25.2,10 	"/>
	<rect x="23.3" y="21" transform="matrix(0.7071 -0.7071 0.7071 0.7071 -6.1517 31.0526)" width="22.2" height="3.9"/>
	<rect x="23.3" y="40.4" transform="matrix(0.7071 -0.7071 0.7071 0.7071 -19.8745 36.7296)" width="22.2" height="3.9"/>
	<rect x="23.3" y="59.8" transform="matrix(0.7071 -0.7071 0.7071 0.7071 -33.5973 42.4066)" width="22.2" height="3.9"/>
	<rect x="23.4" y="79.3" transform="matrix(0.7071 -0.7071 0.7071 0.7071 -47.3494 48.1543)" width="22.2" height="3.9"/>
	<rect x="23.3" y="98.7" transform="matrix(0.7071 -0.7071 0.7071 0.7071 -61.0722 53.8313)" width="22.2" height="3.9"/>
	<rect x="23.3" y="118.1" transform="matrix(0.7071 -0.7071 0.7071 0.7071 -74.7951 59.5083)" width="22.2" height="3.9"/>
	<rect x="23.3" y="137.5" transform="matrix(0.7071 -0.7071 0.7071 0.7071 -88.5173 65.1858)" width="22.2" height="3.9"/>
	<rect x="23.3" y="156.9" transform="matrix(0.7071 -0.7071 0.7071 0.7071 -102.2401 70.8628)" width="22.2" height="3.9"/>
	<rect x="23.3" y="176.3" transform="matrix(0.7071 -0.7071 0.7071 0.7071 -115.963 76.5399)" width="22.2" height="3.9"/>
	<rect x="23.3" y="195.7" transform="matrix(0.7071 -0.7071 0.7071 0.7071 -129.6857 82.2169)" width="22.2" height="3.9"/>
	<rect x="23.3" y="215.1" transform="matrix(0.7071 -0.7071 0.7071 0.7071 -143.4081 87.8944)" width="22.2" height="3.9"/>
	<polygon points="40.9,227.2 28.1,240 33.6,240 43.6,230 	"/>
	<polygon points="8.5,12.8 21.3,0 15.8,0 5.8,10 	"/>
	<rect x="3.9" y="21" transform="matrix(0.7071 -0.7071 0.7071 0.7071 -11.8297 17.3309)" width="22.2" height="3.9"/>
	<rect x="3.9" y="40.4" transform="matrix(0.7071 -0.7071 0.7071 0.7071 -25.5525 23.0079)" width="22.2" height="3.9"/>
	<rect x="3.9" y="59.8" transform="matrix(0.7071 -0.7071 0.7071 0.7071 -39.2753 28.6849)" width="22.2" height="3.9"/>
	<rect x="4" y="79.3" transform="matrix(0.7071 -0.7071 0.7071 0.7071 -53.0274 34.4326)" width="22.2" height="3.9"/>
	<rect x="3.9" y="98.7" transform="matrix(0.7071 -0.7071 0.7071 0.7071 -66.7502 40.1096)" width="22.2" height="3.9"/>
	<rect x="3.9" y="118.1" transform="matrix(0.7071 -0.7071 0.7071 0.7071 -80.473 45.7866)" width="22.2" height="3.9"/>
	<rect x="3.9" y="137.5" transform="matrix(0.7071 -0.7071 0.7071 0.7071 -94.1954 51.4641)" width="22.2" height="3.9"/>
	<rect x="3.9" y="156.9" transform="matrix(0.7071 -0.7071 0.7071 0.7071 -107.917 57.1397)" width="22.2" height="3.9"/>
	<rect x="3.9" y="176.3" transform="matrix(0.7071 -0.7071 0.7071 0.7071 -121.641 62.8181)" width="22.2" height="3.9"/>
	<rect x="3.9" y="195.7" transform="matrix(0.7071 -0.7071 0.7071 0.7071 -135.3637 68.4951)" width="22.2" height="3.9"/>
	<rect x="3.9" y="215.1" transform="matrix(0.7071 -0.7071 0.7071 0.7071 -149.086 74.1726)" width="22.2" height="3.9"/>
	<polygon points="21.5,227.2 8.7,240 14.2,240 24.2,230 	"/>
	<polygon points="0,0 0,1.8 1.8,0 	"/>
	<polygon points="2,13.7 0,15.7 0,21.2 4.7,16.5 	"/>
	<polygon points="2,33.1 0,35.1 0,40.6 4.7,35.9 	"/>
	<polygon points="2,52.5 0,54.5 0,60 4.7,55.3 	"/>
	<polygon points="2,72 0,74 0,79.6 4.8,74.8 	"/>
	<polygon points="2,91.4 0,93.4 0,99 4.8,94.2 	"/>
	<polygon points="2,110.8 0,112.8 0,118.4 4.8,113.6 	"/>
	<polygon points="2,130.2 0,132.2 0,137.7 4.8,133 	"/>
	<polygon points="2,149.6 0,151.6 0,157.1 4.8,152.4 	"/>
	<polygon points="2,169 0,171 0,176.5 4.7,171.8 	"/>
	<polygon points="2,188.4 0,190.4 0,195.9 4.7,191.2 	"/>
	<polygon points="2,207.8 0,209.8 0,215.3 4.7,210.6 	"/>
	<polygon points="2,227.2 0,229.2 0,234.7 4.7,230 	"/>
	<polygon points="358,12.8 360,10.8 360,5.3 355.3,10 	"/>
	<polygon points="358,32.2 360,30.2 360,24.7 355.3,29.4 	"/>
	<polygon points="358,51.6 360,49.6 360,44.1 355.3,48.8 	"/>
	<polygon points="358,71 360,69 360,63.5 355.3,68.2 	"/>
	<polygon points="358.1,90.4 360,88.5 360,83 355.3,87.7 	"/>
	<polygon points="358.1,109.8 360,107.9 360,102.4 355.3,107.1 	"/>
	<polygon points="358.1,129.2 360,127.3 360,121.8 355.3,126.5 	"/>
	<polygon points="358,148.7 360,146.7 360,141.2 355.3,145.9 	"/>
	<polygon points="358,168.1 360,166.1 360,160.6 355.3,165.3 	"/>
	<polygon points="358,187.5 360,185.5 360,180 355.3,184.7 	"/>
	<polygon points="358,206.9 360,204.9 360,199.4 355.3,204.1 	"/>
	<polygon points="358,226.3 360,224.3 360,218.8 355.3,223.5 	"/>
	<polygon points="360,240 360,238.2 358.2,240 	"/>
	<polygon points="338.5,12.8 351.3,0 345.8,0 335.8,10 	"/>
	<rect x="333.9" y="21" transform="matrix(0.7071 -0.7071 0.7071 0.7071 84.8202 250.6778)" width="22.2" height="3.9"/>
	<rect x="333.9" y="40.4" transform="matrix(0.7071 -0.7071 0.7071 0.7071 71.0974 256.3548)" width="22.2" height="3.9"/>
	<rect x="333.9" y="59.8" transform="matrix(0.7071 -0.7071 0.7071 0.7071 57.3746 262.0318)" width="22.2" height="3.9"/>
	<rect x="333.9" y="79.3" transform="matrix(0.7071 -0.7071 0.7071 0.7071 43.6225 267.7795)" width="22.2" height="3.9"/>
	<rect x="333.9" y="98.7" transform="matrix(0.7071 -0.7071 0.7071 0.7071 29.8997 273.4565)" width="22.2" height="3.9"/>
	<rect x="333.9" y="118.1" transform="matrix(0.7071 -0.7071 0.7071 0.7071 16.1769 279.1335)" width="22.2" height="3.9"/>
	<rect x="333.9" y="137.5" transform="matrix(0.7071 -0.7071 0.7071 0.7071 2.4546 284.811)" width="22.2" height="3.9"/>
	<rect x="333.9" y="156.9" transform="matrix(0.7071 -0.7071 0.7071 0.7071 -11.2682 290.488)" width="22.2" height="3.9"/>
	<rect x="333.9" y="176.3" transform="matrix(0.7071 -0.7071 0.7071 0.7071 -24.9911 296.165)" width="22.2" height="3.9"/>
	<rect x="333.9" y="195.7" transform="matrix(0.7071 -0.7071 0.7071 0.7071 -38.7138 301.842)" width="22.2" height="3.9"/>
	<rect x="333.9" y="215.1" transform="matrix(0.7071 -0.7071 0.7071 0.7071 -52.4361 307.5195)" width="22.2" height="3.9"/>
	<polygon points="351.5,227.2 338.7,240 344.2,240 354.2,230 	"/>
</g>
</svg>
