<svg version="1.1" id="Layer_1" xmlns="http://www.w3.org/2000/svg" xmlns:xlink="http://www.w3.org/1999/xlink" x="0px" y="0px"
	 viewBox="0 0 360 240" style="enable-background:new 0 0 360 240;" xml:space="preserve">
<g class="flower-lines">
	<path d="M326,7.2c0.1,0,0.2,0,0.3,0c5.3,0,9.9-2.9,12.3-7.2h-6.1C331.1,3,328.9,5.5,326,7.2z"/>
	<path d="M325.7,35.7c0.1,0,0.2,0,0.3,0c-4.8-2.8-8-8.1-8-14c0-6.1,3.2-11.4,8-14.2c-0.1,0-0.2,0-0.3,0c-7.8,0-14.1,6.3-14.1,14.1
		C311.6,29.4,317.9,35.7,325.7,35.7z"/>
	<path d="M326.3,35.6c-0.1,0-0.2,0-0.3,0c4.8,2.8,8,8.1,8,14c0,6-3.2,11.2-8,14c0.1,0,0.2,0,0.3,0c7.8,0,14.1-6.3,14.1-14.1
		C340.4,41.9,334.1,35.6,326.3,35.6z"/>
	<path d="M355.3,7.2c0.1,0,0.2,0,0.3,0c1.5,0,3-0.3,4.4-0.7V3C358.7,4.7,357.1,6.1,355.3,7.2z"/>
	<path d="M355.3,7.6c-0.1,0-0.2,0-0.3,0c-7.8,0-14.1,6.3-14.1,14.1c0,7.6,6.3,13.9,14.1,13.9c0.1,0,0.2,0,0.3,0c-4.8-2.8-8-8.1-8-14
		C347.3,15.6,350.5,10.4,355.3,7.6z"/>
	<path d="M355.3,35.6c1.8,1.1,3.4,2.5,4.7,4.2v-3.5c-1.4-0.5-2.9-0.7-4.4-0.7C355.5,35.6,355.4,35.6,355.3,35.6z"/>
	<path d="M355.3,63.6c0.1,0,0.2,0,0.3,0c1.5,0,3-0.3,4.4-0.7v-3.5C358.7,61.1,357.1,62.5,355.3,63.6z"/>
	<path d="M326,63.7c-0.1,0-0.2,0-0.3,0c-7.8,0-14.1,6.3-14.1,14.1s6.3,14.1,14.1,14.1c0.1,0,0.2,0,0.3,0c-4.8-2.8-8-8.1-8-14
		C318,71.8,321.2,66.6,326,63.7z"/>
	<path d="M326.3,91.8c-0.1,0-0.2,0-0.3,0c4.8,2.8,8,8.1,8,14c0,5.9-3.2,11.2-8,14c0.1,0,0.2,0,0.3,0c7.8,0,14.1-6.3,14.1-14.1
		C340.4,98.1,334.1,91.8,326.3,91.8z"/>
	<path d="M326,120.1c-0.1,0-0.2,0-0.3,0c-7.8,0-14.1,6.3-14.1,14.1s6.3,14.1,14.1,14.1c0.1,0,0.2,0,0.3,0c-4.8-2.8-8-8.1-8-14
		C318,128.1,321.2,122.9,326,120.1z"/>
	<path d="M326.3,148.2c-0.1,0-0.2,0-0.3,0c4.8,2.8,8,8.1,8,14c0,6-3.2,11.2-8,14c0.1,0,0.2,0,0.3,0c7.8,0,14.1-6.3,14.1-14.1
		C340.4,154.5,334.1,148.2,326.3,148.2z"/>
	<path d="M355.3,63.8c-0.1,0-0.2,0-0.3,0c-7.8,0-14.1,6.3-14.1,14.1c0,7.6,6.3,13.9,14.1,13.9c0.1,0,0.2,0,0.3,0
		c-4.8-2.8-8-8.1-8-14C347.3,71.8,350.5,66.6,355.3,63.8z"/>
	<path d="M355.3,91.8c1.8,1.1,3.4,2.5,4.7,4.2v-3.5c-1.4-0.5-2.9-0.7-4.4-0.7C355.5,91.8,355.4,91.8,355.3,91.8z"/>
	<path d="M355.3,119.8c0.1,0,0.2,0,0.3,0c1.5,0,3-0.3,4.4-0.7v-3.5C358.7,117.3,357.1,118.7,355.3,119.8z"/>
	<path d="M355.3,120.2c-0.1,0-0.2,0-0.3,0c-7.8,0-14.1,6.3-14.1,14.1s6.3,13.9,14.1,13.9c0.1,0,0.2,0,0.3,0c-4.8-2.8-8-8.1-8-14
		C347.3,128.2,350.5,123,355.3,120.2z"/>
	<path d="M355.3,176.2c0.1,0,0.2,0,0.3,0c1.5,0,3-0.3,4.4-0.7V172C358.7,173.7,357.1,175.1,355.3,176.2z"/>
	<path d="M355.3,148.2c1.8,1.1,3.4,2.5,4.7,4.2v-3.5c-1.4-0.5-2.9-0.7-4.4-0.7C355.5,148.2,355.4,148.2,355.3,148.2z"/>
	<path d="M318,190.5c0-6.1,3.2-11.4,8-14.2c-0.1,0-0.2,0-0.3,0c-7.8,0-14.1,6.3-14.1,14.1c0,7.8,6.3,14.1,14.1,14.1
		c0.1,0,0.2,0,0.3,0C321.2,201.7,318,196.4,318,190.5z"/>
	<path d="M326.3,204.4c-0.1,0-0.2,0-0.3,0c4.8,2.8,8,8.1,8,14c0,6-3.2,11.2-8,14c0.1,0,0.2,0,0.3,0c7.8,0,14.1-6.3,14.1-14.1
		S334.1,204.4,326.3,204.4z"/>
	<path d="M326,232.7c-0.1,0-0.2,0-0.3,0c-5.3,0-10,2.9-12.4,7.3h6.1C320.8,236.9,323.1,234.4,326,232.7z"/>
	<path d="M355.3,176.4c-0.1,0-0.2,0-0.3,0c-7.8,0-14.1,6.3-14.1,14.1s6.3,13.9,14.1,13.9c0.1,0,0.2,0,0.3,0c-4.8-2.8-8-8.1-8-14
		C347.3,184.4,350.5,179.2,355.3,176.4z"/>
	<path d="M355.3,232.4c0.1,0,0.2,0,0.3,0c1.5,0,3-0.3,4.4-0.7v-3.5C358.7,229.9,357.1,231.3,355.3,232.4z"/>
	<path d="M355.3,204.4c1.8,1.1,3.4,2.5,4.7,4.2v-3.5c-1.4-0.4-2.9-0.7-4.4-0.7C355.5,204.4,355.4,204.4,355.3,204.4z"/>
	<path d="M355.3,232.7c-0.1,0-0.2,0-0.3,0c-5.3,0-10,2.9-12.4,7.3h6.1C350.1,236.9,352.4,234.4,355.3,232.7z"/>
	<path d="M150.7,7.2c0.1,0,0.2,0,0.3,0c5.3,0,9.9-2.9,12.3-7.2h-6.1C155.8,3,153.6,5.5,150.7,7.2z"/>
	<path d="M150.4,35.7c0.1,0,0.2,0,0.3,0c-4.8-2.8-8-8.1-8-14c0-6.1,3.2-11.4,8-14.2c-0.1,0-0.2,0-0.3,0c-7.8,0-14.1,6.3-14.1,14.1
		C136.3,29.4,142.6,35.7,150.4,35.7z"/>
	<path d="M151,35.6c-0.1,0-0.2,0-0.3,0c4.8,2.8,8,8.1,8,14c0,6-3.2,11.2-8,14c0.1,0,0.2,0,0.3,0c7.8,0,14.1-6.3,14.1-14.1
		C165.1,41.9,158.8,35.6,151,35.6z"/>
	<path d="M180,7.2c0.1,0,0.2,0,0.3,0c5.3,0,9.9-2.9,12.3-7.2h-6.1C185.1,3,182.9,5.5,180,7.2z"/>
	<path d="M172,21.6c0-6,3.2-11.2,8-14c-0.1,0-0.2,0-0.3,0c-7.8,0-14.1,6.3-14.1,14.1c0,7.6,6.3,13.9,14.1,13.9c0.1,0,0.2,0,0.3,0
		C175.2,32.8,172,27.5,172,21.6z"/>
	<path d="M180.3,35.6c-0.1,0-0.2,0-0.3,0c4.8,2.8,8,8.1,8,14c0,6-3.2,11.2-8,14c0.1,0,0.2,0,0.3,0c7.8,0,14.1-6.3,14.1-14.1
		C194.4,41.9,188.1,35.6,180.3,35.6z"/>
	<path d="M209.3,7.2c0.1,0,0.2,0,0.3,0c5.3,0,9.9-2.9,12.3-7.2h-6.1C214.4,3,212.2,5.5,209.3,7.2z"/>
	<path d="M201.3,21.6c0-6,3.2-11.2,8-14c-0.1,0-0.2,0-0.3,0c-7.8,0-14.1,6.3-14.1,14.1c0,7.6,6.3,13.9,14.1,13.9c0.1,0,0.2,0,0.3,0
		C204.5,32.8,201.3,27.5,201.3,21.6z"/>
	<path d="M209.6,35.6c-0.1,0-0.2,0-0.3,0c4.8,2.8,8,8.1,8,14c0,6-3.2,11.2-8,14c0.1,0,0.2,0,0.3,0c7.8,0,14.1-6.3,14.1-14.1
		C223.7,41.9,217.4,35.6,209.6,35.6z"/>
	<path d="M238.6,7.2c0.1,0,0.2,0,0.3,0c5.3,0.1,10-2.9,12.4-7.2h-6.2C243.7,3,241.5,5.5,238.6,7.2z"/>
	<path d="M230.6,21.6c0-6,3.2-11.2,8-14c-0.1,0-0.2,0-0.3,0c-7.8,0-14.1,6.3-14.1,14.1c0,7.6,6.3,13.9,14.1,13.9c0.1,0,0.2,0,0.3,0
		h0C233.8,32.8,230.6,27.5,230.6,21.6z"/>
	<path d="M238.9,35.6c-0.1,0-0.2,0-0.3,0h0c4.8,2.8,8,8.1,8,14c0,6-3.2,11.2-8,14c0.1,0,0.2,0,0.3,0c7.8,0,14.1-6.3,14.1-14.1
		C253,41.9,246.7,35.6,238.9,35.6z"/>
	<path d="M267.9,7.2c0.1,0,0.2,0,0.3,0c5.3,0,9.9-2.9,12.3-7.2h-6.1C273,3,270.8,5.5,267.9,7.2z"/>
	<path d="M259.9,21.6c0-6,3.2-11.2,8-14c-0.1,0-0.2,0-0.3,0c-7.8,0-14.1,6.3-14.1,14.1c0,7.6,6.3,13.9,14.1,13.9c0.1,0,0.2,0,0.3,0
		C263.1,32.8,259.9,27.5,259.9,21.6z"/>
	<path d="M268.2,35.6c-0.1,0-0.2,0-0.3,0c4.8,2.8,8,8.1,8,14c0,6-3.2,11.2-8,14c0.1,0,0.2,0,0.3,0c7.8,0,14.1-6.3,14.1-14.1
		C282.3,41.9,276,35.6,268.2,35.6z"/>
	<path d="M297.2,7.3c0.1,0,0.2,0,0.3,0c5.3,0,10-2.9,12.4-7.3h-6.1C302.4,3.1,300.1,5.6,297.2,7.3z"/>
	<path d="M296.9,35.6c0.1,0,0.2,0,0.3,0c-4.8-2.8-8-8.1-8-14c0-6,3.2-11.2,8-14c-0.1,0-0.2,0-0.3,0c-7.8,0-14.1,6.3-14.1,14.1
		C282.8,29.3,289.1,35.6,296.9,35.6z"/>
	<path d="M305.2,49.5c0,6.1-3.2,11.4-8,14.2c0.1,0,0.2,0,0.3,0c7.8,0,14.1-6.3,14.1-14.1c0-7.8-6.3-14.1-14.1-14.1
		c-0.1,0-0.2,0-0.3,0C302,38.3,305.2,43.6,305.2,49.5z"/>
	<path d="M150.7,63.7c-0.1,0-0.2,0-0.3,0c-7.8,0-14.1,6.3-14.1,14.1s6.3,14.1,14.1,14.1c0.1,0,0.2,0,0.3,0c-4.8-2.8-8-8.1-8-14
		C142.7,71.8,145.9,66.6,150.7,63.7z"/>
	<path d="M151,91.8c-0.1,0-0.2,0-0.3,0c4.8,2.8,8,8.1,8,14c0,5.9-3.2,11.2-8,14c0.1,0,0.2,0,0.3,0c7.8,0,14.1-6.3,14.1-14.1
		C165.1,98.1,158.8,91.8,151,91.8z"/>
	<path d="M150.7,120.1c-0.1,0-0.2,0-0.3,0c-7.8,0-14.1,6.3-14.1,14.1s6.3,14.1,14.1,14.1c0.1,0,0.2,0,0.3,0c-4.8-2.8-8-8.1-8-14
		C142.7,128.1,145.9,122.9,150.7,120.1z"/>
	<path d="M151,148.2c-0.1,0-0.2,0-0.3,0c4.8,2.8,8,8.1,8,14c0,6-3.2,11.2-8,14c0.1,0,0.2,0,0.3,0c7.8,0,14.1-6.3,14.1-14.1
		C165.1,154.5,158.8,148.2,151,148.2z"/>
	<path d="M172,77.8c0-6,3.2-11.2,8-14c-0.1,0-0.2,0-0.3,0c-7.8,0-14.1,6.3-14.1,14.1c0,7.6,6.3,13.9,14.1,13.9c0.1,0,0.2,0,0.3,0
		C175.2,89,172,83.7,172,77.8z"/>
	<path d="M180.3,91.8c-0.1,0-0.2,0-0.3,0c4.8,2.8,8,8.1,8,14c0,5.9-3.2,11.2-8,14c0.1,0,0.2,0,0.3,0c7.8,0,14.1-6.3,14.1-14.1
		C194.4,98.1,188.1,91.8,180.3,91.8z"/>
	<path d="M172,134.2c0-6,3.2-11.2,8-14c-0.1,0-0.2,0-0.3,0c-7.8,0-14.1,6.3-14.1,14.1s6.3,13.9,14.1,13.9c0.1,0,0.2,0,0.3,0
		C175.2,145.4,172,140.1,172,134.2z"/>
	<path d="M180.3,148.2c-0.1,0-0.2,0-0.3,0c4.8,2.8,8,8.1,8,14c0,6-3.2,11.2-8,14c0.1,0,0.2,0,0.3,0c7.8,0,14.1-6.3,14.1-14.1
		C194.4,154.5,188.1,148.2,180.3,148.2z"/>
	<path d="M201.3,77.8c0-6,3.2-11.2,8-14c-0.1,0-0.2,0-0.3,0c-7.8,0-14.1,6.3-14.1,14.1c0,7.6,6.3,13.9,14.1,13.9c0.1,0,0.2,0,0.3,0
		C204.5,89,201.3,83.7,201.3,77.8z"/>
	<path d="M209.6,91.8c-0.1,0-0.2,0-0.3,0c4.8,2.8,8,8.1,8,14c0,5.9-3.2,11.2-8,14c0.1,0,0.2,0,0.3,0c7.8,0,14.1-6.3,14.1-14.1
		C223.7,98.1,217.4,91.8,209.6,91.8z"/>
	<path d="M201.3,134.2c0-6,3.2-11.2,8-14c-0.1,0-0.2,0-0.3,0c-7.8,0-14.1,6.3-14.1,14.1s6.3,13.9,14.1,13.9c0.1,0,0.2,0,0.3,0
		C204.5,145.4,201.3,140.1,201.3,134.2z"/>
	<path d="M209.6,148.2c-0.1,0-0.2,0-0.3,0c4.8,2.8,8,8.1,8,14c0,6-3.2,11.2-8,14c0.1,0,0.2,0,0.3,0c7.8,0,14.1-6.3,14.1-14.1
		C223.7,154.5,217.4,148.2,209.6,148.2z"/>
	<path d="M230.6,77.8c0-6,3.2-11.2,8-14c-0.1,0-0.2,0-0.3,0c-7.8,0-14.1,6.3-14.1,14.1c0,7.6,6.3,13.9,14.1,13.9c0.1,0,0.2,0,0.3,0
		h0C233.8,89,230.6,83.7,230.6,77.8z"/>
	<path d="M238.9,91.8c-0.1,0-0.2,0-0.3,0h0c4.8,2.8,8,8.1,8,14c0,5.9-3.2,11.2-8,14c0.1,0,0.2,0,0.3,0c7.8,0,14.1-6.3,14.1-14.1
		C253,98.1,246.7,91.8,238.9,91.8z"/>
	<path d="M230.6,134.2c0-6,3.2-11.2,8-14c-0.1,0-0.2,0-0.3,0c-7.8,0-14.1,6.3-14.1,14.1s6.3,13.9,14.1,13.9c0.1,0,0.2,0,0.3,0h0
		C233.8,145.4,230.6,140.1,230.6,134.2z"/>
	<path d="M238.9,148.2c-0.1,0-0.2,0-0.3,0h0c4.8,2.8,8,8.1,8,14c0,6-3.2,11.2-8,14c0.1,0,0.2,0,0.3,0c7.8,0,14.1-6.3,14.1-14.1
		C253,154.5,246.7,148.2,238.9,148.2z"/>
	<path d="M259.9,77.8c0-6,3.2-11.2,8-14c-0.1,0-0.2,0-0.3,0c-7.8,0-14.1,6.3-14.1,14.1c0,7.6,6.3,13.9,14.1,13.9c0.1,0,0.2,0,0.3,0
		C263.1,89,259.9,83.7,259.9,77.8z"/>
	<path d="M268.2,91.8c-0.1,0-0.2,0-0.3,0c4.8,2.8,8,8.1,8,14c0,5.9-3.2,11.2-8,14c0.1,0,0.2,0,0.3,0c7.8,0,14.1-6.3,14.1-14.1
		C282.3,98.1,276,91.8,268.2,91.8z"/>
	<path d="M259.9,134.2c0-6,3.2-11.2,8-14c-0.1,0-0.2,0-0.3,0c-7.8,0-14.1,6.3-14.1,14.1s6.3,13.9,14.1,13.9c0.1,0,0.2,0,0.3,0
		C263.1,145.4,259.9,140.1,259.9,134.2z"/>
	<path d="M268.2,148.2c-0.1,0-0.2,0-0.3,0c4.8,2.8,8,8.1,8,14c0,6-3.2,11.2-8,14c0.1,0,0.2,0,0.3,0c7.8,0,14.1-6.3,14.1-14.1
		C282.3,154.5,276,148.2,268.2,148.2z"/>
	<path d="M296.9,91.8c0.1,0,0.2,0,0.3,0c-4.8-2.8-8-8.1-8-14c0-6,3.2-11.2,8-14c-0.1,0-0.2,0-0.3,0c-7.8,0-14.1,6.3-14.1,14.1
		C282.8,85.5,289.1,91.8,296.9,91.8z"/>
	<path d="M297.2,119.9c0.1,0,0.2,0,0.3,0c7.8,0,14.1-6.3,14.1-14.1s-6.3-14.1-14.1-14.1c-0.1,0-0.2,0-0.3,0c4.8,2.8,8,8.1,8,14
		C305.2,111.6,302,117.1,297.2,119.9z"/>
	<path d="M296.9,148.2c0.1,0,0.2,0,0.3,0c-4.8-2.8-8-8.1-8-14c0-6,3.2-11.2,8-14c-0.1,0-0.2,0-0.3,0c-7.8,0-14.1,6.3-14.1,14.1
		S289.1,148.2,296.9,148.2z"/>
	<path d="M305.2,162.2c0,6-3.2,11.2-8,14c0.1,0,0.2,0,0.3,0c7.8,0,14.1-6.3,14.1-14.1c0-7.6-6.3-13.9-14.1-13.9c-0.1,0-0.2,0-0.3,0
		C302,151,305.2,156.3,305.2,162.2z"/>
	<path d="M142.7,190.5c0-6.1,3.2-11.4,8-14.2c-0.1,0-0.2,0-0.3,0c-7.8,0-14.1,6.3-14.1,14.1c0,7.8,6.3,14.1,14.1,14.1
		c0.1,0,0.2,0,0.3,0C145.9,201.7,142.7,196.4,142.7,190.5z"/>
	<path d="M151,204.4c-0.1,0-0.2,0-0.3,0c4.8,2.8,8,8.1,8,14c0,6-3.2,11.2-8,14c0.1,0,0.2,0,0.3,0c7.8,0,14.1-6.3,14.1-14.1
		S158.8,204.4,151,204.4z"/>
	<path d="M150.7,232.7c-0.1,0-0.2,0-0.3,0c-5.3,0-10,2.9-12.4,7.3h6.1C145.5,236.9,147.8,234.4,150.7,232.7z"/>
	<path d="M172,190.4c0-6,3.2-11.2,8-14c-0.1,0-0.2,0-0.3,0c-7.8,0-14.1,6.3-14.1,14.1s6.3,13.9,14.1,13.9c0.1,0,0.2,0,0.3,0
		C175.2,201.6,172,196.3,172,190.4z"/>
	<path d="M180.3,204.4c-0.1,0-0.2,0-0.3,0c4.8,2.8,8,8.1,8,14c0,6-3.2,11.2-8,14c0.1,0,0.2,0,0.3,0c7.8,0,14.1-6.3,14.1-14.1
		S188.1,204.4,180.3,204.4z"/>
	<path d="M180,232.7c-0.1,0-0.2,0-0.3,0c-5.3,0-10,2.9-12.4,7.3h6.1C174.8,236.9,177.1,234.4,180,232.7z"/>
	<path d="M201.3,190.4c0-6,3.2-11.2,8-14c-0.1,0-0.2,0-0.3,0c-7.8,0-14.1,6.3-14.1,14.1s6.3,13.9,14.1,13.9c0.1,0,0.2,0,0.3,0
		C204.5,201.6,201.3,196.3,201.3,190.4z"/>
	<path d="M209.6,204.4c-0.1,0-0.2,0-0.3,0c4.8,2.8,8,8.1,8,14c0,6-3.2,11.2-8,14c0.1,0,0.2,0,0.3,0c7.8,0,14.1-6.3,14.1-14.1
		S217.4,204.4,209.6,204.4z"/>
	<path d="M209.3,232.7c-0.1,0-0.2,0-0.3,0c-5.3,0-10,2.9-12.4,7.3h6.1C204.1,236.9,206.4,234.4,209.3,232.7z"/>
	<path d="M230.6,190.4c0-6,3.2-11.2,8-14c-0.1,0-0.2,0-0.3,0c-7.8,0-14.1,6.3-14.1,14.1s6.3,13.9,14.1,13.9c0.1,0,0.2,0,0.3,0h0
		C233.8,201.6,230.6,196.3,230.6,190.4z"/>
	<path d="M238.9,204.4c-0.1,0-0.2,0-0.3,0h0c4.8,2.8,8,8.1,8,14c0,6-3.2,11.2-8,14c0.1,0,0.2,0,0.3,0c7.8,0,14.1-6.3,14.1-14.1
		S246.7,204.4,238.9,204.4z"/>
	<path d="M238.6,232.7c-0.1,0-0.2,0-0.3,0c-5.3,0-10,2.9-12.4,7.3h6.1C233.4,236.9,235.7,234.4,238.6,232.7z"/>
	<path d="M259.9,190.4c0-6,3.2-11.2,8-14c-0.1,0-0.2,0-0.3,0c-7.8,0-14.1,6.3-14.1,14.1s6.3,13.9,14.1,13.9c0.1,0,0.2,0,0.3,0
		C263.1,201.6,259.9,196.3,259.9,190.4z"/>
	<path d="M268.2,204.4c-0.1,0-0.2,0-0.3,0c4.8,2.8,8,8.1,8,14c0,6-3.2,11.2-8,14c0.1,0,0.2,0,0.3,0c7.8,0,14.1-6.3,14.1-14.1
		S276,204.4,268.2,204.4z"/>
	<path d="M267.9,232.7c-0.1,0-0.2,0-0.3,0c-5.3,0-10,2.9-12.4,7.3h6.1C262.7,236.9,265,234.4,267.9,232.7z"/>
	<path d="M289.2,190.4c0-6,3.2-11.2,8-14c-0.1,0-0.2,0-0.3,0c-7.8,0-14.1,6.3-14.1,14.1s6.3,13.9,14.1,13.9c0.1,0,0.2,0,0.3,0
		C292.4,201.6,289.2,196.3,289.2,190.4z"/>
	<path d="M297.5,204.3c-0.1,0-0.2,0-0.3,0c4.8,2.8,8,8.1,8,14c0,6.1-3.2,11.4-8,14.2c0.1,0,0.2,0,0.3,0c7.8,0,14.1-6.3,14.1-14.1
		C311.6,210.6,305.3,204.3,297.5,204.3z"/>
	<path d="M297.2,232.7c-0.1,0-0.2,0-0.3,0c-5.3,0-10,2.9-12.4,7.3h6.1C292,236.9,294.3,234.4,297.2,232.7z"/>
	<path d="M4.7,7.2c0.1,0,0.2,0,0.3,0c5.3,0,9.9-2.9,12.3-7.2h-6.1C9.8,3,7.6,5.5,4.7,7.2z"/>
	<path d="M4.7,35.6c-1.8-1.1-3.4-2.5-4.7-4.2v3.5c1.4,0.5,2.9,0.7,4.4,0.7C4.5,35.6,4.6,35.6,4.7,35.6z"/>
	<path d="M4.7,7.6c-0.1,0-0.2,0-0.3,0c-1.5,0-3,0.3-4.4,0.7v3.5C1.3,10.1,2.9,8.7,4.7,7.6z"/>
	<path d="M12.7,49.6c0,6-3.2,11.2-8,14c0.1,0,0.2,0,0.3,0c7.8,0,14.1-6.3,14.1-14.1c0-7.6-6.3-13.9-14.1-13.9c-0.1,0-0.2,0-0.3,0
		C9.5,38.4,12.7,43.7,12.7,49.6z"/>
	<path d="M34,7.2c0.1,0,0.2,0,0.3,0c5.3,0,9.9-2.9,12.3-7.2h-6.1C39.1,3,36.9,5.5,34,7.2z"/>
	<path d="M26,21.6c0-6,3.2-11.2,8-14c-0.1,0-0.2,0-0.3,0c-7.8,0-14.1,6.3-14.1,14.1c0,7.6,6.3,13.9,14.1,13.9c0.1,0,0.2,0,0.3,0
		C29.2,32.8,26,27.5,26,21.6z"/>
	<path d="M34.3,35.6c-0.1,0-0.2,0-0.3,0c4.8,2.8,8,8.1,8,14c0,6-3.2,11.2-8,14c0.1,0,0.2,0,0.3,0c7.8,0,14.1-6.3,14.1-14.1
		C48.4,41.9,42.1,35.6,34.3,35.6z"/>
	<path d="M63.3,7.2c0.1,0,0.2,0,0.3,0c5.3,0,9.9-2.9,12.3-7.2h-6.1C68.4,3,66.2,5.5,63.3,7.2z"/>
	<path d="M55.3,21.6c0-6,3.2-11.2,8-14c-0.1,0-0.2,0-0.3,0c-7.8,0-14.1,6.3-14.1,14.1c0,7.6,6.3,13.9,14.1,13.9c0.1,0,0.2,0,0.3,0
		C58.5,32.8,55.3,27.5,55.3,21.6z"/>
	<path d="M63.6,35.6c-0.1,0-0.2,0-0.3,0c4.8,2.8,8,8.1,8,14c0,6-3.2,11.2-8,14c0.1,0,0.2,0,0.3,0c7.8,0,14.1-6.3,14.1-14.1
		C77.7,41.9,71.4,35.6,63.6,35.6z"/>
	<path d="M92.6,7.2c0.1,0,0.2,0,0.3,0c5.3,0.1,10-2.9,12.4-7.2h-6.2C97.7,3,95.5,5.5,92.6,7.2z"/>
	<path d="M84.6,21.6c0-6,3.2-11.2,8-14c-0.1,0-0.2,0-0.3,0c-7.8,0-14.1,6.3-14.1,14.1c0,7.6,6.3,13.9,14.1,13.9c0.1,0,0.2,0,0.3,0h0
		C87.8,32.8,84.6,27.5,84.6,21.6z"/>
	<path d="M92.9,35.6c-0.1,0-0.2,0-0.3,0h0c4.8,2.8,8,8.1,8,14c0,6-3.2,11.2-8,14c0.1,0,0.2,0,0.3,0c7.8,0,14.1-6.3,14.1-14.1
		C107,41.9,100.7,35.6,92.9,35.6z"/>
	<path d="M121.9,7.3c0.1,0,0.2,0,0.3,0c5.3,0,10-2.9,12.4-7.3h-6.1C127.1,3.1,124.8,5.6,121.9,7.3z"/>
	<path d="M121.6,35.6c0.1,0,0.2,0,0.3,0c-4.8-2.8-8-8.1-8-14c0-6,3.2-11.2,8-14c-0.1,0-0.2,0-0.3,0c-7.8,0-14.1,6.3-14.1,14.1
		C107.5,29.3,113.8,35.6,121.6,35.6z"/>
	<path d="M129.9,49.5c0,6.1-3.2,11.4-8,14.2c0.1,0,0.2,0,0.3,0c7.8,0,14.1-6.3,14.1-14.1c0-7.8-6.3-14.1-14.1-14.1
		c-0.1,0-0.2,0-0.3,0C126.7,38.3,129.9,43.6,129.9,49.5z"/>
	<path d="M4.7,91.8c-1.8-1.1-3.4-2.5-4.7-4.2v3.5c1.4,0.5,2.9,0.7,4.4,0.7C4.5,91.8,4.6,91.8,4.7,91.8z"/>
	<path d="M4.7,63.8c-0.1,0-0.2,0-0.3,0c-1.5,0-3,0.3-4.4,0.7V68C1.3,66.3,2.9,64.9,4.7,63.8z"/>
	<path d="M12.7,105.8c0,5.9-3.2,11.2-8,14c0.1,0,0.2,0,0.3,0c7.8,0,14.1-6.3,14.1-14.1c0-7.6-6.3-13.9-14.1-13.9c-0.1,0-0.2,0-0.3,0
		C9.5,94.6,12.7,99.9,12.7,105.8z"/>
	<path d="M4.7,148.2c-1.8-1.1-3.4-2.5-4.7-4.2v3.5c1.4,0.4,2.9,0.7,4.4,0.7C4.5,148.2,4.6,148.2,4.7,148.2z"/>
	<path d="M4.7,120.2c-0.1,0-0.2,0-0.3,0c-1.5,0-3,0.3-4.4,0.7v3.5C1.3,122.7,2.9,121.3,4.7,120.2z"/>
	<path d="M12.7,162.2c0,6-3.2,11.2-8,14c0.1,0,0.2,0,0.3,0c7.8,0,14.1-6.3,14.1-14.1c0-7.6-6.3-13.9-14.1-13.9c-0.1,0-0.2,0-0.3,0
		C9.5,151,12.7,156.3,12.7,162.2z"/>
	<path d="M26,77.8c0-6,3.2-11.2,8-14c-0.1,0-0.2,0-0.3,0c-7.8,0-14.1,6.3-14.1,14.1c0,7.6,6.3,13.9,14.1,13.9c0.1,0,0.2,0,0.3,0
		C29.2,89,26,83.7,26,77.8z"/>
	<path d="M34.3,91.8c-0.1,0-0.2,0-0.3,0c4.8,2.8,8,8.1,8,14c0,5.9-3.2,11.2-8,14c0.1,0,0.2,0,0.3,0c7.8,0,14.1-6.3,14.1-14.1
		C48.4,98.1,42.1,91.8,34.3,91.8z"/>
	<path d="M26,134.2c0-6,3.2-11.2,8-14c-0.1,0-0.2,0-0.3,0c-7.8,0-14.1,6.3-14.1,14.1s6.3,13.9,14.1,13.9c0.1,0,0.2,0,0.3,0
		C29.2,145.4,26,140.1,26,134.2z"/>
	<path d="M34.3,148.2c-0.1,0-0.2,0-0.3,0c4.8,2.8,8,8.1,8,14c0,6-3.2,11.2-8,14c0.1,0,0.2,0,0.3,0c7.8,0,14.1-6.3,14.1-14.1
		C48.4,154.5,42.1,148.2,34.3,148.2z"/>
	<path d="M55.3,77.8c0-6,3.2-11.2,8-14c-0.1,0-0.2,0-0.3,0c-7.8,0-14.1,6.3-14.1,14.1c0,7.6,6.3,13.9,14.1,13.9c0.1,0,0.2,0,0.3,0
		C58.5,89,55.3,83.7,55.3,77.8z"/>
	<path d="M63.6,91.8c-0.1,0-0.2,0-0.3,0c4.8,2.8,8,8.1,8,14c0,5.9-3.2,11.2-8,14c0.1,0,0.2,0,0.3,0c7.8,0,14.1-6.3,14.1-14.1
		C77.7,98.1,71.4,91.8,63.6,91.8z"/>
	<path d="M55.3,134.2c0-6,3.2-11.2,8-14c-0.1,0-0.2,0-0.3,0c-7.8,0-14.1,6.3-14.1,14.1s6.3,13.9,14.1,13.9c0.1,0,0.2,0,0.3,0
		C58.5,145.4,55.3,140.1,55.3,134.2z"/>
	<path d="M63.6,148.2c-0.1,0-0.2,0-0.3,0c4.8,2.8,8,8.1,8,14c0,6-3.2,11.2-8,14c0.1,0,0.2,0,0.3,0c7.8,0,14.1-6.3,14.1-14.1
		C77.7,154.5,71.4,148.2,63.6,148.2z"/>
	<path d="M84.6,77.8c0-6,3.2-11.2,8-14c-0.1,0-0.2,0-0.3,0c-7.8,0-14.1,6.3-14.1,14.1c0,7.6,6.3,13.9,14.1,13.9c0.1,0,0.2,0,0.3,0h0
		C87.8,89,84.6,83.7,84.6,77.8z"/>
	<path d="M92.9,91.8c-0.1,0-0.2,0-0.3,0h0c4.8,2.8,8,8.1,8,14c0,5.9-3.2,11.2-8,14c0.1,0,0.2,0,0.3,0c7.8,0,14.1-6.3,14.1-14.1
		C107,98.1,100.7,91.8,92.9,91.8z"/>
	<path d="M84.6,134.2c0-6,3.2-11.2,8-14c-0.1,0-0.2,0-0.3,0c-7.8,0-14.1,6.3-14.1,14.1s6.3,13.9,14.1,13.9c0.1,0,0.2,0,0.3,0h0
		C87.8,145.4,84.6,140.1,84.6,134.2z"/>
	<path d="M92.9,148.2c-0.1,0-0.2,0-0.3,0h0c4.8,2.8,8,8.1,8,14c0,6-3.2,11.2-8,14c0.1,0,0.2,0,0.3,0c7.8,0,14.1-6.3,14.1-14.1
		C107,154.5,100.7,148.2,92.9,148.2z"/>
	<path d="M121.6,91.8c0.1,0,0.2,0,0.3,0c-4.8-2.8-8-8.1-8-14c0-6,3.2-11.2,8-14c-0.1,0-0.2,0-0.3,0c-7.8,0-14.1,6.3-14.1,14.1
		C107.5,85.5,113.8,91.8,121.6,91.8z"/>
	<path d="M121.9,119.9c0.1,0,0.2,0,0.3,0c7.8,0,14.1-6.3,14.1-14.1s-6.3-14.1-14.1-14.1c-0.1,0-0.2,0-0.3,0c4.8,2.8,8,8.1,8,14
		C129.9,111.6,126.7,117.1,121.9,119.9z"/>
	<path d="M121.6,148.2c0.1,0,0.2,0,0.3,0c-4.8-2.8-8-8.1-8-14c0-6,3.2-11.2,8-14c-0.1,0-0.2,0-0.3,0c-7.8,0-14.1,6.3-14.1,14.1
		S113.8,148.2,121.6,148.2z"/>
	<path d="M122,176.2c0.1,0,0.2,0,0.3,0c7.8,0,14.1-6.3,14.1-14.1c-0.1-7.6-6.4-13.9-14.1-13.9c-0.1,0-0.2,0-0.3,0
		c4.8,2.8,8,8.1,8,14C130,168.2,126.8,173.4,122,176.2z"/>
	<path d="M4.7,204.4c-1.8-1.1-3.4-2.5-4.7-4.2v3.5c1.4,0.4,2.9,0.7,4.4,0.7C4.5,204.4,4.6,204.4,4.7,204.4z"/>
	<path d="M4.7,176.4c-0.1,0-0.2,0-0.3,0c-1.5,0-3,0.3-4.4,0.7v3.5C1.3,178.9,2.9,177.5,4.7,176.4z"/>
	<path d="M12.7,218.4c0,6-3.2,11.2-8,14c0.1,0,0.2,0,0.3,0c7.8,0,14.1-6.3,14.1-14.1S12.8,204.4,5,204.4c-0.1,0-0.2,0-0.3,0
		C9.5,207.2,12.7,212.5,12.7,218.4z"/>
	<path d="M4.7,232.7c-0.1,0-0.2,0-0.3,0c-1.5,0-3,0.3-4.4,0.7v3.5C1.3,235.2,2.9,233.8,4.7,232.7z"/>
	<path d="M26,190.4c0-6,3.2-11.2,8-14c-0.1,0-0.2,0-0.3,0c-7.8,0-14.1,6.3-14.1,14.1s6.3,13.9,14.1,13.9c0.1,0,0.2,0,0.3,0
		C29.2,201.6,26,196.3,26,190.4z"/>
	<path d="M34.3,204.4c-0.1,0-0.2,0-0.3,0c4.8,2.8,8,8.1,8,14c0,6-3.2,11.2-8,14c0.1,0,0.2,0,0.3,0c7.8,0,14.1-6.3,14.1-14.1
		S42.1,204.4,34.3,204.4z"/>
	<path d="M34,232.7c-0.1,0-0.2,0-0.3,0c-5.3,0-10,2.9-12.4,7.3h6.1C28.8,236.9,31.1,234.4,34,232.7z"/>
	<path d="M55.3,190.4c0-6,3.2-11.2,8-14c-0.1,0-0.2,0-0.3,0c-7.8,0-14.1,6.3-14.1,14.1s6.3,13.9,14.1,13.9c0.1,0,0.2,0,0.3,0
		C58.5,201.6,55.3,196.3,55.3,190.4z"/>
	<path d="M63.6,204.4c-0.1,0-0.2,0-0.3,0c4.8,2.8,8,8.1,8,14c0,6-3.2,11.2-8,14c0.1,0,0.2,0,0.3,0c7.8,0,14.1-6.3,14.1-14.1
		S71.4,204.4,63.6,204.4z"/>
	<path d="M63.3,232.7c-0.1,0-0.2,0-0.3,0c-5.3,0-10,2.9-12.4,7.3h6.1C58.1,236.9,60.4,234.4,63.3,232.7z"/>
	<path d="M84.6,190.4c0-6,3.2-11.2,8-14c-0.1,0-0.2,0-0.3,0c-7.8,0-14.1,6.3-14.1,14.1s6.3,13.9,14.1,13.9c0.1,0,0.2,0,0.3,0h0
		C87.8,201.6,84.6,196.3,84.6,190.4z"/>
	<path d="M92.9,204.4c-0.1,0-0.2,0-0.3,0h0c4.8,2.8,8,8.1,8,14c0,6-3.2,11.2-8,14c0.1,0,0.2,0,0.3,0c7.8,0,14.1-6.3,14.1-14.1
		S100.7,204.4,92.9,204.4z"/>
	<path d="M92.6,232.7c-0.1,0-0.2,0-0.3,0c-5.3,0-10,2.9-12.4,7.3H86C87.4,236.9,89.7,234.4,92.6,232.7z"/>
	<path d="M113.9,190.4c0-6,3.2-11.2,8-14c-0.1,0-0.2,0-0.3,0c-7.8,0-14.1,6.3-14.1,14.1s6.3,13.9,14.1,13.9c0.1,0,0.2,0,0.3,0
		C117.1,201.6,113.9,196.3,113.9,190.4z"/>
	<path d="M122.2,204.3c-0.1,0-0.2,0-0.3,0c4.8,2.8,8,8.1,8,14c0,6.1-3.2,11.4-8,14.2c0.1,0,0.2,0,0.3,0c7.8,0,14.1-6.3,14.1-14.1
		C136.3,210.6,130,204.3,122.2,204.3z"/>
	<path d="M121.9,232.7c-0.1,0-0.2,0-0.3,0c-5.3,0-10,2.9-12.4,7.3h6.1C116.7,236.9,119,234.4,121.9,232.7z"/>
</g>

<path d="M360,240V0H0v240H360z M147,63.3c-36.9-64,102.6-64,65.7,0c36.9-64,106.7,56.9,32.8,56.9c73.9,0,4.1,120.8-32.8,56.9
	c36.9,64-102.6,64-65.7,0c-36.9,64-106.7-56.9-32.8-56.9C40.3,120.2,110.1-0.7,147,63.3z"/>
</svg>
