<svg version="1.1" id="Layer_1" xmlns="http://www.w3.org/2000/svg" xmlns:xlink="http://www.w3.org/1999/xlink" x="0px" y="0px"
	 viewBox="0 0 251 249.5" style="enable-background:new 0 0 251 249.5;" xml:space="preserve" width="251" height="249.5">
<g>
	<rect x="0.8" y="220.3" transform="matrix(0.7071 -0.7071 0.7071 0.7071 -154.6026 70.0994)" width="13" height="2.7"/>
	<rect x="4.6" y="229.6" width="26.1" height="2.7"/>
	<rect x="6" y="233.6" transform="matrix(0.7071 -0.7071 0.7071 0.7071 -167.6465 75.504)" width="2.7" height="13"/>
	<rect x="0.8" y="181.5" transform="matrix(0.7071 -0.7071 0.7071 0.7071 -127.1699 58.7366)" width="13" height="2.7"/>
	<rect x="6" y="194.8" transform="matrix(0.7072 -0.707 0.707 0.7072 -140.1969 64.1226)" width="2.7" height="13"/>
	<rect x="0.8" y="143.5" transform="matrix(0.7071 -0.7071 0.7071 0.7071 -100.2696 47.5955)" width="13" height="2.7"/>
	<rect x="6" y="156.8" transform="matrix(0.7071 -0.7071 0.7071 0.7071 -113.3111 52.9975)" width="2.7" height="13"/>
	<rect x="0.8" y="104.6" transform="matrix(0.7071 -0.7071 0.7071 0.7071 -72.7331 36.1887)" width="13" height="2.7"/>
	<rect x="6" y="117.8" transform="matrix(0.7071 -0.7071 0.7071 0.7071 -85.7754 41.5916)" width="2.7" height="13"/>
	<rect x="0.8" y="65.4" transform="matrix(0.7071 -0.7071 0.7071 0.7071 -45.0679 24.7297)" width="13" height="2.7"/>
	<rect x="6" y="78.7" transform="matrix(0.7071 -0.7071 0.7071 0.7071 -58.11 30.1324)" width="2.7" height="13"/>
	<rect x="0.8" y="26.2" transform="matrix(0.7071 -0.7071 0.7071 0.7071 -17.3466 13.2474)" width="13" height="2.7"/>
	<rect x="6" y="39.5" transform="matrix(0.7071 -0.7071 0.7071 0.7071 -30.3882 18.6497)" width="2.7" height="13"/>
	<rect x="6" y="0.7" transform="matrix(0.7071 -0.7071 0.7071 0.7071 -2.9551 7.2865)" width="2.7" height="13"/>
	<rect x="234.7" y="220.3" transform="matrix(0.7071 -0.7071 0.7071 0.7071 -86.1022 235.4826)" width="13" height="2.7"/>
	<rect x="239.9" y="233.6" transform="matrix(0.7071 -0.7071 0.7071 0.7071 -99.144 240.8826)" width="2.7" height="13"/>
	<rect x="230.6" y="237.4" width="2.7" height="12.3"/>
	<rect x="216.2" y="238.8" transform="matrix(0.7071 -0.7071 0.7071 0.7071 -104.5459 227.8423)" width="13" height="2.7"/>
	<rect x="221.4" y="215.2" transform="matrix(0.7071 -0.7071 0.7071 0.7071 -91.5045 222.4404)" width="2.7" height="13"/>
	<rect x="195.5" y="220.3" transform="matrix(0.7071 -0.7071 0.7071 0.7071 -97.5849 207.7609)" width="13" height="2.7"/>
	<rect x="199.3" y="229.6" width="26.2" height="2.7"/>
	<rect x="200.7" y="233.6" transform="matrix(0.7071 -0.7071 0.7071 0.7071 -110.6266 213.161)" width="2.7" height="13"/>
	<rect x="191.4" y="237.4" width="2.7" height="12.3"/>
	<rect x="177" y="238.8" transform="matrix(0.7071 -0.7071 0.7071 0.7071 -116.0286 200.1206)" width="13" height="2.7"/>
	<rect x="182.2" y="215.2" transform="matrix(0.7071 -0.7071 0.7071 0.7071 -102.9872 194.7186)" width="2.7" height="13"/>
	<rect x="156.6" y="220.3" transform="matrix(0.7071 -0.7071 0.7071 0.7071 -108.9751 180.2626)" width="13" height="2.7"/>
	<rect x="160.4" y="229.6" width="25.8" height="2.7"/>
	<rect x="161.8" y="233.6" transform="matrix(0.7071 -0.7071 0.7071 0.7071 -122.0199 185.6811)" width="2.7" height="13"/>
	<rect x="152.5" y="237.4" width="2.7" height="12.3"/>
	<rect x="138.1" y="238.8" transform="matrix(0.7071 -0.7071 0.7071 0.7071 -127.4188 172.6223)" width="13" height="2.7"/>
	<rect x="143.3" y="215.2" transform="matrix(0.7071 -0.7071 0.7071 0.7071 -114.3773 167.2203)" width="2.7" height="13"/>
	<rect x="117.7" y="220.3" transform="matrix(0.7071 -0.7071 0.7071 0.7071 -120.3641 152.7603)" width="13" height="2.7"/>
	<rect x="121.5" y="229.6" width="25.8" height="2.7"/>
	<rect x="122.9" y="233.6" transform="matrix(0.7071 -0.7071 0.7071 0.7071 -133.4067 158.1662)" width="2.7" height="13"/>
	<rect x="113.7" y="237.4" width="2.7" height="12.3"/>
	<rect x="99.3" y="238.8" transform="matrix(0.7071 -0.7071 0.7071 0.7071 -138.8088 145.1244)" width="13" height="2.7"/>
	<rect x="104.4" y="215.2" transform="matrix(0.7071 -0.7071 0.7071 0.7071 -125.7675 139.722)" width="2.7" height="13"/>
	<rect x="79.1" y="220.3" transform="matrix(0.7071 -0.7071 0.7071 0.7071 -131.6627 125.4898)" width="13" height="2.7"/>
	<rect x="82.9" y="229.6" width="25.5" height="2.7"/>
	<rect x="84.3" y="233.6" transform="matrix(0.7071 -0.7071 0.7071 0.7071 -144.704 130.8906)" width="2.7" height="13"/>
	<rect x="75.1" y="237.4" width="2.7" height="12.3"/>
	<rect x="60.7" y="238.8" transform="matrix(0.7071 -0.7071 0.7071 0.7071 -150.1063 117.8499)" width="13" height="2.7"/>
	<rect x="65.9" y="215.2" transform="matrix(0.7071 -0.7072 0.7072 0.7071 -137.0719 112.4604)" width="2.7" height="13"/>
	<rect x="39.9" y="220.3" transform="matrix(0.7071 -0.7071 0.7071 0.7071 -143.1454 97.7681)" width="13" height="2.7"/>
	<rect x="43.7" y="229.6" width="26.2" height="2.7"/>
	<rect x="45.1" y="233.6" transform="matrix(0.7071 -0.7071 0.7071 0.7071 -156.1866 103.169)" width="2.7" height="13"/>
	<rect x="35.9" y="237.4" width="2.7" height="12.3"/>
	<rect x="21.5" y="238.8" transform="matrix(0.7071 -0.7071 0.7071 0.7071 -161.5866 90.1251)" width="13" height="2.7"/>
	<rect x="26.7" y="215.2" transform="matrix(0.7071 -0.7072 0.7072 0.7071 -148.5568 84.7375)" width="2.7" height="13"/>
	<rect x="234.7" y="181.5" transform="matrix(0.7071 -0.7071 0.7071 0.7071 -58.6684 224.1242)" width="13" height="2.7"/>
	<rect x="239.9" y="194.8" transform="matrix(0.7072 -0.707 0.707 0.7072 -71.7152 229.4815)" width="2.7" height="13"/>
	<rect x="230.6" y="198.6" width="2.7" height="25.8"/>
	<rect x="216.2" y="200" transform="matrix(0.7071 -0.7071 0.7071 0.7071 -77.1144 216.4798)" width="13" height="2.7"/>
	<rect x="221.4" y="176.4" transform="matrix(0.7071 -0.7071 0.7071 0.7071 -64.0713 211.0771)" width="2.7" height="13"/>
	<rect x="195.5" y="181.5" transform="matrix(0.7071 -0.7071 0.7071 0.7071 -70.1517 196.3986)" width="13" height="2.7"/>
	<polygon points="225.5,193.4 225.5,190.8 217.3,190.8 212.4,190.8 199.3,190.8 199.3,193.4 212.4,193.4 217.3,193.4 	"/>
	<rect x="200.7" y="194.8" transform="matrix(0.7072 -0.707 0.707 0.7072 -83.1944 201.7633)" width="2.7" height="13"/>
	<rect x="191.4" y="198.6" width="2.7" height="25.8"/>
	<rect x="177" y="200" transform="matrix(0.7071 -0.7071 0.7071 0.7071 -88.5971 188.7581)" width="13" height="2.7"/>
	<polygon points="186.3,190.8 173.4,190.8 173.2,190.8 160.4,190.8 160.4,193.4 173.2,193.4 173.4,193.4 186.3,193.4 	"/>
	<rect x="182.2" y="176.4" transform="matrix(0.7071 -0.7071 0.7071 0.7071 -75.554 183.3555)" width="2.7" height="13"/>
	<rect x="156.6" y="181.5" transform="matrix(0.7071 -0.7071 0.7071 0.7071 -81.5419 168.9002)" width="13" height="2.7"/>
	<rect x="161.8" y="194.8" transform="matrix(0.7072 -0.7071 0.7071 0.7072 -94.5826 174.2851)" width="2.7" height="13"/>
	<rect x="152.5" y="198.6" width="2.7" height="25.8"/>
	<rect x="138.1" y="200" transform="matrix(0.7071 -0.7071 0.7071 0.7071 -99.9873 161.2598)" width="13" height="2.7"/>
	<polygon points="147.4,190.8 134.6,190.8 134.3,190.8 121.5,190.8 121.5,193.4 134.3,193.4 134.6,193.4 147.4,193.4 	"/>
	<rect x="143.3" y="176.4" transform="matrix(0.7071 -0.7071 0.7071 0.7071 -86.9442 155.8571)" width="2.7" height="13"/>
	<rect x="117.7" y="181.5" transform="matrix(0.7071 -0.7071 0.7071 0.7071 -92.9314 141.3976)" width="13" height="2.7"/>
	<rect x="122.9" y="194.8" transform="matrix(0.7072 -0.707 0.707 0.7072 -105.9675 146.7744)" width="2.7" height="13"/>
	<rect x="113.7" y="198.6" width="2.7" height="25.8"/>
	<rect x="99.3" y="200" transform="matrix(0.7071 -0.7071 0.7071 0.7071 -111.3773 133.7619)" width="13" height="2.7"/>
	<polygon points="108.5,190.8 96,190.8 95.4,190.8 82.9,190.8 82.9,193.4 95.4,193.4 96,193.4 108.5,193.4 	"/>
	<rect x="104.4" y="176.4" transform="matrix(0.7071 -0.7071 0.7071 0.7071 -98.3342 128.3582)" width="2.7" height="13"/>
	<rect x="79.1" y="181.5" transform="matrix(0.7071 -0.7071 0.7071 0.7071 -104.2295 114.1266)" width="13" height="2.7"/>
	<rect x="84.3" y="194.8" transform="matrix(0.7072 -0.707 0.707 0.7072 -117.2617 119.503)" width="2.7" height="13"/>
	<rect x="75.1" y="198.6" width="2.7" height="25.8"/>
	<rect x="60.7" y="200" transform="matrix(0.7071 -0.7071 0.7071 0.7071 -122.6747 106.4874)" width="13" height="2.7"/>
	<rect x="65.9" y="176.4" transform="matrix(0.7071 -0.7072 0.7072 0.7071 -109.6369 101.0955)" width="2.7" height="13"/>
	<rect x="39.9" y="181.5" transform="matrix(0.7071 -0.7071 0.7071 0.7071 -115.7122 86.4049)" width="13" height="2.7"/>
	<rect x="43.7" y="190.8" width="26.2" height="2.7"/>
	<rect x="45.1" y="194.8" transform="matrix(0.7072 -0.707 0.707 0.7072 -128.7409 91.7847)" width="2.7" height="13"/>
	<rect x="35.9" y="198.6" width="2.7" height="25.8"/>
	<rect x="21.5" y="200" transform="matrix(0.7071 -0.7071 0.7071 0.7071 -134.1555 78.7631)" width="13" height="2.7"/>
	<rect x="4.6" y="190.8" width="26.1" height="2.7"/>
	<rect x="26.7" y="176.4" transform="matrix(0.7071 -0.7072 0.7072 0.7071 -121.1218 73.3725)" width="2.7" height="13"/>
	<rect x="234.7" y="143.5" transform="matrix(0.7071 -0.7071 0.7071 0.7071 -31.7667 212.9761)" width="13" height="2.7"/>
	<rect x="239.9" y="156.8" transform="matrix(0.7071 -0.7071 0.7071 0.7071 -44.8085 218.3772)" width="2.7" height="13"/>
	<polygon points="230.6,172.5 230.6,173.6 230.6,185.6 233.3,185.6 233.3,173.6 233.3,172.5 233.3,160.6 230.6,160.6 	"/>
	<rect x="216.2" y="161.9" transform="matrix(0.7071 -0.7071 0.7071 0.7071 -50.2105 205.3358)" width="13" height="2.7"/>
	<rect x="221.4" y="138.3" transform="matrix(0.7071 -0.7071 0.7071 0.7071 -37.1692 199.933)" width="2.7" height="13"/>
	<rect x="195.5" y="143.5" transform="matrix(0.7071 -0.7071 0.7071 0.7071 -43.2494 185.2544)" width="13" height="2.7"/>
	<rect x="199.3" y="152.7" width="26.2" height="2.7"/>
	<rect x="200.7" y="156.8" transform="matrix(0.7071 -0.7071 0.7071 0.7071 -56.2912 190.6555)" width="2.7" height="13"/>
	<polygon points="191.4,172.5 191.4,173.6 191.4,185.6 194.1,185.6 194.1,173.6 194.1,172.5 194.1,160.6 191.4,160.6 	"/>
	<rect x="177" y="161.9" transform="matrix(0.7071 -0.7071 0.7071 0.7071 -61.6932 177.6141)" width="13" height="2.7"/>
	<rect x="160.4" y="152.7" width="25.8" height="2.7"/>
	<rect x="182.2" y="138.3" transform="matrix(0.7071 -0.7071 0.7071 0.7071 -48.6518 172.2114)" width="2.7" height="13"/>
	<rect x="156.6" y="143.5" transform="matrix(0.7071 -0.7071 0.7071 0.7071 -54.6396 157.7561)" width="13" height="2.7"/>
	<rect x="161.8" y="156.8" transform="matrix(0.7071 -0.7072 0.7072 0.7071 -67.6812 163.1721)" width="2.7" height="13"/>
	<polygon points="152.5,172.5 152.5,173.6 152.5,185.6 155.2,185.6 155.2,173.6 155.2,172.5 155.2,160.6 152.5,160.6 	"/>
	<rect x="138.1" y="161.9" transform="matrix(0.7071 -0.7071 0.7071 0.7071 -73.0833 150.1158)" width="13" height="2.7"/>
	<rect x="121.5" y="152.7" width="25.8" height="2.7"/>
	<rect x="143.3" y="138.3" transform="matrix(0.7071 -0.7071 0.7071 0.7071 -60.0419 144.7132)" width="2.7" height="13"/>
	<rect x="117.7" y="143.5" transform="matrix(0.7071 -0.7071 0.7071 0.7071 -66.0298 130.2578)" width="13" height="2.7"/>
	<rect x="122.9" y="156.8" transform="matrix(0.7071 -0.7071 0.7071 0.7071 -79.0712 135.6597)" width="2.7" height="13"/>
	<polygon points="113.7,172.5 113.7,172.5 113.7,185.6 116.3,185.6 116.3,173.6 116.3,173.6 116.3,160.6 113.7,160.6 	"/>
	<rect x="99.3" y="161.9" transform="matrix(0.7071 -0.7071 0.7071 0.7071 -84.4733 122.6179)" width="13" height="2.7"/>
	<rect x="82.9" y="152.7" width="25.5" height="2.7"/>
	<rect x="104.4" y="138.3" transform="matrix(0.7071 -0.7071 0.7071 0.7071 -71.4321 117.2155)" width="2.7" height="13"/>
	<rect x="79.1" y="143.5" transform="matrix(0.7071 -0.7071 0.7071 0.7071 -77.3279 102.9859)" width="13" height="2.7"/>
	<rect x="84.3" y="156.8" transform="matrix(0.7071 -0.7071 0.7071 0.7071 -90.3689 108.3848)" width="2.7" height="13"/>
	<polygon points="75.1,172.5 75.1,173.6 75.1,185.6 77.8,185.6 77.8,173.6 77.8,172.5 77.8,160.6 75.1,160.6 	"/>
	<rect x="60.7" y="161.9" transform="matrix(0.7071 -0.7071 0.7071 0.7071 -95.7708 95.3434)" width="13" height="2.7"/>
	<rect x="65.9" y="138.3" transform="matrix(0.7071 -0.7071 0.7071 0.7071 -82.7328 89.95)" width="2.7" height="13"/>
	<rect x="39.9" y="143.5" transform="matrix(0.7071 -0.7071 0.7071 0.7071 -88.8111 75.2638)" width="13" height="2.7"/>
	<rect x="43.7" y="152.7" width="26.2" height="2.7"/>
	<rect x="45.1" y="156.8" transform="matrix(0.7071 -0.7071 0.7071 0.7071 -101.8516 80.6631)" width="2.7" height="13"/>
	<rect x="35.9" y="160.6" width="2.7" height="25"/>
	<rect x="21.5" y="161.9" transform="matrix(0.7071 -0.7071 0.7071 0.7071 -107.252 67.6195)" width="13" height="2.7"/>
	<rect x="4.6" y="152.7" width="26.1" height="2.7"/>
	<rect x="26.7" y="138.3" transform="matrix(0.7071 -0.7072 0.7072 0.7071 -94.2174 62.227)" width="2.7" height="13"/>
	<rect x="234.7" y="104.6" transform="matrix(0.7071 -0.7071 0.7071 0.7071 -4.2313 201.5706)" width="13" height="2.7"/>
	<rect x="239.9" y="117.8" transform="matrix(0.7071 -0.7071 0.7071 0.7071 -17.2734 206.9708)" width="2.7" height="13"/>
	<polygon points="230.6,134.5 230.6,134.7 230.6,147.5 233.3,147.5 233.3,134.7 233.3,134.5 233.3,121.6 230.6,121.6 	"/>
	<rect x="216.2" y="123" transform="matrix(0.7071 -0.7071 0.7071 0.7071 -22.6739 193.9342)" width="13" height="2.7"/>
	<rect x="221.4" y="99.4" transform="matrix(0.7071 -0.7071 0.7071 0.7071 -9.6336 188.5283)" width="2.7" height="13"/>
	<rect x="195.5" y="104.6" transform="matrix(0.7071 -0.7071 0.7071 0.7071 -15.714 173.8489)" width="13" height="2.7"/>
	<polygon points="225.5,116.5 225.5,113.8 213.9,113.8 213.9,113.8 199.3,113.8 199.3,116.5 212.4,116.5 212.4,116.5 	"/>
	<rect x="200.7" y="117.8" transform="matrix(0.7071 -0.7071 0.7071 0.7071 -28.756 179.2492)" width="2.7" height="13"/>
	<polygon points="191.4,134.5 191.4,134.7 191.4,147.5 194.1,147.5 194.1,134.7 194.1,134.5 194.1,121.6 191.4,121.6 	"/>
	<rect x="177" y="123" transform="matrix(0.7071 -0.7071 0.7071 0.7071 -34.1571 166.2121)" width="13" height="2.7"/>
	<polygon points="186.3,116.5 186.3,113.8 173.4,113.8 173.4,113.8 160.4,113.8 160.4,116.5 173.2,116.5 173.2,116.5 	"/>
	<rect x="182.2" y="99.4" transform="matrix(0.7071 -0.7071 0.7071 0.7071 -21.1163 160.8066)" width="2.7" height="13"/>
	<rect x="156.6" y="104.6" transform="matrix(0.7071 -0.7071 0.7071 0.7071 -27.1042 146.3506)" width="13" height="2.7"/>
	<rect x="161.8" y="117.8" transform="matrix(0.7071 -0.7071 0.7071 0.7071 -40.1442 151.7642)" width="2.7" height="13"/>
	<polygon points="152.5,134.5 152.5,134.7 152.5,147.5 155.2,147.5 155.2,134.7 155.2,134.5 155.2,121.6 152.5,121.6 	"/>
	<rect x="138.1" y="123" transform="matrix(0.7071 -0.7071 0.7071 0.7071 -45.5477 138.7133)" width="13" height="2.7"/>
	<polygon points="147.4,116.5 147.4,113.8 134.6,113.8 134.6,113.8 121.5,113.8 121.5,116.5 134.3,116.5 134.3,116.5 	"/>
	<rect x="143.3" y="99.4" transform="matrix(0.7071 -0.7071 0.7071 0.7071 -32.5065 133.3083)" width="2.7" height="13"/>
	<rect x="117.7" y="104.6" transform="matrix(0.7071 -0.7071 0.7071 0.7071 -38.4946 118.8496)" width="13" height="2.7"/>
	<rect x="122.9" y="117.8" transform="matrix(0.7071 -0.7071 0.7071 0.7071 -51.5358 124.2536)" width="2.7" height="13"/>
	<polygon points="113.7,134.5 113.7,134.5 113.7,147.5 116.3,147.5 116.3,134.7 116.3,134.7 116.3,121.6 113.7,121.6 	"/>
	<rect x="99.3" y="123" transform="matrix(0.7071 -0.7071 0.7071 0.7071 -56.9381 111.215)" width="13" height="2.7"/>
	<polygon points="108.5,113.8 96,113.8 96,113.8 82.9,113.8 82.9,116.5 95.4,116.5 95.4,116.5 108.5,116.5 	"/>
	<rect x="104.4" y="99.4" transform="matrix(0.7071 -0.7071 0.7071 0.7071 -43.8967 105.81)" width="2.7" height="13"/>
	<rect x="79.1" y="104.6" transform="matrix(0.7071 -0.7071 0.7071 0.7071 -49.7918 91.5778)" width="13" height="2.7"/>
	<rect x="84.3" y="117.8" transform="matrix(0.7071 -0.7071 0.7071 0.7071 -62.8334 96.9788)" width="2.7" height="13"/>
	<polygon points="75.1,134.5 75.1,134.7 75.1,147.5 77.8,147.5 77.8,134.7 77.8,134.5 77.8,121.6 75.1,121.6 	"/>
	<rect x="60.7" y="123" transform="matrix(0.7071 -0.7071 0.7071 0.7071 -68.236 83.9401)" width="13" height="2.7"/>
	<rect x="65.9" y="99.4" transform="matrix(0.7071 -0.7072 0.7072 0.7071 -55.1958 78.5432)" width="2.7" height="13"/>
	<rect x="39.9" y="104.6" transform="matrix(0.7071 -0.7071 0.7071 0.7071 -61.2745 63.8561)" width="13" height="2.7"/>
	<rect x="45.1" y="117.8" transform="matrix(0.7071 -0.7071 0.7071 0.7071 -74.316 69.2572)" width="2.7" height="13"/>
	<polygon points="35.9,134.5 35.9,134.7 35.9,147.5 38.6,147.5 38.6,134.7 38.6,134.5 38.6,121.6 35.9,121.6 	"/>
	<rect x="21.5" y="123" transform="matrix(0.7071 -0.7071 0.7071 0.7071 -79.7181 56.2162)" width="13" height="2.7"/>
	<polygon points="30.7,116.5 30.7,113.8 17.7,113.8 17.7,113.8 4.6,113.8 4.6,116.5 17.7,116.5 17.7,116.5 	"/>
	<rect x="26.7" y="99.4" transform="matrix(0.7071 -0.7072 0.7072 0.7071 -66.6805 50.8201)" width="2.7" height="13"/>
	<rect x="234.7" y="65.4" transform="matrix(0.7071 -0.7071 0.7071 0.7071 23.4343 190.1111)" width="13" height="2.7"/>
	<rect x="239.9" y="78.7" transform="matrix(0.7071 -0.7071 0.7071 0.7071 10.3926 195.5122)" width="2.7" height="13"/>
	<polygon points="230.6,95.6 230.6,108.6 233.3,108.6 233.3,95.6 233.3,82.5 230.6,82.5 	"/>
	<rect x="216.2" y="83.9" transform="matrix(0.7071 -0.7071 0.7071 0.7071 4.9906 182.4708)" width="13" height="2.7"/>
	<rect x="221.4" y="60.2" transform="matrix(0.7071 -0.7071 0.7071 0.7071 18.032 177.0688)" width="2.7" height="13"/>
	<rect x="195.5" y="65.4" transform="matrix(0.7071 -0.7071 0.7071 0.7071 11.9516 162.3894)" width="13" height="2.7"/>
	<polygon points="225.5,74.6 214.5,74.6 212.4,74.6 199.3,74.6 199.3,77.3 212.4,77.3 214.5,77.3 225.5,77.3 	"/>
	<rect x="200.7" y="78.7" transform="matrix(0.7071 -0.7071 0.7071 0.7071 -1.0902 167.7905)" width="2.7" height="13"/>
	<polygon points="191.4,95.6 191.4,108.6 194.1,108.6 194.1,95.6 194.1,82.5 191.4,82.5 	"/>
	<rect x="177" y="83.9" transform="matrix(0.7071 -0.7071 0.7071 0.7071 -6.4921 154.7491)" width="13" height="2.7"/>
	<polygon points="186.3,74.6 173.4,74.6 173.2,74.6 160.4,74.6 160.4,77.3 173.2,77.3 173.4,77.3 186.3,77.3 	"/>
	<rect x="182.2" y="60.2" transform="matrix(0.7071 -0.7071 0.7071 0.7071 6.5493 149.3471)" width="2.7" height="13"/>
	<rect x="156.6" y="65.4" transform="matrix(0.7071 -0.7071 0.7071 0.7071 0.5614 134.8911)" width="13" height="2.7"/>
	<rect x="161.8" y="78.7" transform="matrix(0.7071 -0.7072 0.7072 0.7071 -12.4767 140.3036)" width="2.7" height="13"/>
	<polygon points="152.5,95.6 152.5,108.6 155.2,108.6 155.2,95.6 155.2,82.5 152.5,82.5 	"/>
	<rect x="138.1" y="83.9" transform="matrix(0.7071 -0.7071 0.7071 0.7071 -17.8823 127.2508)" width="13" height="2.7"/>
	<polygon points="147.4,74.6 134.6,74.6 134.3,74.6 121.5,74.6 121.5,77.3 134.3,77.3 134.6,77.3 147.4,77.3 	"/>
	<rect x="143.3" y="60.2" transform="matrix(0.7071 -0.7071 0.7071 0.7071 -4.8408 121.8488)" width="2.7" height="13"/>
	<rect x="117.7" y="65.4" transform="matrix(0.7071 -0.7071 0.7071 0.7071 -10.8294 107.3906)" width="13" height="2.7"/>
	<rect x="122.9" y="78.7" transform="matrix(0.7071 -0.7071 0.7071 0.7071 -23.8702 112.7947)" width="2.7" height="13"/>
	<polygon points="113.7,95.6 113.7,95.6 113.7,108.6 116.3,108.6 116.3,95.6 116.3,95.6 116.3,82.5 113.7,82.5 	"/>
	<rect x="99.3" y="83.9" transform="matrix(0.7071 -0.7071 0.7071 0.7071 -29.2723 99.7529)" width="13" height="2.7"/>
	<polygon points="108.5,74.6 96,74.6 95.4,74.6 82.9,74.6 82.9,77.3 95.4,77.3 96,77.3 108.5,77.3 	"/>
	<rect x="104.4" y="60.2" transform="matrix(0.7071 -0.7071 0.7071 0.7071 -16.231 94.3505)" width="2.7" height="13"/>
	<rect x="79.1" y="65.4" transform="matrix(0.7071 -0.7071 0.7071 0.7071 -22.1262 80.1183)" width="13" height="2.7"/>
	<rect x="84.3" y="78.7" transform="matrix(0.7071 -0.7071 0.7071 0.7071 -35.1678 85.5198)" width="2.7" height="13"/>
	<polygon points="75.1,95.6 75.1,108.6 77.8,108.6 77.8,95.6 77.8,82.5 75.1,82.5 	"/>
	<rect x="60.7" y="83.9" transform="matrix(0.7071 -0.7071 0.7071 0.7071 -40.5697 72.4784)" width="13" height="2.7"/>
	<rect x="65.9" y="60.2" transform="matrix(0.7071 -0.7072 0.7072 0.7071 -27.5285 67.082)" width="2.7" height="13"/>
	<rect x="39.9" y="65.4" transform="matrix(0.7071 -0.7071 0.7071 0.7071 -33.6089 52.3966)" width="13" height="2.7"/>
	<rect x="45.1" y="78.7" transform="matrix(0.7071 -0.7071 0.7071 0.7071 -46.6505 57.7981)" width="2.7" height="13"/>
	<polygon points="35.9,95.6 35.9,108.6 38.6,108.6 38.6,95.6 38.6,82.5 35.9,82.5 	"/>
	<rect x="21.5" y="83.9" transform="matrix(0.7071 -0.7071 0.7071 0.7071 -52.0518 44.7554)" width="13" height="2.7"/>
	<polygon points="30.7,74.6 17.7,74.6 4.6,74.6 4.6,77.3 17.7,77.3 30.7,77.3 	"/>
	<rect x="26.7" y="60.2" transform="matrix(0.7071 -0.7072 0.7072 0.7071 -39.013 39.3587)" width="2.7" height="13"/>
	<rect x="234.7" y="26.2" transform="matrix(0.7071 -0.7071 0.7071 0.7071 51.1561 178.6284)" width="13" height="2.7"/>
	<rect x="239.9" y="39.5" transform="matrix(0.7071 -0.7071 0.7071 0.7071 38.1143 184.0295)" width="2.7" height="13"/>
	<rect x="216.2" y="44.7" transform="matrix(0.7071 -0.7071 0.7071 0.7071 32.7124 170.9881)" width="13" height="2.7"/>
	<rect x="221.4" y="21" transform="matrix(0.7071 -0.7071 0.7071 0.7071 45.7538 165.5861)" width="2.7" height="13"/>
	<rect x="195.5" y="26.2" transform="matrix(0.7071 -0.7071 0.7071 0.7071 39.6734 150.9067)" width="13" height="2.7"/>
	<polygon points="199.3,35.4 199.3,38.1 212.4,38.1 212.4,38.1 225.5,38.1 225.5,35.4 213.6,35.4 213.6,35.4 	"/>
	<rect x="200.7" y="39.5" transform="matrix(0.7071 -0.7071 0.7071 0.7071 26.6316 156.3078)" width="2.7" height="13"/>
	<rect x="177" y="44.7" transform="matrix(0.7071 -0.7071 0.7071 0.7071 21.2297 143.2664)" width="13" height="2.7"/>
	<polygon points="160.4,35.4 160.4,38.1 173.2,38.1 173.2,38.1 186.3,38.1 186.3,35.4 173.4,35.4 173.4,35.4 	"/>
	<rect x="182.2" y="21" transform="matrix(0.7071 -0.7071 0.7071 0.7071 34.2711 137.8644)" width="2.7" height="13"/>
	<rect x="156.6" y="26.2" transform="matrix(0.7071 -0.7071 0.7071 0.7071 28.2832 123.4083)" width="13" height="2.7"/>
	<rect x="161.8" y="39.5" transform="matrix(0.7071 -0.7072 0.7072 0.7071 15.2468 128.8192)" width="2.7" height="13"/>
	<rect x="138.1" y="44.7" transform="matrix(0.7071 -0.7071 0.7071 0.7071 9.8395 115.768)" width="13" height="2.7"/>
	<polygon points="121.5,35.4 121.5,38.1 134.3,38.1 134.3,38.1 147.4,38.1 147.4,35.4 134.6,35.4 134.6,35.4 	"/>
	<rect x="143.3" y="21" transform="matrix(0.7071 -0.7071 0.7071 0.7071 22.8809 110.3661)" width="2.7" height="13"/>
	<rect x="117.7" y="26.2" transform="matrix(0.7071 -0.7071 0.7071 0.7071 16.8919 95.9083)" width="13" height="2.7"/>
	<rect x="122.9" y="39.5" transform="matrix(0.7071 -0.7071 0.7071 0.7071 3.8516 101.312)" width="2.7" height="13"/>
	<rect x="99.3" y="44.7" transform="matrix(0.7071 -0.7071 0.7071 0.7071 -1.5505 88.2701)" width="13" height="2.7"/>
	<polygon points="82.9,35.4 82.9,38.1 95.4,38.1 95.4,38.1 108.5,38.1 108.5,35.4 96,35.4 96,35.4 	"/>
	<rect x="104.4" y="21" transform="matrix(0.7071 -0.7071 0.7071 0.7071 11.4907 82.8678)" width="2.7" height="13"/>
	<rect x="79.1" y="26.2" transform="matrix(0.7071 -0.7071 0.7071 0.7071 5.5955 68.6356)" width="13" height="2.7"/>
	<rect x="84.3" y="39.5" transform="matrix(0.7071 -0.7071 0.7071 0.7071 -7.446 74.0371)" width="2.7" height="13"/>
	<rect x="60.7" y="44.7" transform="matrix(0.7071 -0.7071 0.7071 0.7071 -12.848 60.9957)" width="13" height="2.7"/>
	<rect x="65.9" y="21" transform="matrix(0.7071 -0.7072 0.7072 0.7071 0.195 55.5975)" width="2.7" height="13"/>
	<rect x="39.9" y="26.2" transform="matrix(0.7071 -0.7071 0.7071 0.7071 -5.8872 40.9139)" width="13" height="2.7"/>
	<polygon points="69.9,116.5 69.9,113.8 59.8,113.8 59.8,113.8 43.7,113.8 43.7,116.5 56.9,116.5 56.9,116.5 	"/>
	<polygon points="69.9,74.6 59.8,74.6 56.9,74.6 43.7,74.6 43.7,77.3 56.9,77.3 59.8,77.3 69.9,77.3 	"/>
	<polygon points="43.7,35.4 43.7,38.1 56.9,38.1 56.9,38.1 69.9,38.1 69.9,35.4 59.8,35.4 59.8,35.4 	"/>
	<rect x="45.1" y="39.5" transform="matrix(0.7071 -0.7071 0.7071 0.7071 -18.9288 46.3154)" width="2.7" height="13"/>
	<polygon points="230.6,56.4 230.6,57 230.6,69.5 233.3,69.5 233.3,57 233.3,56.4 233.3,43.3 230.6,43.3 	"/>
	<polygon points="191.4,56.4 191.4,57 191.4,69.5 194.1,69.5 194.1,57 194.1,56.4 194.1,43.3 191.4,43.3 	"/>
	<polygon points="152.5,56.4 152.5,57 152.5,69.5 155.2,69.5 155.2,57 155.2,56.4 155.2,43.3 152.5,43.3 	"/>
	<polygon points="113.7,56.4 113.7,56.4 113.7,69.5 116.3,69.5 116.3,57 116.3,57 116.3,43.3 113.7,43.3 	"/>
	<polygon points="75.1,56.4 75.1,57 75.1,69.5 77.8,69.5 77.8,57 77.8,56.4 77.8,43.3 75.1,43.3 	"/>
	<polygon points="35.9,56.4 35.9,57 35.9,69.5 38.6,69.5 38.6,57 38.6,56.4 38.6,43.3 35.9,43.3 	"/>
	<rect x="21.5" y="44.7" transform="matrix(0.7071 -0.7071 0.7071 0.7071 -24.3305 33.2731)" width="13" height="2.7"/>
	<polygon points="4.6,35.4 4.6,38.1 17.7,38.1 17.7,38.1 30.7,38.1 30.7,35.4 17.7,35.4 17.7,35.4 	"/>
	<rect x="26.7" y="21" transform="matrix(0.7071 -0.7072 0.7072 0.7071 -11.2894 27.8742)" width="2.7" height="13"/>
	<rect x="239.9" y="0.7" transform="matrix(0.7071 -0.7071 0.7071 0.7071 65.5475 172.6663)" width="2.7" height="13"/>
	<rect x="230.6" y="4.5" width="2.7" height="25.8"/>
	<rect x="216.2" y="5.9" transform="matrix(0.7071 -0.7071 0.7071 0.7071 60.1447 159.6252)" width="13" height="2.7"/>
	<rect x="200.7" y="0.7" transform="matrix(0.7071 -0.7071 0.7071 0.7071 54.0648 144.9446)" width="2.7" height="13"/>
	<polygon points="191.4,17.2 191.4,17.6 191.4,30.3 194.1,30.3 194.1,17.6 194.1,17.2 194.1,4.5 191.4,4.5 	"/>
	<rect x="177" y="5.9" transform="matrix(0.7071 -0.7071 0.7071 0.7071 48.662 131.9035)" width="13" height="2.7"/>
	<rect x="161.8" y="0.7" transform="matrix(0.7071 -0.7072 0.7072 0.7071 42.6817 117.4542)" width="2.7" height="13"/>
	<polygon points="152.5,17.2 152.5,17.6 152.5,30.3 155.2,30.3 155.2,17.6 155.2,17.2 155.2,4.5 152.5,4.5 	"/>
	<rect x="138.1" y="5.9" transform="matrix(0.7071 -0.7071 0.7071 0.7071 37.2718 104.4052)" width="13" height="2.7"/>
	<rect x="122.9" y="0.7" transform="matrix(0.7071 -0.7071 0.7071 0.7071 31.2848 89.9488)" width="2.7" height="13"/>
	<polygon points="113.7,17.2 113.7,17.2 113.7,30.3 116.3,30.3 116.3,17.6 116.3,17.6 116.3,4.5 113.7,4.5 	"/>
	<rect x="99.3" y="5.9" transform="matrix(0.7071 -0.7071 0.7071 0.7071 25.8818 76.9073)" width="13" height="2.7"/>
	<rect x="84.3" y="0.7" transform="matrix(0.7071 -0.7071 0.7071 0.7071 19.9871 62.6739)" width="2.7" height="13"/>
	<polygon points="75.1,17.2 75.1,17.6 75.1,30.3 77.8,30.3 77.8,17.6 77.8,17.2 77.8,4.5 75.1,4.5 	"/>
	<rect x="60.7" y="5.9" transform="matrix(0.7071 -0.7071 0.7071 0.7071 14.5843 49.6328)" width="13" height="2.7"/>
	<rect x="45.1" y="0.7" transform="matrix(0.7071 -0.7071 0.7071 0.7071 8.5044 34.9522)" width="2.7" height="13"/>
	<polygon points="35.9,17.2 35.9,17.6 35.9,30.3 38.6,30.3 38.6,17.6 38.6,17.2 38.6,4.5 35.9,4.5 	"/>
	<rect x="21.5" y="5.9" transform="matrix(0.7071 -0.7071 0.7071 0.7071 3.1014 21.9107)" width="13" height="2.7"/>
	<rect x="238.5" y="229.6" width="12" height="2.7"/>
	<rect x="238.5" y="190.8" width="12" height="2.7"/>
	<rect x="238.5" y="152.7" width="12" height="2.7"/>
	<rect x="238.5" y="113.8" width="12" height="2.7"/>
	<rect x="238.5" y="74.6" width="12" height="2.7"/>
	<rect x="238.5" y="35.4" width="12" height="2.7"/>
</g>
</svg>
