<?xml version="1.0" encoding="utf-8"?>
<!-- Generator: Adobe Illustrator 28.0.0, SVG Export Plug-In . SVG Version: 6.00 Build 0)  -->
<svg version="1.1" id="Layer_1" xmlns="http://www.w3.org/2000/svg" xmlns:xlink="http://www.w3.org/1999/xlink" x="0px" y="0px"
	 viewBox="0 0 218 219.5" style="enable-background:new 0 0 218 219.5;" xml:space="preserve" width="218" height="219">
<style type="text/css">
	.st0{fill:#FFFFFF;}
</style>
<g id="XMLID_00000173844906708019018940000016632135018755607483_">
	<g id="XMLID_00000160871600074464425230000014174372866273873572_">
		<polygon id="XMLID_00000152963628829314447630000002863004634072719037_" points="218,109.8 193,126.5 209.7,151.5 180.2,157.3 
			186.1,186.8 156.6,181 150.7,210.5 125.7,193.8 109,218.7 92.3,193.8 67.3,210.5 61.4,181 31.9,186.8 37.8,157.3 8.3,151.5 
			25,126.5 0,109.8 25,93 8.3,68 37.8,62.2 31.9,32.7 61.4,38.5 67.3,9 92.3,25.7 109,0.8 125.7,25.7 150.7,9 156.6,38.5 
			186.1,32.7 180.2,62.2 209.7,68 193,93 		"/>
	</g>
</g>
<g>
	<polygon class="st0" points="9.3,103.5 0,109.8 1.9,111 9.3,103.6 	"/>
	<polygon class="st0" points="25.2,138 11.2,152.1 15.5,152.9 27.8,140.6 	"/>
	<polygon class="st0" points="25.2,119.5 21,123.8 24.1,125.9 27.8,122.1 	"/>
	<polygon class="st0" points="25.2,101 10.3,115.9 12.4,118 13,118.4 27.8,103.6 	"/>
	<polygon class="st0" points="25.2,82.4 20.9,86.8 22.9,90 27.8,85 	"/>
	<polygon class="st0" points="25.8,64.5 24.3,64.8 13.4,75.7 15.5,78.9 27.8,66.5 	"/>
	<polygon class="st0" points="43.8,175 32,186.8 38.5,185.5 46.4,177.6 	"/>
	<polygon class="st0" points="43.8,156.5 36.5,163.8 35.2,170.3 46.4,159.1 	"/>
	<rect x="27" y="145" transform="matrix(0.7071 -0.7071 0.7071 0.7071 -92.7892 69.5645)" class="st0" width="21.2" height="3.7"/>
	
		<rect x="27" y="126.4" transform="matrix(0.7071 -0.7071 0.7071 0.7071 -79.6936 64.1401)" class="st0" width="21.2" height="3.7"/>
	<rect x="27" y="107.9" transform="matrix(0.7071 -0.7071 0.7071 0.7071 -66.598 58.7158)" class="st0" width="21.2" height="3.7"/>
	<rect x="27" y="89.4" transform="matrix(0.7071 -0.7071 0.7071 0.7071 -53.5033 53.2917)" class="st0" width="21.2" height="3.7"/>
	<rect x="27" y="70.9" transform="matrix(0.7071 -0.7071 0.7071 0.7071 -40.4076 47.8673)" class="st0" width="21.2" height="3.7"/>
	<polygon class="st0" points="43.8,45.4 36,53.2 36.9,57.5 46.4,48 	"/>
	<polygon class="st0" points="37,33.7 32.9,37.7 33.8,42.1 41.3,34.5 	"/>
	<polygon class="st0" points="64.3,195.6 64.5,196.5 64.9,196.2 	"/>
	<polygon class="st0" points="62.3,175 55.1,182.2 61.4,181 61.4,181.1 64.9,177.6 	"/>
	
		<rect x="45.5" y="163.5" transform="matrix(0.7071 -0.7071 0.7071 0.7071 -100.4605 88.0845)" class="st0" width="21.2" height="3.7"/>
	
		<rect x="45.5" y="145" transform="matrix(0.7071 -0.7071 0.7071 0.7071 -87.3649 82.6601)" class="st0" width="21.2" height="3.7"/>
	
		<rect x="45.5" y="126.4" transform="matrix(0.7071 -0.7071 0.7071 0.7071 -74.2692 77.2358)" class="st0" width="21.2" height="3.7"/>
	
		<rect x="45.5" y="107.9" transform="matrix(0.7071 -0.7071 0.7071 0.7071 -61.1736 71.8114)" class="st0" width="21.2" height="3.7"/>
	
		<rect x="45.5" y="89.4" transform="matrix(0.7071 -0.7071 0.7071 0.7071 -48.0789 66.3874)" class="st0" width="21.2" height="3.7"/>
	
		<rect x="45.5" y="70.9" transform="matrix(0.7071 -0.7071 0.7071 0.7071 -34.9832 60.963)" class="st0" width="21.2" height="3.7"/>
	
		<rect x="45.5" y="52.4" transform="matrix(0.7071 -0.7071 0.7071 0.7071 -21.8877 55.5386)" class="st0" width="21.2" height="3.7"/>
	<polygon class="st0" points="63.5,28.1 62.8,31.6 64.9,29.5 	"/>
	<polygon class="st0" points="49.9,44.5 56.8,37.6 52.4,36.7 47.3,41.9 	"/>
	<polygon class="st0" points="80.8,193.6 66.7,207.7 67.1,209.8 67.6,210.3 72.7,206.8 83.4,196.2 	"/>
	
		<rect x="64" y="182" transform="matrix(0.7071 -0.7071 0.7071 0.7071 -108.1319 106.6041)" class="st0" width="21.2" height="3.7"/>
	
		<rect x="64" y="163.5" transform="matrix(0.7071 -0.7071 0.7071 0.7071 -95.0363 101.1797)" class="st0" width="21.2" height="3.7"/>
	<rect x="64" y="145" transform="matrix(0.7071 -0.7071 0.7071 0.7071 -81.9407 95.7553)" class="st0" width="21.2" height="3.7"/>
	<rect x="64" y="126.4" transform="matrix(0.7071 -0.7071 0.7071 0.7071 -68.845 90.3309)" class="st0" width="21.2" height="3.7"/>
	
		<rect x="64" y="107.9" transform="matrix(0.7071 -0.7071 0.7071 0.7071 -55.7494 84.9066)" class="st0" width="21.2" height="3.7"/>
	<rect x="64" y="89.4" transform="matrix(0.7071 -0.7071 0.7071 0.7071 -42.6547 79.4825)" class="st0" width="21.2" height="3.7"/>
	<rect x="64" y="70.9" transform="matrix(0.7071 -0.7071 0.7071 0.7071 -29.559 74.0582)" class="st0" width="21.2" height="3.7"/>
	<rect x="64" y="52.4" transform="matrix(0.7071 -0.7071 0.7071 0.7071 -16.4635 68.6338)" class="st0" width="21.2" height="3.7"/>
	<rect x="64" y="33.8" transform="matrix(0.7071 -0.7071 0.7071 0.7071 -3.3678 63.2094)" class="st0" width="21.2" height="3.7"/>
	<polygon class="st0" points="68.4,25.9 78.1,16.3 75,14.2 65.8,23.3 	"/>
	<polygon class="st0" points="99.3,193.6 95,197.9 97.1,201 101.9,196.2 	"/>
	
		<rect x="82.6" y="182" transform="matrix(0.7071 -0.7071 0.7071 0.7071 -102.7075 119.6997)" class="st0" width="21.2" height="3.7"/>
	
		<rect x="82.6" y="163.5" transform="matrix(0.7071 -0.7071 0.7071 0.7071 -89.6119 114.2753)" class="st0" width="21.2" height="3.7"/>
	
		<rect x="82.6" y="145" transform="matrix(0.7071 -0.7071 0.7071 0.7071 -76.5163 108.8509)" class="st0" width="21.2" height="3.7"/>
	
		<rect x="82.6" y="126.4" transform="matrix(0.7071 -0.7071 0.7071 0.7071 -63.4207 103.4266)" class="st0" width="21.2" height="3.7"/>
	
		<rect x="82.6" y="107.9" transform="matrix(0.7071 -0.7071 0.7071 0.7071 -50.3251 98.0022)" class="st0" width="21.2" height="3.7"/>
	
		<rect x="82.6" y="89.4" transform="matrix(0.7071 -0.7071 0.7071 0.7071 -37.2303 92.5781)" class="st0" width="21.2" height="3.7"/>
	
		<rect x="82.6" y="70.9" transform="matrix(0.7071 -0.7071 0.7071 0.7071 -24.1347 87.1538)" class="st0" width="21.2" height="3.7"/>
	
		<rect x="82.6" y="52.4" transform="matrix(0.7071 -0.7071 0.7071 0.7071 -11.0391 81.7294)" class="st0" width="21.2" height="3.7"/>
	<rect x="82.6" y="33.8" transform="matrix(0.7071 -0.7071 0.7071 0.7071 2.0566 76.305)" class="st0" width="21.2" height="3.7"/>
	<polygon class="st0" points="87,25.9 89.2,23.7 86.1,21.6 84.4,23.3 	"/>
	
		<rect x="101.1" y="200.5" transform="matrix(0.7071 -0.7071 0.7071 0.7071 -110.3788 138.2197)" class="st0" width="21.2" height="3.7"/>
	
		<rect x="101.1" y="182" transform="matrix(0.7071 -0.7071 0.7071 0.7071 -97.2831 132.7953)" class="st0" width="21.2" height="3.7"/>
	
		<rect x="101.1" y="163.5" transform="matrix(0.7071 -0.7071 0.7071 0.7071 -84.1875 127.3709)" class="st0" width="21.2" height="3.7"/>
	
		<rect x="101.1" y="145" transform="matrix(0.7071 -0.7071 0.7071 0.7071 -71.0919 121.9465)" class="st0" width="21.2" height="3.7"/>
	
		<rect x="101.1" y="126.4" transform="matrix(0.7071 -0.7071 0.7071 0.7071 -57.9963 116.5222)" class="st0" width="21.2" height="3.7"/>
	
		<rect x="101.1" y="107.9" transform="matrix(0.7071 -0.7071 0.7071 0.7071 -44.9007 111.0978)" class="st0" width="21.2" height="3.7"/>
	
		<rect x="101.1" y="89.4" transform="matrix(0.7071 -0.7071 0.7071 0.7071 -31.8059 105.6738)" class="st0" width="21.2" height="3.7"/>
	
		<rect x="101.1" y="70.9" transform="matrix(0.7071 -0.7071 0.7071 0.7071 -18.7103 100.2494)" class="st0" width="21.2" height="3.7"/>
	
		<rect x="101.1" y="52.4" transform="matrix(0.7071 -0.7071 0.7071 0.7071 -5.6147 94.825)" class="st0" width="21.2" height="3.7"/>
	
		<rect x="101.1" y="33.8" transform="matrix(0.7071 -0.7071 0.7071 0.7071 7.4809 89.4006)" class="st0" width="21.2" height="3.7"/>
	<polygon class="st0" points="105.5,25.9 117.7,13.7 115.6,10.6 102.9,23.3 	"/>
	<polygon class="st0" points="110.3,2.6 109,0.8 104.9,6.9 105.5,7.4 	"/>
	<polygon class="st0" points="136.4,193.6 132,197.9 135.1,200 139,196.2 	"/>
	
		<rect x="119.6" y="182" transform="matrix(0.7071 -0.7071 0.7071 0.7071 -91.8587 145.8909)" class="st0" width="21.2" height="3.7"/>
	
		<rect x="119.6" y="163.5" transform="matrix(0.7071 -0.7071 0.7071 0.7071 -78.7631 140.4666)" class="st0" width="21.2" height="3.7"/>
	
		<rect x="119.6" y="145" transform="matrix(0.7071 -0.7071 0.7071 0.7071 -65.6675 135.0422)" class="st0" width="21.2" height="3.7"/>
	
		<rect x="119.6" y="126.4" transform="matrix(0.7071 -0.7071 0.7071 0.7071 -52.5719 129.6178)" class="st0" width="21.2" height="3.7"/>
	
		<rect x="119.6" y="107.9" transform="matrix(0.7071 -0.7071 0.7071 0.7071 -39.4763 124.1934)" class="st0" width="21.2" height="3.7"/>
	
		<rect x="119.6" y="89.4" transform="matrix(0.7071 -0.7071 0.7071 0.7071 -26.3815 118.7694)" class="st0" width="21.2" height="3.7"/>
	
		<rect x="119.6" y="70.9" transform="matrix(0.7071 -0.7071 0.7071 0.7071 -13.2859 113.345)" class="st0" width="21.2" height="3.7"/>
	
		<rect x="119.6" y="52.4" transform="matrix(0.7071 -0.7071 0.7071 0.7071 -0.1903 107.9206)" class="st0" width="21.2" height="3.7"/>
	
		<rect x="119.6" y="33.8" transform="matrix(0.7071 -0.7071 0.7071 0.7071 12.9053 102.4962)" class="st0" width="21.2" height="3.7"/>
	<polygon class="st0" points="124,25.9 125.1,24.8 123,21.7 121.4,23.3 	"/>
	<polygon class="st0" points="146.2,207.4 152.6,201 153.9,194.6 143.1,205.4 	"/>
	
		<rect x="138.1" y="182" transform="matrix(0.7071 -0.7071 0.7071 0.7071 -86.4346 158.9861)" class="st0" width="21.2" height="3.7"/>
	
		<rect x="138.1" y="163.5" transform="matrix(0.7071 -0.7071 0.7071 0.7071 -73.3389 153.5617)" class="st0" width="21.2" height="3.7"/>
	
		<rect x="138.1" y="145" transform="matrix(0.7071 -0.7071 0.7071 0.7071 -60.2433 148.1374)" class="st0" width="21.2" height="3.7"/>
	
		<rect x="138.1" y="126.4" transform="matrix(0.7071 -0.7071 0.7071 0.7071 -47.1477 142.713)" class="st0" width="21.2" height="3.7"/>
	
		<rect x="138.1" y="107.9" transform="matrix(0.7071 -0.7071 0.7071 0.7071 -34.0521 137.2886)" class="st0" width="21.2" height="3.7"/>
	
		<rect x="138.1" y="89.4" transform="matrix(0.7071 -0.7071 0.7071 0.7071 -20.9573 131.8646)" class="st0" width="21.2" height="3.7"/>
	
		<rect x="138.1" y="70.9" transform="matrix(0.7071 -0.7071 0.7071 0.7071 -7.8617 126.4402)" class="st0" width="21.2" height="3.7"/>
	
		<rect x="138.1" y="52.4" transform="matrix(0.7071 -0.7071 0.7071 0.7071 5.2339 121.0158)" class="st0" width="21.2" height="3.7"/>
	<polygon class="st0" points="142.5,44.5 155.2,31.7 154.4,27.4 139.9,41.9 	"/>
	<polygon class="st0" points="142.5,25.9 152.2,16.3 151.3,11.9 139.9,23.3 	"/>
	<polygon class="st0" points="173.4,175 165.7,182.8 170,183.6 176,177.6 	"/>
	
		<rect x="156.6" y="163.5" transform="matrix(0.7071 -0.7071 0.7071 0.7071 -67.9145 166.6574)" class="st0" width="21.2" height="3.7"/>
	
		<rect x="156.6" y="145" transform="matrix(0.7071 -0.7071 0.7071 0.7071 -54.8189 161.233)" class="st0" width="21.2" height="3.7"/>
	
		<rect x="156.6" y="126.4" transform="matrix(0.7071 -0.7071 0.7071 0.7071 -41.7233 155.8086)" class="st0" width="21.2" height="3.7"/>
	
		<rect x="156.6" y="107.9" transform="matrix(0.7071 -0.7071 0.7071 0.7071 -28.6277 150.3842)" class="st0" width="21.2" height="3.7"/>
	
		<rect x="156.6" y="89.4" transform="matrix(0.7071 -0.7071 0.7071 0.7071 -15.5329 144.9602)" class="st0" width="21.2" height="3.7"/>
	
		<rect x="156.6" y="70.9" transform="matrix(0.7071 -0.7071 0.7071 0.7071 -2.4373 139.5358)" class="st0" width="21.2" height="3.7"/>
	
		<rect x="156.6" y="52.4" transform="matrix(0.7071 -0.7071 0.7071 0.7071 10.6583 134.1115)" class="st0" width="21.2" height="3.7"/>
	<polygon class="st0" points="161,44.5 169.5,36 163,37.2 158.4,41.9 	"/>
	<polygon class="st0" points="185.5,186.7 186,186.2 185.1,181.9 181.1,185.8 	"/>
	<polygon class="st0" points="179.6,174.1 182.9,170.8 182,166.4 177,171.5 	"/>
	
		<rect x="175.2" y="145" transform="matrix(0.7071 -0.7071 0.7071 0.7071 -49.3946 174.3286)" class="st0" width="21.2" height="3.7"/>
	
		<rect x="175.2" y="126.4" transform="matrix(0.7071 -0.7071 0.7071 0.7071 -36.2989 168.9042)" class="st0" width="21.2" height="3.7"/>
	
		<rect x="175.2" y="107.9" transform="matrix(0.7071 -0.7071 0.7071 0.7071 -23.2033 163.4798)" class="st0" width="21.2" height="3.7"/>
	
		<rect x="175.2" y="89.4" transform="matrix(0.7071 -0.7071 0.7071 0.7071 -10.1086 158.0558)" class="st0" width="21.2" height="3.7"/>
	<polygon class="st0" points="179.6,81.5 194.5,66.5 192.6,64.6 191.4,64.4 177,78.9 	"/>
	<polygon class="st0" points="179.6,63 180.3,62.2 180.2,62.2 181.5,55.8 177,60.4 	"/>
	<polygon class="st0" points="179.6,44.5 184.8,39.2 186.1,32.7 177,41.9 	"/>
	<polygon class="st0" points="196.6,154.1 200.3,153.3 206.7,146.9 204.6,143.8 195.5,153 	"/>
	<polygon class="st0" points="198.1,137.1 199.3,135.8 197.2,132.7 195.5,134.5 	"/>
	<polygon class="st0" points="198.1,118.5 211.3,105.3 208.2,103.2 195.5,115.9 	"/>
	<polygon class="st0" points="198.1,100 200.2,97.9 197.1,95.8 195.5,97.4 	"/>
	<polygon class="st0" points="198.1,81.5 206.1,73.5 209.7,68 206.9,67.5 195.5,78.9 	"/>
</g>
</svg>
