<?xml version="1.0" encoding="utf-8"?>
<!-- Generator: Adobe Illustrator 28.0.0, SVG Export Plug-In . SVG Version: 6.00 Build 0)  -->
<svg version="1.1" id="Layer_1" xmlns="http://www.w3.org/2000/svg" xmlns:xlink="http://www.w3.org/1999/xlink" x="0px" y="0px"
	 viewBox="0 0 200 200" style="enable-background:new 0 0 200 200;" xml:space="preserve">
<g>
	<path d="M9.7,191c-2.2,0-4,1.8-4,4c0,2.2,1.8,4,4,4c2.2,0,4-1.8,4-4C13.7,192.8,11.9,191,9.7,191z"/>
	<path d="M9.7,153c-2.2,0-4,1.8-4,4c0,2.2,1.8,4,4,4c2.2,0,4-1.8,4-4C13.7,154.8,11.9,153,9.7,153z"/>
	<path d="M0.2,172c-2.2,0-4,1.8-4,4s1.8,4,4,4c2.2,0,4-1.8,4-4S2.4,172,0.2,172z"/>
	<path d="M19.2,172c-2.2,0-4,1.8-4,4s1.8,4,4,4c2.2,0,4-1.8,4-4S21.4,172,19.2,172z"/>
	<path d="M9.7,115c-2.2,0-4,1.8-4,4c0,2.2,1.8,4,4,4c2.2,0,4-1.8,4-4C13.7,116.8,11.9,115,9.7,115z"/>
	<path d="M0.2,134c-2.2,0-4,1.8-4,4c0,2.2,1.8,4,4,4c2.2,0,4-1.8,4-4C4.2,135.8,2.4,134,0.2,134z"/>
	<path d="M19.2,134c-2.2,0-4,1.8-4,4c0,2.2,1.8,4,4,4c2.2,0,4-1.8,4-4C23.2,135.8,21.4,134,19.2,134z"/>
	<path d="M9.7,77c-2.2,0-4,1.8-4,4c0,2.2,1.8,4,4,4c2.2,0,4-1.8,4-4C13.7,78.8,11.9,77,9.7,77z"/>
	<path d="M0.2,96c-2.2,0-4,1.8-4,4c0,2.2,1.8,4,4,4c2.2,0,4-1.8,4-4C4.2,97.8,2.4,96,0.2,96z"/>
	<path d="M19.2,96c-2.2,0-4,1.8-4,4c0,2.2,1.8,4,4,4c2.2,0,4-1.8,4-4C23.2,97.8,21.4,96,19.2,96z"/>
	<path d="M9.7,39c-2.2,0-4,1.8-4,4s1.8,4,4,4c2.2,0,4-1.8,4-4S11.9,39,9.7,39z"/>
	<path d="M0.2,58c-2.2,0-4,1.8-4,4c0,2.2,1.8,4,4,4c2.2,0,4-1.8,4-4C4.2,59.8,2.4,58,0.2,58z"/>
	<path d="M19.2,58c-2.2,0-4,1.8-4,4c0,2.2,1.8,4,4,4c2.2,0,4-1.8,4-4C23.2,59.8,21.4,58,19.2,58z"/>
	<path d="M9.7,1c-2.2,0-4,1.8-4,4c0,2.2,1.8,4,4,4c2.2,0,4-1.8,4-4C13.7,2.8,11.9,1,9.7,1z"/>
	<path d="M0.2,20c-2.2,0-4,1.8-4,4c0,2.2,1.8,4,4,4c2.2,0,4-1.8,4-4C4.2,21.8,2.4,20,0.2,20z"/>
	<path d="M19.2,20c-2.2,0-4,1.8-4,4c0,2.2,1.8,4,4,4c2.2,0,4-1.8,4-4C23.2,21.8,21.4,20,19.2,20z"/>
	<path d="M28.7,191c-2.2,0-4,1.8-4,4c0,2.2,1.8,4,4,4s4-1.8,4-4C32.7,192.8,30.9,191,28.7,191z"/>
	<path d="M47.7,191c-2.2,0-4,1.8-4,4c0,2.2,1.8,4,4,4c2.2,0,4-1.8,4-4C51.7,192.8,49.9,191,47.7,191z"/>
	<path d="M28.7,153c-2.2,0-4,1.8-4,4c0,2.2,1.8,4,4,4s4-1.8,4-4C32.7,154.8,30.9,153,28.7,153z"/>
	<path d="M47.7,153c-2.2,0-4,1.8-4,4c0,2.2,1.8,4,4,4c2.2,0,4-1.8,4-4C51.7,154.8,49.9,153,47.7,153z"/>
	<path d="M38.2,172c-2.2,0-4,1.8-4,4s1.8,4,4,4c2.2,0,4-1.8,4-4S40.4,172,38.2,172z"/>
	<path d="M57.2,172c-2.2,0-4,1.8-4,4s1.8,4,4,4c2.2,0,4-1.8,4-4S59.4,172,57.2,172z"/>
	<path d="M28.7,115c-2.2,0-4,1.8-4,4c0,2.2,1.8,4,4,4s4-1.8,4-4C32.7,116.8,30.9,115,28.7,115z"/>
	<path d="M47.7,115c-2.2,0-4,1.8-4,4c0,2.2,1.8,4,4,4c2.2,0,4-1.8,4-4C51.7,116.8,49.9,115,47.7,115z"/>
	<path d="M38.2,134c-2.2,0-4,1.8-4,4c0,2.2,1.8,4,4,4c2.2,0,4-1.8,4-4C42.2,135.8,40.4,134,38.2,134z"/>
	<path d="M57.2,134c-2.2,0-4,1.8-4,4c0,2.2,1.8,4,4,4c2.2,0,4-1.8,4-4C61.2,135.8,59.4,134,57.2,134z"/>
	<path d="M28.7,77c-2.2,0-4,1.8-4,4c0,2.2,1.8,4,4,4s4-1.8,4-4C32.7,78.8,30.9,77,28.7,77z"/>
	<path d="M47.7,77c-2.2,0-4,1.8-4,4c0,2.2,1.8,4,4,4c2.2,0,4-1.8,4-4C51.7,78.8,49.9,77,47.7,77z"/>
	<path d="M38.2,96c-2.2,0-4,1.8-4,4c0,2.2,1.8,4,4,4c2.2,0,4-1.8,4-4C42.2,97.8,40.4,96,38.2,96z"/>
	<path d="M57.2,96c-2.2,0-4,1.8-4,4c0,2.2,1.8,4,4,4c2.2,0,4-1.8,4-4C61.2,97.8,59.4,96,57.2,96z"/>
	<path d="M28.7,39c-2.2,0-4,1.8-4,4s1.8,4,4,4s4-1.8,4-4S30.9,39,28.7,39z"/>
	<path d="M47.7,39c-2.2,0-4,1.8-4,4s1.8,4,4,4c2.2,0,4-1.8,4-4S49.9,39,47.7,39z"/>
	<path d="M38.2,58c-2.2,0-4,1.8-4,4c0,2.2,1.8,4,4,4c2.2,0,4-1.8,4-4C42.2,59.8,40.4,58,38.2,58z"/>
	<path d="M57.2,58c-2.2,0-4,1.8-4,4c0,2.2,1.8,4,4,4c2.2,0,4-1.8,4-4C61.2,59.8,59.4,58,57.2,58z"/>
	<path d="M28.7,1c-2.2,0-4,1.8-4,4c0,2.2,1.8,4,4,4s4-1.8,4-4C32.7,2.8,30.9,1,28.7,1z"/>
	<path d="M47.7,1c-2.2,0-4,1.8-4,4c0,2.2,1.8,4,4,4c2.2,0,4-1.8,4-4C51.7,2.8,49.9,1,47.7,1z"/>
	<path d="M38.2,20c-2.2,0-4,1.8-4,4c0,2.2,1.8,4,4,4c2.2,0,4-1.8,4-4C42.2,21.8,40.4,20,38.2,20z"/>
	<path d="M57.2,20c-2.2,0-4,1.8-4,4c0,2.2,1.8,4,4,4c2.2,0,4-1.8,4-4C61.2,21.8,59.4,20,57.2,20z"/>
	<path d="M66.7,191c-2.2,0-4,1.8-4,4c0,2.2,1.8,4,4,4c2.2,0,4-1.8,4-4C70.7,192.8,68.9,191,66.7,191z"/>
	<path d="M85.7,191c-2.2,0-4,1.8-4,4c0,2.2,1.8,4,4,4c2.2,0,4-1.8,4-4C89.7,192.8,87.9,191,85.7,191z"/>
	<path d="M66.7,153c-2.2,0-4,1.8-4,4c0,2.2,1.8,4,4,4c2.2,0,4-1.8,4-4C70.7,154.8,68.9,153,66.7,153z"/>
	<path d="M85.7,153c-2.2,0-4,1.8-4,4c0,2.2,1.8,4,4,4c2.2,0,4-1.8,4-4C89.7,154.8,87.9,153,85.7,153z"/>
	<path d="M76.2,172c-2.2,0-4,1.8-4,4s1.8,4,4,4s4-1.8,4-4S78.4,172,76.2,172z"/>
	<path d="M95.2,172c-2.2,0-4,1.8-4,4s1.8,4,4,4c2.2,0,4-1.8,4-4S97.4,172,95.2,172z"/>
	<path d="M66.7,115c-2.2,0-4,1.8-4,4c0,2.2,1.8,4,4,4c2.2,0,4-1.8,4-4C70.7,116.8,68.9,115,66.7,115z"/>
	<path d="M85.7,115c-2.2,0-4,1.8-4,4c0,2.2,1.8,4,4,4c2.2,0,4-1.8,4-4C89.7,116.8,87.9,115,85.7,115z"/>
	<path d="M76.2,134c-2.2,0-4,1.8-4,4c0,2.2,1.8,4,4,4s4-1.8,4-4C80.2,135.8,78.4,134,76.2,134z"/>
	<path d="M95.2,134c-2.2,0-4,1.8-4,4c0,2.2,1.8,4,4,4c2.2,0,4-1.8,4-4C99.2,135.8,97.4,134,95.2,134z"/>
	<path d="M66.7,77c-2.2,0-4,1.8-4,4c0,2.2,1.8,4,4,4c2.2,0,4-1.8,4-4C70.7,78.8,68.9,77,66.7,77z"/>
	<path d="M85.7,77c-2.2,0-4,1.8-4,4c0,2.2,1.8,4,4,4c2.2,0,4-1.8,4-4C89.7,78.8,87.9,77,85.7,77z"/>
	<path d="M76.2,96c-2.2,0-4,1.8-4,4c0,2.2,1.8,4,4,4s4-1.8,4-4C80.2,97.8,78.4,96,76.2,96z"/>
	<path d="M95.2,96c-2.2,0-4,1.8-4,4c0,2.2,1.8,4,4,4c2.2,0,4-1.8,4-4C99.2,97.8,97.4,96,95.2,96z"/>
	<path d="M66.7,39c-2.2,0-4,1.8-4,4s1.8,4,4,4c2.2,0,4-1.8,4-4S68.9,39,66.7,39z"/>
	<path d="M85.7,39c-2.2,0-4,1.8-4,4s1.8,4,4,4c2.2,0,4-1.8,4-4S87.9,39,85.7,39z"/>
	<path d="M76.2,58c-2.2,0-4,1.8-4,4c0,2.2,1.8,4,4,4s4-1.8,4-4C80.2,59.8,78.4,58,76.2,58z"/>
	<path d="M95.2,58c-2.2,0-4,1.8-4,4c0,2.2,1.8,4,4,4c2.2,0,4-1.8,4-4C99.2,59.8,97.4,58,95.2,58z"/>
	<path d="M66.7,1c-2.2,0-4,1.8-4,4c0,2.2,1.8,4,4,4c2.2,0,4-1.8,4-4C70.7,2.8,68.9,1,66.7,1z"/>
	<path d="M85.7,1c-2.2,0-4,1.8-4,4c0,2.2,1.8,4,4,4c2.2,0,4-1.8,4-4C89.7,2.8,87.9,1,85.7,1z"/>
	<path d="M76.2,20c-2.2,0-4,1.8-4,4c0,2.2,1.8,4,4,4s4-1.8,4-4C80.2,21.8,78.4,20,76.2,20z"/>
	<path d="M95.2,20c-2.2,0-4,1.8-4,4c0,2.2,1.8,4,4,4c2.2,0,4-1.8,4-4C99.2,21.8,97.4,20,95.2,20z"/>
	<path d="M104.8,191c-2.2,0-4,1.8-4,4c0,2.2,1.8,4,4,4c2.2,0,4-1.8,4-4C108.7,192.8,106.9,191,104.8,191z"/>
	<path d="M123.8,191c-2.2,0-4,1.8-4,4c0,2.2,1.8,4,4,4s4-1.8,4-4C127.7,192.8,126,191,123.8,191z"/>
	<path d="M104.8,153c-2.2,0-4,1.8-4,4c0,2.2,1.8,4,4,4c2.2,0,4-1.8,4-4C108.7,154.8,106.9,153,104.8,153z"/>
	<path d="M123.8,153c-2.2,0-4,1.8-4,4c0,2.2,1.8,4,4,4s4-1.8,4-4C127.7,154.8,126,153,123.8,153z"/>
	<path d="M114.3,172c-2.2,0-4,1.8-4,4s1.8,4,4,4c2.2,0,4-1.8,4-4S116.4,172,114.3,172z"/>
	<path d="M133.3,172c-2.2,0-4,1.8-4,4s1.8,4,4,4c2.2,0,4-1.8,4-4S135.5,172,133.3,172z"/>
	<path d="M104.8,115c-2.2,0-4,1.8-4,4c0,2.2,1.8,4,4,4c2.2,0,4-1.8,4-4C108.7,116.8,106.9,115,104.8,115z"/>
	<path d="M123.8,115c-2.2,0-4,1.8-4,4c0,2.2,1.8,4,4,4s4-1.8,4-4C127.7,116.8,126,115,123.8,115z"/>
	<path d="M114.3,134c-2.2,0-4,1.8-4,4c0,2.2,1.8,4,4,4c2.2,0,4-1.8,4-4C118.2,135.8,116.4,134,114.3,134z"/>
	<path d="M133.3,134c-2.2,0-4,1.8-4,4c0,2.2,1.8,4,4,4c2.2,0,4-1.8,4-4C137.2,135.8,135.5,134,133.3,134z"/>
	<path d="M104.8,77c-2.2,0-4,1.8-4,4c0,2.2,1.8,4,4,4c2.2,0,4-1.8,4-4C108.7,78.8,106.9,77,104.8,77z"/>
	<path d="M123.8,77c-2.2,0-4,1.8-4,4c0,2.2,1.8,4,4,4s4-1.8,4-4C127.7,78.8,126,77,123.8,77z"/>
	<path d="M114.3,96c-2.2,0-4,1.8-4,4c0,2.2,1.8,4,4,4c2.2,0,4-1.8,4-4C118.2,97.8,116.4,96,114.3,96z"/>
	<path d="M133.3,96c-2.2,0-4,1.8-4,4c0,2.2,1.8,4,4,4c2.2,0,4-1.8,4-4C137.2,97.8,135.5,96,133.3,96z"/>
	<path d="M104.8,39c-2.2,0-4,1.8-4,4s1.8,4,4,4c2.2,0,4-1.8,4-4S106.9,39,104.8,39z"/>
	<path d="M123.8,39c-2.2,0-4,1.8-4,4s1.8,4,4,4s4-1.8,4-4S126,39,123.8,39z"/>
	<path d="M114.3,58c-2.2,0-4,1.8-4,4c0,2.2,1.8,4,4,4c2.2,0,4-1.8,4-4C118.2,59.8,116.4,58,114.3,58z"/>
	<path d="M133.3,58c-2.2,0-4,1.8-4,4c0,2.2,1.8,4,4,4c2.2,0,4-1.8,4-4C137.2,59.8,135.5,58,133.3,58z"/>
	<path d="M104.8,1c-2.2,0-4,1.8-4,4c0,2.2,1.8,4,4,4c2.2,0,4-1.8,4-4C108.7,2.8,106.9,1,104.8,1z"/>
	<path d="M123.8,1c-2.2,0-4,1.8-4,4c0,2.2,1.8,4,4,4s4-1.8,4-4C127.7,2.8,126,1,123.8,1z"/>
	<path d="M114.3,20c-2.2,0-4,1.8-4,4c0,2.2,1.8,4,4,4c2.2,0,4-1.8,4-4C118.2,21.8,116.4,20,114.3,20z"/>
	<path d="M133.3,20c-2.2,0-4,1.8-4,4c0,2.2,1.8,4,4,4c2.2,0,4-1.8,4-4C137.2,21.8,135.5,20,133.3,20z"/>
	<path d="M142.8,191c-2.2,0-4,1.8-4,4c0,2.2,1.8,4,4,4s4-1.8,4-4C146.7,192.8,145,191,142.8,191z"/>
	<path d="M161.8,191c-2.2,0-4,1.8-4,4c0,2.2,1.8,4,4,4c2.2,0,4-1.8,4-4C165.7,192.8,164,191,161.8,191z"/>
	<path d="M142.8,153c-2.2,0-4,1.8-4,4c0,2.2,1.8,4,4,4s4-1.8,4-4C146.7,154.8,145,153,142.8,153z"/>
	<path d="M161.8,153c-2.2,0-4,1.8-4,4c0,2.2,1.8,4,4,4c2.2,0,4-1.8,4-4C165.7,154.8,164,153,161.8,153z"/>
	<path d="M152.3,172c-2.2,0-4,1.8-4,4s1.8,4,4,4c2.2,0,4-1.8,4-4S154.5,172,152.3,172z"/>
	<path d="M171.3,172c-2.2,0-4,1.8-4,4s1.8,4,4,4c2.2,0,4-1.8,4-4S173.5,172,171.3,172z"/>
	<path d="M142.8,115c-2.2,0-4,1.8-4,4c0,2.2,1.8,4,4,4s4-1.8,4-4C146.7,116.8,145,115,142.8,115z"/>
	<path d="M161.8,115c-2.2,0-4,1.8-4,4c0,2.2,1.8,4,4,4c2.2,0,4-1.8,4-4C165.7,116.8,164,115,161.8,115z"/>
	<path d="M152.3,134c-2.2,0-4,1.8-4,4c0,2.2,1.8,4,4,4c2.2,0,4-1.8,4-4C156.2,135.8,154.5,134,152.3,134z"/>
	<path d="M171.3,134c-2.2,0-4,1.8-4,4c0,2.2,1.8,4,4,4c2.2,0,4-1.8,4-4C175.2,135.8,173.5,134,171.3,134z"/>
	<path d="M142.8,77c-2.2,0-4,1.8-4,4c0,2.2,1.8,4,4,4s4-1.8,4-4C146.7,78.8,145,77,142.8,77z"/>
	<path d="M161.8,77c-2.2,0-4,1.8-4,4c0,2.2,1.8,4,4,4c2.2,0,4-1.8,4-4C165.7,78.8,164,77,161.8,77z"/>
	<path d="M152.3,96c-2.2,0-4,1.8-4,4c0,2.2,1.8,4,4,4c2.2,0,4-1.8,4-4C156.2,97.8,154.5,96,152.3,96z"/>
	<path d="M171.3,96c-2.2,0-4,1.8-4,4c0,2.2,1.8,4,4,4c2.2,0,4-1.8,4-4C175.2,97.8,173.5,96,171.3,96z"/>
	<path d="M142.8,39c-2.2,0-4,1.8-4,4s1.8,4,4,4s4-1.8,4-4S145,39,142.8,39z"/>
	<path d="M161.8,39c-2.2,0-4,1.8-4,4s1.8,4,4,4c2.2,0,4-1.8,4-4S164,39,161.8,39z"/>
	<path d="M152.3,58c-2.2,0-4,1.8-4,4c0,2.2,1.8,4,4,4c2.2,0,4-1.8,4-4C156.2,59.8,154.5,58,152.3,58z"/>
	<path d="M171.3,58c-2.2,0-4,1.8-4,4c0,2.2,1.8,4,4,4c2.2,0,4-1.8,4-4C175.2,59.8,173.5,58,171.3,58z"/>
	<path d="M142.8,1c-2.2,0-4,1.8-4,4c0,2.2,1.8,4,4,4s4-1.8,4-4C146.7,2.8,145,1,142.8,1z"/>
	<path d="M161.8,1c-2.2,0-4,1.8-4,4c0,2.2,1.8,4,4,4c2.2,0,4-1.8,4-4C165.7,2.8,164,1,161.8,1z"/>
	<path d="M152.3,20c-2.2,0-4,1.8-4,4c0,2.2,1.8,4,4,4c2.2,0,4-1.8,4-4C156.2,21.8,154.5,20,152.3,20z"/>
	<path d="M171.3,20c-2.2,0-4,1.8-4,4c0,2.2,1.8,4,4,4c2.2,0,4-1.8,4-4C175.2,21.8,173.5,20,171.3,20z"/>
	<path d="M180.8,191c-2.2,0-4,1.8-4,4c0,2.2,1.8,4,4,4c2.2,0,4-1.8,4-4C184.7,192.8,183,191,180.8,191z"/>
	<path d="M199.8,191c-2.2,0-4,1.8-4,4c0,2.2,1.8,4,4,4c2.2,0,4-1.8,4-4C203.7,192.8,202,191,199.8,191z"/>
	<path d="M180.8,153c-2.2,0-4,1.8-4,4c0,2.2,1.8,4,4,4c2.2,0,4-1.8,4-4C184.7,154.8,183,153,180.8,153z"/>
	<path d="M199.8,153c-2.2,0-4,1.8-4,4c0,2.2,1.8,4,4,4c2.2,0,4-1.8,4-4C203.7,154.8,202,153,199.8,153z"/>
	<path d="M190.3,172c-2.2,0-4,1.8-4,4s1.8,4,4,4s4-1.8,4-4S192.5,172,190.3,172z"/>
	<path d="M180.8,115c-2.2,0-4,1.8-4,4c0,2.2,1.8,4,4,4c2.2,0,4-1.8,4-4C184.7,116.8,183,115,180.8,115z"/>
	<path d="M199.8,115c-2.2,0-4,1.8-4,4c0,2.2,1.8,4,4,4c2.2,0,4-1.8,4-4C203.7,116.8,202,115,199.8,115z"/>
	<path d="M190.3,134c-2.2,0-4,1.8-4,4c0,2.2,1.8,4,4,4s4-1.8,4-4C194.2,135.8,192.5,134,190.3,134z"/>
	<path d="M180.8,77c-2.2,0-4,1.8-4,4c0,2.2,1.8,4,4,4c2.2,0,4-1.8,4-4C184.7,78.8,183,77,180.8,77z"/>
	<path d="M199.8,77c-2.2,0-4,1.8-4,4c0,2.2,1.8,4,4,4c2.2,0,4-1.8,4-4C203.7,78.8,202,77,199.8,77z"/>
	<path d="M190.3,96c-2.2,0-4,1.8-4,4c0,2.2,1.8,4,4,4s4-1.8,4-4C194.2,97.8,192.5,96,190.3,96z"/>
	<path d="M180.8,39c-2.2,0-4,1.8-4,4s1.8,4,4,4c2.2,0,4-1.8,4-4S183,39,180.8,39z"/>
	<path d="M199.8,39c-2.2,0-4,1.8-4,4s1.8,4,4,4c2.2,0,4-1.8,4-4S202,39,199.8,39z"/>
	<path d="M190.3,58c-2.2,0-4,1.8-4,4c0,2.2,1.8,4,4,4s4-1.8,4-4C194.2,59.8,192.5,58,190.3,58z"/>
	<path d="M180.8,1c-2.2,0-4,1.8-4,4c0,2.2,1.8,4,4,4c2.2,0,4-1.8,4-4C184.7,2.8,183,1,180.8,1z"/>
	<path d="M199.8,1c-2.2,0-4,1.8-4,4c0,2.2,1.8,4,4,4c2.2,0,4-1.8,4-4C203.7,2.8,202,1,199.8,1z"/>
	<path d="M190.3,20c-2.2,0-4,1.8-4,4c0,2.2,1.8,4,4,4s4-1.8,4-4C194.2,21.8,192.5,20,190.3,20z"/>
</g>
</svg>
