<?xml version="1.0" encoding="utf-8"?>
<!-- Generator: Adobe Illustrator 28.0.0, SVG Export Plug-In . SVG Version: 6.00 Build 0)  -->
<svg version="1.1" id="Layer_1" xmlns="http://www.w3.org/2000/svg" xmlns:xlink="http://www.w3.org/1999/xlink" x="0px" y="0px"
	 viewBox="0 0 160 200" style="enable-background:new 0 0 160 200;" xml:space="preserve">
<g>
	<path d="M-10.3,191c-2.2,0-4,1.8-4,4c0,2.2,1.8,4,4,4c2.2,0,4-1.8,4-4C-6.3,192.8-8.1,191-10.3,191z"/>
	<path d="M-10.3,153c-2.2,0-4,1.8-4,4c0,2.2,1.8,4,4,4c2.2,0,4-1.8,4-4C-6.3,154.8-8.1,153-10.3,153z"/>
	<path d="M-19.8,172c-2.2,0-4,1.8-4,4s1.8,4,4,4c2.2,0,4-1.8,4-4S-17.6,172-19.8,172z"/>
	<path d="M-0.8,172c-2.2,0-4,1.8-4,4s1.8,4,4,4c2.2,0,4-1.8,4-4S1.4,172-0.8,172z"/>
	<path d="M-10.3,115c-2.2,0-4,1.8-4,4c0,2.2,1.8,4,4,4c2.2,0,4-1.8,4-4C-6.3,116.8-8.1,115-10.3,115z"/>
	<path d="M-19.8,134c-2.2,0-4,1.8-4,4c0,2.2,1.8,4,4,4c2.2,0,4-1.8,4-4C-15.8,135.8-17.6,134-19.8,134z"/>
	<path d="M-0.8,134c-2.2,0-4,1.8-4,4c0,2.2,1.8,4,4,4c2.2,0,4-1.8,4-4C3.2,135.8,1.4,134-0.8,134z"/>
	<path d="M-10.3,77c-2.2,0-4,1.8-4,4c0,2.2,1.8,4,4,4c2.2,0,4-1.8,4-4C-6.3,78.8-8.1,77-10.3,77z"/>
	<path d="M-19.8,96c-2.2,0-4,1.8-4,4c0,2.2,1.8,4,4,4c2.2,0,4-1.8,4-4C-15.8,97.8-17.6,96-19.8,96z"/>
	<path d="M-0.8,96c-2.2,0-4,1.8-4,4c0,2.2,1.8,4,4,4c2.2,0,4-1.8,4-4C3.2,97.8,1.4,96-0.8,96z"/>
	<path d="M-10.3,39c-2.2,0-4,1.8-4,4s1.8,4,4,4c2.2,0,4-1.8,4-4S-8.1,39-10.3,39z"/>
	<path d="M-19.8,58c-2.2,0-4,1.8-4,4c0,2.2,1.8,4,4,4c2.2,0,4-1.8,4-4C-15.8,59.8-17.6,58-19.8,58z"/>
	<path d="M-0.8,58c-2.2,0-4,1.8-4,4c0,2.2,1.8,4,4,4c2.2,0,4-1.8,4-4C3.2,59.8,1.4,58-0.8,58z"/>
	<path d="M-10.3,1c-2.2,0-4,1.8-4,4c0,2.2,1.8,4,4,4c2.2,0,4-1.8,4-4C-6.3,2.8-8.1,1-10.3,1z"/>
	<path d="M-19.8,20c-2.2,0-4,1.8-4,4c0,2.2,1.8,4,4,4c2.2,0,4-1.8,4-4C-15.8,21.8-17.6,20-19.8,20z"/>
	<path d="M-0.8,20c-2.2,0-4,1.8-4,4c0,2.2,1.8,4,4,4c2.2,0,4-1.8,4-4C3.2,21.8,1.4,20-0.8,20z"/>
	<path d="M8.7,191c-2.2,0-4,1.8-4,4c0,2.2,1.8,4,4,4s4-1.8,4-4C12.7,192.8,10.9,191,8.7,191z"/>
	<path d="M27.7,191c-2.2,0-4,1.8-4,4c0,2.2,1.8,4,4,4c2.2,0,4-1.8,4-4C31.7,192.8,29.9,191,27.7,191z"/>
	<path d="M8.7,153c-2.2,0-4,1.8-4,4c0,2.2,1.8,4,4,4s4-1.8,4-4C12.7,154.8,10.9,153,8.7,153z"/>
	<path d="M27.7,153c-2.2,0-4,1.8-4,4c0,2.2,1.8,4,4,4c2.2,0,4-1.8,4-4C31.7,154.8,29.9,153,27.7,153z"/>
	<path d="M18.2,172c-2.2,0-4,1.8-4,4s1.8,4,4,4c2.2,0,4-1.8,4-4S20.4,172,18.2,172z"/>
	<path d="M37.2,172c-2.2,0-4,1.8-4,4s1.8,4,4,4c2.2,0,4-1.8,4-4S39.4,172,37.2,172z"/>
	<path d="M8.7,115c-2.2,0-4,1.8-4,4c0,2.2,1.8,4,4,4s4-1.8,4-4C12.7,116.8,10.9,115,8.7,115z"/>
	<path d="M27.7,115c-2.2,0-4,1.8-4,4c0,2.2,1.8,4,4,4c2.2,0,4-1.8,4-4C31.7,116.8,29.9,115,27.7,115z"/>
	<path d="M18.2,134c-2.2,0-4,1.8-4,4c0,2.2,1.8,4,4,4c2.2,0,4-1.8,4-4C22.2,135.8,20.4,134,18.2,134z"/>
	<path d="M37.2,134c-2.2,0-4,1.8-4,4c0,2.2,1.8,4,4,4c2.2,0,4-1.8,4-4C41.2,135.8,39.4,134,37.2,134z"/>
	<path d="M8.7,77c-2.2,0-4,1.8-4,4c0,2.2,1.8,4,4,4s4-1.8,4-4C12.7,78.8,10.9,77,8.7,77z"/>
	<path d="M27.7,77c-2.2,0-4,1.8-4,4c0,2.2,1.8,4,4,4c2.2,0,4-1.8,4-4C31.7,78.8,29.9,77,27.7,77z"/>
	<path d="M18.2,96c-2.2,0-4,1.8-4,4c0,2.2,1.8,4,4,4c2.2,0,4-1.8,4-4C22.2,97.8,20.4,96,18.2,96z"/>
	<path d="M37.2,96c-2.2,0-4,1.8-4,4c0,2.2,1.8,4,4,4c2.2,0,4-1.8,4-4C41.2,97.8,39.4,96,37.2,96z"/>
	<path d="M8.7,39c-2.2,0-4,1.8-4,4s1.8,4,4,4s4-1.8,4-4S10.9,39,8.7,39z"/>
	<path d="M27.7,39c-2.2,0-4,1.8-4,4s1.8,4,4,4c2.2,0,4-1.8,4-4S29.9,39,27.7,39z"/>
	<path d="M18.2,58c-2.2,0-4,1.8-4,4c0,2.2,1.8,4,4,4c2.2,0,4-1.8,4-4C22.2,59.8,20.4,58,18.2,58z"/>
	<path d="M37.2,58c-2.2,0-4,1.8-4,4c0,2.2,1.8,4,4,4c2.2,0,4-1.8,4-4C41.2,59.8,39.4,58,37.2,58z"/>
	<path d="M8.7,1c-2.2,0-4,1.8-4,4c0,2.2,1.8,4,4,4s4-1.8,4-4C12.7,2.8,10.9,1,8.7,1z"/>
	<path d="M27.7,1c-2.2,0-4,1.8-4,4c0,2.2,1.8,4,4,4c2.2,0,4-1.8,4-4C31.7,2.8,29.9,1,27.7,1z"/>
	<path d="M18.2,20c-2.2,0-4,1.8-4,4c0,2.2,1.8,4,4,4c2.2,0,4-1.8,4-4C22.2,21.8,20.4,20,18.2,20z"/>
	<path d="M37.2,20c-2.2,0-4,1.8-4,4c0,2.2,1.8,4,4,4c2.2,0,4-1.8,4-4C41.2,21.8,39.4,20,37.2,20z"/>
	<path d="M46.7,191c-2.2,0-4,1.8-4,4c0,2.2,1.8,4,4,4c2.2,0,4-1.8,4-4C50.7,192.8,48.9,191,46.7,191z"/>
	<path d="M65.7,191c-2.2,0-4,1.8-4,4c0,2.2,1.8,4,4,4c2.2,0,4-1.8,4-4C69.7,192.8,67.9,191,65.7,191z"/>
	<path d="M46.7,153c-2.2,0-4,1.8-4,4c0,2.2,1.8,4,4,4c2.2,0,4-1.8,4-4C50.7,154.8,48.9,153,46.7,153z"/>
	<path d="M65.7,153c-2.2,0-4,1.8-4,4c0,2.2,1.8,4,4,4c2.2,0,4-1.8,4-4C69.7,154.8,67.9,153,65.7,153z"/>
	<path d="M56.2,172c-2.2,0-4,1.8-4,4s1.8,4,4,4s4-1.8,4-4S58.4,172,56.2,172z"/>
	<path d="M75.2,172c-2.2,0-4,1.8-4,4s1.8,4,4,4c2.2,0,4-1.8,4-4S77.4,172,75.2,172z"/>
	<path d="M46.7,115c-2.2,0-4,1.8-4,4c0,2.2,1.8,4,4,4c2.2,0,4-1.8,4-4C50.7,116.8,48.9,115,46.7,115z"/>
	<path d="M65.7,115c-2.2,0-4,1.8-4,4c0,2.2,1.8,4,4,4c2.2,0,4-1.8,4-4C69.7,116.8,67.9,115,65.7,115z"/>
	<path d="M56.2,134c-2.2,0-4,1.8-4,4c0,2.2,1.8,4,4,4s4-1.8,4-4C60.2,135.8,58.4,134,56.2,134z"/>
	<path d="M75.2,134c-2.2,0-4,1.8-4,4c0,2.2,1.8,4,4,4c2.2,0,4-1.8,4-4C79.2,135.8,77.4,134,75.2,134z"/>
	<path d="M46.7,77c-2.2,0-4,1.8-4,4c0,2.2,1.8,4,4,4c2.2,0,4-1.8,4-4C50.7,78.8,48.9,77,46.7,77z"/>
	<path d="M65.7,77c-2.2,0-4,1.8-4,4c0,2.2,1.8,4,4,4c2.2,0,4-1.8,4-4C69.7,78.8,67.9,77,65.7,77z"/>
	<path d="M56.2,96c-2.2,0-4,1.8-4,4c0,2.2,1.8,4,4,4s4-1.8,4-4C60.2,97.8,58.4,96,56.2,96z"/>
	<path d="M75.2,96c-2.2,0-4,1.8-4,4c0,2.2,1.8,4,4,4c2.2,0,4-1.8,4-4C79.2,97.8,77.4,96,75.2,96z"/>
	<path d="M46.7,39c-2.2,0-4,1.8-4,4s1.8,4,4,4c2.2,0,4-1.8,4-4S48.9,39,46.7,39z"/>
	<path d="M65.7,39c-2.2,0-4,1.8-4,4s1.8,4,4,4c2.2,0,4-1.8,4-4S67.9,39,65.7,39z"/>
	<path d="M56.2,58c-2.2,0-4,1.8-4,4c0,2.2,1.8,4,4,4s4-1.8,4-4C60.2,59.8,58.4,58,56.2,58z"/>
	<path d="M75.2,58c-2.2,0-4,1.8-4,4c0,2.2,1.8,4,4,4c2.2,0,4-1.8,4-4C79.2,59.8,77.4,58,75.2,58z"/>
	<path d="M46.7,1c-2.2,0-4,1.8-4,4c0,2.2,1.8,4,4,4c2.2,0,4-1.8,4-4C50.7,2.8,48.9,1,46.7,1z"/>
	<path d="M65.7,1c-2.2,0-4,1.8-4,4c0,2.2,1.8,4,4,4c2.2,0,4-1.8,4-4C69.7,2.8,67.9,1,65.7,1z"/>
	<path d="M56.2,20c-2.2,0-4,1.8-4,4c0,2.2,1.8,4,4,4s4-1.8,4-4C60.2,21.8,58.4,20,56.2,20z"/>
	<path d="M75.2,20c-2.2,0-4,1.8-4,4c0,2.2,1.8,4,4,4c2.2,0,4-1.8,4-4C79.2,21.8,77.4,20,75.2,20z"/>
	<path d="M84.8,191c-2.2,0-4,1.8-4,4c0,2.2,1.8,4,4,4c2.2,0,4-1.8,4-4C88.7,192.8,86.9,191,84.8,191z"/>
	<path d="M103.8,191c-2.2,0-4,1.8-4,4c0,2.2,1.8,4,4,4s4-1.8,4-4C107.7,192.8,106,191,103.8,191z"/>
	<path d="M84.8,153c-2.2,0-4,1.8-4,4c0,2.2,1.8,4,4,4c2.2,0,4-1.8,4-4C88.7,154.8,86.9,153,84.8,153z"/>
	<path d="M103.8,153c-2.2,0-4,1.8-4,4c0,2.2,1.8,4,4,4s4-1.8,4-4C107.7,154.8,106,153,103.8,153z"/>
	<path d="M94.3,172c-2.2,0-4,1.8-4,4s1.8,4,4,4c2.2,0,4-1.8,4-4S96.4,172,94.3,172z"/>
	<path d="M113.3,172c-2.2,0-4,1.8-4,4s1.8,4,4,4c2.2,0,4-1.8,4-4S115.5,172,113.3,172z"/>
	<path d="M84.8,115c-2.2,0-4,1.8-4,4c0,2.2,1.8,4,4,4c2.2,0,4-1.8,4-4C88.7,116.8,86.9,115,84.8,115z"/>
	<path d="M103.8,115c-2.2,0-4,1.8-4,4c0,2.2,1.8,4,4,4s4-1.8,4-4C107.7,116.8,106,115,103.8,115z"/>
	<path d="M94.3,134c-2.2,0-4,1.8-4,4c0,2.2,1.8,4,4,4c2.2,0,4-1.8,4-4C98.2,135.8,96.4,134,94.3,134z"/>
	<path d="M113.3,134c-2.2,0-4,1.8-4,4c0,2.2,1.8,4,4,4c2.2,0,4-1.8,4-4C117.2,135.8,115.5,134,113.3,134z"/>
	<path d="M84.8,77c-2.2,0-4,1.8-4,4c0,2.2,1.8,4,4,4c2.2,0,4-1.8,4-4C88.7,78.8,86.9,77,84.8,77z"/>
	<path d="M103.8,77c-2.2,0-4,1.8-4,4c0,2.2,1.8,4,4,4s4-1.8,4-4C107.7,78.8,106,77,103.8,77z"/>
	<path d="M94.3,96c-2.2,0-4,1.8-4,4c0,2.2,1.8,4,4,4c2.2,0,4-1.8,4-4C98.2,97.8,96.4,96,94.3,96z"/>
	<path d="M113.3,96c-2.2,0-4,1.8-4,4c0,2.2,1.8,4,4,4c2.2,0,4-1.8,4-4C117.2,97.8,115.5,96,113.3,96z"/>
	<path d="M84.8,39c-2.2,0-4,1.8-4,4s1.8,4,4,4c2.2,0,4-1.8,4-4S86.9,39,84.8,39z"/>
	<path d="M103.8,39c-2.2,0-4,1.8-4,4s1.8,4,4,4s4-1.8,4-4S106,39,103.8,39z"/>
	<path d="M94.3,58c-2.2,0-4,1.8-4,4c0,2.2,1.8,4,4,4c2.2,0,4-1.8,4-4C98.2,59.8,96.4,58,94.3,58z"/>
	<path d="M113.3,58c-2.2,0-4,1.8-4,4c0,2.2,1.8,4,4,4c2.2,0,4-1.8,4-4C117.2,59.8,115.5,58,113.3,58z"/>
	<path d="M84.8,1c-2.2,0-4,1.8-4,4c0,2.2,1.8,4,4,4c2.2,0,4-1.8,4-4C88.7,2.8,86.9,1,84.8,1z"/>
	<path d="M103.8,1c-2.2,0-4,1.8-4,4c0,2.2,1.8,4,4,4s4-1.8,4-4C107.7,2.8,106,1,103.8,1z"/>
	<path d="M94.3,20c-2.2,0-4,1.8-4,4c0,2.2,1.8,4,4,4c2.2,0,4-1.8,4-4C98.2,21.8,96.4,20,94.3,20z"/>
	<path d="M113.3,20c-2.2,0-4,1.8-4,4c0,2.2,1.8,4,4,4c2.2,0,4-1.8,4-4C117.2,21.8,115.5,20,113.3,20z"/>
	<path d="M122.8,191c-2.2,0-4,1.8-4,4c0,2.2,1.8,4,4,4c2.2,0,4-1.8,4-4C126.7,192.8,125,191,122.8,191z"/>
	<path d="M141.8,191c-2.2,0-4,1.8-4,4c0,2.2,1.8,4,4,4c2.2,0,4-1.8,4-4C145.7,192.8,144,191,141.8,191z"/>
	<path d="M122.8,153c-2.2,0-4,1.8-4,4c0,2.2,1.8,4,4,4c2.2,0,4-1.8,4-4C126.7,154.8,125,153,122.8,153z"/>
	<path d="M141.8,153c-2.2,0-4,1.8-4,4c0,2.2,1.8,4,4,4c2.2,0,4-1.8,4-4C145.7,154.8,144,153,141.8,153z"/>
	<path d="M132.3,172c-2.2,0-4,1.8-4,4s1.8,4,4,4c2.2,0,4-1.8,4-4S134.5,172,132.3,172z"/>
	<path d="M151.3,172c-2.2,0-4,1.8-4,4s1.8,4,4,4c2.2,0,4-1.8,4-4S153.5,172,151.3,172z"/>
	<path d="M122.8,115c-2.2,0-4,1.8-4,4c0,2.2,1.8,4,4,4c2.2,0,4-1.8,4-4C126.7,116.8,125,115,122.8,115z"/>
	<path d="M141.8,115c-2.2,0-4,1.8-4,4c0,2.2,1.8,4,4,4c2.2,0,4-1.8,4-4C145.7,116.8,144,115,141.8,115z"/>
	<path d="M132.3,134c-2.2,0-4,1.8-4,4c0,2.2,1.8,4,4,4c2.2,0,4-1.8,4-4C136.2,135.8,134.5,134,132.3,134z"/>
	<path d="M151.3,134c-2.2,0-4,1.8-4,4c0,2.2,1.8,4,4,4c2.2,0,4-1.8,4-4C155.2,135.8,153.5,134,151.3,134z"/>
	<path d="M122.8,77c-2.2,0-4,1.8-4,4c0,2.2,1.8,4,4,4c2.2,0,4-1.8,4-4C126.7,78.8,125,77,122.8,77z"/>
	<path d="M141.8,77c-2.2,0-4,1.8-4,4c0,2.2,1.8,4,4,4c2.2,0,4-1.8,4-4C145.7,78.8,144,77,141.8,77z"/>
	<path d="M132.3,96c-2.2,0-4,1.8-4,4c0,2.2,1.8,4,4,4c2.2,0,4-1.8,4-4C136.2,97.8,134.5,96,132.3,96z"/>
	<path d="M151.3,96c-2.2,0-4,1.8-4,4c0,2.2,1.8,4,4,4c2.2,0,4-1.8,4-4C155.2,97.8,153.5,96,151.3,96z"/>
	<path d="M122.8,39c-2.2,0-4,1.8-4,4s1.8,4,4,4c2.2,0,4-1.8,4-4S125,39,122.8,39z"/>
	<path d="M141.8,39c-2.2,0-4,1.8-4,4s1.8,4,4,4c2.2,0,4-1.8,4-4S144,39,141.8,39z"/>
	<path d="M132.3,58c-2.2,0-4,1.8-4,4c0,2.2,1.8,4,4,4c2.2,0,4-1.8,4-4C136.2,59.8,134.5,58,132.3,58z"/>
	<path d="M151.3,58c-2.2,0-4,1.8-4,4c0,2.2,1.8,4,4,4c2.2,0,4-1.8,4-4C155.2,59.8,153.5,58,151.3,58z"/>
	<path d="M122.8,1c-2.2,0-4,1.8-4,4c0,2.2,1.8,4,4,4c2.2,0,4-1.8,4-4C126.7,2.8,125,1,122.8,1z"/>
	<path d="M141.8,1c-2.2,0-4,1.8-4,4c0,2.2,1.8,4,4,4c2.2,0,4-1.8,4-4C145.7,2.8,144,1,141.8,1z"/>
	<path d="M132.3,20c-2.2,0-4,1.8-4,4c0,2.2,1.8,4,4,4c2.2,0,4-1.8,4-4C136.2,21.8,134.5,20,132.3,20z"/>
	<path d="M151.3,20c-2.2,0-4,1.8-4,4c0,2.2,1.8,4,4,4c2.2,0,4-1.8,4-4C155.2,21.8,153.5,20,151.3,20z"/>
	<path d="M160.8,191c-2.2,0-4,1.8-4,4c0,2.2,1.8,4,4,4c2.2,0,4-1.8,4-4C164.7,192.8,163,191,160.8,191z"/>
	<path d="M179.8,191c-2.2,0-4,1.8-4,4c0,2.2,1.8,4,4,4c2.2,0,4-1.8,4-4C183.7,192.8,182,191,179.8,191z"/>
	<path d="M160.8,153c-2.2,0-4,1.8-4,4c0,2.2,1.8,4,4,4c2.2,0,4-1.8,4-4C164.7,154.8,163,153,160.8,153z"/>
	<path d="M179.8,153c-2.2,0-4,1.8-4,4c0,2.2,1.8,4,4,4c2.2,0,4-1.8,4-4C183.7,154.8,182,153,179.8,153z"/>
	<path d="M170.3,172c-2.2,0-4,1.8-4,4s1.8,4,4,4s4-1.8,4-4S172.5,172,170.3,172z"/>
	<path d="M160.8,115c-2.2,0-4,1.8-4,4c0,2.2,1.8,4,4,4c2.2,0,4-1.8,4-4C164.7,116.8,163,115,160.8,115z"/>
	<path d="M179.8,115c-2.2,0-4,1.8-4,4c0,2.2,1.8,4,4,4c2.2,0,4-1.8,4-4C183.7,116.8,182,115,179.8,115z"/>
	<path d="M170.3,134c-2.2,0-4,1.8-4,4c0,2.2,1.8,4,4,4s4-1.8,4-4C174.2,135.8,172.5,134,170.3,134z"/>
	<path d="M160.8,77c-2.2,0-4,1.8-4,4c0,2.2,1.8,4,4,4c2.2,0,4-1.8,4-4C164.7,78.8,163,77,160.8,77z"/>
	<path d="M179.8,77c-2.2,0-4,1.8-4,4c0,2.2,1.8,4,4,4c2.2,0,4-1.8,4-4C183.7,78.8,182,77,179.8,77z"/>
	<path d="M170.3,96c-2.2,0-4,1.8-4,4c0,2.2,1.8,4,4,4s4-1.8,4-4C174.2,97.8,172.5,96,170.3,96z"/>
	<path d="M160.8,39c-2.2,0-4,1.8-4,4s1.8,4,4,4c2.2,0,4-1.8,4-4S163,39,160.8,39z"/>
	<path d="M179.8,39c-2.2,0-4,1.8-4,4s1.8,4,4,4c2.2,0,4-1.8,4-4S182,39,179.8,39z"/>
	<path d="M170.3,58c-2.2,0-4,1.8-4,4c0,2.2,1.8,4,4,4s4-1.8,4-4C174.2,59.8,172.5,58,170.3,58z"/>
	<path d="M160.8,1c-2.2,0-4,1.8-4,4c0,2.2,1.8,4,4,4c2.2,0,4-1.8,4-4C164.7,2.8,163,1,160.8,1z"/>
	<path d="M179.8,1c-2.2,0-4,1.8-4,4c0,2.2,1.8,4,4,4c2.2,0,4-1.8,4-4C183.7,2.8,182,1,179.8,1z"/>
	<path d="M170.3,20c-2.2,0-4,1.8-4,4c0,2.2,1.8,4,4,4s4-1.8,4-4C174.2,21.8,172.5,20,170.3,20z"/>
</g>
</svg>
