<svg width="217" height="159" viewBox="0 0 217 159" xmlns="http://www.w3.org/2000/svg">
<g clip-path="url(#clip0_612_3860)">
<rect width="236" height="159" fill="white"/>
<path d="M14.632 142.276C14.514 142.276 14.396 142.276 14.278 142.276C6.372 142.276 0 148.636 0 156.527C0 157.351 0.118 158.176 0.236 159H6.608C6.49 158.176 6.372 157.351 6.372 156.527C6.49 150.402 9.676 145.102 14.632 142.276Z" fill="black"/>
<path d="M14.8682 113.656C14.7502 113.656 14.6322 113.656 14.5142 113.656C19.3522 116.482 22.6562 121.782 22.6562 127.907C22.6562 134.031 19.3522 139.213 14.5142 142.158C14.6322 142.158 14.7502 142.158 14.8682 142.158C22.7742 142.158 29.1462 135.798 29.1462 127.907C29.1462 120.016 22.7742 113.656 14.8682 113.656Z" fill="black"/>
<path d="M14.278 113.656C14.396 113.656 14.514 113.656 14.632 113.656C9.794 110.829 6.49 105.529 6.49 99.4044C6.49 93.3978 9.794 88.0978 14.632 85.1533C14.514 85.1533 14.396 85.1533 14.278 85.1533C6.372 85.2711 0 91.6311 0 99.4044C0 107.296 6.372 113.656 14.278 113.656Z" fill="black"/>
<path d="M14.6318 85.271C14.7498 85.271 14.8678 85.271 14.9858 85.271C22.8918 85.271 29.2638 78.911 29.2638 71.0199C29.2638 63.1288 22.8918 56.7688 14.9858 56.7688C14.8678 56.7688 14.7498 56.7688 14.6318 56.7688C19.4698 59.5955 22.7738 64.8955 22.7738 71.0199C22.6558 77.0266 19.4698 82.3266 14.6318 85.271Z" fill="black"/>
<path d="M14.278 56.7688C14.396 56.7688 14.514 56.7688 14.632 56.7688C9.794 53.9422 6.49 48.6422 6.49 42.5177C6.49 36.3933 9.794 31.211 14.632 28.2666C14.514 28.2666 14.396 28.2666 14.278 28.2666C6.372 28.3844 0 34.7444 0 42.5177C0 50.291 6.372 56.7688 14.278 56.7688Z" fill="black"/>
<path d="M22.6562 14.0156C22.6562 20.0222 19.3522 25.3222 14.5142 28.2667C14.6322 28.2667 14.7502 28.2667 14.8682 28.2667C22.7742 28.2667 29.1462 21.9067 29.1462 14.0156C29.1462 6.94889 24.0722 1.17778 17.4642 0H14.9862C19.5882 2.94444 22.6562 8.12667 22.6562 14.0156Z" fill="black"/>
<path d="M192.222 142.276C192.104 142.276 191.986 142.276 191.868 142.276C183.962 142.276 177.59 148.636 177.59 156.527C177.59 157.351 177.708 158.176 177.826 159H184.198C184.08 158.176 183.962 157.351 183.962 156.527C184.08 150.402 187.384 145.102 192.222 142.276Z" fill="black"/>
<path d="M192.576 113.656C192.458 113.656 192.34 113.656 192.222 113.656C197.06 116.482 200.364 121.782 200.364 127.907C200.364 134.031 197.06 139.213 192.222 142.158C192.34 142.158 192.458 142.158 192.576 142.158C200.482 142.158 206.854 135.798 206.854 127.907C206.854 120.016 200.482 113.656 192.576 113.656Z" fill="black"/>
<path d="M184.08 99.4044C184.08 93.3978 187.384 88.0978 192.222 85.1533C192.104 85.1533 191.986 85.1533 191.868 85.1533C183.962 85.1533 177.59 91.5133 177.59 99.4044C177.59 107.296 183.962 113.656 191.868 113.656C191.986 113.656 192.104 113.656 192.222 113.656C187.384 110.829 184.08 105.529 184.08 99.4044Z" fill="black"/>
<path d="M162.604 142.276C162.486 142.276 162.368 142.276 162.25 142.276C154.344 142.276 147.972 148.636 147.972 156.527C147.972 157.351 148.09 158.176 148.208 159H154.58C154.462 158.176 154.344 157.351 154.344 156.527C154.462 150.402 157.648 145.102 162.604 142.276Z" fill="black"/>
<path d="M162.84 113.656C162.722 113.656 162.604 113.656 162.486 113.656C167.324 116.482 170.628 121.782 170.628 127.907C170.628 134.031 167.324 139.213 162.486 142.158C162.604 142.158 162.722 142.158 162.84 142.158C170.746 142.158 177.118 135.798 177.118 127.907C177.118 120.016 170.746 113.656 162.84 113.656Z" fill="black"/>
<path d="M154.462 99.4044C154.462 93.3978 157.766 88.0978 162.604 85.1533C162.486 85.1533 162.368 85.1533 162.25 85.1533C154.344 85.1533 147.972 91.5133 147.972 99.4044C147.972 107.296 154.344 113.656 162.25 113.656C162.368 113.656 162.486 113.656 162.604 113.656C157.648 110.829 154.462 105.529 154.462 99.4044Z" fill="black"/>
<path d="M132.868 142.276C132.75 142.276 132.632 142.276 132.514 142.276C124.608 142.276 118.236 148.636 118.236 156.527C118.236 157.351 118.354 158.176 118.472 159H124.844C124.726 158.176 124.608 157.351 124.608 156.527C124.726 150.402 128.03 145.102 132.868 142.276Z" fill="black"/>
<path d="M133.222 113.656C133.104 113.656 132.986 113.656 132.868 113.656C137.706 116.482 141.01 121.782 141.01 127.907C141.01 134.031 137.706 139.213 132.868 142.158C132.986 142.158 133.104 142.158 133.222 142.158C141.128 142.158 147.5 135.798 147.5 127.907C147.5 120.016 141.01 113.656 133.222 113.656Z" fill="black"/>
<path d="M124.726 99.4044C124.726 93.3978 128.03 88.0978 132.868 85.1533C132.75 85.1533 132.632 85.1533 132.514 85.1533C124.608 85.1533 118.236 91.5133 118.236 99.4044C118.236 107.296 124.608 113.656 132.514 113.656C132.632 113.656 132.75 113.656 132.868 113.656C128.03 110.829 124.726 105.529 124.726 99.4044Z" fill="black"/>
<path d="M103.132 142.276C103.014 142.276 102.896 142.276 102.778 142.276C94.872 142.276 88.5 148.636 88.5 156.527C88.5 157.351 88.618 158.176 88.736 159H95.108C94.99 158.176 94.872 157.351 94.872 156.527C94.99 150.402 98.294 145.102 103.132 142.276Z" fill="black"/>
<path d="M103.486 113.656C103.368 113.656 103.25 113.656 103.132 113.656C107.97 116.482 111.274 121.782 111.274 127.907C111.274 134.031 107.97 139.213 103.132 142.158C103.25 142.158 103.368 142.158 103.486 142.158C111.392 142.158 117.764 135.798 117.764 127.907C117.764 120.016 111.392 113.656 103.486 113.656Z" fill="black"/>
<path d="M94.99 99.4044C94.99 93.3978 98.294 88.0978 103.132 85.1533C103.014 85.1533 102.896 85.1533 102.778 85.1533C94.872 85.1533 88.5 91.5133 88.5 99.4044C88.5 107.296 94.872 113.656 102.778 113.656C102.896 113.656 103.014 113.656 103.132 113.656C98.294 110.829 94.99 105.529 94.99 99.4044Z" fill="black"/>
<path d="M73.3962 142.276C73.2782 142.276 73.1602 142.276 73.0422 142.276C65.1362 142.276 58.7642 148.636 58.7642 156.527C58.7642 157.351 58.8822 158.176 59.0002 159H65.3722C65.2542 158.176 65.1362 157.351 65.1362 156.527C65.3722 150.402 68.5582 145.102 73.3962 142.276Z" fill="black"/>
<path d="M73.75 113.656C73.632 113.656 73.514 113.656 73.396 113.656C78.234 116.482 81.538 121.782 81.538 127.907C81.538 134.031 78.234 139.213 73.396 142.158C73.514 142.158 73.632 142.158 73.75 142.158C81.656 142.158 88.028 135.798 88.028 127.907C88.028 120.016 81.656 113.656 73.75 113.656Z" fill="black"/>
<path d="M65.3718 99.4044C65.3718 93.3978 68.6758 88.0978 73.5138 85.1533C73.3958 85.1533 73.2778 85.1533 73.1598 85.1533C65.2538 85.1533 58.8818 91.5133 58.8818 99.4044C58.8818 107.296 65.2538 113.656 73.1598 113.656C73.2778 113.656 73.3958 113.656 73.5138 113.656C68.5578 110.829 65.3718 105.529 65.3718 99.4044Z" fill="black"/>
<path d="M43.778 142.276C43.66 142.276 43.542 142.276 43.424 142.276C35.518 142.276 29.146 148.636 29.146 156.527C29.146 157.351 29.264 158.176 29.382 159H35.754C35.636 158.176 35.518 157.351 35.518 156.527C35.636 150.402 38.822 145.102 43.778 142.276Z" fill="black"/>
<path d="M44.0142 113.656C43.8962 113.656 43.7782 113.656 43.6602 113.656C48.4982 116.482 51.8022 121.782 51.8022 127.907C51.8022 134.031 48.4982 139.213 43.6602 142.158C43.7782 142.158 43.8962 142.158 44.0142 142.158C51.9202 142.158 58.2922 135.798 58.2922 127.907C58.2922 120.016 51.9202 113.656 44.0142 113.656Z" fill="black"/>
<path d="M35.636 99.4044C35.636 93.3978 38.94 88.0978 43.778 85.1533C43.66 85.1533 43.542 85.1533 43.424 85.1533C35.518 85.1533 29.146 91.5133 29.146 99.4044C29.146 107.296 35.518 113.656 43.424 113.656C43.542 113.656 43.66 113.656 43.778 113.656C38.822 110.829 35.636 105.529 35.636 99.4044Z" fill="black"/>
<path d="M200.364 71.0199C200.364 77.0266 197.06 82.3266 192.222 85.271C192.34 85.271 192.458 85.271 192.576 85.271C200.482 85.271 206.854 78.911 206.854 71.0199C206.854 63.1288 200.482 56.7688 192.576 56.7688C192.458 56.7688 192.34 56.7688 192.222 56.7688C197.178 59.7132 200.364 65.0132 200.364 71.0199Z" fill="black"/>
<path d="M191.986 56.7688C192.104 56.7688 192.222 56.7688 192.34 56.7688C187.502 53.9422 184.198 48.6422 184.198 42.5177C184.198 36.3933 187.502 31.211 192.34 28.2666C192.222 28.2666 192.104 28.2666 191.986 28.2666C184.08 28.2666 177.708 34.6266 177.708 42.5177C177.708 50.4088 184.08 56.7688 191.986 56.7688Z" fill="black"/>
<path d="M200.364 14.0156C200.364 20.0222 197.06 25.3222 192.222 28.2667C192.34 28.2667 192.458 28.2667 192.576 28.2667C200.482 28.2667 206.854 21.9067 206.854 14.0156C206.854 7.06667 201.78 1.17778 195.172 0H192.694C197.296 2.94444 200.364 8.12667 200.364 14.0156Z" fill="black"/>
<path d="M162.84 56.7688C162.722 56.7688 162.604 56.7688 162.486 56.7688C167.324 59.5955 170.628 64.8955 170.628 71.0199C170.628 77.0266 167.324 82.3266 162.486 85.271C162.604 85.271 162.722 85.271 162.84 85.271C170.746 85.271 177.118 78.911 177.118 71.0199C177.118 63.1288 170.746 56.7688 162.84 56.7688Z" fill="black"/>
<path d="M162.25 56.7688C162.368 56.7688 162.486 56.7688 162.604 56.7688C157.766 53.9422 154.462 48.6422 154.462 42.5177C154.462 36.3933 157.766 31.211 162.604 28.2666C162.486 28.2666 162.368 28.2666 162.25 28.2666C154.344 28.2666 147.972 34.6266 147.972 42.5177C147.972 50.4088 154.344 56.7688 162.25 56.7688Z" fill="black"/>
<path d="M170.628 14.0156C170.628 20.0222 167.324 25.3222 162.486 28.2667C162.604 28.2667 162.722 28.2667 162.84 28.2667C170.746 28.2667 177.118 21.9067 177.118 14.0156C177.118 7.06667 172.044 1.17778 165.436 0H162.958C167.56 2.94444 170.628 8.12667 170.628 14.0156Z" fill="black"/>
<path d="M133.222 56.7688C133.104 56.7688 132.986 56.7688 132.868 56.7688C137.706 59.5955 141.01 64.8955 141.01 71.0199C141.01 77.0266 137.706 82.3266 132.868 85.271C132.986 85.271 133.104 85.271 133.222 85.271C141.128 85.271 147.5 78.911 147.5 71.0199C147.382 63.1288 141.01 56.7688 133.222 56.7688Z" fill="black"/>
<path d="M132.514 56.7688C132.632 56.7688 132.75 56.7688 132.868 56.7688C128.03 53.9422 124.726 48.6422 124.726 42.5177C124.726 36.3933 128.03 31.211 132.868 28.2666C132.75 28.2666 132.632 28.2666 132.514 28.2666C124.608 28.2666 118.236 34.6266 118.236 42.5177C118.236 50.4088 124.608 56.7688 132.514 56.7688Z" fill="black"/>
<path d="M141.01 14.0156C141.01 20.0222 137.706 25.3222 132.868 28.2667C132.986 28.2667 133.104 28.2667 133.222 28.2667C141.128 28.2667 147.5 21.9067 147.5 14.0156C147.5 7.06667 142.426 1.17778 135.818 0H133.34C137.824 2.94444 141.01 8.12667 141.01 14.0156Z" fill="black"/>
<path d="M103.486 56.7688C103.368 56.7688 103.25 56.7688 103.132 56.7688C107.97 59.5955 111.274 64.8955 111.274 71.0199C111.274 77.0266 107.97 82.3266 103.132 85.271C103.25 85.271 103.368 85.271 103.486 85.271C111.392 85.271 117.764 78.911 117.764 71.0199C117.764 63.1288 111.392 56.7688 103.486 56.7688Z" fill="black"/>
<path d="M102.778 56.7688C102.896 56.7688 103.014 56.7688 103.132 56.7688C98.294 53.9422 94.99 48.6422 94.99 42.5177C94.99 36.3933 98.294 31.211 103.132 28.2666C103.014 28.2666 102.896 28.2666 102.778 28.2666C94.872 28.2666 88.5 34.6266 88.5 42.5177C88.5 50.4088 94.99 56.7688 102.778 56.7688Z" fill="black"/>
<path d="M111.274 14.0156C111.274 20.0222 107.97 25.3222 103.132 28.2667C103.25 28.2667 103.368 28.2667 103.486 28.2667C111.392 28.2667 117.764 21.9067 117.764 14.0156C117.764 6.94889 112.69 1.17778 105.964 0H103.486C108.206 2.94444 111.274 8.12667 111.274 14.0156Z" fill="black"/>
<path d="M73.75 56.7688C73.632 56.7688 73.514 56.7688 73.396 56.7688C78.234 59.5955 81.538 64.8955 81.538 71.0199C81.538 77.0266 78.234 82.3266 73.396 85.271C73.514 85.271 73.632 85.271 73.75 85.271C81.656 85.271 88.028 78.911 88.028 71.0199C88.028 63.1288 81.656 56.7688 73.75 56.7688Z" fill="black"/>
<path d="M73.1598 56.7688C73.2778 56.7688 73.3958 56.7688 73.5138 56.7688C68.6758 53.9422 65.3718 48.6422 65.3718 42.5177C65.3718 36.3933 68.6758 31.211 73.5138 28.2666C73.3958 28.2666 73.2778 28.2666 73.1598 28.2666C65.2538 28.2666 58.8818 34.6266 58.8818 42.5177C58.8818 50.4088 65.2538 56.7688 73.1598 56.7688Z" fill="black"/>
<path d="M81.538 14.0156C81.538 20.0222 78.234 25.3222 73.396 28.2667C73.514 28.2667 73.632 28.2667 73.75 28.2667C81.656 28.2667 88.028 21.9067 88.028 14.0156C88.028 6.94889 82.954 1.17778 76.346 0H73.868C78.47 2.94444 81.538 8.12667 81.538 14.0156Z" fill="black"/>
<path d="M44.0142 56.7688C43.8962 56.7688 43.7782 56.7688 43.6602 56.7688C48.4982 59.5955 51.8022 64.8955 51.8022 71.0199C51.8022 77.0266 48.4982 82.3266 43.6602 85.271C43.7782 85.271 43.8962 85.271 44.0142 85.271C51.9202 85.271 58.2922 78.911 58.2922 71.0199C58.2922 63.1288 51.9202 56.7688 44.0142 56.7688Z" fill="black"/>
<path d="M43.424 56.7688C43.542 56.7688 43.66 56.7688 43.778 56.7688C38.94 53.9422 35.636 48.6422 35.636 42.5177C35.636 36.3933 38.94 31.211 43.778 28.2666C43.66 28.2666 43.542 28.2666 43.424 28.2666C35.518 28.2666 29.146 34.6266 29.146 42.5177C29.146 50.4088 35.518 56.7688 43.424 56.7688Z" fill="black"/>
<path d="M51.9198 14.0156C51.9198 20.0222 48.6158 25.3222 43.7778 28.2667C43.8958 28.2667 44.0138 28.2667 44.1318 28.2667C52.0378 28.2667 58.4098 21.9067 58.4098 14.0156C58.2918 6.94889 53.2178 1.17778 46.6098 0H44.1318C48.7338 2.94444 51.9198 8.12667 51.9198 14.0156Z" fill="black"/>
<path d="M221.368 142.276C221.25 142.276 221.132 142.276 221.014 142.276C213.108 142.276 206.736 148.636 206.736 156.527C206.736 157.351 206.854 158.176 206.972 159H213.344C213.226 158.176 213.108 157.351 213.108 156.527C213.344 150.402 216.53 145.102 221.368 142.276Z" fill="black"/>
<path d="M221.368 85.2711C221.25 85.2711 221.132 85.2711 221.014 85.2711C213.108 85.2711 206.736 91.6311 206.736 99.5222C206.736 107.413 213.108 113.773 221.014 113.773C221.132 113.773 221.25 113.773 221.368 113.773C216.53 110.947 213.226 105.647 213.226 99.5222C213.344 93.3978 216.53 88.0978 221.368 85.2711Z" fill="black"/>
<path d="M221.368 28.3845C221.25 28.3845 221.132 28.3845 221.014 28.3845C213.108 28.3845 206.736 34.7445 206.736 42.6356C206.736 50.5267 213.108 56.8867 221.014 56.8867C221.132 56.8867 221.25 56.8867 221.368 56.8867C216.53 54.0601 213.226 48.7601 213.226 42.6356C213.226 36.5112 216.53 31.2112 221.368 28.3845Z" fill="black"/>
</g>
</svg>
