<svg version="1.1" id="Layer_1" xmlns="http://www.w3.org/2000/svg" xmlns:xlink="http://www.w3.org/1999/xlink" x="0px" y="0px"
	 viewBox="0 0 488 529.7" style="enable-background:new 0 0 488 529.7;" xml:space="preserve" width="488" height="529">
	 <style>
	 path {
		fill:black;
	 }
	 </style>
<g>
	<path d="M481.7,25.8l1.5-6.3c-0.6-1.7-0.9-3.5-0.9-5.3c0-4.7,2-9,5.1-12L488,0l-12.1,12.7c0,0.5-0.1,1-0.1,1.4
		C475.8,18.9,478.2,23.1,481.7,25.8z"/>
	<path d="M409.1,100.9c0,6.1-3.3,11.5-8.2,14.4c0.1,0,0.2,0,0.3,0c8,0,14.4-6.5,14.4-14.4c0-6.6-4.4-12.1-10.4-13.9l-1.5,1.6
		C407,91.7,409.1,96.1,409.1,100.9z"/>
	<path d="M445.6,44.6l-12.1,12.7C440,56.3,445,51.1,445.6,44.6z"/>
	<path d="M430.6,86.5c0.1,0,0.2,0,0.3,0c-4.9-2.9-8.2-8.3-8.2-14.4c0-1.3,0.2-2.6,0.5-3.8l-6.6,7C418,81.7,423.7,86.5,430.6,86.5z"
		/>
	<path d="M431.3,86.5c-0.1,0-0.2,0-0.3,0c4.9,2.9,8.2,8.3,8.2,14.4s-3.3,11.5-8.2,14.4c0.1,0,0.2,0,0.3,0c8,0,14.4-6.5,14.4-14.4
		C445.7,93,439.3,86.5,431.3,86.5z"/>
	<path d="M460.9,28.5L460.9,28.5c0,0.1,0.1,0.1,0.1,0.1C461,28.5,461,28.5,460.9,28.5z"/>
	<path d="M461.1,57.5c0.1,0,0.2,0,0.3,0c8,0,14.4-6.5,14.4-14.4c0-8-6.5-14.4-14.4-14.4c-0.1,0-0.2,0-0.3,0
		c4.9,2.9,8.2,8.3,8.2,14.4C469.3,49.2,466,54.5,461.1,57.5z"/>
	<path d="M460.7,86.5c0.1,0,0.2,0,0.3,0c-4.9-2.9-8.2-8.3-8.2-14.4c0-6.1,3.3-11.5,8.2-14.4c-0.1,0-0.2,0-0.3,0
		c-8,0-14.4,6.5-14.4,14.4C446.3,80,452.8,86.5,460.7,86.5z"/>
	<path d="M461.1,86.5c1.9,1.1,3.5,2.6,4.8,4.3l0.8-3.3c-1.6-0.6-3.4-1-5.3-1C461.3,86.5,461.2,86.5,461.1,86.5z"/>
	<path d="M310.2,202.2c0.1,0,0.2,0,0.3,0c-3.1-1.8-5.6-4.7-7-8.1l-3.6,3.8C302.6,200.5,306.2,202.2,310.2,202.2z"/>
	<path d="M310.9,202.2c-0.1,0-0.2,0-0.3,0c4.9,2.9,8.2,8.3,8.2,14.4c0,6.1-3.3,11.5-8.2,14.4c0.1,0,0.2,0,0.3,0
		c8,0,14.4-6.5,14.4-14.4C325.3,208.6,318.8,202.2,310.9,202.2z"/>
	<path d="M340.6,173.1c0.1,0,0.2,0,0.3,0c8,0,14.4-6.5,14.4-14.4c0-5.1-2.7-9.6-6.7-12.2l-2.7,2.8c1.8,2.7,2.8,5.9,2.8,9.3
		C348.9,164.8,345.6,170.2,340.6,173.1z"/>
	<path d="M340.3,202.2c0.1,0,0.2,0,0.3,0c-4.9-2.9-8.2-8.3-8.2-14.4c0-6.1,3.3-11.5,8.2-14.4c-0.1,0-0.2,0-0.3,0
		c-8,0-14.4,6.5-14.4,14.4S332.3,202.2,340.3,202.2z"/>
	<path d="M341,202.2c-0.1,0-0.2,0-0.3,0c4.9,2.9,8.2,8.3,8.2,14.4c0,6.1-3.3,11.5-8.2,14.4c0.1,0,0.2,0,0.3,0
		c8,0,14.4-6.5,14.4-14.4C355.4,208.6,348.9,202.2,341,202.2z"/>
	<path d="M370.4,144.3c0.1,0,0.2,0,0.3,0c-4.4-2.6-7.4-7.1-8.1-12.3l-4.8,5C360.3,141.3,365,144.3,370.4,144.3z"/>
	<path d="M371.1,144.3c-0.1,0-0.2,0-0.3,0c4.9,2.9,8.2,8.3,8.2,14.4c0,6.1-3.3,11.5-8.2,14.4c0.1,0,0.2,0,0.3,0
		c8,0,14.4-6.5,14.4-14.4S379,144.3,371.1,144.3z"/>
	<path d="M370.4,202.2c0.1,0,0.2,0,0.3,0c-4.9-2.9-8.2-8.3-8.2-14.4c0-6.1,3.3-11.5,8.2-14.4c-0.1,0-0.2,0-0.3,0
		c-8,0-14.4,6.5-14.4,14.4S362.4,202.2,370.4,202.2z"/>
	<path d="M371.1,202.2c-0.1,0-0.2,0-0.3,0c4.9,2.9,8.2,8.3,8.2,14.4c0,6.1-3.3,11.5-8.2,14.4c0.1,0,0.2,0,0.3,0
		c8,0,14.4-6.5,14.4-14.4C385.5,208.6,379,202.2,371.1,202.2z"/>
	<path d="M400.5,144.3c0.1,0,0.2,0,0.3,0c-4.9-2.9-8.2-8.3-8.2-14.4c0-6.1,3.3-11.5,8.2-14.4c-0.1,0-0.2,0-0.3,0
		c-8,0-14.4,6.5-14.4,14.4C386.1,137.8,392.5,144.3,400.5,144.3z"/>
	<path d="M401.2,144.3c-0.1,0-0.2,0-0.3,0c4.9,2.9,8.2,8.3,8.2,14.4c0,6.1-3.3,11.5-8.2,14.4c0.1,0,0.2,0,0.3,0
		c8,0,14.4-6.5,14.4-14.4S409.2,144.3,401.2,144.3z"/>
	<path d="M400.5,202.2c0.1,0,0.2,0,0.3,0c-4.9-2.9-8.2-8.3-8.2-14.4c0-6.1,3.3-11.5,8.2-14.4c-0.1,0-0.2,0-0.3,0
		c-8,0-14.4,6.5-14.4,14.4S392.5,202.2,400.5,202.2z"/>
	<path d="M401.2,202.2c-0.1,0-0.2,0-0.3,0c4.9,2.9,8.2,8.3,8.2,14.4c0,6.1-3.3,11.5-8.2,14.4c0.1,0,0.2,0,0.3,0
		c8,0,14.4-6.5,14.4-14.4C415.6,208.6,409.2,202.2,401.2,202.2z"/>
	<path d="M430.6,144.3c0.1,0,0.2,0,0.3,0c-4.9-2.9-8.2-8.3-8.2-14.4c0-6.1,3.3-11.5,8.2-14.4c-0.1,0-0.2,0-0.3,0
		c-8,0-14.4,6.5-14.4,14.4C416.2,137.8,422.6,144.3,430.6,144.3z"/>
	<path d="M431.3,144.3c-0.1,0-0.2,0-0.3,0c4.9,2.9,8.2,8.3,8.2,14.4c0,6.1-3.3,11.5-8.2,14.4c0.1,0,0.2,0,0.3,0
		c8,0,14.4-6.5,14.4-14.4S439.3,144.3,431.3,144.3z"/>
	<path d="M431,173.3c-0.1,0-0.2,0-0.3,0c-8,0-14.4,6.5-14.4,14.4s6.5,14.4,14.4,14.4c0.1,0,0.2,0,0.3,0c-4.9-2.9-8.2-8.3-8.2-14.4
		C422.7,181.6,426,176.2,431,173.3z"/>
	<path d="M431,202.2c2.6,1.5,4.8,3.8,6.2,6.5l1.1-4.6c-2.1-1.2-4.5-1.8-7-1.8C431.2,202.2,431.1,202.2,431,202.2z"/>
	<path d="M431.3,231.1c0.1,0,0.3,0,0.4,0l0.1-0.6c-0.3,0.2-0.6,0.4-0.9,0.6C431.1,231,431.2,231.1,431.3,231.1z"/>
	<path d="M446.3,129.8c0,5.3,2.8,9.9,7.1,12.4l1.2-5c-1.1-2.2-1.7-4.8-1.7-7.4c0-5.5,2.7-10.4,6.8-13.5l0.2-0.9
		C452.3,115.9,446.3,122.1,446.3,129.8z"/>
	<path d="M310.2,259.9c0.1,0,0.2,0,0.3,0c-4.9-2.9-8.2-8.3-8.2-14.4s3.3-11.5,8.2-14.4c-0.1,0-0.2,0-0.3,0c-8,0-14.4,6.5-14.4,14.4
		C295.7,253.5,302.2,259.9,310.2,259.9z"/>
	<path d="M310.9,259.9c-0.1,0-0.2,0-0.3,0c4.9,2.9,8.2,8.3,8.2,14.4s-3.3,11.5-8.2,14.4c0.1,0,0.2,0,0.3,0c8,0,14.4-6.5,14.4-14.4
		C325.3,266.4,318.8,259.9,310.9,259.9z"/>
	<path d="M310.5,289c-0.1,0-0.2,0-0.3,0c-8,0-14.4,6.5-14.4,14.4c0,8,6.5,14.4,14.4,14.4c0.1,0,0.2,0,0.3,0
		c-4.9-2.9-8.2-8.3-8.2-14.4C302.3,297.3,305.6,291.9,310.5,289z"/>
	<path d="M310.9,317.8c-0.1,0-0.2,0-0.3,0c4.9,2.9,8.2,8.3,8.2,14.4c0,6.1-3.3,11.5-8.2,14.4c0.1,0,0.2,0,0.3,0
		c8,0,14.4-6.5,14.4-14.4S318.8,317.8,310.9,317.8z"/>
	<path d="M340.3,259.9c0.1,0,0.2,0,0.3,0c-4.9-2.9-8.2-8.3-8.2-14.4s3.3-11.5,8.2-14.4c-0.1,0-0.2,0-0.3,0c-8,0-14.4,6.5-14.4,14.4
		C325.9,253.5,332.3,259.9,340.3,259.9z"/>
	<path d="M341,259.9c-0.1,0-0.2,0-0.3,0c4.9,2.9,8.2,8.3,8.2,14.4s-3.3,11.5-8.2,14.4c0.1,0,0.2,0,0.3,0c8,0,14.4-6.5,14.4-14.4
		C355.4,266.4,348.9,259.9,341,259.9z"/>
	<path d="M340.3,317.8c0.1,0,0.2,0,0.3,0c-4.9-2.9-8.2-8.3-8.2-14.4c0-6.1,3.3-11.5,8.2-14.4c-0.1,0-0.2,0-0.3,0
		c-8,0-14.4,6.5-14.4,14.4C325.9,311.4,332.3,317.8,340.3,317.8z"/>
	<path d="M341,317.8c-0.1,0-0.2,0-0.3,0c4.9,2.9,8.2,8.3,8.2,14.4c0,6.1-3.3,11.5-8.2,14.4c0.1,0,0.2,0,0.3,0
		c8,0,14.4-6.5,14.4-14.4S348.9,317.8,341,317.8z"/>
	<path d="M370.4,259.9c0.1,0,0.2,0,0.3,0c-4.9-2.9-8.2-8.3-8.2-14.4s3.3-11.5,8.2-14.4c-0.1,0-0.2,0-0.3,0c-8,0-14.4,6.5-14.4,14.4
		C356,253.5,362.4,259.9,370.4,259.9z"/>
	<path d="M371.1,259.9c-0.1,0-0.2,0-0.3,0c4.9,2.9,8.2,8.3,8.2,14.4s-3.3,11.5-8.2,14.4c0.1,0,0.2,0,0.3,0c8,0,14.4-6.5,14.4-14.4
		C385.5,266.4,379,259.9,371.1,259.9z"/>
	<path d="M370.4,317.8c0.1,0,0.2,0,0.3,0c-4.9-2.9-8.2-8.3-8.2-14.4c0-6.1,3.3-11.5,8.2-14.4c-0.1,0-0.2,0-0.3,0
		c-8,0-14.4,6.5-14.4,14.4C356,311.4,362.4,317.8,370.4,317.8z"/>
	<path d="M371.1,317.8c-0.1,0-0.2,0-0.3,0c4.9,2.9,8.2,8.3,8.2,14.4c0,6.1-3.3,11.5-8.2,14.4c0.1,0,0.2,0,0.3,0
		c8,0,14.4-6.5,14.4-14.4S379,317.8,371.1,317.8z"/>
	<path d="M400.5,259.9c0.1,0,0.2,0,0.3,0c-4.9-2.9-8.2-8.3-8.2-14.4s3.3-11.5,8.2-14.4c-0.1,0-0.2,0-0.3,0c-8,0-14.4,6.5-14.4,14.4
		C386.1,253.5,392.5,259.9,400.5,259.9z"/>
	<path d="M401.2,259.9c-0.1,0-0.2,0-0.3,0c4.9,2.9,8.2,8.3,8.2,14.4s-3.3,11.5-8.2,14.4c0.1,0,0.2,0,0.3,0c8,0,14.4-6.5,14.4-14.4
		C415.6,266.4,409.2,259.9,401.2,259.9z"/>
	<path d="M400.8,289c-0.1,0-0.2,0-0.3,0c-8,0-14.4,6.5-14.4,14.4c0,8,6.5,14.4,14.4,14.4c0.1,0,0.2,0,0.3,0
		c-4.9-2.9-8.2-8.3-8.2-14.4C392.6,297.3,395.9,291.9,400.8,289z"/>
	<path d="M401.2,346.7c0.8,0,1.6-0.1,2.4-0.2l0.6-2.4c-1,1-2.1,1.9-3.3,2.6C401,346.7,401.1,346.7,401.2,346.7z"/>
	<path d="M400.8,317.9c3.5,2.1,6.2,5.4,7.4,9.4l1.6-6.4c-2.4-1.8-5.4-2.9-8.7-2.9C401.1,317.8,401,317.8,400.8,317.9z"/>
	<path d="M431,231.1c-0.1,0-0.2,0-0.3,0c-8,0-14.4,6.5-14.4,14.4c0,6,3.6,11.1,8.8,13.3l0.9-3.6c-2-2.7-3.1-6.1-3.1-9.7
		C422.7,239.3,426,234,431,231.1z"/>
	<path d="M310.5,346.7c-0.1,0-0.2,0-0.3,0c-8,0-14.4,6.5-14.4,14.4s6.5,14.4,14.4,14.4c0.1,0,0.2,0,0.3,0c-4.9-2.9-8.2-8.3-8.2-14.4
		C302.3,355,305.6,349.7,310.5,346.7z"/>
	<path d="M310.9,375.6c-0.1,0-0.2,0-0.3,0c4.9,2.9,8.2,8.3,8.2,14.4c0,6.1-3.3,11.5-8.2,14.4c0.1,0,0.2,0,0.3,0
		c8,0,14.4-6.5,14.4-14.4C325.3,382.1,318.8,375.6,310.9,375.6z"/>
	<path d="M310.5,404.6c-0.1,0-0.2,0-0.3,0c-8,0-14.4,6.5-14.4,14.4c0,8,6.5,14.4,14.4,14.4c0.1,0,0.2,0,0.3,0
		c-4.9-2.9-8.2-8.3-8.2-14.4S305.6,407.6,310.5,404.6z"/>
	<path d="M310.9,433.5c-0.1,0-0.2,0-0.3,0c4.9,2.9,8.2,8.3,8.2,14.4s-3.3,11.5-8.2,14.4c0.1,0,0.2,0,0.3,0c8,0,14.4-6.5,14.4-14.4
		C325.3,440,318.8,433.5,310.9,433.5z"/>
	<path d="M340.3,375.6c0.1,0,0.2,0,0.3,0c-4.9-2.9-8.2-8.3-8.2-14.4c0-6.1,3.3-11.5,8.2-14.4c-0.1,0-0.2,0-0.3,0
		c-8,0-14.4,6.5-14.4,14.4S332.3,375.6,340.3,375.6z"/>
	<path d="M341,375.6c-0.1,0-0.2,0-0.3,0c4.9,2.9,8.2,8.3,8.2,14.4c0,6.1-3.3,11.5-8.2,14.4c0.1,0,0.2,0,0.3,0
		c8,0,14.4-6.5,14.4-14.4C355.4,382.1,348.9,375.6,341,375.6z"/>
	<path d="M340.3,433.5c0.1,0,0.2,0,0.3,0c-4.9-2.9-8.2-8.3-8.2-14.4s3.3-11.5,8.2-14.4c-0.1,0-0.2,0-0.3,0c-8,0-14.4,6.5-14.4,14.4
		C325.9,427.1,332.3,433.5,340.3,433.5z"/>
	<path d="M341,433.5c-0.1,0-0.2,0-0.3,0c4.9,2.9,8.2,8.3,8.2,14.4s-3.3,11.5-8.2,14.4c0.1,0,0.2,0,0.3,0c8,0,14.4-6.5,14.4-14.4
		C355.4,440,348.9,433.5,341,433.5z"/>
	<path d="M370.4,375.6c0.1,0,0.2,0,0.3,0c-4.9-2.9-8.2-8.3-8.2-14.4c0-6.1,3.3-11.5,8.2-14.4c-0.1,0-0.2,0-0.3,0
		c-8,0-14.4,6.5-14.4,14.4S362.4,375.6,370.4,375.6z"/>
	<path d="M371.1,375.6c-0.1,0-0.2,0-0.3,0c4.9,2.9,8.2,8.3,8.2,14.4c0,6.1-3.3,11.5-8.2,14.4c0.1,0,0.2,0,0.3,0
		c8,0,14.4-6.5,14.4-14.4C385.5,382.1,379,375.6,371.1,375.6z"/>
	<path d="M370.7,404.6c-0.1,0-0.2,0-0.3,0c-8,0-14.4,6.5-14.4,14.4c0,8,6.5,14.4,14.4,14.4c0.1,0,0.2,0,0.3,0
		c-4.9-2.9-8.2-8.3-8.2-14.4S365.8,407.6,370.7,404.6z"/>
	<path d="M370.7,462.4c0.1,0,0.2,0,0.3,0c1.6,0,3.1-0.3,4.5-0.7l1.4-5.7C375.5,458.6,373.3,460.9,370.7,462.4z"/>
	<path d="M371.1,433.5c-0.1,0-0.2,0-0.3,0c4.8,2.9,8.1,8.1,8.2,14.1l2.4-9.8C378.7,435.2,375.1,433.5,371.1,433.5z"/>
	<path d="M400.8,346.7c-0.1,0-0.2,0-0.3,0c-8,0-14.4,6.5-14.4,14.4c0,6.6,4.5,12.2,10.6,13.9l0.6-2.4c-2.8-3-4.6-7.1-4.6-11.5
		C392.6,355,395.9,349.7,400.8,346.7z"/>
	<path d="M310.5,462.4c-0.1,0-0.2,0-0.3,0c-8,0-14.4,6.5-14.4,14.4c0,8,6.5,14.4,14.4,14.4c0.1,0,0.2,0,0.3,0
		c-4.9-2.9-8.2-8.3-8.2-14.4C302.3,470.7,305.6,465.3,310.5,462.4z"/>
	<path d="M310.9,491.3c-0.1,0-0.2,0-0.3,0c4.5,2.6,7.6,7.3,8.1,12.7c2.3,0.2,4.5,0.5,6.6,0.7C324.7,497.2,318.5,491.3,310.9,491.3z"
		/>
	<path d="M340.6,462.4c-0.1,0-0.2,0-0.3,0c-8,0-14.4,6.5-14.4,14.4c0,8,6.5,14.4,14.4,14.4c0.1,0,0.2,0,0.3,0
		c-4.9-2.9-8.2-8.3-8.2-14.4C332.4,470.7,335.7,465.3,340.6,462.4z"/>
	<path d="M355.4,505.7c0-8-6.5-14.4-14.4-14.4c-0.1,0-0.2,0-0.3,0c4.9,2.9,8.2,8.3,8.2,14.4c0,0.8-0.1,1.6-0.2,2.4
		c2.3,0.5,4.4,1,6.2,1.5C355.2,508.4,355.4,507.1,355.4,505.7z"/>
	<path d="M362.5,476.8c0-6.1,3.3-11.5,8.2-14.4c-0.1,0-0.2,0-0.3,0c-8,0-14.4,6.5-14.4,14.4c0,7.3,5.4,13.3,12.4,14.3l0.3-1.3
		C364.9,486.8,362.5,482.1,362.5,476.8z"/>
	<path d="M281,231c0.1,0,0.2,0,0.3,0c8,0,14.4-6.5,14.4-14.4c0-3.9-1.5-7.4-4.1-10l-3.7,3.9c0.8,1.9,1.2,4,1.2,6.2
		C289.2,222.8,285.9,228.1,281,231z"/>
	<path d="M160.5,346.7c0.1,0,0.2,0,0.3,0c8,0,14.4-6.5,14.4-14.4c0-1-0.1-2-0.3-2.9l-6.8,7.1C167.1,340.8,164.3,344.5,160.5,346.7z"
		/>
	<path d="M190.6,317.8c-1-0.6-1.9-1.3-2.7-2l-1.4,1.5c1.2,0.3,2.5,0.5,3.8,0.5C190.4,317.8,190.5,317.8,190.6,317.8z"/>
	<path d="M191,317.8c-0.1,0-0.2,0-0.3,0c4.9,2.9,8.2,8.3,8.2,14.4c0,6.1-3.3,11.5-8.2,14.4c0.1,0,0.2,0,0.3,0
		c8,0,14.4-6.5,14.4-14.4S199,317.8,191,317.8z"/>
	<path d="M220.8,288.8c0.1,0,0.2,0,0.3,0c8,0,14.4-6.5,14.4-14.4c0-2.5-0.6-4.8-1.7-6.9l-4.9,5.2c0.1,0.6,0.1,1.1,0.1,1.7
		C229,280.5,225.7,285.9,220.8,288.8z"/>
	<path d="M220.4,317.8c0.1,0,0.2,0,0.3,0c-4.9-2.9-8.2-8.3-8.2-14.4c0-6.1,3.3-11.5,8.2-14.4c-0.1,0-0.2,0-0.3,0
		c-8,0-14.4,6.5-14.4,14.4C206,311.4,212.4,317.8,220.4,317.8z"/>
	<path d="M221.1,317.8c-0.1,0-0.2,0-0.3,0c4.9,2.9,8.2,8.3,8.2,14.4c0,6.1-3.3,11.5-8.2,14.4c0.1,0,0.2,0,0.3,0
		c8,0,14.4-6.5,14.4-14.4S229.1,317.8,221.1,317.8z"/>
	<path d="M250.9,259.9c-2.1-1.2-3.9-2.9-5.2-4.9l-2.6,2.8c2.2,1.3,4.8,2.1,7.5,2.1C250.6,259.9,250.8,259.9,250.9,259.9z"/>
	<path d="M251.2,259.9c-0.1,0-0.2,0-0.3,0c4.9,2.9,8.2,8.3,8.2,14.4s-3.3,11.5-8.2,14.4c0.1,0,0.2,0,0.3,0c8,0,14.4-6.5,14.4-14.4
		C265.6,266.4,259.2,259.9,251.2,259.9z"/>
	<path d="M250.5,317.8c0.1,0,0.2,0,0.3,0c-4.9-2.9-8.2-8.3-8.2-14.4c0-6.1,3.3-11.5,8.2-14.4c-0.1,0-0.2,0-0.3,0
		c-8,0-14.4,6.5-14.4,14.4C236.1,311.4,242.6,317.8,250.5,317.8z"/>
	<path d="M251.2,317.8c-0.1,0-0.2,0-0.3,0c4.9,2.9,8.2,8.3,8.2,14.4c0,6.1-3.3,11.5-8.2,14.4c0.1,0,0.2,0,0.3,0
		c8,0,14.4-6.5,14.4-14.4S259.2,317.8,251.2,317.8z"/>
	<path d="M280.6,259.9c0.1,0,0.2,0,0.3,0c-4.9-2.9-8.2-8.3-8.2-14.4s3.3-11.5,8.2-14.4c-0.1,0-0.2,0-0.3,0c-8,0-14.4,6.5-14.4,14.4
		C266.2,253.5,272.7,259.9,280.6,259.9z"/>
	<path d="M289.2,274.4c0,6.1-3.3,11.5-8.2,14.4c0.1,0,0.2,0,0.3,0c8,0,14.4-6.5,14.4-14.4c0-8-6.5-14.4-14.4-14.4
		c-0.1,0-0.2,0-0.3,0C285.9,262.9,289.2,268.2,289.2,274.4z"/>
	<path d="M280.6,317.8c0.1,0,0.2,0,0.3,0c-4.9-2.9-8.2-8.3-8.2-14.4c0-6.1,3.3-11.5,8.2-14.4c-0.1,0-0.2,0-0.3,0
		c-8,0-14.4,6.5-14.4,14.4C266.2,311.4,272.7,317.8,280.6,317.8z"/>
	<path d="M281,346.7c0.1,0,0.2,0,0.3,0c8,0,14.4-6.5,14.4-14.4s-6.5-14.4-14.4-14.4c-0.1,0-0.2,0-0.3,0c4.9,2.9,8.2,8.3,8.2,14.4
		C289.2,338.4,285.9,343.8,281,346.7z"/>
	<path d="M138.7,390c0,6.1-3.3,11.5-8.2,14.4c0.1,0,0.2,0,0.3,0c8,0,14.4-6.5,14.4-14.4c0-7.9-6.3-14.3-14.1-14.4l-0.2,0.3
		C135.5,378.8,138.7,384.1,138.7,390z"/>
	<path d="M130.1,433.5c0.1,0,0.2,0,0.3,0c-4.9-2.9-8.2-8.3-8.2-14.4s3.3-11.5,8.2-14.4c-0.1,0-0.2,0-0.3,0c-8,0-14.4,6.5-14.4,14.4
		C115.7,427.1,122.1,433.5,130.1,433.5z"/>
	<path d="M130.8,433.5c-0.1,0-0.2,0-0.3,0c4.9,2.9,8.2,8.3,8.2,14.4s-3.3,11.5-8.2,14.4c0.1,0,0.2,0,0.3,0c8,0,14.4-6.5,14.4-14.4
		C145.2,440,138.7,433.5,130.8,433.5z"/>
	<path d="M160.2,375.6c0.1,0,0.2,0,0.3,0c-4.9-2.9-8.2-8.3-8.2-14.4c0-6.1,3.3-11.5,8.2-14.4c-0.1,0-0.2,0-0.3,0
		c-0.6,0-1.2,0-1.8,0.1l-12.6,13.3c0,0.3-0.1,0.7-0.1,1.1C145.8,369.1,152.2,375.6,160.2,375.6z"/>
	<path d="M160.9,375.6c-0.1,0-0.2,0-0.3,0c4.9,2.9,8.2,8.3,8.2,14.4c0,6.1-3.3,11.5-8.2,14.4c0.1,0,0.2,0,0.3,0
		c8,0,14.4-6.5,14.4-14.4C175.3,382.1,168.9,375.6,160.9,375.6z"/>
	<path d="M160.2,433.5c0.1,0,0.2,0,0.3,0c-4.9-2.9-8.2-8.3-8.2-14.4s3.3-11.5,8.2-14.4c-0.1,0-0.2,0-0.3,0c-8,0-14.4,6.5-14.4,14.4
		C145.8,427.1,152.2,433.5,160.2,433.5z"/>
	<path d="M160.9,433.5c-0.1,0-0.2,0-0.3,0c4.9,2.9,8.2,8.3,8.2,14.4s-3.3,11.5-8.2,14.4c0.1,0,0.2,0,0.3,0c8,0,14.4-6.5,14.4-14.4
		C175.3,440,168.9,433.5,160.9,433.5z"/>
	<path d="M190.3,375.6c0.1,0,0.2,0,0.3,0c-4.9-2.9-8.2-8.3-8.2-14.4c0-6.1,3.3-11.5,8.2-14.4c-0.1,0-0.2,0-0.3,0
		c-8,0-14.4,6.5-14.4,14.4S182.3,375.6,190.3,375.6z"/>
	<path d="M191,375.6c-0.1,0-0.2,0-0.3,0c4.9,2.9,8.2,8.3,8.2,14.4c0,6.1-3.3,11.5-8.2,14.4c0.1,0,0.2,0,0.3,0
		c8,0,14.4-6.5,14.4-14.4C205.4,382.1,199,375.6,191,375.6z"/>
	<path d="M190.3,433.5c0.1,0,0.2,0,0.3,0c-4.9-2.9-8.2-8.3-8.2-14.4s3.3-11.5,8.2-14.4c-0.1,0-0.2,0-0.3,0c-8,0-14.4,6.5-14.4,14.4
		C175.9,427.1,182.3,433.5,190.3,433.5z"/>
	<path d="M191,433.5c-0.1,0-0.2,0-0.3,0c4.9,2.9,8.2,8.3,8.2,14.4s-3.3,11.5-8.2,14.4c0.1,0,0.2,0,0.3,0c8,0,14.4-6.5,14.4-14.4
		C205.4,440,199,433.5,191,433.5z"/>
	<path d="M220.4,375.6c0.1,0,0.2,0,0.3,0c-4.9-2.9-8.2-8.3-8.2-14.4c0-6.1,3.3-11.5,8.2-14.4c-0.1,0-0.2,0-0.3,0
		c-8,0-14.4,6.5-14.4,14.4S212.4,375.6,220.4,375.6z"/>
	<path d="M221.1,375.6c-0.1,0-0.2,0-0.3,0c4.9,2.9,8.2,8.3,8.2,14.4c0,6.1-3.3,11.5-8.2,14.4c0.1,0,0.2,0,0.3,0
		c8,0,14.4-6.5,14.4-14.4C235.5,382.1,229.1,375.6,221.1,375.6z"/>
	<path d="M220.4,433.5c0.1,0,0.2,0,0.3,0c-4.9-2.9-8.2-8.3-8.2-14.4s3.3-11.5,8.2-14.4c-0.1,0-0.2,0-0.3,0c-8,0-14.4,6.5-14.4,14.4
		C206,427.1,212.4,433.5,220.4,433.5z"/>
	<path d="M221.1,433.5c-0.1,0-0.2,0-0.3,0c4.9,2.9,8.2,8.3,8.2,14.4s-3.3,11.5-8.2,14.4c0.1,0,0.2,0,0.3,0c8,0,14.4-6.5,14.4-14.4
		C235.5,440,229.1,433.5,221.1,433.5z"/>
	<path d="M250.5,375.6c0.1,0,0.2,0,0.3,0c-4.9-2.9-8.2-8.3-8.2-14.4c0-6.1,3.3-11.5,8.2-14.4c-0.1,0-0.2,0-0.3,0
		c-8,0-14.4,6.5-14.4,14.4S242.6,375.6,250.5,375.6z"/>
	<path d="M251.2,375.6c-0.1,0-0.2,0-0.3,0c4.9,2.9,8.2,8.3,8.2,14.4c0,6.1-3.3,11.5-8.2,14.4c0.1,0,0.2,0,0.3,0
		c8,0,14.4-6.5,14.4-14.4C265.6,382.1,259.2,375.6,251.2,375.6z"/>
	<path d="M250.5,433.5c0.1,0,0.2,0,0.3,0c-4.9-2.9-8.2-8.3-8.2-14.4s3.3-11.5,8.2-14.4c-0.1,0-0.2,0-0.3,0c-8,0-14.4,6.5-14.4,14.4
		C236.1,427.1,242.6,433.5,250.5,433.5z"/>
	<path d="M251.2,433.5c-0.1,0-0.2,0-0.3,0c4.9,2.9,8.2,8.3,8.2,14.4s-3.3,11.5-8.2,14.4c0.1,0,0.2,0,0.3,0c8,0,14.4-6.5,14.4-14.4
		C265.6,440,259.2,433.5,251.2,433.5z"/>
	<path d="M280.6,375.6c0.1,0,0.2,0,0.3,0c-4.9-2.9-8.2-8.3-8.2-14.4c0-6.1,3.3-11.5,8.2-14.4c-0.1,0-0.2,0-0.3,0
		c-8,0-14.4,6.5-14.4,14.4S272.7,375.6,280.6,375.6z"/>
	<path d="M281,404.5c0.1,0,0.2,0,0.3,0c8,0,14.4-6.5,14.4-14.4c0-8-6.5-14.4-14.4-14.4c-0.1,0-0.2,0-0.3,0c4.9,2.9,8.2,8.3,8.2,14.4
		C289.2,396.2,285.9,401.6,281,404.5z"/>
	<path d="M280.6,433.5c0.1,0,0.2,0,0.3,0c-4.9-2.9-8.2-8.3-8.2-14.4s3.3-11.5,8.2-14.4c-0.1,0-0.2,0-0.3,0c-8,0-14.4,6.5-14.4,14.4
		C266.2,427.1,272.7,433.5,280.6,433.5z"/>
	<path d="M281.3,433.5c-0.1,0-0.2,0-0.3,0c4.9,2.9,8.2,8.3,8.2,14.4s-3.3,11.5-8.2,14.4c0.1,0,0.2,0,0.3,0c8,0,14.4-6.5,14.4-14.4
		C295.7,440,289.3,433.5,281.3,433.5z"/>
	<path d="M130.4,462.4c-0.1,0-0.2,0-0.3,0c-8,0-14.4,6.5-14.4,14.4c0,8,6.5,14.4,14.4,14.4c0.1,0,0.2,0,0.3,0
		c-4.9-2.9-8.2-8.3-8.2-14.4C122.2,470.7,125.5,465.3,130.4,462.4z"/>
	<path d="M130.8,491.3c-0.1,0-0.2,0-0.3,0c3,1.8,5.5,4.5,6.9,7.8c2.1,0,4.1-0.1,6.2-0.1C141.1,494.4,136.3,491.3,130.8,491.3z"/>
	<path d="M160.5,462.4c-0.1,0-0.2,0-0.3,0c-8,0-14.4,6.5-14.4,14.4c0,8,6.5,14.4,14.4,14.4c0.1,0,0.2,0,0.3,0
		c-4.9-2.9-8.2-8.3-8.2-14.4C152.3,470.7,155.6,465.3,160.5,462.4z"/>
	<path d="M160.9,491.3c-0.1,0-0.2,0-0.3,0c2.9,1.7,5.2,4.3,6.7,7.4c2.1,0,4.1,0,6.2,0C171,494.2,166.3,491.3,160.9,491.3z"/>
	<path d="M190.6,462.4c-0.1,0-0.2,0-0.3,0c-8,0-14.4,6.5-14.4,14.4c0,8,6.5,14.4,14.4,14.4c0.1,0,0.2,0,0.3,0
		c-4.9-2.9-8.2-8.3-8.2-14.4C182.4,470.7,185.7,465.3,190.6,462.4z"/>
	<path d="M191,491.3c-0.1,0-0.2,0-0.3,0c2.9,1.7,5.2,4.3,6.7,7.4c2.1,0,4.2,0,6.3,0.1C201.2,494.3,196.4,491.3,191,491.3z"/>
	<path d="M220.8,462.4c-0.1,0-0.2,0-0.3,0c-8,0-14.4,6.5-14.4,14.4c0,8,6.5,14.4,14.4,14.4c0.1,0,0.2,0,0.3,0
		c-4.9-2.9-8.2-8.3-8.2-14.4C212.5,470.7,215.8,465.3,220.8,462.4z"/>
	<path d="M221.1,491.3c-0.1,0-0.2,0-0.3,0c3.1,1.8,5.5,4.6,6.9,7.8c2.1,0,4.3,0.1,6.4,0.2C231.6,494.5,226.7,491.3,221.1,491.3z"/>
	<path d="M250.9,462.4c-0.1,0-0.2,0-0.3,0c-8,0-14.4,6.5-14.4,14.4c0,8,6.5,14.4,14.4,14.4c0.1,0,0.2,0,0.3,0
		c-4.9-2.9-8.2-8.3-8.2-14.4C242.6,470.7,245.9,465.3,250.9,462.4z"/>
	<path d="M251.2,491.3c-0.1,0-0.2,0-0.3,0c3.3,2,5.9,5.1,7.3,8.8c2.2,0.1,4.3,0.2,6.5,0.3C262.5,495,257.3,491.3,251.2,491.3z"/>
	<path d="M281,462.4c-0.1,0-0.2,0-0.3,0c-8,0-14.4,6.5-14.4,14.4c0,8,6.5,14.4,14.4,14.4c0.1,0,0.2,0,0.3,0
		c-4.9-2.9-8.2-8.3-8.2-14.4C272.7,470.7,276,465.3,281,462.4z"/>
	<path d="M281.3,491.3c-0.1,0-0.2,0-0.3,0c3.8,2.2,6.6,6,7.7,10.3c2.2,0.1,4.4,0.3,6.6,0.4C293.6,495.9,288,491.3,281.3,491.3z"/>
	<path d="M79,448c0,6.1-3.3,11.5-8.2,14.4c0.1,0,0.2,0,0.3,0c8,0,14.4-6.5,14.4-14.4c0-6.5-4.3-11.9-10.1-13.8l-1.6,1.7
		C77,438.9,79,443.2,79,448z"/>
	<path d="M115.5,392l-11.6,12.2C110,403.1,114.7,398.2,115.5,392z"/>
	<path d="M100.5,433.5c0.1,0,0.2,0,0.3,0c-4.9-2.9-8.2-8.3-8.2-14.4c0-1.1,0.1-2.3,0.3-3.4l-6.4,6.8
		C88.1,428.8,93.8,433.5,100.5,433.5z"/>
	<path d="M101.2,433.5c-0.1,0-0.2,0-0.3,0c4.9,2.9,8.2,8.3,8.2,14.4s-3.3,11.5-8.2,14.4c0.1,0,0.2,0,0.3,0c8,0,14.4-6.5,14.4-14.4
		C115.7,440,109.2,433.5,101.2,433.5z"/>
	<path d="M18.7,507.3c2-0.4,4.2-0.7,6.6-1c0-0.2,0-0.4,0-0.5c0-5-2.6-9.4-6.4-12l-2.8,2.9c1.7,2.6,2.7,5.7,2.7,9.1
		C18.8,506.3,18.8,506.8,18.7,507.3z"/>
	<path d="M40.3,491.3c0.1,0,0.2,0,0.3,0c-4.3-2.5-7.3-6.9-8.1-12l-4.7,4.9C30.4,488.4,35,491.3,40.3,491.3z"/>
	<path d="M41,491.3c-0.1,0-0.2,0-0.3,0c4.3,2.6,7.4,7,8.1,12.3c2.1-0.2,4.2-0.4,6.4-0.6C53.9,496.3,48,491.3,41,491.3z"/>
	<path d="M70.8,462.4c-0.1,0-0.2,0-0.3,0c-8,0-14.4,6.5-14.4,14.4c0,8,6.5,14.4,14.4,14.4c0.1,0,0.2,0,0.3,0
		c-4.9-2.9-8.2-8.3-8.2-14.4C62.5,470.7,65.8,465.3,70.8,462.4z"/>
	<path d="M71.1,491.3c-0.1,0-0.2,0-0.3,0c3.7,2.2,6.5,5.8,7.7,10.1c2.1-0.1,4.2-0.2,6.3-0.4C82.8,495.4,77.4,491.3,71.1,491.3z"/>
	<path d="M100.9,462.4c-0.1,0-0.2,0-0.3,0c-8,0-14.4,6.5-14.4,14.4c0,8,6.5,14.4,14.4,14.4c0.1,0,0.2,0,0.3,0
		c-4.9-2.9-8.2-8.3-8.2-14.4C92.6,470.7,96,465.3,100.9,462.4z"/>
	<path d="M101.2,491.3c-0.1,0-0.2,0-0.3,0c3.3,2,5.9,5,7.2,8.7c2.1-0.1,4.1-0.2,6.3-0.2C112.1,494.7,107,491.3,101.2,491.3z"/>
	<ellipse cx="181.4" cy="514.2" rx="181.4" ry="15.6"/>
</g>
</svg>
