<?xml version="1.0" encoding="utf-8"?>
<!-- Generator: Adobe Illustrator 28.0.0, SVG Export Plug-In . SVG Version: 6.00 Build 0)  -->
<svg version="1.1" id="Layer_1" xmlns="http://www.w3.org/2000/svg" xmlns:xlink="http://www.w3.org/1999/xlink" x="0px" y="0px"
	 viewBox="0 0 360 240" style="enable-background:new 0 0 360 240;" xml:space="preserve">
<style type="text/css">
	.st0{fill:none;}
	.st1{fill:#FFFFFF;}
</style>
<rect class="st0" width="360" height="240"/>
<g id="Waltz-Logo-CircleW-Black-withWhite-FINAL_00000129196188016862424950000000883316478693153156_">
	<g>
		<g>
			<path d="M230.3,120c0-28.1-22.8-50.9-50.9-50.9s-50.9,22.8-50.9,50.9s22.8,50.9,50.9,50.9S230.3,148.1,230.3,120"/>
			<polygon class="st1" points="208.4,94.7 196.9,94.7 186.8,146.3 180.3,117.1 185.3,94.7 183.4,94.7 179.3,112.9 175.2,94.7 
				173.3,94.7 178.4,117.1 171.9,146.3 161.7,94.7 150.2,94.7 161,148.5 173.2,148.5 179.3,121.2 185.5,148.5 197.6,148.5 			"/>
		</g>
	</g>
</g>
</svg>
