<?xml version="1.0" encoding="utf-8"?>
<!-- Generator: Adobe Illustrator 28.0.0, SVG Export Plug-In . SVG Version: 6.00 Build 0)  -->
<svg version="1.1" id="Layer_1" xmlns="http://www.w3.org/2000/svg" xmlns:xlink="http://www.w3.org/1999/xlink" x="0px" y="0px"
	 viewBox="0 0 360 240" style="enable-background:new 0 0 360 240;" xml:space="preserve">
<path d="M360,240V0H0v240H360z M72.7,110.8h35.6l-34.4-9.2l4.9-18.2l34.4,9.2L82.4,74.8l9.4-16.3l30.8,17.8L97.5,51.1l13.3-13.3
	l25.1,25.1l-17.8-30.8l16.3-9.4l17.8,30.8l-9.2-34.4l18.2-4.9l9.2,34.4V13h18.9v35.6l9.2-34.4l18.2,4.9l-9.2,34.4l17.8-30.8
	l16.3,9.4l-17.8,30.8l25.1-25.1l13.3,13.3l-25.1,25.1L268,58.5l9.4,16.3l-30.8,17.8l34.3-9.2l4.9,18.2l-34.4,9.2h35.6v18.9h-35.6
	l34.3,9.2l-4.9,18.2l-34.4-9.2l30.8,17.8L268,182l-30.8-17.8l25.1,25.1l-13.3,13.3l-25.1-25.1l17.8,30.8l-16.3,9.4L207.6,187
	l9.2,34.4l-18.2,4.9l-9.2-34.4v35.6h-18.9v-35.6l-9.2,34.3l-18.2-4.9l9.2-34.4l-17.8,30.8l-16.3-9.4l17.8-30.8l-25.1,25.1
	l-13.3-13.3l25.2-25.2L91.8,182l-9.4-16.3l30.8-17.8l-34.3,9.2l-4.9-18.2l34.4-9.2H72.7V110.8z"/>
</svg>
