<svg width="287" height="44" viewBox="0 0 287 44" fill="none" xmlns="http://www.w3.org/2000/svg">
<g clip-path="url(#clip0_582_534)">
<path d="M86.6796 43.3134H78.5327V0.0927734H86.6796V43.3134Z" fill="black"/>
<path d="M109.925 42.8064C108.235 43.4628 106.444 43.8206 104.632 43.8637C97.6366 43.8637 94.9464 40.877 94.9464 33.7916V19.5883H89.0532V12.1377H94.9464V4.45832L102.422 0V12.1377H109.881V19.5883H102.422V32.2329C102.422 35.3123 103.759 36.4132 105.92 36.4132C107.306 36.4495 108.675 36.1085 109.881 35.4267V42.7846L109.925 42.8064Z" fill="black"/>
<path d="M43.9591 2.66528H35.2611L27.6218 41.6129L22.6944 19.5884L26.4704 2.66528H25.0899L21.9577 16.4599L18.8747 2.66528H17.445L21.2702 19.5884L16.3428 41.6129L8.69796 2.66528H0L8.14684 43.3134H17.3523L21.9577 22.7114L26.6068 43.3134H35.8122L43.9591 2.66528Z" fill="black"/>
<path d="M113.979 35.2196L137.776 20.7382V12.1377H112.599V20.0951H136.259L112.228 34.6691V43.3132H138.098V35.2196H113.979Z" fill="black"/>
<path d="M74.4346 36.7348C73.054 36.7348 72.3665 36.1898 72.3665 34.0696V23.5888C72.3665 15.3589 67.3463 11.4946 58.5993 11.4946C50.9108 11.4946 45.5032 15.0373 42.0764 20.7601L49.2083 24.6897C51.0527 20.553 53.6773 18.3456 58.4137 18.3456C62.9755 18.3456 64.8581 20.553 64.8581 23.4035C64.8581 24.7388 63.0192 25.7035 60.0726 26.3902C58.5065 26.7608 56.7113 27.126 55.238 27.404L54.3212 27.5893C53.4918 27.7691 48.3789 29.148 45.5905 31.1265C44.3376 31.8864 43.3679 33.0349 42.8294 34.3966C42.7556 34.574 42.6937 34.7561 42.6439 34.9417C42.4613 35.654 42.3696 36.3865 42.3711 37.1218C42.3711 41.1223 45.3177 43.9728 50.8835 43.9728H51.391C51.4837 43.9728 52.1767 43.8801 52.2641 43.8801C56.8695 43.286 62.1625 39.6507 64.6016 31.835C64.558 33.1703 64.4652 34.5929 64.4652 35.9718C64.4652 41.8145 67.0408 43.7439 71.417 43.7439C73.305 43.7439 75.3295 43.4223 76.1589 42.9645V36.326C75.6327 36.618 75.036 36.7595 74.4346 36.7348ZM50.5889 33.3338C50.5889 30.0637 54.1357 29.148 58.8284 28.1833C61.7314 27.5893 63.7395 26.9461 64.8308 25.6108V27.6819C63.9577 33.977 60.8747 37.3343 56.1001 37.3834H56.051C52.3677 37.3343 50.5943 35.6775 50.5943 33.3338H50.5889Z" fill="black"/>
<path d="M155.33 34.0042C154.68 34.045 154.03 33.9222 153.44 33.647C152.85 33.3718 152.338 32.953 151.952 32.4291C151.192 31.3826 150.812 29.8148 150.812 27.7255C150.779 26.5397 150.955 25.3573 151.33 24.2319C151.61 23.3838 152.157 22.6493 152.891 22.139C153.676 21.6479 154.59 21.4047 155.516 21.4413C156.29 21.4163 157.057 21.6049 157.731 21.9864C158.359 22.3621 158.86 22.9162 159.172 23.5779C159.518 24.3329 159.687 25.1567 159.668 25.9869H157.998C158.016 25.4273 157.915 24.8703 157.704 24.3518C157.531 23.9242 157.23 23.5606 156.842 23.3108C156.445 23.061 155.984 22.934 155.516 22.9456C154.915 22.919 154.322 23.0915 153.83 23.4361C153.348 23.8332 153.005 24.3736 152.853 24.9786C152.616 25.8669 152.51 26.7848 152.536 27.7037C152.536 29.3388 152.76 30.5542 153.218 31.3063C153.434 31.6723 153.747 31.9715 154.123 32.1706C154.499 32.3697 154.922 32.4611 155.346 32.4345C155.688 32.4549 156.029 32.395 156.342 32.2596C156.656 32.1243 156.934 31.9172 157.153 31.6551C157.622 31.0163 157.854 30.2336 157.807 29.4423H159.477C159.495 30.2637 159.319 31.0777 158.964 31.8187C158.641 32.4817 158.136 33.0393 157.507 33.4265C156.851 33.822 156.096 34.0224 155.33 34.0042Z" fill="black"/>
<path d="M173.037 28.4286V28.1669C173.698 28.1676 174.354 28.0608 174.98 27.8508C175.536 27.6658 176.019 27.3065 176.355 26.8262C176.7 26.2955 176.872 25.6708 176.846 25.0385C176.872 24.3789 176.711 23.7253 176.382 23.1527C176.062 22.6517 175.587 22.2689 175.029 22.0626C174.348 21.8135 173.626 21.6952 172.901 21.7138H168.786V33.7589H170.423V28.3413H171.28L174.783 33.748H176.851L173.468 28.6684L173.037 28.4286ZM170.418 23.2508H173.108C173.656 23.217 174.198 23.3751 174.641 23.6977C174.832 23.8661 174.98 24.0764 175.075 24.3119C175.169 24.5475 175.208 24.8018 175.187 25.0548C175.204 25.3082 175.163 25.5622 175.069 25.7979C174.975 26.0337 174.828 26.2454 174.641 26.4174C174.192 26.7512 173.639 26.9153 173.081 26.8807H170.407L170.418 23.2508Z" fill="black"/>
<path d="M186.34 33.748V21.7029H193.51V23.2508H187.961V26.9515H193.336V28.483H187.961V32.2001H193.51V33.748H186.34Z" fill="black"/>
<path d="M210.203 33.748H211.96L208.358 21.7029H205.794L202.192 33.748H203.949L205.171 29.4804H208.991L210.203 33.748ZM205.603 27.9325L206.841 23.5723L206.945 22.673H207.207L207.311 23.5723L208.549 27.9325H205.603Z" fill="black"/>
<path d="M229.175 21.6975H219.594V23.2508H223.571V33.748H225.192V23.2508H229.175V21.6975Z" fill="black"/>
<path d="M237.77 33.748V32.2818H240.891V23.1636H237.77V21.7029H245.627V23.1636H242.512V32.2818H245.627V33.748H237.77Z" fill="black"/>
<path d="M257.741 33.748L254.309 21.7029H256.033L258.805 31.8894L258.893 32.7833H259.155L259.236 31.8894L261.998 21.7029H263.733L260.284 33.748H257.741Z" fill="black"/>
<path d="M272.916 33.748V21.7029H280.086V23.2508H274.537V26.9515H279.928V28.483H274.553V32.2001H280.103V33.748H272.916Z" fill="black"/>
<path d="M283.48 25.8452C283.132 25.6466 282.846 25.3538 282.656 25.0004C282.451 24.615 282.348 24.1834 282.356 23.7468C282.347 23.3084 282.45 22.8749 282.656 22.4878C282.844 22.1313 283.133 21.8376 283.486 21.643C283.852 21.4427 284.263 21.3376 284.681 21.3376C285.099 21.3376 285.51 21.4427 285.876 21.643C286.229 21.8376 286.517 22.1313 286.705 22.4878C286.912 22.8749 287.015 23.3084 287.005 23.7468C287.014 24.1834 286.911 24.615 286.705 25.0004C286.514 25.3545 286.227 25.6474 285.876 25.8452C285.51 26.0455 285.099 26.1506 284.681 26.1506C284.263 26.1506 283.852 26.0455 283.486 25.8452H283.48ZM285.663 25.5236C285.956 25.3558 286.194 25.1081 286.351 24.8096C286.528 24.4743 286.614 24.0986 286.602 23.7196C286.614 23.3406 286.528 22.9649 286.351 22.6295C286.196 22.3283 285.957 22.0784 285.663 21.9101C285.361 21.7421 285.021 21.6539 284.675 21.6539C284.33 21.6539 283.99 21.7421 283.688 21.9101C283.394 22.0784 283.155 22.3283 283 22.6295C282.823 22.9649 282.737 23.3406 282.749 23.7196C282.737 24.0986 282.823 24.4743 283 24.8096C283.157 25.1081 283.395 25.3558 283.688 25.5236C283.99 25.6916 284.33 25.7798 284.675 25.7798C285.021 25.7798 285.361 25.6916 285.663 25.5236ZM283.884 24.8423V22.6622H284.839C285.035 22.6518 285.229 22.7117 285.385 22.8312C285.453 22.8873 285.507 22.9583 285.543 23.0386C285.579 23.119 285.596 23.2065 285.592 23.2945C285.597 23.3755 285.584 23.4568 285.554 23.5322C285.524 23.6077 285.477 23.6754 285.418 23.7305C285.259 23.849 285.069 23.9173 284.872 23.9267V23.9812L284.97 24.0193L285.592 24.8478H285.046L284.484 23.9812H284.293V24.8696L283.884 24.8423ZM284.785 23.5833C285.025 23.5833 285.145 23.4907 285.145 23.3054C285.147 23.2699 285.142 23.2342 285.129 23.2012C285.115 23.1681 285.095 23.1385 285.068 23.1146C285.005 23.0682 284.928 23.0451 284.85 23.0492H284.304V23.5942L284.785 23.5833Z" fill="black"/>
</g>
<defs>
<clipPath id="clip0_582_534">
<rect width="287" height="44" fill="white"/>
</clipPath>
</defs>
</svg>
