<svg xmlns="http://www.w3.org/2000/svg" width="1125" height="1300" viewBox="0 0 1125 1300"><defs><clipPath id="8zlea"><path d="M-202.91 1189.554h1228.815V214.996H-202.911z"/></clipPath></defs><g><g transform="rotate(28 284.495 1161.275)"><g/><g clip-path="url(#8zlea)"><path fill="#2d302d" d="M-201.636 412.153l-1.275 7.878c1.458 5.515 4.372 10.636 8.926 12.409 4.554 1.773 13.844 1.182 24.226-.985 13.844-2.954 30.602-7.681 51.368-13.59l84.884-23.635c72.68-20.287 153.557-46.877 233.705-70.906 38.799-11.62 75.412-21.272 108.564-25.802 33.152-4.53 59.018-3.348 82.334 3.94 86.159 27.574 111.114 169.582 136.251 312.969 15.12 86.071 32.424 180.81 61.387 273.774 16.394 52.392 36.43 104.783 62.843 154.023 28.78 53.77 65.94 105.176 117.854 146.932l10.747-35.059c-50.639-38.013-87.798-85.086-117.125-134.917-26.777-45.695-47.725-94.541-64.847-143.781-30.602-87.844-49.91-178.052-67.215-259.987-28.78-136.887-59.747-270.426-146.088-296.228-48.09-14.181-112.754-2.166-185.98 17.53C122.6 357.2 45.913 380.047-23.853 396.79c-30.844 7.485-58.532 13.788-83.062 18.908-20.948 4.53-38.435 8.076-53.19 9.848-20.036 2.364-36.248-3.545-41.53-13.984"/></g><g clip-path="url(#8zlea)"><path fill="#fff" d="M-200.178 404.472l-1.275 7.878c5.464 10.439 21.494 16.348 41.53 13.984 14.755-1.772 32.242-5.318 53.19-9.848 24.409-5.252 52.096-11.555 83.062-18.908 69.584-17.135 146.453-39.983 222.776-60.467 73.226-19.499 137.709-31.71 185.98-17.529 86.34 25.802 117.307 159.34 146.088 296.228 17.304 81.935 36.613 172.143 67.215 259.987 17.305 49.24 38.07 98.086 64.847 143.78 29.327 49.634 66.487 96.708 117.125 134.918l10.565-34.862c-92.352-64.997-145.177-160.916-182.883-256.836-32.241-82.526-53.553-167.81-73.044-245.609-32.606-130.387-69.401-255.26-155.924-279.683-48.09-13.59-110.75-3.348-180.88 12.803-70.13 16.15-145.724 36.24-212.757 49.634-29.873 5.909-56.953 10.767-81.24 14.575-21.13 3.348-39.164 5.712-54.647 6.5-22.587.984-41.35-5.319-49.728-16.545"/></g><g clip-path="url(#8zlea)"><path fill="#2d302d" d="M-198.903 396.593l-1.275 7.879c8.379 11.226 27.323 17.53 49.728 16.544 15.483-.788 33.698-3.151 54.646-6.5 24.166-3.807 51.246-8.666 81.241-14.574 66.851-13.394 139.895-32.499 212.393-49.437 72.497-16.939 132.79-26.393 180.88-12.803 86.523 24.62 123.318 149.296 155.924 279.683 19.49 77.8 40.802 163.28 73.044 245.61 37.706 95.919 90.53 191.838 182.883 256.835l10.565-34.665c-89.62-59.482-143.902-146.932-183.248-235.958-34.063-77.011-57.378-157.37-79.237-230.837-36.613-123.69-79.237-239.503-165.943-263.138-48.089-13-108.564-5.121-175.78 8.075-67.214 13.196-138.437 28.953-202.555 38.998-28.902 4.465-55.375 7.944-79.42 10.439a491.132 491.132 0 0 1-56.103 3.151c-24.955-.393-46.085-7.484-57.743-19.302"/></g><g clip-path="url(#8zlea)"><path fill="#fff" d="M-197.446 388.715l-1.275 7.878c11.84 11.818 32.788 18.711 57.743 19.302 18.74.023 37.467-1.029 56.104-3.151 24.044-2.364 50.517-5.843 79.419-10.439C58.663 392.26 127.882 376.7 197.101 363.11c69.219-13.59 127.69-20.878 175.78-8.075 86.705 23.635 129.33 139.644 165.942 263.138C560.5 691.64 583.998 772 618.061 849.01c39.345 89.026 93.81 176.476 183.43 235.761l10.564-34.665C724.803 996.14 669.428 916.765 628.261 834.83c-35.702-71.496-61.386-146.735-85.43-215.474-40.803-116.6-89.074-223.55-176.144-246.79-47.907-12.606-106.56-7.091-170.861 2.757-64.3 9.848-131.698 22.06-193.084 28.953-27.93 3.151-53.796 5.252-77.598 6.302a488.576 488.576 0 0 1-57.197-.197c-27.14-1.772-50.274-9.454-65.393-21.665"/></g><g clip-path="url(#8zlea)"><path fill="#2d302d" d="M-196.171 380.64l-1.457 7.878c15.119 12.408 38.252 20.09 65.393 22.06a487.78 487.78 0 0 0 57.197.197c23.68-1.051 49.546-3.152 77.598-6.303 61.386-6.894 127.144-18.908 193.084-28.953 65.94-10.045 122.954-15.363 170.86-2.758 87.07 23.045 135.16 130.19 176.144 246.791 24.045 68.739 49.729 143.978 85.431 215.474 40.985 81.935 96.542 161.31 183.794 215.277l10.565-34.468c-84.52-48.846-140.988-120.342-183.612-195.384-37.524-65.784-65.394-135.705-91.988-199.717-45.539-109.313-99.275-207.4-186.344-230.443-47.543-12.409-104.375-9.257-165.761-2.758-61.386 6.5-125.14 15.166-183.976 18.908-52.279 3.349-96.724 3.546-133.884-1.182-29.327-3.742-54.646-12.211-73.044-25.013"/></g><g clip-path="url(#8zlea)"><path fill="#fff" d="M-194.714 372.761l-1.457 7.879c18.398 12.802 43.717 21.271 73.044 25.014 37.16 4.726 81.787 4.333 133.884 1.181 58.654-3.742 121.315-12.211 183.976-18.908 62.661-6.696 118.218-9.848 165.76 2.758 87.253 23.044 140.988 121.13 186.345 230.443 26.595 63.815 54.464 133.735 91.988 199.717 42.624 75.042 99.092 146.341 183.612 195.384l10.565-34.27c-81.788-44.317-138.802-108.329-183.066-176.083-39.163-60.073-69.4-124.479-98.545-183.173-50.457-102.222-109.657-191.248-196.91-214.489-47.178-12.605-102.006-11.818-160.842-8.47-58.836 3.349-118.947 8.47-175.233 9.06-50.821.592-95.085-1.575-132.973-8.074-31.33-5.318-58.654-14.772-80.148-27.969"/></g><g clip-path="url(#8zlea)"><path fill="#2d302d" d="M-193.439 364.686l-1.457 8.075c21.676 13.196 49 22.65 80.148 27.968 37.888 6.5 82.152 8.667 132.973 8.076 56.104-.591 115.668-5.515 175.233-9.06 59.564-3.546 113.664-4.136 161.025 8.469 87.434 23.438 146.452 112.267 196.909 214.095 29.145 58.694 59.382 123.1 98.546 183.173 44.263 67.951 101.278 131.766 183.065 176.082l10.565-34.27c-78.873-40.18-136.434-96.905-182.155-157.569-40.802-54.36-73.772-112.66-105.467-166.037-55.74-93.753-120.04-173.718-207.657-197.945-96.177-26.195-212.21-10.438-322.596-15.166-49.363-2.166-93.263-6.696-131.88-14.968-33.152-6.894-62.479-17.333-87.252-30.923"/></g><g clip-path="url(#8zlea)"><path fill="#fff" d="M-191.981 356.807l-1.458 7.879c24.773 13.59 54.1 24.029 87.252 31.12 38.435 8.272 82.516 12.802 131.88 14.969 110.386 4.726 226.419-11.03 322.596 15.165 87.617 24.03 151.917 103.995 207.475 197.748 31.694 53.376 64.482 111.676 105.467 166.037 45.721 60.664 103.282 117.388 182.155 157.568l10.383-34.074c-75.959-36.634-133.702-86.268-180.88-139.841-42.624-48.453-77.962-100.647-112.39-148.311-61.386-85.284-130.604-156.386-218.403-181.597-94.538-26.984-204.56-20.484-309.48-30.923-47.907-4.727-91.624-11.817-130.606-21.666-32.323-7.86-63.818-19.277-93.991-34.074"/></g><g clip-path="url(#8zlea)"><path fill="#2d302d" d="M-190.524 348.732l-1.457 8.075c30.173 14.796 61.668 26.213 93.991 34.075 38.981 9.847 82.699 16.741 130.605 21.665 104.921 10.439 214.943 3.94 309.481 30.923 87.799 25.21 156.835 96.313 218.404 181.597 34.427 47.664 69.765 100.055 112.39 148.31 47.177 53.574 104.92 103.208 180.879 139.842l10.382-33.877c-72.861-33.286-130.605-76.223-179.058-122.706-44.263-42.346-82.516-88.238-119.675-129.993-67.58-76.42-141.535-138.857-229.333-165.644-92.899-28.165-197.091-30.726-296.73-46.876a1094.796 1094.796 0 0 1-129.33-27.968c-34.381-9.782-68.05-22.29-100.731-37.423"/></g><g clip-path="url(#8zlea)"><path fill="#fff" d="M-189.25 340.657l-1.456 8.075c32.68 15.135 66.349 27.643 100.731 37.422a1094.75 1094.75 0 0 0 129.33 28.166c99.639 15.953 204.013 18.71 296.73 46.876 87.798 26.787 161.753 89.223 229.333 165.644 37.16 41.952 75.23 87.647 119.675 129.993 48.636 46.483 106.197 89.42 179.059 122.706l10.382-33.877C743.93 788.741 652.852 702.078 570.518 628.218c-74.32-66.572-152.646-120.933-240.626-149.492-90.895-29.544-189.623-41.362-284.344-62.83-87.798-19.828-166.064-44.907-234.797-75.24"/></g><g clip-path="url(#8zlea)"><path fill="#2d302d" d="M-187.792 332.581l-1.457 8.076c68.49 30.332 146.817 55.411 234.98 75.238 94.72 21.272 193.448 33.09 284.343 62.83 87.798 28.757 166.307 82.92 240.626 149.493 82.334 73.663 173.23 160.523 304.016 217.444l10.383-33.68C759.777 759.394 663.781 690.064 576.165 629.99c-81.423-55.74-164.122-102.42-251.92-133.539-87.799-31.12-182.155-52.391-272.14-78.784C-29.218 394-109.301 365.596-187.79 332.581"/></g><g clip-path="url(#8zlea)"><path fill="#fff" d="M-186.335 324.309l-1.457 8.075c78.434 32.942 158.456 61.28 239.716 84.89 89.984 26.393 183.065 47.27 272.139 78.784 89.073 31.514 170.679 77.8 251.92 133.539C663.599 689.67 759.594 759 884.917 811.587l10.383-33.68C776.717 729.26 677.079 677.853 583.45 631.765c-90.167-44.316-177.783-84.496-265.4-118.57C144.642 446.62-26.584 389.7-186.334 324.309"/></g><g clip-path="url(#8zlea)"><path fill="#2d302d" d="M-185.06 316.234l-1.457 8.272C-26.585 389.7 144.64 446.621 318.052 513.588c87.616 33.877 175.415 74.057 265.4 118.57 93.627 46.088 193.265 97.495 311.848 146.144l10.2-33.483c-114.392-46.483-219.678-79.178-318.406-111.677-95.085-31.316-187.073-64.406-275.236-101.828-167.764-71.693-329.517-148.508-496.918-215.08"/></g><g clip-path="url(#8zlea)"><path fill="#fff" d="M-183.602 307.961l-1.458 8.273c167.218 66.77 328.972 143.387 497.1 215.08 87.981 37.62 180.151 70.512 275.236 101.828 98.728 32.499 204.014 65.194 318.407 111.677l10.2-33.287c-107.289-44.316-216.035-58.497-322.05-76.42-103.28-17.333-200.552-45.3-287.621-86.269-82.88-38.998-159.021-86.268-237.166-127.236C-9.098 380.64-94.71 342.823-183.602 307.961"/></g><g clip-path="url(#8zlea)"><path fill="#2d302d" d="M-182.145 299.69l-1.457 8.272c88.891 34.861 173.41 72.087 252.466 113.645 79.055 41.559 154.285 88.041 236.983 127.236 87.07 41.165 184.34 68.937 287.623 86.269 106.196 17.923 214.76 32.104 322.049 76.42l10.2-33.286c-100.549-43.134-212.574-38.407-325.874-41.361-110.568-2.758-213.485-25.408-300.19-70.709C218.96 523.83 148.282 468.484 73.781 422.79c-74.501-45.695-162.117-86.662-255.927-123.1"/></g><g clip-path="url(#8zlea)"><path fill="#fff" d="M-180.688 291.417l-1.457 8.272c93.81 36.438 179.969 76.42 256.292 123.1 76.322 46.68 145.177 101.04 225.871 143.387 86.706 45.3 189.623 67.951 300.191 70.709 113.3 2.757 225.326-1.97 325.875 41.361l10.2-33.09c-47.178-21.862-98.363-28.952-152.827-26.392-54.465 2.56-115.85 13.59-176.508 20.09-117.854 12.605-226.783-5.12-312.942-55.346-78.326-45.891-143.538-109.312-214.76-159.537-37.706-26.465-77.088-50.027-117.854-70.512-44.082-22.256-91.988-42.74-142.08-62.042"/></g><g clip-path="url(#8zlea)"><path fill="#2d302d" d="M-179.413 283.144l-1.457 8.273c50.275 19.302 98.181 39.786 142.263 62.042 40.704 20.493 80.025 44.055 117.672 70.512 71.404 50.225 136.434 113.843 214.76 159.537 86.16 50.225 195.088 67.755 312.942 55.346 60.657-6.5 120.404-17.53 176.508-20.09 56.103-2.56 105.467 4.53 152.828 26.393l10.2-32.892c-42.806-21.863-92.352-25.408-146.634-16.348-57.925 9.65-120.769 30.332-185.798 45.3-125.14 28.56-240.626 15.56-325.875-39.982C211.856 551.6 152.473 480.3 84.166 425.349 47.71 396.126 8.871 370.547-31.869 348.93c-44.81-23.832-94.538-45.3-147.545-65.785"/></g><g clip-path="url(#8zlea)"><path fill="#fff" d="M-177.956 274.675l-1.457 8.272c53.007 20.484 102.735 41.953 147.546 65.982 40.67 21.565 79.446 47.077 115.85 76.223 68.308 54.952 127.873 126.252 203.831 175.886 85.43 55.542 200.734 68.542 325.875 39.983 65.029-14.772 127.872-35.65 185.797-45.301 54.282-8.863 103.829-5.515 146.635 16.348l10.018-32.893c-38.07-22.453-85.795-22.65-139.894-7.484-59.565 16.741-125.687 47.467-195.088 71.3-69.401 23.831-135.523 37.225-195.452 31.513-55.01-5.318-103.1-26.59-143.72-56.134-73.773-53.77-127.69-132.554-193.266-192.233-35.1-31.718-73.343-59.132-114.029-81.738-45.539-25.408-97.088-48.058-152.646-69.724"/></g><g clip-path="url(#8zlea)"><path fill="#2d302d" d="M-176.498 266.206l-1.458 8.47c55.558 21.665 107.107 44.118 152.646 69.723 40.624 22.616 78.806 50.03 113.847 81.738C153.93 485.817 208.03 564.6 281.803 618.37c40.62 29.544 88.71 50.816 143.72 56.134 59.929 5.712 127.144-8.075 195.634-31.317 68.49-23.241 135.705-54.558 195.088-71.3 54.1-15.165 101.824-14.968 139.894 7.485l10.02-32.695c-33.153-23.241-79.056-20.484-132.428.394-61.203 24.029-130.604 65.39-204.923 98.48-74.32 33.089-144.814 52.982-207.839 49.24-56.832-3.546-105.468-26.393-145.36-58.891-71.404-58.3-120.04-144.372-182.7-208.58-33.68-34.22-71.339-63.552-112.026-87.254-45.72-27.378-99.092-51.013-157.381-73.86"/></g><g clip-path="url(#8zlea)"><path fill="#fff" d="M-175.041 257.737l-1.457 8.469c58.29 22.847 111.66 46.482 157.746 73.663 40.688 23.7 78.346 53.031 112.025 87.253 62.843 64.406 111.296 150.28 182.701 208.58 39.892 32.302 88.527 55.346 145.36 58.892 63.025 3.742 134.794-16.742 207.838-49.24 73.044-32.499 143.72-74.451 204.924-98.48 53.371-20.878 99.274-23.635 132.426-.394l10.019-32.695c-28.052-24.62-71.769-19.303-124.23 7.09-62.843 31.514-135.523 83.708-214.942 126.842-79.42 43.135-154.467 69.921-220.59 67.754-58.471-1.97-107.835-26.786-146.634-62.436-69.036-63.027-112.207-155.992-172.318-224.928-32.212-36.656-69.293-67.922-110.022-92.768-46.631-28.56-102.006-53.376-162.846-77.602"/></g><g clip-path="url(#8zlea)"><path fill="#2d302d" d="M-173.584 249.267l-1.457 8.47c60.84 24.226 116.215 49.043 162.664 77.602 40.73 24.846 77.81 56.112 110.022 92.768 60.11 69.133 103.281 161.9 172.318 224.928 38.981 35.453 88.163 60.467 146.634 62.436 66.122 1.97 142.627-25.407 220.59-67.754 77.962-42.346 151.917-95.328 214.942-126.842 52.46-26.393 96.36-31.71 124.23-7.09l10.018-32.499c-22.405-26.195-63.936-18.711-115.304 12.409-30.602 18.71-64.665 43.528-101.824 70.708-37.16 27.18-80.695 58.891-123.319 85.875-83.245 52.785-164.668 87.647-234.069 87.056-60.11-.59-109.839-27.968-147.91-66.77-66.668-68.344-104.556-167.612-162.117-241.472-30.718-38.955-67.224-72.105-108.018-98.086-46.813-30.332-104.01-56.134-167.4-81.739"/></g><g clip-path="url(#8zlea)"><path fill="#fff" d="M-172.127 240.798l-1.457 8.47c63.39 25.604 120.587 51.406 167.4 81.54 40.794 25.982 77.3 59.132 108.018 98.087 57.56 73.663 95.631 173.127 162.118 241.473 38.07 38.8 87.616 66.178 147.91 66.769 69.4.59 150.823-34.271 234.068-87.056 42.624-26.984 83.973-56.922 123.319-85.678 39.345-28.756 71.222-51.997 101.824-70.708 51.186-31.317 92.717-38.604 115.304-12.409l10.019-32.301c-16.759-27.772-55.74-18.908-105.468 16.741-30.966 22.257-65.94 51.8-104.739 83.905-41.531 34.468-85.43 70.512-130.969 103.207-88.892 63.815-175.597 106.358-248.277 107.146-61.75.394-111.843-29.74-148.82-72.087-64.119-73.663-97.089-179.43-152.1-257.82C76.824 388.896 40.892 353.85.01 326.671c-47.36-31.907-106.197-58.694-172.137-85.874"/></g><g clip-path="url(#8zlea)"><path fill="#2d302d" d="M-170.67 232.329l-1.457 8.47c65.94 26.983 124.776 53.966 171.954 85.677C40.71 353.654 76.64 388.7 105.841 429.88c55.193 78.39 87.981 184.157 152.1 257.82 36.977 42.346 87.07 72.481 148.82 72.087 72.862-.59 159.385-43.134 248.277-107.146 45.538-32.695 89.438-68.739 130.969-103.207 38.799-32.104 73.773-61.648 104.739-83.905 49.546-35.65 88.71-44.512 105.467-16.741l9.837-32.302c-10.93-29.15-46.996-19.893-94.72 19.5-31.331 25.998-67.033 59.875-107.472 97.298-43.899 40.77-90.348 83.117-139.166 121.918-95.085 75.632-187.073 126.251-263.395 127.827-63.39 1.181-113.665-32.302-149.55-78.39-61.568-79.572-89.62-191.248-142.262-274.366-27.61-43.316-62.903-80.272-103.829-108.721-47.178-32.696-107.835-60.664-176.325-89.223"/></g><g clip-path="url(#8zlea)"><path fill="#fff" d="M-169.212 223.662l-1.457 8.667c68.49 28.756 129.147 56.527 176.507 89.813 40.93 28.446 76.222 65.402 103.829 108.722 52.642 83.117 80.512 194.794 142.263 274.365 35.884 46.09 86.159 79.572 149.549 78.39 76.322-1.575 168.31-52.194 263.395-127.827 48.818-38.8 95.267-81.344 139.167-121.918 40.438-37.422 76.322-71.496 107.47-97.298 47.543-39.392 83.792-48.649 94.721-19.499l9.837-32.104c-5.283-29.938-37.706-21.469-83.063 21.074-31.33 29.544-67.944 68.149-110.021 111.086-46.268 47.27-95.814 96.313-147.91 141.81-101.46 88.436-199.277 147.327-279.061 149.493-64.847 1.576-115.486-35.65-150.095-85.677-59.019-86.072-81.97-203.46-132.427-291.107-26.06-45.405-60.774-84.283-101.825-114.04-47.542-34.665-109.839-63.618-180.88-93.95"/></g><g clip-path="url(#8zlea)"><path fill="#2d302d" d="M-167.755 214.996l-1.457 8.667c71.04 30.331 133.337 59.284 181.062 94.146 40.965 29.722 75.613 68.53 101.642 113.843C163.767 519.3 186.9 636.688 245.918 722.365c34.61 50.028 85.067 87.253 150.096 85.678 79.784-2.167 177.6-61.058 279.06-149.493 52.097-45.498 101.643-94.54 147.91-141.811 42.078-42.937 78.691-81.541 110.022-111.085 45.174-42.544 77.78-51.013 83.062-21.075l9.837-32.105c-.182-16.938-4.736-28.953-14.026-26.59-12.569 3.152-31.695 21.667-56.286 47.665-31.33 33.09-68.672 76.42-112.39 124.873-48.817 54.164-101.277 110.494-157.017 163.083C577.804 763.53 473.794 831.284 390.367 833.647c-32.465 1.24-64.484-8.465-91.624-27.771-23.315-16.742-42.624-40.18-58.653-66.178-56.468-92.375-74.866-215.08-122.773-307.258-24.531-47.356-58.657-88.094-99.82-119.16-23.316-17.727-50.275-33.878-80.33-49.438-30.056-15.56-67.034-32.301-104.922-48.846"/></g></g></g></svg>