<svg xmlns="http://www.w3.org/2000/svg" width="244" height="57" viewBox="0 0 244 57"><g><g transform="rotate(90 122 28.5)"><g><g><path fill="#2d302d" d="M111.74 131.798s.459-.447.537-.078c.078.37 1.06 2.978 1.383 3.884.322.907 2.844 9.278-1.676 12.512-.549.366-3.829 3.385-8.709-.228-.361-.297-2.916-2.562-3.949-9.881-.046-.533-.296-2.468-.44-3.02-.144-.551.396-.12.396-.12s7.943.846 12.458-3.07z"/></g><g><path fill="#2d302d" d="M97.82 129.836c.23.489.565 1.576.837 3.008.004-.001.007-.003.012-.003.451-.066.854.027 1.189.179.737.047 2.479.104 4.491-.188 2.628-.383 4.689-1.202 6.125-2.434.159-.148.402-.343.713-.49-.533-1.602-1.098-4.041-.599-6.237.085-.506 2.986-8.746 1.57-12.8 0 0-2.496-12.125-8.896-12.21-.383-.008-3.856-.074-5.881 4.574-.354.846-4.329 9.56-3.367 15.078.118 1.03.802 5.953 3.806 11.523z"/></g></g><g><g><path fill="#2d302d" d="M130.88 66.88s-.417-.487-.527-.126c-.111.36-1.33 2.866-1.734 3.739-.404.874-3.682 8.979.521 12.613.515.415 3.503 3.722 8.693.573.388-.264 3.138-2.285 4.839-9.478.094-.526.52-2.43.714-2.965.193-.536-.382-.157-.382-.157s-7.986.114-12.124-4.198z"/></g><g><path fill="#2d302d" d="M144.921 66.203c-.274.466-.706 1.518-1.108 2.918a2.126 2.126 0 0 0-1.214.066 22.533 22.533 0 0 1-4.455-.6c-2.582-.621-4.56-1.626-5.875-2.985a2.968 2.968 0 0 0-.666-.553c.677-1.547 1.465-3.924 1.17-6.157-.041-.51-2.173-8.982-.392-12.888 0 0 3.6-11.847 9.979-11.345.382.027 3.849.279 5.438 5.094.272.875 3.433 9.918 1.97 15.324-.213 1.017-1.346 5.856-4.847 11.126z"/></g></g><g><g><path fill="#3bd4ae" d="M111.74 2.798s.459-.447.537-.078c.078.37 1.06 2.978 1.383 3.884.322.907 2.844 9.278-1.676 12.512-.549.366-3.829 3.385-8.709-.228-.361-.297-2.916-2.562-3.949-9.881-.046-.533-.296-2.468-.44-3.02-.144-.551.396-.12.396-.12s7.943.846 12.458-3.07z"/></g><g><path fill="#3bd4ae" d="M97.82.836c.23.489.565 1.576.837 3.008.004-.001.007-.003.012-.003.451-.066.854.027 1.189.179.737.047 2.479.104 4.491-.188 2.628-.383 4.689-1.202 6.125-2.434.159-.148.402-.343.713-.49-.533-1.602-1.098-4.041-.599-6.237.085-.506 2.986-8.746 1.57-12.8 0 0-2.496-12.125-8.896-12.21-.383-.008-3.856-.074-5.881 4.574-.354.846-4.329 9.56-3.367 15.078.118 1.03.802 5.953 3.806 11.523z"/></g></g><g><g><path fill="#3bd4ae" d="M130.88-61.12s-.417-.487-.527-.126c-.111.36-1.33 2.866-1.734 3.739-.404.874-3.682 8.979.521 12.613.515.415 3.503 3.722 8.693.573.388-.264 3.138-2.285 4.839-9.478.094-.526.52-2.43.714-2.965.193-.536-.382-.157-.382-.157s-7.986.114-12.124-4.198z"/></g><g><path fill="#3bd4ae" d="M144.921-61.797c-.274.466-.706 1.518-1.108 2.918a2.126 2.126 0 0 0-1.214.066 22.533 22.533 0 0 1-4.455-.6c-2.582-.621-4.56-1.626-5.875-2.985a2.968 2.968 0 0 0-.666-.553c.677-1.547 1.465-3.924 1.17-6.157-.041-.51-2.173-8.982-.392-12.888 0 0 3.6-11.847 9.979-11.345.382.027 3.849.279 5.438 5.094.272.875 3.433 9.918 1.97 15.324-.213 1.017-1.346 5.856-4.847 11.126z"/></g></g></g></g></svg>