<?xml version="1.0" encoding="utf-8"?>
<!-- Generator: Adobe Illustrator 27.4.1, SVG Export Plug-In . SVG Version: 6.00 Build 0)  -->
<svg version="1.1" id="Layer_1" xmlns="http://www.w3.org/2000/svg" xmlns:xlink="http://www.w3.org/1999/xlink" x="0px" y="0px"
	 viewBox="0 0 1240 1408" style="enable-background:new 0 0 1240 1408;" xml:space="preserve">
<style type="text/css">
	.st0{fill:#FFFFFF;}
</style>
<path d="M1239.6,1408L1239.6,1408L1239.6,1408L1239.6,1408L1239.6,1408L1239.6,1408l0.3-0.3v0l0.1-0.1l-0.1,0.1V1221
	c-109.9-22.8-205.7-44.9-290.2-67c-42.5-11.1-117.4-32.2-118.6-33.4c-0.6-0.5-11-27-14.4-36.5c-12.9-36.1-23.6-71.6-36-120.1
	c-6.9-26.9-12.4-49.9-24.2-100.5c-3.3-14.3-7.6-32.8-9.6-41c-25.3-107.9-44.3-173.2-68.4-234.9c-15.3-39.2-29.4-69.4-47.5-101.3
	c-13.6-24-23.7-39.3-37.1-55.9c-8.7-10.8-16.4-20.2-16.6-20.2c0.8,1.3-22.9-28.1-32.8-40.1c-9.8-12.1-16.6-20.4-16.8-20.4
	c-0.1,0-23.1-28-32.1-39.3c-8.3-10.3-46.9-57.1-56.3-68.7c-9.7-12.1-21.1-26-21.3-25.9c0.9,1.5-13.9-13.7-27-32.2
	c-3.7-5.1-7.8-10.4-18.5-23.5c-3.1-3.8-6.6-8.1-11-13.4c-15.1-18.3-19.9-24-26.8-31.1c-9.1-9-18.7-17.5-28.8-25.4
	c-21.8-16.6-45.4-30.2-72.8-42C172.1,21.5,94.4,5.5,0,0v1408.3h1240l-0.6-0.4L1239.6,1408z"/>
<path id="Path_45636" class="st0" d="M625,490.8c30.9,63.1,55.2,133.9,79.5,231.9c7.7,30.8,11.8,48.4,28.6,122.6
	c13.1,57.7,17.3,75.6,26,109.4c8.2,32,17.1,62.4,25.7,88.3c7.9,23.6,17.2,47.8,25.8,67.1c1.9,4.2,2.2,5.1,1.6,5
	c-1.3-0.3-18-5.6-18.1-5.7c-0.3-0.3-5.7-11.7-9-19.1c-20.7-46.4-38.5-101.3-56-173.1c-7-28.9-11.5-48.4-25.8-113.7
	c-20-91.3-27.8-124.3-39.5-166.8c-26.2-95.5-55.2-167.2-92.5-228.8c-8-13.3-17-26-26.8-38c-9.8-12.1-16.6-20.4-16.8-20.4
	c-0.1,0,1.5,2.3,3.6,5.1c14.8,20.4,34.2,55.2,49.4,88.6c27.4,60.3,49.4,128.8,71.1,221.4c6.9,29.5,12,52.9,25.9,118.8
	c14.6,69.3,20.9,97.4,30,133.4c18.7,73.7,38,128.6,62,175.8c2.3,4.4,4.4,8.6,4.8,9.3c0.4,0.6,0.6,1.2,0.4,1.2
	c-0.4,0-17.1-5.9-18-6.4c-1.3-0.7-10.8-17.6-18.1-32.1c-21.8-43.6-40-95-56.9-161.1c-10.2-39.9-17.7-73.8-34.5-157
	c-14.5-71.9-20.8-101.2-29.3-137c-26.9-113.5-57.4-195.5-98-263.6c-7.4-12.5-15.6-24.5-24.7-35.8c-8.3-10.3-19.7-24.1-20.2-24.6
	c1,1.8,2.2,3.6,3.5,5.2c10.7,15.1,23.5,37.2,34.8,60c32.3,64.9,57.2,141.5,80.3,247.1c6.7,30.4,10.8,50.7,24.4,120.7
	c13.8,71,18.6,94.4,26,126.6c24,104.8,50.2,175.6,86.4,233.3c2.5,4,4.8,7.6,5.2,8.1c0.3,0.3,0.5,0.7,0.6,1.2
	c-0.1,0.3-10.4-4.5-15.5-7.3l-3.5-1.9l-3-4c-4.6-6.2-12.3-17.6-17.3-25.6C664.1,995.6,639,929,617.6,837.7
	c-5.7-24.3-10.4-46.3-16.9-79.3c-4.8-24.3-6.7-34.7-14.4-76.4c-15.7-85.2-22.9-121.1-32.9-163.9c-23.6-100.9-51.8-177.1-88.9-240
	c-7.5-12.9-16-25.2-25.5-36.8c-9.7-12.1-21.2-26-21.4-26c-0.1,0,1.3,2,3.1,4.5c14.1,19.7,32.3,53.2,46.1,84.9
	c24.4,56.1,43.4,119.3,61,203.1c7.5,35.7,13.5,67.8,26.7,143.8c5.5,31.3,9.5,53.8,12.4,69.7c18.3,99.3,34.7,162.4,57,218.8
	c18.3,46.4,39.1,83.7,64.8,116c2.9,3.6,6,7.5,6.9,8.5c0.6,0.7,1.1,1.3,1.6,2.1c0,0.3-4.8-2.9-11.9-7.7l-6.9-4.7l-4.8-5
	c-53.5-55.8-90.9-134.3-117.9-247c-11.5-48-19-88.2-36.4-194.4c-8.8-53.8-13.2-79.5-18.1-105.7c-19.4-104.6-40.5-178.9-68.8-242.6
	c-13.1-29.5-28.7-57.9-41.8-76.4c-3.7-5.1-7.8-10.4-18.5-23.5c92.2,99.2,201.2,245.2,207.6,253.9l0.4,0.5
	C592.9,431.1,610.8,461.8,625,490.8"/>
<polygon class="st0" points="1239.6,1408 1239.6,1408 1239.6,1408 "/>
<polygon class="st0" points="1239.7,1408 1239.6,1408 1239.6,1408 1239.6,1408 1239.6,1408 1239.6,1408 1239.6,1408 "/>
<path class="st0" d="M1078.8,1211.3c-25.9-6.4-50.9-12.7-75.6-19.2c-73.5-19.3-158.7-44.6-198.2-58.9l0,0
	c-35.1-12.7-66.1-29.4-93.7-50.4c-5.1-3.9-15.9-12.9-27.6-22.9c33.5,32.7,59.5,51.1,59.5,51.1l0.1,0.1c0,0,0,0,0,0c0,0,0,0,0,0
	c1.8,1.1,3.6,2.4,5.2,3.7l0,0c27,20.4,57.6,36.8,91.4,49.2c20.3,7.4,58.1,19.7,96.5,31.2c38.2,11.5,92.6,26.7,138,38.4
	c50.2,13,106.6,26.7,165.5,40.2v-25.5c-19.2-4.2-37.8-8.3-55.9-12.4C1147,1227.7,1112.2,1219.5,1078.8,1211.3z"/>
<path class="st0" d="M929.4,1212.5c-24.2-7.8-42.7-14.1-55.2-18.7c-17.3-6.4-33.6-13.8-49.1-22.2c-16.2-8.8-31.3-18.7-45.5-29.7
	c-0.3-0.2-0.7-0.5-1.1-0.9c-2.8-2.2-8-6.5-13.5-11.2c9.9,8.6,24.4,21,45.5,39.2c0,0,0,0,0,0c0-0.1,2.2,1.5,5.4,3.9l0,0
	c26.9,20.2,55.7,36,89.4,48.7c19.4,7.3,59.7,20.8,95.8,32c36.3,11.3,65.7,19.9,107.1,31.4c44.9,12.4,84.8,22.9,131.8,34.6v-21.9
	c-12.2-2.9-24-5.8-34.1-8.2C1101.3,1263.7,1005.3,1237.1,929.4,1212.5z"/>
<path class="st0" d="M810.5,1169C810.5,1168.9,810.5,1168.9,810.5,1169C810.5,1168.9,810.5,1168.9,810.5,1169L810.5,1169z"/>
<path class="st0" d="M930.3,1271.6c2.3,1.8,7.5,5.6,11.4,8.4c0,0,0,0,0,0v0c0.5,0.3,1,0.7,1.4,1c26,18.2,53.2,31.9,88.3,44.8
	c59.2,21.7,126.7,43.4,202.4,65.3c2.1,0.6,4.1,1.2,6,1.7v-16.5l-9-2.5c-79.8-22.4-139.6-41-201.4-62.5c-1-0.3-2-0.7-2.9-1
	c-11.1-3.9-20.5-7.3-28.9-10.4c-21.9-8.3-36.3-14.9-52.2-23.8c-0.8-0.4-1.6-0.9-2.4-1.3c-0.8-0.4-1.5-0.9-2.3-1.3
	c-16.2-9.3-31.5-19.9-45.8-31.9c-0.7-0.5-1.3-1.1-2-1.6c11.1,9.6,22.6,19.5,33,28.6c0,0,0,0,0,0c0,0,0.6,0.4,1.5,1.1
	C928.5,1270.1,929.4,1270.8,930.3,1271.6z"/>
<path class="st0" d="M870.2,1220.3C870.2,1220.3,870.2,1220.3,870.2,1220.3C870.2,1220.3,870.2,1220.3,870.2,1220.3
	C870.2,1220.3,870.3,1220.4,870.2,1220.3c0.1,0.1,0.1,0.1,0.1,0.1c0,0,0.1,0.1,0.2,0.1c0.6,0.4,1.9,1.4,3.6,2.7
	c0.5,0.3,0.9,0.7,1.4,1.1c1.6,1.2,3.3,2.4,4.9,3.6c15.7,11.5,32.2,21.7,49.6,30.4c14.9,7.4,30,13.7,50.8,21.2
	c0.8,0.3,1.5,0.5,2.3,0.8c13.7,4.9,28,9.8,42.9,14.7c62.6,20.9,134.9,42.4,213.9,63.6v-19c-29.7-7.7-58.6-15.5-86.2-23.1
	c-37.1-10.3-71.9-20.4-103.2-30.1c-5.7-1.8-11.5-3.6-17.2-5.4c-39.3-12.4-78.1-25.5-98.1-33.1l0,0c-9-3.4-17.6-7.1-26-11
	c-14.1-6.6-27.3-13.8-40-21.9c-8.5-5.4-16.7-11.1-24.7-17.3c-2.9-2.2-11.2-9.2-19.1-15.8C841.3,1195.6,854,1206.7,870.2,1220.3
	C870.2,1220.3,870.2,1220.3,870.2,1220.3C870.2,1220.3,870.2,1220.3,870.2,1220.3C870.2,1220.3,870.2,1220.3,870.2,1220.3z"/>
<path class="st0" d="M382.1,188c-49.5-35.7-114.9-62.1-195.5-78.8C132.5,98,69.9,91,0,88.3v27.6c161.8,5.9,281.9,31.9,369,79.8
	c6.4,3.5,12.6,7.1,18.6,10.9c0.3,0.2,0.6,0.4,0.9,0.6c3,1.9,5.9,3.8,6.7,4.3c0.5,0.4,1.1,0.8,1.7,1c0.2-0.1-4.3-9.7-7.5-16.3
	c-0.2-0.4-0.4-0.8-0.6-1.2l-0.3-0.5l-1.4-2.7L382.1,188z"/>
<path class="st0" d="M364.4,151.6l-6.6-6.3C285.9,76.8,167.5,38.7,0,30.4v29.5c0.9,0,1.7,0.1,2.6,0.1
	c169.8,7.7,291.3,43.1,369.6,107.9l3.9,3.2l-0.8-1.4l-0.8-1.5c-0.1-0.3-0.3-0.6-0.5-1c-1.2-2-3.3-5.6-5.3-8.7L364.4,151.6z"/>
<path class="st0" d="M223.3,213.6C158.8,202.2,85.7,195.2,0,192.4v23.8c13.5,0.4,26.8,1,39.9,1.6c160.4,7.8,285.1,32,378.6,73.3
	c1,0.4,1.9,0.8,2.8,1.2c2.7,1.2,4.9,2.1,6.1,2.6c0.6,0.3,1,0.4,1,0.4c0.1-0.1-0.8-2.9-2.3-7.3c-0.8-2.3-1.7-5.2-2.7-8.3
	c-0.2-0.7-0.5-1.4-0.7-2.1c-0.1-0.4-0.3-0.7-0.4-1.1c-0.2-0.4-0.4-0.9-0.6-1.3c-0.2-0.2-2.2-1.2-5.1-2.6c-2.8-1.3-6.4-3-10-4.7
	c-1.2-0.6-2.5-1.1-3.7-1.7C352.5,243.4,292.4,225.8,223.3,213.6z"/>
<path class="st0" d="M406.4,233.6l-6.8-3.9c-57.6-33.1-130.9-56.9-218.9-71.1C126.5,149.8,67.6,144.4,0,142.2v25.6
	c176.1,5.7,307.6,32.1,403,80.8c3.8,1.9,7.9,4.1,9.1,4.8c0.7,0.4,1.4,0.8,2.1,1c0.1,0,0.1,0.1,0.2,0.1c0.1-0.1-1.7-4.7-3.9-10.2
	c0-0.1-0.1-0.2-0.1-0.2L406.4,233.6z"/>
</svg>
