<?xml version="1.0" encoding="utf-8"?>
<!-- Generator: Adobe Illustrator 27.4.1, SVG Export Plug-In . SVG Version: 6.00 Build 0)  -->
<svg version="1.1" id="Layer_1" xmlns="http://www.w3.org/2000/svg" xmlns:xlink="http://www.w3.org/1999/xlink" x="0px" y="0px"
	 viewBox="0 0 1901.9 2259.9" style="enable-background:new 0 0 1901.9 2259.9;" xml:space="preserve">
<style type="text/css">
	.st0{fill:#FFFFFF;}
</style>
<g>
	<path d="M1827.4,472c1.5-1.5,6.1-6.7,11-12.3C1834.9,463.6,1831.3,467.6,1827.4,472L1827.4,472z"/>
	<path d="M1851.1,367.6c-10.2,31.8-20.9,63-27.3,79.8c-10.3,27.1-24.5,52.4-42.3,75.3l0,0c-1.1,1.4-2.2,2.8-3.2,4.3c0,0,0,0,0,0
		c0,0,0,0,0,0c0,0,0,0,0,0c1.9-1.9,9.3-10.2,15.8-17.7c-9.9,11.1-13.6,15.3-15,16.9c1.4-1.6,5.1-5.7,15-16.9
		c4.5-5.2,8.6-10,10.2-11.9c0,0,0,0,0,0c13.7-17,25.4-35.8,35.2-56.4c0.1-0.1,0.1-0.2,0.2-0.3c0.2-0.4,0.4-0.9,0.6-1.3
		c3.1-6.5,5.9-13.2,8.6-20c4-10.3,9.5-25.6,16.4-45.7c11.8-34.4,24.2-73.8,36.7-116.6v-66.5v0c-5.7,21.9-11.4,42.9-16.9,62.7
		C1874.6,290.9,1861.2,336,1851.1,367.6z"/>
	<path d="M1872.4,394c-11,27.8-24.5,51.6-41.7,73.6v0c-0.9,1-1.6,2-2.4,3.1c-0.3,0.4-0.6,0.8-0.9,1.3c3.9-4.4,7.6-8.5,11-12.3
		c5.6-6.4,11.5-13.3,13.4-15.6c2.2-2.8,4.4-5.6,6.5-8.4c14.7-19.9,26.7-41.6,36.6-66.3c2-5,4.4-11.3,7.2-18.7v-40.8v0
		c-0.5,1.6-1.1,3.3-1.6,4.9C1890.5,344.6,1878.7,377.9,1872.4,394z"/>
	<path d="M1874.2,418.8c-0.1,0.2-0.2,0.3-0.4,0.5c-1.5,1.9-2.7,3.5-2.9,3.8c0,0,0,0,0,0.1c0,0,0,0,0,0c0,0,0,0,0,0c0,0,0,0,0,0
		c0,0,0,0,0,0c0,0,0,0,0,0c0.8-0.8,1.6-1.6,2.2-2.4c1.3-1.5,5.5-6.3,9.5-10.7v0c1.7-1.9,3.1-3.7,4.7-5.5c0,0,0,0,0,0
		c0.1-0.1,0.2-0.3,0.3-0.4c5-5.7,9.7-11.7,14.2-17.8v0v-9.7c-7.7,14.3-16.5,27.9-26.5,40.8C1875,417.7,1874.6,418.3,1874.2,418.8z"
		/>
</g>
<path d="M0-0.5V1871v0v10v26.4v0v41.1v0v52.9v66.8v0v84.8v105.9v0.5l0,0l0.1-0.4l0-0.2c0-0.1,0-0.1,0-0.2c0,0.1,0,0.1,0,0.2
	l2.5-11.6c29.1-137.4,56.3-251,83.1-347c9.8-35.2,28.5-97.2,29.5-98.2c0.5-0.5,22.6-8.7,30.6-11.4c30.2-10.3,59.8-18.6,100.4-28.2
	c22.5-5.3,41.7-9.6,83.9-18.7c11.9-2.6,27.4-5.9,34.2-7.4c90.1-19.5,144.6-34.4,196.3-53.5c32.8-12.2,121.8-53.2,267.8-173
	c0,0,89.4-72.8,92-74.9c0,0,40.1-38.1,52.2-51.9c48.9-55.6,67.5-191.3,71-258.2c0,0,11.5-143.1,22.9-201.8
	c9.4-48.2,22.2-92.7,37.5-130.7c2.4-6,8.3-19.8,8.6-20.1l0.1,0l-0.1,0l0,0l0.1,0c0.4-0.2,0.8-0.3,1.2-0.4c2.4-0.7,8-2.2,14.9-3.9
	c41.1-10.2,87.2-18.5,152.5-27.6c13-1.8,17.1-2.4,53.4-7.3c72.2-9.7,104.7-14.7,140.5-21.8c96.7-19,163.2-46.3,212.4-87.1
	c10.3-8.6,40.1-39.8,47.5-48.2c0,0,72.9-82.4,110.4-124.4c34.1-38.2,56.7-65.8,56.7-65.8V105.6v-14V-0.5H0z"/>
<g>
	<path class="st0" d="M1008.9,810.2L1008.9,810.2L1008.9,810.2l-0.3,0.3l-2.9,3.8c-30.4,40.7-53.3,94.7-68.3,161.6
		c-9.3,41.3-15.7,88.8-19.2,141.5l0.2,0c-0.3,5.8-0.6,11.6-0.9,17.3l0.2,0c-7.8,141.7-30.4,247.3-71.4,324.3
		c-1.7,3.1-3.5,6.5-4.1,7.5c0,0,0,0,0,0c-0.4,0.6-0.7,1.2-0.9,1.9c0.1,0,3.6-1.2,8-2.9c0.3-0.1,0.5-0.2,0.8-0.3l8.6-3.3l3.3-5.6
		c28.3-47.4,49.2-108.1,62.3-181.1c7.6-42,12.7-87.5,15.7-139.1c0.3-5.7,0.6-11.4,0.9-17.2c0,0,0,0,0,0l0.1,0
		c8.5-138.1,34.7-238.4,80.3-309.1c1.8-2.7,3.6-5.5,4.1-6.2c0.4-0.4,0.6-0.9,0.8-1.4c-0.2-0.1-9.1,3.8-14.7,6.5L1008.9,810.2z"/>
	<path class="st0" d="M1740.6,564.9c-0.3,0.2-0.6,0.5-1,0.7c-0.3,0.2-0.5,0.4-0.8,0.6c-0.1,0-0.1,0.1-0.2,0.2
		c-1.1,0.9-4.1,3.2-7,5.4c-27.2,20.8-58.5,37.6-97.3,52.1c-28,10.5-57.9,19.2-95,27.5c-25.3,5.7-54,11.1-87.6,16.7
		c-11.9,2-28.1,4.6-50.1,8c-2.6,0.4-5.3,0.8-8,1.3c-11.7,1.8-22.2,3.5-31.6,5c-41.8,6.6-64,10.5-88.3,15.2
		c-69.9,13.5-122.7,28.3-169.6,47.8c-4.4,1.8-8.8,3.7-13.2,5.7c-10.2,4.6-20.4,9.6-29.7,14.5c-11,5.8-20.8,11.7-28.3,16.8
		c-0.1,0.1-0.3,0.2-0.4,0.3c-0.7,0.5-1.4,0.9-1.9,1.3c-0.9,0.6-1.4,0.9-1.4,0.9c0,0,0,0,0,0c0,0,0,0,0,0c0-0.1,1.8-1.5,4.5-3.7
		c4.3-3.5,11.1-8.8,17.3-13.6c7.9-6.2,16.2-11.9,24.9-17.1c2-1.2,4-2.4,6.1-3.5c11.3-6.4,23.1-12.4,35.5-18.2
		c45.5-21.1,99.1-38,165.3-52.3c29-6.3,54.2-11,100.7-18.9c10.7-1.8,22.6-3.8,35.9-6c34.7-5.8,43.4-7.3,63.7-10.9
		c27.6-4.9,45.9-8.5,66.2-12.8c50.9-11,92.6-23.5,128.1-38.6c17.6-7.5,33.7-15.6,48.6-24.5c4.1-2.5,9.4-5.8,14-8.8
		c2.9-1.9,5.5-3.7,7.5-5.1l3.4-2.4l1.6-2.9c2.3-4.2,6.5-12.8,6.3-12.8c-0.1,0-0.1,0.1-0.2,0.1c-0.3,0.1-0.5,0.2-0.7,0.4c0,0,0,0,0,0
		c0,0,0,0,0,0c-0.5,0.4-3.5,2.2-6.8,4.2c-23.7,14.3-50,26.6-80.9,37.5c-26.3,9.3-55.9,17.7-90.1,25.6c-0.1,0-0.2,0-0.3,0.1
		c0,0-0.1,0-0.1,0c-7.7,1.8-15.6,3.5-23.8,5.2c-1.3,0.3-2.5,0.5-3.8,0.8c-25,5.2-45.4,9-101.8,19c-48,8.5-68,12.1-87.7,15.9
		c-4.2,0.8-8.5,1.7-13,2.6c-20.9,4.2-40.4,8.5-58.7,12.9c-24.5,5.9-46.9,12.2-67.7,18.9c-29.4,9.4-55.7,19.8-80,31.3
		c-4.1,2-8.2,4-12.2,6c-14.6,7.5-28.2,15.3-38.2,22.1c-0.4,0.3-0.8,0.6-1.2,0.8c-0.7,0.5-1.5,1-2.3,1.4c-0.3,0.2-0.6,0.4-0.9,0.5
		c0,0,0,0,0,0c0,0,0,0,0,0c0.3-0.3,8-6.4,15.5-12.3c1.8-1.4,3.6-2.8,5.2-4.1c4.4-3.4,8.9-6.6,13.5-9.7c5.4-3.6,10.9-7.1,16.6-10.3
		c57.2-32.7,125.8-56.9,220.4-77.6c29.9-6.5,54.3-11.3,114.2-22.4c69.3-12.8,97.6-18.5,130.9-26.4c55.2-13.1,98.2-27.5,134.7-44.9
		c9.6-4.6,20.6-10.4,24.9-13.1c1.1-0.7,1.8-1.2,2-1.4c0.1-0.1,0.2-0.4,0.4-0.9c0.6-1.5,1.8-4.5,2.8-7.4c1.2-3.3,2.4-6.4,2.4-6.6
		c0-0.2-0.5,0-1,0.3c0,0,0,0,0,0c-0.2,0.1-1,0.5-2.1,1.1c-1.5,0.7-3.5,1.8-5.7,2.8c-9.2,4.5-18.7,8.7-28.7,12.8
		c-33,13.5-71,25.1-118.2,36.2c-9.7,2.3-18.6,4.3-28.3,6.4c-1.8,0.4-3.6,0.8-5.4,1.2c-17.3,3.7-37.3,7.7-67.4,13.5
		c-3.3,0.6-6.7,1.3-10.2,2c-28.5,5.5-47.5,9.2-62.6,12.2c-14,2.8-24.7,5-36.5,7.6c-47.6,10.3-87.6,20.7-123.1,32.4
		c-22.1,7.3-42.5,15-61.9,23.4c-25.1,10.9-51.2,24.6-68.7,36c-2,1.3-3.9,2.6-5.7,3.8c-2.4,1.7-4.3,3-4.3,2.9c0-0.1,7-5.7,17.2-13.7
		c7.4-5.9,15.1-11.3,23.1-16.3c2.9-1.8,5.9-3.6,8.9-5.4c30.2-17.6,63.2-32.7,101.3-46.4c27.2-9.7,57-18.7,90.2-27.2
		c35.5-9.1,63-15.1,139.2-30.4c52.8-10.6,69.7-14.1,92.6-19.3c0.7-0.2,1.5-0.3,2.3-0.5c3.6-0.8,7.2-1.6,10.7-2.5
		c54.8-12.8,97.5-26,134-41.6c6.2-2.6,15.8-7,16-7.2c0,0,0.6-1.6,1.3-3.7c1.1-3.2,2.5-7.5,3.3-9.8c0.2-0.7,0.4-1.3,0.5-1.5
		c0-0.1,0-0.1,0-0.2c-0.2-0.1-1.2,0.2-4.1,1.5c-16.2,6.9-36.5,14.2-56.2,20.5c-21.6,6.8-47,13.7-73.7,20.1
		c-28.2,6.7-43.1,10-91.2,20c-61.9,12.9-76.6,16-102.3,22c-76.9,17.7-133.8,35.7-184.3,58.4c-3.2,1.4-6.4,2.9-9.6,4.4
		c-0.6,0.3-1.2,0.6-1.8,0.9c-23.7,11.2-48.6,25.2-62.6,35.2l-0.4,0.3c-7.3,5.3-130.1,93.6-213.9,168.8c9.4-7.4,14-10.9,17.8-13.6
		c0.7-0.5,1.3-0.9,1.9-1.3c13-8.9,31.9-19.2,52.2-28.4c3.9-1.8,7.9-3.5,11.9-5.2c5-2.1,10.1-4.2,15.3-6.2
		c50-19.5,108.3-34.2,187.3-47.5c13.7-2.3,27.1-4.4,46.3-7.3c1.4-0.2,2.9-0.4,4.4-0.7c10.5-1.6,22.7-3.4,37.4-5.5
		c14.1-2.1,26.8-3.9,38.4-5.7c39.1-5.9,65.1-10.1,87.5-14.3c8.1-1.5,15.8-3.1,23.4-4.7c4.2-0.9,8.4-1.8,12.7-2.7
		c78.6-17.4,137.4-41.2,182.1-74c8.8-6.5,17.1-13.2,24.8-20.4l0.7-0.7l3.5-3.2l4-5.7C1738.1,568.9,1740.8,564.9,1740.6,564.9z
		 M1087.3,738.6c0.1-0.1,0.1-0.1,0.2-0.1c0.1-0.1,0.1,0,0.1,0.1c0,0.1-0.1,0.2-0.2,0.2c-0.1,0.1-0.1,0.1-0.2,0.1
		C1087.1,739,1087.2,738.8,1087.3,738.6z"/>
	<path class="st0" d="M1078.9,782.6c-0.4,0.4-4.4,8.4-7.8,15.5c-12.4,26.3-23.2,55.9-32.3,88.6c-5.3,19-10,39.1-14.1,60.2
		c-9.9,51-16.6,108.6-20.3,175.6c0,0-0.9,18.1-0.9,18.1c0,0-3,61.2-15.8,120.9c-13.1,61.3-36.2,121.5-58.5,153.1
		c-4.9,6.9-10,13.6-15.4,19.9l-2.7,3.2l2.4-1.3c0.5-0.3,1.3-0.7,2.3-1.3c0,0,0,0,0,0c0,0,0,0,0,0c0.8-0.5,1.8-1.1,2.8-1.6
		c1-0.6,2-1.2,2.9-1.7l5.7-3.4l5.3-5.4l0,0l0,0c55.8-56.6,80.1-150.1,90.2-281c0.4-5.6,1.2-17.3,1.2-17.4l0.1,0
		c0.5-8.4,0.9-16.7,1.5-24.9c0,0,9.8-107.3,18.1-152.5c11.6-63.2,27.6-116.8,48.3-161.6c2.1-4.4,3.7-8.1,3.7-8.2
		c-0.1-0.1-5.4,1.5-13.1,3.9C1081.3,781.6,1080.1,782.1,1078.9,782.6z"/>
	<path class="st0" d="M1056.4,797.8c0.1-0.3,0.3-0.5,0.4-0.8c1.5-2.9,3.1-5.8,3.7-6.7c0.4-0.6,0.7-1.2,0.9-1.9c-0.2,0-4,1.4-8.7,3.1
		l-8.6,3.3l-0.5,0.8l-2.9,4.8c-27,45.3-47.2,102.6-60.4,171.2c-0.6,3.3-1.2,6.6-1.8,9.9c-7.6,42-12.7,87.5-15.7,139.1l0,0l-0.1,0
		c-0.3,5.8-0.6,11.5-1,17.2c-8.5,138.1-34.7,238.4-80.3,309.1c-1.8,2.7-3.6,5.5-4.1,6.2c-0.4,0.4-0.6,0.9-0.9,1.4c0,0,0,0,0.1,0
		c0.2-0.1,0.9-0.3,1.8-0.7c3-1.2,8.7-3.9,12.8-5.8l2.7-1.3l1.8-2.3l1.3-1.8c30.4-40.7,53.3-94.7,68.3-161.6c0.3-1.4,0.6-2.9,0.9-4.3
		c8.7-40.2,13.8-86.6,17-137.4c0.4-5.7,0.7-11.4,1-17.2l-0.2,0h0c5.1-92.5,17-169.7,36.1-233.6
		C1030.1,854.5,1042.2,824.4,1056.4,797.8z"/>
	<path class="st0" d="M1849.4,312c-17.1,60.9-39.4,131.4-51.8,164.1c-11.1,29-25.4,54.6-43.2,77.3c-3.3,4.2-10.9,13-19.4,22.6
		c27.7-27.4,43.3-48.8,43.3-48.8l0.1-0.1c0,0,0,0,0,0c0,0,0,0,0,0c1-1.5,2-2.9,3.2-4.3l0,0c17.7-22.9,32-48.3,42.3-75.3
		c6.5-16.8,17.2-48,27.3-79.8c10.1-31.6,23.5-76.7,33.9-114.3c5.5-19.8,11.2-40.9,16.9-62.7v-84.5
		C1883.5,184.5,1866.9,249.8,1849.4,312z"/>
	<path class="st0" d="M1827.3,472C1827.3,472,1827.3,472,1827.3,472C1827.3,472,1827.3,472,1827.3,472L1827.3,472z"/>
	<path class="st0" d="M1848.9,419.4L1848.9,419.4c-2.7,6.9-5.5,13.5-8.6,20c-0.2,0.4-0.4,0.9-0.6,1.3c-0.1,0.1-0.1,0.2-0.2,0.3
		c-9.8,20.6-21.5,39.4-35.2,56.4c0,0,0,0,0,0c-1.6,2-5.7,6.7-10.2,11.9c7.3-8.1,17.8-20,33.3-37.3c-0.1,0.1,0.2-0.4,0.9-1.3
		c0.7-1.1,1.5-2.1,2.4-3.1v0c17.2-22.1,30.7-45.8,41.7-73.6c6.4-16,18.1-49.3,28-79.2c0.5-1.7,1.1-3.3,1.6-4.9v-52.7
		c-12.5,42.8-24.9,82.2-36.7,116.6C1858.4,393.8,1852.9,409.1,1848.9,419.4z"/>
	<path class="st0" d="M1887.4,404.4c4.8-5.4,9.7-10.9,14.5-16.3v-1.9c-4.5,6.1-9.2,12.1-14.2,17.8
		C1887.6,404.1,1887.5,404.3,1887.4,404.4z"/>
	<path class="st0" d="M1858.2,435.7c-2.1,2.8-4.2,5.6-6.5,8.4c-1.9,2.4-7.8,9.2-13.4,15.6c11.6-12.9,21-23.4,32.6-36.6c0,0,0,0,0,0
		c0,0,0,0,0,0c0,0,0,0,0,0c0,0,0,0,0,0c0,0,0,0,0,0c0,0,0,0,0-0.1c0.2-0.3,1.4-1.9,2.9-3.8c0.1-0.2,0.2-0.3,0.4-0.5
		c0.4-0.5,0.8-1,1.2-1.5c10-12.8,18.8-26.5,26.5-40.8v-25.8c-2.7,7.4-5.2,13.8-7.2,18.7C1884.9,394,1872.9,415.8,1858.2,435.7z"/>
	<path class="st0" d="M900.6,1450c-14.4,9.9-35.9,21.3-58.6,31.3c-1.8,0.8-3.6,1.6-5.5,2.4c-2.5,1-4.9,2.1-7.4,3.1
		c-51.7,21-112,36.6-195.2,50.6c-21.9,3.7-43.2,6.9-88.1,13.5c-88.5,12.9-121.9,18.6-162,27.4c-94,20.8-159.8,50.8-206.9,94.4
		l-4.2,3.9l-4,5.7c-4.1,5.7-6.7,9.6-6.6,9.8c0.6-0.4,1.2-0.8,1.7-1.3c0.7-0.6,3.1-2.4,5.6-4.3c0.5-0.4,1.1-0.8,1.6-1.2
		c3.4-2.6,6.8-5.1,10.4-7.6c24.8-17.4,53-31.8,87-44.6c47.2-17.7,99.8-30.4,182.6-44.2c13.3-2.2,32-5.2,58.1-9.3
		c63.4-9.9,90.1-14.4,119.9-20.1c69.9-13.5,122.7-28.3,169.6-47.8c26.5-11,54.6-25.6,71.2-37.1c0.2-0.1,0.4-0.3,0.6-0.4
		c0.7-0.5,1.3-0.9,1.8-1.2c0.8-0.5,1.3-0.9,1.4-0.8c0,0,0,0,0,0c0,0,0,0,0,0s0,0,0,0c0,0.1-11.7,9.4-21.9,17.4
		c-9.8,7.7-20.1,14.6-31,20.6c-52.8,29.9-116.5,52.2-200.7,70.4c-35.3,7.6-65,13-134.3,24.6c-0.8,0.1-1.5,0.3-2.3,0.4
		c-0.3,0.1-0.6,0.1-0.9,0.2c-33.9,5.6-42.7,7.1-62.7,10.7c-27.6,4.9-45.9,8.5-66.2,12.9c-76.1,16.5-131.8,36.4-176.6,63.1
		c-5.4,3.2-12.6,7.8-17.9,11.5c-1.3,0.9-2.5,1.7-3.6,2.5l-2.9,2.1l-0.5,0.3l-1.6,2.9c0,0-0.1,0.1-0.1,0.2c-1.5,2.8-3.8,7.2-5.1,10.1
		c-0.7,1.5-1.2,2.6-1.1,2.6c0.2,0,0.3-0.1,0.4-0.2c0.1,0,0.2-0.1,0.2-0.1c0.1-0.1,0.2-0.1,0.3-0.2c0.1,0,0.2-0.1,0.3-0.2
		c0.4-0.3,1.1-0.7,2-1.3c1.2-0.8,2.8-1.7,4.5-2.7c33-19.9,71.1-35.9,119.6-49.9c22.7-6.5,47.6-12.6,75.5-18.5c6.2-1.3,12-2.5,18-3.7
		c20-4,42.1-8,87.6-16.1c49.1-8.7,68.9-12.2,89-16.2c3.8-0.7,7.6-1.5,11.6-2.3c15.2-3,29.6-6.1,43.4-9.3
		c50.1-11.5,91.8-24.1,128.6-38.8c12-4.8,23.4-9.8,34.4-15c3.3-1.6,6.5-3.1,9.7-4.8c15.6-7.8,30.1-16.2,40.6-23.3
		c0.6-0.4,1.2-0.8,1.8-1.2c0.3-0.2,0.6-0.4,0.8-0.5c0.6-0.4,1.2-0.7,1.8-1c0,0,0,0,0,0c0,0,0,0,0,0c-0.3,0.4-9.9,8-18.2,14.5
		c-0.9,0.7-1.7,1.3-2.5,2c-1.9,1.5-3.9,3-5.9,4.4c-7.8,5.6-15.8,10.9-24.2,15.6c-57.2,32.7-125.8,56.9-220.4,77.6
		c-29.9,6.5-54.3,11.3-114.2,22.4c-69.3,12.8-97.6,18.5-130.9,26.4c-55.2,13.1-98.2,27.5-134.7,44.9c-12.1,5.8-26.3,13.5-26.9,14.5
		c-0.4,0.6-3.8,9.7-5.1,13.4c-0.3,0.9-0.5,1.5-0.5,1.5c0,0.2,0.5,0,1-0.3c0.4-0.2,2.4-1.3,5-2.5c0.9-0.4,1.8-0.9,2.8-1.4
		c4.8-2.4,9.8-4.6,14.8-6.9c36.2-16.1,78.1-29.4,132.2-42.1c30-7,53.4-11.9,111.3-23c54.9-10.6,74.5-14.5,99.1-19.8
		c45.9-9.9,84.7-20,119.2-31.2c23.6-7.6,45.3-15.8,65.8-24.7c23-10,46.8-22.3,64.1-33.1c3.7-2.3,7.2-4.6,10.2-6.7
		c2-1.4,3.7-2.6,4.2-2.8c0.1,0,0.1-0.1,0.1-0.1c0,0,0,0,0,0l0,0c0,0,0,0,0,0c0,0.1-7,5.7-17.2,13.7c-6.3,5-12.7,9.6-19.4,14
		c-4.1,2.7-8.3,5.3-12.5,7.7c-18.6,10.8-38.4,20.8-59.7,30c-37.8,16.4-80.8,30.5-131.7,43.6c-35.5,9.1-63,15.1-139.2,30.4
		c-31.5,6.3-50.2,10.1-65.1,13.3c-10.9,2.3-19.6,4.2-29.8,6.5c-60,13.5-105.8,27.5-144.7,44c-2.2,0.9-4.9,2.1-7.4,3.2
		c-3,1.3-5.8,2.6-7.4,3.4c-0.8,0.4-1.2,0.6-1.3,0.7c-0.1,0.1-4.7,13.9-5,15c0,0.1,0,0.1,0,0.1c0,0,0.1,0.1,0.2,0.1
		c0.3,0,1.1-0.3,2.6-0.9c0.4-0.2,0.9-0.4,1.4-0.6c16.2-6.9,36.5-14.2,56.2-20.5c21.6-6.8,47-13.7,73.7-20.1
		c28.2-6.7,43.1-10,91.3-20c46.4-9.6,66.2-13.8,84.1-17.8c6-1.3,11.8-2.7,18.2-4.1c16.3-3.8,31.8-7.6,46.4-11.4
		c58.7-15.4,105.1-31.6,147.4-51.4c22.7-10.6,46.8-24,61.6-34.1c0,0,0,0,0,0c0.2-0.1,0.3-0.2,0.4-0.3c0.8-0.6,1.6-1.1,2.4-1.7l0,0
		c0,0,0.2-0.2,0.4-0.3c0.5-0.3,0.9-0.7,1.4-1c15.5-11.2,132-95.6,212.5-167.8c-4.8,3.8-8.4,6.6-11.2,8.7
		C905.5,1446.5,903,1448.3,900.6,1450z"/>
	<polygon class="st0" points="0,2259.9 0,2259.9 0,2259.9 0.1,2259.6 0,2259.9 	"/>
	<path class="st0" d="M820,1475.5c0.1,0,0.2-0.1,0.4-0.1c1.1-0.3,2.3-0.8,3.4-1.2c0.4-0.4,4.4-8.4,7.8-15.5
		c19.7-41.6,35.2-91.3,46.3-148.7c0.2-0.8,0.3-1.6,0.5-2.4c9.6-50.8,16.3-191,16.3-191l0,0c9.8-135,40.8-231.8,94.2-294.2l2.7-3.2
		l-2.4,1.3c-1.3,0.7-5,2.8-8.1,4.7l-5.7,3.4l-5.3,5.4l0,0c-55.9,56.6-93.6,148.3-100.7,326.1c-5.2,128.7-22,226.7-54.9,302.7
		c-1.2,2.9-2.5,5.7-3.8,8.5c-2.1,4.5-3.7,8.2-3.7,8.2c0.1,0.1,4.9-1.4,11.8-3.5C819.2,1475.8,819.6,1475.7,820,1475.5z"/>
	<path class="st0" d="M167.7,1680.8c-27.7,27.4-43.3,48.8-43.3,48.8l-0.1,0.1c0,0,0,0,0,0c0,0,0,0,0,0c-1,1.5-2,2.9-3.2,4.3l0,0
		c-17.7,22.9-32,48.3-42.3,75.3c-6.5,16.8-17.2,48-27.3,79.8c-10.1,31.6-23.5,76.7-33.9,114.3C11.8,2024.1,6,2046,0,2068.8v84.8
		c10.2-43.5,19.8-82.9,29.4-119.9c6.5-25.3,13-49.5,19.5-73.1c1.5-5.3,2.9-10.5,4.4-15.7c17.1-60.9,39.4-131.4,51.8-164.1
		c11.1-29,25.4-54.6,43.2-77.3C151.6,1699.2,159.2,1690.4,167.7,1680.8z"/>
	<path class="st0" d="M2.3,1942.1c-0.8,2.4-1.5,4.7-2.3,7v52.9c12.8-43.7,25.4-83.9,37.4-118.9c6.9-20.1,12.3-35.4,16.4-45.7l0,0
		c1.9-4.9,3.9-9.7,6-14.4c10.4-23.4,23.3-44.6,38.6-63.6c0,0,0.1-0.1,0.1-0.1c1.6-2,5.7-6.7,10.1-11.8c-7.3,8.1-17.8,20-33.3,37.3
		c0.1-0.1-0.2,0.4-0.9,1.3c-0.7,1.1-1.5,2.1-2.4,3.1l0,0c-17.2,22.1-30.7,45.8-41.7,73.6C23.9,1878.9,12.1,1912.2,2.3,1942.1z"/>
	<path class="st0" d="M75.3,1784.8C75.3,1784.8,75.3,1784.8,75.3,1784.8C75.3,1784.8,75.3,1784.7,75.3,1784.8L75.3,1784.8z"/>
	<path class="st0" d="M15.2,1852.4c-5,5.7-10.2,11.4-15.2,17v2.1c4.7-6.5,9.6-12.7,14.9-18.7C15,1852.7,15.1,1852.5,15.2,1852.4z"/>
	<path class="st0" d="M45.3,1820c1.8-2.4,3.7-4.9,5.6-7.2c1.9-2.4,7.8-9.2,13.4-15.6c-11.6,12.9-21,23.4-32.6,36.6c0,0,0,0,0,0
		c0,0,0,0,0,0c0,0,0,0,0,0c0,0,0,0,0,0c0,0,0,0,0,0c0,0,0,0,0,0.1c-0.2,0.3-1.4,1.9-2.9,3.8c-0.1,0.1-0.2,0.3-0.4,0.4
		c-0.4,0.5-0.8,1-1.1,1.5C17,1852.7,7.9,1866.8,0,1881.6v26.4c3-8.1,5.7-15.2,7.8-20.5C17.9,1862.3,30.2,1840.2,45.3,1820z"/>
</g>
</svg>
