<?xml version="1.0" encoding="UTF-8"?> <svg xmlns="http://www.w3.org/2000/svg" xmlns:xlink="http://www.w3.org/1999/xlink" width="530" height="700" viewBox="0 0 530 700"><defs><clipPath id="clip-path"><rect id="Rectangle_2530" data-name="Rectangle 2530" width="530" height="700" transform="translate(0 406)" fill="#fff"></rect></clipPath><clipPath id="clip-path-2"><path id="Path_38070" data-name="Path 38070" d="M0,974.557H1228.815V0H0Z" transform="translate(0)" fill="none"></path></clipPath></defs><g id="Mask_Group_132" data-name="Mask Group 132" transform="translate(0 -406)" clip-path="url(#clip-path)"><g id="Group_3592" data-name="Group 3592" transform="matrix(-0.848, 0.53, -0.53, -0.848, 1309.969, 1432.716)"><g id="Stripes-Filled" transform="translate(614.408 1551.464) rotate(-120)"><g id="Mask_Group_74" data-name="Mask Group 74" transform="translate(0)" clip-path="url(#clip-path-2)"><path id="Path_37964" data-name="Path 37964" d="M1.275,117.3,0,125.18c1.457,5.515,4.372,10.636,8.926,12.409s13.844,1.182,24.227-.985c13.844-2.954,30.6-7.682,51.368-13.59L169.4,99.378c72.68-20.287,153.556-46.876,233.7-70.906,38.8-11.62,75.412-21.272,108.564-25.8S570.691-.678,594.006,6.61c86.159,27.574,111.114,169.583,136.252,312.969,15.119,86.071,32.424,180.809,61.386,273.774,16.394,52.391,36.431,104.783,62.843,154.023,28.781,53.77,65.94,105.177,117.854,146.932l10.747-35.059c-50.639-38.013-87.8-85.087-117.125-134.918-26.777-45.695-47.724-94.541-64.847-143.781-30.6-87.844-49.911-178.052-67.215-259.987C705.121,183.677,674.155,50.138,587.813,24.336,539.725,10.155,475.06,22.17,401.833,41.865,325.511,62.349,248.823,85.2,179.058,101.938Q132.791,113.165,96,120.846c-20.948,4.53-38.435,8.075-53.189,9.848-20.037,2.364-36.249-3.545-41.531-13.984" transform="translate(0 79.855)" fill="#2d302d"></path><path id="Path_37965" data-name="Path 37965" d="M1.275,91.043,0,98.921c5.465,10.439,21.494,16.348,41.531,13.984,14.755-1.772,32.241-5.318,53.189-9.848q36.613-7.878,83.062-18.908c69.583-17.135,146.452-39.983,222.775-60.467,73.226-19.5,137.709-31.711,185.98-17.529,86.341,25.8,117.307,159.341,146.088,296.228,17.3,81.935,36.613,172.143,67.215,259.987,17.3,49.24,38.07,98.086,64.847,143.781,29.327,49.634,66.487,96.707,117.126,134.917L992.379,806.2c-92.352-65-145.177-160.916-182.883-256.836-32.241-82.526-53.553-167.81-73.044-245.609C703.846,173.372,667.05,48.5,580.527,24.076c-48.089-13.59-110.75-3.348-180.88,12.8S253.924,73.12,186.891,86.513q-44.81,8.863-81.241,14.575c-21.13,3.348-39.163,5.712-54.646,6.5-22.587.985-41.349-5.318-49.728-16.545" transform="translate(1.457 98.433)" fill="#fff"></path><path id="Path_37966" data-name="Path 37966" d="M1.275,65.376,0,73.255C8.379,84.481,27.323,90.784,49.728,89.8c15.483-.788,33.7-3.151,54.646-6.5q36.249-5.712,81.241-14.575c66.851-13.393,139.895-32.5,212.392-49.437S530.8-7.1,578.888,6.485c86.523,24.62,123.319,149.3,155.924,279.683,19.491,77.8,40.8,163.28,73.044,245.609,37.706,95.92,90.531,191.839,182.883,256.836l10.565-34.665c-89.62-59.482-143.9-146.932-183.248-235.958-34.063-77.011-57.379-157.371-79.237-230.837C702.206,163.462,659.582,47.65,572.876,24.015c-48.089-13-108.564-5.121-175.779,8.075s-138.438,28.953-202.556,39q-43.353,6.7-79.419,10.439a491.131,491.131,0,0,1-56.1,3.151c-24.955-.394-46.085-7.485-57.743-19.3" transform="translate(2.732 116.221)" fill="#2d302d"></path><path id="Path_37967" data-name="Path 37967" d="M1.275,40.34,0,48.218c11.84,11.818,32.788,18.711,57.743,19.3a490.547,490.547,0,0,0,56.1-3.151q36.067-3.545,79.419-10.439c64.118-10.045,133.337-25.6,202.556-39.2S523.513-6.143,571.6,6.66C658.307,30.3,700.931,146.3,737.544,269.8c21.676,73.466,45.175,153.826,79.238,230.837,39.345,89.026,93.809,176.476,183.43,235.761l10.565-34.665C923.524,647.764,868.149,568.39,826.983,486.454c-35.7-71.5-61.386-146.735-85.431-215.474-40.8-116.6-89.074-223.55-176.144-246.791C517.5,11.584,458.848,17.1,394.547,26.947S262.849,49.006,201.463,55.9q-41.9,4.727-77.6,6.3a488.577,488.577,0,0,1-57.2-.2C39.528,60.233,16.394,52.551,1.275,40.34" transform="translate(4.19 133.379)" fill="#fff"></path><path id="Path_37968" data-name="Path 37968" d="M1.457,15.255,0,23.133c15.119,12.408,38.252,20.09,65.394,22.059a487.781,487.781,0,0,0,57.2.2q35.52-1.576,77.6-6.3c61.386-6.893,127.144-18.908,193.084-28.953S516.226-5.229,564.133,7.376C651.2,30.421,699.292,137.567,740.276,254.167,764.321,322.906,790,398.145,825.707,469.641c40.985,81.935,96.542,161.31,183.794,215.277l10.565-34.468C935.547,601.6,879.078,530.108,836.454,455.066c-37.524-65.785-65.394-135.705-91.988-199.717C698.927,146.036,645.192,47.95,558.122,24.906,510.579,12.5,453.747,15.649,392.361,22.148S267.221,37.314,208.385,41.057C156.107,44.4,111.661,44.6,74.5,39.875,45.174,36.133,19.855,27.663,1.457,14.861" transform="translate(5.282 150.388)" fill="#2d302d"></path><path id="Path_37969" data-name="Path 37969" d="M1.457,0,0,7.879c18.4,12.8,43.717,21.272,73.044,25.014,37.16,4.727,81.787,4.333,133.884,1.182C265.582,30.332,328.243,21.863,390.9,15.166s118.218-9.848,165.761,2.757c87.252,23.044,140.988,121.13,186.344,230.443C769.6,312.182,797.473,382.1,835,448.084c42.624,75.042,99.092,146.341,183.612,195.384l10.565-34.271c-81.788-44.316-138.8-108.328-183.066-176.082-39.163-60.073-69.4-124.479-98.546-183.173C697.106,147.72,637.906,58.694,550.654,35.453c-47.178-12.606-102.007-11.818-160.843-8.469s-118.947,8.469-175.233,9.06c-50.821.591-95.085-1.576-132.973-8.075C50.275,22.651,22.951,13.2,1.457,0" transform="translate(6.74 157.765)" fill="#fff"></path><path id="Path_37970" data-name="Path 37970" d="M1.457,0,0,8.075c21.676,13.2,49,22.651,80.148,27.968,37.888,6.5,82.152,8.666,132.973,8.075,56.1-.591,115.668-5.515,175.233-9.06s113.664-4.136,161.025,8.469c87.434,23.438,146.452,112.267,196.909,214.1,29.145,58.694,59.382,123.1,98.546,183.173C889.1,508.748,946.112,572.563,1027.9,616.878l10.565-34.271c-78.873-40.18-136.434-96.9-182.155-157.568C815.507,370.679,782.537,312.378,750.842,259,695.1,165.249,630.8,85.284,543.185,61.058c-96.178-26.2-212.21-10.439-322.6-15.166-49.364-2.167-93.263-6.7-131.88-14.969C55.557,24.029,26.23,13.59,1.457,0" transform="translate(8.015 149.689)" fill="#2d302d"></path><path id="Path_37971" data-name="Path 37971" d="M1.457,0,0,7.878C24.773,21.469,54.1,31.908,87.252,39c38.435,8.272,82.516,12.8,131.88,14.969,110.386,4.727,226.418-11.03,322.6,15.166C629.344,93.162,693.645,173.128,749.2,266.881,780.9,320.257,813.685,378.557,854.67,432.918c45.721,60.664,103.282,117.388,182.155,157.568l10.383-34.074c-75.959-36.635-133.7-86.268-180.88-139.842C823.7,368.118,788.366,315.924,753.938,268.26c-61.386-85.284-130.605-156.386-218.4-181.6C441,59.679,330.975,66.179,226.054,55.74c-47.907-4.727-91.624-11.818-130.6-21.666A460.653,460.653,0,0,1,1.457,0" transform="translate(9.472 141.811)" fill="#fff"></path><path id="Path_37972" data-name="Path 37972" d="M1.457,0,0,8.075A460.84,460.84,0,0,0,93.992,42.15C132.973,52,176.69,58.891,224.6,63.815c104.921,10.439,214.943,3.939,309.481,30.923,87.8,25.211,156.835,96.313,218.4,181.6C786.908,324,822.246,376.391,864.871,424.646c47.178,53.573,104.921,103.207,180.88,139.842l10.383-33.877C983.271,497.324,925.528,454.387,877.075,407.9c-44.264-42.346-82.516-88.238-119.676-129.994C689.82,201.49,615.865,139.054,528.066,112.267c-92.9-28.165-197.091-30.726-296.73-46.877a1094.8,1094.8,0,0,1-129.33-27.968A687.435,687.435,0,0,1,1.275,0" transform="translate(10.929 133.736)" fill="#2d302d"></path><path id="Path_37973" data-name="Path 37973" d="M1.457,0,0,8.075A686.919,686.919,0,0,0,100.732,45.5a1094.752,1094.752,0,0,0,129.33,28.165C329.7,89.617,434.075,92.374,526.791,120.54c87.8,26.787,161.753,89.223,229.333,165.643,37.16,41.953,75.23,87.647,119.676,129.994,48.635,46.482,106.2,89.42,179.058,122.706l10.383-33.877c-130.6-56.921-221.682-143.584-304.016-217.444C686.905,220.989,608.579,166.628,520.6,138.069c-90.9-29.544-189.623-41.362-284.343-62.83Q104.557,45.5,1.457,0" transform="translate(12.204 125.66)" fill="#fff"></path><path id="Path_37974" data-name="Path 37974" d="M1.457,0,0,8.076q102.735,45.5,234.98,75.239c94.72,21.272,193.448,33.089,284.343,62.83,87.8,28.756,166.307,82.92,240.626,149.492,82.334,73.663,173.229,160.522,304.016,217.444l10.383-33.68C949.026,426.812,853.03,357.482,765.414,297.41c-81.423-55.74-164.121-102.419-251.92-133.539S331.339,111.48,241.355,85.087A2215.339,2215.339,0,0,1,1.458,0" transform="translate(13.662 117.585)" fill="#2d302d"></path><path id="Path_37975" data-name="Path 37975" d="M1.457,0,0,8.076a2215.3,2215.3,0,0,0,239.716,84.89c89.984,26.393,183.065,47.27,272.139,78.784s170.679,77.8,251.92,133.539c87.617,60.073,183.612,129.4,308.934,181.991l10.383-33.68C964.509,404.95,864.87,353.543,771.243,307.455c-90.167-44.316-177.783-84.5-265.4-118.57C332.432,122.312,161.207,65.391,1.457,0" transform="translate(15.119 109.312)" fill="#fff"></path><path id="Path_37976" data-name="Path 37976" d="M1.457,0,0,8.272C159.932,73.466,331.157,130.388,504.569,197.354c87.616,33.877,175.415,74.057,265.4,118.57,93.627,46.089,193.266,97.5,311.849,146.144l10.2-33.483C977.624,382.1,872.339,349.407,773.611,316.909,678.526,285.592,586.538,252.5,498.375,215.08,330.611,143.387,168.857,66.573,1.457,0" transform="translate(16.394 101.237)" fill="#2d302d"></path><path id="Path_37977" data-name="Path 37977" d="M1.457,0,0,8.272c167.218,66.769,328.971,143.387,497.1,215.08,87.981,37.619,180.151,70.512,275.236,101.828,98.728,32.5,204.013,65.194,318.406,111.676l10.2-33.286c-107.289-44.316-216.036-58.5-322.05-76.421-103.282-17.332-200.552-45.3-287.622-86.268-82.88-39-159.021-86.269-237.165-127.236S90.349,34.862,1.457,0" transform="translate(17.851 92.965)" fill="#fff"></path><path id="Path_37978" data-name="Path 37978" d="M1.457,0,0,8.272C88.891,43.134,173.411,80.36,252.466,121.918S406.751,209.959,489.45,249.154c87.07,41.165,184.34,68.936,287.622,86.269,106.2,17.923,214.76,32.1,322.049,76.42l10.2-33.286C1008.773,335.423,896.747,340.15,783.447,337.2c-110.568-2.757-213.485-25.408-300.191-70.709C402.562,224.141,331.886,168.795,257.385,123.1S95.267,36.438,1.457,0" transform="translate(19.308 84.693)" fill="#2d302d"></path><path id="Path_37979" data-name="Path 37979" d="M1.457,0,0,8.272c93.81,36.438,179.969,76.42,256.292,123.1s145.177,101.04,225.872,143.387c86.706,45.3,189.623,67.951,300.191,70.709,113.3,2.757,225.325-1.97,325.874,41.362l10.2-33.089c-47.178-21.863-98.364-28.953-152.828-26.393s-115.85,13.59-176.508,20.09c-117.854,12.605-226.782-5.121-312.942-55.346C397.826,246.2,332.614,182.779,261.392,132.554A939.256,939.256,0,0,0,143.538,62.043C99.456,39.786,51.55,19.3,1.457,0" transform="translate(20.766 76.42)" fill="#fff"></path><path id="Path_37980" data-name="Path 37980" d="M1.457,0,0,8.272c50.275,19.3,98.181,39.786,142.263,62.042a939.373,939.373,0,0,1,117.672,70.512c71.4,50.225,136.434,113.843,214.76,159.537,86.159,50.225,195.087,67.754,312.942,55.346,60.658-6.5,120.4-17.529,176.508-20.09s105.468,4.53,152.828,26.393l10.2-32.892c-42.807-21.863-92.352-25.408-146.635-16.348-57.925,9.651-120.769,30.332-185.8,45.3C669.6,386.633,554.115,373.633,468.866,318.09c-76.141-49.634-135.523-120.933-203.831-175.885A740.56,740.56,0,0,0,149,65.785C104.192,41.953,54.464,20.484,1.457,0" transform="translate(22.041 68.148)" fill="#2d302d"></path><path id="Path_37981" data-name="Path 37981" d="M1.457,0,0,8.272C53.007,28.756,102.735,50.225,147.545,74.254A740.317,740.317,0,0,1,263.4,150.478C331.7,205.429,391.268,276.729,467.227,326.363c85.43,55.543,200.734,68.542,325.875,39.983,65.029-14.772,127.872-35.65,185.8-45.3,54.282-8.863,103.828-5.515,146.635,16.348l10.019-32.892c-38.07-22.453-85.8-22.65-139.895-7.484-59.565,16.742-125.687,47.467-195.088,71.3s-135.523,37.225-195.452,31.514c-55.011-5.318-103.1-26.59-143.72-56.134-73.773-53.77-127.691-132.554-193.266-192.233A617.444,617.444,0,0,0,154.1,69.724C108.564,44.316,57.014,21.666,1.457,0" transform="translate(23.498 59.678)" fill="#fff"></path><path id="Path_37982" data-name="Path 37982" d="M1.457,0,0,8.469C55.557,30.135,107.107,52.588,152.646,78.193a617.192,617.192,0,0,1,113.847,81.738c65.394,59.679,119.494,138.463,193.266,192.233,40.62,29.544,88.709,50.816,143.72,56.134,59.929,5.712,127.144-8.075,195.634-31.317s135.705-54.558,195.088-71.3c54.1-15.166,101.824-14.969,139.895,7.484l10.019-32.7c-33.152-23.241-79.055-20.484-132.427.394-61.2,24.029-130.6,65.391-204.924,98.48s-144.813,52.982-207.839,49.24c-56.832-3.545-105.467-26.393-145.359-58.891-71.4-58.3-120.04-144.372-182.7-208.581A535.618,535.618,0,0,0,158.839,73.86C113.118,46.483,59.747,22.847,1.457,0" transform="translate(24.955 51.209)" fill="#2d302d"></path><path id="Path_37983" data-name="Path 37983" d="M1.457,0,0,8.469C58.29,31.317,111.661,54.952,157.746,82.132a535.428,535.428,0,0,1,112.025,87.253c62.843,64.406,111.3,150.28,182.7,208.581,39.892,32.3,88.527,55.346,145.359,58.891,63.025,3.742,134.794-16.742,207.839-49.24s143.72-74.451,204.924-98.48c53.371-20.878,99.274-23.635,132.426-.394l10.019-32.7c-28.052-24.62-71.769-19.3-124.23,7.091-62.843,31.514-135.523,83.708-214.942,126.842S659.4,459.9,593.278,457.735c-58.472-1.97-107.835-26.787-146.634-62.436C377.607,332.272,334.436,239.306,274.325,170.37A478.178,478.178,0,0,0,164.3,77.6C117.672,49.043,62.3,24.226,1.457,0" transform="translate(26.412 42.74)" fill="#fff"></path><path id="Path_37984" data-name="Path 37984" d="M1.457,0,0,8.469C60.84,32.7,116.215,57.512,162.664,86.072A478.179,478.179,0,0,1,272.686,178.84C332.8,247.973,375.967,340.741,445,403.768c38.981,35.453,88.163,60.467,146.634,62.436,66.122,1.97,142.627-25.408,220.59-67.754s151.917-95.328,214.943-126.842c52.46-26.393,96.36-31.711,124.229-7.091l10.018-32.5c-22.405-26.2-63.936-18.711-115.3,12.408-30.6,18.711-64.665,43.528-101.825,70.709S863.6,374.027,820.971,401.011C737.726,453.8,656.3,488.658,586.9,488.067c-60.111-.591-109.839-27.968-147.91-66.769-66.669-68.345-104.557-167.613-162.118-241.473A436.333,436.333,0,0,0,168.857,81.738C122.044,51.407,64.847,25.6,1.457,0" transform="translate(27.87 34.271)" fill="#2d302d"></path><path id="Path_37985" data-name="Path 37985" d="M1.457,0,0,8.469c63.39,25.6,120.586,51.406,167.4,81.541A436.328,436.328,0,0,1,275.418,188.1c57.561,73.663,95.631,173.128,162.118,241.473,38.07,38.8,87.616,66.178,147.91,66.769,69.4.591,150.824-34.271,234.069-87.056,42.624-26.983,83.973-56.921,123.319-85.678s71.222-52,101.824-70.709c51.185-31.317,92.717-38.6,115.3-12.408l10.018-32.3c-16.758-27.771-55.739-18.908-105.468,16.742-30.966,22.256-65.94,51.8-104.739,83.9C918.242,343.3,874.342,379.345,828.8,412.04c-88.892,63.815-175.6,106.358-248.277,107.146-61.75.394-111.843-29.741-148.82-72.087-64.118-73.663-97.088-179.431-152.1-257.821a405.529,405.529,0,0,0-106.014-103.4C126.233,53.967,67.4,27.181,1.457,0" transform="translate(29.327 25.801)" fill="#fff"></path><path id="Path_37986" data-name="Path 37986" d="M1.457,0,0,8.469C65.94,35.453,124.776,62.436,171.954,94.147a405.529,405.529,0,0,1,106.014,103.4c55.193,78.39,87.981,184.158,152.1,257.82,36.977,42.346,87.07,72.481,148.82,72.087,72.862-.591,159.385-43.134,248.277-107.146,45.539-32.7,89.438-68.739,130.969-103.207,38.8-32.1,73.773-61.648,104.739-83.9,49.546-35.65,88.709-44.513,105.468-16.742l9.836-32.3c-10.929-29.15-47-19.893-94.72,19.5-31.331,26-67.033,59.876-107.471,97.3-43.9,40.771-90.349,83.117-139.166,121.918-95.085,75.633-187.073,126.251-263.4,127.827-63.39,1.182-113.664-32.3-149.549-78.39-61.568-79.572-89.62-191.248-142.263-274.365A382.329,382.329,0,0,0,177.783,89.223C130.6,56.528,69.947,28.559,1.457,0" transform="translate(30.784 17.332)" fill="#2d302d"></path><path id="Path_37987" data-name="Path 37987" d="M1.457,0,0,8.666C68.49,37.422,129.148,65.194,176.508,98.48A382.143,382.143,0,0,1,280.336,207.2C332.979,290.319,360.849,402,422.6,481.567c35.884,46.089,86.159,79.572,149.549,78.39,76.323-1.576,168.311-52.194,263.4-127.827,48.818-38.8,95.267-81.344,139.166-121.918,40.438-37.422,76.323-71.5,107.471-97.3,47.542-39.392,83.791-48.649,94.721-19.5l9.836-32.1c-5.282-29.938-37.706-21.469-83.063,21.075-31.33,29.544-67.944,68.148-110.021,111.085-46.267,47.27-95.813,96.313-147.91,141.811-101.46,88.435-199.277,147.326-279.061,149.493-64.847,1.576-115.486-35.65-150.1-85.678-59.018-86.071-81.97-203.46-132.427-291.107C258.1,162.584,223.388,123.707,182.337,93.95,134.794,59.285,72.5,30.332,1.457,0" transform="translate(32.241 8.666)" fill="#fff"></path><path id="Path_37988" data-name="Path 37988" d="M1.457,0,0,8.666C71.04,39,133.337,67.951,181.062,102.813c40.966,29.722,75.614,68.529,101.642,113.843,50.275,87.647,73.408,205.035,132.426,290.713,34.609,50.028,85.066,87.253,150.1,85.677,79.784-2.167,177.6-61.057,279.061-149.492,52.1-45.5,101.642-94.541,147.91-141.811,42.078-42.937,78.691-81.541,110.021-111.085,45.174-42.543,77.78-51.013,83.063-21.075l9.836-32.1c-.182-16.939-4.736-28.953-14.026-26.59-12.569,3.151-31.7,21.666-56.286,47.664-31.331,33.089-68.672,76.42-112.389,124.873C963.6,337.59,911.138,393.92,855.4,446.508,747.016,548.534,643.006,616.288,559.579,618.651a148.048,148.048,0,0,1-91.624-27.771C444.64,574.138,425.331,550.7,409.3,524.7c-56.468-92.374-74.866-215.08-122.772-307.258C262,170.088,227.872,129.35,186.708,98.283c-23.316-17.726-50.275-33.877-80.33-49.437S39.345,16.545,1.457,0" transform="translate(33.699 0)" fill="#2d302d"></path></g></g></g></g></svg> 