<?xml version="1.0" encoding="utf-8"?>
<!-- Generator: Adobe Illustrator 25.2.3, SVG Export Plug-In . SVG Version: 6.00 Build 0)  -->
<svg version="1.1" id="Layer_1" xmlns="http://www.w3.org/2000/svg" xmlns:xlink="http://www.w3.org/1999/xlink" x="0px" y="0px"
	 viewBox="0 0 1634 700" style="enable-background:new 0 0 1634 700;" xml:space="preserve">
<style type="text/css">
	.st0{clip-path:url(#SVGID_2_);}
</style>
<g>
	<defs>
		<rect id="SVGID_1_" x="-143" y="-190" width="1920" height="1080"/>
	</defs>
	<clipPath id="SVGID_2_">
		<use xlink:href="#SVGID_1_"  style="overflow:visible;"/>
	</clipPath>
	<g id="Revive" class="st0">
		<path id="Path_45631" d="M189,367c28-7,55-21,70-48c18-32,21-62,21-123c0-66-3-94-21-126C232,24,186,0,125,0H0v700h115V418h15
			l32,282h118l-40-305l-51-15V367z M125,108c14,0,24,5,32,18c6,11,7,28,7,70c0,43-1,58-8,69c-7,13-18,18-31,18h-10V108H125z
			 M550,700V592H442V404h100V296H442V108h108V0H327v700H550z M833,700L876,0H753l-17,545l-1,76h-16l-1-76L701,0H579l43,700H833z
			 M1032,700V0H917v700H1032z M1327,700l43-700h-123l-17,545l-1,76h-16l-1-76L1195,0h-122l43,700H1327z M1634,700V592h-108V404h100
			V296h-100V108h108V0h-223v700H1634z"/>
	</g>
</g>
</svg>
