<?xml version="1.0" encoding="utf-8"?>
<!-- Generator: Adobe Illustrator 25.2.3, SVG Export Plug-In . SVG Version: 6.00 Build 0)  -->
<svg version="1.1" id="Layer_1" xmlns="http://www.w3.org/2000/svg" xmlns:xlink="http://www.w3.org/1999/xlink" x="0px" y="0px"
	 viewBox="0 0 1780 700" style="enable-background:new 0 0 1780 700;" xml:space="preserve">
<style type="text/css">
	.st0{clip-path:url(#SVGID_2_);}
</style>
<g>
	<defs>
		<rect id="SVGID_1_" x="-70" y="-190" width="1920" height="1080"/>
	</defs>
	<clipPath id="SVGID_2_">
		<use xlink:href="#SVGID_1_"  style="overflow:visible;"/>
	</clipPath>
	<g id="Rally" class="st0">
		<path id="Path_45630" d="M255,387l71,21l26,292H188l-17-254h-11v254H0V0h166c37.3,0,70,7.3,98,22c27.6,14.3,50.5,36.1,66,63
			c9.3,16.7,15.5,33.2,18.5,49.5s4.5,38.8,4.5,67.5c0,29.3-1.3,52-4,68s-8.7,32.3-18,49c-14.7,26-40,43.7-76,53V387z M160,150v106h6
			c9.3,0,16.3-4,21-12c3.3-6,5-20,5-42c0-20.7-1.7-34-5-40c-4.7-8-11.7-12-21-12H160z M775,700H604l-6-175h-40l-5,175H382L433,0h292
			L775,700z M568,207l-5,168h30l-5-168V90h-20V207z M1098,700H810V0h160v550h128V700z M1416,700h-288V0h160v550h128V700z M1617,0
			h163l-127,468v232h-160V468L1366,0h164l33,182v100h21V182L1617,0z"/>
	</g>
</g>
</svg>
