<svg version="1.1" id="Layer_1" xmlns="http://www.w3.org/2000/svg" xmlns:xlink="http://www.w3.org/1999/xlink" x="0px" y="0px"
	 viewBox="0 0 1780 700" style="enable-background:new 0 0 1780 700;" xml:space="preserve">
		<path id="rally" d="M255,387l71,21l26,292H188l-17-254h-11v254H0V0h166c37.3,0,70,7.3,98,22c27.6,14.3,50.5,36.1,66,63
			c9.3,16.7,15.5,33.2,18.5,49.5s4.5,38.8,4.5,67.5c0,29.3-1.3,52-4,68s-8.7,32.3-18,49c-14.7,26-40,43.7-76,53V387z M160,150v106h6
			c9.3,0,16.3-4,21-12c3.3-6,5-20,5-42c0-20.7-1.7-34-5-40c-4.7-8-11.7-12-21-12H160z M775,700H604l-6-175h-40l-5,175H382L433,0h292
			L775,700z M568,207l-5,168h30l-5-168V90h-20V207z M1098,700H810V0h160v550h128V700z M1416,700h-288V0h160v550h128V700z M1617,0
			h163l-127,468v232h-160V468L1366,0h164l33,182v100h21V182L1617,0z"/>

<path id="resonate" d="M135,707L85,395H67v312H0V7h80c48,0,82.7,18.3,104,55c8.1,14.3,13.2,30.1,15,46.5c2,17,3,46.2,3,87.5
			c0,38-1.2,65.8-3.5,83.5S191,312.7,183,326c-12.7,22.7-34,36.3-64,41v12l31,10l54,318H135z M67,71v247h13c18.7,0,32.7-7.7,42-23
			c5.3-8.7,8.7-19.2,10-31.5s2-34.8,2-67.5c0-32-0.7-55-2-69s-4-24.3-8-31c-5.3-8.7-11.5-15-18.5-19S90,71,80,71H67z M403,707H238V7
			h165v64h-98v253h92v64h-92v255h98V707z M515,714c-32.7,0-56.7-9.2-72-27.5s-23-46.2-23-83.5V457h67v148c0,30,9.3,45,28,45
			c10,0,17.7-5,23-15c2.7-5.3,4.5-14.2,5.5-26.5s1.5-34.2,1.5-65.5c0-46.7-0.8-78-2.5-94s-4.8-27.7-9.5-35c-4.7-8.7-12.3-16.3-23-23
			l-27-13c-20-10-34.3-23-43-39c-7.3-11.3-11.8-27.2-13.5-47.5S424,233,424,177c0-46,0.8-77,2.5-93s5.8-29.7,12.5-41
			c16.7-28.7,45-43,85-43c62,0,93,37,93,111v140h-68V109c0-30-8.3-45-25-45c-10,0-17.7,4.7-23,14c-3.3,5.3-5.5,13.7-6.5,25
			s-1.5,33.3-1.5,66c0,44.7,0.8,75.2,2.5,91.5s4.5,27.8,8.5,34.5c5.3,8.7,13.7,16.3,25,23l30,15c18.7,11.3,32,24.7,40,40
			c6.7,11.3,10.8,26.8,12.5,46.5S614,478.3,614,537c0,48.7-0.7,80.3-2,95s-5.3,27.7-12,39C583.3,699.7,555,714,515,714z M746,714
			c-24,0-43.2-4.8-57.5-14.5S663.3,675.7,656,657c-5.3-14.7-8.7-39.3-10-74s-2-110-2-226s0.7-191.3,2-226s4.7-59.3,10-74
			c7.3-18.7,18.2-32.8,32.5-42.5S722,0,746,0c25.3,0,45,4.8,59,14.5S829.7,39,837,59c5.3,13.3,8.7,38,10,74s2,110.7,2,224
			s-0.7,188-2,224s-4.7,60.7-10,74c-7.3,20-18,34.8-32,44.5S771.3,714,746,714z M746,650c12.7,0,21.3-7.3,26-22
			c2.7-7.3,4.5-27.2,5.5-59.5S779,465.7,779,357s-0.5-179.2-1.5-211.5S774.7,93.3,772,86c-4.7-14.7-13.3-22-26-22
			c-11.3,0-19.7,7-25,21c-3.3,8.7-5.5,29.2-6.5,61.5S713,249,713,357s0.5,178.2,1.5,210.5s3.2,52.8,6.5,61.5
			C726.3,643,734.7,650,746,650z M939,707h-52V7h92l43,478l3,175h13V7h52v700h-92l-44-479l-2-174h-13V707z M1361,707h-71l-17-248
			h-62l-16,248h-71l55-700h127L1361,707z M1234,119l-18,276h53l-19-276l-1-72h-13L1234,119z M1331,7h213v64h-73v636h-67V71h-73V7z
			 M1731,707h-165V7h165v64h-98v253h92v64h-92v255h98V707z"/>

             		<path id="Path_45631" d="M189,367c28-7,55-21,70-48c18-32,21-62,21-123c0-66-3-94-21-126C232,24,186,0,125,0H0v700h115V418h15
			l32,282h118l-40-305l-51-15V367z M125,108c14,0,24,5,32,18c6,11,7,28,7,70c0,43-1,58-8,69c-7,13-18,18-31,18h-10V108H125z
			 M550,700V592H442V404h100V296H442V108h108V0H327v700H550z M833,700L876,0H753l-17,545l-1,76h-16l-1-76L701,0H579l43,700H833z
			 M1032,700V0H917v700H1032z M1327,700l43-700h-123l-17,545l-1,76h-16l-1-76L1195,0h-122l43,700H1327z M1634,700V592h-108V404h100
			V296h-100V108h108V0h-223v700H1634z"/>

</svg>
