<svg version="1.1" id="Layer_1" xmlns="http://www.w3.org/2000/svg" xmlns:xlink="http://www.w3.org/1999/xlink" x="0px" y="0px"
	 viewBox="0 0 852.9 47.2" style="enable-background:new 0 0 852.9 47.2;" xml:space="preserve">
<style type="text/css">
	.st0{fill:none;}
	.st1{fill:#514163;}
	.st2{fill:#514163;stroke:#B5E3D8;stroke-width:0.94;stroke-linecap:round;stroke-linejoin:round;}
</style>
<rect x="-46.3" y="-41.6" class="st0" width="927.8" height="130.5"/>
<path class="st1" d="M18.6,5.9c4.4-0.1,8.7,1.6,11.9,4.6c0.4,0.3,0.4,0.9,0.1,1.3c0,0-0.1,0.1-0.1,0.1l-2.2,2.2
	c-0.3,0.4-0.8,0.4-1.2,0c-2.3-2-5.3-3.2-8.4-3.3c-7,0.2-12.6,6.1-12.4,13.1c0.2,6.8,5.6,12.2,12.4,12.4c3.1,0,6.1-1.2,8.4-3.2
	c0.3-0.3,0.8-0.3,1.2-0.1l2.3,2.2c0.3,0.4,0.3,1,0,1.3c-3.2,3.1-7.5,4.8-11.9,4.8C8.9,41.3,1,33.4,1,23.6C1,13.8,8.9,5.9,18.6,5.9
	C18.7,5.9,18.7,5.9,18.6,5.9"/>
<path class="st1" d="M46.3,7.4c0-0.5,0.4-0.9,0.9-0.9l0,0h13.4c5.8-0.1,10.6,4.6,10.7,10.5c0,0,0,0,0,0c0,4.5-3,8.3-7.3,10l6.7,12.4
	c0.3,0.4,0.2,1-0.3,1.3c-0.2,0.1-0.4,0.2-0.6,0.1h-3.8c-0.3,0-0.6-0.2-0.8-0.4l-6.5-13h-7.4v12.5c0,0.5-0.4,0.9-0.9,0.9h-3.2
	c-0.5,0-0.9-0.4-0.9-0.9l0,0L46.3,7.4z M60.2,23.1c3.3-0.1,6-2.8,6-6.1c-0.1-3.3-2.7-5.9-6-5.8h-8.8v11.9H60.2z"/>
<path class="st1" d="M86.2,7.4c0-0.5,0.4-0.9,0.9-0.9c0,0,0,0,0,0h19.7c0.5,0,0.9,0.4,0.9,0.9v2.8c0,0.5-0.4,0.9-0.9,0.9H91.3v10
	h13.1c0.5,0,0.9,0.4,0.9,0.9v2.8c0,0.5-0.4,0.9-0.9,0.9H91.3v10.6h15.5c0.5,0,0.9,0.4,0.9,0.9v2.7c0,0.5-0.4,0.9-0.9,0.9H87.1
	c-0.5,0-0.9-0.4-0.9-0.9V7.4z"/>
<path class="st1" d="M119.8,39.8l15.1-33.1c0.2-0.3,0.5-0.5,0.8-0.5h0.5c0.3,0,0.7,0.2,0.8,0.5l15,33.1c0.2,0.4,0.1,0.9-0.3,1.2
	c-0.2,0.1-0.3,0.1-0.5,0.1h-3.1c-0.5,0-0.9-0.3-1.1-0.7l-3-6.7h-16.1c-1,2.3-2,4.5-3,6.7c-0.2,0.4-0.6,0.7-1.1,0.7h-3.1
	c-0.5,0-0.9-0.3-0.9-0.8C119.8,40.1,119.8,39.9,119.8,39.8 M142.1,29.4l-6-13.5h-0.2l-6,13.5H142.1z"/>
<path class="st1" d="M167.7,11h-8c-0.5,0-0.9-0.4-0.9-0.9V7.4c0-0.5,0.4-1,0.9-1c0,0,0,0,0.1,0h21.1c0.5,0,0.9,0.4,0.9,0.9
	c0,0,0,0,0,0V10c0,0.5-0.4,0.9-0.9,0.9c0,0,0,0,0,0h-8v28.9c0,0.5-0.4,0.9-0.9,0.9h-3.2c-0.5,0-0.9-0.4-0.9-0.9L167.7,11z"/>
<path class="st1" d="M196.5,6.4h3.3c0.5,0,0.9,0.4,0.9,0.9v32.5c0,0.5-0.4,0.9-0.9,0.9h-3.3c-0.5,0-0.9-0.4-0.9-0.9V7.3
	C195.6,6.8,196,6.4,196.5,6.4z"/>
<path class="st1" d="M213.7,7.4c-0.2-0.4-0.1-1,0.4-1.2c0.1-0.1,0.3-0.1,0.5-0.1h3.5c0.4,0,0.7,0.2,0.8,0.5L229.7,31h0.3l10.8-24.3
	c0.1-0.3,0.5-0.5,0.8-0.5h3.5c0.5,0,0.9,0.3,0.9,0.8c0,0.2,0,0.3-0.1,0.5l-15.1,33.1c-0.2,0.3-0.5,0.5-0.8,0.6h-0.5
	c-0.4,0-0.7-0.2-0.8-0.6L213.7,7.4z"/>
<path class="st1" d="M258.2,7.4c0-0.5,0.4-0.9,0.9-0.9l0,0h19.6c0.5,0,1,0.3,1,0.9c0,0,0,0.1,0,0.1v2.8c0,0.5-0.4,0.9-0.9,0.9h-15.6
	v10h13.1c0.5,0,0.9,0.4,0.9,0.9v2.8c0,0.5-0.4,0.9-0.9,0.9l0,0h-13.1v10.6h15.5c0.5,0,0.9,0.4,0.9,0.9v2.7c0,0.5-0.4,0.9-0.9,0.9
	h-19.6c-0.5,0-0.9-0.4-0.9-0.9V7.4z"/>
<path class="st1" d="M294.3,35.8c0.4-0.6,0.8-1.4,1.3-2c0.3-0.5,0.9-0.8,1.5-0.5c0.1,0,0.1,0.1,0.2,0.1c0.3,0.2,4.1,3.4,7.9,3.4
	c3.4,0,5.5-2.1,5.5-4.6c0-3-2.6-4.8-7.4-6.8c-5-2.1-8.9-4.7-8.9-10.4c0-3.8,3-9.1,10.8-9.1c3.2,0.1,6.4,1.1,9.1,2.9
	c0.5,0.4,0.7,1.1,0.3,1.6c0,0,0,0,0,0c-0.4,0.6-0.8,1.3-1.2,1.9c-0.3,0.6-0.9,0.9-1.5,0.6c-0.1,0-0.1-0.1-0.2-0.1
	c-0.4-0.2-3.8-2.5-6.6-2.5c-4.1,0-5.5,2.6-5.5,4.4c0,2.8,2.2,4.5,6.2,6.2c5.7,2.3,10.6,5,10.6,11c0,5.1-4.6,9.3-11,9.3
	c-3.9,0-7.6-1.4-10.6-3.9C294.1,37,293.7,36.7,294.3,35.8"/>
<path class="st1" d="M354.6,12.5c0-0.3,0.3-0.6,0.6-0.6h13.4c0.3,0,0.6,0.3,0.6,0.6c0,0,0,0,0,0v1.9c0,0.3-0.3,0.6-0.6,0.6
	c0,0,0,0,0,0h-10.6v7.7h8.9c0.3,0,0.6,0.3,0.6,0.6v1.8c0,0.3-0.3,0.6-0.6,0.6h-8.9v8.8c0,0.3-0.3,0.6-0.6,0.6h-2.2
	c-0.4,0-0.6-0.3-0.6-0.6c0,0,0,0,0,0L354.6,12.5z"/>
<path class="st1" d="M386.5,11.6c6.6,0,12,5.4,12,12c0,6.6-5.4,12-12,12c-6.6,0-12-5.3-12-11.9C374.5,17,379.8,11.6,386.5,11.6
	C386.5,11.6,386.5,11.6,386.5,11.6 M386.5,32.3c4.8,0,8.7-3.9,8.7-8.6c0-4.8-3.9-8.7-8.6-8.7c-4.8,0-8.7,3.9-8.7,8.6
	c0,0,0,0.1,0,0.1C377.9,28.4,381.8,32.3,386.5,32.3"/>
<path class="st1" d="M406.4,12.5c0-0.3,0.3-0.6,0.6-0.6h9.1c4,0,7.2,3.2,7.3,7.1c0,0,0,0,0,0c-0.1,3.1-2.1,5.8-4.9,6.8l4.6,8.5
	c0.2,0.3,0.1,0.7-0.1,0.9c-0.1,0.1-0.3,0.1-0.4,0.1h-2.6c-0.2,0-0.4-0.1-0.5-0.3l-4.5-8.9h-5v8.5c0,0.3-0.3,0.6-0.6,0.6h-2.2
	c-0.3,0-0.6-0.3-0.6-0.6c0,0,0,0,0,0L406.4,12.5z M415.9,23.3c2.3,0,4.1-1.9,4.1-4.2c-0.1-2.2-1.9-4-4.1-4h-6v8.1L415.9,23.3z"/>
<path class="st1" d="M346.6,43.4c0.5,0,0.9,0.4,0.9,0.8v2.1c0,0.5-0.4,0.9-0.9,0.9h-9.7c-0.5,0-0.9-0.4-0.9-0.9V0.9
	c0-0.5,0.4-0.9,0.9-0.9h9.7c0.5,0,0.9,0.4,0.9,0.9V3c0,0.5-0.4,0.9-0.9,0.9h-6.3v39.5H346.6z"/>
<path class="st1" d="M437.3,43.4V3.9H431c-0.5,0-0.9-0.4-0.9-0.9V0.9c0-0.5,0.4-0.9,0.9-0.9h9.7c0.5,0,0.9,0.4,0.9,0.9v45.4
	c0,0.5-0.4,0.9-0.9,0.9H431c-0.5,0-0.9-0.4-0.9-0.9v-2.1c0-0.5,0.4-0.9,0.9-0.8L437.3,43.4z"/>
<path class="st1" d="M478.5,5.9c4.4-0.1,8.7,1.6,11.9,4.6c0.4,0.3,0.5,0.9,0.1,1.3c0,0-0.1,0.1-0.1,0.1l-2.2,2.2
	c-0.3,0.4-0.8,0.4-1.2,0c-2.4-2.1-5.4-3.2-8.5-3.3C471.5,11,466,17,466.3,24c0.3,6.7,5.6,12,12.2,12.2c3.1,0,6.1-1.2,8.5-3.2
	c0.3-0.3,0.8-0.3,1.2,0l2.3,2.2c0.4,0.4,0.4,1,0,1.3c0,0,0,0,0,0c-3.2,3.1-7.5,4.8-11.9,4.8c-9.8,0-17.7-7.9-17.7-17.7
	C460.8,13.9,468.7,5.9,478.5,5.9C478.5,5.9,478.5,5.9,478.5,5.9"/>
<path class="st1" d="M520.9,5.9c9.8,0,17.7,7.9,17.7,17.6c0,9.8-7.9,17.7-17.6,17.7c-9.8,0-17.7-7.9-17.7-17.6
	C503.2,13.9,511.1,5.9,520.9,5.9C520.9,5.9,520.9,5.9,520.9,5.9 M520.9,36.4c7.1,0,12.8-5.7,12.8-12.7s-5.7-12.8-12.7-12.8
	s-12.8,5.7-12.8,12.7c0,0,0,0.1,0,0.1C508.2,30.7,513.9,36.3,520.9,36.4"/>
<path class="st1" d="M558.3,6.6c0.1-0.4,0.5-0.7,0.9-0.7h0.8c0.4,0,0.7,0.2,0.8,0.5l10.3,25.1h0.2l10.2-25.1
	c0.2-0.3,0.5-0.5,0.8-0.5h0.8c0.4,0,0.8,0.3,0.9,0.7l6,33c0.2,0.4-0.1,0.9-0.5,1.1c-0.1,0-0.3,0.1-0.4,0H586c-0.4,0-0.8-0.3-0.9-0.7
	l-3.6-22h-0.2l-8.8,22.6c-0.1,0.3-0.5,0.6-0.8,0.5h-0.8c-0.4,0-0.7-0.2-0.8-0.5L561,18.1h-0.2l-3.5,22c-0.1,0.4-0.5,0.7-0.9,0.7
	h-3.2c-0.5,0-0.9-0.3-1-0.8c0-0.1,0-0.2,0-0.3L558.3,6.6z"/>
<path class="st1" d="M610.5,6.6c0.1-0.4,0.5-0.7,0.9-0.7h0.8c0.4,0,0.7,0.2,0.8,0.5l10.3,25.1h0.2l10.2-25.1
	c0.2-0.3,0.5-0.5,0.8-0.5h0.8c0.4,0,0.8,0.3,0.9,0.7l6,33c0.2,0.4,0,0.9-0.5,1.1c-0.1,0.1-0.3,0.1-0.4,0.1h-3.2
	c-0.4,0-0.8-0.3-0.9-0.7l-3.6-22h-0.2l-8.8,22.6c-0.1,0.3-0.5,0.6-0.8,0.5h-0.9c-0.4,0-0.7-0.2-0.8-0.5l-8.9-22.6h-0.2l-3.5,22
	c-0.1,0.4-0.5,0.7-0.9,0.7h-3.2c-0.5,0-0.9-0.3-1-0.8c0-0.1,0-0.2,0-0.3L610.5,6.6z"/>
<path class="st1" d="M657.9,7.1c0-0.5,0.4-0.9,0.9-0.9h3.3c0.5,0,0.9,0.4,0.9,0.9v20.3c0,4.9,3.1,8.8,8.2,8.8s8.3-3.8,8.3-8.7V7.1
	c0-0.5,0.4-0.9,0.9-0.9h3.3c0.5,0,0.9,0.4,0.9,0.9v20.6c-0.2,7.4-6.3,13.2-13.7,13c-7.1-0.2-12.8-5.9-13-13L657.9,7.1z"/>
<path class="st1" d="M703,6.8c0-0.5,0.4-0.9,0.9-0.9c0,0,0,0,0,0h1.2l21.3,24.7h0.1V7.4c0-0.5,0.4-0.9,0.9-0.9c0,0,0,0,0,0h3.1
	c0.5,0,0.9,0.4,0.9,0.9v33c0,0.5-0.4,0.9-0.9,0.9h-1.3L708,15.9l0,0v23.9c0,0.5-0.4,0.9-0.9,0.9h-3.1c-0.5,0-0.9-0.4-0.9-0.9
	L703,6.8z"/>
<path class="st1" d="M751.1,6.4h3.2c0.5,0,0.9,0.4,0.9,0.9v32.5c0,0.5-0.4,0.9-0.9,0.9h-3.2c-0.5,0-0.9-0.4-0.9-0.9V7.3
	C750.2,6.8,750.6,6.4,751.1,6.4z"/>
<path class="st1" d="M778.7,11h-8c-0.5,0-0.9-0.4-0.9-0.9V7.4c0-0.5,0.3-1,0.9-1c0,0,0,0,0.1,0h21.1c0.5,0,0.9,0.5,0.9,1
	c0,0,0,0,0,0v2.8c0,0.5-0.4,0.9-0.9,0.9h-8v28.8c0,0.5-0.4,0.9-0.9,0.9h-3.2c-0.5,0-0.9-0.4-0.9-0.9L778.7,11z"/>
<path class="st1" d="M816.5,24.2L805,7.8c-0.3-0.4-0.2-1,0.2-1.3c0.2-0.1,0.4-0.2,0.6-0.2h3.6c0.3,0,0.6,0.2,0.8,0.4l8.9,12.5
	L828,6.8c0.2-0.3,0.5-0.4,0.8-0.4h3.7c0.5,0,0.9,0.4,0.9,0.9c0,0.2,0,0.4-0.2,0.6l-11.6,16.4v15.7c0,0.5-0.4,0.9-0.9,0.9h-3.2
	c-0.5,0-0.9-0.4-0.9-0.9V24.2z"/>
<path class="st1" d="M848.4,11.1c0.4,0,0.7-0.3,0.7-0.6c0,0,0,0,0,0c0-0.4-0.3-0.7-0.6-0.7c0,0,0,0-0.1,0h-1.2v1.3L848.4,11.1z
	 M846.1,9.1c0-0.1,0.1-0.3,0.3-0.3l0,0h2c0.9-0.1,1.7,0.6,1.7,1.5c0,0,0,0,0,0c0,0.7-0.4,1.3-1,1.5c0.2,0.5,0.5,1,0.7,1.5
	c0.1,0.1,0,0.3-0.1,0.3c0,0-0.1,0-0.1,0H849c-0.1,0-0.2-0.1-0.2-0.2l-0.7-1.6h-0.8v1.5c0,0.1-0.1,0.3-0.3,0.3c0,0,0,0,0,0h-0.5
	c-0.1,0-0.3-0.1-0.3-0.3c0,0,0,0,0,0L846.1,9.1z M847.9,15.3c2.2,0,4-1.8,4-4s-1.8-4-4-4s-4,1.8-4,4S845.7,15.3,847.9,15.3
	 M847.9,6.4c2.7,0,4.9,2.2,4.9,4.9s-2.2,4.9-4.9,4.9c-2.7,0-4.9-2.2-4.9-4.9C843,8.7,845.2,6.4,847.9,6.4"/>
<path class="st2" d="M0.5,4.4L0.5,4.4 M834.6,4.4L834.6,4.4 M834.6,42.8L834.6,42.8 M0.5,42.8L0.5,42.8"/>
</svg>
