<svg xmlns="http://www.w3.org/2000/svg" xmlns:xlink="http://www.w3.org/1999/xlink" width="536" height="118.883" viewBox="0 0 536 118.883">
  <defs>
    <clipPath id="clip-path">
      <rect id="Rectangle_2318" data-name="Rectangle 2318" width="536" height="118.883" fill="none"/>
    </clipPath>
  </defs>
  <g id="Group_3910" data-name="Group 3910" transform="translate(0 0)">
    <g id="Group_3909" data-name="Group 3909" transform="translate(0 0)" clip-path="url(#clip-path)">
      <path id="Path_45130" data-name="Path 45130" d="M21.571,3.1A20.731,20.731,0,0,1,36.033,8.655,1.116,1.116,0,0,1,36.1,10.33l-2.633,2.69c-.417.537-.954.537-1.495,0A16.181,16.181,0,0,0,21.633,9.011c-8.547,0-15,7.172-15,15.539A15.242,15.242,0,0,0,21.689,40.027c4.364,0,7.414-1.731,10.278-3.941a1.1,1.1,0,0,1,1.438-.063l2.746,2.69a1.138,1.138,0,0,1-.057,1.613,20.514,20.514,0,0,1-14.524,5.8,21.515,21.515,0,1,1,0-43.029" transform="translate(0 1.533)" fill="#514163"/>
      <path id="Path_45131" data-name="Path 45131" d="M53.856,23.817a7.43,7.43,0,0,0,7.29-7.414,7.325,7.325,0,0,0-7.29-7.109H43.217V23.817ZM36.942,4.631A1.132,1.132,0,0,1,38.075,3.5H54.33A12.9,12.9,0,0,1,67.359,16.285c0,5.5-3.648,10.042-8.846,12.133L66.7,43.6a1.128,1.128,0,0,1-1.015,1.731H61.028a1.1,1.1,0,0,1-.958-.535l-7.95-15.838H43.1v15.24a1.176,1.176,0,0,1-1.138,1.133H38.075a1.132,1.132,0,0,1-1.133-1.133Z" transform="translate(18.286 1.731)" fill="#514163"/>
      <path id="Path_45132" data-name="Path 45132" d="M69.408,4.631A1.132,1.132,0,0,1,70.541,3.5H94.446a1.129,1.129,0,0,1,1.133,1.133V7.98a1.129,1.129,0,0,1-1.133,1.133H75.564V21.3H91.521a1.176,1.176,0,0,1,1.133,1.138v3.344a1.133,1.133,0,0,1-1.133,1.138H75.564v12.85H94.446a1.13,1.13,0,0,1,1.133,1.133v3.288a1.129,1.129,0,0,1-1.133,1.133H70.541a1.132,1.132,0,0,1-1.133-1.133Z" transform="translate(34.357 1.731)" fill="#514163"/>
      <path id="Path_45133" data-name="Path 45133" d="M123.864,31.3,116.518,14.93h-.3L108.929,31.3ZM96.8,43.972,115.143,3.755a1.394,1.394,0,0,1,1.015-.659h.6a1.394,1.394,0,0,1,1.015.659L136,43.972a1.056,1.056,0,0,1-1.015,1.556h-3.766a1.4,1.4,0,0,1-1.375-.9l-3.7-8.191H106.6c-1.2,2.751-2.447,5.44-3.643,8.191a1.507,1.507,0,0,1-1.375.9H97.811A1.056,1.056,0,0,1,96.8,43.972" transform="translate(47.854 1.532)" fill="#514163"/>
      <path id="Path_45134" data-name="Path 45134" d="M139.337,9.114h-9.743a1.133,1.133,0,0,1-1.133-1.133V4.632A1.133,1.133,0,0,1,129.594,3.5h25.7a1.129,1.129,0,0,1,1.133,1.133V7.981a1.129,1.129,0,0,1-1.133,1.133H145.55V44.188a1.176,1.176,0,0,1-1.133,1.139H140.47a1.176,1.176,0,0,1-1.133-1.139Z" transform="translate(63.588 1.732)" fill="#514163"/>
      <rect id="Rectangle_2316" data-name="Rectangle 2316" width="6.213" height="41.829" rx="0.758" transform="translate(236.759 5.229)" fill="#514163"/>
      <path id="Path_45135" data-name="Path 45135" d="M173.2,5.053A1.056,1.056,0,0,1,174.216,3.5h4.244a1.176,1.176,0,0,1,1.015.659l13.149,29.583h.356L206.127,4.156a1.1,1.1,0,0,1,1.015-.659h4.246A1.056,1.056,0,0,1,212.4,5.053L194.056,45.27a1.136,1.136,0,0,1-1.015.659h-.6a1.214,1.214,0,0,1-1.015-.659Z" transform="translate(85.675 1.731)" fill="#514163"/>
      <path id="Path_45136" data-name="Path 45136" d="M209.3,4.631A1.132,1.132,0,0,1,210.436,3.5h23.905a1.129,1.129,0,0,1,1.133,1.133V7.98a1.129,1.129,0,0,1-1.133,1.133H215.459V21.3h15.956a1.176,1.176,0,0,1,1.133,1.138v3.344a1.133,1.133,0,0,1-1.133,1.138H215.459v12.85h18.882a1.13,1.13,0,0,1,1.133,1.133v3.288a1.129,1.129,0,0,1-1.133,1.133H210.436a1.132,1.132,0,0,1-1.133-1.133Z" transform="translate(103.605 1.731)" fill="#514163"/>
      <path id="Path_45137" data-name="Path 45137" d="M238.755,39.491c.535-.777,1.015-1.674,1.556-2.452a1.35,1.35,0,0,1,2.03-.474c.354.3,4.96,4.122,9.562,4.122,4.12,0,6.748-2.51,6.748-5.56,0-3.585-3.107-5.857-9.021-8.3-6.1-2.571-10.876-5.739-10.876-12.669,0-4.663,3.587-11.057,13.086-11.057A20.25,20.25,0,0,1,262.9,6.622a1.423,1.423,0,0,1,.36,2.035c-.48.716-1.02,1.55-1.5,2.272a1.417,1.417,0,0,1-2.091.6c-.422-.242-4.6-2.993-8.067-2.993-5.023,0-6.754,3.168-6.754,5.384,0,3.4,2.627,5.493,7.589,7.527,6.934,2.808,12.85,6.1,12.85,13.385,0,6.213-5.56,11.3-13.329,11.3A19.334,19.334,0,0,1,239.115,41.4c-.541-.48-.958-.9-.36-1.912" transform="translate(118.039 1.533)" fill="#514163"/>
      <path id="Path_45138" data-name="Path 45138" d="M287.776,10.452a.771.771,0,0,1,.773-.773H304.8a.771.771,0,0,1,.773.773v2.277a.771.771,0,0,1-.773.773H291.964v9.387h10.851a.8.8,0,0,1,.773.773v2.231a.8.8,0,0,1-.773.773H291.964V37.356a.8.8,0,0,1-.773.773h-2.642a.771.771,0,0,1-.773-.773Z" transform="translate(142.45 4.791)" fill="#514163"/>
      <path id="Path_45139" data-name="Path 45139" d="M318.551,34.606a10.567,10.567,0,1,0-10.525-10.525,10.563,10.563,0,0,0,10.525,10.525m0-25.2a14.632,14.632,0,1,1-14.59,14.673,14.6,14.6,0,0,1,14.59-14.673" transform="translate(150.461 4.657)" fill="#514163"/>
      <path id="Path_45140" data-name="Path 45140" d="M341.42,23.5a5.049,5.049,0,0,0,4.96-5.04,4.981,4.981,0,0,0-4.96-4.838h-7.233V23.5Zm-11.5-13.045a.771.771,0,0,1,.773-.773h11.051a8.771,8.771,0,0,1,8.861,8.7,9.024,9.024,0,0,1-6.013,8.254l5.563,10.32a.768.768,0,0,1-.689,1.18H346.3a.739.739,0,0,1-.647-.366L340.245,26.99H334.1V37.356a.8.8,0,0,1-.767.773h-2.642a.771.771,0,0,1-.773-.773Z" transform="translate(163.312 4.791)" fill="#514163"/>
      <path id="Path_45141" data-name="Path 45141" d="M285.518,52.741a1.079,1.079,0,0,1,1.093,1.03V56.3a1.127,1.127,0,0,1-1.093,1.087H273.694a1.125,1.125,0,0,1-1.087-1.087V1.091A1.131,1.131,0,0,1,273.694,0h11.824a1.132,1.132,0,0,1,1.093,1.091V3.616a1.094,1.094,0,0,1-1.093,1.093h-7.692V52.741Z" transform="translate(134.941 0)" fill="#514163"/>
      <path id="Path_45142" data-name="Path 45142" d="M357.883,52.741V4.709h-7.635a1.092,1.092,0,0,1-1.087-1.093V1.091A1.129,1.129,0,0,1,350.248,0h11.824a1.13,1.13,0,0,1,1.091,1.091V56.3a1.125,1.125,0,0,1-1.091,1.087H350.248a1.124,1.124,0,0,1-1.087-1.087v-2.53a1.076,1.076,0,0,1,1.087-1.03Z" transform="translate(172.835 0)" fill="#514163"/>
      <path id="Path_45143" data-name="Path 45143" d="M21.571,50.74A20.742,20.742,0,0,1,36.033,56.3a1.116,1.116,0,0,1,.063,1.674l-2.633,2.685c-.417.541-.954.541-1.495,0a16.2,16.2,0,0,0-10.335-4c-8.547,0-15,7.172-15,15.539A15.242,15.242,0,0,0,21.689,87.67c4.364,0,7.414-1.731,10.278-3.947a1.1,1.1,0,0,1,1.438-.057l2.746,2.689a1.138,1.138,0,0,1-.057,1.613,20.51,20.51,0,0,1-14.524,5.8,21.512,21.512,0,1,1,0-43.025" transform="translate(0 25.116)" fill="#514163"/>
      <path id="Path_45144" data-name="Path 45144" d="M56.036,87.788A15.535,15.535,0,1,0,40.56,72.311,15.53,15.53,0,0,0,56.036,87.788m0-37.048A21.512,21.512,0,1,1,34.583,72.311,21.473,21.473,0,0,1,56.036,50.74" transform="translate(17.119 25.116)" fill="#514163"/>
      <path id="Path_45145" data-name="Path 45145" d="M81.845,51.637a1.206,1.206,0,0,1,1.076-.9h.958a1.217,1.217,0,0,1,1.015.655L97.384,81.936h.236l12.432-30.541a1.138,1.138,0,0,1,1.015-.655h.957a1.2,1.2,0,0,1,1.072.9l7.352,40.16a1.015,1.015,0,0,1-1.076,1.369h-3.886a1.239,1.239,0,0,1-1.133-.834L109.933,65.62h-.179L99,93.11a1.016,1.016,0,0,1-1.015.655H96.9a1.073,1.073,0,0,1-1.015-.655L85.075,65.62h-.242l-4.3,26.713a1.165,1.165,0,0,1-1.076.834H75.57A1.07,1.07,0,0,1,74.436,91.8Z" transform="translate(36.836 25.116)" fill="#514163"/>
      <path id="Path_45146" data-name="Path 45146" d="M124.3,51.637a1.206,1.206,0,0,1,1.076-.9h.954a1.218,1.218,0,0,1,1.02.655l12.489,30.541h.236l12.432-30.541a1.138,1.138,0,0,1,1.015-.655h.957a1.2,1.2,0,0,1,1.072.9L162.9,91.8a1.015,1.015,0,0,1-1.076,1.369H157.94a1.239,1.239,0,0,1-1.133-.834L152.386,65.62h-.179L141.448,93.11a1.016,1.016,0,0,1-1.015.655h-1.076a1.073,1.073,0,0,1-1.015-.655L127.528,65.62h-.242l-4.3,26.713a1.165,1.165,0,0,1-1.076.834h-3.884a1.07,1.07,0,0,1-1.135-1.369Z" transform="translate(57.85 25.116)" fill="#514163"/>
      <path id="Path_45147" data-name="Path 45147" d="M160.366,52.274a1.171,1.171,0,0,1,1.133-1.133h4.008a1.132,1.132,0,0,1,1.133,1.133V76.952c0,5.982,3.823,10.638,9.918,10.638,6.156,0,10.042-4.6,10.042-10.514v-24.8a1.132,1.132,0,0,1,1.133-1.133h4a1.172,1.172,0,0,1,1.138,1.133v25.1a16.255,16.255,0,0,1-32.509,0Z" transform="translate(79.381 25.315)" fill="#514163"/>
      <path id="Path_45148" data-name="Path 45148" d="M197.04,51.813a1.123,1.123,0,0,1,1.139-1.072h1.489l25.934,30h.063V52.472a1.133,1.133,0,0,1,1.138-1.133h3.823a1.172,1.172,0,0,1,1.135,1.133V92.689a1.124,1.124,0,0,1-1.135,1.076H229.07L203.135,62.931h-.057v29.1a1.139,1.139,0,0,1-1.139,1.138h-3.76a1.181,1.181,0,0,1-1.139-1.138Z" transform="translate(97.535 25.117)" fill="#514163"/>
      <rect id="Rectangle_2317" data-name="Rectangle 2317" width="6.213" height="41.829" rx="0.758" transform="translate(352.029 76.455)" fill="#514163"/>
      <path id="Path_45149" data-name="Path 45149" d="M262.244,56.755H252.5a1.133,1.133,0,0,1-1.133-1.133V52.273A1.133,1.133,0,0,1,252.5,51.14h25.7a1.129,1.129,0,0,1,1.133,1.133v3.349a1.129,1.129,0,0,1-1.133,1.133h-9.743v35.08a1.171,1.171,0,0,1-1.133,1.133h-3.947a1.171,1.171,0,0,1-1.133-1.133Z" transform="translate(124.428 25.314)" fill="#514163"/>
      <path id="Path_45150" data-name="Path 45150" d="M294.089,72.83,280.106,52.872a1.1,1.1,0,0,1,.954-1.731h4.425a1.192,1.192,0,0,1,.952.535l10.819,15.24,10.815-15.24a1.291,1.291,0,0,1,.958-.535h4.482a1.1,1.1,0,0,1,.952,1.731L300.3,72.774V91.836a1.171,1.171,0,0,1-1.133,1.133h-3.947a1.132,1.132,0,0,1-1.133-1.133Z" transform="translate(138.56 25.315)" fill="#514163"/>
      <path id="Path_45151" data-name="Path 45151" d="M315.125,51.176a6.008,6.008,0,1,1-6,6.019,6.034,6.034,0,0,1,6-6.019m0,10.863a4.845,4.845,0,1,0-4.844-4.844,4.838,4.838,0,0,0,4.844,4.844m-2.157-7.6a.319.319,0,0,1,.318-.318h2.474a1.961,1.961,0,0,1,2.056,1.97,1.839,1.839,0,0,1-1.269,1.839c.3.619.6,1.254.885,1.855a.308.308,0,0,1-.284.451H316.4a.359.359,0,0,1-.3-.235l-.84-1.97h-1.035v1.887a.316.316,0,0,1-.317.318h-.619a.32.32,0,0,1-.318-.318Zm2.709,2.488a.8.8,0,0,0,.836-.818.785.785,0,0,0-.836-.818h-1.489v1.636Z" transform="translate(153.018 25.332)" fill="#514163"/>
    </g>
  </g>
</svg>
