<svg id="Layer_1" data-name="Layer 1" xmlns="http://www.w3.org/2000/svg" viewBox="0 0 536.02 187.22"><defs><style>.cls-1{fill:none;}.cls-2,.cls-3{fill:#514163;}.cls-3{stroke:#b5e3d8;stroke-linecap:round;stroke-linejoin:round;stroke-width:0.94px;}</style></defs><rect class="cls-1" width="536.02" height="187.22"/><path class="cls-2" d="M65.29,47.06a17.05,17.05,0,0,1,11.89,4.57.91.91,0,0,1,0,1.37l-2.17,2.21c-.34.44-.78.44-1.22,0a13.35,13.35,0,0,0-8.5-3.29,12.76,12.76,0,0,0,0,25.5,13.17,13.17,0,0,0,8.46-3.24A.89.89,0,0,1,75,74.13l2.25,2.21a.94.94,0,0,1,0,1.33,16.9,16.9,0,0,1-11.94,4.77,17.69,17.69,0,1,1,0-35.38"/><path class="cls-2" d="M93,48.48a.93.93,0,0,1,.93-.93h13.37A10.6,10.6,0,0,1,118,58.06c0,4.52-3,8.26-7.28,10l6.74,12.48a.93.93,0,0,1-.84,1.42h-3.83a.91.91,0,0,1-.79-.44l-6.53-13H98V81a1,1,0,0,1-.94.93H93.89A.93.93,0,0,1,93,81Zm13.91,15.78a6.11,6.11,0,0,0,6-6.1,6,6,0,0,0-6-5.85H98.12v12Z"/><path class="cls-2" d="M132.87,48.48a.93.93,0,0,1,.93-.93h19.65a.93.93,0,0,1,.94.93v2.75a.93.93,0,0,1-.94.94H137.93v10h13.12a1,1,0,0,1,.93.94v2.75a.93.93,0,0,1-.93.93H137.93V77.37h15.52a.94.94,0,0,1,.94.94V81a.93.93,0,0,1-.94.93H133.8a.93.93,0,0,1-.93-.93Z"/><path class="cls-2" d="M166.48,80.67,181.57,47.6a1.15,1.15,0,0,1,.83-.55h.49a1.12,1.12,0,0,1,.83.55l15,33.07a.86.86,0,0,1-.83,1.27h-3.1a1.14,1.14,0,0,1-1.13-.73l-3-6.74H174.54c-1,2.26-2,4.47-3,6.74a1.23,1.23,0,0,1-1.13.73h-3.09a.87.87,0,0,1-.84-1.27m22.26-10.42-6-13.46h-.25l-6,13.46Z"/><path class="cls-2" d="M214.39,52.17h-8a.94.94,0,0,1-.93-.94V48.48a.93.93,0,0,1,.93-.93h21.13a.94.94,0,0,1,.94.93v2.75a.94.94,0,0,1-.94.94h-8V81a1,1,0,0,1-.93.93h-3.24a1,1,0,0,1-.94-.93Z"/><rect class="cls-2" x="242.21" y="47.55" width="5.11" height="34.39" rx="0.93"/><path class="cls-2" d="M260.4,48.83a.87.87,0,0,1,.83-1.28h3.49a1,1,0,0,1,.84.54l10.81,24.32h.29l10.81-24.32a.91.91,0,0,1,.83-.54h3.49a.87.87,0,0,1,.84,1.28L277.54,81.89a.92.92,0,0,1-.83.55h-.49a1,1,0,0,1-.84-.55Z"/><path class="cls-2" d="M304.82,48.48a.93.93,0,0,1,.93-.93h19.66a.93.93,0,0,1,.93.93v2.75a.93.93,0,0,1-.93.94H309.88v10H323a1,1,0,0,1,.93.94v2.75a.93.93,0,0,1-.93.93H309.88V77.37h15.53a.94.94,0,0,1,.93.94V81a.93.93,0,0,1-.93.93H305.75a.93.93,0,0,1-.93-.93Z"/><path class="cls-2" d="M340.9,77c.44-.64.84-1.38,1.28-2a1.12,1.12,0,0,1,1.67-.39c.3.25,4.08,3.39,7.86,3.39,3.39,0,5.55-2.06,5.55-4.57,0-3-2.55-4.82-7.41-6.83-5-2.11-9-4.71-9-10.41,0-3.83,3-9.09,10.76-9.09A16.68,16.68,0,0,1,360.75,50a1.17,1.17,0,0,1,.3,1.68l-1.23,1.87a1.17,1.17,0,0,1-1.72.49c-.35-.2-3.78-2.46-6.63-2.46-4.13,0-5.56,2.6-5.56,4.42,0,2.8,2.17,4.52,6.24,6.19,5.71,2.31,10.57,5,10.57,11,0,5.1-4.57,9.29-11,9.29a15.87,15.87,0,0,1-10.56-3.89c-.44-.39-.79-.74-.3-1.57"/><path class="cls-2" d="M401.28,55.78a.63.63,0,0,1,.63-.63h13.37a.63.63,0,0,1,.63.63v1.88a.63.63,0,0,1-.63.63H404.72V66h8.92a.66.66,0,0,1,.64.63v1.84a.65.65,0,0,1-.64.63h-8.92v8.8a.65.65,0,0,1-.63.63h-2.18a.63.63,0,0,1-.63-.63Z"/><path class="cls-2" d="M433.17,54.81a12,12,0,1,1-12,12.07,12,12,0,0,1,12-12.07m0,20.72a8.69,8.69,0,1,0-8.66-8.65,8.69,8.69,0,0,0,8.66,8.65"/><path class="cls-2" d="M453.08,55.78a.64.64,0,0,1,.64-.63h9.09a7.2,7.2,0,0,1,7.28,7.15,7.4,7.4,0,0,1-4.94,6.78l4.57,8.49a.63.63,0,0,1-.57,1h-2.6a.6.6,0,0,1-.53-.3l-4.45-8.86h-5.05V77.9a.66.66,0,0,1-.63.64h-2.17a.64.64,0,0,1-.64-.64Zm9.46,10.73a4.16,4.16,0,0,0,4.08-4.15,4.1,4.1,0,0,0-4.08-4h-6v8.12Z"/><path class="cls-2" d="M393.25,86.61a.89.89,0,0,1,.9.85v2.08a.93.93,0,0,1-.9.89h-9.72a.93.93,0,0,1-.9-.89V44.15a.94.94,0,0,1,.9-.9h9.72a.94.94,0,0,1,.9.9v2.07a.9.9,0,0,1-.9.9h-6.33V86.61Z"/><path class="cls-2" d="M483.9,86.61V47.12h-6.27a.9.9,0,0,1-.9-.9V44.15a.94.94,0,0,1,.9-.9h9.72a.93.93,0,0,1,.89.9V89.54a.92.92,0,0,1-.89.89h-9.72a.93.93,0,0,1-.9-.89V87.46a.89.89,0,0,1,.9-.85Z"/><path class="cls-2" d="M65.29,105.62a17.05,17.05,0,0,1,11.89,4.57.91.91,0,0,1,0,1.37l-2.17,2.21c-.34.45-.78.45-1.22,0a13.35,13.35,0,0,0-8.5-3.29,12.76,12.76,0,0,0,0,25.5,13.17,13.17,0,0,0,8.46-3.24.9.9,0,0,1,1.18-.05l2.25,2.21a.94.94,0,0,1,0,1.33A16.89,16.89,0,0,1,65.29,141a17.69,17.69,0,1,1,0-35.37"/><path class="cls-2" d="M107.7,105.62a17.69,17.69,0,1,1-17.64,17.74,17.66,17.66,0,0,1,17.64-17.74m0,30.46A12.78,12.78,0,1,0,95,123.36a12.77,12.77,0,0,0,12.72,12.72"/><path class="cls-2" d="M145.13,106.36a1,1,0,0,1,.88-.74h.79a1,1,0,0,1,.84.54l10.27,25.11h.19l10.22-25.11a.93.93,0,0,1,.83-.54h.79a1,1,0,0,1,.88.74l6.05,33a.84.84,0,0,1-.89,1.13h-3.19a1,1,0,0,1-.93-.68l-3.63-22h-.15l-8.85,22.61a.83.83,0,0,1-.84.53h-.88a.87.87,0,0,1-.83-.53l-8.89-22.61h-.2l-3.54,22a1,1,0,0,1-.89.68H140a.88.88,0,0,1-.93-1.13Z"/><path class="cls-2" d="M197.31,106.36a1,1,0,0,1,.89-.74H199a1,1,0,0,1,.84.54l10.27,25.11h.19l10.22-25.11a.93.93,0,0,1,.84-.54h.79a1,1,0,0,1,.88.74l6,33a.84.84,0,0,1-.88,1.13H225a1,1,0,0,1-.93-.68l-3.63-22h-.15l-8.85,22.61a.83.83,0,0,1-.83.53h-.89a.88.88,0,0,1-.83-.53L200,117.85h-.2l-3.54,22a1,1,0,0,1-.89.68h-3.19a.88.88,0,0,1-.93-1.13Z"/><path class="cls-2" d="M244.67,107a1,1,0,0,1,.93-.93h3.3a.93.93,0,0,1,.93.93v20.29c0,4.92,3.14,8.75,8.15,8.75s8.26-3.78,8.26-8.65V107a.93.93,0,0,1,.93-.93h3.29a1,1,0,0,1,.94.93v20.64a13.37,13.37,0,0,1-26.73,0Z"/><path class="cls-2" d="M289.75,106.5a.92.92,0,0,1,.93-.88h1.23l21.32,24.66h0V107a.94.94,0,0,1,.94-.93h3.14a1,1,0,0,1,.93.93v33.07a.92.92,0,0,1-.93.88h-1.28l-21.32-25.35h-.05v23.93a.93.93,0,0,1-.93.93h-3.1a1,1,0,0,1-.93-.93Z"/><rect class="cls-2" x="336.99" y="106.11" width="5.11" height="34.39" rx="0.93"/><path class="cls-2" d="M365.47,110.73h-8a.93.93,0,0,1-.93-.94V107a.93.93,0,0,1,.93-.93h21.13a.93.93,0,0,1,.93.93v2.75a.93.93,0,0,1-.93.94h-8v28.84a1,1,0,0,1-.94.93H366.4a1,1,0,0,1-.93-.93Z"/><path class="cls-2" d="M403.27,123.94l-11.5-16.41a.91.91,0,0,1,.79-1.42h3.64a1,1,0,0,1,.78.44l8.9,12.53,8.89-12.53a1.08,1.08,0,0,1,.79-.44h3.68a.9.9,0,0,1,.78,1.42L408.38,123.9v15.67a1,1,0,0,1-.93.93H404.2a.93.93,0,0,1-.93-.93Z"/><path class="cls-2" d="M432.91,110.32a.65.65,0,0,0,.68-.67.65.65,0,0,0-.68-.68h-1.23v1.35Zm-2.23-2a.26.26,0,0,1,.26-.26h2a1.61,1.61,0,0,1,1.69,1.62,1.51,1.51,0,0,1-1.05,1.51c.25.51.5,1,.73,1.53a.25.25,0,0,1-.23.37h-.62a.31.31,0,0,1-.25-.19l-.69-1.62h-.85v1.55a.26.26,0,0,1-.26.26h-.51a.26.26,0,0,1-.26-.26Zm1.77,6.25a4,4,0,1,0-4-4,4,4,0,0,0,4,4m0-8.93a4.94,4.94,0,1,1-4.93,5,5,5,0,0,1,4.93-5"/><path class="cls-3" d="M46.68,46.77h0m442.88,0h0m0,93.84h0m-442.88,0h0"/></svg>