<svg width="192" height="192" viewBox="0 0 192 192" fill="none" xmlns="http://www.w3.org/2000/svg">
<defs>
<clipPath id="clip0_417_2593">
<rect width="191.87" height="191.89" fill="white"/>
</clipPath>
<clipPath id="clip1_417_2593">
<rect width="75" height="109" fill="white" transform="translate(43.2749 128.89) rotate(-90)"/>
</clipPath>
</defs>
<g class="cta-text" clip-path="url(#clip0_417_2593)">
<path d="M30.2999 141.12L33.7099 145.72L22.8999 158.28L20.6699 155.27L29.1099 145.94L30.6099 144.74L30.3299 144.37L28.7499 145.45L17.3699 150.81L15.1399 147.8L30.2999 141.1V141.12Z" fill="#EAFF00"/>
<path d="M21.7399 125.32L26.4199 135.17L23.5399 136.54L21.9499 133.2L13.1099 137.41L14.6999 140.75L11.8199 142.12L7.13989 132.27L10.0199 130.9L11.6099 134.24L20.4499 130.03L18.8599 126.69L21.7399 125.32Z" fill="#EAFF00"/>
<path d="M17.5599 110.68L20.0599 120.51L4.38989 124.5L1.88989 114.67L5.04989 113.87L6.68989 120.29L9.84989 119.49L8.26989 113.29L11.3099 112.51L12.8899 118.71L16.0499 117.91L14.4099 111.49L17.5699 110.68H17.5599Z" fill="#EAFF00"/>
<path d="M16.59 101.81L16.84 106.12L0.76001 108.08L0.58001 104.95L11.5 103.7L14.15 103.55L14.12 103.09L11.47 103.22L5.53001 102.56L5.38001 99.8799L11.21 98.6699L13.86 98.4999L13.84 98.0599L11.19 98.2099L0.19001 98.0999L0.0100098 94.9399L16.22 95.1699L16.47 99.4799L11.05 100.67L9.41001 100.79L9.44001 101.25L11.08 101.18L16.6 101.81H16.59Z" fill="#EAFF00"/>
<path d="M17.4899 74.13C15.7999 74.66 13.6399 74.48 10.9799 73.57C8.32988 72.67 6.49988 71.49 5.47988 70.04C4.46988 68.59 4.29988 66.89 4.95988 64.93C5.61988 62.97 6.79988 61.73 8.48988 61.2C10.1799 60.67 12.3499 60.85 14.9999 61.76C17.6499 62.66 19.4899 63.84 20.4999 65.29C21.5099 66.74 21.6799 68.44 21.0199 70.39C20.3599 72.35 19.1799 73.59 17.4899 74.12V74.13ZM17.3799 67.1C16.7199 66.45 15.5399 65.83 13.8199 65.24C12.0999 64.65 10.7799 64.42 9.85988 64.54C8.93988 64.66 8.33988 65.14 8.04988 65.99C7.75988 66.84 7.94988 67.59 8.59988 68.24C9.25988 68.89 10.4399 69.51 12.1599 70.1C13.8799 70.69 15.1999 70.92 16.1199 70.8C17.0399 70.68 17.6399 70.2 17.9299 69.35C18.2199 68.51 18.0299 67.76 17.3799 67.1Z" fill="#EAFF00"/>
<path d="M23.9399 59.29C22.5499 59.67 21.1099 59.43 19.6099 58.57L10.1499 53.12L11.9099 50.06L21.3799 55.51C22.0199 55.88 22.6199 56 23.1799 55.88C23.7399 55.76 24.1799 55.41 24.5099 54.84C24.8499 54.25 24.9299 53.69 24.7599 53.16C24.5899 52.63 24.1799 52.17 23.5199 51.79L14.0499 46.34L15.8099 43.28L25.2699 48.73C26.2599 49.3 27.0099 50 27.5199 50.82C28.0299 51.64 28.2699 52.55 28.2299 53.52C28.1899 54.49 27.8899 55.47 27.3199 56.46C26.4499 57.97 25.3199 58.91 23.9299 59.29H23.9399Z" fill="#EAFF00"/>
<path d="M37.37 42.08L30.43 40.27L29.91 40.86L34.75 45.08L32.43 47.75L20.23 37.13L24.28 32.48C25.35 31.25 26.5 30.54 27.73 30.37C28.96 30.19 30.13 30.59 31.26 31.57C32.15 32.35 32.64 33.25 32.72 34.28C32.8 35.31 32.51 36.38 31.83 37.49L32.09 37.72L32.89 37.25L40 39.03L37.35 42.08H37.37ZM24.94 36.52L27.76 38.98L29.17 37.36C29.61 36.85 29.84 36.34 29.83 35.84C29.83 35.34 29.59 34.88 29.13 34.48C28.69 34.1 28.22 33.95 27.73 34.03C27.24 34.11 26.78 34.41 26.34 34.9L24.93 36.52H24.94Z" fill="#EAFF00"/>
<path d="M51.0401 20.41C49.7601 17.88 49.2701 15.75 49.5701 14.02C49.8701 12.29 50.9601 10.94 52.8501 9.99001C53.8901 9.46001 54.9301 9.22001 55.9601 9.28001C56.9901 9.34001 57.9301 9.68001 58.7901 10.31C59.6401 10.94 60.3501 11.81 60.9201 12.92L57.6701 14.57C57.2301 13.7 56.7201 13.13 56.1501 12.84C55.5701 12.55 54.9701 12.57 54.3401 12.89C53.5001 13.31 53.0901 13.98 53.0901 14.9C53.0901 15.81 53.5201 17.09 54.3501 18.74C55.1901 20.39 55.9601 21.49 56.6701 22.04C57.3801 22.59 58.1301 22.67 58.9101 22.27C59.5101 21.97 59.8601 21.49 59.9501 20.85C60.0401 20.21 59.8701 19.47 59.4501 18.63L62.7301 16.97C63.3001 18.09 63.5901 19.19 63.6001 20.24C63.6001 21.3 63.3401 22.25 62.7901 23.1C62.2401 23.95 61.4401 24.64 60.4001 25.17C56.7301 27.03 53.6201 25.44 51.0701 20.4L51.0401 20.41Z" fill="#EAFF00"/>
<path d="M80.82 17.49L77.2 18.52L74.89 14.16L71.13 15.22L71.47 20.14L67.85 21.17L67.25 4.54002L72.63 3.02002L80.83 17.5L80.82 17.49ZM70.6 7.32002L70.93 12.12L73.46 11.4L71.2 7.14002L70.61 5.29002L70.17 5.41002L70.61 7.30002L70.6 7.32002Z" fill="#EAFF00"/>
<path d="M93.79 -1.95317e-05L95.13 16.11L92.07 16.36L91.01 3.60998L90.59 3.64998L90.78 6.73998L90.26 11.88L87.91 12.07L86.57 7.07998L86.24 3.99998L85.8 4.03998L86.86 16.79L83.8 17.04L82.46 0.92998L86.99 0.54998L88.49 7.67998L88.59 8.89998L89.05 8.85998L88.97 7.63998L89.25 0.35998L93.78 -0.0200195L93.79 -1.95317e-05Z" fill="#EAFF00"/>
<path d="M107.52 0.820034C108.59 0.940034 109.52 1.25003 110.3 1.75003C111.08 2.25003 111.66 2.91003 112.03 3.73003C112.41 4.55003 112.54 5.46003 112.43 6.47003C112.32 7.50003 111.99 8.37003 111.45 9.08003C110.91 9.80003 110.2 10.32 109.34 10.64C108.48 10.96 107.5 11.07 106.41 10.95L103.91 10.67L103.26 16.62L99.75 16.24L101.5 0.160034L107.52 0.820034ZM106.45 7.79003C107.12 7.86003 107.67 7.74003 108.09 7.42003C108.51 7.10003 108.75 6.65003 108.82 6.07003C108.89 5.47003 108.74 4.98003 108.4 4.59003C108.06 4.21003 107.55 3.97003 106.87 3.90003L104.67 3.66003L104.25 7.54003L106.45 7.78003V7.79003Z" fill="#EAFF00"/>
<path d="M126.33 21.93L122.74 20.81L123.18 15.89L119.45 14.73L117.04 19.04L113.45 17.92L122.03 3.66003L127.37 5.32003L126.33 21.93ZM123.32 7.83003L120.97 12.03L123.48 12.81L123.91 8.01003L124.42 6.14003L123.98 6.00003L123.32 7.82003V7.83003Z" fill="#EAFF00"/>
<path d="M138.82 28.49L129.23 23.3L130.75 20.5L134 22.26L138.66 13.65L135.41 11.89L136.93 9.08997L146.52 14.28L145 17.08L141.75 15.32L137.09 23.93L140.34 25.69L138.82 28.49Z" fill="#EAFF00"/>
<path d="M144.21 30.03C144.42 28.31 145.4 26.4 147.13 24.3C150.73 19.94 154.23 19.17 157.64 21.99C158.53 22.73 159.15 23.57 159.49 24.52C159.83 25.47 159.89 26.45 159.68 27.46C159.46 28.47 158.98 29.43 158.22 30.35L155.39 28.01C155.96 27.32 156.25 26.66 156.26 26.03C156.27 25.4 156.01 24.86 155.47 24.42C154.7 23.78 153.88 23.64 153.02 23.98C152.15 24.32 151.14 25.21 149.96 26.63C148.74 28.1 148.02 29.3 147.79 30.23C147.56 31.16 147.79 31.91 148.5 32.49C149.02 32.92 149.61 33.06 150.26 32.9C150.91 32.74 151.61 32.3 152.35 31.57L150.19 29.79L152.06 27.53L156.74 31.4L151.18 38.13L148.85 36.2L151.67 33.98L151.33 33.7C150.21 34.53 149.21 34.99 148.34 35.08C147.47 35.17 146.64 34.89 145.83 34.22C144.52 33.14 143.98 31.74 144.19 30.02L144.21 30.03Z" fill="#EAFF00"/>
<path d="M161.61 45.27L171.68 36.97L173.74 39.47L161.27 49.76L158.1 45.91L164.2 37.59L166.36 35.6L166.08 35.26L156.1 43.49L154.04 41L166.51 30.71L169.68 34.56L163.51 42.94L161.33 44.94L161.61 45.28V45.27Z" fill="#EAFF00"/>
<path d="M165.03 53.64C165.39 52.27 166.39 51.15 168.01 50.27L169.69 53.38C168.92 53.8 168.44 54.29 168.25 54.87C168.06 55.44 168.18 56.12 168.59 56.89C168.93 57.53 169.36 57.95 169.86 58.16C170.36 58.37 170.87 58.34 171.38 58.06C171.81 57.83 172.08 57.49 172.18 57.05C172.28 56.61 172.22 56.01 171.99 55.26L171.38 53.31C170.96 51.98 170.92 50.81 171.27 49.81C171.62 48.81 172.34 48.01 173.44 47.41C174.36 46.91 175.28 46.7 176.19 46.76C177.1 46.83 177.96 47.16 178.75 47.76C179.55 48.36 180.24 49.2 180.81 50.27C181.74 51.99 182.03 53.53 181.68 54.89C181.33 56.25 180.34 57.37 178.72 58.25L177.04 55.14C177.81 54.72 178.29 54.23 178.48 53.67C178.66 53.11 178.55 52.44 178.13 51.67C177.76 50.99 177.33 50.55 176.82 50.34C176.31 50.13 175.81 50.16 175.31 50.44C174.88 50.67 174.61 51.01 174.51 51.45C174.41 51.89 174.47 52.49 174.71 53.26L175.3 55.17C175.72 56.5 175.76 57.67 175.4 58.68C175.04 59.69 174.3 60.49 173.18 61.1C171.8 61.85 170.45 61.97 169.15 61.46C167.84 60.95 166.75 59.88 165.87 58.26C164.95 56.55 164.67 55.02 165.03 53.65V53.64Z" fill="#EAFF00"/>
<path d="M191.31 84.71L178.48 86.11L179.23 93.04L175.99 93.39L174.85 82.97L190.92 81.22L191.3 84.71H191.31Z" fill="#EAFF00"/>
<path d="M174.96 109.43L175.27 105.68L180.17 105.05L180.5 101.16L175.77 99.75L176.08 96L191.86 101.28L191.4 106.85L174.96 109.44V109.43ZM188.07 103.43L183.46 102.05L183.24 104.67L188.02 104.05L189.96 104.14L190 103.68L188.08 103.43H188.07Z" fill="#EAFF00"/>
<path d="M175.11 121.02L187.67 124.58L186.79 127.69L171.23 123.28L172.59 118.48L182.9 118.76L185.77 119.4L185.89 118.98L173.45 115.45L174.33 112.34L189.88 116.75L188.52 121.55L178.12 121.24L175.23 120.59L175.11 121.01V121.02Z" fill="#EAFF00"/>
<path d="M169.57 127.42L183.98 134.75L181.77 139.09C181.16 140.29 180.35 141.18 179.32 141.77C178.29 142.36 177.12 142.62 175.79 142.54C174.47 142.46 173.06 142.05 171.58 141.29C170.1 140.54 168.94 139.65 168.09 138.62C167.25 137.6 166.76 136.5 166.63 135.33C166.5 134.16 166.74 132.97 167.36 131.76L169.57 127.42ZM170.21 133.34C169.83 134.1 169.91 134.89 170.46 135.73C171.01 136.57 171.94 137.33 173.26 138C174.58 138.67 175.74 138.98 176.74 138.93C177.74 138.88 178.43 138.47 178.82 137.72L179.51 136.36L170.9 131.98L170.21 133.34Z" fill="#EAFF00"/>
<path d="M155.55 149.39L162.27 140.81L164.78 142.77L162.5 145.68L170.21 151.72L172.49 148.81L175 150.78L168.28 159.36L165.77 157.4L168.05 154.49L160.34 148.45L158.06 151.36L155.55 149.4V149.39Z" fill="#EAFF00"/>
<path d="M148.51 160.2L157.07 170.05L154.63 172.17L144.03 159.97L147.8 156.7L156.28 162.58L158.33 164.69L158.66 164.4L150.18 154.64L152.62 152.52L163.22 164.73L159.46 168L150.92 162.05L148.86 159.92L148.53 160.21L148.51 160.2Z" fill="#EAFF00"/>
<path d="M140.89 164.3C142.43 165.1 143.87 166.69 145.23 169.05C148.05 173.95 147.54 177.5 143.71 179.7C142.71 180.28 141.7 180.56 140.69 180.54C139.68 180.52 138.74 180.24 137.87 179.69C137 179.13 136.27 178.34 135.68 177.31L138.86 175.48C139.31 176.26 139.82 176.76 140.41 176.99C140.99 177.22 141.59 177.16 142.19 176.82C143.06 176.32 143.48 175.61 143.46 174.68C143.44 173.75 142.97 172.48 142.05 170.88C141.1 169.23 140.23 168.13 139.44 167.59C138.65 167.05 137.86 167.01 137.07 167.46C136.48 167.8 136.15 168.3 136.07 168.97C135.99 169.64 136.16 170.44 136.59 171.39L139.01 170L140.47 172.54L135.21 175.57L130.86 168L133.48 166.49L134.57 169.91L134.95 169.69C134.57 168.35 134.49 167.25 134.7 166.41C134.92 165.57 135.48 164.88 136.39 164.36C137.86 163.52 139.36 163.5 140.9 164.3H140.89Z" fill="#EAFF00"/>
<path d="M108.08 191.15C107.01 191.3 106.04 191.22 105.16 190.92C104.28 190.62 103.56 190.12 103 189.42C102.44 188.72 102.09 187.86 101.95 186.86C101.81 185.84 101.92 184.91 102.28 184.09C102.64 183.26 103.19 182.59 103.95 182.07C104.71 181.55 105.63 181.21 106.71 181.07L109.21 180.73L108.41 174.8L111.91 174.33L114.07 190.35L108.07 191.16L108.08 191.15ZM107.43 184.13C106.76 184.22 106.26 184.47 105.92 184.88C105.59 185.29 105.46 185.79 105.54 186.37C105.62 186.96 105.87 187.41 106.3 187.7C106.73 187.99 107.28 188.09 107.95 188L110.15 187.7L109.63 183.83L107.43 184.13Z" fill="#EAFF00"/>
<path d="M84.73 175.2L88.49 175.42L89.25 180.3L93.15 180.52L94.44 175.76L98.2 175.98L93.32 191.89L87.74 191.57L84.73 175.2ZM91.06 188.15L92.32 183.5L89.69 183.35L90.43 188.11L90.39 190.05L90.85 190.08L91.05 188.15H91.06Z" fill="#EAFF00"/>
<path d="M80.51 176.18C81.05 177.83 80.9799 179.97 80.3099 182.61C78.91 188.08 76.07 190.28 71.79 189.18C70.67 188.89 69.75 188.39 69.04 187.68C68.32 186.97 67.85 186.1 67.61 185.1C67.37 184.1 67.3999 183.02 67.6999 181.87L71.26 182.78C71.04 183.65 71.06 184.36 71.32 184.94C71.58 185.51 72.04 185.89 72.71 186.06C73.68 186.31 74.48 186.09 75.12 185.41C75.76 184.73 76.3 183.49 76.76 181.7C77.23 179.85 77.38 178.46 77.19 177.52C77 176.58 76.4699 176 75.5899 175.77C74.9299 175.6 74.34 175.73 73.82 176.15C73.3 176.57 72.86 177.27 72.5 178.24L75.21 178.93L74.48 181.77L68.5899 180.27L70.75 171.81L73.68 172.56L72.07 175.77L72.5 175.88C73.16 174.65 73.87 173.81 74.61 173.36C75.35 172.91 76.23 172.81 77.25 173.07C78.89 173.49 79.9799 174.52 80.5199 176.17L80.51 176.18Z" fill="#EAFF00"/>
<path d="M57.0601 165.74L66.2101 170.1L59.2601 184.7L50.1001 180.34L51.5001 177.4L57.4801 180.25L58.8801 177.31L53.1001 174.56L54.4501 171.72L60.2301 174.47L61.6301 171.53L55.6401 168.68L57.0401 165.74H57.0601Z" fill="#EAFF00"/>
<path d="M44.1301 163.25L46.9501 165.34L40.4401 174.11L37.6201 172.02L44.1301 163.25ZM47.0501 158.89L50.2801 161.29L48.0501 164.29L44.8201 161.9L47.0501 158.89Z" fill="#EAFF00"/>
</g>
<g class="cta-arrow" clip-path="url(#clip1_417_2593)">
<path d="M152.275 98.0535C143.643 98.0535 136.542 100.299 130.973 104.791C125.404 109.282 122.616 115.268 122.616 122.756L122.616 128.89L109.968 128.89L109.968 122.749C109.968 116.461 111.45 111.296 114.408 107.254C117.372 103.212 121.812 100.594 127.733 99.3939L127.733 97.1482L43.2749 97.1482L43.2749 85.6248L127.733 85.6248L127.733 83.3791C121.812 82.2843 117.372 79.6877 114.408 75.5963C111.45 71.5049 109.968 66.3187 109.968 60.0307L109.968 53.89L122.616 53.89L122.616 60.0307C122.616 67.5187 125.404 73.505 130.973 77.9964C136.542 82.4878 143.643 84.7336 152.275 84.7336L152.275 98.0535Z" fill="#EAFF00"/>
</g>

</svg>
