<svg width="390" height="636" viewBox="0 0 390 636" fill="none" xmlns="http://www.w3.org/2000/svg">
<rect width="390" height="636" fill="black"/>
<g clip-path="url(#clip0_401_1669)">
<path d="M265.981 -4.00061C282.147 17.792 299.494 46.9307 290.475 62.4437C280.423 79.7351 248.678 71.28 241.206 87.7823C232.447 107.125 271.914 127.89 266.544 161.828C263.611 180.372 247.937 198.758 233.885 198.71C226.918 198.687 221.547 193.562 220.934 188.012C220.32 182.453 223.844 176.938 231.07 175.342C245.978 172.051 287.455 193.599 289.724 226.301C292.949 272.756 256.06 275.482 252.561 312.829C248.244 358.908 288.499 369.402 284.469 408.929C280.06 452.179 231.826 463.143 241.299 490.013C247.401 507.321 270.25 510.668 269.829 527.177C269.512 539.573 256.486 543.333 255.939 554.956C255.537 563.515 261.934 575.671 291.977 591.369" stroke="url(#paint0_linear_401_1669)" stroke-width="8" stroke-miterlimit="10"/>
</g>
<g class="timeline-entry" opacity="0.4" clip-path="url(#clip1_401_1669)">
<path d="M265.981 -4.38593C282.147 17.4067 299.494 46.5454 290.475 62.0584C280.423 79.3497 248.678 70.8947 241.206 87.397C232.447 106.74 271.914 127.505 266.544 161.443C263.611 179.987 247.937 198.372 233.885 198.325C226.918 198.301 221.547 193.176 220.934 187.626C220.32 182.068 223.844 176.552 231.07 174.957C245.978 171.665 287.455 193.213 289.724 225.916C292.949 272.37 256.06 275.097 252.561 312.444C248.244 358.523 288.499 369.017 284.469 408.543C280.06 451.794 231.826 462.758 241.299 489.628C247.401 506.935 270.25 510.282 269.829 526.792C269.512 539.188 256.486 542.948 255.939 554.571C255.537 563.129 261.934 575.286 291.977 590.983" stroke="#755A94" stroke-width="8" stroke-miterlimit="10"/>
</g>
<g class="timeline-entry" opacity="0.3" clip-path="url(#clip2_401_1669)">
<path d="M265.498 -3.86401C281.664 17.9286 299.011 47.0673 289.992 62.5803C279.94 79.8716 248.195 71.4166 240.723 87.9189C231.964 107.262 271.431 128.027 266.061 161.965C263.127 180.509 247.453 198.894 233.402 198.847C226.435 198.823 221.064 193.698 220.451 188.148C219.837 182.59 223.36 177.074 230.587 175.479C245.495 172.187 286.972 193.735 289.241 226.438C292.466 272.892 255.577 275.618 252.078 312.965C247.761 359.045 288.016 369.539 283.986 409.065C279.577 452.316 231.343 463.28 240.816 490.15C246.917 507.457 269.767 510.804 269.346 527.314C269.029 539.71 256.003 543.47 255.456 555.093C255.054 563.651 261.451 575.808 291.494 591.505" stroke="#00B2A9" stroke-width="8" stroke-miterlimit="10"/>
</g>
<g class="timeline-entry" opacity="0.3" clip-path="url(#clip3_401_1669)">
<path d="M265.498 -3.93439C281.664 17.8582 299.011 46.9969 289.992 62.51C279.94 79.8013 248.195 71.3463 240.723 87.8485C231.964 107.191 271.431 127.957 266.061 161.894C263.127 180.438 247.453 198.824 233.402 198.776C226.435 198.753 221.064 193.628 220.451 188.078C219.837 182.52 223.36 177.004 230.587 175.409C245.495 172.117 286.972 193.665 289.241 226.368C292.466 272.822 255.577 275.548 252.078 312.895C247.761 358.975 288.016 369.468 283.986 408.995C279.577 452.246 231.343 463.21 240.816 490.08C246.917 507.387 269.767 510.734 269.346 527.243C269.029 539.639 256.003 543.399 255.456 555.022C255.054 563.581 261.451 575.738 291.494 591.435" stroke="#6F7BD4" stroke-width="8" stroke-miterlimit="10"/>
</g>
<g class="timeline-entry" opacity="0.3" clip-path="url(#clip4_401_1669)">
<path d="M265.498 -3.93463C281.664 17.858 299.011 46.9967 289.992 62.5097C279.94 79.801 248.195 71.346 240.723 87.8483C231.964 107.191 271.431 127.956 266.061 161.894C263.127 180.438 247.453 198.824 233.402 198.776C226.435 198.753 221.064 193.628 220.451 188.078C219.837 182.519 223.36 177.004 230.587 175.408C245.495 172.117 286.972 193.665 289.241 226.367C292.466 272.822 255.577 275.548 252.078 312.895C247.761 358.974 288.016 369.468 283.986 408.995C279.576 452.245 231.343 463.209 240.816 490.079C246.917 507.387 269.767 510.733 269.346 527.243C269.029 539.639 256.003 543.399 255.456 555.022C255.054 563.581 261.451 575.737 291.494 591.435" stroke="#EF95CF" stroke-width="8" stroke-miterlimit="10"/>
</g>
<g class="timeline-entry" opacity="0.3">
<circle opacity="0.25" cx="264" cy="572" r="20" transform="rotate(90 264 572)" fill="white"/>
<circle cx="264" cy="572" r="12.147" transform="rotate(90 264 572)" fill="#EF95CF"/>
<path d="M145.735 577.106C143.383 577.106 141.897 575.816 141.897 573.647V573.374H143.839V573.54C143.839 574.785 144.552 575.437 145.781 575.437C146.615 575.437 147.192 575.149 147.465 574.663C147.586 574.451 147.647 574.208 147.647 573.935C147.647 573.707 147.616 573.51 147.51 573.328C147.283 572.934 146.812 572.645 145.993 572.494L144.764 572.266C143.626 572.054 142.792 571.553 142.367 570.794C142.124 570.37 142.003 569.869 142.003 569.292C142.003 568.685 142.155 568.139 142.412 567.669C143.019 566.622 144.248 566 145.856 566C148.208 566 149.695 567.274 149.695 569.429V569.702H147.753V569.52C147.753 568.306 147.04 567.669 145.811 567.669C144.976 567.669 144.4 567.957 144.127 568.443C144.006 568.655 143.945 568.898 143.945 569.171C143.945 569.399 143.975 569.581 144.081 569.778C144.309 570.157 144.779 570.43 145.599 570.582L146.812 570.825C147.965 571.052 148.8 571.568 149.225 572.327C149.467 572.751 149.589 573.237 149.589 573.814C149.589 574.436 149.452 574.997 149.179 575.452C148.587 576.499 147.343 577.106 145.735 577.106Z" fill="white"/>
<path d="M130.041 566.243H138.415V568.003H135.169V576.863H133.287V568.003H130.041V566.243Z" fill="white"/>
<path d="M128.092 576.863H121.72V566.243H123.602V575.103H128.092V576.863Z" fill="white"/>
<path d="M112.402 577.106C109.822 577.106 108.199 575.543 108.199 572.994V566.243H110.141V572.934C110.141 574.405 110.991 575.315 112.402 575.315C113.813 575.315 114.662 574.405 114.662 572.934V566.243H116.604V572.994C116.604 575.543 114.966 577.106 112.402 577.106Z" fill="white"/>
<path d="M99.608 577.106C97.2564 577.106 95.7695 575.816 95.7695 573.647V573.374H97.7115V573.54C97.7115 574.785 98.4246 575.437 99.6535 575.437C100.488 575.437 101.065 575.149 101.338 574.663C101.459 574.451 101.52 574.208 101.52 573.935C101.52 573.707 101.489 573.51 101.383 573.328C101.156 572.934 100.685 572.645 99.8659 572.494L98.637 572.266C97.4991 572.054 96.6647 571.553 96.2399 570.794C95.9971 570.37 95.8757 569.869 95.8757 569.292C95.8757 568.685 96.0275 568.139 96.2854 567.669C96.8923 566.622 98.1212 566 99.7294 566C102.081 566 103.568 567.274 103.568 569.429V569.702H101.626V569.52C101.626 568.306 100.913 567.669 99.6839 567.669C98.8494 567.669 98.2729 567.957 97.9998 568.443C97.8784 568.655 97.8177 568.898 97.8177 569.171C97.8177 569.399 97.8481 569.581 97.9543 569.778C98.1819 570.157 98.6522 570.43 99.4715 570.582L100.685 570.825C101.838 571.052 102.673 571.568 103.098 572.327C103.34 572.751 103.462 573.237 103.462 573.814C103.462 574.436 103.325 574.997 103.052 575.452C102.46 576.499 101.216 577.106 99.608 577.106Z" fill="white"/>
<path d="M91.4524 576.863H85.0802V566.243H91.4524V568.003H86.9615V570.673H91.3007V572.402H86.9615V575.103H91.4524V576.863Z" fill="white"/>
<path d="M80.4797 576.863H78.1888L75.4882 572.357H74.8813V576.863H73V566.243H76.9447C78.4315 566.243 79.5239 566.713 80.0701 567.654C80.3128 568.079 80.4494 568.61 80.4494 569.262C80.4494 569.854 80.328 570.309 80.0853 570.718C79.5998 571.553 78.5833 571.978 77.324 572.054V572.281L77.8095 572.494L80.4797 576.863ZM76.9447 567.957H74.8813V570.764H76.9447C77.5971 570.764 78.0978 570.552 78.3557 570.112C78.477 569.914 78.5377 569.656 78.5377 569.353C78.5377 569.065 78.477 568.822 78.3708 568.625C78.1129 568.17 77.6123 567.957 76.9447 567.957Z" fill="white"/>
</g>
<g class="timeline-entry" opacity="0.3">
<circle opacity="0.25" cx="255.198" cy="457.342" r="20" transform="rotate(90 255.198 457.342)" fill="white"/>
<circle cx="255.199" cy="457.342" r="12.147" transform="rotate(90 255.199 457.342)" fill="#6F7BD4"/>
<path d="M171.075 462.863H169.285V452.243H172.137L175.399 459.389L175.748 461.634H176.006V452.243H177.796V462.863H174.944L171.667 455.717L171.333 453.472H171.075V462.863Z" fill="white"/>
<path d="M159.243 463.106C156.8 463.106 154.904 461.847 154.145 459.738C153.903 459.085 153.781 458.342 153.781 457.553C153.781 456.764 153.903 456.021 154.145 455.368C154.904 453.305 156.755 452 159.228 452C161.701 452 163.552 453.305 164.311 455.368C164.553 456.021 164.675 456.764 164.675 457.553C164.675 458.342 164.553 459.085 164.311 459.738C163.567 461.786 161.731 463.106 159.243 463.106ZM159.228 461.346C160.775 461.346 161.929 460.511 162.444 459.1C162.611 458.63 162.702 458.114 162.702 457.553C162.702 456.992 162.611 456.476 162.444 456.005C161.944 454.625 160.806 453.76 159.228 453.76C157.65 453.76 156.512 454.625 156.012 456.005C155.845 456.476 155.754 456.992 155.754 457.553C155.754 458.114 155.845 458.63 156.012 459.1C156.512 460.481 157.65 461.346 159.228 461.346Z" fill="white"/>
<path d="M149.169 462.863H147.288V452.243H149.169V462.863Z" fill="white"/>
<path d="M134.737 452.243H143.112V454.003H139.866V462.863H137.984V454.003H134.737V452.243Z" fill="white"/>
<path d="M126.526 463.106C123.947 463.106 122.324 461.543 122.324 458.994V452.243H124.266V458.934C124.266 460.405 125.115 461.316 126.526 461.316C127.937 461.316 128.787 460.405 128.787 458.934V452.243H130.729V458.994C130.729 461.543 129.091 463.106 126.526 463.106Z" fill="white"/>
<path d="M112.859 463.106C110.583 463.106 108.732 461.801 107.974 459.738C107.731 459.085 107.61 458.342 107.61 457.553C107.61 456.764 107.731 456.021 107.974 455.368C108.732 453.305 110.583 452 112.965 452C115.696 452 117.684 453.593 117.835 456.066H115.893C115.727 454.685 114.574 453.76 112.98 453.76C111.478 453.76 110.341 454.625 109.84 456.005C109.673 456.476 109.582 456.992 109.582 457.553C109.582 458.114 109.673 458.63 109.84 459.1C110.341 460.481 111.478 461.346 112.935 461.346C114.498 461.346 115.56 460.436 115.742 459.04H117.669C117.487 461.437 115.681 463.106 112.859 463.106Z" fill="white"/>
<path d="M103.414 462.863H97.0416V452.243H103.414V454.003H98.9229V456.673H103.262V458.403H98.9229V461.103H103.414V462.863Z" fill="white"/>
<path d="M85.4798 462.863H83.1737L86.7088 457.507L83.1737 452.243H85.4495L87.786 455.808L87.8618 456.567H88.1197L88.1956 455.808L90.5321 452.243H92.823L89.2728 457.507L92.823 462.863H90.5169L88.2259 459.237L88.1197 458.478H87.877L87.786 459.237L85.4798 462.863Z" fill="white"/>
<path d="M79.3722 462.863H73V452.243H79.3722V454.003H74.8813V456.673H79.2205V458.403H74.8813V461.103H79.3722V462.863Z" fill="white"/>
</g>
<g class="timeline-entry" opacity="0.3">
<circle opacity="0.25" cx="256.8" cy="339.82" r="20" transform="rotate(90 256.8 339.82)" fill="white"/>
<circle cx="256.799" cy="339.82" r="12.147" transform="rotate(90 256.799 339.82)" fill="#00B2A9"/>
<path d="M152.728 344.863H150.937V334.243H153.79L157.052 341.389L157.401 343.634H157.659V334.243H159.449V344.863H156.596L153.319 337.717L152.986 335.472H152.728V344.863Z" fill="white"/>
<path d="M140.896 345.106C138.453 345.106 136.557 343.847 135.798 341.738C135.555 341.085 135.434 340.342 135.434 339.553C135.434 338.764 135.555 338.021 135.798 337.368C136.557 335.305 138.408 334 140.881 334C143.354 334 145.205 335.305 145.963 337.368C146.206 338.021 146.327 338.764 146.327 339.553C146.327 340.342 146.206 341.085 145.963 341.738C145.22 343.786 143.384 345.106 140.896 345.106ZM140.881 343.346C142.428 343.346 143.581 342.511 144.097 341.1C144.264 340.63 144.355 340.114 144.355 339.553C144.355 338.992 144.264 338.476 144.097 338.005C143.596 336.625 142.459 335.76 140.881 335.76C139.303 335.76 138.165 336.625 137.664 338.005C137.497 338.476 137.406 338.992 137.406 339.553C137.406 340.114 137.497 340.63 137.664 341.1C138.165 342.481 139.303 343.346 140.881 343.346Z" fill="white"/>
<path d="M130.822 344.863H128.941V334.243H130.822V344.863Z" fill="white"/>
<path d="M116.39 334.243H124.765V336.003H121.518V344.863H119.637V336.003H116.39V334.243Z" fill="white"/>
<path d="M114.269 344.863H112.266L111.144 341.419H107.275L106.152 344.863H104.149L107.76 334.243H110.658L114.269 344.863ZM108.974 336.245L107.851 339.674H110.567L109.444 336.245L109.338 335.32H109.08L108.974 336.245Z" fill="white"/>
<path d="M100.288 344.863H93.9154V334.243H100.288V336.003H95.7967V338.673H100.136V340.402H95.7967V343.103H100.288V344.863Z" fill="white"/>
<path d="M84.0756 344.863H80.1613V334.243H84.0756C86.4728 334.243 88.263 335.411 88.9761 337.414C89.1885 338.051 89.3099 338.764 89.3099 339.553C89.3099 340.357 89.1885 341.07 88.9609 341.707C88.2479 343.71 86.4879 344.863 84.0756 344.863ZM82.0426 336.003V343.103H84.197C85.6231 343.103 86.6396 342.299 87.0796 341.07C87.2465 340.615 87.3376 340.114 87.3376 339.553C87.3376 338.991 87.2465 338.476 87.0796 338.005C86.6245 336.792 85.608 336.003 84.197 336.003H82.0426Z" fill="white"/>
<path d="M74.8813 344.863H73V334.243H74.8813V344.863Z" fill="white"/>
</g>
<g class="timeline-entry" opacity="0.3">
<circle opacity="0.4" cx="288.088" cy="232.643" r="12.147" transform="rotate(90 288.088 232.643)" fill="#755A94"/>
<circle opacity="0.25" cx="288.088" cy="232.643" r="20" transform="rotate(90 288.088 232.643)" fill="white"/>
<path d="M163.849 227.243H166.018L162.271 233.964V237.863H160.39V233.964L156.657 227.243H158.812L161.148 231.658L161.209 232.356H161.467L161.527 231.658L163.849 227.243Z" fill="white"/>
<path d="M148.154 238.106C146.151 238.106 144.406 236.907 143.708 234.935C143.45 234.207 143.329 233.387 143.329 232.614C143.329 231.794 143.45 231.036 143.693 230.368C144.467 228.305 146.303 227 148.73 227C151.461 227 153.388 228.639 153.555 230.99H151.613C151.416 229.61 150.263 228.76 148.73 228.76C147.198 228.76 146.06 229.625 145.559 230.99C145.392 231.476 145.301 232.007 145.301 232.598C145.301 233.16 145.362 233.767 145.559 234.313C146.045 235.618 147.122 236.422 148.518 236.422C150.096 236.422 151.234 235.42 151.401 233.918H148.351V232.265H153.191V237.863H151.431L151.856 235.511H151.598C151.097 237.165 149.914 238.106 148.154 238.106Z" fill="white"/>
<path d="M139.133 237.863H132.761V227.243H139.133V229.003H134.642V231.673H138.981V233.403H134.642V236.103H139.133V237.863Z" fill="white"/>
<path d="M120.211 227.243H128.585V229.003H125.339V237.863H123.457V229.003H120.211V227.243Z" fill="white"/>
<path d="M118.09 237.863H116.087L114.964 234.419H111.096L109.973 237.863H107.97L111.581 227.243H114.479L118.09 237.863ZM112.795 229.245L111.672 232.674H114.388L113.265 229.245L113.159 228.32H112.901L112.795 229.245Z" fill="white"/>
<path d="M104.371 237.863H102.08L99.3794 233.357H98.7725V237.863H96.8912V227.243H100.836C102.323 227.243 103.415 227.713 103.961 228.654C104.204 229.079 104.341 229.61 104.341 230.262C104.341 230.854 104.219 231.309 103.977 231.718C103.491 232.553 102.474 232.978 101.215 233.054V233.281L101.701 233.494L104.371 237.863ZM100.836 228.957H98.7725V231.764H100.836C101.488 231.764 101.989 231.552 102.247 231.112C102.368 230.914 102.429 230.656 102.429 230.353C102.429 230.065 102.368 229.822 102.262 229.625C102.004 229.17 101.503 228.957 100.836 228.957Z" fill="white"/>
<path d="M84.3408 227.243H92.7157V229.003H89.4689V237.863H87.5876V229.003H84.3408V227.243Z" fill="white"/>
<path d="M76.8385 238.106C74.4868 238.106 73 236.816 73 234.647V234.374H74.942V234.54C74.942 235.785 75.6551 236.437 76.884 236.437C77.7185 236.437 78.295 236.149 78.5681 235.663C78.6895 235.451 78.7501 235.208 78.7501 234.935C78.7501 234.707 78.7198 234.51 78.6136 234.328C78.386 233.934 77.9157 233.645 77.0964 233.494L75.8675 233.266C74.7296 233.054 73.8951 232.553 73.4703 231.794C73.2276 231.37 73.1062 230.869 73.1062 230.292C73.1062 229.685 73.2579 229.139 73.5158 228.669C74.1227 227.622 75.3516 227 76.9599 227C79.3115 227 80.7983 228.274 80.7983 230.429V230.702H78.8563V230.52C78.8563 229.306 78.1433 228.669 76.9143 228.669C76.0799 228.669 75.5034 228.957 75.2303 229.443C75.1089 229.655 75.0482 229.898 75.0482 230.171C75.0482 230.399 75.0785 230.581 75.1848 230.778C75.4123 231.157 75.8827 231.43 76.7019 231.582L77.9157 231.825C79.0688 232.052 79.9032 232.568 80.328 233.327C80.5708 233.751 80.6921 234.237 80.6921 234.814C80.6921 235.436 80.5556 235.997 80.2825 236.452C79.6908 237.499 78.4467 238.106 76.8385 238.106Z" fill="white"/>
</g>
<g class="timeline-entry">
<a href="https://example.com" aria-label="Campaign Timeline Link">
<rect x="70" y="80" width="205" height="60" fill="transparent" />
  <circle opacity="0.25" cx="251.705" cy="114" r="20" transform="rotate(90 251.705 114)" fill="white">
  <animate attributeName="r" from="8" to="20" dur="2.5s" begin="0s" repeatCount="indefinite"/>
    <animate attributeName="opacity" from="1" to="0" dur="2.5s" begin="0s" repeatCount="indefinite"/>
  </circle>
  <circle cx="251.704" cy="114" r="12.147" transform="rotate(90 251.704 114)" fill="#B5E3D8"/>
  <path d="M165.805 111.963V107.548H167.686V118.169H165.805V113.723H161.056V118.169H159.175V107.548H161.056V111.963H165.805Z" fill="white"/>
  <path d="M149.543 118.681C148.411 118.681 147.409 118.378 146.539 117.771C145.67 117.164 145.042 116.345 144.658 115.313C144.415 114.656 144.294 113.927 144.294 113.128C144.294 112.319 144.415 111.591 144.658 110.944C145.042 109.902 145.675 109.082 146.555 108.486C147.435 107.879 148.466 107.575 149.65 107.575C150.55 107.575 151.359 107.742 152.077 108.076C152.805 108.41 153.382 108.885 153.807 109.502C154.232 110.119 154.469 110.832 154.52 111.641H152.578C152.497 110.954 152.188 110.397 151.652 109.973C151.126 109.548 150.464 109.335 149.665 109.335C148.926 109.335 148.279 109.538 147.723 109.942C147.177 110.337 146.777 110.883 146.524 111.581C146.352 112.066 146.266 112.582 146.266 113.128C146.266 113.674 146.352 114.19 146.524 114.676C146.777 115.374 147.177 115.925 147.723 116.33C148.269 116.724 148.901 116.921 149.619 116.921C150.398 116.921 151.035 116.714 151.531 116.299C152.037 115.885 152.335 115.323 152.426 114.615H154.353C154.292 115.414 154.06 116.122 153.655 116.739C153.25 117.346 152.694 117.821 151.986 118.165C151.278 118.509 150.464 118.681 149.543 118.681Z" fill="white"/>
  <path d="M138.189 118.196L135.488 113.69H134.881V118.196H133V107.575H136.945C137.693 107.575 138.33 107.697 138.856 107.94C139.392 108.172 139.797 108.521 140.07 108.986C140.323 109.431 140.449 109.967 140.449 110.595C140.449 111.151 140.328 111.636 140.085 112.051C139.853 112.456 139.494 112.769 139.008 112.992C138.533 113.214 137.971 113.346 137.324 113.386V113.614L137.809 113.826L140.48 118.196H138.189ZM134.881 109.29V112.097H136.945C137.632 112.097 138.103 111.879 138.356 111.444C138.477 111.242 138.538 110.989 138.538 110.686C138.538 110.402 138.482 110.16 138.371 109.957C138.118 109.512 137.643 109.29 136.945 109.29H134.881Z" fill="white"/>
  <path d="M128.72 118.196H126.717L125.594 114.752H121.726L120.603 118.196H118.6L122.211 107.575H125.109L128.72 118.196ZM123.425 109.578L122.302 113.007H125.018L123.895 109.578L123.789 108.653H123.531L123.425 109.578Z" fill="white"/>
  <path d="M114.738 118.196H108.366V107.575H114.738V109.335H110.247V112.006H114.586V113.735H110.247V116.436H114.738V118.196Z" fill="white"/>
  <path d="M99.6078 118.681C98.4244 118.681 97.4888 118.378 96.801 117.771C96.1132 117.154 95.7693 116.304 95.7693 115.222V114.949H97.7113V115.116C97.7113 115.733 97.8782 116.203 98.212 116.527C98.5559 116.85 99.0363 117.012 99.6533 117.012C100.068 117.012 100.417 116.947 100.7 116.815C100.983 116.673 101.196 116.481 101.337 116.239C101.459 116.026 101.519 115.783 101.519 115.51C101.519 115.257 101.474 115.055 101.383 114.903C101.14 114.489 100.634 114.211 99.8657 114.069L98.6368 113.841C97.4635 113.619 96.6644 113.128 96.2396 112.37C95.9969 111.945 95.8755 111.444 95.8755 110.868C95.8755 110.281 96.012 109.74 96.2851 109.244C96.5886 108.718 97.0387 108.309 97.6354 108.015C98.2322 107.722 98.9301 107.575 99.7291 107.575C100.913 107.575 101.848 107.879 102.536 108.486C103.224 109.093 103.568 109.932 103.568 111.004V111.277H101.626V111.095C101.626 110.498 101.454 110.043 101.11 109.73C100.776 109.406 100.301 109.244 99.6836 109.244C99.2689 109.244 98.92 109.315 98.6368 109.457C98.3536 109.588 98.1412 109.775 97.9996 110.018C97.8782 110.23 97.8175 110.473 97.8175 110.746C97.8175 110.979 97.863 111.181 97.954 111.353C98.1867 111.748 98.6924 112.016 99.4712 112.157L100.685 112.4C101.858 112.633 102.662 113.133 103.097 113.902C103.34 114.327 103.461 114.822 103.461 115.389C103.461 116.026 103.325 116.572 103.052 117.027C102.758 117.553 102.308 117.963 101.701 118.256C101.105 118.54 100.407 118.681 99.6078 118.681Z" fill="white"/>
  <path d="M91.4521 118.196H85.08V107.575H91.4521V109.335H86.9613V112.006H91.3004V113.735H86.9613V116.436H91.4521V118.196Z" fill="white"/>
  <path d="M78.1888 118.196L75.4882 113.69H74.8813V118.196H73V107.575H76.9447C77.6932 107.575 78.3304 107.697 78.8563 107.94C79.3924 108.172 79.797 108.521 80.0701 108.986C80.323 109.431 80.4494 109.967 80.4494 110.595C80.4494 111.151 80.328 111.636 80.0853 112.051C79.8526 112.456 79.4936 112.769 79.0081 112.992C78.5327 113.214 77.9713 113.346 77.324 113.386V113.614L77.8095 113.826L80.4797 118.196H78.1888ZM74.8813 109.29V112.097H76.9447C77.6325 112.097 78.1028 111.879 78.3557 111.444C78.477 111.242 78.5377 110.989 78.5377 110.686C78.5377 110.402 78.4821 110.16 78.3708 109.957C78.118 109.512 77.6426 109.29 76.9447 109.29H74.8813Z" fill="white"/>
  </a>
</g>
<defs>
<linearGradient id="paint0_linear_401_1669" x1="256.908" y1="83.9338" x2="256.907" y2="-4.00063" gradientUnits="userSpaceOnUse">
<stop stop-color="#B5E3D8"/>
<stop offset="1"/>
</linearGradient>
<clipPath id="clip0_401_1669">
<rect width="114.386" height="114.386" fill="white" transform="translate(321.386) rotate(90)"/>
</clipPath>
<clipPath id="clip1_401_1669">
<rect width="114.386" height="114.386" fill="white" transform="translate(321.386 114) rotate(90)"/>
</clipPath>
<clipPath id="clip2_401_1669">
<rect width="114.386" height="114.386" fill="white" transform="translate(320.903 228.908) rotate(90)"/>
</clipPath>
<clipPath id="clip3_401_1669">
<rect width="114.386" height="114.386" fill="white" transform="translate(320.903 343.223) rotate(90)"/>
</clipPath>
<clipPath id="clip4_401_1669">
<rect width="114.386" height="114.386" fill="white" transform="translate(320.903 457.609) rotate(90)"/>
</clipPath>
</defs>
</svg>
