<svg class="campaign-timeline-svg" width="1109" height="215" viewBox="0 0 1109 215" fill="none" xmlns="http://www.w3.org/2000/svg">
<g clip-path="url(#clip0_392_1325)">
<path d="M-7.49731 103.839C33.3458 73.5397 87.9567 41.0296 117.031 57.9318C149.438 76.7713 133.592 136.267 164.52 150.271C200.771 166.687 239.689 92.7186 303.294 102.783C338.049 108.281 372.506 137.657 372.417 163.992C372.373 177.049 362.768 187.115 352.367 188.264C341.95 189.415 331.612 182.811 328.622 169.268C322.453 141.327 362.837 63.5929 424.128 59.3391C511.191 53.2948 516.301 122.432 586.295 128.99C672.656 137.081 692.323 61.6358 766.403 69.1886C847.462 77.4521 868.01 167.85 918.37 150.097C950.806 138.661 957.079 95.8371 988.021 96.6271C1011.25 97.2206 1018.3 121.634 1040.08 122.658C1056.12 123.412 1078.91 111.423 1108.33 55.1171" stroke="url(#paint0_linear_392_1325)" stroke-width="7.14595" stroke-miterlimit="10"/>
</g>
<g opacity="0.4" clip-path="url(#clip1_392_1325)">
<path d="M-7.98663 103.839C32.8564 73.5397 87.4674 41.0296 116.541 57.9318C148.948 76.7713 133.102 136.267 164.03 150.271C200.282 166.687 239.2 92.7186 302.805 102.783C337.56 108.281 372.017 137.657 371.928 163.992C371.884 177.049 362.279 187.115 351.877 188.264C341.46 189.415 331.122 182.811 328.133 169.268C321.964 141.327 362.348 63.5929 423.639 59.3391C510.702 53.2948 515.811 122.432 585.806 128.99C672.167 137.081 691.834 61.6358 765.914 69.1886C846.973 77.4521 867.521 167.85 917.88 150.097C950.317 138.661 956.589 95.8371 987.531 96.6271C1010.76 97.2206 1017.81 121.634 1039.59 122.658C1055.63 123.412 1078.42 111.423 1107.84 55.1171" stroke="#755A94" stroke-width="7.14595" stroke-miterlimit="10"/>
</g>
<g opacity="0.3" class="timeline-entry  " clip-path="url(#clip2_392_1325)">
<path d="M-7.36511 103.839C33.478 73.5397 88.0889 41.0296 117.163 57.9318C149.57 76.7713 133.724 136.267 164.652 150.271C200.904 166.687 239.821 92.7186 303.426 102.783C338.181 108.281 372.639 137.657 372.549 163.992C372.506 177.049 362.9 187.115 352.499 188.264C342.082 189.415 331.744 182.811 328.755 169.268C322.585 141.327 362.97 63.5929 424.26 59.3391C511.324 53.2948 516.433 122.432 586.427 128.99C672.788 137.081 692.456 61.6358 766.535 69.1886C847.594 77.4521 868.143 167.85 918.502 150.097C950.938 138.661 957.211 95.8371 988.153 96.6271C1011.39 97.2206 1018.43 121.634 1040.22 122.658C1056.26 123.412 1079.04 111.423 1108.46 55.1171" stroke="#00B2A9" stroke-width="7.14595" stroke-miterlimit="10"/>
</g>
<g opacity="0.3" class="timeline-entry  " clip-path="url(#clip3_392_1325)">
<path d="M-7.49731 103.839C33.3458 73.5397 87.9567 41.0296 117.031 57.9318C149.438 76.7713 133.592 136.267 164.52 150.271C200.771 166.687 239.689 92.7186 303.294 102.783C338.049 108.281 372.506 137.657 372.417 163.992C372.373 177.049 362.768 187.115 352.367 188.264C341.95 189.415 331.612 182.811 328.622 169.268C322.453 141.327 362.838 63.5929 424.128 59.3391C511.191 53.2948 516.301 122.432 586.295 128.99C672.656 137.081 692.323 61.6358 766.403 69.1886C847.462 77.4521 868.01 167.85 918.37 150.097C950.806 138.661 957.079 95.8371 988.021 96.6271C1011.25 97.2206 1018.3 121.634 1040.08 122.658C1056.12 123.412 1078.91 111.423 1108.33 55.1171" stroke="#6F7BD4" stroke-width="7.14595" stroke-miterlimit="10"/>
</g>
<g opacity="0.3" class="timeline-entry  " clip-path="url(#clip4_392_1325)">
<path d="M-7.49731 103.839C33.3458 73.5397 87.9567 41.0296 117.031 57.9318C149.438 76.7713 133.592 136.267 164.52 150.271C200.771 166.687 239.689 92.7186 303.294 102.783C338.049 108.281 372.506 137.657 372.417 163.992C372.373 177.049 362.768 187.115 352.367 188.264C341.949 189.415 331.612 182.811 328.622 169.268C322.453 141.327 362.838 63.5929 424.128 59.3391C511.191 53.2948 516.301 122.432 586.295 128.99C672.656 137.081 692.323 61.6358 766.403 69.1886C847.462 77.4541 868.01 167.85 918.37 150.097C950.806 138.661 957.079 95.8371 988.021 96.6271C1011.25 97.2206 1018.3 121.634 1040.08 122.658C1056.12 123.412 1078.91 111.423 1108.33 55.1171" stroke="#EF95CF" stroke-width="7.14595" stroke-miterlimit="10"/>
</g>
<g opacity="0.3" class="timeline-entry">
<circle opacity="0.25" cx="636.757" cy="120.14" r="22.5" fill="white"/>
<circle cx="636.757" cy="120.14" r="13.6653" fill="#00B2A9"/>
<path d="M670.944 175.844H669.292V166.044H671.924L674.934 172.638L675.256 174.71H675.494V166.044H677.146V175.844H674.514L671.49 169.25L671.182 167.178H670.944V175.844Z" fill="white"/>
<path d="M660.026 176.068C657.772 176.068 656.022 174.906 655.322 172.96C655.098 172.358 654.986 171.672 654.986 170.944C654.986 170.216 655.098 169.53 655.322 168.928C656.022 167.024 657.73 165.82 660.012 165.82C662.294 165.82 664.002 167.024 664.702 168.928C664.926 169.53 665.038 170.216 665.038 170.944C665.038 171.672 664.926 172.358 664.702 172.96C664.016 174.85 662.322 176.068 660.026 176.068ZM660.012 174.444C661.44 174.444 662.504 173.674 662.98 172.372C663.134 171.938 663.218 171.462 663.218 170.944C663.218 170.426 663.134 169.95 662.98 169.516C662.518 168.242 661.468 167.444 660.012 167.444C658.556 167.444 657.506 168.242 657.044 169.516C656.89 169.95 656.806 170.426 656.806 170.944C656.806 171.462 656.89 171.938 657.044 172.372C657.506 173.646 658.556 174.444 660.012 174.444Z" fill="white"/>
<path d="M650.73 175.844H648.994V166.044H650.73V175.844Z" fill="white"/>
<path d="M637.413 166.044H645.141V167.668H642.145V175.844H640.409V167.668H637.413V166.044Z" fill="white"/>
<path d="M635.456 175.844H633.608L632.572 172.666H629.002L627.966 175.844H626.118L629.45 166.044H632.124L635.456 175.844ZM630.57 167.892L629.534 171.056H632.04L631.004 167.892L630.906 167.038H630.668L630.57 167.892Z" fill="white"/>
<path d="M622.554 175.844H616.674V166.044H622.554V167.668H618.41V170.132H622.414V171.728H618.41V174.22H622.554V175.844Z" fill="white"/>
<path d="M607.595 175.844H603.983V166.044H607.595C609.807 166.044 611.459 167.122 612.117 168.97C612.313 169.558 612.425 170.216 612.425 170.944C612.425 171.686 612.313 172.344 612.103 172.932C611.445 174.78 609.821 175.844 607.595 175.844ZM605.719 167.668V174.22H607.707C609.023 174.22 609.961 173.478 610.367 172.344C610.521 171.924 610.605 171.462 610.605 170.944C610.605 170.426 610.521 169.95 610.367 169.516C609.947 168.396 609.009 167.668 607.707 167.668H605.719Z" fill="white"/>
<path d="M599.111 175.844H597.375V166.044H599.111V175.844Z" fill="white"/>
</g>
<g opacity="0.3" class="timeline-entry">
<circle opacity="0.25" cx="857.014" cy="123.14" r="22.5" fill="white"/>
<circle cx="857.014" cy="123.14" r="13.6653" fill="#6F7BD4"/>
<path d="M899.166 178.844H897.514V169.044H900.146L903.156 175.638L903.478 177.71H903.716V169.044H905.368V178.844H902.736L899.712 172.25L899.404 170.178H899.166V178.844Z" fill="white"/>
<path d="M888.248 179.068C885.994 179.068 884.244 177.906 883.544 175.96C883.32 175.358 883.208 174.672 883.208 173.944C883.208 173.216 883.32 172.53 883.544 171.928C884.244 170.024 885.952 168.82 888.234 168.82C890.516 168.82 892.224 170.024 892.924 171.928C893.148 172.53 893.26 173.216 893.26 173.944C893.26 174.672 893.148 175.358 892.924 175.96C892.238 177.85 890.544 179.068 888.248 179.068ZM888.234 177.444C889.662 177.444 890.726 176.674 891.202 175.372C891.356 174.938 891.44 174.462 891.44 173.944C891.44 173.426 891.356 172.95 891.202 172.516C890.74 171.242 889.69 170.444 888.234 170.444C886.778 170.444 885.728 171.242 885.266 172.516C885.112 172.95 885.028 173.426 885.028 173.944C885.028 174.462 885.112 174.938 885.266 175.372C885.728 176.646 886.778 177.444 888.234 177.444Z" fill="white"/>
<path d="M878.952 178.844H877.216V169.044H878.952V178.844Z" fill="white"/>
<path d="M865.635 169.044H873.363V170.668H870.367V178.844H868.631V170.668H865.635V169.044Z" fill="white"/>
<path d="M858.058 179.068C855.678 179.068 854.18 177.626 854.18 175.274V169.044H855.972V175.218C855.972 176.576 856.756 177.416 858.058 177.416C859.36 177.416 860.144 176.576 860.144 175.218V169.044H861.936V175.274C861.936 177.626 860.424 179.068 858.058 179.068Z" fill="white"/>
<path d="M845.447 179.068C843.347 179.068 841.639 177.864 840.939 175.96C840.715 175.358 840.603 174.672 840.603 173.944C840.603 173.216 840.715 172.53 840.939 171.928C841.639 170.024 843.347 168.82 845.545 168.82C848.065 168.82 849.899 170.29 850.039 172.572H848.247C848.093 171.298 847.029 170.444 845.559 170.444C844.173 170.444 843.123 171.242 842.661 172.516C842.507 172.95 842.423 173.426 842.423 173.944C842.423 174.462 842.507 174.938 842.661 175.372C843.123 176.646 844.173 177.444 845.517 177.444C846.959 177.444 847.939 176.604 848.107 175.316H849.885C849.717 177.528 848.051 179.068 845.447 179.068Z" fill="white"/>
<path d="M836.731 178.844H830.851V169.044H836.731V170.668H832.587V173.132H836.591V174.728H832.587V177.22H836.731V178.844Z" fill="white"/>
<path d="M820.182 178.844H818.054L821.316 173.902L818.054 169.044H820.154L822.31 172.334L822.38 173.034H822.618L822.688 172.334L824.844 169.044H826.958L823.682 173.902L826.958 178.844H824.83L822.716 175.498L822.618 174.798H822.394L822.31 175.498L820.182 178.844Z" fill="white"/>
<path d="M814.547 178.844H808.667V169.044H814.547V170.668H810.403V173.132H814.407V174.728H810.403V177.22H814.547V178.844Z" fill="white"/>
</g>
<g opacity="0.3" class="timeline-entry">
<circle opacity="0.25" cx="1071.89" cy="107.14" r="22.5" fill="white"/>
<circle cx="1071.89" cy="107.14" r="13.6653" fill="#EF95CF"/>
<path d="M1104.35 163.068C1102.18 163.068 1100.8 161.878 1100.8 159.876V159.624H1102.6V159.778C1102.6 160.926 1103.25 161.528 1104.39 161.528C1105.16 161.528 1105.69 161.262 1105.94 160.814C1106.05 160.618 1106.11 160.394 1106.11 160.142C1106.11 159.932 1106.08 159.75 1105.98 159.582C1105.77 159.218 1105.34 158.952 1104.58 158.812L1103.45 158.602C1102.4 158.406 1101.63 157.944 1101.24 157.244C1101.01 156.852 1100.9 156.39 1100.9 155.858C1100.9 155.298 1101.04 154.794 1101.28 154.36C1101.84 153.394 1102.97 152.82 1104.46 152.82C1106.63 152.82 1108 153.996 1108 155.984V156.236H1106.21V156.068C1106.21 154.948 1105.55 154.36 1104.42 154.36C1103.65 154.36 1103.11 154.626 1102.86 155.074C1102.75 155.27 1102.69 155.494 1102.69 155.746C1102.69 155.956 1102.72 156.124 1102.82 156.306C1103.03 156.656 1103.46 156.908 1104.22 157.048L1105.34 157.272C1106.4 157.482 1107.17 157.958 1107.57 158.658C1107.79 159.05 1107.9 159.498 1107.9 160.03C1107.9 160.604 1107.78 161.122 1107.52 161.542C1106.98 162.508 1105.83 163.068 1104.35 163.068Z" fill="white"/>
<path d="M1089.86 153.044H1097.59V154.668H1094.6V162.844H1092.86V154.668H1089.86V153.044Z" fill="white"/>
<path d="M1088.07 162.844H1082.19V153.044H1083.92V161.22H1088.07V162.844Z" fill="white"/>
<path d="M1073.59 163.068C1071.21 163.068 1069.71 161.626 1069.71 159.274V153.044H1071.5V159.218C1071.5 160.576 1072.29 161.416 1073.59 161.416C1074.89 161.416 1075.67 160.576 1075.67 159.218V153.044H1077.47V159.274C1077.47 161.626 1075.95 163.068 1073.59 163.068Z" fill="white"/>
<path d="M1061.78 163.068C1059.61 163.068 1058.24 161.878 1058.24 159.876V159.624H1060.03V159.778C1060.03 160.926 1060.69 161.528 1061.82 161.528C1062.59 161.528 1063.13 161.262 1063.38 160.814C1063.49 160.618 1063.55 160.394 1063.55 160.142C1063.55 159.932 1063.52 159.75 1063.42 159.582C1063.21 159.218 1062.78 158.952 1062.02 158.812L1060.89 158.602C1059.84 158.406 1059.07 157.944 1058.67 157.244C1058.45 156.852 1058.34 156.39 1058.34 155.858C1058.34 155.298 1058.48 154.794 1058.72 154.36C1059.28 153.394 1060.41 152.82 1061.89 152.82C1064.06 152.82 1065.44 153.996 1065.44 155.984V156.236H1063.64V156.068C1063.64 154.948 1062.99 154.36 1061.85 154.36C1061.08 154.36 1060.55 154.626 1060.3 155.074C1060.19 155.27 1060.13 155.494 1060.13 155.746C1060.13 155.956 1060.16 156.124 1060.26 156.306C1060.47 156.656 1060.9 156.908 1061.66 157.048L1062.78 157.272C1063.84 157.482 1064.61 157.958 1065 158.658C1065.23 159.05 1065.34 159.498 1065.34 160.03C1065.34 160.604 1065.21 161.122 1064.96 161.542C1064.41 162.508 1063.27 163.068 1061.78 163.068Z" fill="white"/>
<path d="M1054.26 162.844H1048.38V153.044H1054.26V154.668H1050.11V157.132H1054.12V158.728H1050.11V161.22H1054.26V162.844Z" fill="white"/>
<path d="M1044.13 162.844H1042.02L1039.53 158.686H1038.97V162.844H1037.23V153.044H1040.87C1042.24 153.044 1043.25 153.478 1043.75 154.346C1043.98 154.738 1044.1 155.228 1044.1 155.83C1044.1 156.376 1043.99 156.796 1043.77 157.174C1043.32 157.944 1042.38 158.336 1041.22 158.406V158.616L1041.67 158.812L1044.13 162.844ZM1040.87 154.626H1038.97V157.216H1040.87C1041.47 157.216 1041.93 157.02 1042.17 156.614C1042.28 156.432 1042.34 156.194 1042.34 155.914C1042.34 155.648 1042.28 155.424 1042.19 155.242C1041.95 154.822 1041.49 154.626 1040.87 154.626Z" fill="white"/>
</g>
<g opacity="0.3" class="timeline-entry">
<circle opacity="0.25" cx="435.889" cy="61.5" r="22.5" fill="white"/>
</g>
<circle opacity="0.4" cx="435.889" cy="61.5001" r="13.6653" fill="#755A94"/>
<g opacity="0.3" class="timeline-entry">
<path d="M477.579 107.403H479.581L476.123 113.605V117.203H474.387V113.605L470.943 107.403H472.931L475.087 111.477L475.143 112.121H475.381L475.437 111.477L477.579 107.403Z" fill="white"/>
<path d="M463.096 117.427C461.248 117.427 459.638 116.321 458.994 114.501C458.756 113.829 458.644 113.073 458.644 112.359C458.644 111.603 458.756 110.903 458.98 110.287C459.694 108.383 461.388 107.179 463.628 107.179C466.148 107.179 467.926 108.691 468.08 110.861H466.288C466.106 109.587 465.042 108.803 463.628 108.803C462.214 108.803 461.164 109.601 460.702 110.861C460.548 111.309 460.464 111.799 460.464 112.345C460.464 112.863 460.52 113.423 460.702 113.927C461.15 115.131 462.144 115.873 463.432 115.873C464.888 115.873 465.938 114.949 466.092 113.563H463.278V112.037H467.744V117.203H466.12L466.512 115.033H466.274C465.812 116.559 464.72 117.427 463.096 117.427Z" fill="white"/>
<path d="M454.772 117.203H448.892V107.403H454.772V109.027H450.628V111.491H454.632V113.087H450.628V115.579H454.772V117.203Z" fill="white"/>
<path d="M437.311 107.403H445.039V109.027H442.043V117.203H440.307V109.027H437.311V107.403Z" fill="white"/>
<path d="M435.354 117.203H433.506L432.47 114.025H428.9L427.864 117.203H426.016L429.348 107.403H432.022L435.354 117.203ZM430.468 109.251L429.432 112.415H431.938L430.902 109.251L430.804 108.397H430.566L430.468 109.251Z" fill="white"/>
<path d="M422.695 117.203H420.581L418.089 113.045H417.529V117.203H415.793V107.403H419.433C420.805 107.403 421.813 107.837 422.317 108.705C422.541 109.097 422.667 109.587 422.667 110.189C422.667 110.735 422.555 111.155 422.331 111.533C421.883 112.303 420.945 112.695 419.783 112.765V112.975L420.231 113.171L422.695 117.203ZM419.433 108.985H417.529V111.575H419.433C420.035 111.575 420.497 111.379 420.735 110.973C420.847 110.791 420.903 110.553 420.903 110.273C420.903 110.007 420.847 109.783 420.749 109.601C420.511 109.181 420.049 108.985 419.433 108.985Z" fill="white"/>
<path d="M404.212 107.403H411.94V109.027H408.944V117.203H407.208V109.027H404.212V107.403Z" fill="white"/>
<path d="M397.289 117.427C395.119 117.427 393.747 116.237 393.747 114.235V113.983H395.539V114.137C395.539 115.285 396.197 115.887 397.331 115.887C398.101 115.887 398.633 115.621 398.885 115.173C398.997 114.977 399.053 114.753 399.053 114.501C399.053 114.291 399.025 114.109 398.927 113.941C398.717 113.577 398.283 113.311 397.527 113.171L396.393 112.961C395.343 112.765 394.573 112.303 394.181 111.603C393.957 111.211 393.845 110.749 393.845 110.217C393.845 109.657 393.985 109.153 394.223 108.719C394.783 107.753 395.917 107.179 397.401 107.179C399.571 107.179 400.943 108.355 400.943 110.343V110.595H399.151V110.427C399.151 109.307 398.493 108.719 397.359 108.719C396.589 108.719 396.057 108.985 395.805 109.433C395.693 109.629 395.637 109.853 395.637 110.105C395.637 110.315 395.665 110.483 395.763 110.665C395.973 111.015 396.407 111.267 397.163 111.407L398.283 111.631C399.347 111.841 400.117 112.317 400.509 113.017C400.733 113.409 400.845 113.857 400.845 114.389C400.845 114.963 400.719 115.481 400.467 115.901C399.921 116.867 398.773 117.427 397.289 117.427Z" fill="white"/>
</g>
<g class="timeline-entry">
<a href="https://example.com" aria-label="Campaign Timeline Link">
  <g class="timeline-link">
  <rect x="170" y="110" width="95" height="80" fill="transparent" />
<g class="timeline-circle">
  <circle class="circle-pulse" opacity="0.25" cx="214.489" cy="129.689" r="22.5" fill="white">
    <animate attributeName="r" from="8" to="20" dur="2.5s" begin="0s" repeatCount="indefinite"/>
    <animate attributeName="opacity" from="1" to="0" dur="2.5s" begin="0s" repeatCount="indefinite"/>
  </circle>
  </g>
  <circle cx="214.489" cy="129.689" fill="#B5E3D8" r="10"/>
<path d="M256.443 179.666V175.592H258.179V185.392H256.443V181.29H252.061V185.392H250.325V175.592H252.061V179.666H256.443Z" fill="white"/>
<path d="M241.438 185.616C240.392 185.616 239.468 185.336 238.666 184.776C237.863 184.216 237.284 183.46 236.93 182.508C236.706 181.902 236.594 181.23 236.594 180.492C236.594 179.746 236.706 179.074 236.93 178.476C237.284 177.515 237.868 176.759 238.68 176.208C239.492 175.648 240.444 175.368 241.536 175.368C242.366 175.368 243.113 175.522 243.776 175.83C244.448 176.138 244.98 176.577 245.372 177.146C245.764 177.716 245.983 178.374 246.03 179.12H244.238C244.163 178.486 243.878 177.972 243.384 177.58C242.898 177.188 242.287 176.992 241.55 176.992C240.868 176.992 240.271 177.179 239.758 177.552C239.254 177.916 238.885 178.42 238.652 179.064C238.493 179.512 238.414 179.988 238.414 180.492C238.414 180.996 238.493 181.472 238.652 181.92C238.885 182.564 239.254 183.073 239.758 183.446C240.262 183.81 240.845 183.992 241.508 183.992C242.226 183.992 242.814 183.801 243.272 183.418C243.738 183.036 244.014 182.518 244.098 181.864H245.876C245.82 182.602 245.605 183.255 245.232 183.824C244.858 184.384 244.345 184.823 243.692 185.14C243.038 185.458 242.287 185.616 241.438 185.616Z" fill="white"/>
<path d="M230.96 185.392L228.468 181.234H227.908V185.392H226.172V175.592H229.812C230.503 175.592 231.091 175.704 231.576 175.928C232.071 176.143 232.444 176.465 232.696 176.894C232.929 177.305 233.046 177.8 233.046 178.378C233.046 178.892 232.934 179.34 232.71 179.722C232.495 180.096 232.164 180.385 231.716 180.59C231.277 180.796 230.759 180.917 230.162 180.954V181.164L230.61 181.36L233.074 185.392H230.96ZM227.908 177.174V179.764H229.812C230.447 179.764 230.881 179.564 231.114 179.162C231.226 178.976 231.282 178.742 231.282 178.462C231.282 178.201 231.231 177.977 231.128 177.79C230.895 177.38 230.456 177.174 229.812 177.174H227.908Z" fill="white"/>
<path d="M222.222 185.392H220.374L219.338 182.214H215.768L214.732 185.392H212.884L216.216 175.592H218.89L222.222 185.392ZM217.336 177.44L216.3 180.604H218.806L217.77 177.44L217.672 176.586H217.434L217.336 177.44Z" fill="white"/>
<path d="M209.321 185.392H203.441V175.592H209.321V177.216H205.177V179.68H209.181V181.276H205.177V183.768H209.321V185.392Z" fill="white"/>
<path d="M195.359 185.616C194.267 185.616 193.404 185.336 192.769 184.776C192.134 184.207 191.817 183.423 191.817 182.424V182.172H193.609V182.326C193.609 182.896 193.763 183.33 194.071 183.628C194.388 183.927 194.832 184.076 195.401 184.076C195.784 184.076 196.106 184.016 196.367 183.894C196.628 183.764 196.824 183.586 196.955 183.362C197.067 183.166 197.123 182.942 197.123 182.69C197.123 182.457 197.081 182.27 196.997 182.13C196.773 181.748 196.306 181.491 195.597 181.36L194.463 181.15C193.38 180.945 192.643 180.492 192.251 179.792C192.027 179.4 191.915 178.938 191.915 178.406C191.915 177.865 192.041 177.366 192.293 176.908C192.573 176.423 192.988 176.045 193.539 175.774C194.09 175.504 194.734 175.368 195.471 175.368C196.563 175.368 197.426 175.648 198.061 176.208C198.696 176.768 199.013 177.543 199.013 178.532V178.784H197.221V178.616C197.221 178.066 197.062 177.646 196.745 177.356C196.437 177.058 195.998 176.908 195.429 176.908C195.046 176.908 194.724 176.974 194.463 177.104C194.202 177.226 194.006 177.398 193.875 177.622C193.763 177.818 193.707 178.042 193.707 178.294C193.707 178.509 193.749 178.696 193.833 178.854C194.048 179.218 194.514 179.466 195.233 179.596L196.353 179.82C197.436 180.035 198.178 180.497 198.579 181.206C198.803 181.598 198.915 182.056 198.915 182.578C198.915 183.166 198.789 183.67 198.537 184.09C198.266 184.576 197.851 184.954 197.291 185.224C196.74 185.486 196.096 185.616 195.359 185.616Z" fill="white"/>
<path d="M187.833 185.392H181.953V175.592H187.833V177.216H183.689V179.68H187.693V181.276H183.689V183.768H187.833V185.392Z" fill="white"/>
<path d="M175.594 185.392L173.102 181.234H172.542V185.392H170.806V175.592H174.446C175.137 175.592 175.725 175.704 176.21 175.928C176.705 176.143 177.078 176.465 177.33 176.894C177.564 177.305 177.68 177.8 177.68 178.378C177.68 178.892 177.568 179.34 177.344 179.722C177.13 180.096 176.798 180.385 176.35 180.59C175.912 180.796 175.394 180.917 174.796 180.954V181.164L175.244 181.36L177.708 185.392H175.594ZM172.542 177.174V179.764H174.446C175.081 179.764 175.515 179.564 175.748 179.162C175.86 178.976 175.916 178.742 175.916 178.462C175.916 178.201 175.865 177.977 175.762 177.79C175.529 177.38 175.09 177.174 174.446 177.174H172.542Z" fill="white"/>
  </g>
</a>
</g>
<defs>
<linearGradient id="paint0_linear_392_1325" x1="-7.49731" y1="120.844" x2="189" y2="120.844" gradientUnits="userSpaceOnUse">
<stop/>
<stop offset="1" stop-color="#B5E3D8"/>
</linearGradient>
<clipPath id="clip0_392_1325">
<rect width="214.378" height="214.378" fill="white"/>
</clipPath>
<clipPath id="clip1_392_1325">
<rect width="214.378" height="214.378" fill="white" transform="translate(213.889)"/>
</clipPath>
<clipPath id="clip2_392_1325">
<rect width="214.378" height="214.378" fill="white" transform="translate(428.889)"/>
</clipPath>
<clipPath id="clip3_392_1325">
<rect width="214.378" height="214.378" fill="white" transform="translate(643.135)"/>
</clipPath>
<clipPath id="clip4_392_1325">
<rect width="214.378" height="214.378" fill="white" transform="translate(857.514)"/>
</clipPath>
</defs>
</svg>
