<svg id="Layer_1" data-name="Layer 1" xmlns="http://www.w3.org/2000/svg" xmlns:xlink="http://www.w3.org/1999/xlink" viewBox="0 0 10152.81 606.53">
    <defs>
        <style>
            .cls-1,
            .cls-5 {
                fill: none;
            }
            .cls-2 {
                clip-path: url(#clip-path);
            }
            .cls-3 {
                clip-path: url(#clip-path-2);
            }
            .cls-4 {
                clip-path: url(#clip-path-3);
            }
            .cls-5 {
                stroke-miterlimit: 10;
                fill:black
            }
        </style>
        <clipPath id="clip-path">
            <path
                class="cls-1"
                d="M10152.81,390.28v29.18c-41.43,18.57-83,38.85-127.72,46.62-47.63,8.27-98.52,5.82-146-1.49-57.78-8.89-113.89-23.22-169.78-40.11-50.67-15.31-101.63-28-154.92-28.06-106.68-.12-200.43,49.73-299,82.82-94.81,31.83-210,36.42-297.54-19.48-42-26.86-72.64-68.29-115.49-94-40.49-24.3-86.5-10.75-130.57,4.05-45.77,15.36-86.18,30.66-126.18,56.91-38.12,25-77.28,46.8-119.48,64.27-90.67,37.53-187.34,49.15-280.93,14.66-44.34-16.33-82.35-30.2-123.34-53-43.29-24.07-87.25-30.6-136.83-29.93-90.37,1.21-180.79,24.89-262.76,60.6-78.4,34.15-174.74,81.17-262.85,56.58-43.3-12.09-80.22-39.46-115.5-66.26-36.58-27.79-74.19-53.61-116.24-72.48-80-35.91-170-38.53-252.62-3.45-78.59,33.35-152.41,83.41-234.59,107.88-85.46,25.44-165,5.73-218.7-68-48.3-66.34-67.19-168.21-133.35-220.52-72.09-57-159.85-1.89-214.93,51.16-51.38,49.51-115.34,143-196.64,133.85-42.31-4.75-70.26-41.61-96.58-71.36-27.17-30.73-59.8-65-100.64-76-82.66-22.33-155,57-212.14,104.66-60.79,50.73-137.71,112-209.83,42.72-59.45-57.11-67.34-143.86-104.81-213.83-24.17-45.13-49.25-74.57-91.55-77.31-42-2.72-80.86,29-112.08,53.77-65.14,51.74-124.63,112-192.24,160.59-33,23.69-70.13,45.48-111.23,49.6-44.38,4.45-76.37-14.58-105.67-47-52.35-57.92-96.14-149.33-184.12-151.07-78.74-1.55-158.33,45.92-228.55,76.9-82.32,36.31-162.31,79.36-246.79,110.46-157.24,57.87-331,88.34-498.6,92-89.89,2-178.87-10.3-265.48-34.1-85-23.35-179.7-50.76-267.26-24.46-43.1,12.94-79.43,39.21-119.94,57.79-43.38,19.89-89.56,28.27-136.73,33.15-91.49,9.47-183.87,3.78-274.87-8.06-184.16-24-373-94.26-556.4-29.19-45.38,16.1-90.58,33.43-137.85,43.27-48.1,10-97.64,11.44-146.53,7.8-101.2-7.52-199.77-35.26-299.42-52.88-100.66-17.81-203.33-31.34-305.62-21.08-103.73,10.4-202.81,59.83-308.07,54.92C499,478.47,393.51,437.29,297,399.12,245.1,378.61,196.49,361.2,139.68,367,87.05,372.36,39.7,395,0,429.52V405.79c42-32.41,90.52-53.16,143.71-57.21,54.79-4.16,103.34,11.74,153.79,30.82,97.82,37,204.1,76.71,310.12,77.13,105.85.43,205.85-47.24,311.18-54.92,101.32-7.38,203,7,302.48,25.32,98.31,18.11,196,44.55,296.28,49.08,100.71,4.56,191.49-24,286.35-53.55,184-57.33,373.93,11.88,558,33.89,91.55,11,184.32,14.69,275.7.12,45.11-7.19,89.4-17.55,131.5-35.61,41-17.57,78.89-41.1,122.58-52,87.38-21.75,179.51,5.28,263.43,29.32,85.67,24.55,172.57,39.08,261.83,38.9,168.73-.36,342.3-26.13,501.82-81.53,84.65-29.41,164.72-71,246.72-106.9,72.08-31.54,155.75-80,236.67-76.22,87.36,4.06,128.8,93.31,181.52,150.38,29.81,32.28,62.82,48.8,107.44,43.3,40-4.92,76-25.38,108.26-48.52,66.9-48,125.44-106.92,190-158,31.09-24.58,68.87-51.63,110.41-50.53,42.41,1.12,71,35,89.92,69.63,38.55,70.64,49.28,157.15,108.71,215.61,28.18,27.73,66.06,39.16,104.65,26.34,37.67-12.52,70.5-38.82,100.55-63.75,57.34-47.56,129-124.33,211.7-104.7,39.76,9.43,72.37,38.1,99.55,67.24,27.37,29.33,54.13,66,96.13,73.56,80.94,14.64,146.22-73.45,196.69-122.73,55.83-54.51,144.37-113.45,219.52-57.13,66.71,50,87.34,143.35,134.87,208.61,52.95,72.7,130.42,93.36,215,67.84,81.28-24.53,153.25-73,230.83-106.38,85.07-36.64,175.59-26.94,259.75,7.7,41.14,16.93,78.55,39.47,114.61,65.33,36.32,26.05,73.58,52.94,117,65.79,87.36,25.88,181.34-7.79,260-41.42,82.9-35.45,173.32-76,264.33-79.64,47.46-1.9,90.86,4.37,133.48,25.31,42.27,20.77,81,47.58,124.84,65.36,93.52,38,188.17,32.8,281-4.25,86.75-34.63,158-104.6,246.16-134.7,44.35-15.14,91.2-16.26,133.39,6,44.06,23.21,76.93,62.27,118.66,89,87.73,56.09,195.92,58.33,292.59,26.76,99.84-32.61,193.34-99.1,300.66-101.95,111.33-3,217.24,47.33,326.19,64.27,46.56,7.24,95.32,10.54,142,2.35C10068.16,431.07,10110.58,409.64,10152.81,390.28Zm-44.46-34c-26.16,12.08-52.94,24.05-81.13,30.59-46.65,10.82-95.6,5.72-142.29-1.79-107.61-17.32-212.82-64.51-323.21-58.15-105.32,6.07-194.34,76.36-292,109.84-100.72,34.53-198.07,28.52-290.27-27-43.27-26.07-81-71.78-127.22-92.9-41.69-19.05-86.58-16-130.22-3.83-94.65,26.38-171.26,106.44-262.87,141-93,35-180,32.94-270.48-7.4-86.5-38.57-160-101.74-259.26-95.31-90.52,5.87-179.13,48.78-262.27,82.8-80.27,32.85-170.56,63.73-258.73,39.2-45.12-12.55-84.63-39.13-123.57-64.22-35.43-22.83-71.89-42.33-111.7-56.43-87.45-31-179.49-38.57-266.44-1.73-77.61,32.88-146.82,84.41-226.91,111.58-82.93,28.14-159.8,11.42-213.79-59.87-48.44-64-70.86-154.82-139.56-201.86-74-50.66-159,.82-215,53.62-52.39,49.4-117.8,141.85-201,125.93-43.71-8.37-70.42-45.73-100-75.35-27.77-27.83-61.6-54.05-101.33-61-81.8-14.37-150.26,57-207.57,104.29-58.61,48.34-132.79,103.54-200,36.83-57.66-57.23-69.85-142.28-105.91-212-18.38-35.54-46.07-71.57-89.11-74.66-37.94-2.73-73.64,19.61-103,41.12C4936,188.94,4877.9,250.27,4810.63,300.12c-34.68,25.7-73.84,47.81-117.67,52.6-42.36,4.63-74.32-9.78-103.09-39.87-54.49-57-91.81-146.08-180.64-152.2-80-5.52-162.32,42.22-233.81,72.75-82.34,35.16-163.06,74.92-248.47,102.36-164.72,52.93-341.35,72.06-513.86,65.71-85.86-3.16-167.7-19.44-249.7-44.77C3080,330.93,2991.37,302.39,2903,314c-46.09,6-87.73,23.9-130.72,40.53a1273.8,1273.8,0,0,1-122.86,40.54c-88.85,24.35-180.21,25.53-271.44,16.89-185.47-17.55-379.74-87.55-565.95-44.42-94.16,21.81-186.45,57.25-284,59.55-100.11,2.37-197.72-22.14-295.18-41.54-98.91-19.68-200.28-36.06-301.44-33.83-104.69,2.3-201.22,42.15-304.21,53.41C521.83,416.62,414.74,383,316.63,349c-52.84-18.3-104.92-35.95-161.6-35-55.54.9-107.93,18.61-155,47.37v23.73c43.47-30.17,92.65-49.43,145.81-52.57,59.29-3.51,112.3,15.34,167.09,35.17C410.56,403,518,439.78,623.41,432.44c103.32-7.19,200.36-49.7,304.49-54.32,101.26-4.49,202.78,11.08,301.91,30.11,97.86,18.78,195.48,44.23,295.73,45.07,99,.84,190.8-31.66,285.08-57.3,185.33-50.41,379.77,21,564.63,40.32,91.4,9.55,183.32,10.22,273.48-9.52,40.66-8.91,80.6-20.17,119.22-35.79,44.51-18,86.48-40.63,134.37-48.85,88.39-15.19,178.19,13.66,262,38.29,82.25,24.16,165.12,38.58,250.88,40,171.44,2.87,347.72-20.19,510.34-75.24,86.44-29.25,168.26-70.88,252-106.91,71-30.57,153.2-78.2,232.84-71,87.08,7.85,125.24,100,179.75,155.7,66,67.51,150,33.9,216.59-15.06,66.24-48.7,124-108,189.32-157.88,30.68-23.46,68.78-49.12,109.37-45.89,41.62,3.32,68.87,37.83,87.09,72.07,38.18,71.75,49.37,160.65,112.56,217.31,70.56,63.29,145.83,2.4,203.44-45.6s128.55-120.38,211.07-97.8c35.87,9.82,65.88,34.64,91.39,60.74,30.24,30.94,58.32,71,104.57,77,81.17,10.56,144.43-78,195.76-126.89,55.77-53.15,141.92-106.43,215.54-53.42,67.51,48.63,89.25,140.72,137.07,205.36,56.21,76,137.72,91.12,224.17,60.79,79.93-28,150.07-77.8,228.45-109.48,83.52-33.76,174.25-22.07,256.35,10.08,37.67,14.75,72.59,34.18,106,56.92,39.72,27.06,80.32,56.34,127.44,68.89,88.11,23.46,179.85-24.34,259.34-57.53,82.94-34.64,172.68-74.51,263.46-78.43,47.18-2,90.7,5.53,133.38,25.51s81.9,52.77,125.38,70.83c95.53,39.69,189.44,38.07,284.35-.94,86.08-35.38,158.49-115.45,248.42-141.22,41.4-11.86,84.39-11.77,123.71,7,48.09,23,85,73.59,130.69,100.58,91.6,54.12,193.64,59,292.4,25,97.62-33.61,187.92-101.43,293.68-104.77,110.92-3.5,216.69,50.44,325.29,67.09,48.36,7.42,99.92,11.35,147.92-.59,27-6.73,52.83-18,78.13-29.46,12.51-5.68,24.92-11.56,37.4-17.28.9-.41,1.9-1,3-1.59V333.59C10135.7,340.63,10115.52,353,10108.35,356.26Zm-6-51.08c-23.14,11.1-46.74,22.15-71.49,29.16-50.47,14.29-102.19,6.19-152.78-2.8-104.84-18.63-207.47-61.81-315.6-50.07-105.45,11.46-193.4,83-292.43,115.91-51.24,17-105.19,27.17-159,17.82-46-8-85-30.24-124-54.93-44.1-28-87.68-60.91-138.28-76.31-42.17-12.84-86.07-9-128.06,2.75-93.05,26.11-169.8,86.93-260,120-47.22,17.34-97.72,28.32-148.19,22.29-42.69-5.1-92.36-25.28-131-43.26-76.63-35.66-154.54-87.39-254.36-76.43-90.89,10-177.87,43.88-262.17,77.26-83.28,33-170.77,64.12-259.95,34.26-44.73-15-84.6-41-125.3-64.21-36.91-21-75.32-37.44-116.43-48.26-87-22.9-175-24.44-259.13,10.68-78.58,32.8-146,87.27-226.11,116.49-36.6,13.34-76.83,21.26-115.4,12.06-41.14-9.81-72.77-37.27-97.33-70.48-47.08-63.62-73.55-156.43-148.13-195-77.64-40.2-160.51,16.06-215.29,69-51.11,49.42-119.67,141.44-202.14,114.76-40.46-13.09-65.1-49.09-94.81-77-28.85-27.08-64.74-50.55-105.12-54.17-81.41-7.31-147.28,61.42-205.11,108.52-28.82,23.48-60.38,50-97,60-39.18,10.67-72.91-5.65-99.13-34.85-54.94-61.17-66.27-146.66-105.29-216.77-18.58-33.39-47-63.27-87.46-64.31-36.52-.95-71.07,20.12-99.55,40.66-67,48.27-123.64,109.32-189.82,158.6-33.84,25.19-71.87,48.57-114.46,54.75-42.23,6.12-75.55-8.24-105.25-37.92-55.68-55.62-88.93-144.12-176.92-154.17C4339,140,4253.52,189.74,4181.22,220c-84.05,35.18-166.55,73.76-254.38,99-168,48.19-346.75,61.43-520.57,47-81-6.71-157.45-25.16-234.58-50.61-83.92-27.69-170.74-57.84-260.34-55.11-90.69,2.77-173.49,42.08-256.6,74.4-87.09,33.86-178.38,38.8-270.78,31.78-93.87-7.12-186.67-23.84-279.61-38.12s-188.42-29.49-282.47-15.66c-96.75,14.23-188.13,56.27-285.29,65.16-101,9.25-199.63-13.9-297.72-34.75-99.58-21.17-202.2-39.48-304.27-41-52.27-.79-104.07,5.85-155.16,16.52s-100.8,28.05-152.2,36.6c-107.58,17.88-212.72-12.89-314.31-44.54-51.59-16.07-103.8-30.79-158.27-30.87-54-.07-106.06,14.31-154.67,37.12v23.73c45.81-24.84,95.72-40.8,148.08-42.43,58.32-1.81,112.66,14.89,167.33,33,97.87,32.45,201.61,63.66,306.07,51.24,50.36-6,99.3-21.83,148.69-32.91,54.3-12.17,108.86-20.82,164.62-20.93,99.53-.19,199.52,16.42,296.75,36.32,100.12,20.48,200.66,45.34,303.68,39,97.35-5.95,189.64-45.17,285.12-62.77,93.24-17.19,188.28-4.69,281.07,9.39,92.54,14,184.6,31.92,277.94,40,92,8,183.49,5.31,271.86-23.46,83.81-27.29,166.83-70.77,255.6-78.19,89.31-7.46,177.09,21.92,261,48.65,78.93,25.14,157.68,42.46,240.48,47.24,174.59,10.07,353.39-6.08,521-57.64,84.74-26.06,164.68-64.38,246.13-98.88,73.14-31,159.93-81.81,241.94-72.71,87,9.64,121.65,98.08,176.43,153.55,30.46,30.86,63.43,43.94,107.3,37.27,43.12-6.56,81.48-29.37,115.66-55.08,64.42-48.46,120.44-107.28,185.3-155.17,29.38-21.69,65.53-44.7,103.67-43,44,2,72.7,38.06,91.3,74.46,35.22,68.93,48.18,152.16,103.3,209.82,67.27,70.39,143.1,13.95,202.71-35.38,56.14-46.46,123.11-114.2,203-102.23,39.22,5.88,73.09,30,101.05,56.86,30.85,29.62,57.7,69.14,102.53,78C5990.54,390.58,6054,303.8,6104.7,255,6161,201,6247.48,144.14,6324.54,193.46c69.07,44.21,93.19,132.56,139.94,195.64,24.12,32.56,54.94,59.63,94.86,70.42,41,11.09,84.32,2.81,123.43-11.49,78.19-28.57,145.46-79.19,221.94-111.64,85.49-36.26,176-31.72,263.37-4.63,41.5,12.87,79.74,31.61,116.75,54.25,37.34,22.84,74.64,47.2,116.48,61.08,90.6,30.07,192.77-21.65,276.54-55.4,82-33.05,129.53-64.38,246.57-78.94,56-7,119.91,12.69,179.5,43,9.33,4.75,80,47.23,87.68,51,41.08,20.2,85.81,39.74,132,41.88,45.49,2.1,90.5-6.2,133-21.71,91.46-33.37,168.08-108.4,261.89-135.61,44.82-13,91.44-15.08,135.38,2.61,44.14,17.76,81.46,56.74,121.4,81.9,41.74,26.3,85,52.46,134.26,59.84,55.13,8.25,109.56-.46,161.72-18.24,96.08-32.74,183.26-101.61,286.09-111.3,113-10.64,221.23,37,331.13,55.12,48.62,8,98.79,13.22,146.95-.6,24.13-6.93,47.24-17.45,69.9-28.09,8.83-4.15,29.7-17.76,47.52-25.15V277.76C10134.53,285.35,10114.14,299.54,10102.36,305.18Zm-75.68-21.25c-47.55,14.05-95.52,5.53-143.05-3.63-108-20.81-214.6-63.22-326.09-43.56-101.11,17.84-185.26,92.33-281.71,124.55C9223.9,378.64,9168,388.9,9113.72,377c-50-10.92-86.71-41.94-128.35-69.26-40.74-26.72-84.51-55.13-132.74-64.86-44.69-9-89.89-2.69-133.37,9.56-96,27.06-176.81,91.5-271.2,122.26-44.15,14.38-91.28,22.2-137.45,13.88-43.45-7.84-82.09-26.67-119.69-48.69-45.57-26.68-90.2-62.2-142.52-73.38-42.26-9-84.93-7.84-127.46-.42-90.56,15.8-176.37,55.19-259.8,87-85.85,32.71-170.24,53.82-259.16,19.3-84.13-32.66-154.27-90.16-244.86-106.79-89.18-16.37-174.46-12-258.83,23.14-80.16,33.37-145.81,95.54-227.6,125-94.11,33.93-152.55,10.23-204.25-59.72-47.25-63.92-77.25-159.63-158.22-189.79-77.09-28.72-155.78,26-208.82,77-52.35,50.34-124.56,146.94-208.49,110.38-39.51-17.21-63-54.82-94.87-81.86-28.24-24-62.66-42.47-100.29-44.12-81.48-3.56-148,63.13-205.4,111.82-64.55,54.77-127,90.16-186.61,24.15-56.41-62.44-68-150.75-107.86-222.49-18.61-33.46-47.12-62.26-87.64-62.71-35.55-.39-69.32,19.15-97.48,38.85-67.2,47-122.77,108.7-188.36,157.83-33.29,24.93-70.23,49.27-111.82,56.78-43.44,7.85-77.3-7.35-108.27-37.36-58.46-56.65-89-147.15-181.51-155.57-43.36-3.94-85.58,9-125.35,24.64-40.25,15.8-80.31,33.51-120.31,50-83.15,34.2-164.66,69.82-252.23,91.66-170.49,42.53-351.34,50.06-525.33,27.24C3233.16,308.88,3085.1,217.68,2919.14,207c-97.33-6.26-176.89,25.51-261.94,68.78-81.52,41.48-170,50.33-260.33,45.67-96.14-5-191.69-19.77-286.68-34.75-91-14.36-183.35-33.71-276-28.37A621.35,621.35,0,0,0,1675,288.71c-43.64,14.45-84.38,32.43-130.13,39.77-100.32,16.1-198.6-5-296.18-27C1149.49,279,1047.49,259,945.85,252.53c-53.15-3.39-106.45.48-158.78,10.25-50.58,9.44-97.94,27.72-147.58,40.48-106.91,27.47-210.56,3.8-313.86-25.69-53-15.14-107.6-29.49-162.92-32C107.09,243.06,52.34,254.39,0,272.43v23.74c50.61-20.72,104.13-33.69,159.14-32.35S267.8,280,320.26,295.69C424,326.81,530.55,354.24,639.07,329.77c47-10.61,92.55-26.76,139.89-36.39,51.85-10.55,104.58-16.31,157.53-14.57,103.44,3.41,207.44,23.05,308.3,45.16,99.28,21.76,199.32,44,301.45,30.13,45.33-6.17,87-22.2,130.41-35.43,47.26-14.4,95.71-25.07,144.81-30.75,95.9-11.11,192.32,6.5,286.87,21.21,94.31,14.68,188.8,30.57,284.16,36.54,89.39,5.6,177.87-.91,260.67-37.31,84.32-37.08,166-73.92,260.13-73,90.72.91,177.74,32.09,262.62,60.94,72.73,24.72,145,44.42,221.47,52.61,176.45,18.89,358.57,8.65,530.19-38,85.87-23.34,166.27-59.73,248.18-93.77,39.47-16.41,79-34.09,118.82-49.69,39.32-15.41,81.31-28,124.16-24.13,90.79,8.28,123.19,98.16,180.27,154.61,30.36,30,64.07,44.59,107,37.58,41.37-6.75,78.16-30.25,111.28-54.78,67.08-49.7,123.81-111.36,192.1-159.47,27.57-19.42,59.71-38.28,94.36-39,43.19-1,72.57,30.51,91.91,65.76,38.29,69.82,50.13,154,104,215.18,26.08,29.65,59.77,45.79,99.29,34.66,36.39-10.25,68.18-36.87,96.91-60.34,57.11-46.65,121.88-112.39,201.88-106.81,39.25,2.74,74.34,23.48,103.08,49.26,30.81,27.63,55,64.57,95.32,79.47C5979.7,390.31,6050,295.23,6102,245.35c54.31-52.13,135.85-107,213.17-70.52,75.5,35.66,103.33,126.65,149.45,189.84,23.53,32.23,53.23,60.48,92.6,71.33,40.48,11.16,83,2.7,121.42-12,78.92-30.26,144.6-86.43,222.59-118.88,83.69-34.82,169.36-36.54,257-17.17A462,462,0,0,1,7278,332.71c41.84,22.46,82.3,41.41,127.31,57.31,88.55,31.29,174.29,1.7,258.05-30.86S7833,292.09,7922.7,279a318,318,0,0,1,132.4,8.47c48.66,13.52,91.34,43.15,135.33,67.08,38,20.66,77.43,40.15,120.63,46.66,46.35,7,93.21-1.29,137.27-16,93.08-31,171.9-95.5,266.23-123.42,44.89-13.29,91.61-19,137.47-7,49.56,13,93.39,42.07,135.85,69.69,39.16,25.47,77.05,56.74,123.7,66,51.81,10.24,104.71,1.37,154.38-14.52,100.75-32.24,189.13-101,295.21-115.56,111.18-15.25,218.35,28.77,326.19,48.47,46.74,8.54,94.27,15.48,140.87,2.18,25.09-7.17,48.9-18.62,72.27-30,14.53-7.1,33.8-20.7,52.31-28.51v-28.1C10110.16,241.63,10071.2,270.77,10026.68,283.93Zm-.06-51.63c-48.16,15.92-95.55,6-143.75-4.23-106-22.55-210.84-61.5-320.23-37.74-104.11,22.62-189.3,106-290.4,137.9-49.2,15.52-103.22,24.23-154,11.4-50-12.62-82.77-43-123.82-71.34-85-58.63-141.52-92.22-276.19-48.16C8623,251.26,8538.65,317.06,8443.38,346c-43.69,13.25-90.28,19.5-135.21,8.62-47.34-11.45-86.75-45.22-126.58-71.67-40.3-26.76-81.68-62.58-130.17-69.85-44.53-6.68-89.82-7.58-133.68,2.37-88.31,20.05-171,77.86-255.59,109.2-44.51,16.49-90.67,31.55-138.45,33.71-43.58,2-84.23-13.82-123.79-31.11-84.69-37-158.48-95.41-252.71-104.75-44.26-4.39-84.95-2.39-129,5-40,6.75-72.69,16.05-122.31,37.48-69.42,30-143.18,97.41-223,130.33-37.27,15.38-79,24.51-118.69,13.32-38.91-11-67-50.05-89.85-82-45.47-63.6-79.53-158-163.79-179.3-77-19.46-153.63,35.79-205.78,86.06-52,50.11-126.19,153-209.14,110.8-38.14-19.39-60.36-62.12-92.63-88.58-31.59-25.89-70.72-43.16-112.15-39.36-76.72,7-138.16,67.12-194.34,113.94-79.92,66.61-127,86.19-183.76,18-53.47-64.19-63-152.32-103.46-223.63-18.62-32.79-48.16-60.87-87.82-61.08-35-.19-66,20.33-94.08,39.51-67,45.76-124.27,109.78-189,158.49-34.57,26-73.23,52.24-116.83,59.24-40.31,6.46-73.57-11.08-102.7-38.1-61.48-57-88.44-150.32-184.64-158.72-43.39-3.79-85.43,11.45-125.22,27.06-40.32,15.82-80.48,32.07-120.65,48.25-83.54,33.66-165,67.48-253.36,86.79-175,38.23-362.94,41.22-539.12,8.31-158.47-29.6-300.27-115.8-460.28-140.41-49.38-7.59-100-10.73-148.6,2.89-41.28,11.57-76.16,34.28-111.71,57.3-81.07,52.5-171.93,65.41-267,61.82-93.54-3.53-187-15.43-279.34-30.35-93.2-15.06-186.36-39.23-281.19-40.63-51.65-.76-103.52,5.94-152.33,23.25-45.32,16.07-85.74,40.14-133.09,51-101.21,23.19-201.07,3-300-20.76-98.23-23.62-199.45-45-300-55.55-54.91-5.75-110.74-4.29-165.12,5.45-48.39,8.67-92.5,27.61-138.67,43.49-53.51,18.4-109.88,24.5-166.24,20.82-52.8-3.45-101.88-17.86-152.83-30.73-53.33-13.46-108.32-26.49-163.25-30.63C110.29,207,54.3,215.29,0,228v23.73c53.46-15.58,109-25.48,164.84-22.09,55.25,3.34,110.28,17.1,163.55,31.56,104.33,28.3,207.15,49.76,313.91,18.5,49.46-14.48,96.18-33.61,147.19-42.7a616.75,616.75,0,0,1,158.9-7.65c103.89,8.57,208,30.2,309.35,53.78,95.18,22.14,191.21,41.07,288.83,22.72,48-9,89.62-30.51,135.46-46,49.25-16.67,101.07-25,153-26.3,93-2.35,184.93,18.91,276.2,33.53,95,15.23,190.93,28.94,287.17,33.2,90.34,4,179.13-5.88,259-51.06,40.78-23.07,79.9-46.61,125.51-59.07,44.44-12.13,90.43-12.77,136-8.2,164.21,16.44,309.58,106,471.88,131.53,173.5,27.32,355.55,22.4,526.81-16.83,92.54-21.19,178.15-57.88,265.68-93.53,36.54-14.87,73.07-29.76,109.77-44.23C4333,143.1,4374.85,128.24,4418.5,131c96.89,6.19,125.86,99,186.85,156.91,29,27.57,62.28,43.39,103,37.17,43.87-6.7,82.71-32.74,117.43-58.85,65.28-49.1,120.28-111.31,187.77-157.51,26.7-18.28,57.91-35.77,91-37.3,44.8-2.07,74.6,28.55,94.53,65.54,37.25,69.12,49.78,153.23,100.79,214.89,23.63,28.57,54,46.75,91.94,38.89,37.8-7.83,70.5-36.41,99.73-60.13,56.09-45.51,117.14-105.81,193.77-109.41,41.64-2,80.33,17.22,111.36,43.71,31.66,27,53.79,66.23,93.49,83.05,80.82,34.25,151.15-55.65,201.5-105,54.58-53.48,136.2-114,217.15-85.25,79.67,28.29,110.76,120.4,156.44,183.19,23.42,32.18,52.35,64.9,91.89,75.33,38.45,10.14,79,1.75,115.3-12.53C6753.33,371.88,6818,306,6898.66,273.32c83.07-33.66,164.78-40.58,253-28a430.72,430.72,0,0,1,123.87,36.88c43.2,20.3,84.15,41.33,128.5,59.17,86.8,34.9,167.75,19.86,252.8-11.86,87-32.43,173.1-76.86,264.69-94.61a345.39,345.39,0,0,1,127.8-.76c50.76,9.22,93.56,44.82,136.78,71.72,38.9,24.21,78.17,47.85,123.77,57.29s92.79,2.23,136.81-11.74c92.87-29.47,173.26-89.69,267.24-117,45.92-13.36,93.44-21.65,141.15-14.13,48.54,7.66,93.54,29.55,134.1,56.66,41.41,27.67,76.59,60,126.64,71.77,54,12.67,110.23,2.42,162-14.83,96.51-32.18,179.75-98.12,280.26-118.28,110.87-22.24,216.78,18.57,324.23,40.21,48,9.66,95.86,19.12,143.91,4.26,44.94-13.9,84.31-40.43,126.59-60.26V171.11C10111.54,193,10070.74,217.72,10026.62,232.3Z"
            />
        </clipPath>
        <clipPath id="clip-path-2"><rect class="cls-1" x="-28.76" y="-380.37" width="10193.92" height="1312.68" /></clipPath>
        <clipPath id="clip-path-3"><rect class="cls-1" x="-33.76" y="-385.37" width="10203.92" height="1322.68" /></clipPath>
        <linearGradient id="linear-gradient" x1="-29.26" y1="275.97" x2="10165.66" y2="275.97" gradientUnits="userSpaceOnUse">
            <stop offset="0" stop-color="#fff" />
            <stop offset="1" />
        </linearGradient>
    </defs>
    <g class="cls-2">
        <g class="cls-3">
            <g class="cls-4">
                
            </g>
        </g>
        <rect class="cls-5" x="-28.76" y="-380.37" width="10193.92" height="1312.68" />
    </g>
</svg>
