<svg xmlns="http://www.w3.org/2000/svg" width="169" height="149" viewBox="0 0 169 149"><g><g clip-path="url(#clip-052302be-8703-4f9d-9569-89e77e30180f)" transform="rotate(-8 1566.36 3176.105)"><path fill="#2d302d" d="M-135.723 100.132c30.49-94.79 67.365-151.04 103.52-179.566C4.17-106.85 40.91-106.12 77.103-61.271 131.808 19.906 185.08 79.374 239.882 105.5c54.337 27.076 109.374 20.782 154.525-8.67 93.138-61.368 136.338-196.235 144.816-299.303 8.18-107.974-4.29-202.216-47.704-335.184l15.528 1.18c41.253 131.582 53.325 221.58 44.84 330.984C543.18-103.177 500.906 37.36 404.918 105.9c-46.407 32.846-103.322 42.168-158.933 17.364-56.057-23.871-109.978-81.566-163.05-161.833-35.408-45.209-71.5-47.66-107.76-21.774-35.988 26.96-73.167 81.817-103.617 175.927-28.584 94.096-57.222 232.872-32.646 430.405 3.906 28.359 9.335 58.285 16.598 88.556l-8.474-.645c-8.311-34.89-14.226-69.386-18.28-101.74-22.176-198.85 6.874-337.068 35.522-432.029zm-21.76-37.495c29.878-96.56 65.3-156.945 101.785-190.403 36.54-32.194 75.412-37.154 114.99 5.714 60.252 80.525 112.952 143.077 164.105 174.08 50.78 31.986 99.315 33.35 140.366 12.576 83.972-43.11 127.11-162.271 134.613-267.68 3.872-57.258 1.362-112.88-9.203-174.635-8.716-50.403-22.862-104.917-44.107-163.476l16.513 1.255c21.571 61.139 35.644 116.987 44.076 168.486 9.649 59.66 11.805 113.517 7.66 170.455-7.832 104.799-51.686 228.99-138.68 277.914-42.433 23.604-93.713 24.865-145.653-5.651-52.443-29.54-104.77-91.391-163.218-172.743-38.216-43.737-76.302-40.875-112.812-10.416C-83.45-80.2-119.472-21.25-149.68 74.715c-28.421 96.508-57.708 233.498-39.573 433.78 4.093 39.007 10.614 81.37 20.659 124.22l-8.39-.638c-10.862-46.783-17.568-93.018-21.595-135.225-16.19-200.604 12.975-336.944 41.097-434.214zm11.084 17.55c30.31-95.684 66.568-154.008 102.916-184.93 36.494-29.741 74.25-31.708 111.939 12.326 57.506 81.49 110.018 142.88 163.004 171.734 52.493 29.808 104.67 27.456 147.762 2.567 88.49-51.682 132.32-178.332 140.328-282.7 4.24-56.835 2.214-109.958-7.068-168.692-8.29-51.766-22.277-107.915-43.866-169.888l16.064 1.22c44.229 133.259 56.823 229.397 48.79 336.686-8.36 103.41-51.82 235.746-143.612 294.1-44.555 28.02-98.753 33.106-152.535 5.133-54.26-27.02-107.283-87.13-162.773-168.525C37.949-115.42.923-115.375-35.496-87.27c-36.22 29.254-72.927 86.124-103.393 181.2-28.633 95.338-57.792 233.259-36.604 432.538 4.087 33.973 10.173 70.357 18.91 107.158l-8.41-.64c-9.67-41.086-16.084-81.71-20.192-119.271C-204.201 313.639-174.91 176.35-146.4 80.188zm31.217 67.343C-85.194 54.755-47.725 2.425-12.103-21.804 23.894-45.05 58.967-39.715 93.55 5.636c50.852 77.219 106.176 130.613 164.474 149.468 57.879 19.783 117.87 4.283 166.145-35.213C524.362 37.29 563.938-113.174 572.89-214.571c8.685-110.724-2.227-192.812-38.359-318.18l-.568-1.678 13.26 1.007c.388 1.263.776 2.528 1.157 3.778 32.942 120.346 42.939 198.719 34.3 309.344-9.024 101.045-46.633 256.04-148.33 346.347-48.95 43.122-110.318 62.25-169.323 45.595-59.416-15.744-115.603-66.266-165.714-141.108C64.802-14.606 30.152-21.29-5.686.682c-35.4 22.899-72.86 73.96-102.382 165.986-27.641 91.36-53.868 231.563-21.586 422.85a809.49 809.49 0 0 0 9.91 46.909l-8.79-.668a848.474 848.474 0 0 1-12.59-62.146c-29.461-193.944-2.164-333.748 25.942-426.083zm-10.177-24.99C-94.974 28.755-57.69-25.52-21.783-51.81c36.209-25.256 72.04-22.076 107.182 23.215 52.469 79.724 106.682 136.542 163.275 159.34 56.146 23.74 113.832 13.04 160.734-21.31 97.108-71.74 138.884-214.723 147.663-316.812 8.568-109.9-3.326-198-43.547-328.607l14.514 1.104.145.422c37.569 127.582 48.846 211.593 40.144 322.368-8.917 101.559-49.215 249.78-148.573 329.077-47.901 37.923-107.24 51.928-164.61 30.9C197.353 127.782 142.373 73.277 91.105-4.8 56.41-50.172 21.13-54.903-14.936-31.056-50.645-6.226-88.081 46.692-118.222 139.79c-28.254 92.747-55.938 232.324-27.652 427.225a864.6 864.6 0 0 0 13.627 68.46l-8.597-.652c-6.79-28.222-11.962-56.122-15.771-82.684-25.664-196.85 2.736-335.901 31.256-429.6zm-43.68-75.1c29.198-97.343 63.59-159.822 100.133-195.945 36.525-34.782 76.57-42.975 118.398-1.67C113.954-71.497 165.574-8.381 215.077 24.042c48.957 33.463 95.112 37.427 133.606 20.28 78.089-35.3 121.055-146.823 127.414-254.586 3.35-57.6.232-115.746-11.782-180.252-8.955-47.68-22.825-98.855-42.928-152.468l16.562 1.259c20.99 57.24 35.099 110.949 43.908 160.686 10.978 62.61 13.65 118.97 9.92 176.274-7.55 106.512-50.105 222.681-132.673 263.655-40.194 19.545-87.905 17.292-138.24-15.175C170.158 12.215 117.529-50.51 56.423-130.654c-40.22-42.425-79.43-36.544-115.983-3.572-36.515 34.27-71.644 95.29-101.34 192.102-27.96 97.568-57.017 233.588-41.612 434.233 3.984 43.49 10.74 91.305 21.93 139.693l-8.402-.638c-11.888-51.959-18.71-103.26-22.57-149.56-13.698-200.56 15.022-335.906 42.516-434.165zm-37.783-31.6c25.879-99.177 56.002-167.602 92.172-212.477 35.954-43.227 79.699-63 130.063-28.787C91.99-159.48 143.993-98.881 189.425-65.794c44.815 34.36 82.682 43.702 114.366 33.767 62.709-19.751 100.797-115.535 102.164-228.86.857-58.644-5.503-123.708-23.166-193.224a781.175 781.175 0 0 0-30.396-94.119l15.689 1.193a813.216 813.216 0 0 1 34.536 110.683c16.167 68.948 21.526 132.63 19.953 191.094C419.702-133.1 380.205-34.509 314.113-12.132 280.93-1 241.303-9.525 195.69-44.179c-46.212-33.424-97.94-95.157-171.65-164.935-48.156-36.226-91.037-19.413-127.208 21.765-36.338 42.748-67.613 109.87-94.424 208.722-25.211 100.12-51.883 232.955-42.67 431.577 3.295 53.635 9.94 114.317 23.51 176.104l-8.537-.649c-13.886-64.162-20.382-127.032-23.493-182.364-8.171-197.609 17.65-329.68 41.96-430.2zm-13.621-5.822c24.405-99.541 52.733-169.742 88.547-217.78 35.544-46.241 80.51-70.56 134.217-39.616C82.91-187.761 135.479-129.33 179.99-97.218c43.89 33.479 79.474 43.468 109.17 34.754 58.214-16.992 94.102-109.575 92.925-224.31.048-76.726-15.067-170.842-51.64-263.123l15.319 1.163a767.61 767.61 0 0 1 28.403 86.58c18.344 69.62 25.195 135.201 24.677 193.892C398.19-154.463 360.72-59.7 299.393-40.925c-31.071 9.507-68.22-.073-112.734-34.243-45.128-32.86-97.285-92.863-175.08-157.015-51.351-33.268-95.467-12.19-131.306 31.946-36.076 45.808-65.688 114.809-91.144 214.128-23.897 100.687-49.315 232.377-41.543 429.478 3.035 55.949 9.467 119.665 23.455 184.758l-8.61-.655c-14.17-67.036-20.41-132.485-23.271-189.752-6.928-195.856 17.517-326.72 40.397-427.702zm39.34 24.553c28.29-98.064 61.452-162.593 97.972-201.504 36.43-37.484 77.689-49.23 122.085-9.854 68.393 75.544 119.913 138.49 167.86 171.749 47.382 34.36 90.587 40.696 126.719 26.552 72.766-28.872 114.466-134.093 119.55-243.78 2.684-58.011-1.233-118.688-14.903-185.54-8.945-43.507-22.064-89.644-40.254-136.962l16.384 1.245c19.609 51.861 33.303 101.713 42.285 148.306 12.49 65.274 15.822 124.193 12.654 181.913C463.23-104.96 420.605 4.535 344.12 37.762 306.337 53.946 261.078 49.21 212.612 15.41c-49.02-32.732-100.586-95.898-166.204-173.74-42.57-40.761-82.968-31.541-119.481 4.056-36.544 36.958-70.59 100.085-99.54 197.648-27.253 98.55-55.78 233.547-42.76 433.989 3.79 47.413 10.63 100.122 22.792 153.529l-8.431-.641c-12.736-56.599-19.551-112.38-23.18-162.224-11.541-200.013 16.45-334.296 43.09-433.456zm76.093 140.689C-75.737 83.562-38.308 33.057-3.005 10.703c35.77-21.46 70.263-14.204 104.83 30.75 49.897 73.658 106.47 122.863 166.34 137.156 59.463 15.237 121.36-5.526 170.53-50.23 102.197-93.66 138.877-250.495 147.92-351.467 8.586-110.561-1.05-187.444-32.703-305.641a2014.84 2014.84 0 0 0-1.281-4.282l11.88.902c.466 1.63.927 3.25 1.382 4.86 28.804 113.466 37.546 187.616 29.08 298.05-4.373 51.307-15.402 115.109-37.87 180.484C534.504 16.589 500.374 83.494 448.72 133.24c-49.466 48.326-112.392 72.968-172.86 61.303-60.856-10.734-118.365-56.477-167.99-127.08C72.96 23.066 38.737 14.692 3.137 35.018c-35.08 21.166-72.331 70.494-100.9 161.408-26.721 89.846-50.935 230.535-14.41 417.016a737.722 737.722 0 0 0 5.366 23.968l-9.101-.691a789.394 789.394 0 0 1-8.644-40.17c-33.537-189.98-7.851-330.4 19.543-421.29zm-88.688-151.23c27.18-98.682 58.912-165.174 95.309-207.031 36.248-40.324 78.747-55.876 126.003-18.88 72.475 71.276 124.12 133.383 170.698 166.859C244.299-.357 284.717 7.762 318.565-3.972c67.58-23.676 107.632-123.666 111.07-235.254 1.858-58.378-3.12-121.402-18.671-189.98-8.608-37.841-20.475-77.385-36.083-117.314l16.076 1.222c17.48 45.21 30.28 89.528 39.166 131.49 14.213 67.444 18.419 128.847 15.966 186.982-4.637 110.255-45.883 213.817-117.07 240.972-35.438 13.355-77.79 6.426-124.726-28.091-47.52-33.395-99.046-96.18-168.656-170.54C-9.588-223.2-51.218-210.32-87.608-171.996c-36.491 39.794-69.244 104.935-97.227 203.205-26.337 99.398-54.056 233.339-43.1 433.086 3.554 50.797 10.345 107.802 23.303 165.682l-8.475-.644c-13.408-60.678-20.102-120.326-23.474-173.172-9.702-199.007 17.309-332.227 42.883-432.13zM139.568 451.1c35.678-25.826 85.759-33.24 148.049-42.302 57.542-6.423 119.077-42.976 170.79-98.16 51.89-54.9 93.918-128.206 120.78-205.937 53.613-155.153 61.055-287.928 68.199-385.362 4.951-94.226 4.412-165.777-2.205-245.316l4.508.342c5.268 77.411 5.299 148.531.834 239.312-6.478 95.862-12.835 221.718-57.423 374.18-22.358 76.35-58.234 152.219-105.11 213.515-46.658 61.54-104.32 108.307-160.99 126.592-65.595 22.767-117.863 38.369-153.786 68.245-36.195 29.496-56.041 73.357-61.605 142.877-.224 4.826-.287 9.813-.224 14.907l-36.817-2.798c-1.98-20.71-2.168-40.236-.84-57.703 8.465-72.952 29.96-116.931 65.84-142.391zm50.975 64.062c35.938-32 89.049-51.797 155.732-81.416 55.873-23.68 111.285-74.841 155.338-138.881 44.281-63.827 77.229-140.354 97.59-215.759 40.598-150.672 46.574-273.39 52.738-368.462 3.987-88.42 4.422-159.967-.208-236.123l4.77.363c3.29 73.28 2.472 143.26-1.032 227.172-5.44 92.906-10.734 207.975-41.948 352.526-15.69 72.21-41.238 148.828-78.285 217.565-36.825 68.869-85.211 129.738-137.814 166.672-66.75 48.592-121.772 79.899-158.191 117.56-28.271 28.64-45.531 61.06-52.374 103.35l-55.59-4.225c4.563-66.125 23.573-109.202 59.274-140.342zM-234.53 6.597c22.78-99.75 49.146-171.613 84.466-222.868 34.998-49.354 81.119-78.568 138.377-51.444 86.36 51.032 137.337 108.399 181.375 138.67 43.088 32.004 76.763 42.438 104.775 34.078 55.438-16.966 86.67-104.116 83.65-221.586-1.547-69.348-16.813-153.458-49.066-234.97l14.935 1.135c35.31 89.119 50.512 180.463 50.935 255.073 2.037 115.075-33.173 206.894-90.137 223.283-29.134 8.44-64.096-1.638-107.752-34.731-44.287-31.7-97.058-89.373-178.814-146.896-54.76-29.844-100.077-4.12-135.471 43.07-35.686 48.994-63.446 119.735-87.38 219.377-22.412 101.07-46.411 231.533-39.804 426.799 2.792 57.745 8.963 123.836 23.178 191.605l-8.663-.66c-14.251-69.252-20.227-136.615-22.866-195.31-5.947-193.8 16.974-323.361 38.262-424.625zm656.716 429.539c50.365-42.793 94.852-107.34 128.073-177.638 33.42-70.211 55.645-146.091 69.375-216.49 27.257-141.067 32.33-252.706 37.37-344.38 3.338-81.703 4.317-150.782 1.619-222.583l5.307.403c1.443 67.031.173 132.555-2.943 209.526-4.367 87.947-9.17 193.458-27.614 322.626-17.945 127.46-59.667 288.816-147.252 405.606-61.316 82.9-115.372 134.826-150.272 184.394-16.955 23.368-29.87 46.696-38.582 70.52l-81.296-6.178c7.905-34.356 23.902-62.985 48.459-90.065 36.219-40.78 91.444-78.141 157.756-135.741zm93.44-42.298C592.2 267.856 623.832 112.178 638.988-10.05c15.165-123.91 19.787-225.301 23.85-311.741 2.916-73.585 4.338-137.575 3.484-202.58l5.987.455c-.475 59.076-2.253 117.922-4.738 182.929-.442 10.29-.893 20.728-1.365 31.328l-29.08 382.626c-10.093 77.104-25.59 160.505-53.19 244.918C547.09 429.318 504.93 513.106 475.83 581.04c-15.652 35.842-27.85 68.108-36.151 97.903l-102.506-7.791c8.493-22.644 20.43-45.572 35.678-69.273 33.909-54.247 86.44-114.861 142.775-208.042zM31.854 529.607c12.667-76.65 36.529-120.99 71.936-142.373 35.276-21.723 82.152-20.602 138.935-14.612 116.163 18.81 253.6-93.251 317.565-250.74 65.417-155.748 74.89-297.385 82.792-396.429 5.594-98.133 4.286-169.796-4.285-251.916l4.466.34c7.2 80.378 7.957 152.039 2.805 247.569-7.396 97.98-15.392 233.538-72.691 389.188-28.71 77.996-73.07 149.876-126.713 201.912-53.49 52.334-116.206 84.59-173.81 86.227-60.678 4.04-109.793 8.539-145.378 32.94-35.76 24.044-58.021 68.103-67.84 142.318-1.98 22.416-1.646 48.405 1.646 76.154l-26.453-2.01c-6.882-44.38-7.046-85.667-2.975-118.568zm-55.468-115.318C-6.657 331.532 25.48 287.756 59.68 270.024c35.093-17.668 72.85-8.598 122.07 17.569 55.39 31.594 119.418 36.093 181.919 8.89 62.297-26.162 121.363-85.622 162.6-156.918C610.525-9.496 625.426-164.3 634.245-265.152c6.673-103.54 3.614-175.085-9.221-262.358l5.085.388c11.266 85.345 13.67 156.92 7.342 258.861-8.582 100.38-21.394 251.247-99.806 403.617-38.567 73.156-94.871 137.075-155.973 169.552-61.25 33.476-125.413 36.765-182.054 13.29-52.746-20.379-91.998-27.69-127.244-9.035-34.34 18.532-65.248 62.292-79.737 143.287-8.666 49.085-10.664 118.057 4.107 192.83l-16.505-1.254c-19.25-90.665-15.154-173.345-3.852-229.737zm-60.078-174.504c26.795-89.347 63.443-136.656 98.116-155.93 35.306-18.578 69.366-8.547 105.792 34.034 49.944 63.562 109.28 101.81 171.654 105.084 62.007 4.24 126.087-28.115 175.347-83.035 51.55-56.7 84.143-128.205 105.494-196.327 21.173-68.174 31.204-133.018 35.45-184.285 8.118-109.998.933-180.58-23.178-286.057-.33-1.291-.664-2.594-1-3.897l9.087.69c.219.91.442 1.826.658 2.73 21.874 101.828 28.245 171.405 20.326 281.075-9.134 100.644-35.915 266.229-136.897 388.479-48.695 58.31-112.92 95.012-175.535 95.226-62.967 1.198-123.295-32.393-173.82-91.444-37.745-41.078-71.94-51.72-107.115-33.847-34.478 18.488-70.62 64.851-96.186 153.302-11.785 44.244-22.492 99.56-24.364 167.068-1.727 60.605 3.739 131.194 21.302 206.906l-10.337-.785c-19.588-85.252-24.711-163.727-21.744-230.053 3.012-68.415 14.556-124.107 26.95-168.934zm11.875 37.383C-46.84 189.142-10.941 143.142 23.47 124.96c35.125-17.602 69.439-6.82 107.862 33.513 50.853 56.943 111.6 88.396 174.766 85.18 62.823-2.225 126.998-40.866 175.352-100.566 100.206-125.195 125.824-290.964 134.95-391.615 7.815-109.477 1.764-178.672-19.21-279.02-.163-.7-.33-1.41-.496-2.114l7.807.594c.045.212.094.428.14.641 18.989 97.342 24.28 166.18 16.687 275.18-9.125 100.622-32.039 265.87-129.825 397.456-47.292 62.803-111.062 106.012-174.213 113.158-63.474 8.16-125.168-17.905-176.93-69.622-40.285-38.163-75.02-49.181-110.046-32.01-34.267 17.664-69.482 62.89-92.95 149.907-10.757 43.334-20.033 97.975-20.071 163.846-.08 51.39 5.518 109.722 19.81 171.26l-11.088-.843c-16.631-71.528-22.19-138.575-20.98-196.555 1.344-67.071 11.648-122.205 23.147-166.182zM.5 469.535c13.37-80.133 43.718-123.916 78.148-142.95 35.334-19.231 75.317-12.913 129.66 4.573 113.036 45.806 259.834-43.054 334.389-198.208 75.668-153.531 87.645-302.541 96.096-402.674 6.163-101.145 4.02-172.687-6.6-257.24l4.658.354c9.174 82.87 10.72 154.537 4.944 253.669-8.09 99.41-18.263 243.359-86.922 398.707-67.328 157.075-208.066 262.07-323.444 234.782-55.103-9.657-101.062-12.766-136.251 8.028-35.305 20.463-59.904 64.943-73.87 142.47-4.956 37.03-5.01 84.885 3.62 136.376l-20.38-1.55C-8.332 578.01-7.055 515.22.5 469.536zm-125.205-92.478c4.452-69.407 16.974-125.524 30.085-171.136C-66.4 115.344-29.245 66.548 5.737 45.85c35.532-19.876 69.672-11.056 104.832 33.016 49.606 69.118 107.528 113.277 168.776 122.38 60.862 10.052 124.153-16.327 173.67-66.214 51.74-51.384 85.59-119.471 107.94-185.523 22.209-66.12 33.012-130.237 37.359-181.542 8.386-110.343-.003-183.438-27.66-294.898-.44-1.594-.885-3.198-1.338-4.813l10.468.795c.381 1.443.76 2.882 1.133 4.308 25.127 107.222 32.654 178.498 24.44 288.643-4.28 51.266-14.546 115.907-36.053 183.497-21.675 67.528-54.686 138.05-106.357 193.163-49.4 53.424-113.31 83.928-175 77.887-62.063-5.091-120.977-45.211-170.754-110.547C81.223 62.908 47.17 53.202 11.803 72.14c-34.757 19.669-71.586 67.42-98.842 157.159C-99.667 274.37-111.53 330.193-115 398.933c-3.51 68.6 1.416 150.273 21.796 239.51l-9.615-.73a729.538 729.538 0 0 1-3.824-16.823c-18.911-91.627-22.55-174.474-18.062-243.834zm66.277-58.621C-35.671 231.895-.773 186.958 33.445 169.47c35.009-17.056 69.979-6.012 111.19 31.036 52.209 49.297 114.286 72.906 177.82 62.517 63.225-9.372 126.684-54.558 173.427-118.654C592.415 10.144 614.19-154.675 623.3-255.297c7.482-108.698 2.492-177.427-15.693-273.536l6.7.51c16.093 91.76 20.457 163.933 13.186 269.969C618.389-156.908 599.19 2.64 506.279 143.315 461.15 210.214 398.605 261.118 335.246 276.47c-63.62 16.372-126.638-.998-179.52-45.824-43.643-34.007-79.35-44.811-114.331-27.818-34.148 17.292-68.19 61.683-89.12 147.053-16.111 67.977-25.212 172.91 2.029 292.174l-12.217-.93c-31.143-134.174-19.07-249.304-.515-322.69zm15.702 45.576c20.082-84.823 53.733-129.011 87.872-146.29 34.987-17.01 71.09-6.507 115.899 26 53.455 41.977 116.773 56.54 180.25 37.77 63.226-17.73 125.143-70.626 169.497-138.646 91.17-142.851 109.334-301.659 118.384-402.99 7.134-105.49 3.078-177.387-12.216-267.978l5.744.437c13.545 88.227 16.888 159.883 10.066 264.08-8.901 101.03-24.751 257.138-111.242 404.477-42.253 70.378-102.29 127.846-164.961 151.429-62.882 24.599-126.751 16.96-181.564-17.895-47.818-28.261-85.017-37.928-120.061-20.513-34.17 17.517-66.772 61.395-84.715 144.816-12.434 59.28-17.593 147.469 3.557 244.826l-13.927-1.058c-25.475-112.77-17.615-212.961-2.583-278.465zm724.893-887.179c-.106 2.59-.217 5.185-.326 7.776l-11.522 151.607c2.127-56.238 3.838-107.97 4.766-159.92zM-450.66 276.303c1.025-79.701 1.287-141.757 7.797-221.726 3.4-38.313 8.46-85.289 18.997-139.763 10.864-54.33 27.163-116.066 61.292-184.576 46.4-89.015 91.936-142.796 122.494-182.276 31.162-39.129 50.226-66.624 59.81-93.527 5.574-14.894 7.7-29.13 7.102-42.608l31.094 2.365c-.066 12.225-2.467 24.813-7.707 37.593-9.871 25.498-30.308 51.573-63.623 87.78-32.746 37.057-81.367 84.198-134.3 173.298-37.417 65.563-55.97 126.77-68.261 181.068-11.984 54.484-17.658 101.976-21.367 140.48-7.126 80.608-7.126 142.929-8.096 223.64-.346 79.937-2.43 178.274.547 305.092.303 15.685.8 31.992 1.506 48.687l-6.38-.485c-.401-12.538-.69-24.855-.862-36.843-2.466-122.636-.532-219.292-.043-298.199zm.963-193.612c3.08-38.09 7.45-84.13 16.126-137.992 8.995-53.79 22.258-115.303 51.08-186.52 37.626-89.148 76.74-147.977 103.81-191.377 27.563-43.214 45.049-73.7 53.689-101.768 6.834-20.988 8.026-39.832 5.272-56.744l32.864 2.497c1.069 14.317-.876 29.65-6.727 45.942-9.295 27.243-27.917 55.61-58.072 96.04-29.581 40.723-73.3 96.158-117.075 185.474-32.6 69.52-47.958 131.316-58.24 185.557-9.95 54.363-14.78 101.077-18.07 139.322-6.291 79.699-6.69 141.756-7.757 221.069-.577 78.509-2.468 174.36-.244 295.176.129 10.38.34 20.996.637 31.778l-5.98-.455c-.11-6.776-.19-13.483-.236-20.104-1.615-116.541.229-210.614 1.05-288.24 1.237-78.438 1.99-140.55 7.873-219.655zm-5.743 26.967c2.88-37.953 6.753-82.881 13.859-135.492 7.382-52.596 17.972-112.778 41.114-184.572 29.043-86.703 60.788-148.782 83.729-195.396 23.285-46.533 38.805-79.996 46.5-109.367 9.048-32.48 7.569-58.571.519-80.342l35.352 2.688c3.808 18.254 3.177 39.011-4.215 62.771-8.354 28.442-25.298 59.844-51.641 104.15-25.898 44.459-62.881 104.474-97.883 193.159-27.138 71.622-39.555 132.853-48.037 186.35-8.171 53.55-12.374 99.27-15.383 137.319-5.745 78.847-6.671 141.117-7.998 219.223-.948 77.298-2.792 170.545-1.46 285.22.023 5.002.063 10.048.122 15.132l-5.596-.424c0-1.23-.001-2.459.002-3.681-.63-110.339 1.273-201.706 2.562-278.324 1.588-77.362 2.945-140.115 8.454-218.414zm12.363 140.486c.973-81.143.888-143.624 8.325-224.48 3.863-38.587 9.84-86.244 22.469-140.628 12.926-54.172 32.456-114.98 71.152-179.067 55.494-88.211 105.498-133.261 139.068-169.024 34.144-34.827 54.962-60.031 65.107-85.2 5.24-12.3 7.74-24.552 7.956-36.56l29.866 2.27c-.32 12.26-3.047 24.526-8.621 36.509-10.77 24.399-32.44 47.645-68.302 79.177-35.303 32.644-88.136 72.6-149.38 158.06-41.33 60.216-63.12 119.702-77.56 173.34-14.175 53.885-20.944 101.843-25.218 140.637-8.286 81.44-8.07 144.517-9.115 226.762-.286 81.576-2.703 182.252.88 314.887a2154.387 2154.387 0 0 0 2.673 65.734l-6.774-.515a2128.9 2128.9 0 0 1-1.83-53.814c-3.175-128.604-1.006-227.687-.696-308.088zm8.332-26.064c1.1-82.735.86-146.064 9.565-227.72 4.475-38.876 11.617-86.897 26.466-140.456 15.093-53.302 37.835-112.07 80.14-170.475 63.598-83.984 117.482-121.713 153.459-152.988 36.526-30.102 58.53-52.512 69.575-76.576 5.872-12.15 8.706-24.753 8.97-37.455l28.599 2.173c.133 14.509-2.952 28.625-9.857 41.723-11.711 23.328-34.45 43.798-72.351 70.501-37.407 28.072-93.375 60.432-162.17 140.452-87.007 108.833-103.64 225.38-115.187 302.63-9.793 82.08-9.591 146.333-10.9 230.216-.418 83.346-3.314 186.282.73 324.514.864 26.094 2.143 53.972 4.118 82.715l-7.2-.547a2167.946 2167.946 0 0 1-3.07-70.863c-3.738-134.36-1.193-235.759-.887-317.845zm-20.211-240.977c13.554-167.132 25.082-308.884 35.12-448.713 3.333-45.802 6.523-92.814 9.824-140.562l5.444.414c-2.021 39.489-3.792 76.96-5.807 111.753-3.492 61.442-7.56 119.317-14.326 190.916-6.661 71.237-15.8 156.529-25.915 256.965-9.177 97.522-15.255 175.644-20.936 252.415-5.601 76.427-10.501 151.028-15.201 225.783-3.69 55.363-6.945 114.657-10.297 175.678l-4.402-.335c3.625-53.29 7.249-106.273 11.215-159.241 11.217-154.777 22.5-302.872 35.28-465.072zM609.806 269.457c8.504-37.71 15.245-74.312 20.727-109.742l-40.331 530.668-102.162-7.765c7.873-38.702 20.733-81.536 37.847-132.326 24.961-74.955 58.2-168.621 83.92-280.835zM-460.27 135.179c6.955-76.758 10.346-171.824 44.107-311.038 44.274-164.173 90.07-247.376 101.608-308.943 12.07-51.965 4.824-86.493-7.32-114.672l36.442 2.77c8.718 23.43 11.594 52.076 1.7 89.485-7.402 29.792-22.243 64.125-44.12 111.442-21.583 47.365-50.995 109.98-77.58 195.436-41.19 142.335-44.11 241.089-51.543 317.83-5.44 78.099-6.997 141.184-8.716 218.273-1.446 76.074-3.39 166.217-3.098 274.137l-5.354-.407c.583-98.741 2.614-183.293 4.412-256.144 2.076-76.54 4.124-140.53 9.462-218.17zm34.666 63.207c1.43-84.392 1.286-149.017 11.596-231.236 11.922-77.328 30.247-193.692 118.699-298.563 70.882-78.084 127.614-108.149 165.57-134.808 38.428-25.232 61.46-44.884 73.465-67.873 7.505-13.706 10.696-28.78 10.252-44.416l26.886 2.045c1.559 19.07-1.79 37.08-11.02 52.51-12.692 22.212-36.38 39.945-75.897 61.749-39.122 23.372-97.328 48.03-172.747 121.147-91.128 95.402-113.502 210.647-126.4 288.11-11.624 82.439-11.72 148.18-13.505 233.779-.768 85.252-4.284 190.345.082 333.947 1.129 31.213 2.815 64.746 5.625 99.363l-7.462-.567c-2.214-30.53-3.612-60.128-4.552-87.775-4.157-139.89-1.09-243.515-.592-327.412zm-45.162 2.452c5.774-76.878 11.693-156.898 22.278-259.415 11.886-108.368 23.088-195.515 30.06-265.465 7.136-70.15 10.56-125.636 12.97-182.167.875-31.156 2.102-64.147 3.664-99.338l8.18.62c.17 25.32.878 48.52 1.85 70.526 1.478 46.474.282 95.395-8.68 164.158-8.53 68.636-25.854 159.362-42.395 283.019-14.373 113.726-20.068 197.634-25.93 274.434-5.503 76.872-9.221 145.987-13.085 221.85-2.99 61.815-5.843 128.046-8.628 199.19l-4.633-.351c3.259-63.676 6.482-124.462 9.834-182.6 4.509-75.668 8.882-147.661 14.515-224.461zm6.41-41.805c6.359-76.74 10.78-166.864 34.979-297.674 29.828-149.219 63.166-239.808 73.57-304.095 11.995-64.24 5.283-103.436-3.493-139.02-1.778-7.022-3.58-13.954-5.338-20.968l28.08 2.135c12.779 31.102 22.14 67.79 9.177 127.152-11.204 62.294-53.397 148.26-93.017 308.498-30.733 137.174-34.406 230.689-41.17 307.466-5.318 77.468-7.587 141.967-9.832 218.326-1.957 71.443-4.053 153.595-4.982 248.47l-5.094-.388c1.67-86.2 3.972-162.742 6.3-230.894 2.69-76.008 5.504-141.888 10.82-219.007zm-3.48 21.977c5.945-76.916 11.444-162.011 27.748-280.352 19.209-130.12 39.737-221.762 48.696-289.263 9.57-67.621 9.335-113.843 5.969-156.897-1.097-19.167-2.388-38.381-3.331-59.055l15.163 1.153c1.896 10.893 3.923 21.418 5.899 32.053 7.824 36.965 11.458 78.676.36 143.646-9.97 65.072-38.817 156.698-65.516 300.663C-454.51.403-459.245 89.118-465.454 165.832c-5.335 77.007-8.392 143.594-11.296 219.513-2.485 66.72-4.897 140.83-6.852 223.429l-4.853-.37c2.558-74.478 5.27-143.068 8.124-206.345 3.619-75.891 7.024-144.067 12.494-221.05zm188.959-169.993c17.284-99.338 36.834-174.681 69.626-236.04 32.34-58.956 81.139-105.45 149.923-93.363 95.889 24.704 149.38 70.71 192.536 93.03 42.159 24.453 71.813 32.496 95.406 23.505 46.04-17.241 68.3-101.573 53.612-216.805-4.957-43.303-17.057-90.906-35.515-137.605l14.273 1.084c21.758 55.11 35.123 111.628 39.53 161.64 11.766 116.243-12.785 200.95-60.697 217.504-24.501 8.527-54.894-.41-97.143-27.003C99.43-227.602 46.605-276.69-47.462-308.013c-66.017-16.112-114.337 25.954-147.461 82.69-33.543 58.995-54.79 133.765-73.417 233.383-17.168 101.11-36.2 227.337-31.628 415.323 2.253 59.997 7.547 129.222 21.252 200.962l-8.836-.671c-13.344-71.746-18.426-140.838-20.601-200.706-4.355-185.978 13.446-311.128 29.275-411.951zm-15.167 6.414c15.33-98.783 32.405-174.692 63.927-239.426 31.057-62.114 80.257-115.274 153.04-109.595 97.994 14.896 152.462 56.017 195.555 74.813 42.126 21.047 70.915 27.457 93.31 17.576 43.587-18.703 62.36-102.77 43.152-215.22-4.971-33.204-14.678-68.469-28.41-103.373l14.07 1.069c17.083 43.298 28.465 87.229 33.272 127.355 16.34 114.396-4.927 198.749-50.175 216.334-23.232 9.226-52.614 1.635-94.761-21.826-43.128-21.297-96.906-65.904-193.498-87.693-69.985-10.247-118.936 38.203-150.914 98.128-32.435 62.382-51.257 137.963-67.956 237.172-15.251 100.669-32.507 225.314-28.22 410.353 2.147 59.723 7.137 128.654 20.298 200.287l-8.861-.674c-12.684-71.12-17.471-139.454-19.56-198.704-4.173-182.863 11.84-306.346 25.73-406.576zm-15.175 8.87c13.383-98.03 27.93-174.127 57.95-242.147 29.542-65.166 78.759-125.437 155.533-126.951 99.442 4.738 154.88 40.513 197.944 55.427 42.142 17.266 70.22 21.71 91.507 10.712 41.364-20.647 56.394-104.465 32.576-212.98-4.541-22.549-11.487-46.152-20.512-69.734l14.308 1.088c12.264 31.69 21.139 63.597 26.135 93.31 20.874 111.21 3.169 195.297-39.698 214.494-22.064 10.207-50.63 4.349-92.761-15.588-43.09-17.647-97.847-57.247-196.348-69.104-73.987-3.62-123.244 51.646-153.865 114.703-31.097 65.727-47.424 141.78-62.168 240.372-13.3 99.989-28.773 222.916-24.626 404.797 2.066 58.955 6.769 126.932 19.222 197.722l-8.873-.674c-11.87-69.761-16.37-136.682-18.394-194.814-4.12-179.544 10.13-301.262 22.07-400.633zm45.385-19.225c19.199-99.69 41.147-174.133 74.98-232.086 33.413-55.75 81.51-96.044 146.342-78.277 93.2 34.086 145.75 84.443 189.049 109.878 42.305 27.458 73.04 36.726 97.94 28.335 48.799-16.38 74.278-101.2 63.879-218.103-4.163-52.683-17.99-112.917-41.144-171.526l14.44 1.098c26.394 66.878 41.01 135.928 44.323 194.844 7.723 117.18-19.878 202.662-70.795 218.852-25.92 8.177-57.56-1.713-100.05-30.98-43.473-27.364-95.42-80.425-186.431-120.747-62.125-21.31-109.595 14.896-143.645 68.397-34.441 55.607-58.006 129.285-78.501 229.086-19.022 101.326-39.79 229.034-34.757 419.725 2.399 59.755 7.994 128.604 22.063 199.729l-8.79-.668C-288.762 553-294.15 483.816-296.443 423.832c-4.69-188.84 14.878-315.572 32.609-416.756zm-60.432 30.498c11.469-97.042 23.513-172.97 51.784-244.108 27.802-68.03 76.542-135.8 157.202-145.368 100.18-5.637 156.528 24.379 199.543 35.108 42.166 13.157 69.637 15.397 89.873 3.078 39.294-22.984 50.326-106.32 22.023-209.781-3.105-12.35-7.014-24.905-11.634-37.49l14.76 1.122c7.67 20.274 13.72 40.536 17.907 60.086 25.407 106.875 11.538 190.63-29.167 211.91-20.976 11.405-48.87 7.587-91.018-8.466-43.061-13.683-98.778-47.795-198.52-49.422-77.953 3.84-127.081 66.307-156.127 132.382-29.52 68.977-43.318 145.103-56.123 242.87-11.36 99.066-25.08 220.208-20.958 398.696 2.01 57.696 6.423 124.063 18.019 193.267l-8.857-.673c-10.923-67.672-15.134-132.536-17.111-189.06-4.158-176.013 8.374-295.872 18.404-394.151zm-91.35 135.755c1.972-86.135 2.216-152.301 14.454-234.781 13.362-77.487 37.488-191.938 129.473-283.221 79.667-72.613 138.082-93.74 176.745-115.468 39.033-19.898 61.765-36.755 74.765-58.565 9.775-16.19 13.527-35.873 11.797-56.942l25.007 1.9c3.61 26.21-.312 50.279-12.342 68.439-13.718 20.989-37.013 35.94-76.851 52.382-39.578 18.385-98.908 34.159-182.54 101.028-93.353 81.642-121.505 193.58-136.056 271.074-13.748 82.424-14.464 149.84-16.947 237.207-1.348 87.23-5.64 194.438-1.081 343.167 1.41 36.19 3.49 75.143 7.243 115.43l-7.777-.591c-3.082-36.35-4.89-71.547-6.103-104.275-4.436-145.19-.702-250.945.214-336.784zM-249.017 5.606c21.039-99.827 45.264-173.08 79.932-227.661 34.296-52.55 81.476-87.061 142.455-64.315 89.997 42.891 141.697 97.044 185.275 125.155 42.6 29.98 74.659 40.07 101.027 31.902 51.915-16.246 80.37-101.926 73.89-219.552-2.972-61.369-17.838-133.987-45.592-204.26l14.683 1.115c30.925 78.258 46.11 159.149 48.048 226.275 4.11 117.245-26.32 203.996-80.638 220.647-27.506 8.238-60.667-2.13-103.59-33.596-43.876-29.678-95.05-86.154-182.546-134.811-58.362-25.875-104.813 4.896-139.618 55.206-35.143 52.262-60.885 124.572-83.16 224.387-20.78 101.304-43.217 230.435-37.51 423.547 2.577 59.004 8.46 126.812 22.699 196.604l-8.725-.663c-14.142-70.8-19.822-139.407-22.27-199.002-5.214-191.455 16.07-319.637 35.64-420.978zm-155.747 143.577c2.735-87.897 3.708-155.796 18.137-238.12 15.104-77.43 44.933-188.048 138.619-265.568 85.174-64.26 144.814-77.755 184.735-94.7 40.14-14.962 63.665-29.095 77.69-49.707 13.117-19.005 17.084-45.272 12.445-74.057l22.779 1.73c7.502 35.595 3.444 67.734-12.406 88.6-14.755 19.733-38.79 31.938-79.546 43.446-40.645 13.565-100.816 21.823-189.224 79.749-93.922 68.06-127.473 175.046-143.951 252.22-16.076 81.917-17.773 151.135-21.177 240.269-2.168 89.229-7.39 198.495-2.751 352.143 1.705 40.993 4.136 85.002 8.915 130.662l-8.051-.612c-4.055-41.938-6.245-82.453-7.743-120.12-4.594-150.26-.04-258.115 1.529-345.935zm65.71-98.004c9.633-95.862 19.25-171.212 45.533-245.236 25.857-70.626 73.49-146.172 157.84-164.726 100.163-16.13 157.32 7.73 200.22 14.058 42.13 8.805 69.055 8.573 88.263-5.143 37.332-25.575 44.178-108.038 11.696-205.408a322.018 322.018 0 0 0-2.396-7.415l15.656 1.19c3.42 9.536 6.406 19.05 8.913 28.47 29.75 101.458 19.945 184.608-18.734 208.315-19.931 12.752-47.241 11.231-89.403-.638C35.539-334.772-21.06-363-121.323-354.209c-81.794 12.165-130.271 82.244-157.512 151.1-27.698 72.049-39.004 147.866-49.915 244.595-9.47 97.883-21.494 217.163-17.308 392.047 1.962 55.937 6.089 120.058 16.704 186.963l-8.811-.67c-9.867-64.882-13.793-127.065-15.725-181.501-4.256-172.264 6.635-290.214 14.835-387.146zm-54.007 75.05c3.723-89.653 5.78-159.377 22.587-241.03 17.1-76.982 52.147-182.202 145.96-246.293 89.637-55.09 149.972-61.137 190.892-73.26 40.98-10.018 65.225-21.406 80.292-40.724 17.114-21.599 21.202-56.584 12.245-95.455l20.646 1.569c12.753 47.244 8.503 89.566-11.71 112.654-15.802 18.378-40.513 27.82-81.945 34.417-41.466 8.724-102.034 9.68-194.194 58.013-93.131 55.08-131.391 155.766-150.002 232.203-18.524 80.883-21.561 151.89-26.103 242.758-3.23 91.187-9.534 202.54-4.907 360.854 2.014 45.512 4.742 94.136 10.598 144.81l-8.285-.628c-5.1-47.21-7.628-92.66-9.425-135.048-4.644-155.088.887-265.017 3.35-354.84zm12.503-21.501c4.924-91.372 8.427-162.826 27.698-243.31 19.273-76.105 58.787-174.705 151.459-226.05 93.089-45.347 153.709-44.165 195.378-51.436 41.59-5.126 66.488-13.755 82.605-31.693 21.608-23.61 25.958-69.395 11.367-120.567l18.796 1.43c19.184 60.98 14.379 115.475-10.596 140.057-16.844 16.927-42.17 23.635-84.073 25.375-42.064 3.9-102.682-2.217-197.606 36.07-91.274 42.916-133.393 136.411-154.241 211.624-20.993 79.35-25.71 151.966-31.6 244.513-4.518 93.091-12.052 206.463-7.507 369.248 2.343 49.683 5.296 102.416 12.25 157.675l-8.473-.644c-6.186-52.103-8.99-102.024-11.103-148.831-4.608-159.71 2.052-271.677 5.646-363.461zm27.109-37.717c7.907-94.521 15.245-168.872 39.33-245.481 23.745-72.894 69.536-156.33 157.237-184.834C-59.72-388.141.54-373.193 43.1-370.922c42.246 4.429 68.313 1.238 86.492-13.75 31.584-25.373 38.073-98.121 9.16-179.793l16.165 1.228c34.502 93.813 26.535 177.346-8.804 202.687-18.901 13.929-45.35 15.323-87.687 7.675-42.72-5.52-102.622-25.021-200.392-7.524-85.4 21.444-132.567 99.349-157.806 170.714-25.641 74.85-34.56 149.965-43.66 245.458-7.671 96.46-18.087 213.845-13.791 384.895 1.917 53.706 5.753 114.966 15.287 178.873l-8.745-.665c-8.734-61.427-12.35-120.333-14.226-172.2-4.387-168.294 4.967-284.295 11.456-379.665zm-13.871 17.905c6.328-93.02 11.607-166.051 33.329-244.822 21.519-74.732 64.622-165.959 155.172-205.401 95.576-35.22 156.154-27.024 198.36-29.485 42.002-.283 67.505-6.173 84.656-22.654 26.468-24.882 31.537-83.364 10.197-148.872l17.356 1.32c26.479 76.527 20.513 144.914-9.544 170.25-17.876 15.44-43.775 19.44-85.968 16.413-42.472-.861-102.853-13.808-199.631 14.16-88.621 31.695-133.692 117.466-156.782 190.984-23.39 77.313-30.088 151.341-37.502 245.433-6.011 94.869-14.921 210.257-10.494 377.283 1.857 50.994 5.38 108.802 13.764 169.067l-8.62-.655c-7.556-57.358-10.86-112.424-12.664-161.267-4.512-164.106 3.425-278.1 8.37-371.754z"/><path fill="none" stroke="#fff" stroke-miterlimit="20" stroke-width="2.17" d="M-135.723 100.132c30.49-94.79 67.365-151.04 103.52-179.566C4.17-106.85 40.91-106.12 77.103-61.271 131.808 19.906 185.08 79.374 239.882 105.5c54.337 27.076 109.374 20.782 154.525-8.67 93.138-61.368 136.338-196.235 144.816-299.303 8.18-107.974-4.29-202.216-47.704-335.184l15.528 1.18c41.253 131.582 53.325 221.58 44.84 330.984C543.18-103.177 500.906 37.36 404.918 105.9c-46.407 32.846-103.322 42.168-158.933 17.364-56.057-23.871-109.978-81.566-163.05-161.833-35.408-45.209-71.5-47.66-107.76-21.774-35.988 26.96-73.167 81.817-103.617 175.927-28.584 94.096-57.222 232.872-32.646 430.405 3.906 28.359 9.335 58.285 16.598 88.556l-8.474-.645c-8.311-34.89-14.226-69.386-18.28-101.74-22.176-198.85 6.874-337.068 35.522-432.029zm-21.76-37.495c29.878-96.56 65.3-156.945 101.785-190.403 36.54-32.194 75.412-37.154 114.99 5.714 60.252 80.525 112.952 143.077 164.105 174.08 50.78 31.986 99.315 33.35 140.366 12.576 83.972-43.11 127.11-162.271 134.613-267.68 3.872-57.258 1.362-112.88-9.203-174.635-8.716-50.403-22.862-104.917-44.107-163.476l16.513 1.255c21.571 61.139 35.644 116.987 44.076 168.486 9.649 59.66 11.805 113.517 7.66 170.455-7.832 104.799-51.686 228.99-138.68 277.914-42.433 23.604-93.713 24.865-145.653-5.651-52.443-29.54-104.77-91.391-163.218-172.743-38.216-43.737-76.302-40.875-112.812-10.416C-83.45-80.2-119.472-21.25-149.68 74.715c-28.421 96.508-57.708 233.498-39.573 433.78 4.093 39.007 10.614 81.37 20.659 124.22l-8.39-.638c-10.862-46.783-17.568-93.018-21.595-135.225-16.19-200.604 12.975-336.944 41.097-434.214zm11.084 17.55c30.31-95.684 66.568-154.008 102.916-184.93 36.494-29.741 74.25-31.708 111.939 12.326 57.506 81.49 110.018 142.88 163.004 171.734 52.493 29.808 104.67 27.456 147.762 2.567 88.49-51.682 132.32-178.332 140.328-282.7 4.24-56.835 2.214-109.958-7.068-168.692-8.29-51.766-22.277-107.915-43.866-169.888l16.064 1.22c44.229 133.259 56.823 229.397 48.79 336.686-8.36 103.41-51.82 235.746-143.612 294.1-44.555 28.02-98.753 33.106-152.535 5.133-54.26-27.02-107.283-87.13-162.773-168.525C37.949-115.42.923-115.375-35.496-87.27c-36.22 29.254-72.927 86.124-103.393 181.2-28.633 95.338-57.792 233.259-36.604 432.538 4.087 33.973 10.173 70.357 18.91 107.158l-8.41-.64c-9.67-41.086-16.084-81.71-20.192-119.271C-204.201 313.639-174.91 176.35-146.4 80.188zm31.217 67.343C-85.194 54.755-47.725 2.425-12.103-21.804 23.894-45.05 58.967-39.715 93.55 5.636c50.852 77.219 106.176 130.613 164.474 149.468 57.879 19.783 117.87 4.283 166.145-35.213C524.362 37.29 563.938-113.174 572.89-214.571c8.685-110.724-2.227-192.812-38.359-318.18l-.568-1.678 13.26 1.007c.388 1.263.776 2.528 1.157 3.778 32.942 120.346 42.939 198.719 34.3 309.344-9.024 101.045-46.633 256.04-148.33 346.347-48.95 43.122-110.318 62.25-169.323 45.595-59.416-15.744-115.603-66.266-165.714-141.108C64.802-14.606 30.152-21.29-5.686.682c-35.4 22.899-72.86 73.96-102.382 165.986-27.641 91.36-53.868 231.563-21.586 422.85a809.49 809.49 0 0 0 9.91 46.909l-8.79-.668a848.474 848.474 0 0 1-12.59-62.146c-29.461-193.944-2.164-333.748 25.942-426.083zm-10.177-24.99C-94.974 28.755-57.69-25.52-21.783-51.81c36.209-25.256 72.04-22.076 107.182 23.215 52.469 79.724 106.682 136.542 163.275 159.34 56.146 23.74 113.832 13.04 160.734-21.31 97.108-71.74 138.884-214.723 147.663-316.812 8.568-109.9-3.326-198-43.547-328.607l14.514 1.104.145.422c37.569 127.582 48.846 211.593 40.144 322.368-8.917 101.559-49.215 249.78-148.573 329.077-47.901 37.923-107.24 51.928-164.61 30.9C197.353 127.782 142.373 73.277 91.105-4.8 56.41-50.172 21.13-54.903-14.936-31.056-50.645-6.226-88.081 46.692-118.222 139.79c-28.254 92.747-55.938 232.324-27.652 427.225a864.6 864.6 0 0 0 13.627 68.46l-8.597-.652c-6.79-28.222-11.962-56.122-15.771-82.684-25.664-196.85 2.736-335.901 31.256-429.6zm-43.68-75.1c29.198-97.343 63.59-159.822 100.133-195.945 36.525-34.782 76.57-42.975 118.398-1.67C113.954-71.497 165.574-8.381 215.077 24.042c48.957 33.463 95.112 37.427 133.606 20.28 78.089-35.3 121.055-146.823 127.414-254.586 3.35-57.6.232-115.746-11.782-180.252-8.955-47.68-22.825-98.855-42.928-152.468l16.562 1.259c20.99 57.24 35.099 110.949 43.908 160.686 10.978 62.61 13.65 118.97 9.92 176.274-7.55 106.512-50.105 222.681-132.673 263.655-40.194 19.545-87.905 17.292-138.24-15.175C170.158 12.215 117.529-50.51 56.423-130.654c-40.22-42.425-79.43-36.544-115.983-3.572-36.515 34.27-71.644 95.29-101.34 192.102-27.96 97.568-57.017 233.588-41.612 434.233 3.984 43.49 10.74 91.305 21.93 139.693l-8.402-.638c-11.888-51.959-18.71-103.26-22.57-149.56-13.698-200.56 15.022-335.906 42.516-434.165zm-37.783-31.6c25.879-99.177 56.002-167.602 92.172-212.477 35.954-43.227 79.699-63 130.063-28.787C91.99-159.48 143.993-98.881 189.425-65.794c44.815 34.36 82.682 43.702 114.366 33.767 62.709-19.751 100.797-115.535 102.164-228.86.857-58.644-5.503-123.708-23.166-193.224a781.175 781.175 0 0 0-30.396-94.119l15.689 1.193a813.216 813.216 0 0 1 34.536 110.683c16.167 68.948 21.526 132.63 19.953 191.094C419.702-133.1 380.205-34.509 314.113-12.132 280.93-1 241.303-9.525 195.69-44.179c-46.212-33.424-97.94-95.157-171.65-164.935-48.156-36.226-91.037-19.413-127.208 21.765-36.338 42.748-67.613 109.87-94.424 208.722-25.211 100.12-51.883 232.955-42.67 431.577 3.295 53.635 9.94 114.317 23.51 176.104l-8.537-.649c-13.886-64.162-20.382-127.032-23.493-182.364-8.171-197.609 17.65-329.68 41.96-430.2zm-13.621-5.822c24.405-99.541 52.733-169.742 88.547-217.78 35.544-46.241 80.51-70.56 134.217-39.616C82.91-187.761 135.479-129.33 179.99-97.218c43.89 33.479 79.474 43.468 109.17 34.754 58.214-16.992 94.102-109.575 92.925-224.31.048-76.726-15.067-170.842-51.64-263.123l15.319 1.163a767.61 767.61 0 0 1 28.403 86.58c18.344 69.62 25.195 135.201 24.677 193.892C398.19-154.463 360.72-59.7 299.393-40.925c-31.071 9.507-68.22-.073-112.734-34.243-45.128-32.86-97.285-92.863-175.08-157.015-51.351-33.268-95.467-12.19-131.306 31.946-36.076 45.808-65.688 114.809-91.144 214.128-23.897 100.687-49.315 232.377-41.543 429.478 3.035 55.949 9.467 119.665 23.455 184.758l-8.61-.655c-14.17-67.036-20.41-132.485-23.271-189.752-6.928-195.856 17.517-326.72 40.397-427.702zm39.34 24.553c28.29-98.064 61.452-162.593 97.972-201.504 36.43-37.484 77.689-49.23 122.085-9.854 68.393 75.544 119.913 138.49 167.86 171.749 47.382 34.36 90.587 40.696 126.719 26.552 72.766-28.872 114.466-134.093 119.55-243.78 2.684-58.011-1.233-118.688-14.903-185.54-8.945-43.507-22.064-89.644-40.254-136.962l16.384 1.245c19.609 51.861 33.303 101.713 42.285 148.306 12.49 65.274 15.822 124.193 12.654 181.913C463.23-104.96 420.605 4.535 344.12 37.762 306.337 53.946 261.078 49.21 212.612 15.41c-49.02-32.732-100.586-95.898-166.204-173.74-42.57-40.761-82.968-31.541-119.481 4.056-36.544 36.958-70.59 100.085-99.54 197.648-27.253 98.55-55.78 233.547-42.76 433.989 3.79 47.413 10.63 100.122 22.792 153.529l-8.431-.641c-12.736-56.599-19.551-112.38-23.18-162.224-11.541-200.013 16.45-334.296 43.09-433.456zm76.093 140.689C-75.737 83.562-38.308 33.057-3.005 10.703c35.77-21.46 70.263-14.204 104.83 30.75 49.897 73.658 106.47 122.863 166.34 137.156 59.463 15.237 121.36-5.526 170.53-50.23 102.197-93.66 138.877-250.495 147.92-351.467 8.586-110.561-1.05-187.444-32.703-305.641a2014.84 2014.84 0 0 0-1.281-4.282l11.88.902c.466 1.63.927 3.25 1.382 4.86 28.804 113.466 37.546 187.616 29.08 298.05-4.373 51.307-15.402 115.109-37.87 180.484C534.504 16.589 500.374 83.494 448.72 133.24c-49.466 48.326-112.392 72.968-172.86 61.303-60.856-10.734-118.365-56.477-167.99-127.08C72.96 23.066 38.737 14.692 3.137 35.018c-35.08 21.166-72.331 70.494-100.9 161.408-26.721 89.846-50.935 230.535-14.41 417.016a737.722 737.722 0 0 0 5.366 23.968l-9.101-.691a789.394 789.394 0 0 1-8.644-40.17c-33.537-189.98-7.851-330.4 19.543-421.29zm-88.688-151.23c27.18-98.682 58.912-165.174 95.309-207.031 36.248-40.324 78.747-55.876 126.003-18.88 72.475 71.276 124.12 133.383 170.698 166.859C244.299-.357 284.717 7.762 318.565-3.972c67.58-23.676 107.632-123.666 111.07-235.254 1.858-58.378-3.12-121.402-18.671-189.98-8.608-37.841-20.475-77.385-36.083-117.314l16.076 1.222c17.48 45.21 30.28 89.528 39.166 131.49 14.213 67.444 18.419 128.847 15.966 186.982-4.637 110.255-45.883 213.817-117.07 240.972-35.438 13.355-77.79 6.426-124.726-28.091-47.52-33.395-99.046-96.18-168.656-170.54C-9.588-223.2-51.218-210.32-87.608-171.996c-36.491 39.794-69.244 104.935-97.227 203.205-26.337 99.398-54.056 233.339-43.1 433.086 3.554 50.797 10.345 107.802 23.303 165.682l-8.475-.644c-13.408-60.678-20.102-120.326-23.474-173.172-9.702-199.007 17.309-332.227 42.883-432.13zM139.568 451.1c35.678-25.826 85.759-33.24 148.049-42.302 57.542-6.423 119.077-42.976 170.79-98.16 51.89-54.9 93.918-128.206 120.78-205.937 53.613-155.153 61.055-287.928 68.199-385.362 4.951-94.226 4.412-165.777-2.205-245.316l4.508.342c5.268 77.411 5.299 148.531.834 239.312-6.478 95.862-12.835 221.718-57.423 374.18-22.358 76.35-58.234 152.219-105.11 213.515-46.658 61.54-104.32 108.307-160.99 126.592-65.595 22.767-117.863 38.369-153.786 68.245-36.195 29.496-56.041 73.357-61.605 142.877-.224 4.826-.287 9.813-.224 14.907l-36.817-2.798c-1.98-20.71-2.168-40.236-.84-57.703 8.465-72.952 29.96-116.931 65.84-142.391zm50.975 64.062c35.938-32 89.049-51.797 155.732-81.416 55.873-23.68 111.285-74.841 155.338-138.881 44.281-63.827 77.229-140.354 97.59-215.759 40.598-150.672 46.574-273.39 52.738-368.462 3.987-88.42 4.422-159.967-.208-236.123l4.77.363c3.29 73.28 2.472 143.26-1.032 227.172-5.44 92.906-10.734 207.975-41.948 352.526-15.69 72.21-41.238 148.828-78.285 217.565-36.825 68.869-85.211 129.738-137.814 166.672-66.75 48.592-121.772 79.899-158.191 117.56-28.271 28.64-45.531 61.06-52.374 103.35l-55.59-4.225c4.563-66.125 23.573-109.202 59.274-140.342zM-234.53 6.597c22.78-99.75 49.146-171.613 84.466-222.868 34.998-49.354 81.119-78.568 138.377-51.444 86.36 51.032 137.337 108.399 181.375 138.67 43.088 32.004 76.763 42.438 104.775 34.078 55.438-16.966 86.67-104.116 83.65-221.586-1.547-69.348-16.813-153.458-49.066-234.97l14.935 1.135c35.31 89.119 50.512 180.463 50.935 255.073 2.037 115.075-33.173 206.894-90.137 223.283-29.134 8.44-64.096-1.638-107.752-34.731-44.287-31.7-97.058-89.373-178.814-146.896-54.76-29.844-100.077-4.12-135.471 43.07-35.686 48.994-63.446 119.735-87.38 219.377-22.412 101.07-46.411 231.533-39.804 426.799 2.792 57.745 8.963 123.836 23.178 191.605l-8.663-.66c-14.251-69.252-20.227-136.615-22.866-195.31-5.947-193.8 16.974-323.361 38.262-424.625zm656.716 429.539c50.365-42.793 94.852-107.34 128.073-177.638 33.42-70.211 55.645-146.091 69.375-216.49 27.257-141.067 32.33-252.706 37.37-344.38 3.338-81.703 4.317-150.782 1.619-222.583l5.307.403c1.443 67.031.173 132.555-2.943 209.526-4.367 87.947-9.17 193.458-27.614 322.626-17.945 127.46-59.667 288.816-147.252 405.606-61.316 82.9-115.372 134.826-150.272 184.394-16.955 23.368-29.87 46.696-38.582 70.52l-81.296-6.178c7.905-34.356 23.902-62.985 48.459-90.065 36.219-40.78 91.444-78.141 157.756-135.741zm93.44-42.298C592.2 267.856 623.832 112.178 638.988-10.05c15.165-123.91 19.787-225.301 23.85-311.741 2.916-73.585 4.338-137.575 3.484-202.58l5.987.455c-.475 59.076-2.253 117.922-4.738 182.929-.442 10.29-.893 20.728-1.365 31.328l-29.08 382.626c-10.093 77.104-25.59 160.505-53.19 244.918C547.09 429.318 504.93 513.106 475.83 581.04c-15.652 35.842-27.85 68.108-36.151 97.903l-102.506-7.791c8.493-22.644 20.43-45.572 35.678-69.273 33.909-54.247 86.44-114.861 142.775-208.042zM31.854 529.607c12.667-76.65 36.529-120.99 71.936-142.373 35.276-21.723 82.152-20.602 138.935-14.612 116.163 18.81 253.6-93.251 317.565-250.74 65.417-155.748 74.89-297.385 82.792-396.429 5.594-98.133 4.286-169.796-4.285-251.916l4.466.34c7.2 80.378 7.957 152.039 2.805 247.569-7.396 97.98-15.392 233.538-72.691 389.188-28.71 77.996-73.07 149.876-126.713 201.912-53.49 52.334-116.206 84.59-173.81 86.227-60.678 4.04-109.793 8.539-145.378 32.94-35.76 24.044-58.021 68.103-67.84 142.318-1.98 22.416-1.646 48.405 1.646 76.154l-26.453-2.01c-6.882-44.38-7.046-85.667-2.975-118.568zm-55.468-115.318C-6.657 331.532 25.48 287.756 59.68 270.024c35.093-17.668 72.85-8.598 122.07 17.569 55.39 31.594 119.418 36.093 181.919 8.89 62.297-26.162 121.363-85.622 162.6-156.918C610.525-9.496 625.426-164.3 634.245-265.152c6.673-103.54 3.614-175.085-9.221-262.358l5.085.388c11.266 85.345 13.67 156.92 7.342 258.861-8.582 100.38-21.394 251.247-99.806 403.617-38.567 73.156-94.871 137.075-155.973 169.552-61.25 33.476-125.413 36.765-182.054 13.29-52.746-20.379-91.998-27.69-127.244-9.035-34.34 18.532-65.248 62.292-79.737 143.287-8.666 49.085-10.664 118.057 4.107 192.83l-16.505-1.254c-19.25-90.665-15.154-173.345-3.852-229.737zm-60.078-174.504c26.795-89.347 63.443-136.656 98.116-155.93 35.306-18.578 69.366-8.547 105.792 34.034 49.944 63.562 109.28 101.81 171.654 105.084 62.007 4.24 126.087-28.115 175.347-83.035 51.55-56.7 84.143-128.205 105.494-196.327 21.173-68.174 31.204-133.018 35.45-184.285 8.118-109.998.933-180.58-23.178-286.057-.33-1.291-.664-2.594-1-3.897l9.087.69c.219.91.442 1.826.658 2.73 21.874 101.828 28.245 171.405 20.326 281.075-9.134 100.644-35.915 266.229-136.897 388.479-48.695 58.31-112.92 95.012-175.535 95.226-62.967 1.198-123.295-32.393-173.82-91.444-37.745-41.078-71.94-51.72-107.115-33.847-34.478 18.488-70.62 64.851-96.186 153.302-11.785 44.244-22.492 99.56-24.364 167.068-1.727 60.605 3.739 131.194 21.302 206.906l-10.337-.785c-19.588-85.252-24.711-163.727-21.744-230.053 3.012-68.415 14.556-124.107 26.95-168.934zm11.875 37.383C-46.84 189.142-10.941 143.142 23.47 124.96c35.125-17.602 69.439-6.82 107.862 33.513 50.853 56.943 111.6 88.396 174.766 85.18 62.823-2.225 126.998-40.866 175.352-100.566 100.206-125.195 125.824-290.964 134.95-391.615 7.815-109.477 1.764-178.672-19.21-279.02-.163-.7-.33-1.41-.496-2.114l7.807.594c.045.212.094.428.14.641 18.989 97.342 24.28 166.18 16.687 275.18-9.125 100.622-32.039 265.87-129.825 397.456-47.292 62.803-111.062 106.012-174.213 113.158-63.474 8.16-125.168-17.905-176.93-69.622-40.285-38.163-75.02-49.181-110.046-32.01-34.267 17.664-69.482 62.89-92.95 149.907-10.757 43.334-20.033 97.975-20.071 163.846-.08 51.39 5.518 109.722 19.81 171.26l-11.088-.843c-16.631-71.528-22.19-138.575-20.98-196.555 1.344-67.071 11.648-122.205 23.147-166.182zM.5 469.535c13.37-80.133 43.718-123.916 78.148-142.95 35.334-19.231 75.317-12.913 129.66 4.573 113.036 45.806 259.834-43.054 334.389-198.208 75.668-153.531 87.645-302.541 96.096-402.674 6.163-101.145 4.02-172.687-6.6-257.24l4.658.354c9.174 82.87 10.72 154.537 4.944 253.669-8.09 99.41-18.263 243.359-86.922 398.707-67.328 157.075-208.066 262.07-323.444 234.782-55.103-9.657-101.062-12.766-136.251 8.028-35.305 20.463-59.904 64.943-73.87 142.47-4.956 37.03-5.01 84.885 3.62 136.376l-20.38-1.55C-8.332 578.01-7.055 515.22.5 469.536zm-125.205-92.478c4.452-69.407 16.974-125.524 30.085-171.136C-66.4 115.344-29.245 66.548 5.737 45.85c35.532-19.876 69.672-11.056 104.832 33.016 49.606 69.118 107.528 113.277 168.776 122.38 60.862 10.052 124.153-16.327 173.67-66.214 51.74-51.384 85.59-119.471 107.94-185.523 22.209-66.12 33.012-130.237 37.359-181.542 8.386-110.343-.003-183.438-27.66-294.898-.44-1.594-.885-3.198-1.338-4.813l10.468.795c.381 1.443.76 2.882 1.133 4.308 25.127 107.222 32.654 178.498 24.44 288.643-4.28 51.266-14.546 115.907-36.053 183.497-21.675 67.528-54.686 138.05-106.357 193.163-49.4 53.424-113.31 83.928-175 77.887-62.063-5.091-120.977-45.211-170.754-110.547C81.223 62.908 47.17 53.202 11.803 72.14c-34.757 19.669-71.586 67.42-98.842 157.159C-99.667 274.37-111.53 330.193-115 398.933c-3.51 68.6 1.416 150.273 21.796 239.51l-9.615-.73a729.538 729.538 0 0 1-3.824-16.823c-18.911-91.627-22.55-174.474-18.062-243.834zm66.277-58.621C-35.671 231.895-.773 186.958 33.445 169.47c35.009-17.056 69.979-6.012 111.19 31.036 52.209 49.297 114.286 72.906 177.82 62.517 63.225-9.372 126.684-54.558 173.427-118.654C592.415 10.144 614.19-154.675 623.3-255.297c7.482-108.698 2.492-177.427-15.693-273.536l6.7.51c16.093 91.76 20.457 163.933 13.186 269.969C618.389-156.908 599.19 2.64 506.279 143.315 461.15 210.214 398.605 261.118 335.246 276.47c-63.62 16.372-126.638-.998-179.52-45.824-43.643-34.007-79.35-44.811-114.331-27.818-34.148 17.292-68.19 61.683-89.12 147.053-16.111 67.977-25.212 172.91 2.029 292.174l-12.217-.93c-31.143-134.174-19.07-249.304-.515-322.69zm15.702 45.576c20.082-84.823 53.733-129.011 87.872-146.29 34.987-17.01 71.09-6.507 115.899 26 53.455 41.977 116.773 56.54 180.25 37.77 63.226-17.73 125.143-70.626 169.497-138.646 91.17-142.851 109.334-301.659 118.384-402.99 7.134-105.49 3.078-177.387-12.216-267.978l5.744.437c13.545 88.227 16.888 159.883 10.066 264.08-8.901 101.03-24.751 257.138-111.242 404.477-42.253 70.378-102.29 127.846-164.961 151.429-62.882 24.599-126.751 16.96-181.564-17.895-47.818-28.261-85.017-37.928-120.061-20.513-34.17 17.517-66.772 61.395-84.715 144.816-12.434 59.28-17.593 147.469 3.557 244.826l-13.927-1.058c-25.475-112.77-17.615-212.961-2.583-278.465zm724.893-887.179c-.106 2.59-.217 5.185-.326 7.776l-11.522 151.607c2.127-56.238 3.838-107.97 4.766-159.92zM-450.66 276.303c1.025-79.701 1.287-141.757 7.797-221.726 3.4-38.313 8.46-85.289 18.997-139.763 10.864-54.33 27.163-116.066 61.292-184.576 46.4-89.015 91.936-142.796 122.494-182.276 31.162-39.129 50.226-66.624 59.81-93.527 5.574-14.894 7.7-29.13 7.102-42.608l31.094 2.365c-.066 12.225-2.467 24.813-7.707 37.593-9.871 25.498-30.308 51.573-63.623 87.78-32.746 37.057-81.367 84.198-134.3 173.298-37.417 65.563-55.97 126.77-68.261 181.068-11.984 54.484-17.658 101.976-21.367 140.48-7.126 80.608-7.126 142.929-8.096 223.64-.346 79.937-2.43 178.274.547 305.092.303 15.685.8 31.992 1.506 48.687l-6.38-.485c-.401-12.538-.69-24.855-.862-36.843-2.466-122.636-.532-219.292-.043-298.199zm.963-193.612c3.08-38.09 7.45-84.13 16.126-137.992 8.995-53.79 22.258-115.303 51.08-186.52 37.626-89.148 76.74-147.977 103.81-191.377 27.563-43.214 45.049-73.7 53.689-101.768 6.834-20.988 8.026-39.832 5.272-56.744l32.864 2.497c1.069 14.317-.876 29.65-6.727 45.942-9.295 27.243-27.917 55.61-58.072 96.04-29.581 40.723-73.3 96.158-117.075 185.474-32.6 69.52-47.958 131.316-58.24 185.557-9.95 54.363-14.78 101.077-18.07 139.322-6.291 79.699-6.69 141.756-7.757 221.069-.577 78.509-2.468 174.36-.244 295.176.129 10.38.34 20.996.637 31.778l-5.98-.455c-.11-6.776-.19-13.483-.236-20.104-1.615-116.541.229-210.614 1.05-288.24 1.237-78.438 1.99-140.55 7.873-219.655zm-5.743 26.967c2.88-37.953 6.753-82.881 13.859-135.492 7.382-52.596 17.972-112.778 41.114-184.572 29.043-86.703 60.788-148.782 83.729-195.396 23.285-46.533 38.805-79.996 46.5-109.367 9.048-32.48 7.569-58.571.519-80.342l35.352 2.688c3.808 18.254 3.177 39.011-4.215 62.771-8.354 28.442-25.298 59.844-51.641 104.15-25.898 44.459-62.881 104.474-97.883 193.159-27.138 71.622-39.555 132.853-48.037 186.35-8.171 53.55-12.374 99.27-15.383 137.319-5.745 78.847-6.671 141.117-7.998 219.223-.948 77.298-2.792 170.545-1.46 285.22.023 5.002.063 10.048.122 15.132l-5.596-.424c0-1.23-.001-2.459.002-3.681-.63-110.339 1.273-201.706 2.562-278.324 1.588-77.362 2.945-140.115 8.454-218.414zm12.363 140.486c.973-81.143.888-143.624 8.325-224.48 3.863-38.587 9.84-86.244 22.469-140.628 12.926-54.172 32.456-114.98 71.152-179.067 55.494-88.211 105.498-133.261 139.068-169.024 34.144-34.827 54.962-60.031 65.107-85.2 5.24-12.3 7.74-24.552 7.956-36.56l29.866 2.27c-.32 12.26-3.047 24.526-8.621 36.509-10.77 24.399-32.44 47.645-68.302 79.177-35.303 32.644-88.136 72.6-149.38 158.06-41.33 60.216-63.12 119.702-77.56 173.34-14.175 53.885-20.944 101.843-25.218 140.637-8.286 81.44-8.07 144.517-9.115 226.762-.286 81.576-2.703 182.252.88 314.887a2154.387 2154.387 0 0 0 2.673 65.734l-6.774-.515a2128.9 2128.9 0 0 1-1.83-53.814c-3.175-128.604-1.006-227.687-.696-308.088zm8.332-26.064c1.1-82.735.86-146.064 9.565-227.72 4.475-38.876 11.617-86.897 26.466-140.456 15.093-53.302 37.835-112.07 80.14-170.475 63.598-83.984 117.482-121.713 153.459-152.988 36.526-30.102 58.53-52.512 69.575-76.576 5.872-12.15 8.706-24.753 8.97-37.455l28.599 2.173c.133 14.509-2.952 28.625-9.857 41.723-11.711 23.328-34.45 43.798-72.351 70.501-37.407 28.072-93.375 60.432-162.17 140.452-87.007 108.833-103.64 225.38-115.187 302.63-9.793 82.08-9.591 146.333-10.9 230.216-.418 83.346-3.314 186.282.73 324.514.864 26.094 2.143 53.972 4.118 82.715l-7.2-.547a2167.946 2167.946 0 0 1-3.07-70.863c-3.738-134.36-1.193-235.759-.887-317.845zm-20.211-240.977c13.554-167.132 25.082-308.884 35.12-448.713 3.333-45.802 6.523-92.814 9.824-140.562l5.444.414c-2.021 39.489-3.792 76.96-5.807 111.753-3.492 61.442-7.56 119.317-14.326 190.916-6.661 71.237-15.8 156.529-25.915 256.965-9.177 97.522-15.255 175.644-20.936 252.415-5.601 76.427-10.501 151.028-15.201 225.783-3.69 55.363-6.945 114.657-10.297 175.678l-4.402-.335c3.625-53.29 7.249-106.273 11.215-159.241 11.217-154.777 22.5-302.872 35.28-465.072zM609.806 269.457c8.504-37.71 15.245-74.312 20.727-109.742l-40.331 530.668-102.162-7.765c7.873-38.702 20.733-81.536 37.847-132.326 24.961-74.955 58.2-168.621 83.92-280.835zM-460.27 135.179c6.955-76.758 10.346-171.824 44.107-311.038 44.274-164.173 90.07-247.376 101.608-308.943 12.07-51.965 4.824-86.493-7.32-114.672l36.442 2.77c8.718 23.43 11.594 52.076 1.7 89.485-7.402 29.792-22.243 64.125-44.12 111.442-21.583 47.365-50.995 109.98-77.58 195.436-41.19 142.335-44.11 241.089-51.543 317.83-5.44 78.099-6.997 141.184-8.716 218.273-1.446 76.074-3.39 166.217-3.098 274.137l-5.354-.407c.583-98.741 2.614-183.293 4.412-256.144 2.076-76.54 4.124-140.53 9.462-218.17zm34.666 63.207c1.43-84.392 1.286-149.017 11.596-231.236 11.922-77.328 30.247-193.692 118.699-298.563 70.882-78.084 127.614-108.149 165.57-134.808 38.428-25.232 61.46-44.884 73.465-67.873 7.505-13.706 10.696-28.78 10.252-44.416l26.886 2.045c1.559 19.07-1.79 37.08-11.02 52.51-12.692 22.212-36.38 39.945-75.897 61.749-39.122 23.372-97.328 48.03-172.747 121.147-91.128 95.402-113.502 210.647-126.4 288.11-11.624 82.439-11.72 148.18-13.505 233.779-.768 85.252-4.284 190.345.082 333.947 1.129 31.213 2.815 64.746 5.625 99.363l-7.462-.567c-2.214-30.53-3.612-60.128-4.552-87.775-4.157-139.89-1.09-243.515-.592-327.412zm-45.162 2.452c5.774-76.878 11.693-156.898 22.278-259.415 11.886-108.368 23.088-195.515 30.06-265.465 7.136-70.15 10.56-125.636 12.97-182.167.875-31.156 2.102-64.147 3.664-99.338l8.18.62c.17 25.32.878 48.52 1.85 70.526 1.478 46.474.282 95.395-8.68 164.158-8.53 68.636-25.854 159.362-42.395 283.019-14.373 113.726-20.068 197.634-25.93 274.434-5.503 76.872-9.221 145.987-13.085 221.85-2.99 61.815-5.843 128.046-8.628 199.19l-4.633-.351c3.259-63.676 6.482-124.462 9.834-182.6 4.509-75.668 8.882-147.661 14.515-224.461zm6.41-41.805c6.359-76.74 10.78-166.864 34.979-297.674 29.828-149.219 63.166-239.808 73.57-304.095 11.995-64.24 5.283-103.436-3.493-139.02-1.778-7.022-3.58-13.954-5.338-20.968l28.08 2.135c12.779 31.102 22.14 67.79 9.177 127.152-11.204 62.294-53.397 148.26-93.017 308.498-30.733 137.174-34.406 230.689-41.17 307.466-5.318 77.468-7.587 141.967-9.832 218.326-1.957 71.443-4.053 153.595-4.982 248.47l-5.094-.388c1.67-86.2 3.972-162.742 6.3-230.894 2.69-76.008 5.504-141.888 10.82-219.007zm-3.48 21.977c5.945-76.916 11.444-162.011 27.748-280.352 19.209-130.12 39.737-221.762 48.696-289.263 9.57-67.621 9.335-113.843 5.969-156.897-1.097-19.167-2.388-38.381-3.331-59.055l15.163 1.153c1.896 10.893 3.923 21.418 5.899 32.053 7.824 36.965 11.458 78.676.36 143.646-9.97 65.072-38.817 156.698-65.516 300.663C-454.51.403-459.245 89.118-465.454 165.832c-5.335 77.007-8.392 143.594-11.296 219.513-2.485 66.72-4.897 140.83-6.852 223.429l-4.853-.37c2.558-74.478 5.27-143.068 8.124-206.345 3.619-75.891 7.024-144.067 12.494-221.05zm188.959-169.993c17.284-99.338 36.834-174.681 69.626-236.04 32.34-58.956 81.139-105.45 149.923-93.363 95.889 24.704 149.38 70.71 192.536 93.03 42.159 24.453 71.813 32.496 95.406 23.505 46.04-17.241 68.3-101.573 53.612-216.805-4.957-43.303-17.057-90.906-35.515-137.605l14.273 1.084c21.758 55.11 35.123 111.628 39.53 161.64 11.766 116.243-12.785 200.95-60.697 217.504-24.501 8.527-54.894-.41-97.143-27.003C99.43-227.602 46.605-276.69-47.462-308.013c-66.017-16.112-114.337 25.954-147.461 82.69-33.543 58.995-54.79 133.765-73.417 233.383-17.168 101.11-36.2 227.337-31.628 415.323 2.253 59.997 7.547 129.222 21.252 200.962l-8.836-.671c-13.344-71.746-18.426-140.838-20.601-200.706-4.355-185.978 13.446-311.128 29.275-411.951zm-15.167 6.414c15.33-98.783 32.405-174.692 63.927-239.426 31.057-62.114 80.257-115.274 153.04-109.595 97.994 14.896 152.462 56.017 195.555 74.813 42.126 21.047 70.915 27.457 93.31 17.576 43.587-18.703 62.36-102.77 43.152-215.22-4.971-33.204-14.678-68.469-28.41-103.373l14.07 1.069c17.083 43.298 28.465 87.229 33.272 127.355 16.34 114.396-4.927 198.749-50.175 216.334-23.232 9.226-52.614 1.635-94.761-21.826-43.128-21.297-96.906-65.904-193.498-87.693-69.985-10.247-118.936 38.203-150.914 98.128-32.435 62.382-51.257 137.963-67.956 237.172-15.251 100.669-32.507 225.314-28.22 410.353 2.147 59.723 7.137 128.654 20.298 200.287l-8.861-.674c-12.684-71.12-17.471-139.454-19.56-198.704-4.173-182.863 11.84-306.346 25.73-406.576zm-15.175 8.87c13.383-98.03 27.93-174.127 57.95-242.147 29.542-65.166 78.759-125.437 155.533-126.951 99.442 4.738 154.88 40.513 197.944 55.427 42.142 17.266 70.22 21.71 91.507 10.712 41.364-20.647 56.394-104.465 32.576-212.98-4.541-22.549-11.487-46.152-20.512-69.734l14.308 1.088c12.264 31.69 21.139 63.597 26.135 93.31 20.874 111.21 3.169 195.297-39.698 214.494-22.064 10.207-50.63 4.349-92.761-15.588-43.09-17.647-97.847-57.247-196.348-69.104-73.987-3.62-123.244 51.646-153.865 114.703-31.097 65.727-47.424 141.78-62.168 240.372-13.3 99.989-28.773 222.916-24.626 404.797 2.066 58.955 6.769 126.932 19.222 197.722l-8.873-.674c-11.87-69.761-16.37-136.682-18.394-194.814-4.12-179.544 10.13-301.262 22.07-400.633zm45.385-19.225c19.199-99.69 41.147-174.133 74.98-232.086 33.413-55.75 81.51-96.044 146.342-78.277 93.2 34.086 145.75 84.443 189.049 109.878 42.305 27.458 73.04 36.726 97.94 28.335 48.799-16.38 74.278-101.2 63.879-218.103-4.163-52.683-17.99-112.917-41.144-171.526l14.44 1.098c26.394 66.878 41.01 135.928 44.323 194.844 7.723 117.18-19.878 202.662-70.795 218.852-25.92 8.177-57.56-1.713-100.05-30.98-43.473-27.364-95.42-80.425-186.431-120.747-62.125-21.31-109.595 14.896-143.645 68.397-34.441 55.607-58.006 129.285-78.501 229.086-19.022 101.326-39.79 229.034-34.757 419.725 2.399 59.755 7.994 128.604 22.063 199.729l-8.79-.668C-288.762 553-294.15 483.816-296.443 423.832c-4.69-188.84 14.878-315.572 32.609-416.756zm-60.432 30.498c11.469-97.042 23.513-172.97 51.784-244.108 27.802-68.03 76.542-135.8 157.202-145.368 100.18-5.637 156.528 24.379 199.543 35.108 42.166 13.157 69.637 15.397 89.873 3.078 39.294-22.984 50.326-106.32 22.023-209.781-3.105-12.35-7.014-24.905-11.634-37.49l14.76 1.122c7.67 20.274 13.72 40.536 17.907 60.086 25.407 106.875 11.538 190.63-29.167 211.91-20.976 11.405-48.87 7.587-91.018-8.466-43.061-13.683-98.778-47.795-198.52-49.422-77.953 3.84-127.081 66.307-156.127 132.382-29.52 68.977-43.318 145.103-56.123 242.87-11.36 99.066-25.08 220.208-20.958 398.696 2.01 57.696 6.423 124.063 18.019 193.267l-8.857-.673c-10.923-67.672-15.134-132.536-17.111-189.06-4.158-176.013 8.374-295.872 18.404-394.151zm-91.35 135.755c1.972-86.135 2.216-152.301 14.454-234.781 13.362-77.487 37.488-191.938 129.473-283.221 79.667-72.613 138.082-93.74 176.745-115.468 39.033-19.898 61.765-36.755 74.765-58.565 9.775-16.19 13.527-35.873 11.797-56.942l25.007 1.9c3.61 26.21-.312 50.279-12.342 68.439-13.718 20.989-37.013 35.94-76.851 52.382-39.578 18.385-98.908 34.159-182.54 101.028-93.353 81.642-121.505 193.58-136.056 271.074-13.748 82.424-14.464 149.84-16.947 237.207-1.348 87.23-5.64 194.438-1.081 343.167 1.41 36.19 3.49 75.143 7.243 115.43l-7.777-.591c-3.082-36.35-4.89-71.547-6.103-104.275-4.436-145.19-.702-250.945.214-336.784zM-249.017 5.606c21.039-99.827 45.264-173.08 79.932-227.661 34.296-52.55 81.476-87.061 142.455-64.315 89.997 42.891 141.697 97.044 185.275 125.155 42.6 29.98 74.659 40.07 101.027 31.902 51.915-16.246 80.37-101.926 73.89-219.552-2.972-61.369-17.838-133.987-45.592-204.26l14.683 1.115c30.925 78.258 46.11 159.149 48.048 226.275 4.11 117.245-26.32 203.996-80.638 220.647-27.506 8.238-60.667-2.13-103.59-33.596-43.876-29.678-95.05-86.154-182.546-134.811-58.362-25.875-104.813 4.896-139.618 55.206-35.143 52.262-60.885 124.572-83.16 224.387-20.78 101.304-43.217 230.435-37.51 423.547 2.577 59.004 8.46 126.812 22.699 196.604l-8.725-.663c-14.142-70.8-19.822-139.407-22.27-199.002-5.214-191.455 16.07-319.637 35.64-420.978zm-155.747 143.577c2.735-87.897 3.708-155.796 18.137-238.12 15.104-77.43 44.933-188.048 138.619-265.568 85.174-64.26 144.814-77.755 184.735-94.7 40.14-14.962 63.665-29.095 77.69-49.707 13.117-19.005 17.084-45.272 12.445-74.057l22.779 1.73c7.502 35.595 3.444 67.734-12.406 88.6-14.755 19.733-38.79 31.938-79.546 43.446-40.645 13.565-100.816 21.823-189.224 79.749-93.922 68.06-127.473 175.046-143.951 252.22-16.076 81.917-17.773 151.135-21.177 240.269-2.168 89.229-7.39 198.495-2.751 352.143 1.705 40.993 4.136 85.002 8.915 130.662l-8.051-.612c-4.055-41.938-6.245-82.453-7.743-120.12-4.594-150.26-.04-258.115 1.529-345.935zm65.71-98.004c9.633-95.862 19.25-171.212 45.533-245.236 25.857-70.626 73.49-146.172 157.84-164.726 100.163-16.13 157.32 7.73 200.22 14.058 42.13 8.805 69.055 8.573 88.263-5.143 37.332-25.575 44.178-108.038 11.696-205.408a322.018 322.018 0 0 0-2.396-7.415l15.656 1.19c3.42 9.536 6.406 19.05 8.913 28.47 29.75 101.458 19.945 184.608-18.734 208.315-19.931 12.752-47.241 11.231-89.403-.638C35.539-334.772-21.06-363-121.323-354.209c-81.794 12.165-130.271 82.244-157.512 151.1-27.698 72.049-39.004 147.866-49.915 244.595-9.47 97.883-21.494 217.163-17.308 392.047 1.962 55.937 6.089 120.058 16.704 186.963l-8.811-.67c-9.867-64.882-13.793-127.065-15.725-181.501-4.256-172.264 6.635-290.214 14.835-387.146zm-54.007 75.05c3.723-89.653 5.78-159.377 22.587-241.03 17.1-76.982 52.147-182.202 145.96-246.293 89.637-55.09 149.972-61.137 190.892-73.26 40.98-10.018 65.225-21.406 80.292-40.724 17.114-21.599 21.202-56.584 12.245-95.455l20.646 1.569c12.753 47.244 8.503 89.566-11.71 112.654-15.802 18.378-40.513 27.82-81.945 34.417-41.466 8.724-102.034 9.68-194.194 58.013-93.131 55.08-131.391 155.766-150.002 232.203-18.524 80.883-21.561 151.89-26.103 242.758-3.23 91.187-9.534 202.54-4.907 360.854 2.014 45.512 4.742 94.136 10.598 144.81l-8.285-.628c-5.1-47.21-7.628-92.66-9.425-135.048-4.644-155.088.887-265.017 3.35-354.84zm12.503-21.501c4.924-91.372 8.427-162.826 27.698-243.31 19.273-76.105 58.787-174.705 151.459-226.05 93.089-45.347 153.709-44.165 195.378-51.436 41.59-5.126 66.488-13.755 82.605-31.693 21.608-23.61 25.958-69.395 11.367-120.567l18.796 1.43c19.184 60.98 14.379 115.475-10.596 140.057-16.844 16.927-42.17 23.635-84.073 25.375-42.064 3.9-102.682-2.217-197.606 36.07-91.274 42.916-133.393 136.411-154.241 211.624-20.993 79.35-25.71 151.966-31.6 244.513-4.518 93.091-12.052 206.463-7.507 369.248 2.343 49.683 5.296 102.416 12.25 157.675l-8.473-.644c-6.186-52.103-8.99-102.024-11.103-148.831-4.608-159.71 2.052-271.677 5.646-363.461zm27.109-37.717c7.907-94.521 15.245-168.872 39.33-245.481 23.745-72.894 69.536-156.33 157.237-184.834C-59.72-388.141.54-373.193 43.1-370.922c42.246 4.429 68.313 1.238 86.492-13.75 31.584-25.373 38.073-98.121 9.16-179.793l16.165 1.228c34.502 93.813 26.535 177.346-8.804 202.687-18.901 13.929-45.35 15.323-87.687 7.675-42.72-5.52-102.622-25.021-200.392-7.524-85.4 21.444-132.567 99.349-157.806 170.714-25.641 74.85-34.56 149.965-43.66 245.458-7.671 96.46-18.087 213.845-13.791 384.895 1.917 53.706 5.753 114.966 15.287 178.873l-8.745-.665c-8.734-61.427-12.35-120.333-14.226-172.2-4.387-168.294 4.967-284.295 11.456-379.665zm-13.871 17.905c6.328-93.02 11.607-166.051 33.329-244.822 21.519-74.732 64.622-165.959 155.172-205.401 95.576-35.22 156.154-27.024 198.36-29.485 42.002-.283 67.505-6.173 84.656-22.654 26.468-24.882 31.537-83.364 10.197-148.872l17.356 1.32c26.479 76.527 20.513 144.914-9.544 170.25-17.876 15.44-43.775 19.44-85.968 16.413-42.472-.861-102.853-13.808-199.631 14.16-88.621 31.695-133.692 117.466-156.782 190.984-23.39 77.313-30.088 151.341-37.502 245.433-6.011 94.869-14.921 210.257-10.494 377.283 1.857 50.994 5.38 108.802 13.764 169.067l-8.62-.655c-7.556-57.358-10.86-112.424-12.664-161.267-4.512-164.106 3.425-278.1 8.37-371.754z"/></g></g></svg>