<svg xmlns="http://www.w3.org/2000/svg" width="296" height="159" viewBox="0 0 296 159"><g><g><g><path fill="#2d302d" d="M291.597 46.285L125.733 29.341l21.564 100.323L292.22 49.249c1.414-.732.967-2.862-.622-2.964z"/><path fill="none" stroke="#fff" stroke-miterlimit="20" stroke-width="5.29" d="M291.597 46.285v0L125.733 29.341v0l21.564 100.323v0L292.22 49.249c1.414-.732.967-2.862-.622-2.964z"/></g><g><path fill="none" stroke="#fff" stroke-miterlimit="20" stroke-width="5.39" d="M.85 32.77v0l28.14 8.18v0L4.006 58.727v0"/></g><g><path fill="none" stroke="#fff" stroke-miterlimit="20" stroke-width="5.39" d="M18.064 120.83v0h27.16v0L28.25 146.293v0"/></g><g><path fill="#2d302d" d="M19.612 2.68a1.422 1.422 0 0 0-1.481 1.718l32.398 150.729a1.422 1.422 0 0 0 2.045.963l106.154-54.998-19.5-90.711z"/><path fill="none" stroke="#fff" stroke-miterlimit="20" stroke-width="5.29" d="M19.612 2.68a1.422 1.422 0 0 0-1.481 1.718l32.398 150.729a1.422 1.422 0 0 0 2.045.963l106.154-54.998v0l-19.5-90.711v0z"/></g><g><path fill="#fff" d="M145.133 133.56l17.152-31.652-21.608 11.14z"/></g><g><path fill="#fff" d="M119.012 32.49l-12.679 2.085-1.793 58.65L92.08 62.273l1.441-25.591-2.012.33-1.253 20.876-7.803-19.386-2.08.342L90 62.614l-1.894 33.313L67.627 40.94l-12.679 2.084 21.625 57.349 13.416-2.206 1.767-31.156 11.717 28.939 13.416-2.207z"/></g></g></g></svg>