<svg xmlns="http://www.w3.org/2000/svg" width="23" height="23" viewBox="0 0 23 23"><g><g><path fill="#2d302d" d="M10.457 6.785a1.09 1.09 0 0 1-.018-1.553l.497-.493a1.08 1.08 0 0 1 1.531 0l5.993 5.998a1.08 1.08 0 0 1 0 1.53l-5.993 5.99a1.08 1.08 0 0 1-1.53 0l-.498-.493a1.085 1.085 0 0 1 .018-1.55l3.41-3.269H5.621c-.601 0-1.084-.483-1.084-1.084v-.722c0-.6.483-1.084 1.084-1.084h8.246l-3.41-3.27zM.562 11.5c0 6.187 5.013 11.2 11.2 11.2 6.188 0 11.2-5.013 11.2-11.2 0-6.187-5.012-11.2-11.2-11.2C5.575.3.563 5.313.563 11.5z"/></g></g></svg>