<svg xmlns="http://www.w3.org/2000/svg" width="235" height="177" viewBox="0 0 235 177"><defs><clipPath id="syoka"><path d="M37.925 88.025c0-47.953 36.072-86.826 80.569-86.826s80.569 38.873 80.569 86.826c0 47.953-36.072 86.827-80.57 86.827-44.496 0-80.568-38.874-80.568-86.827z"/></clipPath></defs><g><g><g transform="rotate(-45 118.5 88)"><path fill="#2d302d" d="M118.494 2.814c47.06 0 85.21 38.15 85.21 85.211 0 47.06-38.15 85.21-85.21 85.21-47.06 0-85.21-38.15-85.21-85.21 0-47.06 38.15-85.21 85.21-85.21z"/><path fill="none" stroke="#fff" stroke-miterlimit="20" stroke-width="5.56" d="M118.494 2.814c47.06 0 85.21 38.15 85.21 85.211 0 47.06-38.15 85.21-85.21 85.21-47.06 0-85.21-38.15-85.21-85.21 0-47.06 38.15-85.21 85.21-85.21z"/></g><g><g><g transform="rotate(-77.748 118.5 88)"/><g clip-path="url(#syoka)"><g><g><path fill="#fff" d="M163.578 61.925l-9.3-7.304a3.384 3.384 0 0 1-.572-4.75l27.449-34.956a3.383 3.383 0 0 1 4.751-.57l9.302 7.303a3.383 3.383 0 0 1 .57 4.75L168.33 61.353a3.38 3.38 0 0 1-4.751.572zm-49.182 63.199a1.143 1.143 0 0 1-.646-1.469l1.561-3.716.015-.124-1.77-2.31c-.041-.005-.084-.011-.106.007l-4.012.519a1.137 1.137 0 0 1-1.251-1.005 7.68 7.68 0 0 1 1.636-5.403l42.884-54.637c.951-1.176 2.66-1.411 3.857-.477l4.639 3.631a2.835 2.835 0 0 1 1.05 2.531l-.12.76-3.538 8.53c-.435 1.074-.725 2.147-.843 3.202-.715 6.219 3.74 12.029 9.932 12.951a11.32 11.32 0 0 0 3.31.016l9.157-1.203.783.103a2.758 2.758 0 0 1 2.152 1.647l2.305 5.422a2.75 2.75 0 0 1-1.46 3.604l-63.891 27.243c-.978.436-2 .638-3.01.638a7.879 7.879 0 0 1-2.634-.46zm106.108 22.025c-5.468-12.446.206-26.986 12.627-32.436l33.642-14.793c4.607-2.012 8.13-5.68 9.945-10.369a18.586 18.586 0 0 0-.312-14.322c-4.141-9.46-15.232-13.777-24.693-9.635l-19.1 8.385 1.151 2.711c.72 1.71-.089 3.7-1.799 4.418l-40.87 17.447a3.367 3.367 0 0 1-4.441-1.782l-4.628-10.867c-.76-1.714.049-3.704 1.781-4.44l40.872-17.447c1.708-.717 3.704.049 4.44 1.781l1.165 2.777 19.078-8.368c10.555-4.647 22.688-1.242 29.435 7.553a25.286 25.286 0 0 1 3.018 5.098c5.45 12.42-.228 27.003-12.65 32.451l-33.659 14.771c-4.607 2.012-8.114 5.702-9.923 10.35-1.833 4.667-1.73 9.776.288 14.342l2.436 5.544-4.806 3.686z"/></g><g><g><path fill="#222421" d="M145.89 103.83l-4.461-4.934 13.94-5.413-7.683-8.498-18.817 9.124 4.636 5.127-13.481 5.9 4.433 4.903-12.493 8.735 1.116 1.548 22.01-6.166-4.722-5.233z"/></g></g></g><g><g><path fill="#fff" d="M-44.697 105.14a25.277 25.277 0 0 1-2.914-5.157C-52.8 87.452-46.82 72.99-34.29 67.8L-.33 53.732C4.318 51.814 7.9 48.2 9.805 43.59c1.929-4.628 1.932-9.739.009-14.344l-2.32-5.594 4.882-3.585 2.853 6.915c5.208 12.556-.765 26.975-13.296 32.166L-32.01 73.24c-4.648 1.917-8.248 5.51-10.16 10.16-1.904 4.61-1.908 9.72.016 14.327 3.945 9.544 14.944 14.088 24.486 10.145l19.272-7.988-1.096-2.733a3.386 3.386 0 0 1 1.89-4.381l41.224-16.594a3.367 3.367 0 0 1 4.405 1.873l4.4 10.96c.724 1.73-.125 3.705-1.874 4.403L9.331 110.007c-1.725.683-3.705-.126-4.404-1.873l-1.106-2.8-19.248 7.971a24.422 24.422 0 0 1-9.394 1.88c-7.75 0-15.207-3.685-19.876-10.045zm121.97 13.79l-4.562-3.728a2.83 2.83 0 0 1-.996-2.55l.137-.757 3.712-8.457c.458-1.064.77-2.133.91-3.183.843-6.203-3.49-12.103-9.66-13.153a11.358 11.358 0 0 0-3.312-.088l-9.179 1.015-.78-.12a2.758 2.758 0 0 1-2.118-1.691l-2.191-5.469a2.749 2.749 0 0 1 1.535-3.573l64.443-25.91c1.866-.787 3.876-.732 5.646-.061.574.235.85.909.614 1.482l-1.637 3.682-.019.124 1.724 2.347c.04.006.082.012.105-.006l4.021-.435a1.137 1.137 0 0 1 1.232 1.03 7.692 7.692 0 0 1-1.748 5.37l-44.008 53.735a2.822 2.822 0 0 1-2.153 1.006 2.705 2.705 0 0 1-1.716-.61zm-30.21 41.546l-9.147-7.494a3.385 3.385 0 0 1-.472-4.763l28.169-34.378a3.384 3.384 0 0 1 4.762-.472l9.147 7.495a3.384 3.384 0 0 1 .472 4.762l-28.17 34.377a3.377 3.377 0 0 1-2.618 1.24 3.37 3.37 0 0 1-2.143-.767z"/></g><g><g><path fill="#222421" d="M88.91 71.795l4.358 5.026-14.05 5.122 7.506 8.656 19.002-8.731-4.529-5.223 13.6-5.619-4.33-4.993 12.672-8.474-1.083-1.57-22.133 5.707 4.612 5.33z"/></g></g></g></g></g></g><g transform="rotate(-23.386 208 81.5)"><path fill="#fff" d="M185.749 90.502a3.383 3.383 0 0 1-3.384-3.383V75.293a3.384 3.384 0 0 1 3.384-3.384h44.444a3.384 3.384 0 0 1 3.384 3.384v11.825a3.384 3.384 0 0 1-3.384 3.384z"/></g><g transform="rotate(-21.13 26.5 93.5)"><path fill="#fff" d="M4.105 102.228A3.384 3.384 0 0 1 .72 98.845V87.019a3.384 3.384 0 0 1 3.384-3.383h44.444a3.384 3.384 0 0 1 3.384 3.383v11.826a3.384 3.384 0 0 1-3.384 3.383z"/></g></g></g></svg>