<svg id="women-owned-logo-white" xmlns="http://www.w3.org/2000/svg" width="99.845" height="41.393" viewBox="0 0 99.845 41.393">
  <path id="Path_38043" data-name="Path 38043" d="M20.6,206.583h2.913l3.146,9.5c.333,1,.682,2.546.682,2.546s.449-1.515.865-2.546L32.3,206.4h.333l4.128,9.687a25.509,25.509,0,0,1,.832,2.546s.366-1.548.716-2.546l3.146-9.5h2.7l-6.175,18.025h-.333L33.216,213.99a22.364,22.364,0,0,1-.732-2.18s-.416,1.315-.782,2.18l-4.544,10.619h-.333Z" transform="translate(-20.6 -205.019)" fill="#fff"/>
  <path id="Path_38044" data-name="Path 38044" d="M284.333,206.4h.283l8.522,9.97,8.455-9.97h.283v18.025h-2.646v-9.271c0-1,.1-2.563.1-2.563a21.537,21.537,0,0,1-1.6,2.147l-4.494,5.409h-.316l-4.494-5.409c-.682-.816-1.581-2.147-1.581-2.147s.1,1.581.1,2.563v9.271H284.3V206.4Z" transform="translate(-240.411 -205.019)" fill="#fff"/>
  <path id="Path_38045" data-name="Path 38045" d="M407.9,207.5h11.334v2.447h-8.555v6.924h7.59v2.4h-7.59v3.645H419.6v2.43H407.9Z" transform="translate(-343.439 -205.936)" fill="#fff"/>
  <path id="Path_38046" data-name="Path 38046" d="M496.661,214.006c-.716-.766-1.681-2-1.681-2a25.266,25.266,0,0,1,.183,2.563v9.836H492.6V206.4h.366l9.836,10.569c.682.732,1.648,2,1.648,2s-.183-1.581-.183-2.563v-9.82h2.563v18.025H506.5Z" transform="translate(-414.042 -205.019)" fill="#fff"/>
  <path id="Path_38047" data-name="Path 38047" d="M28.9,342.654a9.293,9.293,0,0,1,9.5-9.454,9.454,9.454,0,1,1,0,18.907,9.283,9.283,0,0,1-9.5-9.454m16.061,0c0-3.928-2.713-6.874-6.558-6.874a6.881,6.881,0,0,0,0,13.748c3.845.017,6.558-2.946,6.558-6.874" transform="translate(-27.519 -310.714)" fill="#fff"/>
  <path id="Path_38048" data-name="Path 38048" d="M142.1,333.7h3.012l3.246,9.8c.35,1.032.7,2.63.7,2.63s.466-1.565.9-2.63l4.227-10h.35l4.261,10a26.259,26.259,0,0,1,.865,2.63s.383-1.6.732-2.63l3.246-9.8h2.8l-6.358,18.608h-.35l-4.577-10.968a23.48,23.48,0,0,1-.766-2.247s-.433,1.348-.816,2.247l-4.694,10.968h-.35Z" transform="translate(-121.878 -310.964)" fill="#fff"/>
  <path id="Path_38049" data-name="Path 38049" d="M302.294,341.456c-.732-.782-1.731-2.064-1.731-2.064s.183,1.515.183,2.646v10.153H298.1V333.6h.383l10.153,10.918c.7.766,1.714,2.064,1.714,2.064s-.183-1.631-.183-2.646V333.8h2.663v18.608h-.35Z" transform="translate(-251.914 -311.048)" fill="#fff"/>
  <path id="Path_38050" data-name="Path 38050" d="M405,334.7h11.7v2.513h-8.821v7.157H415.7v2.463h-7.823v3.761h9.2v2.53H405Z" transform="translate(-341.022 -311.965)" fill="#fff"/>
  <path id="Path_38051" data-name="Path 38051" d="M492.4,334.7h5.06c5.908,0,9.836,3.678,9.836,9.2s-3.895,9.2-9.836,9.2H492.4Zm4.877,15.895c4.793,0,7.04-2.763,7.04-6.691s-2.247-6.691-7.04-6.691h-2v13.382Z" transform="translate(-413.875 -311.965)" fill="#fff"/>
  <path id="Path_38052" data-name="Path 38052" d="M187.649,221.376a5.517,5.517,0,0,1,1.481.865c.017-.017.033-.05.067-.067a4.629,4.629,0,0,0,.483-.682,3.963,3.963,0,0,0,.416-.982,2.668,2.668,0,0,0,.083-.35l.033-.2q.025-.175.05-.3a5.853,5.853,0,0,0,.017-1.431,8.88,8.88,0,0,0-.333-1.631,1.093,1.093,0,0,0-.117-.25,1.139,1.139,0,0,0-.649-.5,1.079,1.079,0,0,0-.649,0,1.141,1.141,0,0,0-.666.549,1.017,1.017,0,0,0-.083.849,2.01,2.01,0,0,1,.083.3,2.354,2.354,0,0,1,.067.333c.017.083.033.166.05.233s.017.15.033.216a4.194,4.194,0,0,1-.017,1.215,2.94,2.94,0,0,1-.116.449,2.005,2.005,0,0,1-.183.383,2.391,2.391,0,0,1-.3.416,2.691,2.691,0,0,1-.316.3c-.033.017-.05.05-.083.067.1.033.2.083.3.117Z" transform="translate(-159.305 -212.854)" fill="#fff"/>
  <path id="Path_38053" data-name="Path 38053" d="M167.181,226.763a1.381,1.381,0,1,0-1.381-1.381,1.378,1.378,0,0,0,1.381,1.381" transform="translate(-141.633 -219.689)" fill="#fff"/>
  <path id="Path_38054" data-name="Path 38054" d="M174.25,255.861a2.313,2.313,0,0,1,.2.466,1.825,1.825,0,0,1,.1.433c0,.033.017.067.017.1a2.235,2.235,0,0,1,.233-.183l.3-.233a5.083,5.083,0,0,1,1.481-.849c-.017-.033-.017-.05-.033-.083a4.726,4.726,0,0,0-.982-1.631l-.25-.25-.15-.133c-.083-.083-.166-.133-.233-.2a6.875,6.875,0,0,0-1.232-.732,9.258,9.258,0,0,0-1.581-.533,1.008,1.008,0,0,0-.25-.033,1.138,1.138,0,0,0-.782.3,1.169,1.169,0,0,0-.333.549,1.152,1.152,0,0,0,.133.849,1.086,1.086,0,0,0,.7.5c.1.033.2.05.3.083.116.033.216.067.316.1.083.033.15.05.233.083a1.017,1.017,0,0,1,.2.083,4.468,4.468,0,0,1,1.049.616,3.142,3.142,0,0,1,.333.333c.083.133.166.233.233.366" transform="translate(-145.74 -243.029)" fill="#fff"/>
  <path id="Path_38055" data-name="Path 38055" d="M167.661,276.583a1.446,1.446,0,0,0-.682-.183,1.4,1.4,0,0,0-1.2.682,1.374,1.374,0,0,0,.516,1.881,1.446,1.446,0,0,0,.682.183,1.4,1.4,0,0,0,1.2-.682,1.351,1.351,0,0,0,.133-1.049,1.411,1.411,0,0,0-.649-.832" transform="translate(-141.464 -263.368)" fill="#fff"/>
  <path id="Path_38056" data-name="Path 38056" d="M192.7,281.294a1.072,1.072,0,0,0,.782-.35,2.659,2.659,0,0,1,.216-.216c.083-.083.166-.15.25-.233.067-.05.116-.116.183-.166a1.456,1.456,0,0,1,.166-.133,3.651,3.651,0,0,1,1.065-.6,2.565,2.565,0,0,1,.449-.116,2.421,2.421,0,0,1,.915.017,1.737,1.737,0,0,1,.416.133c.033.017.067.017.1.033l-.05-.3-.067-.366a5.371,5.371,0,0,1,0-1.714.722.722,0,0,1-.083-.017,4.553,4.553,0,0,0-.832-.067,4.642,4.642,0,0,0-1.065.117l-.35.1-.2.067c-.116.05-.2.067-.283.1a6.327,6.327,0,0,0-1.248.716,10.543,10.543,0,0,0-1.248,1.1,2.436,2.436,0,0,0-.15.216,1.156,1.156,0,0,0-.117.816,1.023,1.023,0,0,0,.316.549,1.082,1.082,0,0,0,.766.3h.067Z" transform="translate(-163.076 -264.035)" fill="#fff"/>
  <path id="Path_38057" data-name="Path 38057" d="M212.137,302.8a1.4,1.4,0,0,0-.682.183,1.386,1.386,0,0,0,.7,2.58,1.4,1.4,0,0,0,.682-.183,1.386,1.386,0,0,0-.7-2.58" transform="translate(-179.116 -285.374)" fill="#fff"/>
  <path id="Path_38058" data-name="Path 38058" d="M234.435,263.765a5.516,5.516,0,0,1-1.481-.865c-.017.017-.033.05-.05.067a4.628,4.628,0,0,0-.483.682,3.962,3.962,0,0,0-.416.982,2.661,2.661,0,0,0-.083.35l-.033.2c-.033.133-.033.216-.05.3a5.976,5.976,0,0,0-.017,1.448,8.877,8.877,0,0,0,.333,1.631,1.163,1.163,0,0,0,.766.749,1.079,1.079,0,0,0,.649,0,1.094,1.094,0,0,0,.666-.549,1.082,1.082,0,0,0,.083-.849,2.011,2.011,0,0,1-.083-.3c-.033-.117-.05-.216-.083-.333-.017-.083-.033-.166-.05-.233s-.017-.15-.033-.216a4.2,4.2,0,0,1,.017-1.215,2.937,2.937,0,0,1,.117-.449,1.508,1.508,0,0,1,.183-.366,2.394,2.394,0,0,1,.3-.416c.1-.1.2-.2.316-.3.033-.017.05-.05.083-.067-.1-.033-.2-.083-.3-.117Z" transform="translate(-196.637 -252.115)" fill="#fff"/>
  <path id="Path_38059" data-name="Path 38059" d="M257.581,276.9a1.381,1.381,0,1,0,1.381,1.381,1.378,1.378,0,0,0-1.381-1.381" transform="translate(-216.988 -263.785)" fill="#fff"/>
  <path id="Path_38060" data-name="Path 38060" d="M237.443,241.227a1.193,1.193,0,0,0,.766-.3,1.023,1.023,0,0,0,.316-.549,1.152,1.152,0,0,0-.133-.849,1.086,1.086,0,0,0-.7-.5,2.014,2.014,0,0,1-.3-.083c-.117-.033-.216-.067-.316-.1-.083-.033-.15-.05-.233-.083a1.017,1.017,0,0,1-.2-.083,4.469,4.469,0,0,1-1.049-.616,3.138,3.138,0,0,1-.333-.333,2.379,2.379,0,0,1-.233-.333,3.987,3.987,0,0,1-.216-.466,1.823,1.823,0,0,1-.1-.433c0-.033-.017-.067-.017-.1a2.9,2.9,0,0,0-.233.2l-.283.233a5.49,5.49,0,0,1-1.481.849c.017.033.017.05.033.083a4.727,4.727,0,0,0,.982,1.631l.25.25.15.133c.083.083.166.133.233.2a6.483,6.483,0,0,0,1.248.732,9.777,9.777,0,0,0,1.581.533,1.1,1.1,0,0,0,.25.017h.017Z" transform="translate(-197.399 -230.025)" fill="#fff"/>
  <path id="Path_38061" data-name="Path 38061" d="M257.279,227.163a1.415,1.415,0,0,0,1.881-.5,1.376,1.376,0,0,0-.5-1.881,1.446,1.446,0,0,0-.682-.183,1.4,1.4,0,0,0-1.2.682,1.351,1.351,0,0,0-.133,1.049,1.326,1.326,0,0,0,.632.832" transform="translate(-217.318 -220.189)" fill="#fff"/>
  <path id="Path_38062" data-name="Path 38062" d="M212.883,217.9a5.906,5.906,0,0,1,0,1.714c.033,0,.05.017.083.017a4.561,4.561,0,0,0,1.9-.05l.35-.1.2-.067a2.69,2.69,0,0,0,.283-.1,5.888,5.888,0,0,0,1.248-.716,9.226,9.226,0,0,0,1.248-1.1,1.215,1.215,0,0,0,.15-.216,1.156,1.156,0,0,0,.117-.816,1.069,1.069,0,0,0-.316-.566,1.111,1.111,0,0,0-.766-.3,1.155,1.155,0,0,0-.816.35,2.659,2.659,0,0,1-.216.216c-.083.083-.166.15-.25.233-.067.05-.117.117-.183.166-.05.05-.117.083-.166.133a4.624,4.624,0,0,1-1.065.6,2.562,2.562,0,0,1-.449.117,2.426,2.426,0,0,1-.915-.017,1.736,1.736,0,0,1-.416-.133.236.236,0,0,0-.1-.033c.017.117.033.216.05.316Z" transform="translate(-180.811 -212.687)" fill="#fff"/>
  <path id="Path_38063" data-name="Path 38063" d="M213.377,200.663a1.374,1.374,0,0,0-.7-2.563,1.4,1.4,0,0,0-.682.183,1.411,1.411,0,0,0-.649.832,1.361,1.361,0,0,0,.133,1.049,1.415,1.415,0,0,0,1.9.5" transform="translate(-179.557 -198.1)" fill="#fff"/>
  <path id="Path_38064" data-name="Path 38064" d="M589.214,207.417v.433h-.849v2.214h-.533v-2.214H587v-.433Zm2.846,2.646-.1-1.565c-.017-.2-.017-.449-.017-.732h-.033c-.067.233-.15.549-.216.782l-.483,1.465h-.549l-.483-1.515c-.05-.2-.133-.516-.183-.749h-.033c0,.25-.017.5-.017.732l-.1,1.564h-.5l.2-2.646h.782l.449,1.3c.067.2.1.4.183.666h.017c.067-.233.133-.466.183-.649l.449-1.315h.766l.2,2.646h-.516Z" transform="translate(-492.73 -205.852)" fill="#fff"/>
</svg>
