<svg id="Waltz-Logo-R-Primary-Horiz-Black-WEB-FINAL" xmlns="http://www.w3.org/2000/svg" width="288.77" height="44.295" viewBox="0 0 288.77 44.295">
  <path id="Path_30" data-name="Path 30" d="M152.117,43.707h-8.2V.17h8.2Z" transform="translate(-64.905 -0.077)"/>
  <path id="Path_31" data-name="Path 31" d="M184.2,43.12a15.724,15.724,0,0,1-5.326,1.065c-7.038,0-9.745-3.009-9.745-10.146V19.732H163.2V12.227h5.929V4.491L176.651,0V12.227h7.505v7.505h-7.505V32.469c0,3.1,1.345,4.211,3.519,4.211a7.686,7.686,0,0,0,3.986-.994V43.1Z" transform="translate(-73.6)"/>
  <path id="Path_32" data-name="Path 32" d="M44.229,4.89H35.478L27.792,44.123,22.834,21.937l3.8-17.047H25.244l-3.151,13.9-3.1-13.9H17.552L21.4,21.937,16.443,44.123,8.751,4.89H0L8.2,45.836h9.262l4.634-20.753L26.77,45.836h9.262Z" transform="translate(0 -2.205)"/>
  <path id="Path_33" data-name="Path 33" d="M207.432,45.521l23.943-14.588V22.27H206.043v8.016h23.806L205.67,44.967v8.708H231.7V45.521Z" transform="translate(-92.753 -10.043)"/>
  <path id="Path_34" data-name="Path 34" d="M109.667,46.515c-1.389,0-2.081-.549-2.081-2.685V33.273c0-8.29-5.051-12.183-13.852-12.183A18.32,18.32,0,0,0,77.11,30.423l7.176,3.958c1.856-4.167,4.5-6.391,9.262-6.391,4.59,0,6.484,2.224,6.484,5.095h0c0,1.345-1.85,2.317-4.815,3.009-1.576.373-3.382.741-4.864,1.021l-.922.187c-.835.181-5.979,1.57-8.784,3.563a6.758,6.758,0,0,0-2.778,3.294,4.391,4.391,0,0,0-.187.549,8.785,8.785,0,0,0-.275,2.2c0,4.03,2.965,6.9,8.565,6.9h.511c.093,0,.791-.093.878-.093,4.634-.6,9.959-4.26,12.413-12.133-.044,1.345-.137,2.778-.137,4.167,0,5.886,2.591,7.829,6.995,7.829a12.248,12.248,0,0,0,4.771-.785V46.1A3.294,3.294,0,0,1,109.667,46.515ZM85.675,43.089h0c0-3.294,3.569-4.216,8.29-5.188,2.921-.6,4.941-1.246,6.039-2.591V37.4h0c-.878,6.341-3.98,9.723-8.784,9.773H91.17c-3.706-.049-5.49-1.718-5.49-4.079Z" transform="translate(-34.775 -9.511)"/>
  <path id="Path_35" data-name="Path 35" d="M280.923,51.992a3.915,3.915,0,0,1-3.4-1.587,8.054,8.054,0,0,1-1.147-4.738,10.233,10.233,0,0,1,.522-3.519,4.151,4.151,0,0,1,1.57-2.108,4.628,4.628,0,0,1,2.641-.7,4.244,4.244,0,0,1,2.229.549,3.706,3.706,0,0,1,1.449,1.6,5.524,5.524,0,0,1,.5,2.427h-1.68a4.041,4.041,0,0,0-.3-1.647,2.251,2.251,0,0,0-.867-1.049,2.388,2.388,0,0,0-1.334-.368,2.745,2.745,0,0,0-1.7.494,2.948,2.948,0,0,0-.983,1.554,9.592,9.592,0,0,0-.318,2.745,7.286,7.286,0,0,0,.686,3.629,2.317,2.317,0,0,0,2.141,1.136,2.2,2.2,0,0,0,1.817-.785,3.426,3.426,0,0,0,.659-2.229h1.68a5.276,5.276,0,0,1-.516,2.394,3.92,3.92,0,0,1-1.466,1.62,4.052,4.052,0,0,1-2.191.582Z" transform="translate(-124.638 -17.738)"/>
  <path id="Path_36" data-name="Path 36" d="M313.6,46.6v-.264a6.122,6.122,0,0,0,1.955-.318,2.745,2.745,0,0,0,1.384-1.032,3.074,3.074,0,0,0,.494-1.8,3.541,3.541,0,0,0-.467-1.9,2.745,2.745,0,0,0-1.362-1.1,5.792,5.792,0,0,0-2.141-.351h-4.14V51.972h1.647V46.515h.862l3.525,5.446h2.081l-3.4-5.117Zm-2.635-5.216h2.707a2.372,2.372,0,0,1,1.543.45,1.647,1.647,0,0,1,.549,1.367,1.713,1.713,0,0,1-.549,1.373,2.383,2.383,0,0,1-1.57.467h-2.69Z" transform="translate(-139.496 -17.965)"/>
  <path id="Path_37" data-name="Path 37" d="M341.49,51.953V39.82H348.7v1.559h-5.584v3.728h5.408V46.65h-5.408v3.744H348.7v1.559Z" transform="translate(-154.004 -17.958)"/>
  <path id="Path_38" data-name="Path 38" d="M378.6,51.953h1.768L376.744,39.82h-2.58L370.54,51.953h1.768l1.23-4.3h3.843ZM373.971,46.1l1.246-4.392.1-.906h.264l.1.906,1.246,4.392Z" transform="translate(-167.105 -17.958)"/>
  <path id="Path_39" data-name="Path 39" d="M412.071,39.81H402.43v1.565h4V51.949h1.631V41.375h4.008Z" transform="translate(-181.487 -17.953)"/>
  <path id="Path_40" data-name="Path 40" d="M435.74,51.953V50.477h3.14V41.291h-3.14V39.82h7.906v1.471h-3.135v9.185h3.135v1.477Z" transform="translate(-196.509 -17.958)"/>
  <path id="Path_41" data-name="Path 41" d="M469.5,51.953,466.05,39.82h1.735l2.789,10.261.088.9h.264l.082-.9,2.778-10.261h1.746l-3.47,12.133Z" transform="translate(-210.178 -17.958)"/>
  <path id="Path_42" data-name="Path 42" d="M500.15,51.953V39.82h7.214v1.559h-5.584v3.728H507.2V46.65H501.8v3.744h5.584v1.559Z" transform="translate(-225.556 -17.958)"/>
  <path id="Path_43" data-name="Path 43" d="M518.581,43.69a2.147,2.147,0,0,1-.829-.851,2.574,2.574,0,0,1-.3-1.263h0a2.58,2.58,0,0,1,.3-1.268,2.075,2.075,0,0,1,.835-.851,2.5,2.5,0,0,1,2.4,0,2.075,2.075,0,0,1,.835.851,2.581,2.581,0,0,1,.3,1.268h0a2.574,2.574,0,0,1-.3,1.263,2.147,2.147,0,0,1-.835.851,2.5,2.5,0,0,1-2.4,0Zm2.2-.324a1.784,1.784,0,0,0,.692-.719,2.2,2.2,0,0,0,.253-1.1h0a2.2,2.2,0,0,0-.253-1.1,1.763,1.763,0,0,0-.692-.725,2.042,2.042,0,0,0-1.987,0,1.763,1.763,0,0,0-.692.725,2.2,2.2,0,0,0-.253,1.1h0a2.2,2.2,0,0,0,.253,1.1,1.785,1.785,0,0,0,.692.719A2.042,2.042,0,0,0,520.777,43.366Zm-1.79-.686v-2.2h.961a.829.829,0,0,1,.549.17.577.577,0,0,1,.209.467.549.549,0,0,1-.176.439.994.994,0,0,1-.549.2v.055l.1.038.626.835h-.549l-.565-.873H519.4v.895Zm.906-1.268q.362,0,.362-.28a.236.236,0,0,0-.077-.192.34.34,0,0,0-.22-.066h-.549v.549Z" transform="translate(-233.358 -17.656)"/>
</svg>
