<svg id="Waltz-Logo-R-Primary-Stacked-White-FINAL" xmlns="http://www.w3.org/2000/svg" width="230" height="108.466" viewBox="0 0 230 108.466">
  <path id="Path_1" data-name="Path 1" d="M156.9,69.1H143.92V.17H156.9Z" transform="translate(-18.82 -0.022)" fill="#fff"/>
  <path id="Path_2" data-name="Path 2" d="M196.448,68.27a25.208,25.208,0,0,1-8.432,1.686c-11.144,0-15.429-4.763-15.429-16.063V31.24H163.2V19.358h9.388V7.11L184.5,0V19.358H196.37V31.24H184.5V51.406c0,4.911,2.121,6.667,5.572,6.667a12.169,12.169,0,0,0,6.3-1.573V68.235Z" transform="translate(-21.341)" fill="#fff"/>
  <path id="Path_3" data-name="Path 3" d="M70.025,4.89H56.17L44,67,36.151,31.88,42.166,4.89h-2.2l-4.989,22-4.911-22H27.789l6.085,26.99L26.034,67,13.856,4.89H0L12.978,69.717H27.642L34.978,36.86l7.406,32.857H57.048Z" transform="translate(0 -0.639)" fill="#fff"/>
  <path id="Path_4" data-name="Path 4" d="M208.452,59.082l37.916-23.1V22.27H206.252V34.961h37.69L205.67,58.2V71.99h41.21V59.082Z" transform="translate(-26.895 -2.912)" fill="#fff"/>
  <path id="Path_5" data-name="Path 5" d="M128.654,61.344c-2.2,0-3.3-.869-3.3-4.251V40.378c0-13.125-7.988-19.288-21.922-19.288-12.247,0-20.862,5.65-26.329,14.777l11.37,6.267c2.929-6.6,7.11-10.118,14.664-10.118,7.258,0,10.266,3.52,10.266,8.066h0c0,2.13-2.929,3.668-7.623,4.763-2.495.591-5.354,1.173-7.7,1.617l-1.469.3c-1.339.33-9.457,2.486-13.856,5.641a10.666,10.666,0,0,0-4.4,5.215,5.486,5.486,0,0,0-.3.869,13.56,13.56,0,0,0-.443,3.477c0,6.38,4.694,10.926,13.569,10.926h.808c.148,0,1.243-.148,1.391-.148,7.336-.947,15.768-6.745,19.653-19.21-.07,2.13-.217,4.4-.217,6.6,0,9.318,4.1,12.4,11.065,12.4,3.008,0,6.241-.513,7.554-1.243v-10.6A5.085,5.085,0,0,1,128.654,61.344ZM90.669,55.92h0c0-5.215,5.65-6.676,13.125-8.214,4.624-.947,7.771-1.982,9.562-4.1V46.9h0c-1.391,10.048-6.3,15.4-13.908,15.472h-.07c-5.867-.07-8.692-2.712-8.692-6.45Z" transform="translate(-10.082 -2.758)" fill="#fff"/>
  <path id="Path_6" data-name="Path 6" d="M22.257,121.755a6.2,6.2,0,0,1-5.381-2.512q-1.808-2.5-1.817-7.5a16.2,16.2,0,0,1,.869-5.572,6.658,6.658,0,0,1,2.443-3.338,7.328,7.328,0,0,1,4.155-1.113,6.806,6.806,0,0,1,3.529.869,5.867,5.867,0,0,1,2.295,2.538,8.744,8.744,0,0,1,.791,3.842h-2.66a6.4,6.4,0,0,0-.469-2.608,3.564,3.564,0,0,0-1.373-1.66,3.842,3.842,0,0,0-2.112-.574,4.346,4.346,0,0,0-2.686.782,4.607,4.607,0,0,0-1.556,2.451,15.22,15.22,0,0,0-.5,4.346q0,3.955,1.087,5.746a3.668,3.668,0,0,0,3.39,1.8,3.477,3.477,0,0,0,2.877-1.278,5.424,5.424,0,0,0,1.043-3.529h2.66a8.353,8.353,0,0,1-.817,3.79A6.206,6.206,0,0,1,25.7,120.8,6.415,6.415,0,0,1,22.257,121.755Z" transform="translate(-1.969 -13.301)" fill="#fff"/>
  <path id="Path_7" data-name="Path 7" d="M54.771,112.93v-.417a9.631,9.631,0,0,0,3.086-.5,4.346,4.346,0,0,0,2.2-1.625,4.911,4.911,0,0,0,.782-2.86,5.554,5.554,0,0,0-.739-3,4.4,4.4,0,0,0-2.156-1.738,9.232,9.232,0,0,0-3.39-.556H48v19.21h2.608v-8.623h1.365l5.589,8.6h3.294l-5.4-8.084Zm-4.164-8.292h4.285a3.764,3.764,0,0,1,2.443.713,2.608,2.608,0,0,1,.869,2.164,2.686,2.686,0,0,1-.869,2.173,3.686,3.686,0,0,1-2.477.739H50.608Z" transform="translate(-6.277 -13.368)" fill="#fff"/>
  <path id="Path_8" data-name="Path 8" d="M80.16,121.41V102.2H91.582v2.434h-8.84v5.9h8.579v2.443H82.742v5.928h8.84v2.469Z" transform="translate(-10.482 -13.364)" fill="#fff"/>
  <path id="Path_9" data-name="Path 9" d="M121.97,121.41h2.8l-5.737-19.21h-4.085l-5.737,19.21h2.8l1.93-6.806h6.085Zm-7.328-9.275,1.973-6.954.165-1.426h.417l.165,1.426,1.973,6.954Z" transform="translate(-14.281 -13.364)" fill="#fff"/>
  <path id="Path_10" data-name="Path 10" d="M156.355,102.2H141.1v2.469h6.337V121.41h2.582V104.669h6.337Z" transform="translate(-18.451 -13.364)" fill="#fff"/>
  <path id="Path_11" data-name="Path 11" d="M174.41,121.41v-2.338h4.963V104.53H174.41V102.2h12.508v2.33h-4.963v14.542h4.963v2.338Z" transform="translate(-22.807 -13.364)" fill="#fff"/>
  <path id="Path_12" data-name="Path 12" d="M210.177,121.41,204.71,102.2h2.747l4.459,16.246.139,1.426h.417l.13-1.426,4.346-16.246h2.79l-5.459,19.21Z" transform="translate(-26.769 -13.364)" fill="#fff"/>
  <path id="Path_13" data-name="Path 13" d="M238.81,121.41V102.2h11.413v2.434h-8.831v5.9h8.562v2.443h-8.562v5.928h8.831v2.469Z" transform="translate(-31.228 -13.364)" fill="#fff"/>
  <path id="Path_14" data-name="Path 14" d="M257.879,109.019a3.477,3.477,0,0,1-1.321-1.356,4.05,4.05,0,0,1-.478-2h0a4.077,4.077,0,0,1,.478-2,3.364,3.364,0,0,1,1.321-1.356,4.033,4.033,0,0,1,3.807,0,3.364,3.364,0,0,1,1.321,1.356,4.077,4.077,0,0,1,.478,2h0a4.051,4.051,0,0,1-.478,2,3.477,3.477,0,0,1-1.321,1.356A4.033,4.033,0,0,1,257.879,109.019Zm3.477-.522a2.825,2.825,0,0,0,1.1-1.139,3.477,3.477,0,0,0,.4-1.738h0a3.477,3.477,0,0,0-.4-1.738,2.842,2.842,0,0,0-1.1-1.147,3.234,3.234,0,0,0-3.147,0,2.842,2.842,0,0,0-1.1,1.147,3.477,3.477,0,0,0-.4,1.738h0a3.477,3.477,0,0,0,.4,1.738,2.825,2.825,0,0,0,1.1,1.139,3.234,3.234,0,0,0,3.147,0Zm-2.834-1.087v-3.477h1.539a1.313,1.313,0,0,1,.869.278,1,1,0,0,1,.052,1.434,1.573,1.573,0,0,1-.869.313v.1l.156.061.991,1.321h-.869l-.956-1.417h-.278v1.417Zm1.434-2.008c.382,0,.582-.148.582-.443a.365.365,0,0,0-.13-.3.5.5,0,0,0-.348-.113h-.869v.869Z" transform="translate(-33.487 -13.316)" fill="#fff"/>
</svg>
