<?xml version="1.0" encoding="utf-8"?>
<!-- Generator: Adobe Illustrator 25.0.0, SVG Export Plug-In . SVG Version: 6.00 Build 0)  -->
<svg version="1.1" id="Layer_1" xmlns="http://www.w3.org/2000/svg" xmlns:xlink="http://www.w3.org/1999/xlink" x="0px" y="0px"
	 viewBox="0 0 270 124.77" style="enable-background:new 0 0 270 124.77;" xml:space="preserve">
<style type="text/css">
	.st0{fill:#FFFFFF;}
</style>
<g>
	<g>
		<path class="st0" d="M158.85,79.47h-14.93V0.17h14.93V79.47z"/>
		<path class="st0" d="M201.45,78.54c-2.87,1.1-6.5,1.94-9.7,1.94c-12.82,0-17.8-5.48-17.8-18.47V35.94h-10.8V22.27h10.8V8.18
			L187.7,0v22.27h13.67v13.67H187.7v23.2c0,5.65,2.45,7.68,6.41,7.68c2.87,0,4.89-0.51,7.25-1.77v13.5H201.45z"/>
		<polygon class="st0" points="80.56,4.89 64.62,4.89 50.62,76.34 41.59,35.94 48.51,4.89 45.98,4.89 40.24,30.2 34.59,4.89 
			31.97,4.89 38.97,35.94 29.95,76.34 15.94,4.89 0,4.89 14.93,79.47 31.8,79.47 40.24,41.67 48.76,79.47 65.63,79.47 		"/>
		<polygon class="st0" points="208.87,64.62 252.49,38.05 252.49,22.27 206.34,22.27 206.34,36.86 249.7,36.86 205.67,63.61 
			205.67,79.47 253.08,79.47 253.08,64.62 		"/>
		<path class="st0" d="M136.41,67.4c-2.53,0-3.8-1.01-3.8-4.89V43.28c0-15.1-9.2-22.19-25.22-22.19c-14.09,0-23.96,6.5-30.28,16.96
			l13.08,7.25c3.37-7.59,8.18-11.64,16.87-11.64c8.35,0,11.81,4.05,11.81,9.28l0,0c0,2.45-3.37,4.22-8.77,5.48
			c-2.87,0.67-6.16,1.35-8.86,1.86l-1.69,0.34c-1.52,0.34-10.88,2.87-15.94,6.5c-2.53,1.69-4.13,3.54-5.06,5.99
			c-0.08,0.08-0.34,1.01-0.34,1.01c-0.34,1.27-0.51,2.62-0.51,4.05c0,7.34,5.4,12.57,15.61,12.57c0.08,0,0.67,0,0.93,0
			c0.17,0,1.43-0.17,1.6-0.17c8.44-1.1,18.14-7.76,22.61-22.1c-0.08,2.45-0.25,5.06-0.25,7.59c0,10.71,4.72,14.26,12.74,14.26
			c3.46,0,7.17-0.59,8.69-1.43V66.64C138.85,67.07,138.01,67.4,136.41,67.4z M92.71,61.16L92.71,61.16c0-5.99,6.5-7.68,15.1-9.45
			c5.31-1.1,8.94-2.28,11.05-4.72v3.8l0,0c-1.6,11.56-7.25,17.72-16.03,17.8h-0.08C96,68.5,92.71,65.46,92.71,61.16L92.71,61.16z"/>
	</g>
	<g>
		<path class="st0" d="M260.25,107.99c-1.22,0-2.17-0.67-2.17-1.75h1.07c0.04,0.5,0.4,0.91,1.09,0.91c0.7,0,1.1-0.38,1.1-0.9
			c0-1.48-3.25-0.52-3.25-2.78c0-1.07,0.85-1.74,2.11-1.74c1.17,0,2,0.62,2.09,1.67h-1.11c-0.04-0.41-0.4-0.79-1.03-0.81
			c-0.58-0.02-1.03,0.26-1.03,0.85c0,1.38,3.24,0.52,3.24,2.76C262.36,107.11,261.61,107.99,260.25,107.99z"/>
		<path class="st0" d="M263.55,101.8h1.08l2.15,4.8l2.14-4.8H270v6.12h-1v-4.19l-1.87,4.19h-0.7l-1.88-4.19v4.19h-1V101.8z"/>
	</g>
	<g>
		<path class="st0" d="M23.34,124.77c-2.74,0-4.8-0.96-6.19-2.89c-1.39-1.93-2.08-4.8-2.08-8.64c0-2.57,0.32-4.7,0.95-6.41
			c0.63-1.71,1.58-2.98,2.86-3.84c1.27-0.85,2.87-1.28,4.78-1.28c1.56,0,2.91,0.34,4.06,1.03c1.15,0.68,2.03,1.66,2.64,2.92
			c0.61,1.26,0.92,2.74,0.92,4.42H28.2c0-1.14-0.18-2.12-0.54-2.95c-0.36-0.83-0.88-1.47-1.58-1.91c-0.69-0.44-1.51-0.66-2.43-0.66
			c-1.26,0-2.29,0.3-3.09,0.9c-0.8,0.6-1.39,1.54-1.78,2.83c-0.39,1.28-0.58,2.94-0.58,4.96c0,3.03,0.42,5.24,1.25,6.61
			c0.83,1.38,2.13,2.07,3.9,2.07c1.41,0,2.51-0.49,3.32-1.47c0.8-0.98,1.2-2.33,1.2-4.06h3.06c0,1.64-0.32,3.09-0.95,4.36
			c-0.63,1.26-1.52,2.25-2.67,2.95C26.15,124.42,24.83,124.77,23.34,124.77z"/>
		<path class="st0" d="M55.79,114.54v-0.48c1.35-0.02,2.54-0.21,3.55-0.57c1.08-0.39,1.93-1.02,2.53-1.88
			c0.6-0.86,0.9-1.96,0.9-3.28c0-1.39-0.28-2.54-0.85-3.46c-0.57-0.92-1.39-1.59-2.48-2.02c-1.08-0.43-2.38-0.65-3.9-0.65h-7.55
			v22.1h3v-9.91h1.56l6.43,9.91h3.79l-6.19-9.31L55.79,114.54z M50.99,105.04h4.93c1.2,0,2.14,0.27,2.81,0.82
			c0.67,0.55,1.01,1.38,1.01,2.49c0,1.09-0.33,1.93-0.99,2.49c-0.66,0.57-1.62,0.85-2.86,0.85h-4.89V105.04z"/>
		<path class="st0" d="M80.16,124.3v-22.1H93.3v2.84H83.13v6.79h9.85v2.81h-9.85v6.82H93.3v2.84H80.16z"/>
		<path class="st0" d="M123.89,124.3h3.22l-6.6-22.1h-4.7l-6.6,22.1h3.22l2.22-7.83h7.02L123.89,124.3z M115.46,113.63l2.28-8.02
			l0.19-1.64h0.47l0.19,1.64l2.28,8.02H115.46z"/>
		<polygon class="st0" points="158.65,102.2 141.1,102.2 141.1,105.04 148.39,105.04 148.39,124.3 151.36,124.3 151.36,105.04 
			158.65,105.04 		"/>
		<path class="st0" d="M174.41,124.3v-2.68h5.71v-16.73h-5.71v-2.68h14.4v2.68h-5.72v16.73h5.72v2.68H174.41z"/>
		<path class="st0" d="M211,124.3l-6.28-22.1h3.16l5.08,18.69l0.16,1.64h0.47l0.16-1.64l5.05-18.69h3.19l-6.28,22.1H211z"/>
		<path class="st0" d="M238.81,124.3v-22.1h13.13v2.84h-10.17v6.79h9.85v2.81h-9.85v6.82h10.17v2.84H238.81z"/>
	</g>
</g>
</svg>
