<svg xmlns="http://www.w3.org/2000/svg" width="288.766" height="43.898" viewBox="0 0 288.766 43.898"><defs><style>.a{fill:#fff;}</style></defs><path class="a" d="M152.039,43.287H143.92V.169h8.119Z" transform="translate(-65.665 -0.077)"/><path class="a" d="M183.979,42.705a15.65,15.65,0,0,1-5.275,1.055c-6.972,0-9.679-2.982-9.679-10.046V19.541h-5.872V12.11h5.872V4.449L176.5,0V12.11h7.431v7.431H176.5V32.155c0,3.073,1.33,4.174,3.486,4.174a7.624,7.624,0,0,0,3.945-.964v7.339Z" transform="translate(-74.44)"/><path class="a" d="M43.806,4.893h-8.67L27.522,43.745,22.614,21.773l3.761-16.88H25L21.88,18.654,18.807,4.893H17.385l3.807,16.88L16.284,43.745,8.67,4.893H0l8.119,40.55h9.174l4.587-20.55,4.633,20.55h9.174Z" transform="translate(0 -2.232)"/><path class="a" d="M207.416,45.3l23.715-14.449V22.271H206.039v7.936h23.577L205.672,44.748v8.624h25.779V45.3Z" transform="translate(-93.84 -10.161)"/><path class="a" d="M109.353,46.273c-1.376,0-2.064-.551-2.064-2.661V33.154c0-8.21-5-12.064-13.715-12.064a18.2,18.2,0,0,0-16.468,9.22l7.11,3.945c1.835-4.129,4.449-6.33,9.174-6.33,4.541,0,6.422,2.2,6.422,5.046h0c0,1.33-1.835,2.294-4.771,2.981-1.559.367-3.348.734-4.816,1.009l-.917.184c-.825.183-5.917,1.559-8.669,3.532a6.668,6.668,0,0,0-2.752,3.257,3.862,3.862,0,0,0-.183.55,8.508,8.508,0,0,0-.275,2.2c0,3.991,2.936,6.835,8.486,6.835h.5c.092,0,.78-.092.872-.092,4.587-.6,9.862-4.22,12.293-12.018-.046,1.331-.138,2.752-.138,4.129,0,5.826,2.569,7.752,6.926,7.752a12.093,12.093,0,0,0,4.725-.78V45.86A3.229,3.229,0,0,1,109.353,46.273ZM85.592,42.879h0c0-3.257,3.532-4.174,8.211-5.138,2.889-.6,4.862-1.238,6.009-2.569v2.064h0c-.872,6.285-3.945,9.633-8.716,9.679h-.046c-3.67-.046-5.459-1.7-5.459-4.037Z" transform="translate(-35.18 -9.622)"/><g transform="translate(150.281 21.392)"><g transform="translate(131.997)"><path class="a" d="M520.319,42.751c-.667,0-1.18-.364-1.18-.954h.585a.535.535,0,0,0,.595.494c.383,0,.6-.206.6-.489,0-.806-1.769-.283-1.769-1.511,0-.586.465-.949,1.146-.949a1.016,1.016,0,0,1,1.137.906h-.6a.521.521,0,0,0-.561-.442c-.316-.01-.561.144-.561.465,0,.753,1.764.283,1.764,1.5A1.036,1.036,0,0,1,520.319,42.751Z" transform="translate(-519.139 -39.342)"/><path class="a" d="M524.614,39.421h.59l1.171,2.613,1.165-2.613h.586v3.333h-.547V40.471l-1.017,2.283h-.379l-1.022-2.283v2.283h-.547Z" transform="translate(-521.637 -39.378)"/></g><path class="a" d="M280.881,51.875a3.883,3.883,0,0,1-3.365-1.57,8.014,8.014,0,0,1-1.133-4.7,10.127,10.127,0,0,1,.515-3.485,4.144,4.144,0,0,1,1.554-2.086,4.573,4.573,0,0,1,2.6-.7,4.229,4.229,0,0,1,2.207.558,3.644,3.644,0,0,1,1.433,1.588,5.457,5.457,0,0,1,.5,2.4h-1.665a4.048,4.048,0,0,0-.291-1.605,2.254,2.254,0,0,0-.859-1.039,2.41,2.41,0,0,0-1.322-.361,2.729,2.729,0,0,0-1.682.489,2.9,2.9,0,0,0-.97,1.537,9.484,9.484,0,0,0-.318,2.7,7.231,7.231,0,0,0,.678,3.6,2.3,2.3,0,0,0,2.121,1.125,2.2,2.2,0,0,0,1.8-.8,3.393,3.393,0,0,0,.652-2.207H285a5.229,5.229,0,0,1-.515,2.37,3.868,3.868,0,0,1-1.451,1.605A4.031,4.031,0,0,1,280.881,51.875Z" transform="translate(-276.383 -39.342)"/><path class="a" d="M313.557,46.528v-.263a6.04,6.04,0,0,0,1.931-.312,2.75,2.75,0,0,0,1.374-1.022,3.059,3.059,0,0,0,.489-1.785,3.51,3.51,0,0,0-.463-1.88,2.716,2.716,0,0,0-1.348-1.1,5.724,5.724,0,0,0-2.12-.352h-4.1V51.833h1.631V46.442h.849l3.494,5.391h2.06l-3.365-5.065Zm-2.61-5.168h2.678a2.357,2.357,0,0,1,1.528.446,1.645,1.645,0,0,1,.549,1.356,1.687,1.687,0,0,1-.54,1.356,2.321,2.321,0,0,1-1.554.464h-2.661Z" transform="translate(-291.409 -39.558)"/><path class="a" d="M341.49,51.833V39.815h7.143V41.36H343.1v3.691h5.356V46.58H343.1v3.708h5.528v1.545Z" transform="translate(-306.089 -39.558)"/><path class="a" d="M378.523,51.833h1.751l-3.589-12.018h-2.558l-3.589,12.018h1.751l1.208-4.258h3.816Zm-4.585-5.8,1.238-4.361.1-.892h.258l.1.892,1.238,4.361Z" transform="translate(-319.342 -39.558)"/><path class="a" d="M411.976,39.815H402.43V41.36H406.4V51.833h1.614V41.36h3.966Z" transform="translate(-333.893 -39.558)"/><path class="a" d="M435.741,51.833V50.374h3.108v-9.1h-3.108V39.815h7.829v1.459h-3.107v9.1h3.107v1.459Z" transform="translate(-349.091 -39.558)"/><path class="a" d="M469.47,51.833l-3.417-12.018h1.717l2.764,10.164.086.892h.258l.085-.892,2.747-10.164h1.733l-3.416,12.018Z" transform="translate(-362.921 -39.558)"/><path class="a" d="M500.154,51.833V39.815H507.3V41.36h-5.528v3.691h5.356V46.58h-5.356v3.708H507.3v1.545Z" transform="translate(-378.48 -39.558)"/></g></svg>