<svg xmlns="http://www.w3.org/2000/svg" class="waltz-logo" width="103" height="103" viewBox="0 0 103 103">
	<g>
	<g>
		<path class="logo-circle" fill="#eaff00" d="M0 51.5C0 23.057 23.057 0 51.5 0S103 23.057 103 51.5 79.943 103 51.5 103 0 79.943 0 51.5z"/>
</g>
<g><path class="logo-W" fill="#2d302d" d="M43.46 79.788c.15-.61.305-1.217.445-1.829.678-2.983 1.353-5.967 2.025-8.95.412-1.828.818-3.655 1.227-5.482.405-1.81.82-3.619 1.212-5.432.319-1.475.595-2.959.919-4.433.356-1.62.744-3.233 1.12-4.848.111-.48.212-.963.345-1.437.266-.95.187-1.884-.035-2.828-.38-1.613-.724-3.235-1.095-4.85-.216-.943-.467-1.878-.679-2.822-.19-.847-.343-1.703-.521-2.553a93.867 93.867 0 0 0-.44-1.97c-.363-1.55-.745-3.097-1.092-4.651-.33-1.474-.62-2.956-.935-4.432-.127-.596-.296-1.182-.403-1.78-.025-.138.121-.306.189-.46.14.108.37.191.407.329.217.776.393 1.563.572 2.349.397 1.746.794 3.493 1.18 5.242.325 1.476.621 2.958.953 4.432.328 1.458.7 2.907 1.024 4.366.36 1.618.686 3.245 1.03 4.866.135.63.28 1.259.534 1.885.04-.097.096-.191.117-.292.326-1.592.627-3.19.975-4.776.315-1.445.687-2.876 1.019-4.316.185-.8.336-1.608.507-2.412.146-.69.288-1.38.45-2.067.361-1.535.748-3.064 1.097-4.602.322-1.426.608-2.86.911-4.29.024-.112.023-.254.092-.328.14-.15.321-.26.485-.388.06.173.195.36.168.517-.136.76-.311 1.513-.478 2.266-.398 1.796-.792 3.592-1.203 5.384-.322 1.408-.678 2.808-.999 4.216-.222.975-.395 1.962-.615 2.937-.323 1.425-.678 2.842-1 4.266-.213.93-.389 1.867-.59 2.798-.181.834-.378 1.664-.562 2.498a.677.677 0 0 0-.002.285c.508 2.345 1.017 4.69 1.533 7.032.382 1.731.765 3.463 1.162 5.19.34 1.473.716 2.935 1.045 4.41.325 1.458.605 2.925.914 4.388.156.74.328 1.475.498 2.212.632 2.756 1.265 5.513 1.9 8.269.147.64.3 1.278.457 1.916.018.07.073.133.182.323.175-.857.327-1.59.474-2.323.255-1.274.51-2.548.76-3.823.157-.807.308-1.615.462-2.423l1.03-5.375c.357-1.872.71-3.745 1.077-5.615.19-.968.414-1.93.603-2.897.347-1.775.672-3.554 1.02-5.328.208-1.065.458-2.12.661-3.186.337-1.76.632-3.527.98-5.284.597-3.015 1.235-6.023 1.832-9.038.487-2.467.935-4.942 1.41-7.412.369-1.92.743-3.84 1.143-5.754.036-.171.262-.335.438-.433.129-.07.322-.032.487-.032 3.791-.002 7.583-.001 11.375-.001.63 0 .672.07.546.693-.307 1.513-.59 3.03-.898 4.543-.334 1.642-.693 3.278-1.025 4.92-.188.934-.342 1.874-.518 2.81a108.6 108.6 0 0 1-.437 2.223c-.213 1.013-.455 2.02-.656 3.035-.331 1.676-.637 3.358-.96 5.036-.151.79-.317 1.578-.474 2.367-.25 1.258-.492 2.517-.75 3.772-.21 1.03-.455 2.055-.66 3.087-.477 2.403-.93 4.811-1.412 7.213-.446 2.224-.925 4.44-1.372 6.664-.494 2.466-.967 4.938-1.45 7.407-.368 1.871-.74 3.741-1.104 5.613-.136.7-.217.783-.942.784-3.808.002-7.616.003-11.424 0-.79-.001-.782-.01-.96-.79-.46-2.02-.94-4.033-1.39-6.053-.334-1.49-.62-2.991-.953-4.48-.33-1.475-.703-2.94-1.035-4.414-.33-1.457-.625-2.923-.95-4.381-.202-.898-.446-1.787-.645-2.685-.48-2.166-.949-4.334-1.415-6.503-.282-1.316-.55-2.634-.827-3.95-.018-.087-.068-.166-.213-.254-.146.679-.297 1.357-.44 2.037-.233 1.108-.454 2.22-.693 3.328-.325 1.508-.661 3.013-.993 4.519-.146.657-.285 1.316-.439 1.972-.345 1.47-.71 2.937-1.041 4.41-.353 1.57-.662 3.15-1.015 4.72-.488 2.164-1.007 4.322-1.498 6.487-.405 1.779-.801 3.56-1.175 5.346-.106.51-.343.703-.87.7-3.858-.016-7.716-.006-11.574-.01-.67 0-.757-.125-.871-.8-.17-1.003-.392-1.997-.588-2.996-.225-1.146-.44-2.294-.67-3.438-.235-1.176-.491-2.349-.724-3.526-.44-2.225-.858-4.455-1.305-6.678-.455-2.258-.946-4.507-1.398-6.765-.454-2.275-.872-4.556-1.322-6.832-.344-1.742-.719-3.48-1.068-5.221-.336-1.677-.65-3.359-.986-5.035-.362-1.807-.745-3.61-1.105-5.416-.45-2.257-.876-4.519-1.33-6.775-.317-1.577-.67-3.148-.993-4.725a13.372 13.372 0 0 1-.236-1.56c-.01-.12.168-.285.296-.38.076-.056.224-.019.339-.019l11.474-.011c.598-.001.711.138.819.742.212 1.198.461 2.388.697 3.58.159.807.322 1.613.48 2.42l1.25 6.383c.553 2.822 1.113 5.645 1.656 8.47.307 1.596.568 3.202.881 4.798.447 2.274.933 4.542 1.384 6.815.359 1.807.686 3.62 1.04 5.428.316 1.613.664 3.22.975 4.835.458 2.373.887 4.751 1.347 7.123.355 1.825.741 3.643 1.11 5.465.16.79.31 1.581.47 2.37.023.12.076.234.115.35z"/>
</g>
</g>
</svg>