<svg width="1902" height="3200" id="ribbon" xmlns="http://www.w3.org/2000/svg" viewBox="0 0 1902.1 3200"><defs><style>.cls-1{fill:#fff;}</style></defs><polygon class="cls-1" points=".1 3200 1902.1 3200 1902 0 1831.9 322.7 1316.6 541.4 1166.6 1015.9 661.1 1218.7 410.8 1780 .1 1855.9 .1 3200"/><path d="m1901.7,0c-20,94.4-39.6,178.5-58,244.5-6.7,24.2-19.5,66.7-20.3,67.4-.3.3-15.5,6-21,7.8-20.7,7-41.1,12.8-68.9,19.4-15.4,3.7-28.6,6.6-57.6,12.8-8.2,1.8-18.8,4-23.5,5-61.9,13.4-99.3,23.6-134.8,36.8-22.5,8.4-39.9,16.1-58.3,26.1-13.8,7.5-22.6,13.1-32.3,20.6-6.3,4.8-11.7,9.2-11.7,9.3.7-.4-87.3,62.9-144.8,114.5h0c-2.2,1.7-4.7,3.7-7.8,6.1-10.6,8.4-13.9,11.1-18,15-5.2,5.1-10.1,10.5-14.8,16.2-9.9,12.7-18.2,26.5-24.7,41.2-7.1,15.7-24.1,69.7-24.1,123.4,0,64.1-6.6,127.2-10.9,149.3-6.5,33.1-15.2,63.6-25.7,89.8-1.7,4.2-5.7,13.6-5.9,13.8h-.1.1-.1c-.3.1-.5.2-.8.3h0c-1.7.5-5.5,1.5-10.2,2.7-28.2,7-59.9,12.7-104.7,19-8.9,1.3-11.7,1.6-36.7,5-49.6,6.7-71.9,10.1-96.5,14.9-66.4,13-112.1,31.8-145.8,59.8-7.1,5.9-9.5,8.2-17.4,16.7-4.5,4.8-10.1,11-15.2,16.7h0q-5.8,6.6,0,0c-19,18.8-29.8,33.5-29.8,33.5,0,0-13.9,15.7-10.8,12.2-5,5.6-12.2,13.7-22.8,25.6.1-.1-.2.3,0,0-2.7,3-5.2,5.8-7.6,8.4q-3.9,4.4,0,0c-8,8.9-14.4,16-22.4,25.1h0c-.6.5-5.3,6-8.1,9h0c-1.2,1.3-2.2,2.5-3.2,3.8l.1-.1-.1.1c-.1.1-.1.2-.2.3.1-.1.1-.2.2-.3-1.8,2-3.6,4-5.4,6.1-11.6,11-26.7,29.4-43.7,60.1-18.1,32.8-48.3,124.5-48.3,124.5-21.7,60-101.4,273.4-114.8,298.6-2.1,4-7.2,13.1-7.4,13.3h-.1.1-.1c-.3.1-.6.1-.8.2-1.7.3-5.8.7-10.6,1.6-64,11.8-218.4,11.2-243.7,13.4-55.7,4.8-97.9,15-131.7,31.9v104c12.4-1.5,25.9-3,49.4-5.4,8.4-.9,19.3-2,24.2-2.5,63.7-6.8,102.5-13,139.7-22.4,23.6-6,41.9-11.9,61.5-20,14.7-6.1,24.2-10.8,34.8-17.3,6.8-4.2,11.2-7.3,10.5-6.9-.2.1-.3.2-.3.2,0,0,12.7-7.7,29.3-17.6,66.9-39.9,111.1-68.9,133.9-85,1.8-1.1,3.8-2.4,6.1-3.8,11.6-7.3,15.2-9.7,19.7-13.2,5.8-4.6,11.4-9.5,16.6-14.7,11.3-11.7,21.2-24.7,29.3-38.8,19.5-33.2,43.3-130.7,43.3-130.7,20.2-95.3,39.1-174.1,57.7-240.7,6.8-24.5,19.8-67.6,20.5-68.3.1-.1.9-.9,2.3-2.1,4.9-1.9,13.7-5.1,17.5-6.4,20.7-7,41.1-12.8,68.9-19.4,15.4-3.7,28.6-6.6,57.6-12.8,8.2-1.8,18.8-4,23.5-5.1,61.9-13.4,99.3-23.6,134.8-36.8,22.5-8.3,39.9-16.1,58.3-26.1,13.8-7.5,22.7-13.1,32.3-20.6,6.3-4.9,101.2-74.2,156.4-123.8h0c14-12.6,26.5-24.7,35.8-35.3,33.5-38.2,46.3-131.4,48.7-177.3h-.2c2.9-54.3,8.1-98.3,16-138.6,6.5-33.1,15.2-63.6,25.7-89.8,1.7-4.1,5.7-13.6,5.9-13.8h.1-.1.1c.3-.1.5-.2.8-.3,1.7-.5,5.5-1.5,10.2-2.7,28.2-7,59.9-12.7,104.7-19,8.9-1.2,11.7-1.6,36.7-5,49.6-6.7,71.9-10.1,96.5-14.9,66.4-13,112.1-31.8,145.8-59.8,7.1-5.9,9.5-8.2,17.4-16.7,4.5-4.8,10.1-11,15.2-16.7h0q5.8-6.6,0,0c19-18.8,29.7-33.5,29.7-33.5l.1-.1h0c1.3-1.3,6.4-7,10.8-12.2-6.8,7.6-9.4,10.5-10.3,11.6,1-1.1,3.5-3.9,10.3-11.6,3.1-3.6,5.9-6.8,7-8.2-1.1,1.4-3.9,4.6-7,8.2,5-5.6,12.2-13.7,22.8-25.6-.1.1.1-.3.6-.9-.2.3-.4.6-.6.9,2.7-3,5.2-5.8,7.6-8.4q3.9-4.4,0,0c8-8.9,14.4-16,22.4-25.1h0c.5-.5,1.1-1.1,1.5-1.7.9-1,3.8-4.3,6.5-7.4h0c1.2-1.3,2.1-2.5,3.2-3.8h0c3.3-3.7,6.7-7.5,10-11.2V0h0Zm-20.9,290.5c.1-.2,1-1.3,2-2.6-1,1.3-1.9,2.4-2,2.6Z"/><path class="cls-1" d="m1288.8,557.6h0l-.2.2-2,2.6c-20.9,27.9-36.6,65-46.9,110.9-6.4,28.4-10.8,60.9-13.2,97.1h.1c-.2,4-.4,8-.6,11.9h.1c-5.3,97.3-20.9,169.8-49,222.7-1.1,2.1-2.4,4.4-2.8,5.1h0c-.3.4-.5.8-.6,1.3.1,0,2.5-.8,5.5-2,.2-.1.3-.1.5-.2l5.9-2.2,2.3-3.8c19.4-32.6,33.8-74.2,42.8-124.3,5.2-28.9,8.7-60.1,10.8-95.5.2-3.9.4-7.8.6-11.8h.1c5.9-94.8,23.8-163.7,55.1-212.2,1.2-1.9,2.5-3.8,2.8-4.3.2-.3.4-.6.6-1-.1-.1-6.3,2.6-10.1,4.5l-1.8,1Z"/><path class="cls-1" d="m1791.3,389.2c-.2.2-.4.3-.7.5-.2.1-.4.3-.5.4l-.1.1c-.7.6-2.8,2.2-4.8,3.7-18.7,14.3-40.2,25.8-66.8,35.8-19.2,7.2-39.8,13.2-65.2,18.9-17.4,3.9-37.1,7.6-60.2,11.5-8.1,1.4-19.3,3.2-34.4,5.5-1.8.3-3.6.6-5.5.9-8,1.3-15.2,2.4-21.7,3.4-28.7,4.6-44,7.2-60.6,10.4-48,9.2-84.2,19.5-116.5,32.8-3,1.2-6,2.5-9,3.9-7,3.2-14,6.6-20.4,10-7.5,4-14.3,8-19.4,11.6-.1.1-.2.1-.3.2-.5.3-1,.6-1.3.9-.6.4-1,.6-1,.6h0s1.2-1,3.1-2.5c3-2.4,7.6-6.1,11.9-9.4,5.4-4.3,11.1-8.2,17.1-11.7,1.4-.8,2.8-1.6,4.2-2.4,7.7-4.4,15.8-8.5,24.3-12.5,31.3-14.5,68-26.1,113.5-35.9,19.9-4.3,37.2-7.6,69.1-13,7.4-1.3,15.5-2.6,24.7-4.1,23.8-4,29.8-5,43.7-7.5,18.9-3.4,31.5-5.8,45.4-8.8,34.9-7.6,63.6-16.2,87.9-26.5,12.1-5.1,23.1-10.7,33.4-16.8,2.8-1.7,6.4-4,9.6-6.1,2-1.3,3.8-2.5,5.2-3.5l2.3-1.7,1.1-2c1.6-2.9,4.5-8.8,4.3-8.8h-.1c-.2.1-.4.2-.5.3h0c-.3.2-2.4,1.5-4.7,2.9-16.3,9.8-34.3,18.2-55.6,25.8-18,6.4-38.4,12.2-61.8,17.6h-.3c-5.3,1.2-10.7,2.4-16.3,3.6-.9.2-1.7.4-2.6.5-17.2,3.6-31.2,6.2-69.9,13-33,5.8-46.7,8.3-60.2,10.9-2.9.6-5.8,1.1-8.9,1.8-14.3,2.9-27.7,5.8-40.3,8.9-16.8,4.1-32.2,8.4-46.5,13-20.2,6.5-38.2,13.6-54.9,21.5-2.8,1.3-5.6,2.7-8.4,4.1-10,5.1-19.4,10.5-26.2,15.2-.3.2-.6.4-.8.6-.5.4-1,.7-1.6,1-.2.1-.4.3-.6.4h0c.2-.2,5.5-4.4,10.6-8.5,1.2-1,2.5-1.9,3.6-2.8,3-2.3,6.1-4.6,9.3-6.7,3.7-2.5,7.5-4.8,11.4-7,39.3-22.5,86.4-39.1,151.4-53.3,20.5-4.5,37.3-7.8,78.4-15.4,47.6-8.8,67-12.7,89.9-18.1,37.9-9,67.4-18.9,92.5-30.9,6.6-3.2,14.1-7.1,17.1-9,.8-.5,1.3-.8,1.3-1,0-.1.1-.3.3-.6.4-1,1.2-3.1,2-5.1.9-2.3,1.6-4.4,1.6-4.5s-.3,0-.7.2h0c-.2.1-.7.4-1.4.7-1,.5-2.4,1.2-3.9,1.9-6.3,3.1-12.9,6-19.7,8.8-22.7,9.3-48.8,17.2-81.2,24.8-6.6,1.6-12.8,3-19.4,4.4-1.2.3-2.5.5-3.7.8-11.9,2.5-25.6,5.3-46.3,9.3-2.3.4-4.6.9-7,1.4-19.6,3.8-32.6,6.3-43,8.4-9.6,1.9-16.9,3.5-25.1,5.2-32.7,7-60.1,14.2-84.5,22.3-15.2,5-29.2,10.3-42.5,16.1-17.3,7.5-35.1,16.9-47.2,24.7-1.4.9-2.7,1.8-3.9,2.6-1.6,1.1-3,2-3,2,0-.1,4.8-3.9,11.8-9.4,5.1-4,10.4-7.8,15.8-11.2,2-1.3,4-2.5,6.1-3.7,20.7-12.1,43.4-22.5,69.5-31.8,18.7-6.7,39.1-12.8,61.9-18.7,24.4-6.2,43.3-10.4,95.6-20.9,36.3-7.3,47.9-9.7,63.6-13.2.5-.1,1-.2,1.6-.4,2.5-.6,4.9-1.1,7.3-1.7,37.6-8.8,66.9-17.9,92-28.6,4.2-1.8,10.8-4.8,11-4.9,0,0,.4-1.1.9-2.6.7-2.2,1.7-5.2,2.2-6.7.2-.5.3-.9.3-1v-.1c-.2-.1-.9.2-2.8,1-11.1,4.7-25,9.8-38.6,14-14.8,4.7-32.3,9.4-50.6,13.8-19.3,4.6-29.6,6.9-62.7,13.7-42.5,8.8-52.6,11-70.2,15.1-52.8,12.2-91.9,24.5-126.5,40.1-2.2,1-4.4,2-6.6,3-.4.2-.8.4-1.3.6-16.3,7.7-33.4,17.3-43,24.2l-.3.2c-5,3.6-89.4,64.3-146.9,115.9,6.5-5.1,9.6-7.5,12.3-9.4.4-.3.9-.6,1.3-.9,8.9-6.1,21.9-13.2,35.9-19.5,2.7-1.2,5.4-2.4,8.1-3.6,3.4-1.5,6.9-2.9,10.5-4.3,34.3-13.4,74.4-23.5,128.6-32.6,9.4-1.6,18.6-3,31.8-5,1-.1,2-.3,3-.5,7.2-1.1,15.6-2.3,25.7-3.8,9.7-1.4,18.4-2.7,26.4-3.9,26.8-4,44.7-6.9,60.1-9.9,5.6-1.1,10.8-2.1,16.1-3.2,2.9-.6,5.8-1.2,8.7-1.9,53.9-11.9,94.3-28.3,125.1-50.8,6-4.4,11.7-9.1,17-14l.5-.5,2.4-2.2,2.8-3.9c2.8-3.8,4.6-6.5,4.5-6.5Zm-448.6,119.3l.1-.1q.1,0,0,.1c0,.1-.1.1-.1.2l-.1.1c-.1-.1,0-.2.1-.3Z"/><path class="cls-1" d="m1336.9,538.7c-.3.2-3,5.8-5.3,10.7-8.5,18.1-15.9,38.4-22.2,60.8-3.6,13-6.8,26.8-9.7,41.3-6.8,35-11.4,74.5-13.9,120.6l-.6,12.4s-2.1,42-10.8,83c-9,42.1-24.9,83.5-40.2,105.1-3.3,4.8-6.9,9.3-10.6,13.7l-1.9,2.2,1.7-.9c.3-.2.9-.5,1.6-.9h0c.6-.3,1.3-.7,1.9-1.1.7-.4,1.3-.8,2-1.2l3.9-2.3,3.6-3.7h0c38.3-38.9,55-103.1,61.9-192.9.3-3.9.9-11.9.9-12h0c.3-5.8.6-11.4,1-17.1,0,0,6.7-73.7,12.4-104.7,7.9-43.4,18.9-80.2,33.2-110.9,1.4-3.1,2.5-5.6,2.5-5.7-.1-.1-3.7,1-9,2.7-.7.2-1.6.5-2.4.9Z"/><path class="cls-1" d="m1321.5,549.1c.1-.2.2-.4.3-.6,1.1-2,2.2-4,2.5-4.6.3-.4.5-.8.6-1.3-.1,0-2.8.9-6,2.2l-5.9,2.2-.3.6-2,3.3c-18.6,31.1-32.4,70.4-41.5,117.5-.4,2.2-.9,4.5-1.3,6.8-5.2,28.9-8.7,60.1-10.8,95.5h-.1c-.2,4-.4,7.9-.7,11.8-5.9,94.8-23.8,163.7-55.1,212.2-1.2,1.9-2.5,3.8-2.8,4.3-.2.3-.4.6-.6,1h.1c.2,0,.6-.2,1.2-.5,2-.9,6-2.6,8.8-4l1.9-.9,1.2-1.6.9-1.2c20.9-27.9,36.6-65,46.9-110.9.2-1,.4-2,.6-3,6-27.6,9.5-59.5,11.7-94.4.2-3.9.5-7.8.7-11.8h-.1c3.5-63.5,11.7-116.6,24.8-160.4,6.9-23.2,15.2-43.9,25-62.2Z"/><path class="cls-1" d="m1866,215.5c-11.7,41.8-27,90.2-35.6,112.7-7.6,19.9-17.4,37.5-29.7,53-2.3,2.9-7.5,8.9-13.3,15.5,19-18.8,29.7-33.5,29.7-33.5l.1-.1h0c.7-1,1.4-2,2.2-3h0c12.2-15.7,22-33.1,29-51.7,4.4-11.5,11.8-33,18.8-54.8,6.9-21.7,16.1-52.7,23.3-78.5,3.8-13.6,7.7-28.1,11.6-43.1v-58c-12.7,54-24.1,98.8-36.1,141.5Z"/><path class="cls-1" d="m1865.6,289.3h0c-1.8,4.7-3.8,9.3-5.9,13.7-.1.3-.3.6-.4.9,0,.1-.1.2-.1.2-6.7,14.1-14.8,27-24.2,38.7h0c-1.1,1.4-3.9,4.6-7,8.2,5-5.6,12.2-13.7,22.8-25.6-.1.1.1-.3.6-.9.5-.7,1.1-1.5,1.6-2.1h0c11.8-15.1,21.1-31.5,28.7-50.6,4.4-11,12.4-33.9,19.2-54.4.4-1.1.7-2.3,1.1-3.4v-36.2c-8.6,29.4-17.1,56.4-25.2,80.1-4.6,13.8-8.4,24.3-11.2,31.4Z"/><path class="cls-1" d="m1892.1,279c3.3-3.7,6.7-7.5,10-11.2v-1.3c-3.1,4.2-6.3,8.3-9.8,12.2-.1.1-.1.2-.2.3Z"/><path class="cls-1" d="m1872,300.5c-1.4,2-2.9,3.9-4.4,5.8-1.3,1.6-5.4,6.3-9.2,10.7,8-8.9,14.4-16,22.4-25.1h0c.1-.2,1-1.3,2-2.6.1-.1.2-.2.3-.3.3-.3.5-.7.8-1,6.8-8.8,12.9-18.2,18.2-28v-17.7c-1.9,5.1-3.5,9.4-4.9,12.8-6.8,16.8-15.1,31.7-25.2,45.4Z"/><path class="cls-1" d="m1214.5,996.9c-9.9,6.8-24.6,14.7-40.3,21.5-1.2.5-2.5,1.1-3.7,1.6-1.7.7-3.4,1.4-5.1,2.1-35.5,14.4-76.9,25.2-134,34.7-15,2.5-29.7,4.8-60.5,9.3-60.7,8.9-83.7,12.8-111.2,18.8-64.6,14.3-109.7,34.9-142.1,64.8l-2.9,2.7-2.8,3.9c-2.8,3.9-4.6,6.6-4.5,6.7.4-.3.8-.6,1.2-.9.5-.4,2.1-1.7,3.8-3,.4-.3.7-.6,1.1-.8,2.3-1.8,4.7-3.5,7.1-5.2,17-11.9,36.4-21.9,59.7-30.6,32.4-12.1,68.5-20.9,125.4-30.3,9.1-1.5,22-3.6,39.9-6.4,43.5-6.8,61.9-9.9,82.3-13.8,48-9.2,84.2-19.5,116.5-32.8,18.2-7.5,37.5-17.6,48.9-25.4.1-.1.3-.2.4-.3.5-.3.9-.6,1.3-.8.6-.4.9-.6.9-.6h0c0,.1-8,6.5-15,11.9-6.7,5.3-13.8,10-21.3,14.2-36.3,20.5-80,35.9-137.8,48.3-24.2,5.2-44.6,9-92.2,16.9-.5.1-1,.2-1.6.3-.2,0-.4.1-.6.1-23.3,3.9-29.3,4.9-43.1,7.3-18.9,3.4-31.5,5.8-45.4,8.8-52.3,11.3-90.5,25-121.3,43.3-3.7,2.2-8.7,5.4-12.3,7.9-.9.6-1.7,1.2-2.4,1.7l-2,1.4-.3.2-1.1,2s0,.1-.1.1c-1.1,1.9-2.6,5-3.5,6.9-.5,1-.8,1.8-.7,1.8s.2-.1.3-.1.1-.1.2-.1.1-.1.2-.1c0,0,.1-.1.2-.1.3-.2.8-.5,1.4-.9.8-.5,1.9-1.2,3.1-1.9,22.7-13.7,48.8-24.7,82.1-34.3,15.6-4.5,32.7-8.7,51.8-12.7,4.3-.9,8.2-1.7,12.4-2.5,13.7-2.8,28.9-5.5,60.2-11,33.7-6,47.3-8.4,61.1-11.1,2.6-.5,5.2-1,8-1.6,10.4-2.1,20.3-4.2,29.8-6.4,34.4-7.9,63-16.5,88.3-26.6,8.2-3.3,16.1-6.7,23.6-10.3,2.2-1.1,4.5-2.2,6.7-3.3,10.7-5.4,20.7-11.1,27.9-16,.4-.3.8-.6,1.2-.8.2-.1.4-.2.6-.4.4-.2.8-.5,1.2-.7h0c-.2.3-6.8,5.5-12.5,9.9-.6.5-1.2.9-1.7,1.3-1.3,1-2.7,2-4,3-5.3,3.9-10.9,7.5-16.6,10.7-39.3,22.5-86.4,39.1-151.4,53.3-20.5,4.5-37.3,7.8-78.4,15.4-47.6,8.8-67,12.7-89.9,18.1-37.9,9-67.4,18.9-92.5,30.9-8.3,4-18.1,9.3-18.5,10-.2.4-2.6,6.7-3.5,9.2-.2.6-.3,1-.3,1,0,.1.3,0,.7-.2.3-.2,1.7-.9,3.4-1.7.6-.3,1.3-.6,1.9-.9,3.3-1.6,6.7-3.2,10.2-4.7,24.9-11.1,53.7-20.2,90.8-28.9,20.6-4.8,36.7-8.2,76.4-15.8,37.7-7.3,51.2-9.9,68-13.6,31.5-6.8,58.1-13.7,81.8-21.4,16.2-5.2,31.1-10.8,45.2-17,15.8-6.9,32.2-15.3,44-22.7,2.6-1.6,4.9-3.1,7-4.6,1.4-1,2.6-1.8,2.9-1.9h.1c0,.1-4.8,3.9-11.8,9.4-4.3,3.4-8.8,6.6-13.3,9.6-2.8,1.8-5.7,3.6-8.6,5.3-12.8,7.4-26.3,14.3-41,20.6-26,11.2-55.4,21-90.5,29.9-24.4,6.2-43.3,10.4-95.6,20.9-21.6,4.4-34.5,7-44.7,9.1-7.5,1.6-13.5,2.9-20.5,4.5-41.2,9.3-72.7,18.9-99.3,30.2-1.5.6-3.3,1.4-5.1,2.2-2.1.9-4,1.8-5.1,2.3-.5.2-.8.4-.9.4-.1.1-3.2,9.5-3.4,10.3v.1h.1c.2,0,.7-.2,1.8-.6.3-.1.6-.2.9-.4,11.1-4.7,25-9.8,38.6-14,14.8-4.7,32.3-9.4,50.6-13.8,19.3-4.6,29.6-6.9,62.7-13.7,31.8-6.6,45.5-9.5,57.7-12.2,4.1-.9,8.1-1.8,12.5-2.8,11.2-2.6,21.8-5.2,31.9-7.8,40.3-10.5,72.1-21.7,101.2-35.3,15.6-7.3,32.2-16.5,42.3-23.4h0c.1-.1.2-.1.3-.2.6-.4,1.1-.8,1.6-1.1h0s.1-.1.3-.2c.3-.2.6-.5,1-.7,10.6-7.7,90.7-65.6,145.9-115.2-3.3,2.6-5.7,4.5-7.7,6-2.7,1.5-4.4,2.7-6,3.8Z"/><path class="cls-1" d="m1159.2,1014.5c.1,0,.2-.1.2-.1.8-.2,1.6-.5,2.3-.9.3-.3,3-5.8,5.4-10.7,13.5-28.5,24.1-62.7,31.8-102.1.1-.5.2-1.1.3-1.6,6.6-34.9,11.2-131.2,11.2-131.2h0c6.7-92.7,28-159.2,64.7-202l1.9-2.2-1.6.9c-.9.5-3.4,1.9-5.6,3.2l-3.9,2.3-3.6,3.7h0c-38.4,38.9-64.3,101.8-69.1,223.9-3.5,88.4-15.1,155.7-37.7,207.9-.8,2-1.7,3.9-2.6,5.8-1.4,3.1-2.5,5.6-2.5,5.7.1,0,3.4-.9,8.1-2.4.1,0,.4-.1.7-.2Z"/><path class="cls-1" d="m419,1778.9c-38.6,11.7-82.7,18.4-144.1,22-15.4.9-30.4,1.6-61.9,2.8-62.1,2.3-85.7,3.8-114,6.9-39,4.3-71.5,11.5-98.9,22.1v11.3c4.8-1.5,9.8-2.9,15-4.2,33.9-8.7,71.3-13.6,129.5-17,9.3-.5,22.5-1.2,40.9-2.1,44.6-2.1,63.4-3.2,84.4-5,49.3-4.1,86.9-10.5,120.8-20.4,19.1-5.6,39.7-13.6,52-20.3,1.5-.8,2.8-1.5,2.8-1.4s-8.8,5.7-16.4,10.4c-7.3,4.6-15,8.6-22.9,12-38.7,16.7-84.5,27.4-144,33.7-25.3,2.7-46.4,4.2-96.3,7.1-24.4,1.4-30.6,1.8-44.8,2.8-19.4,1.3-32.4,2.4-46.7,4-28.2,3-52.6,7.1-74.2,12.4v12.3c19.9-4.1,42.3-7.3,68-9.9,19-1.9,32.8-3,74.5-5.8,41.1-2.8,53-3.7,71-5.3,62.2-5.7,107.9-14.4,147.4-28.3,13.9-4.9,27.5-10.6,36.9-15.7,1-.6,2.1-1.2,3.2-1.6-.3.3-9,5.8-15.6,9.8-7.1,4.4-14.6,8.3-22.3,11.6-42,18.4-91.2,30-158.2,37.3-21.1,2.3-38.4,3.8-80.7,7-48.9,3.7-68.9,5.5-92.5,8.5-11.3,1.4-21.9,3-31.9,4.8v12.1c7.2-1.1,14.6-2.1,22.4-3.1,21.3-2.6,37.8-4.2,78.6-7.7,38.8-3.2,52.6-4.5,70-6.3,54.7-5.8,95.5-13.5,132.1-24.9,20.3-6.3,41.6-14.9,54.4-22,1.8-1,3.2-1.7,3.2-1.7,0,.1-5.3,3.4-12.9,8.2-7.6,4.8-15.5,9-23.7,12.6-38,17-81.2,28.4-137.8,36.6-25.2,3.6-44.7,5.8-98.5,10.7-38.5,3.5-50,4.7-67.1,6.6-7.2.8-14,1.7-20.7,2.6v11.5c18.1-2.3,29.3-3.5,61.5-6.7,43.8-4.3,54.1-5.4,72.4-7.6,57.9-7,100.3-15.8,138.7-29h0c17.6-6,36.6-14.1,47.2-20.2l.3-.2c5.5-3.1,100.8-57.1,164.3-102.9-8.3,5.2-15.4,9.2-18.6,10.9-11.5,6.4-28.9,13.3-46.8,18.7Zm-17.2,22.3q-.2.1-.2,0c.1-.1.2-.2.3-.2s0,.1-.1.2Z"/><path class="cls-1" d="m682.1,1188.7h0c-.7,1.1-1.5,2.1-2.3,3.1-12.3,16-22.1,33.7-29.2,52.5-4.4,11.7-11.8,33.5-18.8,55.6-6.9,22-16.1,53.4-23.3,79.6-11.8,43-37.1,176.9-66.1,255.4-16.7,45.2-47.3,97.8-66.4,115.8l-2.1,2,1.8-.7c1-.4,18.9-11.4,20.8-13.6,65.8-72,83.9-175,91.5-209,7.7-34.1,29.3-134,45-190.8,11.7-42.4,27-91.5,35.6-114.3,7.6-20.2,17.5-38,29.8-53.8,2.3-2.9,7.6-9.1,13.4-15.8-18.9,19.1-29.7,34-29.7,34Z"/><path class="cls-1" d="m564.8,1351.2c8.7-23.9,13.5-34.8,21.2-48,5.9-10.2,12.8-19.8,20.5-28.7-5.6,6.4-11.4,12.9-16.8,18.9-.6.8-1.2,1.7-1.9,2.4-1.1,1.3-3.3,4.3-4.9,6.5-11,15.2-19.3,31-27.1,51.6-13,34.1-123.7,364.4-153.7,414.5-1.8,2.9-3.2,5.4-3.1,5.4.1.1,3.9-.6,9.3-1.7.9-.2,1.8-.4,2.7-.7.3-.2,4.1-5.2,6.5-10.2,51.6-104.4,134.1-373.8,147.3-410Z"/><path class="cls-1" d="m575.5,1455c15.6-60.2,31.7-115.6,46.5-159.3,4.7-14,8.5-24.6,11.2-31.8h0c7.8-20.3,18.1-38.5,30.8-54.4,1.1-1.4,3.9-4.7,7.1-8.3-5,5.7-12.3,14-23,26.1.2-.1-.8,1.1-2.3,3.1-11.9,15.4-21.2,32-28.8,51.3-4.4,11.2-12.5,34.4-19.2,55.2-6.8,20.9-12,37.8-18.9,61.7-3.5,12.1-14.6,60.7-30.5,113-28.8,94.7-25.2,128.4-95.6,245.2-1.2,2-2.9,3.6-3.3,4-.3.3-.5.6-.7.9,0,.1,6.6-2,10.6-3.4l2-.7,2.4-2.6c24.1-25.8,49.1-80.8,64.5-125.9,10.5-30.7,42.1-154.4,47.2-174.1Z"/><path class="cls-1" d="m578.3,1365.2c8.3-25.8,17.9-53.3,23.1-66.4,7.8-19.6,17.5-36.6,29.7-52.1,1.3-1.6,5.4-6.4,9.3-10.9-8,9-14.5,16.3-22.5,25.6,0,.1-1,1.4-2.3,3-7.6,9.8-14.4,20.3-20.1,31.3-4.6,8.9-8.4,17.9-13.1,30.6-16.3,44-33.6,98.7-50.5,159.8-1.3,4.8-2.4,8.7-2.5,8.7-.1-.1-66.5,215.8-101.8,267.8-1.4,2-2.9,4.2-3.4,4.9-.3.4-.6.8-.8,1.2,0,0,2.9-.6,6.3-1.5l6.2-1.6,2.7-3.6c23.1-30.7,39.3-80.1,57.6-129.9,6-16.5,25.1-73.3,44.4-137.5,17-56.6,32.1-112,37.7-129.4Z"/></svg>