<svg xmlns="http://www.w3.org/2000/svg" width="158" height="158" viewBox="0 0 158 158"><g><g><path fill="#e59bdc" d="M0 79C0 35.37 35.37 0 79 0s79 35.37 79 79-35.37 79-79 79S0 122.63 0 79z"/></g><g transform="rotate(13 79 79)"><g><g transform="rotate(-45 66.5 59.5)"><path fill="#fff" d="M61.867 72.63V52.359h1.381v20.273z"/></g><g transform="rotate(-45 98.5 66.5)"><path fill="#fff" d="M84.654 63.348v-1.382h20.68v1.382z"/></g><g transform="rotate(-45 91 98)"><path fill="#fff" d="M94.243 105.304V84.437h1.381v20.867z"/></g><g transform="rotate(-45 59.5 90.5)"><path fill="#fff" d="M52.418 95.712V94.33h20.427v1.382z"/></g></g><g><path fill="#fff" d="M110.113 77.692l-28.02-1.769-1.501-28.327h-2.248L75.84 75.92l-28.13 1.746v2.217l28.132 2.068 2.104 28.264 2.668.001 1.482-28.263 28.018-2.047z"/></g><g><g><path fill="#fff" d="M46.902 116.315l-.942 1.003-.343-.322-2.595 2.765-4.237-3.976-.942 1.004 5.29 4.963 8.04-8.565-1.053-.987-3.56 3.793zm-5.302-3.088l.943-1.004 4.016 3.77-.942 1.003z"/></g><g><path fill="#fff" d="M41.07 105.538c-.409.832-1.287 1.67-2.632 2.515-.9.565-1.705.94-2.414 1.127-.707.186-1.326.19-1.853.013-.528-.177-.965-.541-1.31-1.091-.518-.825-.573-1.653-.163-2.485.408-.831 1.286-1.669 2.632-2.513.9-.566 1.705-.942 2.413-1.128.708-.187 1.326-.19 1.854-.013.527.177.965.541 1.31 1.091.517.825.572 1.653.163 2.484zm-.885-4.896c-.752-.314-1.603-.371-2.555-.17-.951.2-1.985.65-3.104 1.351-1.687 1.06-2.772 2.186-3.256 3.382-.485 1.196-.343 2.405.425 3.628.507.807 1.136 1.367 1.888 1.68.752.315 1.604.372 2.554.172.952-.2 1.987-.65 3.105-1.353 1.686-1.059 2.772-2.186 3.256-3.38.484-1.197.343-2.407-.425-3.63-.506-.806-1.137-1.365-1.888-1.68z"/></g><g><path fill="#fff" d="M36.447 90.03l-4.002 4.975-.165-.518-.174-.051-.276-.865a7.898 7.898 0 0 0-.01-.031l.225-.071.101-.456 3.742-4.743zm-4.317 5.367l-.453-1.812.143-.045c-.233-.722-.53-1.32-.896-1.795-.369-.481-.82-.804-1.356-.97-.534-.165-1.137-.142-1.808.072-.693.22-1.223.548-1.588.987a2.715 2.715 0 0 0-.62 1.571c-.047.607.05 1.294.295 2.062l1.196 3.761 11.198-3.55-.437-1.375-5.071 1.607-.288-.905zm-.646.909l-3.568 1.13-.808-2.544c-.206-.65-.221-1.206-.045-1.667.176-.462.563-.787 1.16-.976.598-.188 1.104-.15 1.517.12.415.267.727.737.941 1.409z"/></g><g><path fill="#fff" d="M35.378 85.184l-11.735.607-.063-1.212.006.122 1.386-.173-.01-.183 10.345-.534zm-11.798-.605l-.05-.95 6.206-1.851.753-.073-.012-.234.015.302 1.355.182.01.201-5.49 1.747-1.417.207.012.235-1.39.071zm6.897-3.108l-.758-.011-6.366-1.184-.04-.787 1.39-.072.012.217 1.432.061 5.643 1.17.057 1.09-.047-.888-1.326.337zm-7.18-2.284l1.397.045.01.185 10.345-.535-.074-1.375-11.736.607.073 1.375z"/></g><g><path fill="#fff" d="M35.363 73.453l-11.51-2.384 1.405-6.805 1.348.28-1.113 5.391 3.716.77 1.08-5.227 1.348.278-1.08 5.227 3.75.777 1.113-5.39 1.348.278z"/></g><g><path fill="#fff" d="M40.722 57.525l-6.335.813.241-.489-.092-.156.401-.813.015-.03.21.103.39-.258 5.986-.827zm-6.834.877l.93-1.619.134.066c.333-.68.532-1.319.596-1.913.067-.603-.035-1.15-.306-1.638-.27-.49-.723-.89-1.356-1.202-.651-.322-1.262-.451-1.83-.388-.567.063-1.079.298-1.534.703-.456.404-.862.969-1.217 1.692l-1.744 3.537 10.543 5.198.638-1.295-4.775-2.354.42-.85zm-1.095.208l-3.36-1.656 1.18-2.393c.302-.612.676-1.023 1.123-1.234.447-.21.95-.176 1.513.101.562.277.9.656 1.014 1.136.113.48.014 1.036-.298 1.668z"/></g><g><path fill="#fff" d="M44.625 51.768l-1.042-.899.295-.342-7.86-6.778-.941 1.092 8.901 7.677.942-1.091zm3.09-5.687l1.043.898-3.838 4.447-1.042-.899z"/></g><g><path fill="#fff" d="M53.507 43.363l-2.512-3.648.252.127.967-.666-.028-.277 2.51 3.646zm-2.638-3.83l1.19-.819.127.185-.837-8.32-1.397.96.77 6.178.325.592-.194.132-.423-.524-5.496-2.924-1.396.96 7.457 3.762z"/></g><g><path fill="#fff" d="M73.424 35.815c-.888.115-1.657.056-2.307-.177a3.16 3.16 0 0 1-1.568-1.193c-.395-.565-.65-1.296-.767-2.196l1.531-.198c.118.91.43 1.568.933 1.972.503.403 1.194.548 2.07.434.755-.096 1.327-.356 1.719-.78.39-.421.546-.944.465-1.564-.066-.512-.286-.9-.66-1.17-.372-.267-.94-.426-1.702-.474l-1.347-.08c-1.023-.06-1.825-.325-2.405-.79-.58-.469-.923-1.12-1.03-1.95-.089-.689.001-1.318.271-1.889.271-.57.693-1.04 1.266-1.407.572-.368 1.264-.603 2.074-.708.865-.111 1.62-.053 2.264.174a3.084 3.084 0 0 1 1.55 1.189c.389.564.642 1.285.755 2.162l-1.532.198c-.078-.6-.234-1.088-.469-1.463a1.87 1.87 0 0 0-.966-.79c-.408-.152-.901-.19-1.478-.115-.798.104-1.39.366-1.776.788-.385.422-.539.939-.46 1.55.066.497.29.885.675 1.156.385.273.963.432 1.737.479l1.314.084c1.014.073 1.81.34 2.389.803.578.46.924 1.124 1.035 1.99.091.688.007 1.31-.248 1.868-.255.559-.667 1.02-1.234 1.387-.566.366-1.266.604-2.1.71z"/></g><g><path fill="#fff" d="M84.764 35.839c-1.443-.186-2.465-.836-3.067-1.946-.6-1.11-.772-2.676-.51-4.696.172-1.343.483-2.442.932-3.3.448-.855 1.037-1.466 1.767-1.835.73-.368 1.595-.486 2.594-.357.81.106 1.493.377 2.052.816.558.44.959 1.012 1.2 1.72.242.71.306 1.51.19 2.396l-1.48-.192c.08-.621.05-1.176-.091-1.663a2.304 2.304 0 0 0-.746-1.17c-.357-.295-.791-.475-1.302-.542-.688-.09-1.275.004-1.761.279-.487.276-.884.749-1.19 1.421-.306.67-.53 1.544-.669 2.62-.208 1.622-.128 2.843.24 3.663.368.821 1.034 1.293 2.001 1.419.788.102 1.438-.086 1.951-.568.514-.48.83-1.198.954-2.153l1.482.192c-.111.866-.377 1.61-.795 2.233a3.782 3.782 0 0 1-1.607 1.374c-.653.293-1.368.39-2.145.289z"/></g><g><path fill="#fff" d="M97.58 39.275l1.94-4.826.484.194.514-1.276-.484-.195 1.93-4.795 1.338.539-4.383 10.899zm2.454-6.103l-.513 1.277-4.454-1.794.513-1.277zm-5.357-.674l.514-1.277.39.157 1.928-4.796-1.34-.54-4.383 10.9 1.34.54 1.94-4.827z"/></g><g><path fill="#fff" d="M102.026 41.551l.778-1.052 2.497 1.846 5.426-7.343-2.5-1.846.779-1.052 6.157 4.55-.778 1.054-2.497-1.847-5.425 7.342 2.499 1.847-.779 1.053z"/></g><g><path fill="#fff" d="M111.086 48.97l9.146-7.37 2.562 3.176c.471.583.773 1.177.909 1.78.132.603.1 1.182-.102 1.731-.203.551-.57 1.041-1.1 1.47-.532.429-1.09.685-1.678.769a3.011 3.011 0 0 1-1.72-.263c-.562-.26-1.078-.682-1.548-1.265l-2.056-2.549 1.07-.864 2.035 2.524c.458.567.947.887 1.468.963.522.076 1.02-.079 1.501-.465.478-.386.733-.84.766-1.363.032-.521-.18-1.065-.638-1.632l-2.035-2.521.805.17-8.478 6.834z"/></g><g><path fill="#fff" d="M117.635 58.02l10.716-4.818 1.675 3.72c.308.684.45 1.335.428 1.953a3.023 3.023 0 0 1-.536 1.649c-.336.483-.815.863-1.437 1.143-.622.28-1.228.386-1.816.32a3.006 3.006 0 0 1-1.6-.691c-.476-.392-.87-.93-1.178-1.615l-1.344-2.984 1.255-.565 1.331 2.955c.299.664.69 1.099 1.176 1.303.484.205 1.008.182 1.57-.07.561-.252.923-.627 1.086-1.124.163-.496.095-1.077-.205-1.74l-1.33-2.954.737.368-9.935 4.466z"/></g><g><path fill="#fff" d="M121.72 68.533l11.582-1.984 1.18 6.85-1.358.232-.934-5.426-3.738.64.905 5.26-1.358.233-.905-5.26-3.772.645.934 5.426-1.358.232z"/></g><g><path fill="#fff" d="M123.041 79.396l11.71 1.022-.341 3.93c-.069.801-.242 1.475-.52 2.017-.277.544-.669.947-1.174 1.212-.507.265-1.122.366-1.847.302-.702-.062-1.268-.271-1.698-.628-.43-.358-.723-.83-.881-1.417-.155-.577-.201-1.244-.139-2l.152.014.278-1.846-.444.242.082-.948-5.302-.462zm5.113 4.405l.08-.902-.143-.114.046-.541-5.606 3.054-.16 1.84 5.278-2.942.269-.382.233.02.003-.033zm1.142.252c-.06.7.049 1.255.328 1.663.279.405.73.635 1.355.69.625.055 1.107-.096 1.448-.455.339-.358.538-.878.597-1.557l.23-2.658-3.73-.326z"/></g><g><path fill="#fff" d="M118.498 101.338l7.62 4.793-.965 1.534c-.339.54-.79.913-1.35 1.122-.561.21-1.196.243-1.907.1-.711-.143-1.454-.457-2.231-.947-.778-.49-1.384-1.022-1.82-1.6-.437-.579-.683-1.166-.737-1.762-.056-.596.086-1.165.426-1.705zm-2.059.688c-.53.843-.79 1.695-.78 2.553.009.858.287 1.683.833 2.477.546.793 1.335 1.515 2.37 2.163 1.032.65 2.024 1.05 2.975 1.197.951.15 1.815.042 2.593-.32.776-.366 1.431-.968 1.96-1.811l1.662-2.642-9.952-6.259z"/></g><g><path fill="#fff" d="M111.441 108.871l8.053 8.564-5.062 4.76-.942-1.004 4.01-3.77-2.601-2.765-3.887 3.655-.943-1.004 3.887-3.655-2.623-2.788-4.01 3.769-.943-1.004z"/></g><g><path fill="#fff" d="M99.943 117.405c.786-.428 1.525-.65 2.215-.669a3.166 3.166 0 0 1 1.893.548c.571.383 1.074.973 1.507 1.77l-1.356.738c-.438-.806-.966-1.308-1.582-1.5-.614-.196-1.31-.082-2.086.34-.668.363-1.11.813-1.32 1.348-.212.536-.167 1.08.131 1.63.247.453.592.735 1.037.85.445.116 1.032.058 1.76-.172l1.283-.41c.976-.315 1.82-.359 2.528-.133.71.227 1.263.708 1.664 1.447.333.61.475 1.228.43 1.859a3.37 3.37 0 0 1-.67 1.77c-.403.549-.963 1.02-1.68 1.41-.766.415-1.491.635-2.173.655a3.082 3.082 0 0 1-1.875-.549c-.566-.386-1.062-.967-1.485-1.745l1.357-.736c.29.531.611.929.965 1.195.355.265.75.395 1.186.388.435-.008.908-.15 1.42-.428.708-.385 1.165-.844 1.371-1.376.208-.533.163-1.07-.13-1.612-.24-.442-.59-.72-1.047-.835-.458-.114-1.055-.055-1.793.182l-1.257.395c-.97.299-1.809.337-2.515.116-.707-.222-1.268-.716-1.685-1.483-.331-.61-.479-1.221-.443-1.833.037-.612.252-1.191.65-1.739.396-.547.962-1.02 1.7-1.42z"/></g><g><path fill="#fff" d="M93.345 120.766l.319 1.27-3.011.754 2.222 8.86 3.012-.754.319 1.27-7.424 1.858-.32-1.27 3.013-.755-2.223-8.86-3.01.755-.32-1.27z"/></g><g><path fill="#fff" d="M78.982 122.757c1.264.013 2.239.55 2.922 1.61.682 1.06 1.015 2.574.994 4.543-.013 1.355-.2 2.486-.562 3.395-.36.907-.888 1.587-1.581 2.039-.692.453-1.559.672-2.6.66-.795-.009-1.497-.197-2.109-.568a3.626 3.626 0 0 1-1.402-1.551c-.325-.664-.482-1.42-.474-2.272l1.477.017c-.01.928.21 1.657.659 2.189.448.53 1.068.8 1.863.81.716.006 1.309-.155 1.776-.486.468-.331.82-.846 1.055-1.55.236-.702.361-1.602.372-2.698.015-1.6-.204-2.793-.661-3.576-.457-.783-1.15-1.178-2.079-1.189-.782-.009-1.404.29-1.863.895-.46.604-.733 1.472-.823 2.602l2.937.03-.013 1.362-4.314-.047.06-6.01 1.46.016-.413 2.715.235.003c.14-.66.347-1.205.62-1.64.273-.433.615-.76 1.026-.979.41-.219.89-.326 1.438-.32z"/></g><g><path fill="#fff" d="M71.238 122.479l-3.086 11.335-1.393-.38.437.12.063-1.444-.13-.036 2.717-9.976zm-5.182-1.415l1 9.425-.153 1.523.226.062-.37 1.36-.843-.23-1-9.425.158-1.54-.226-.062.366-1.344zm-1.37 1.07l.09-1.42.438.12v-.001l-1.393-.38-3.086 11.336 1.391.38 2.722-9.992z"/></g></g></g></g></svg>