<svg xmlns="http://www.w3.org/2000/svg" width="353" height="54.147" viewBox="0 0 353 54.147">
  <g id="waltz-creative-logo-horiz-white" transform="translate(7935 2175)">
    <g id="Waltz-Logo-R-Primary-Horiz-White-WEB-FINAL" transform="translate(-7935 -2175)">
      <path id="Path_45754" data-name="Path 45754" d="M153.943,53.391H143.92V.17h10.023Z" transform="translate(-47.33 -0.056)" fill="#fff"/>
      <path id="Path_45755" data-name="Path 45755" d="M188.869,52.711a19.226,19.226,0,0,1-6.51,1.3c-8.6,0-11.913-3.678-11.913-12.4V24.121H163.2V14.946h7.246V5.49L179.641,0V14.946h9.173v9.174h-9.173v15.57c0,3.792,1.644,5.148,4.3,5.148a9.387,9.387,0,0,0,4.87-1.215v9.06Z" transform="translate(-53.671)" fill="#fff"/>
      <path id="Path_45756" data-name="Path 45756" d="M54.067,4.89h-10.7l-9.4,47.959-6.06-27.121L32.557,4.89h-1.7L27.007,21.876,23.215,4.89H21.456l4.7,20.839L20.1,52.849,10.7,4.89H0L10.02,54.943H21.342l5.664-25.369,5.718,25.369H44.047Z" transform="translate(0 -1.608)" fill="#fff"/>
      <path id="Path_45757" data-name="Path 45757" d="M207.825,50.693,237.093,32.86V22.27H206.127v9.8h29.1L205.67,50.014V60.659h31.821V50.693Z" transform="translate(-67.638 -7.324)" fill="#fff"/>
      <path id="Path_45758" data-name="Path 45758" d="M116.909,52.17c-1.7,0-2.543-.671-2.543-3.282V35.983c0-10.134-6.174-14.893-16.932-14.893-9.457,0-16.108,4.362-20.323,11.409l8.772,4.839c2.268-5.094,5.5-7.812,11.321-7.812,5.611,0,7.927,2.718,7.927,6.228h0c0,1.644-2.261,2.832-5.886,3.678-1.926.456-4.134.906-5.945,1.248l-1.129.228c-1.02.221-7.308,1.919-10.738,4.355a8.262,8.262,0,0,0-3.4,4.027,5.431,5.431,0,0,0-.228.671,10.73,10.73,0,0,0-.335,2.685c0,4.926,3.624,8.436,10.47,8.436h.624c.114,0,.967-.114,1.074-.114,5.664-.731,12.174-5.208,15.174-14.832-.054,1.644-.168,3.4-.168,5.094,0,7.195,3.168,9.571,8.551,9.571a14.965,14.965,0,0,0,5.832-.96V51.667A4.025,4.025,0,0,1,116.909,52.17ZM87.58,47.983h0c0-4.027,4.362-5.155,10.135-6.342,3.57-.731,6.04-1.524,7.382-3.168v2.55h0c-1.073,7.752-4.865,11.886-10.737,11.946H94.3c-4.529-.06-6.711-2.1-6.711-4.987Z" transform="translate(-25.359 -6.936)" fill="#fff"/>
      <path id="Path_45759" data-name="Path 45759" d="M281.937,54.808a4.779,4.779,0,0,1-4.154-1.94,9.832,9.832,0,0,1-1.406-5.792,12.633,12.633,0,0,1,.636-4.3,5.074,5.074,0,0,1,1.92-2.577,5.666,5.666,0,0,1,3.229-.859,5.2,5.2,0,0,1,2.727.671,4.533,4.533,0,0,1,1.772,1.96,6.762,6.762,0,0,1,.608,2.967h-2.055a4.943,4.943,0,0,0-.358-2.014,2.752,2.752,0,0,0-1.063-1.282,2.926,2.926,0,0,0-1.631-.45,3.341,3.341,0,0,0-2.071.6,3.6,3.6,0,0,0-1.2,1.9,11.693,11.693,0,0,0-.387,3.356,8.911,8.911,0,0,0,.835,4.436,2.839,2.839,0,0,0,2.619,1.39,2.689,2.689,0,0,0,2.223-.96,4.206,4.206,0,0,0,.8-2.725h2.053a6.412,6.412,0,0,1-.632,2.926,4.768,4.768,0,0,1-1.79,1.98A4.96,4.96,0,0,1,281.937,54.808Z" transform="translate(-90.888 -12.935)" fill="#fff"/>
      <path id="Path_45760" data-name="Path 45760" d="M314.548,48.107v-.323a7.476,7.476,0,0,0,2.391-.389,3.349,3.349,0,0,0,1.693-1.262,3.782,3.782,0,0,0,.6-2.2,4.318,4.318,0,0,0-.572-2.322A3.356,3.356,0,0,0,317,40.268a7.085,7.085,0,0,0-2.619-.429H309.32V54.671h2.015V48h1.054l4.309,6.658h2.544L315.079,48.4Zm-3.222-6.376h3.308a2.91,2.91,0,0,1,1.889.55,2.028,2.028,0,0,1,.672,1.672,2.1,2.1,0,0,1-.672,1.677,2.915,2.915,0,0,1-1.922.571h-3.288Z" transform="translate(-101.723 -13.1)" fill="#fff"/>
      <path id="Path_45761" data-name="Path 45761" d="M341.49,54.652V39.82h8.821v1.906h-6.828v4.557H350.1v1.886h-6.612v4.577h6.828v1.906Z" transform="translate(-112.305 -13.096)" fill="#fff"/>
      <path id="Path_45762" data-name="Path 45762" d="M380.391,54.652h2.161L378.124,39.82h-3.156L370.54,54.652H372.7l1.5-5.255h4.7Zm-5.661-7.161,1.529-5.369.124-1.108h.322l.128,1.108,1.525,5.369Z" transform="translate(-121.856 -13.096)" fill="#fff"/>
      <path id="Path_45763" data-name="Path 45763" d="M414.212,39.81H402.43v1.913h4.892V54.649h1.993V41.723h4.9Z" transform="translate(-132.344 -13.092)" fill="#fff"/>
      <path id="Path_45764" data-name="Path 45764" d="M435.74,54.652V52.847h3.841V41.619H435.74v-1.8h9.666v1.8h-3.832V52.847h3.832v1.805Z" transform="translate(-143.297 -13.096)" fill="#fff"/>
      <path id="Path_45765" data-name="Path 45765" d="M470.27,54.652,466.05,39.82h2.117l3.408,12.543.11,1.1h.327l.093-1.1,3.4-12.543h2.135L473.4,54.652Z" transform="translate(-153.265 -13.096)" fill="#fff"/>
      <path id="Path_45766" data-name="Path 45766" d="M500.15,54.652V39.82h8.817v1.906h-6.824v4.557h6.629v1.886h-6.612v4.577h6.828v1.906Z" transform="translate(-164.48 -13.096)" fill="#fff"/>
      <path id="Path_45767" data-name="Path 45767" d="M518.829,44.7a2.663,2.663,0,0,1-1.012-1.041,3.084,3.084,0,0,1-.367-1.544h0a3.111,3.111,0,0,1,.367-1.55,2.562,2.562,0,0,1,1.017-1.041,3.062,3.062,0,0,1,2.939,0,2.49,2.49,0,0,1,1.021,1.041,3.107,3.107,0,0,1,.371,1.55h0a3.131,3.131,0,0,1-.371,1.544,2.55,2.55,0,0,1-1.021,1.041,3.059,3.059,0,0,1-2.939,0Zm2.683-.4a2.18,2.18,0,0,0,.849-.879,2.729,2.729,0,0,0,.309-1.342h0a2.728,2.728,0,0,0-.309-1.342,2.156,2.156,0,0,0-.849-.886,2.49,2.49,0,0,0-2.426,0,2.156,2.156,0,0,0-.849.886,2.724,2.724,0,0,0-.3,1.342h0a2.724,2.724,0,0,0,.3,1.342,2.153,2.153,0,0,0,.849.879A2.49,2.49,0,0,0,521.512,44.3Zm-2.187-.839V40.78H520.5a.991.991,0,0,1,.667.208.713.713,0,0,1,.261.57.7.7,0,0,1-.216.537,1.219,1.219,0,0,1-.668.242V42.4l.115.047.769,1.02h-.676l-.689-1.067h-.239V43.5Zm1.114-1.55c.287,0,.438-.114.438-.343a.307.307,0,0,0-.093-.235.422.422,0,0,0-.27-.081h-.672v.672Z" transform="translate(-170.166 -12.875)" fill="#fff"/>
    </g>
  </g>
</svg>
