<svg version="1.1" id="ribbon" xmlns="http://www.w3.org/2000/svg" xmlns:xlink="http://www.w3.org/1999/xlink" x="0px" y="0px"
	 viewBox="0 0 1902 3200" width="1902" height="3200" style="enable-background:new 0 0 1902 3200;" xml:space="preserve">
<style type="text/css">
	.st0{fill:#FFFFFF;}
</style>
<g>
	<polygon class="st0" points="0,3200 1902,3200 1901.9,0 1831.8,322.7 1316.5,541.4 1166.5,1015.9 661,1218.7 410.7,1780 0,1855.9 	
		"/>
	<g>
		<path d="M1900.7,6.2c-20,94.4-38.7,172.3-57.1,238.3c-6.7,24.2-19.5,66.7-20.3,67.4c-0.3,0.3-15.5,6-21,7.8
			c-20.7,7-41.1,12.8-68.9,19.4c-15.4,3.7-28.6,6.6-57.6,12.8c-8.2,1.8-18.8,4-23.5,5c-61.9,13.4-99.3,23.6-134.8,36.8
			c-22.5,8.4-39.9,16.1-58.3,26.1c-13.8,7.5-22.6,13.1-32.3,20.6c-6.3,4.8-11.7,9.2-11.7,9.3c0.7-0.4-87.3,62.9-144.8,114.5
			c0,0,0,0,0,0l0,0c-2.2,1.7-4.7,3.7-7.8,6.1c-10.6,8.4-13.9,11.1-18,15c-5.2,5.1-10.1,10.5-14.8,16.2
			c-9.9,12.7-18.2,26.5-24.7,41.2c-7.1,15.7-24.1,69.7-24.1,123.4c0,64.1-6.6,127.2-10.9,149.3c-6.5,33.1-15.2,63.6-25.7,89.8
			c-1.7,4.2-5.7,13.6-5.9,13.8l-0.1,0l0.1,0l0,0l-0.1,0c-0.3,0.1-0.5,0.2-0.8,0.3l0,0c-1.7,0.5-5.5,1.5-10.2,2.7
			c-28.2,7-59.9,12.7-104.7,19c-8.9,1.3-11.7,1.6-36.7,5c-49.6,6.7-71.9,10.1-96.5,14.9c-66.4,13-112.1,31.8-145.8,59.8
			c-7.1,5.9-9.5,8.2-17.4,16.7c-4.5,4.8-10.1,11-15.2,16.7c0,0,0,0,0,0c-5.8,6.6-5.8,6.6,0,0c-19,18.8-29.8,33.5-29.8,33.5
			c0,0-13.9,15.7-10.8,12.2c-5,5.6-12.2,13.7-22.8,25.6c0.1-0.1-0.2,0.3,0,0c-2.7,3-5.2,5.8-7.6,8.4c-3.9,4.4-3.9,4.4,0,0
			c-8,8.9-14.4,16-22.4,25.1c0,0,0,0,0,0c0,0,0,0,0,0c-0.6,0.5-5.3,6-8.1,9l0,0c-1.2,1.3-2.2,2.5-3.2,3.8c0,0,0.1-0.1,0.1-0.1
			c0,0-0.1,0.1-0.1,0.1c-0.1,0.1-0.1,0.2-0.2,0.3c0.1-0.1,0.1-0.2,0.2-0.3c-1.8,2-3.6,4-5.4,6.1c-11.6,11-26.7,29.4-43.7,60.1
			c-18.1,32.8-48.3,124.5-48.3,124.5c-21.7,60-101.4,273.4-114.8,298.6c-2.1,4-7.2,13.1-7.4,13.3l-0.1,0l0.1,0l0,0l-0.1,0
			c-0.3,0.1-0.6,0.1-0.8,0.2c-1.7,0.3-5.8,0.7-10.6,1.6c-64,11.8-218.4,11.2-243.7,13.4c-55.7,4.8-97.9,15-131.7,31.9v104
			c12.4-1.5,25.9-3,49.4-5.4c8.4-0.9,19.3-2,24.2-2.5c63.7-6.8,102.5-13,139.7-22.4c23.6-6,41.9-11.9,61.5-20
			c14.7-6.1,24.2-10.8,34.8-17.3c6.8-4.2,11.2-7.3,10.5-6.9c-0.2,0.1-0.3,0.2-0.3,0.2c0,0,12.7-7.7,29.3-17.6
			c66.9-39.9,111.1-68.9,133.9-85c1.8-1.1,3.8-2.4,6.1-3.8c11.6-7.3,15.2-9.7,19.7-13.2c5.8-4.6,11.4-9.5,16.6-14.7
			c11.3-11.7,21.2-24.7,29.3-38.8c19.5-33.2,43.3-130.7,43.3-130.7c20.2-95.3,39.1-174.1,57.7-240.7c6.8-24.5,19.8-67.6,20.5-68.3
			c0.1-0.1,0.9-0.9,2.3-2.1c4.9-1.9,13.7-5.1,17.5-6.4c20.7-7,41.1-12.8,68.9-19.4c15.4-3.7,28.6-6.6,57.6-12.8
			c8.2-1.8,18.8-4,23.5-5.1c61.9-13.4,99.3-23.6,134.8-36.8c22.5-8.3,39.9-16.1,58.3-26.1c13.8-7.5,22.7-13.1,32.3-20.6
			c6.3-4.9,101.2-74.2,156.4-123.8c0,0,0,0,0,0c14-12.6,26.5-24.7,35.8-35.3c33.5-38.2,46.3-131.4,48.7-177.3l-0.2,0
			c2.9-54.3,8.1-98.3,16-138.6c6.5-33.1,15.2-63.6,25.7-89.8c1.7-4.1,5.7-13.6,5.9-13.8l0.1,0l-0.1,0l0,0l0.1,0
			c0.3-0.1,0.5-0.2,0.8-0.3c1.7-0.5,5.5-1.5,10.2-2.7c28.2-7,59.9-12.7,104.7-19c8.9-1.2,11.7-1.6,36.7-5
			c49.6-6.7,71.9-10.1,96.5-14.9c66.4-13,112.1-31.8,145.8-59.8c7.1-5.9,9.5-8.2,17.4-16.7c4.5-4.8,10.1-11,15.2-16.7c0,0,0,0,0,0
			c5.8-6.6,5.8-6.6,0,0c19-18.8,29.7-33.5,29.7-33.5l0.1-0.1c0,0,0,0,0,0c1.3-1.3,6.4-7,10.8-12.2c-6.8,7.6-9.4,10.5-10.3,11.6
			c1-1.1,3.5-3.9,10.3-11.6c3.1-3.6,5.9-6.8,7-8.2c-1.1,1.4-3.9,4.6-7,8.2c5-5.6,12.2-13.7,22.8-25.6c-0.1,0.1,0.1-0.3,0.6-0.9
			c-0.2,0.3-0.4,0.6-0.6,0.9c2.7-3,5.2-5.8,7.6-8.4c3.9-4.4,3.9-4.4,0,0c8-8.9,14.4-16,22.4-25.1c0,0,0,0,0,0c0,0,0,0,0,0
			c0.5-0.5,1.1-1.1,1.5-1.7c0.9-1,3.8-4.3,6.5-7.4v0c1.2-1.3,2.1-2.5,3.2-3.8c0,0,0,0,0,0c0,0,0,0,0,0c3.3-3.7,6.7-7.5,10-11.2V72.9
			V56.8V0L1900.7,6.2z M1880.7,290.5c0.1-0.2,1-1.3,2-2.6C1881.7,289.2,1880.8,290.3,1880.7,290.5z"/>
	</g>
	<g>
		<g>
			<g>
				<path class="st0" d="M1288.7,557.6L1288.7,557.6L1288.7,557.6l-0.2,0.2l-2,2.6c-20.9,27.9-36.6,65-46.9,110.9
					c-6.4,28.4-10.8,60.9-13.2,97.1l0.1,0c-0.2,4-0.4,8-0.6,11.9l0.1,0c-5.3,97.3-20.9,169.8-49,222.7c-1.1,2.1-2.4,4.4-2.8,5.1
					c0,0,0,0,0,0c-0.3,0.4-0.5,0.8-0.6,1.3c0.1,0,2.5-0.8,5.5-2c0.2-0.1,0.3-0.1,0.5-0.2l5.9-2.2l2.3-3.8
					c19.4-32.6,33.8-74.2,42.8-124.3c5.2-28.9,8.7-60.1,10.8-95.5c0.2-3.9,0.4-7.8,0.6-11.8c0,0,0,0,0,0l0.1,0
					c5.9-94.8,23.8-163.7,55.1-212.2c1.2-1.9,2.5-3.8,2.8-4.3c0.2-0.3,0.4-0.6,0.6-1c-0.1-0.1-6.3,2.6-10.1,4.5L1288.7,557.6z"/>
				<path class="st0" d="M1791.2,389.2c-0.2,0.2-0.4,0.3-0.7,0.5c-0.2,0.1-0.4,0.3-0.5,0.4c0,0-0.1,0.1-0.1,0.1
					c-0.7,0.6-2.8,2.2-4.8,3.7c-18.7,14.3-40.2,25.8-66.8,35.8c-19.2,7.2-39.8,13.2-65.2,18.9c-17.4,3.9-37.1,7.6-60.2,11.5
					c-8.1,1.4-19.3,3.2-34.4,5.5c-1.8,0.3-3.6,0.6-5.5,0.9c-8,1.3-15.2,2.4-21.7,3.4c-28.7,4.6-44,7.2-60.6,10.4
					c-48,9.2-84.2,19.5-116.5,32.8c-3,1.2-6,2.5-9,3.9c-7,3.2-14,6.6-20.4,10c-7.5,4-14.3,8-19.4,11.6c-0.1,0.1-0.2,0.1-0.3,0.2
					c-0.5,0.3-1,0.6-1.3,0.9c-0.6,0.4-1,0.6-1,0.6c0,0,0,0,0,0c0,0,0,0,0,0c0,0,1.2-1,3.1-2.5c3-2.4,7.6-6.1,11.9-9.4
					c5.4-4.3,11.1-8.2,17.1-11.7c1.4-0.8,2.8-1.6,4.2-2.4c7.7-4.4,15.8-8.5,24.3-12.5c31.3-14.5,68-26.1,113.5-35.9
					c19.9-4.3,37.2-7.6,69.1-13c7.4-1.3,15.5-2.6,24.7-4.1c23.8-4,29.8-5,43.7-7.5c18.9-3.4,31.5-5.8,45.4-8.8
					c34.9-7.6,63.6-16.2,87.9-26.5c12.1-5.1,23.1-10.7,33.4-16.8c2.8-1.7,6.4-4,9.6-6.1c2-1.3,3.8-2.5,5.2-3.5l2.3-1.7l1.1-2
					c1.6-2.9,4.5-8.8,4.3-8.8c0,0-0.1,0-0.1,0c-0.2,0.1-0.4,0.2-0.5,0.3c0,0,0,0,0,0c0,0,0,0,0,0c-0.3,0.2-2.4,1.5-4.7,2.9
					c-16.3,9.8-34.3,18.2-55.6,25.8c-18,6.4-38.4,12.2-61.8,17.6c-0.1,0-0.1,0-0.2,0c0,0,0,0-0.1,0c-5.3,1.2-10.7,2.4-16.3,3.6
					c-0.9,0.2-1.7,0.4-2.6,0.5c-17.2,3.6-31.2,6.2-69.9,13c-33,5.8-46.7,8.3-60.2,10.9c-2.9,0.6-5.8,1.1-8.9,1.8
					c-14.3,2.9-27.7,5.8-40.3,8.9c-16.8,4.1-32.2,8.4-46.5,13c-20.2,6.5-38.2,13.6-54.9,21.5c-2.8,1.3-5.6,2.7-8.4,4.1
					c-10,5.1-19.4,10.5-26.2,15.2c-0.3,0.2-0.6,0.4-0.8,0.6c-0.5,0.4-1,0.7-1.6,1c-0.2,0.1-0.4,0.3-0.6,0.4c0,0,0,0,0,0c0,0,0,0,0,0
					c0.2-0.2,5.5-4.4,10.6-8.5c1.2-1,2.5-1.9,3.6-2.8c3-2.3,6.1-4.6,9.3-6.7c3.7-2.5,7.5-4.8,11.4-7c39.3-22.5,86.4-39.1,151.4-53.3
					c20.5-4.5,37.3-7.8,78.4-15.4c47.6-8.8,67-12.7,89.9-18.1c37.9-9,67.4-18.9,92.5-30.9c6.6-3.2,14.1-7.1,17.1-9
					c0.8-0.5,1.3-0.8,1.3-1c0-0.1,0.1-0.3,0.3-0.6c0.4-1,1.2-3.1,2-5.1c0.9-2.3,1.6-4.4,1.6-4.5c0-0.1-0.3,0-0.7,0.2c0,0,0,0,0,0
					c-0.2,0.1-0.7,0.4-1.4,0.7c-1,0.5-2.4,1.2-3.9,1.9c-6.3,3.1-12.9,6-19.7,8.8c-22.7,9.3-48.8,17.2-81.2,24.8
					c-6.6,1.6-12.8,3-19.4,4.4c-1.2,0.3-2.5,0.5-3.7,0.8c-11.9,2.5-25.6,5.3-46.3,9.3c-2.3,0.4-4.6,0.9-7,1.4
					c-19.6,3.8-32.6,6.3-43,8.4c-9.6,1.9-16.9,3.5-25.1,5.2c-32.7,7-60.1,14.2-84.5,22.3c-15.2,5-29.2,10.3-42.5,16.1
					c-17.3,7.5-35.1,16.9-47.2,24.7c-1.4,0.9-2.7,1.8-3.9,2.6c-1.6,1.1-3,2-3,2c0-0.1,4.8-3.9,11.8-9.4c5.1-4,10.4-7.8,15.8-11.2
					c2-1.3,4-2.5,6.1-3.7c20.7-12.1,43.4-22.5,69.5-31.8c18.7-6.7,39.1-12.8,61.9-18.7c24.4-6.2,43.3-10.4,95.6-20.9
					c36.3-7.3,47.9-9.7,63.6-13.2c0.5-0.1,1-0.2,1.6-0.4c2.5-0.6,4.9-1.1,7.3-1.7c37.6-8.8,66.9-17.9,92-28.6
					c4.2-1.8,10.8-4.8,11-4.9c0,0,0.4-1.1,0.9-2.6c0.7-2.2,1.7-5.2,2.2-6.7c0.2-0.5,0.3-0.9,0.3-1c0-0.1,0-0.1,0-0.1
					c-0.2-0.1-0.9,0.2-2.8,1c-11.1,4.7-25,9.8-38.6,14c-14.8,4.7-32.3,9.4-50.6,13.8c-19.3,4.6-29.6,6.9-62.7,13.7
					c-42.5,8.8-52.6,11-70.2,15.1c-52.8,12.2-91.9,24.5-126.5,40.1c-2.2,1-4.4,2-6.6,3c-0.4,0.2-0.8,0.4-1.3,0.6
					c-16.3,7.7-33.4,17.3-43,24.2l-0.3,0.2c-5,3.6-89.4,64.3-146.9,115.9c6.5-5.1,9.6-7.5,12.3-9.4c0.4-0.3,0.9-0.6,1.3-0.9
					c8.9-6.1,21.9-13.2,35.9-19.5c2.7-1.2,5.4-2.4,8.1-3.6c3.4-1.5,6.9-2.9,10.5-4.3c34.3-13.4,74.4-23.5,128.6-32.6
					c9.4-1.6,18.6-3,31.8-5c1-0.1,2-0.3,3-0.5c7.2-1.1,15.6-2.3,25.7-3.8c9.7-1.4,18.4-2.7,26.4-3.9c26.8-4,44.7-6.9,60.1-9.9
					c5.6-1.1,10.8-2.1,16.1-3.2c2.9-0.6,5.8-1.2,8.7-1.9c53.9-11.9,94.3-28.3,125.1-50.8c6-4.4,11.7-9.1,17-14l0.5-0.5l2.4-2.2
					l2.8-3.9C1789.5,391.9,1791.3,389.2,1791.2,389.2z M1342.6,508.5c0,0,0.1-0.1,0.1-0.1c0.1,0,0.1,0,0,0.1c0,0.1-0.1,0.1-0.1,0.2
					c0,0-0.1,0.1-0.1,0.1C1342.4,508.7,1342.5,508.6,1342.6,508.5z"/>
				<path class="st0" d="M1336.8,538.7c-0.3,0.2-3,5.8-5.3,10.7c-8.5,18.1-15.9,38.4-22.2,60.8c-3.6,13-6.8,26.8-9.7,41.3
					c-6.8,35-11.4,74.5-13.9,120.6c0,0-0.6,12.4-0.6,12.4c0,0-2.1,42-10.8,83c-9,42.1-24.9,83.5-40.2,105.1
					c-3.3,4.8-6.9,9.3-10.6,13.7l-1.9,2.2l1.7-0.9c0.3-0.2,0.9-0.5,1.6-0.9c0,0,0,0,0,0c0,0,0,0,0,0c0.6-0.3,1.3-0.7,1.9-1.1
					c0.7-0.4,1.3-0.8,2-1.2l3.9-2.3l3.6-3.7l0,0l0,0c38.3-38.9,55-103.1,61.9-192.9c0.3-3.9,0.9-11.9,0.9-12l0,0
					c0.3-5.8,0.6-11.4,1-17.1c0,0,6.7-73.7,12.4-104.7c7.9-43.4,18.9-80.2,33.2-110.9c1.4-3.1,2.5-5.6,2.5-5.7c-0.1-0.1-3.7,1-9,2.7
					C1338.5,538,1337.6,538.3,1336.8,538.7z"/>
				<path class="st0" d="M1321.4,549.1c0.1-0.2,0.2-0.4,0.3-0.6c1.1-2,2.2-4,2.5-4.6c0.3-0.4,0.5-0.8,0.6-1.3c-0.1,0-2.8,0.9-6,2.2
					l-5.9,2.2l-0.3,0.6l-2,3.3c-18.6,31.1-32.4,70.4-41.5,117.5c-0.4,2.2-0.9,4.5-1.3,6.8c-5.2,28.9-8.7,60.1-10.8,95.5l0,0l-0.1,0
					c-0.2,4-0.4,7.9-0.7,11.8c-5.9,94.8-23.8,163.7-55.1,212.2c-1.2,1.9-2.5,3.8-2.8,4.3c-0.2,0.3-0.4,0.6-0.6,1c0,0,0,0,0.1,0
					c0.2,0,0.6-0.2,1.2-0.5c2-0.9,6-2.6,8.8-4l1.9-0.9l1.2-1.6l0.9-1.2c20.9-27.9,36.6-65,46.9-110.9c0.2-1,0.4-2,0.6-3
					c6-27.6,9.5-59.5,11.7-94.4c0.2-3.9,0.5-7.8,0.7-11.8l-0.1,0h0c3.5-63.5,11.7-116.6,24.8-160.4
					C1303.3,588.1,1311.6,567.4,1321.4,549.1z"/>
				<path class="st0" d="M1865.9,215.5c-11.7,41.8-27,90.2-35.6,112.7c-7.6,19.9-17.4,37.5-29.7,53c-2.3,2.9-7.5,8.9-13.3,15.5
					c19-18.8,29.7-33.5,29.7-33.5l0.1-0.1c0,0,0,0,0,0c0,0,0,0,0,0c0.7-1,1.4-2,2.2-3l0,0c12.2-15.7,22-33.1,29-51.7
					c4.4-11.5,11.8-33,18.8-54.8c6.9-21.7,16.1-52.7,23.3-78.5c3.8-13.6,7.7-28.1,11.6-43.1v-58
					C1889.3,128,1877.9,172.8,1865.9,215.5z"/>
				<path class="st0" d="M1850.8,325.4C1850.8,325.4,1850.8,325.4,1850.8,325.4C1850.8,325.4,1850.8,325.4,1850.8,325.4
					L1850.8,325.4z"/>
				<path class="st0" d="M1865.5,289.3L1865.5,289.3c-1.8,4.7-3.8,9.3-5.9,13.7c-0.1,0.3-0.3,0.6-0.4,0.9c0,0.1-0.1,0.2-0.1,0.2
					c-6.7,14.1-14.8,27-24.2,38.7c0,0,0,0,0,0c-1.1,1.4-3.9,4.6-7,8.2c5-5.6,12.2-13.7,22.8-25.6c-0.1,0.1,0.1-0.3,0.6-0.9
					c0.5-0.7,1.1-1.5,1.6-2.1v0c11.8-15.1,21.1-31.5,28.7-50.6c4.4-11,12.4-33.9,19.2-54.4c0.4-1.1,0.7-2.3,1.1-3.4v-36.2
					c-8.6,29.4-17.1,56.4-25.2,80.1C1872.1,271.7,1868.3,282.2,1865.5,289.3z"/>
				<path class="st0" d="M1892,279c3.3-3.7,6.7-7.5,10-11.2v-1.3c-3.1,4.2-6.3,8.3-9.8,12.2C1892.1,278.8,1892.1,278.9,1892,279z"/>
				<path class="st0" d="M1871.9,300.5c-1.4,2-2.9,3.9-4.4,5.8c-1.3,1.6-5.4,6.3-9.2,10.7c8-8.9,14.4-16,22.4-25.1c0,0,0,0,0,0
					c0,0,0,0,0,0c0,0,0,0,0,0c0,0,0,0,0,0c0,0,0,0,0,0c0,0,0,0,0,0c0.1-0.2,1-1.3,2-2.6c0.1-0.1,0.2-0.2,0.3-0.3
					c0.3-0.3,0.5-0.7,0.8-1c6.8-8.8,12.9-18.2,18.2-28v-17.7c-1.9,5.1-3.5,9.4-4.9,12.8C1890.3,271.9,1882,286.8,1871.9,300.5z"/>
				<path class="st0" d="M1214.4,996.9c-9.9,6.8-24.6,14.7-40.3,21.5c-1.2,0.5-2.5,1.1-3.7,1.6c-1.7,0.7-3.4,1.4-5.1,2.1
					c-35.5,14.4-76.9,25.2-134,34.7c-15,2.5-29.7,4.8-60.5,9.3c-60.7,8.9-83.7,12.8-111.2,18.8c-64.6,14.3-109.7,34.9-142.1,64.8
					l-2.9,2.7l-2.8,3.9c-2.8,3.9-4.6,6.6-4.5,6.7c0.4-0.3,0.8-0.6,1.2-0.9c0.5-0.4,2.1-1.7,3.8-3c0.4-0.3,0.7-0.6,1.1-0.8
					c2.3-1.8,4.7-3.5,7.1-5.2c17-11.9,36.4-21.9,59.7-30.6c32.4-12.1,68.5-20.9,125.4-30.3c9.1-1.5,22-3.6,39.9-6.4
					c43.5-6.8,61.9-9.9,82.3-13.8c48-9.2,84.2-19.5,116.5-32.8c18.2-7.5,37.5-17.6,48.9-25.4c0.1-0.1,0.3-0.2,0.4-0.3
					c0.5-0.3,0.9-0.6,1.3-0.8c0.6-0.4,0.9-0.6,0.9-0.6c0,0,0,0,0,0c0,0,0,0,0,0c0,0,0,0,0,0c0,0.1-8,6.5-15,11.9
					c-6.7,5.3-13.8,10-21.3,14.2c-36.3,20.5-80,35.9-137.8,48.3c-24.2,5.2-44.6,9-92.2,16.9c-0.5,0.1-1,0.2-1.6,0.3
					c-0.2,0-0.4,0.1-0.6,0.1c-23.3,3.9-29.3,4.9-43.1,7.3c-18.9,3.4-31.5,5.8-45.4,8.8c-52.3,11.3-90.5,25-121.3,43.3
					c-3.7,2.2-8.7,5.4-12.3,7.9c-0.9,0.6-1.7,1.2-2.4,1.7l-2,1.4l-0.3,0.2l-1.1,2c0,0,0,0.1-0.1,0.1c-1.1,1.9-2.6,5-3.5,6.9
					c-0.5,1-0.8,1.8-0.7,1.8c0.1,0,0.2-0.1,0.3-0.1c0.1,0,0.1-0.1,0.2-0.1c0.1,0,0.1-0.1,0.2-0.1c0,0,0.1-0.1,0.2-0.1
					c0.3-0.2,0.8-0.5,1.4-0.9c0.8-0.5,1.9-1.2,3.1-1.9c22.7-13.7,48.8-24.7,82.1-34.3c15.6-4.5,32.7-8.7,51.8-12.7
					c4.3-0.9,8.2-1.7,12.4-2.5c13.7-2.8,28.9-5.5,60.2-11c33.7-6,47.3-8.4,61.1-11.1c2.6-0.5,5.2-1,8-1.6
					c10.4-2.1,20.3-4.2,29.8-6.4c34.4-7.9,63-16.5,88.3-26.6c8.2-3.3,16.1-6.7,23.6-10.3c2.2-1.1,4.5-2.2,6.7-3.3
					c10.7-5.4,20.7-11.1,27.9-16c0.4-0.3,0.8-0.6,1.2-0.8c0.2-0.1,0.4-0.2,0.6-0.4c0.4-0.2,0.8-0.5,1.2-0.7c0,0,0,0,0,0c0,0,0,0,0,0
					c-0.2,0.3-6.8,5.5-12.5,9.9c-0.6,0.5-1.2,0.9-1.7,1.3c-1.3,1-2.7,2-4,3c-5.3,3.9-10.9,7.5-16.6,10.7
					c-39.3,22.5-86.4,39.1-151.4,53.3c-20.5,4.5-37.3,7.8-78.4,15.4c-47.6,8.8-67,12.7-89.9,18.1c-37.9,9-67.4,18.9-92.5,30.9
					c-8.3,4-18.1,9.3-18.5,10c-0.2,0.4-2.6,6.7-3.5,9.2c-0.2,0.6-0.3,1-0.3,1c0,0.1,0.3,0,0.7-0.2c0.3-0.2,1.7-0.9,3.4-1.7
					c0.6-0.3,1.3-0.6,1.9-0.9c3.3-1.6,6.7-3.2,10.2-4.7c24.9-11.1,53.7-20.2,90.8-28.9c20.6-4.8,36.7-8.2,76.4-15.8
					c37.7-7.3,51.2-9.9,68-13.6c31.5-6.8,58.1-13.7,81.8-21.4c16.2-5.2,31.1-10.8,45.2-17c15.8-6.9,32.2-15.3,44-22.7
					c2.6-1.6,4.9-3.1,7-4.6c1.4-1,2.6-1.8,2.9-1.9c0,0,0.1,0,0.1,0c0,0,0,0,0,0l0,0c0,0,0,0,0,0c0,0.1-4.8,3.9-11.8,9.4
					c-4.3,3.4-8.8,6.6-13.3,9.6c-2.8,1.8-5.7,3.6-8.6,5.3c-12.8,7.4-26.3,14.3-41,20.6c-26,11.2-55.4,21-90.5,29.9
					c-24.4,6.2-43.3,10.4-95.6,20.9c-21.6,4.4-34.5,7-44.7,9.1c-7.5,1.6-13.5,2.9-20.5,4.5c-41.2,9.3-72.7,18.9-99.3,30.2
					c-1.5,0.6-3.3,1.4-5.1,2.2c-2.1,0.9-4,1.8-5.1,2.3c-0.5,0.2-0.8,0.4-0.9,0.4c-0.1,0.1-3.2,9.5-3.4,10.3c0,0,0,0.1,0,0.1
					c0,0,0.1,0,0.1,0c0.2,0,0.7-0.2,1.8-0.6c0.3-0.1,0.6-0.2,0.9-0.4c11.1-4.7,25-9.8,38.6-14c14.8-4.7,32.3-9.4,50.6-13.8
					c19.3-4.6,29.6-6.9,62.7-13.7c31.8-6.6,45.5-9.5,57.7-12.2c4.1-0.9,8.1-1.8,12.5-2.8c11.2-2.6,21.8-5.2,31.9-7.8
					c40.3-10.5,72.1-21.7,101.2-35.3c15.6-7.3,32.2-16.5,42.3-23.4c0,0,0,0,0,0c0.1-0.1,0.2-0.1,0.3-0.2c0.6-0.4,1.1-0.8,1.6-1.1
					l0,0c0,0,0.1-0.1,0.3-0.2c0.3-0.2,0.6-0.5,1-0.7c10.6-7.7,90.7-65.6,145.9-115.2c-3.3,2.6-5.7,4.5-7.7,6
					C1217.7,994.6,1216,995.8,1214.4,996.9z"/>
				<path class="st0" d="M1159.1,1014.5c0.1,0,0.2-0.1,0.2-0.1c0.8-0.2,1.6-0.5,2.3-0.9c0.3-0.3,3-5.8,5.4-10.7
					c13.5-28.5,24.1-62.7,31.8-102.1c0.1-0.5,0.2-1.1,0.3-1.6c6.6-34.9,11.2-131.2,11.2-131.2l0,0c6.7-92.7,28-159.2,64.7-202
					l1.9-2.2l-1.6,0.9c-0.9,0.5-3.4,1.9-5.6,3.2l-3.9,2.3l-3.6,3.7l0,0c-38.4,38.9-64.3,101.8-69.1,223.9
					c-3.5,88.4-15.1,155.7-37.7,207.9c-0.8,2-1.7,3.9-2.6,5.8c-1.4,3.1-2.5,5.6-2.5,5.7c0.1,0,3.4-0.9,8.1-2.4
					C1158.5,1014.7,1158.8,1014.6,1159.1,1014.5z"/>
			</g>
		</g>
		<g>
			<path class="st0" d="M418.9,1778.9c-38.6,11.7-82.7,18.4-144.1,22c-15.4,0.9-30.4,1.6-61.9,2.8c-62.1,2.3-85.7,3.8-114,6.9
				c-39,4.3-71.5,11.5-98.9,22.1v11.3c4.8-1.5,9.8-2.9,15-4.2c33.9-8.7,71.3-13.6,129.5-17c9.3-0.5,22.5-1.2,40.9-2.1
				c44.6-2.1,63.4-3.2,84.4-5c49.3-4.1,86.9-10.5,120.8-20.4c19.1-5.6,39.7-13.6,52-20.3c1.5-0.8,2.8-1.5,2.8-1.4
				c0,0.1-8.8,5.7-16.4,10.4c-7.3,4.6-15,8.6-22.9,12c-38.7,16.7-84.5,27.4-144,33.7c-25.3,2.7-46.4,4.2-96.3,7.1
				c-24.4,1.4-30.6,1.8-44.8,2.8c-19.4,1.3-32.4,2.4-46.7,4c-28.2,3-52.6,7.1-74.2,12.4v12.3c19.9-4.1,42.3-7.3,68-9.9
				c19-1.9,32.8-3,74.5-5.8c41.1-2.8,53-3.7,71-5.3c62.2-5.7,107.9-14.4,147.4-28.3c13.9-4.9,27.5-10.6,36.9-15.7
				c1-0.6,2.1-1.2,3.2-1.6c-0.3,0.3-9,5.8-15.6,9.8c-7.1,4.4-14.6,8.3-22.3,11.6c-42,18.4-91.2,30-158.2,37.3
				c-21.1,2.3-38.4,3.8-80.7,7c-48.9,3.7-68.9,5.5-92.5,8.5c-11.3,1.4-21.9,3-31.9,4.8v12.1c7.2-1.1,14.6-2.1,22.4-3.1
				c21.3-2.6,37.8-4.2,78.6-7.7c38.8-3.2,52.6-4.5,70-6.3c54.7-5.8,95.5-13.5,132.1-24.9c20.3-6.3,41.6-14.9,54.4-22
				c1.8-1,3.2-1.7,3.2-1.7c0,0.1-5.3,3.4-12.9,8.2c-7.6,4.8-15.5,9-23.7,12.6c-38,17-81.2,28.4-137.8,36.6
				c-25.2,3.6-44.7,5.8-98.5,10.7c-38.5,3.5-50,4.7-67.1,6.6c-7.2,0.8-14,1.7-20.7,2.6v11.5c18.1-2.3,29.3-3.5,61.5-6.7
				c43.8-4.3,54.1-5.4,72.4-7.6c57.9-7,100.3-15.8,138.7-29l0,0c17.6-6,36.6-14.1,47.2-20.2l0.3-0.2c5.5-3.1,100.8-57.1,164.3-102.9
				c-8.3,5.2-15.4,9.2-18.6,10.9C454.2,1766.6,436.8,1773.5,418.9,1778.9z M401.7,1801.2c-0.2,0.1-0.2,0.1-0.2,0
				c0.1-0.1,0.2-0.2,0.3-0.2C401.9,1801,401.8,1801.1,401.7,1801.2z"/>
			<g>
				<path class="st0" d="M682,1188.7L682,1188.7c-0.7,1.1-1.5,2.1-2.3,3.1c-12.3,16-22.1,33.7-29.2,52.5
					c-4.4,11.7-11.8,33.5-18.8,55.6c-6.9,22-16.1,53.4-23.3,79.6c-11.8,43-37.1,176.9-66.1,255.4c-16.7,45.2-47.3,97.8-66.4,115.8
					l-2.1,2l1.8-0.7c1-0.4,18.9-11.4,20.8-13.6c65.8-72,83.9-175,91.5-209c7.7-34.1,29.3-134,45-190.8c11.7-42.4,27-91.5,35.6-114.3
					c7.6-20.2,17.5-38,29.8-53.8c2.3-2.9,7.6-9.1,13.4-15.8C692.8,1173.8,682,1188.7,682,1188.7z"/>
				<path class="st0" d="M648,1227.2C648,1227.2,648,1227.2,648,1227.2C648,1227.2,648,1227.2,648,1227.2L648,1227.2z"/>
				<path class="st0" d="M564.7,1351.2c8.7-23.9,13.5-34.8,21.2-48c5.9-10.2,12.8-19.8,20.5-28.7c-5.6,6.4-11.4,12.9-16.8,18.9
					c-0.6,0.8-1.2,1.7-1.9,2.4c-1.1,1.3-3.3,4.3-4.9,6.5c-11,15.2-19.3,31-27.1,51.6c-13,34.1-123.7,364.4-153.7,414.5
					c-1.8,2.9-3.2,5.4-3.1,5.4c0.1,0.1,3.9-0.6,9.3-1.7c0.9-0.2,1.8-0.4,2.7-0.7c0.3-0.2,4.1-5.2,6.5-10.2
					C469,1656.8,551.5,1387.4,564.7,1351.2z"/>
				<path class="st0" d="M575.4,1455c15.6-60.2,31.7-115.6,46.5-159.3c4.7-14,8.5-24.6,11.2-31.8l0,0c7.8-20.3,18.1-38.5,30.8-54.4
					c1.1-1.4,3.9-4.7,7.1-8.3c-5,5.7-12.3,14-23,26.1c0.2-0.1-0.8,1.1-2.3,3.1c-11.9,15.4-21.2,32-28.8,51.3
					c-4.4,11.2-12.5,34.4-19.2,55.2c-6.8,20.9-12,37.8-18.9,61.7c-3.5,12.1-14.6,60.7-30.5,113c-28.8,94.7-25.2,128.4-95.6,245.2
					c-1.2,2-2.9,3.6-3.3,4c-0.3,0.3-0.5,0.6-0.7,0.9c0,0.1,6.6-2,10.6-3.4l2-0.7l2.4-2.6c24.1-25.8,49.1-80.8,64.5-125.9
					C538.7,1598.4,570.3,1474.7,575.4,1455z"/>
				<path class="st0" d="M578.2,1365.2c8.3-25.8,17.9-53.3,23.1-66.4c7.8-19.6,17.5-36.6,29.7-52.1c1.3-1.6,5.4-6.4,9.3-10.9
					c-8,9-14.5,16.3-22.5,25.6c0,0.1-1,1.4-2.3,3c-7.6,9.8-14.4,20.3-20.1,31.3c-4.6,8.9-8.4,17.9-13.1,30.6
					c-16.3,44-33.6,98.7-50.5,159.8c-1.3,4.8-2.4,8.7-2.5,8.7c-0.1-0.1-66.5,215.8-101.8,267.8c-1.4,2-2.9,4.2-3.4,4.9
					c-0.3,0.4-0.6,0.8-0.8,1.2c0,0,2.9-0.6,6.3-1.5l6.2-1.6l2.7-3.6c23.1-30.7,39.3-80.1,57.6-129.9c6-16.5,25.1-73.3,44.4-137.5
					C557.5,1438,572.6,1382.6,578.2,1365.2z"/>
			</g>
		</g>
	</g>
</g>
</svg>
