<svg width="764" height="140" viewBox="0 0 764 140" fill="none" xmlns="http://www.w3.org/2000/svg">
<g clip-path="url(#clip0_1_2)">
<path d="M180.305 106.58H163.359V17.1916H180.305V106.58Z" fill="white"/>
<path d="M228.659 105.531C225.145 106.889 221.419 107.629 217.649 107.718C203.098 107.718 197.502 101.541 197.502 86.8873V57.5121H185.243V42.1031H197.502V26.2206L213.052 17V42.1031H228.568V57.5121H213.052V83.6634C213.052 90.0322 215.833 92.3092 220.328 92.3092C223.21 92.3841 226.059 91.6789 228.568 90.2689V105.486L228.659 105.531Z" fill="white"/>
<path d="M91.441 22.5121H73.348L57.4571 103.063L47.2074 57.5121L55.0621 22.5121H52.1904L45.6751 51.0419L39.262 22.5121H36.2881L44.2449 57.5121L33.9953 103.063L18.093 22.5121H0L16.9466 106.58H36.0951L45.6751 63.971L55.3459 106.58H74.4945L91.441 22.5121Z" fill="white"/>
<path d="M237.093 89.8406L286.593 59.8905V42.1031H234.221V58.5604H283.438L233.449 88.7021V106.58H287.263V89.8406H237.093Z" fill="white"/>
<path d="M154.835 92.9742C151.963 92.9742 150.533 91.847 150.533 87.4622V65.7858C150.533 48.7649 140.09 40.7729 121.895 40.7729C105.902 40.7729 94.6532 48.0998 87.525 59.9356L102.36 68.0628C106.197 59.5072 111.657 54.942 121.509 54.942C130.998 54.942 134.914 59.5072 134.914 65.4026C134.914 68.1643 131.089 70.1594 124.96 71.5797C121.702 72.3462 117.968 73.1015 114.903 73.6763L112.996 74.0596C111.271 74.4316 100.635 77.2834 94.8349 81.3752C92.2286 82.9469 90.2115 85.3221 89.0914 88.1385C88.9379 88.5054 88.809 88.8819 88.7055 89.2657C88.3257 90.7389 88.135 92.2539 88.138 93.7746C88.138 102.048 94.2673 107.944 105.845 107.944H106.901C107.094 107.944 108.535 107.752 108.717 107.752C118.297 106.523 129.307 99.0048 134.381 82.8406C134.29 85.6023 134.097 88.5443 134.097 91.3961C134.097 103.48 139.454 107.47 148.558 107.47C152.485 107.47 156.696 106.805 158.421 105.858V92.1288C157.327 92.7327 156.086 93.0253 154.835 92.9742ZM105.232 85.9404C105.232 79.1771 112.61 77.2834 122.372 75.2882C128.41 74.0596 132.587 72.7295 134.857 69.9678V74.2512C133.041 87.2705 126.628 94.2142 116.696 94.3156H116.594C108.932 94.2142 105.243 90.7874 105.243 85.9404H105.232Z" fill="white"/>
<path d="M323.108 87.3269C321.756 87.4113 320.404 87.1573 319.177 86.5881C317.949 86.019 316.885 85.1529 316.082 84.0692C314.501 81.905 313.71 78.6624 313.71 74.3414C313.642 71.8889 314.007 69.4434 314.788 67.1159C315.369 65.3619 316.509 63.8429 318.034 62.7874C319.667 61.7717 321.57 61.2689 323.494 61.3446C325.105 61.2928 326.7 61.6828 328.103 62.4718C329.409 63.2489 330.452 64.3948 331.099 65.7633C331.819 67.3249 332.172 69.0286 332.132 70.7456H328.659C328.694 69.5882 328.485 68.4363 328.046 67.3639C327.686 66.4797 327.06 65.7277 326.252 65.211C325.428 64.6944 324.468 64.4316 323.494 64.4557C322.244 64.4008 321.011 64.7574 319.987 65.4702C318.984 66.2913 318.273 67.409 317.955 68.6602C317.463 70.4975 317.241 72.3959 317.297 74.2963C317.297 77.6779 317.762 80.1916 318.716 81.7472C319.164 82.5041 319.816 83.1228 320.597 83.5347C321.378 83.9465 322.259 84.1354 323.142 84.0805C323.852 84.1227 324.562 83.9988 325.214 83.7188C325.867 83.4388 326.444 83.0106 326.899 82.4686C327.877 81.1473 328.358 79.5286 328.261 77.8921H331.735C331.772 79.5908 331.407 81.2743 330.668 82.8068C329.995 84.178 328.944 85.3312 327.637 86.132C326.273 86.9501 324.702 87.3646 323.108 87.3269Z" fill="white"/>
<path d="M359.941 75.7955V75.2544C361.315 75.2557 362.68 75.0349 363.982 74.6006C365.14 74.2181 366.143 73.4749 366.842 72.4815C367.561 71.384 367.918 70.092 367.864 68.7842C367.917 67.42 367.583 66.0684 366.899 64.8841C366.233 63.8479 365.245 63.0562 364.084 62.6296C362.668 62.1144 361.166 61.8696 359.657 61.9082H351.099V86.8196H354.504V75.6151H356.286L363.573 86.7971H367.875L360.838 76.2915L359.941 75.7955ZM354.493 65.087H360.089C361.228 65.0171 362.356 65.3439 363.278 66.0113C363.674 66.3595 363.982 66.7944 364.179 67.2816C364.376 67.7688 364.456 68.2948 364.413 68.818C364.448 69.3421 364.364 69.8673 364.168 70.3549C363.971 70.8426 363.667 71.2803 363.278 71.6361C362.344 72.3264 361.194 72.6659 360.032 72.5942H354.47L354.493 65.087Z" fill="white"/>
<path d="M387.614 86.7971V61.8857H402.529V65.087H390.985V72.7407H402.166V75.9082H390.985V83.5958H402.529V86.7971H387.614Z" fill="white"/>
<path d="M437.251 86.7971H440.906L433.414 61.8857H428.079L420.588 86.7971H424.243L426.785 77.971H434.731L437.251 86.7971ZM427.682 74.7697L430.259 65.752L430.474 63.8921H431.019L431.235 65.752L433.811 74.7697H427.682Z" fill="white"/>
<path d="M476.717 61.8744H456.785V65.0869H465.06V86.7971H468.431V65.0869H476.717V61.8744Z" fill="white"/>
<path d="M494.594 86.7971V83.7649H501.087V64.9066H494.594V61.8857H510.939V64.9066H504.458V83.7649H510.939V86.7971H494.594Z" fill="white"/>
<path d="M536.138 86.7971L528.998 61.8857H532.585L538.351 82.9533L538.533 84.8019H539.078L539.248 82.9533L544.991 61.8857H548.601L541.427 86.7971H536.138Z" fill="white"/>
<path d="M567.704 86.7971V61.8857H582.619V65.087H571.075V72.7407H582.289V75.9082H571.109V83.5958H582.653V86.7971H567.704Z" fill="white"/>
<path d="M589.679 70.4525C588.953 70.0418 588.359 69.4362 587.965 68.7053C587.537 67.9083 587.322 67.0157 587.341 66.1127C587.321 65.206 587.536 64.3094 587.965 63.5089C588.356 62.7715 588.955 62.164 589.69 61.7617C590.452 61.3473 591.307 61.1301 592.176 61.1301C593.045 61.1301 593.9 61.3473 594.662 61.7617C595.396 62.164 595.996 62.7715 596.387 63.5089C596.816 64.3094 597.031 65.206 597.011 66.1127C597.03 67.0157 596.815 67.9083 596.387 68.7053C595.989 69.4378 595.391 70.0435 594.662 70.4525C593.9 70.8669 593.045 71.0841 592.176 71.0841C591.307 71.0841 590.452 70.8669 589.69 70.4525H589.679ZM594.219 69.7874C594.827 69.4403 595.324 68.9281 595.649 68.3108C596.018 67.6172 596.198 66.8401 596.171 66.0564C596.198 65.2726 596.018 64.4955 595.649 63.8019C595.328 63.179 594.831 62.6621 594.219 62.314C593.591 61.9666 592.884 61.7842 592.165 61.7842C591.445 61.7842 590.738 61.9666 590.11 62.314C589.498 62.6621 589.002 63.179 588.68 63.8019C588.311 64.4955 588.131 65.2726 588.158 66.0564C588.131 66.8401 588.311 67.6172 588.68 68.3108C589.006 68.9281 589.502 69.4403 590.11 69.7874C590.738 70.1349 591.445 70.3173 592.165 70.3173C592.884 70.3173 593.591 70.1349 594.219 69.7874ZM590.519 68.3784V63.8696H592.505C592.913 63.8479 593.316 63.9718 593.64 64.219C593.781 64.335 593.894 64.4818 593.969 64.648C594.043 64.8142 594.079 64.9952 594.071 65.1771C594.082 65.3448 594.056 65.5128 593.993 65.6689C593.93 65.8249 593.833 65.965 593.708 66.0789C593.379 66.3239 592.984 66.4653 592.573 66.4847V66.5974L592.777 66.6763L594.071 68.3897H592.936L591.767 66.5974H591.37V68.4348L590.519 68.3784ZM592.392 65.7746C592.891 65.7746 593.141 65.5829 593.141 65.1997C593.146 65.1262 593.135 65.0526 593.107 64.9842C593.08 64.9158 593.037 64.8546 592.982 64.8051C592.851 64.7093 592.69 64.6615 592.528 64.6699H591.393V65.7971L592.392 65.7746Z" fill="white"/>
</g>
<g clip-path="url(#clip1_1_2)">
<path d="M695.5 139C733.332 139 764 108.332 764 70.5C764 32.6685 733.332 2 695.5 2C657.668 2 627 32.6685 627 70.5C627 108.332 657.668 139 695.5 139Z" fill="#EAFF00"/>
<path d="M645.769 91.356C657.097 84.0744 664.648 78.4117 669.502 73.7378C677.053 66.6366 678.491 61.9626 678.491 57.4667C678.491 51.3542 674.626 47.758 668.333 47.758C662.04 47.758 657.994 51.7127 655.839 57.0169L644.602 51.5346C649.007 42.6342 657.368 36.7911 668.516 36.7911C683.529 36.7911 691.349 45.1504 691.349 55.6697C691.349 64.1204 686.584 70.3219 673.101 78.0533C666.447 81.9189 657.638 86.1431 646.223 91.2669H690.99V103.314H645.769V91.3582V91.356Z" fill="black"/>
<path d="M693.819 71.6691V68.6117C693.819 45.8674 705.325 36.7889 719.71 36.7889C734.095 36.7889 745.599 46.1368 745.599 68.6117V71.6691C745.599 95.7605 734.721 104.211 719.71 104.211C704.7 104.211 693.819 95.4911 693.819 71.6691ZM732.565 71.4887V68.7921C732.565 52.8818 727.442 48.8357 719.799 48.8357C712.157 48.8357 706.855 53.3316 706.855 68.7921V71.4887C706.855 87.6707 711.709 92.0752 719.71 92.0752C727.711 92.0752 732.565 87.4903 732.565 71.4887Z" fill="black"/>
<path d="M717.112 68.1459H718.363L716.285 72.1668V74.5004H715.196V72.1668L713.127 68.1459H714.381L715.634 70.7512L715.671 71.2604H715.826L715.854 70.7512L717.116 68.1459H717.112Z" fill="black"/>
<path d="M724.364 74.5004H720.496V68.1459H724.364V69.162H721.585V70.8151H724.272V71.8221H721.585V73.4752H724.364V74.5004Z" fill="black"/>
<path d="M731.563 74.5004H730.392L729.864 72.4043H728.058L727.524 74.5004H726.352L728.095 68.1459H729.828L731.561 74.5004H731.563ZM728.839 69.3172L728.305 71.4133H729.611L729.083 69.3172L729.038 68.719H728.882L728.837 69.3172H728.839Z" fill="black"/>
<path d="M736.728 74.5004L735.12 71.7855H734.757V74.5004H733.668V68.1459H735.938C736.598 68.1459 737.111 68.2966 737.477 68.6003C737.842 68.904 738.025 69.3515 738.025 69.9429C738.025 70.4566 737.86 70.8539 737.534 71.1371C737.207 71.4202 736.76 71.58 736.191 71.6234V71.7421L736.463 71.87L738.043 74.5027H736.728V74.5004ZM734.757 69.1528V70.8494H735.947C736.248 70.8494 736.486 70.7763 736.655 70.6279C736.824 70.4795 736.908 70.2671 736.908 69.9885C736.908 69.71 736.824 69.509 736.655 69.3675C736.486 69.2259 736.248 69.1551 735.947 69.1551H734.757V69.1528Z" fill="#EAFF00"/>
<path d="M740.527 74.0825C740.137 73.7081 739.943 73.1509 739.943 72.4111H741.078C741.078 72.829 741.174 73.1395 741.368 73.345C741.562 73.5505 741.863 73.6533 742.276 73.6533C742.628 73.6533 742.902 73.5734 743.098 73.4135C743.295 73.2537 743.393 73.0299 743.393 72.7468C743.393 72.5162 743.315 72.3289 743.158 72.1828C743 72.0367 742.747 71.9316 742.395 71.8654L741.66 71.7284C741.121 71.6325 740.71 71.4316 740.425 71.1256C740.139 70.8197 739.998 70.4338 739.998 69.968C739.998 69.5752 740.094 69.2305 740.283 68.9336C740.475 68.6368 740.744 68.4062 741.091 68.2441C741.438 68.0797 741.843 67.9997 742.304 67.9997C743.037 67.9997 743.598 68.1893 743.991 68.5683C744.384 68.9473 744.583 69.4953 744.583 70.2169H743.457C743.457 69.8059 743.361 69.4976 743.171 69.2921C742.982 69.0866 742.683 68.9839 742.276 68.9839C741.906 68.9839 741.623 69.0661 741.422 69.2327C741.221 69.3994 741.123 69.6186 741.123 69.8903C741.123 70.121 741.203 70.3059 741.363 70.4498C741.523 70.5913 741.781 70.6986 742.139 70.7717L742.865 70.9087C743.404 71.0183 743.813 71.2238 744.096 71.5252C744.377 71.8289 744.519 72.2216 744.519 72.7057C744.519 73.2994 744.315 73.772 743.911 74.1214C743.505 74.473 742.948 74.6488 742.24 74.6488C741.489 74.6488 740.918 74.4616 740.53 74.0848L740.527 74.0825Z" fill="#EAFF00"/>
</g>
<defs>
<clipPath id="clip0_1_2">
<rect width="597" height="91" fill="white" transform="translate(0 17)"/>
</clipPath>
<clipPath id="clip1_1_2">
<rect width="137" height="137" fill="white" transform="translate(627 2)"/>
</clipPath>
</defs>
</svg>
