<svg xmlns="http://www.w3.org/2000/svg" xmlns:xlink="http://www.w3.org/1999/xlink" width="1920" height="361" viewBox="0 0 1920 361">
  <defs>
    <clipPath id="clip-path">
      <rect id="Rectangle_2246" data-name="Rectangle 2246" width="1920" height="361" transform="translate(0 2523)" fill="#b5e3d8"/>
    </clipPath>
  </defs>
  <g id="waltz-wave" transform="translate(0 -2523)" clip-path="url(#clip-path)">
    <path id="Path_45497" data-name="Path 45497" d="M0,0H640V1275H0Z" transform="translate(0 2523)" fill="none"/>
    <path id="Path_45503" data-name="Path 45503" d="M0,0H670V1275H0Z" transform="translate(626 2523)" fill="none"/>
    <path id="Path_45504" data-name="Path 45504" d="M640,1275h0Z" transform="translate(1280 2523)" fill="#b5e3d8"/>
    <g id="Group_3799" data-name="Group 3799" transform="matrix(0.995, -0.105, 0.105, 0.995, -123.979, 1844.356)">
      <path id="Path_38140" data-name="Path 38140" d="M1967.568,540.381c-96.179,2.686-186.521,53.97-267.666,101.215-69.963,40.736-136.56,88.536-208.528,125.707-63.566,32.832-162.844,43.951-229.839,13.226-46.991-21.549-50.542-62.446-61.363-107.625-13.323-55.625-45.521-97.123-104.5-106.118-60.743-9.263-125.405,7.126-185.662,14.072-63.046,7.269-130.817,16.235-193.648,3.558C662.73,573.6,614.328,539.639,570.724,508.159c-56.279-40.63-109.815-84.937-164.744-127.344C290.693,291.812,153.61,188.864,0,221.276V181.883c154.166-39.48,293.323,64.361,409.615,153.77,56.343,43.321,110.852,89.073,168.178,131.114,48.22,35.362,100.254,72.344,159.764,85.06,65.817,14.064,135.841,9.832,202.446,4.51,60.426-4.827,125.881-19.305,186.163-7.34,59.834,11.876,89.87,56.833,101.535,113.761,8.879,43.334,8.388,84.478,54.577,104.483,64.415,27.9,161.884,14.627,222.145-16.469,73.859-38.115,142.135-87.08,213.335-129.806C1790,577.615,1879.906,517.1,1967.568,517.689Z" fill="#b5e3d8"/>
      <path id="Path_38141" data-name="Path 38141" d="M1967.568,564.421c-189.076-1.939-339.606,128.188-498.733,211.06-69.974,36.441-174.246,46.325-247,10.987-47.916-23.272-59.691-64.143-73.979-111.5-15.827-52.455-50.367-89.285-106.72-95.025-120.623-12.285-240.405,58.3-361.338,38.872-51.084-8.206-99.918-44.269-141.162-73.084-54.216-37.877-105.8-79.405-158.878-118.827C269.4,344.949,144.045,257,0,277.139V235.173c146.339-25.787,274.944,66.075,386.2,150.073,54.659,41.266,107.692,84.7,163.188,124.845,45.79,33.128,97.374,71.487,154.555,80.43,122.9,19.222,244.565-43.881,366.448-28.943,57.423,7.038,91.594,45.978,105.9,100.133,12.228,46.3,19.465,87.345,66.849,109.865,68.262,32.444,168.974,23.1,234.739-10.083,156.78-79.11,304.554-219.964,489.687-221.794Z" transform="translate(0 21.064)" fill="#b5e3d8"/>
      <path id="Path_38142" data-name="Path 38142" d="M1967.568,590.715c-122.077-5.515-235.641,35.195-342.7,90.688-72.994,37.836-142.769,92.841-221.278,118.557-101.645,33.294-254.449,26.158-299.827-89.582-12.316-31.411-18.98-63.155-44.559-87.349-23.495-22.223-53.94-30.627-85.644-31.186-73.322-1.293-148.916,23-219.956,38.655-38.056,8.388-82.427,18.344-121.208,10.08-63.634-13.561-122.625-59.895-174.57-96.431C322.486,448.949,176.216,321.036,0,335.856V292.171c180.479-20.237,332.1,117.512,467.829,217.188,54.385,39.94,114.015,88.329,180.4,106.426,39.6,10.794,85.554,2.432,125.185-4.99,73.133-13.7,149.021-37.016,223.824-37.314,32.4-.128,64.111,6.966,88.778,29.184,28.571,25.733,34.322,60.411,45.78,95.024,37.545,113.411,193.195,116.962,287.235,85.91,78.417-25.891,148.46-82.373,220.7-121.441,101.563-54.925,210.426-100.765,327.834-97.627Z" transform="translate(0 42.833)" fill="#b5e3d8"/>
      <path id="Path_38143" data-name="Path 38143" d="M1967.568,617.886c-129.21-9.878-251.185,20.176-367.639,75.153-74.356,35.1-143.629,86.558-221.653,113.108-107.181,36.468-270.852,31.484-327.287-87.692-15.414-32.552-23.384-64.9-52.586-88.933-24.578-20.226-54.342-27.361-85.621-27.609-67.426-.537-136.649,20.638-201.338,37.257-36.069,9.267-77.249,20.364-114.758,15.894C538.66,648.148,482.3,609,434.224,578.788,301.084,495.129,165.322,388.425,0,395.671V351.54c172.185-10.954,313.964,108.188,449,198.752,49.784,33.387,108.35,77.462,169.358,86.8,38.2,5.845,80.944-4.942,117.916-13.915,66.267-16.082,136.568-37.627,205.308-38.2,31.723-.264,62.357,6.367,87.226,27.128,29.186,24.362,36.242,57.405,50.28,90.656,49.267,116.689,208.6,122.288,310.971,88.845,78.6-25.678,148.255-79.225,221.954-115.957,111.8-55.725,229.587-91.858,355.552-84.271Z" transform="translate(0 65.058)" fill="#b5e3d8"/>
      <path id="Path_38144" data-name="Path 38144" d="M1967.568,642.781q-204.945-19.432-394.105,62.056c-73.6,31.864-140.815,79.374-215.951,107.205-122.4,45.336-280.615,34.665-355.033-87.811-36.08-59.38-63.52-108.361-140.4-112.927-71.521-4.248-144.471,19.531-212.713,37.835-31.571,8.469-66.225,18.186-99.17,17.235-51.5-1.488-103.344-32.2-147.067-56.319C275.4,539.589,151.526,452.643,0,452.67V410.217c159.842-3.889,290.458,94.2,421.949,172.1,45.862,27.172,100.808,62.88,155.771,66.267,33.223,2.048,68.694-7.3,100.641-15.489,68.765-17.623,141.981-41.823,213.787-38.721,78.032,3.372,103.243,52.993,136.731,114.164,66.467,121.4,225.627,129.592,341.984,87.8,75.531-27.128,142.9-75.854,215.889-109.108,121.139-55.19,247.743-81.017,380.816-69.627Z" transform="translate(0 86.772)" fill="#b5e3d8"/>
      <path id="Path_38145" data-name="Path 38145" d="M1967.568,668.576c-142.925-15.787-283.842-5.091-418.549,47.353-74.653,29.063-141.658,74.21-215.961,103.359-133.823,52.5-290.129,37.123-379.767-86.626C912.54,676.4,880.585,627.724,805.381,620.28c-71.112-7.038-143.81,15.338-211.483,34.267-31.077,8.693-64.32,18.619-96.765,19.643-45.321,1.431-89.929-18.166-130.291-36.516C247.027,583.2,134.963,516.161,0,510.5V467.941c144.118,2.842,262.469,80.45,386.78,143.917,42.278,21.584,90.738,47.063,139.506,47.4,32.615.223,66.748-9.884,97.956-18.479,67.871-18.693,140.628-41.924,211.9-36.492,76.015,5.793,105.412,54.514,143.645,112.4,81.357,123.175,238.76,135.895,366.346,87.323,74.758-28.461,141.881-74.854,215.986-105.443,130.033-53.676,265.868-69.592,405.446-55.3Z" transform="translate(0 107.962)" fill="#b5e3d8"/>
      <path id="Path_38146" data-name="Path 38146" d="M1967.568,694.234c-150.079-18.361-301.508-16.64-445.53,33.845-73.572,25.79-138.6,67.345-209.986,97.419-73.3,30.881-154.091,47.672-232.564,28.183-66.354-16.48-132.027-59.833-175.875-112.227-43.3-51.735-78.826-99.854-150.1-110.677-70.658-10.729-143.621,10.363-210.672,30.53-30.93,9.3-62.631,19.039-94.771,23.167-39.329,5.051-77.09-4.2-114.294-16.554C222,630.81,119.031,579.57,0,568.225v-42.45c128.165,8.292,235.948,68.024,352.756,114.613,39.036,15.568,80.379,29.908,123.007,26.432,32.44-2.647,64.975-12.535,96.091-21.526,67.422-19.48,140.853-41.128,211.742-31.522,72.432,9.816,104.994,58.538,146.448,112.119,96.793,125.109,256.765,141.025,395.277,83.97,71.74-29.552,136.943-72.106,210.011-99.339,139.4-51.955,285.547-58.545,432.235-41.465Z" transform="translate(0 129.15)" fill="#b5e3d8"/>
      <path id="Path_38147" data-name="Path 38147" d="M1967.568,721.068c-154.914-20.918-314.686-28.5-466.137,17.23-76.441,23.078-142.654,64.076-215.438,95.11-74.825,31.9-156.638,51.336-237.394,32.681-73.5-16.979-142.777-63.768-194.919-117.451-47.2-48.592-87.687-96.594-158.332-108.423-68.974-11.549-139.033,8.947-203.97,30.268-63.525,20.858-122.656,38.611-189.84,27.3C199.628,680.625,102.558,643.125,0,627.515V583.381c110.618,13.513,209.864,57.538,316.445,86.113,71.148,19.076,130.615,6.317,199.576-15.1,66.416-20.623,137.917-41.566,208.163-31.2,72.26,10.662,111.408,58.632,157.5,109.626,48.749,53.94,115.385,99.406,186.665,115.955,77.813,18.067,156.893.445,229.336-29.835,73.28-30.631,139.789-73.025,215.833-97.974,147.124-48.27,302.084-45.766,454.055-26.408Z" transform="translate(0 150.255)" fill="#b5e3d8"/>
      <path id="Path_38148" data-name="Path 38148" d="M1967.568,751.761c-160.146-23.361-328-39.4-487,.715-79.751,20.12-146.644,61.027-221.451,92.6-76.486,32.287-159.5,53.8-242.251,35.818-79.532-17.283-157.329-68.2-216.618-122.925-49.018-45.242-93.033-92.008-162.21-103.2-61.931-10.021-124.308,8.094-181.526,30.3-58.69,22.772-118.166,51.366-182.1,52.417C182.2,739,89.057,711.078,0,690.728V647.044c96.12,17.658,191.854,50.323,289.469,58.349,63.861,5.25,122.155-16.612,181.561-37.529,63.4-22.324,131.947-42.857,199.779-30.7C739.8,649.539,781.522,697.1,829.315,743.446c55.154,53.486,126.441,101.608,201.994,119.113,83.239,19.285,167.394-1.518,244.3-34.7,72.491-31.275,138.424-71.205,215.247-92.708,155.215-43.444,319.126-31.745,476.707-9.574Z" transform="translate(0 168.634)" fill="#b5e3d8"/>
      <path id="Path_38149" data-name="Path 38149" d="M1967.568,789.053c-165.58-25.05-340.642-47.689-506.776-13.344-79.48,16.432-144.927,53.772-217.993,86.241-83.515,37.113-176.575,61.763-267.356,39.3-83.8-20.737-160.414-76-226.628-129.54-47.94-38.764-95.459-80.372-158.529-90.66-63.514-10.361-124.633,12.53-180.6,40.254-52.011,25.766-104.252,59.988-161.714,71.708C164.6,810.016,78.674,786.748,0,760.186V718.221c83.853,23.011,173.973,48.063,261.867,39.105,60.806-6.2,117.145-37.481,172.548-61.387,58.55-25.264,122.773-45.787,187.133-33.143,63.785,12.531,108.266,56.611,155.8,97.173,61.172,52.2,133.613,103.414,212.471,123.608,89.254,22.858,179.681-.148,262.282-36C1326,815.5,1392.159,776.4,1471.783,758.1c162.209-37.287,333.313-17.981,495.785,6.233Z" transform="translate(0 177.943)" fill="#b5e3d8"/>
      <path id="Path_38150" data-name="Path 38150" d="M1967.568,822.3c-226.108-34.275-480.451-75.083-693.334,32.459-135.157,68.277-277.953,108.356-418.521,31.287-99.142-54.355-184.772-154.753-299.35-176.953-98.5-19.083-182.28,47.356-258.154,100.209-32.886,22.91-66.579,45.012-106.327,53.75C125.171,877.715,59.313,853.543,0,824.71V785.319c62.615,25.092,129.611,45.787,197.855,37.526,43.737-5.293,80.327-23.623,117.536-45.913,79.148-47.413,169.475-108.28,266.335-86.644,44.414,9.921,84.118,35.389,120.162,62.175,57.2,42.509,114.346,88.933,177.855,121.883,139.036,72.133,276.887,29.55,408.669-36.651,210.066-105.527,455.264-72.125,679.155-38.089Z" transform="translate(0 187.773)" fill="#b5e3d8"/>
    </g>
  </g>
</svg>
