<svg xmlns="http://www.w3.org/2000/svg" width="165.487" height="16.411" viewBox="0 0 165.487 16.411">
  <g id="women-owned-logo-pink" transform="translate(-1699.805 -1006.108)">
    <g id="Group_4292" data-name="Group 4292" transform="translate(1785.948 1006.629)">
      <path id="Path_38047" data-name="Path 38047" d="M28.9,340.884a7.718,7.718,0,1,1,7.725,7.684,7.554,7.554,0,0,1-7.725-7.684m13.055,0a5.343,5.343,0,1,0-5.33,5.587,5.288,5.288,0,0,0,5.33-5.587" transform="translate(-28.9 -333.2)" fill="#e59bdc"/>
      <path id="Path_38048" data-name="Path 38048" d="M142.1,333.662h2.449l2.638,7.968c.284.839.568,2.137.568,2.137s.379-1.272.731-2.137l3.436-8.131h.284l3.463,8.131a21.343,21.343,0,0,1,.7,2.137s.311-1.3.6-2.137l2.638-7.968h2.273l-5.168,15.125h-.284l-3.72-8.915a19.086,19.086,0,0,1-.622-1.826s-.352,1.1-.663,1.826l-3.815,8.915h-.284Z" transform="translate(-126.786 -333.459)" fill="#e59bdc"/>
      <path id="Path_38049" data-name="Path 38049" d="M301.509,339.985c-.6-.636-1.407-1.678-1.407-1.678s.149,1.231.149,2.151v8.252H298.1V333.6h.311l8.252,8.875c.568.622,1.393,1.678,1.393,1.678s-.149-1.326-.149-2.151v-8.239h2.165v15.125h-.284Z" transform="translate(-261.682 -333.546)" fill="#e59bdc"/>
      <path id="Path_38050" data-name="Path 38050" d="M405,334.7h9.51v2.043h-7.17v5.817H413.7v2H407.34v3.057h7.481v2.056H405Z" transform="translate(-354.12 -334.498)" fill="#e59bdc"/>
      <path id="Path_38051" data-name="Path 38051" d="M492.4,334.7h4.113c4.8,0,8,2.99,8,7.481s-3.166,7.481-8,7.481H492.4Zm3.964,12.92c3.9,0,5.722-2.246,5.722-5.438s-1.826-5.438-5.722-5.438H494.74V347.62Z" transform="translate(-429.696 -334.498)" fill="#e59bdc"/>
    </g>
    <g id="Group_4293" data-name="Group 4293" transform="translate(1699.805 1006.108)">
      <path id="Path_38055" data-name="Path 38055" d="M167.274,276.549a1.175,1.175,0,0,0-.555-.149,1.136,1.136,0,0,0-.974.555,1.117,1.117,0,0,0,.419,1.529,1.175,1.175,0,0,0,.555.149,1.136,1.136,0,0,0,.974-.555,1.1,1.1,0,0,0,.108-.852,1.147,1.147,0,0,0-.528-.676" transform="translate(-145.981 -265.807)" fill="#e59bdc"/>
      <path id="Path_38056" data-name="Path 38056" d="M192.481,280.528a.871.871,0,0,0,.636-.284,2.162,2.162,0,0,1,.176-.176c.068-.068.135-.122.2-.189.054-.041.095-.095.149-.135a1.182,1.182,0,0,1,.135-.108,2.967,2.967,0,0,1,.866-.487,2.085,2.085,0,0,1,.365-.095,1.968,1.968,0,0,1,.744.014,1.412,1.412,0,0,1,.338.108c.027.014.054.014.081.027l-.041-.243-.054-.3a4.366,4.366,0,0,1,0-1.393.586.586,0,0,1-.068-.014,3.7,3.7,0,0,0-.676-.054,3.772,3.772,0,0,0-.866.095l-.284.081-.162.054c-.095.041-.162.054-.23.081a5.142,5.142,0,0,0-1.015.582,8.568,8.568,0,0,0-1.015.893,1.976,1.976,0,0,0-.122.176.939.939,0,0,0-.095.663.831.831,0,0,0,.257.446.88.88,0,0,0,.622.243h.054Z" transform="translate(-168.4 -266.498)" fill="#e59bdc"/>
      <path id="Path_38057" data-name="Path 38057" d="M211.881,302.8a1.135,1.135,0,0,0-.555.149,1.127,1.127,0,0,0,.568,2.1,1.135,1.135,0,0,0,.555-.149,1.127,1.127,0,0,0-.568-2.1" transform="translate(-185.04 -288.635)" fill="#e59bdc"/>
      <path id="Path_38059" data-name="Path 38059" d="M257.323,276.9a1.123,1.123,0,1,0,1.123,1.123,1.12,1.12,0,0,0-1.123-1.123" transform="translate(-224.327 -266.239)" fill="#e59bdc"/>
      <path id="Path_38043" data-name="Path 38043" d="M20.6,206.549h2.367l2.557,7.725c.271.812.555,2.07.555,2.07s.365-1.231.7-2.07L30.11,206.4h.271l3.355,7.874a20.734,20.734,0,0,1,.676,2.07s.3-1.258.582-2.07l2.557-7.725h2.192L34.724,221.2h-.271l-3.6-8.631a18.178,18.178,0,0,1-.6-1.772s-.338,1.069-.636,1.772L25.93,221.2H25.66Z" transform="translate(-20.6 -205.277)" fill="#e59bdc"/>
      <path id="Path_38044" data-name="Path 38044" d="M284.327,206.4h.23l6.927,8.1,6.872-8.1h.23v14.651h-2.151v-7.535c0-.812.081-2.083.081-2.083a17.5,17.5,0,0,1-1.3,1.745l-3.653,4.4h-.257l-3.653-4.4c-.555-.663-1.285-1.745-1.285-1.745s.081,1.285.081,2.083v7.535H284.3V206.4Z" transform="translate(-248.625 -205.277)" fill="#e59bdc"/>
      <path id="Path_38045" data-name="Path 38045" d="M407.9,207.5h9.213v1.989h-6.954v5.628h6.169v1.948h-6.169v2.963h7.251V222H407.9Z" transform="translate(-355.505 -206.229)" fill="#e59bdc"/>
      <path id="Path_38046" data-name="Path 38046" d="M495.9,212.582c-.582-.622-1.366-1.623-1.366-1.623a20.537,20.537,0,0,1,.149,2.083v8H492.6V206.4h.3l8,8.591c.555.6,1.339,1.623,1.339,1.623s-.149-1.285-.149-2.083v-7.982h2.083V221.2H503.9Z" transform="translate(-428.746 -205.277)" fill="#e59bdc"/>
      <path id="Path_38052" data-name="Path 38052" d="M187.528,220.332a4.484,4.484,0,0,1,1.2.7c.014-.014.027-.041.054-.054a3.764,3.764,0,0,0,.392-.555,3.221,3.221,0,0,0,.338-.8,2.17,2.17,0,0,0,.068-.284l.027-.162q.02-.142.041-.244a4.757,4.757,0,0,0,.014-1.163,7.218,7.218,0,0,0-.271-1.326.888.888,0,0,0-.095-.2.926.926,0,0,0-.528-.406.877.877,0,0,0-.528,0,.928.928,0,0,0-.541.446.826.826,0,0,0-.068.69,1.633,1.633,0,0,1,.068.244,1.912,1.912,0,0,1,.054.271c.014.068.027.135.041.189s.014.122.027.176a3.409,3.409,0,0,1-.014.988,2.389,2.389,0,0,1-.095.365,1.629,1.629,0,0,1-.149.311,1.943,1.943,0,0,1-.244.338,2.186,2.186,0,0,1-.257.244c-.027.014-.041.041-.068.054.081.027.162.068.244.095Z" transform="translate(-164.489 -213.405)" fill="#e59bdc"/>
      <path id="Path_38053" data-name="Path 38053" d="M166.923,226.246a1.123,1.123,0,1,0-1.123-1.123,1.12,1.12,0,0,0,1.123,1.123" transform="translate(-146.157 -220.495)" fill="#e59bdc"/>
      <path id="Path_38054" data-name="Path 38054" d="M173.591,255.139a1.88,1.88,0,0,1,.162.379,1.482,1.482,0,0,1,.081.352c0,.027.014.054.014.081a1.818,1.818,0,0,1,.189-.149l.244-.189a4.132,4.132,0,0,1,1.2-.69c-.014-.027-.014-.041-.027-.068a3.841,3.841,0,0,0-.8-1.326l-.2-.2-.122-.108c-.068-.068-.135-.108-.189-.162a5.589,5.589,0,0,0-1-.6,7.527,7.527,0,0,0-1.285-.433.819.819,0,0,0-.2-.027.925.925,0,0,0-.636.243.95.95,0,0,0-.271.446.937.937,0,0,0,.108.69.883.883,0,0,0,.568.406c.081.027.162.041.244.068s.176.054.257.081.122.041.189.068a.826.826,0,0,1,.162.068,3.631,3.631,0,0,1,.852.5,2.554,2.554,0,0,1,.271.271c.068.108.135.189.189.3" transform="translate(-150.416 -244.707)" fill="#e59bdc"/>
      <path id="Path_38058" data-name="Path 38058" d="M233.939,263.6a4.484,4.484,0,0,1-1.2-.7c-.014.014-.027.041-.041.054a3.76,3.76,0,0,0-.392.555,3.221,3.221,0,0,0-.338.8,2.164,2.164,0,0,0-.068.284l-.027.162c-.027.108-.027.176-.041.243a4.857,4.857,0,0,0-.014,1.177,7.215,7.215,0,0,0,.271,1.326.945.945,0,0,0,.622.609.877.877,0,0,0,.528,0,.889.889,0,0,0,.541-.446.88.88,0,0,0,.068-.69,1.634,1.634,0,0,1-.068-.243c-.027-.095-.041-.176-.068-.271-.014-.068-.027-.135-.041-.189s-.014-.122-.027-.176a3.411,3.411,0,0,1,.014-.988,2.387,2.387,0,0,1,.095-.365,1.226,1.226,0,0,1,.149-.3,1.945,1.945,0,0,1,.243-.338c.081-.081.162-.162.257-.244.027-.014.041-.041.068-.054-.081-.027-.162-.068-.244-.095Z" transform="translate(-203.216 -254.133)" fill="#e59bdc"/>
      <path id="Path_38060" data-name="Path 38060" d="M236.556,240.323a.97.97,0,0,0,.622-.244.831.831,0,0,0,.257-.446.937.937,0,0,0-.108-.69.883.883,0,0,0-.568-.406,1.639,1.639,0,0,1-.244-.068c-.095-.027-.176-.054-.257-.081s-.122-.041-.189-.068a.827.827,0,0,1-.162-.068,3.632,3.632,0,0,1-.852-.5,2.551,2.551,0,0,1-.271-.271,1.932,1.932,0,0,1-.189-.271,3.241,3.241,0,0,1-.176-.379,1.482,1.482,0,0,1-.081-.352c0-.027-.014-.054-.014-.081a2.36,2.36,0,0,0-.189.162l-.23.189a4.462,4.462,0,0,1-1.2.69c.014.027.014.041.027.068a3.842,3.842,0,0,0,.8,1.326l.2.2.122.108c.068.068.135.108.189.162a5.27,5.27,0,0,0,1.015.6,7.948,7.948,0,0,0,1.285.433.9.9,0,0,0,.2.014h.014Z" transform="translate(-204.006 -231.219)" fill="#e59bdc"/>
      <path id="Path_38061" data-name="Path 38061" d="M257.151,226.683a1.15,1.15,0,0,0,1.529-.406,1.119,1.119,0,0,0-.406-1.529,1.175,1.175,0,0,0-.555-.149,1.136,1.136,0,0,0-.974.555,1.1,1.1,0,0,0-.108.852,1.078,1.078,0,0,0,.514.676" transform="translate(-224.67 -221.015)" fill="#e59bdc"/>
      <path id="Path_38062" data-name="Path 38062" d="M212.868,217.467a4.8,4.8,0,0,1,0,1.393c.027,0,.041.014.068.014a3.707,3.707,0,0,0,1.542-.041l.284-.081.162-.054a2.186,2.186,0,0,0,.23-.081,4.785,4.785,0,0,0,1.015-.582,7.5,7.5,0,0,0,1.015-.893.988.988,0,0,0,.122-.176.939.939,0,0,0,.095-.663.869.869,0,0,0-.257-.46.9.9,0,0,0-.622-.244.938.938,0,0,0-.663.284,2.162,2.162,0,0,1-.176.176c-.068.068-.135.122-.2.189-.054.041-.095.095-.149.135s-.095.068-.135.108a3.758,3.758,0,0,1-.866.487,2.082,2.082,0,0,1-.365.095,1.972,1.972,0,0,1-.744-.014,1.412,1.412,0,0,1-.338-.108.192.192,0,0,0-.081-.027c.014.095.027.176.041.257Z" transform="translate(-186.798 -213.231)" fill="#e59bdc"/>
      <path id="Path_38063" data-name="Path 38063" d="M212.988,200.183a1.117,1.117,0,0,0-.568-2.083,1.135,1.135,0,0,0-.555.149,1.147,1.147,0,0,0-.528.676,1.106,1.106,0,0,0,.108.852,1.15,1.15,0,0,0,1.542.406" transform="translate(-185.498 -198.1)" fill="#e59bdc"/>
    </g>
    <path id="Path_38064" data-name="Path 38064" d="M588.8,207.414v.352h-.69v1.8h-.433v-1.8H587v-.352Zm2.313,2.151-.081-1.272c-.014-.162-.014-.365-.014-.6h-.027c-.054.189-.122.446-.176.636l-.392,1.19h-.446l-.392-1.231c-.041-.162-.108-.419-.149-.609h-.027c0,.2-.014.406-.014.6l-.081,1.272h-.406l.162-2.151h.636l.365,1.055c.054.162.081.325.149.541h.013c.054-.189.108-.379.149-.528l.365-1.069h.622l.162,2.151h-.419Z" transform="translate(1273.759 799.966)" fill="#e59bdc"/>
  </g>
</svg>
