<svg xmlns="http://www.w3.org/2000/svg" width="100" height="42">
  <path fill="#2d302d" d="M.155 1.564h2.912l3.146 9.504c.333.999.682 2.546.682 2.546s.45-1.514.866-2.546l4.094-9.687h.333l4.128 9.687c.416.999.832 2.546.832 2.546s.366-1.547.716-2.546l3.145-9.504h2.696L17.531 19.59h-.333L12.77 8.971c-.367-.866-.733-2.18-.733-2.18s-.416 1.314-.782 2.18L6.712 19.589H6.38zM44.077 1.381h.283l8.522 9.97 8.455-9.97h.283v18.025h-2.647v-9.27c0-.999.1-2.563.1-2.563s-.865 1.331-1.598 2.147l-4.493 5.409h-.317l-4.493-5.41c-.683-.815-1.581-2.146-1.581-2.146s.1 1.58.1 2.563v9.27h-2.647V1.381zM64.616 1.564H75.95v2.447h-8.555v6.924h7.59v2.396h-7.59v3.645h8.921v2.43h-11.7zM82.774 8.987c-.716-.765-1.681-1.997-1.681-1.997s.183 1.465.183 2.563v9.837h-2.563V1.38h.366l9.836 10.569c.683.732 1.648 1.997 1.648 1.997s-.183-1.58-.183-2.563v-9.82h2.563V19.59h-.333zM11.04 38.813c-1.397 0-2.647-.389-3.672-1.072l3.672 3.652c5.259 0 9.487-3.962 9.487-9.454 0-5.492-4.228-9.454-9.487-9.454-5.276 0-9.504 3.962-9.504 9.454l4.132 4.11c-.768-1.13-1.203-2.542-1.203-4.11 0-3.928 2.73-6.874 6.575-6.874 3.844 0 6.557 2.946 6.557 6.874zM7.368 37.74a6.235 6.235 0 01-1.7-1.692zM20.377 22.735h3.012l3.246 9.803c.35 1.032.699 2.63.699 2.63s.466-1.565.899-2.63l4.227-10.003h.35l4.26 10.003c.433 1.032.866 2.63.866 2.63s.383-1.598.732-2.63l3.246-9.803h2.796l-6.358 18.608h-.35l-4.577-10.968c-.382-.9-.765-2.247-.765-2.247s-.433 1.348-.816 2.247l-4.693 10.968h-.35zM50.535 30.408c-.732-.782-1.73-2.064-1.73-2.064s.182 1.515.182 2.646v10.153h-2.646v-18.59h.383L56.876 33.47c.7.766 1.715 2.064 1.715 2.064s-.184-1.631-.184-2.646V22.752h2.663v18.607h-.35zM64.133 22.735h11.7v2.513h-8.82v7.157h7.822v2.463h-7.823v3.762h9.204v2.53H64.133zM81.559 38.63V25.248h1.997c4.793 0 7.04 2.763 7.04 6.691s-2.247 6.69-7.04 6.69zm-2.88 2.513h5.06c5.942 0 9.836-3.678 9.836-9.204 0-5.526-3.927-9.204-9.836-9.204h-5.06zM28.499 8.521c.483.184.982.466 1.481.866.017-.017.033-.05.067-.067.183-.216.35-.449.482-.682.183-.3.317-.632.416-.982.034-.117.067-.233.084-.35l.033-.2c.017-.116.033-.216.05-.299.066-.45.066-.932.017-1.431a8.88 8.88 0 00-.333-1.631c-.017-.084-.067-.15-.117-.25a1.14 1.14 0 00-.649-.5 1.08 1.08 0 00-.65 0 1.141 1.141 0 00-.665.55c-.15.266-.183.566-.083.849.033.1.067.2.083.3.033.116.05.216.067.332.016.084.033.167.05.233.016.067.016.15.033.217.05.449.05.848-.017 1.215a2.939 2.939 0 01-.116.449c-.05.133-.1.25-.183.383-.083.15-.183.283-.3.416-.1.1-.2.216-.316.3-.033.016-.05.05-.083.066.1.033.2.083.3.117zM25.703 7.073c.765 0 1.381-.615 1.381-1.381s-.616-1.381-1.381-1.381c-.766 0-1.382.615-1.382 1.381s.633 1.381 1.382 1.381M28.665 12.832c.083.15.15.3.2.466.05.133.083.283.1.433 0 .033.017.066.017.1.083-.067.15-.133.233-.183l.3-.233c.399-.333.898-.633 1.48-.85-.016-.032-.016-.05-.033-.082a6.355 6.355 0 00-.35-.766 6.4 6.4 0 00-.632-.865l-.25-.25-.15-.133c-.083-.083-.166-.133-.232-.2a6.875 6.875 0 00-1.232-.732c-.466-.217-.999-.383-1.581-.533a1.008 1.008 0 00-.25-.033 1.138 1.138 0 00-1.115.849c-.066.3-.017.599.133.848.15.25.4.433.7.5.1.033.199.05.299.083.116.033.216.067.316.1.083.033.15.05.233.083.067.017.133.05.2.083.416.183.765.383 1.048.616.134.117.233.216.333.333.083.133.167.233.233.366M26.352 13.215a1.446 1.446 0 00-.683-.183c-.499 0-.948.266-1.198.682a1.351 1.351 0 00-.133 1.049c.1.35.316.649.649.832.216.116.45.183.682.183.5 0 .95-.266 1.199-.682.183-.317.233-.683.133-1.049-.1-.35-.333-.649-.65-.832M29.78 17.26c.3 0 .583-.134.783-.35.066-.083.15-.15.216-.217.083-.083.166-.15.25-.233.066-.05.116-.116.183-.166.05-.05.1-.083.166-.133.366-.283.716-.483 1.065-.6.167-.05.3-.1.45-.116.3-.05.616-.05.915.017.15.033.283.066.416.133.034.017.067.017.1.033l-.05-.3-.066-.365c-.1-.516-.084-1.082 0-1.715-.034 0-.067-.016-.084-.016a4.553 4.553 0 00-.832-.067c-.35 0-.715.033-1.065.117l-.35.1-.2.066c-.116.05-.199.067-.282.1a6.327 6.327 0 00-1.248.716c-.417.3-.833.682-1.249 1.098-.05.067-.1.133-.15.216-.133.25-.183.533-.116.816.05.216.15.4.316.55.2.199.483.299.766.299h.066zM33.176 17.426a1.37 1.37 0 00-1.182 2.064 1.378 1.378 0 001.88.516 1.37 1.37 0 00.5-1.881 1.378 1.378 0 00-1.198-.7M37.952 11.65a5.516 5.516 0 01-1.48-.865c-.017.017-.034.05-.05.067-.184.216-.35.449-.483.682-.184.3-.317.632-.417.982-.033.116-.066.233-.083.35l-.033.2c-.033.132-.033.216-.05.299-.067.45-.067.932-.017 1.448.05.516.167 1.065.333 1.63.017.084.067.15.117.25.15.25.366.417.649.5.216.066.416.066.649 0 .283-.083.533-.283.666-.55.15-.266.166-.565.083-.848-.033-.1-.067-.2-.083-.3-.034-.116-.05-.216-.084-.333-.016-.083-.033-.166-.05-.233-.016-.066-.016-.15-.033-.216-.05-.45-.05-.849.017-1.215.033-.167.066-.316.116-.45.05-.133.1-.25.184-.366.083-.15.183-.283.3-.416.099-.1.199-.2.315-.3.034-.016.05-.05.084-.066-.1-.033-.2-.083-.3-.116zM40.749 13.115c-.766 0-1.382.616-1.382 1.382 0 .765.616 1.38 1.382 1.38.765 0 1.381-.615 1.381-1.38 0-.766-.616-1.382-1.381-1.382M40.2 11.201c.282 0 .549-.116.765-.3.166-.15.266-.332.316-.549.067-.3.017-.599-.133-.849-.15-.25-.4-.432-.699-.499-.1-.017-.2-.05-.3-.083a7.294 7.294 0 01-.316-.1c-.083-.033-.15-.05-.233-.083-.066-.017-.133-.05-.2-.083a4.468 4.468 0 01-1.048-.616 3.137 3.137 0 01-.333-.333 2.379 2.379 0 01-.233-.333c-.083-.15-.15-.3-.216-.466a1.823 1.823 0 01-.1-.433c0-.033-.017-.066-.017-.1-.083.067-.166.134-.233.2l-.283.233c-.4.333-.899.616-1.481.849.017.033.017.05.033.083.1.266.217.516.35.766.183.3.4.599.632.865l.25.25.15.133c.083.083.166.133.233.2.366.283.782.516 1.248.732.483.216.999.383 1.581.533.067.016.15.016.25.016h.016zM40.116 6.974c.633.366 1.515.133 1.88-.5a1.376 1.376 0 00-.498-1.88 1.446 1.446 0 00-.683-.184c-.5 0-.949.267-1.198.683a1.351 1.351 0 00-.133 1.048c.083.35.316.65.632.833M32.227 5.21a5.906 5.906 0 010 1.714c.033 0 .05.016.083.016a4.56 4.56 0 001.898-.05l.35-.1.199-.066c.116-.033.2-.067.283-.1a5.888 5.888 0 001.248-.716c.416-.3.832-.665 1.248-1.098.05-.05.1-.133.15-.216.133-.25.183-.533.117-.816a1.07 1.07 0 00-.317-.566c-.216-.2-.482-.3-.765-.3-.333.017-.616.134-.816.35-.066.083-.15.15-.216.216-.083.084-.167.15-.25.233-.066.05-.116.117-.183.167-.05.05-.116.083-.166.133a4.624 4.624 0 01-1.065.6c-.167.05-.3.1-.45.116-.3.05-.599.05-.915-.017a1.736 1.736 0 01-.416-.133c-.034-.017-.067-.033-.1-.033.016.116.033.216.05.316zM33.975 2.563a1.37 1.37 0 00.499-1.88A1.362 1.362 0 0033.276 0c-.233 0-.483.066-.683.183-.316.183-.55.483-.649.832-.1.35-.05.732.133 1.049.366.632 1.249.882 1.898.499M99.484 4.21l-.1-1.564c-.016-.2-.016-.45-.016-.732h-.034c-.066.233-.15.55-.216.782l-.483 1.465h-.549l-.483-1.515c-.05-.2-.133-.516-.183-.749h-.033c0 .25-.017.5-.017.733l-.1 1.564h-.499l.2-2.646h.782l.45 1.298c.066.2.1.4.183.666h.016c.067-.233.133-.466.183-.65l.45-1.314h.765l.2 2.646h-.516zm-2.846-2.646v.433h-.849v2.214h-.532V1.997h-.833v-.433z"/>
</svg>