<svg width="29" height="38" viewBox="0 0 29 38" fill="none" xmlns="http://www.w3.org/2000/svg">
<g clip-path="url(#clip0_154_1756)">
<path d="M12.8992 0.408179C13.7156 -0.133618 14.7843 -0.133618 15.6007 0.408179L16.9218 1.27654C17.3671 1.56599 17.8867 1.70701 18.4136 1.67732L19.9945 1.58083C20.9742 1.52146 21.8945 2.05583 22.3324 2.93162L23.0449 4.34919C23.2824 4.82419 23.6683 5.20271 24.1359 5.44021L25.5683 6.16013C26.4441 6.59802 26.9784 7.51833 26.9191 8.49802L26.8226 10.0789C26.7929 10.6058 26.9339 11.1328 27.2234 11.5707L28.0992 12.8918C28.6409 13.7082 28.6409 14.7769 28.0992 15.5933L27.2234 16.9219C26.9339 17.3672 26.7929 17.8867 26.8226 18.4136L26.9191 19.9945C26.9784 20.9742 26.4441 21.8945 25.5683 22.3324L24.1507 23.0449C23.6757 23.2824 23.2972 23.6683 23.0597 24.1359L22.3398 25.5683C21.9019 26.4441 20.9816 26.9785 20.0019 26.9191L18.421 26.8226C17.8941 26.7929 17.3671 26.934 16.9292 27.2234L15.6081 28.0992C14.7917 28.641 13.723 28.641 12.9066 28.0992L11.5781 27.2234C11.1327 26.934 10.6132 26.7929 10.0863 26.8226L8.5054 26.9191C7.52571 26.9785 6.6054 26.4441 6.16751 25.5683L5.45501 24.1508C5.21751 23.6758 4.83157 23.2972 4.364 23.0597L2.93157 22.3398C2.05579 21.9019 1.52142 20.9816 1.58079 20.0019L1.67728 18.4211C1.70696 17.8941 1.56595 17.3672 1.2765 16.9293L0.408136 15.6008C-0.133661 14.7844 -0.133661 13.7156 0.408136 12.8992L1.2765 11.5781C1.56595 11.1328 1.70696 10.6133 1.67728 10.0863L1.58079 8.50544C1.52142 7.52576 2.05579 6.60544 2.93157 6.16755L4.34915 5.45505C4.82415 5.21013 5.21009 4.82419 5.44759 4.34919L6.16009 2.93162C6.59798 2.05583 7.51829 1.52146 8.49798 1.58083L10.0788 1.67732C10.6058 1.70701 11.1327 1.56599 11.5706 1.27654L12.8992 0.408179ZM20.1874 14.25C20.1874 12.6753 19.5619 11.165 18.4484 10.0515C17.3349 8.93803 15.8247 8.31248 14.2499 8.31248C12.6752 8.31248 11.165 8.93803 10.0515 10.0515C8.93799 11.165 8.31243 12.6753 8.31243 14.25C8.31243 15.8247 8.93799 17.3349 10.0515 18.4484C11.165 19.5619 12.6752 20.1875 14.2499 20.1875C15.8247 20.1875 17.3349 19.5619 18.4484 18.4484C19.5619 17.3349 20.1874 15.8247 20.1874 14.25ZM0.096417 32.7898L3.29525 25.1824C3.31009 25.1898 3.31751 25.1972 3.32493 25.2121L4.03743 26.6297C4.90579 28.3515 6.70931 29.398 8.639 29.2867L10.2199 29.1902C10.2347 29.1902 10.257 29.1902 10.2718 29.2051L11.5929 30.0808C11.9714 30.3258 12.3722 30.5187 12.7878 30.6523L9.9972 37.2801C9.8265 37.6883 9.44798 37.9629 9.01009 38C8.5722 38.0371 8.14915 37.8367 7.91165 37.4656L5.52181 33.8066L1.35814 34.4226C0.935089 34.482 0.512042 34.3113 0.244855 33.9773C-0.022333 33.6433 -0.0742861 33.1832 0.0889952 32.7898H0.096417ZM18.5027 37.2726L15.712 30.6523C16.1277 30.5187 16.5284 30.3332 16.907 30.0808L18.2281 29.2051C18.2429 29.1976 18.2577 29.1902 18.28 29.1902L19.8609 29.2867C21.7906 29.398 23.5941 28.3515 24.4624 26.6297L25.1749 25.2121C25.1824 25.1972 25.1898 25.1898 25.2046 25.1824L28.4109 32.7898C28.5742 33.1832 28.5148 33.6359 28.255 33.9773C27.9952 34.3187 27.5648 34.4894 27.1417 34.4226L22.9781 33.8066L20.5882 37.4582C20.3507 37.8293 19.9277 38.0297 19.4898 37.9926C19.0519 37.9554 18.6734 37.6734 18.5027 37.2726Z" fill="black"/>
<circle cx="14.2507" cy="14.2502" r="8.68774" fill="#EAFF00"/>
<path d="M19.751 9.65649H17.5751L15.6637 19.2382L14.4308 13.82L15.3759 9.65649H15.0297L14.2461 13.0503L13.4742 9.65649H13.1164L14.0731 13.82L12.8402 19.2382L10.9288 9.65649H8.75098L10.7908 19.6565H13.095L14.2461 14.5877L15.4089 19.6565H17.7131L19.751 9.65649Z" fill="black"/>
<path d="M15.751 19.6565H15.2076L12.751 9.65649H13.2943L15.751 19.6565Z" fill="black"/>
<path d="M12.751 19.6565H13.294L15.751 9.65649H15.2059L12.751 19.6565Z" fill="black"/>
</g>
<defs>
<clipPath id="clip0_154_1756">
<rect width="28.5" height="38" fill="white"/>
</clipPath>
</defs>
</svg>
