<svg width="200" height="200" viewBox="0 0 200 200" fill="none" xmlns="http://www.w3.org/2000/svg">
<path d="M100 200C155.228 200 200 155.228 200 100C200 44.7715 155.228 0 100 0C44.7715 0 0 44.7715 0 100C0 155.228 44.7715 200 100 200Z" fill="#EF95CF"/>
<path d="M157.131 50.2422H134.525L114.667 151.596L101.859 94.2826L111.677 50.2422H108.081L99.9395 86.1412L91.9193 50.2422H88.2022L98.1416 94.2826L85.3335 151.596L65.4749 50.2422H42.8486L64.0406 156.02H87.9799L99.9395 102.404L112.02 156.02H135.96L157.131 50.2422Z" fill="black"/>
</svg>
