<svg width="200" height="200" viewBox="0 0 200 200" fill="none" xmlns="http://www.w3.org/2000/svg">
<path d="M100 200C155.228 200 200 155.228 200 100C200 44.7715 155.228 0 100 0C44.7715 0 0 44.7715 0 100C0 155.228 44.7715 200 100 200Z" fill="#EAFF00"/>
<path d="M27.3996 130.447C43.9363 119.817 54.9596 111.55 62.0463 104.727C73.0696 94.36 75.1696 87.5367 75.1696 80.9734C75.1696 72.05 69.5263 66.8 60.3396 66.8C51.153 66.8 45.2463 72.5734 42.0996 80.3167L25.6963 72.3134C32.1263 59.32 44.333 50.79 60.6063 50.79C82.523 50.79 93.9396 62.9934 93.9396 78.35C93.9396 90.6867 86.983 99.74 67.2996 111.027C57.5863 116.67 44.7263 122.837 28.063 130.317H93.4163V147.903H27.3996V130.45V130.447Z" fill="black"/>
<path d="M97.5469 101.707V97.2433C97.5469 64.04 114.344 50.7866 135.344 50.7866C156.344 50.7866 173.137 64.4333 173.137 97.2433V101.707C173.137 136.877 157.257 149.213 135.344 149.213C113.43 149.213 97.5469 136.483 97.5469 101.707ZM154.11 101.443V97.5066C154.11 74.2799 146.63 68.3733 135.474 68.3733C124.317 68.3733 116.577 74.9366 116.577 97.5066V101.443C116.577 125.067 123.664 131.497 135.344 131.497C147.024 131.497 154.11 124.803 154.11 101.443Z" fill="black"/>
<path d="M131.55 96.5635H133.377L130.343 102.433V105.84H128.753V102.433L125.733 96.5635H127.563L129.393 100.367L129.447 101.11H129.673L129.713 100.367L131.557 96.5635H131.55Z" fill="black"/>
<path d="M142.137 105.84H136.49V96.5635H142.137V98.0468H138.08V100.46H142.004V101.93H138.08V104.343H142.137V105.84Z" fill="black"/>
<path d="M152.647 105.84H150.937L150.167 102.78H147.53L146.75 105.84H145.04L147.583 96.5635H150.113L152.643 105.84H152.647ZM148.67 98.2735L147.89 101.333H149.797L149.027 98.2735L148.96 97.4001H148.733L148.667 98.2735H148.67Z" fill="black"/>
<path d="M160.186 105.84L157.84 101.877H157.31V105.84H155.72V96.5635H159.033C159.996 96.5635 160.746 96.7835 161.28 97.2268C161.813 97.6701 162.08 98.3235 162.08 99.1868C162.08 99.9368 161.84 100.517 161.363 100.93C160.886 101.343 160.233 101.577 159.403 101.64V101.813L159.8 102L162.106 105.843H160.186V105.84ZM157.31 98.0335V100.51H159.046C159.486 100.51 159.833 100.403 160.08 100.187C160.326 99.9701 160.45 99.6601 160.45 99.2535C160.45 98.8468 160.326 98.5535 160.08 98.3468C159.833 98.1401 159.486 98.0368 159.046 98.0368H157.31V98.0335Z" fill="#EAFF00"/>
<path d="M165.733 105.23C165.163 104.683 164.88 103.87 164.88 102.79H166.537C166.537 103.4 166.677 103.853 166.96 104.153C167.243 104.453 167.683 104.603 168.287 104.603C168.8 104.603 169.2 104.487 169.487 104.253C169.773 104.02 169.917 103.693 169.917 103.28C169.917 102.943 169.803 102.67 169.573 102.457C169.343 102.243 168.973 102.09 168.46 101.993L167.387 101.793C166.6 101.653 166 101.36 165.583 100.913C165.167 100.467 164.96 99.9034 164.96 99.2234C164.96 98.6501 165.1 98.1468 165.377 97.7134C165.657 97.2801 166.05 96.9434 166.557 96.7068C167.063 96.4668 167.653 96.3501 168.327 96.3501C169.397 96.3501 170.217 96.6268 170.79 97.1801C171.363 97.7334 171.653 98.5334 171.653 99.5868H170.01C170.01 98.9868 169.87 98.5368 169.593 98.2368C169.317 97.9368 168.88 97.7868 168.287 97.7868C167.747 97.7868 167.333 97.9068 167.04 98.1501C166.747 98.3934 166.603 98.7134 166.603 99.1101C166.603 99.4468 166.72 99.7168 166.953 99.9268C167.187 100.133 167.563 100.29 168.087 100.397L169.147 100.597C169.933 100.757 170.53 101.057 170.943 101.497C171.353 101.94 171.56 102.513 171.56 103.22C171.56 104.087 171.263 104.777 170.673 105.287C170.08 105.8 169.267 106.057 168.233 106.057C167.137 106.057 166.303 105.783 165.737 105.233L165.733 105.23Z" fill="#EAFF00"/>
</svg>
